<?xml version="1.0" encoding="UTF-8" standalone="no"?><svg xmlns="http://www.w3.org/2000/svg" xmlns:xlink="http://www.w3.org/1999/xlink" contentScriptType="application/ecmascript" contentStyleType="text/css" height="543px" preserveAspectRatio="none" style="width:1231px;height:543px;" version="1.1" viewBox="0 0 1231 543" width="1231px" zoomAndPan="magnify"><defs><filter height="300%" id="fhc0pr0c18gk8" width="300%" x="-1" y="-1"><feGaussianBlur result="blurOut" stdDeviation="2.0"/><feColorMatrix in="blurOut" result="blurOut2" type="matrix" values="0 0 0 0 0 0 0 0 0 0 0 0 0 0 0 0 0 0 .4 0"/><feOffset dx="4.0" dy="4.0" in="blurOut2" result="blurOut3"/><feBlend in="SourceGraphic" in2="blurOut3" mode="normal"/></filter></defs><g><rect fill="#FFFFFF" filter="url(#fhc0pr0c18gk8)" height="329.4609" style="stroke: #A80036; stroke-width: 1.0;" width="10" x="202" y="117.4297"/><rect fill="#FFFFFF" filter="url(#fhc0pr0c18gk8)" height="262.1953" style="stroke: #A80036; stroke-width: 1.0;" width="10" x="419.5" y="146.5625"/><rect fill="#FFFFFF" filter="url(#fhc0pr0c18gk8)" height="203.9297" style="stroke: #A80036; stroke-width: 1.0;" width="10" x="595" y="175.6953"/><rect fill="#FFFFFF" filter="url(#fhc0pr0c18gk8)" height="145.6641" style="stroke: #A80036; stroke-width: 1.0;" width="10" x="843" y="204.8281"/><rect fill="#FFFFFF" filter="url(#fhc0pr0c18gk8)" height="87.3984" style="stroke: #A80036; stroke-width: 1.0;" width="10" x="1003" y="233.9609"/><line style="stroke: #A80036; stroke-width: 1.0; stroke-dasharray: 5.0,5.0;" x1="27" x2="27" y1="86.2969" y2="455.8906"/><line style="stroke: #A80036; stroke-width: 1.0; stroke-dasharray: 5.0,5.0;" x1="206.5" x2="206.5" y1="86.2969" y2="455.8906"/><line style="stroke: #A80036; stroke-width: 1.0; stroke-dasharray: 5.0,5.0;" x1="424.5" x2="424.5" y1="86.2969" y2="455.8906"/><line style="stroke: #A80036; stroke-width: 1.0; stroke-dasharray: 5.0,5.0;" x1="599.5" x2="599.5" y1="86.2969" y2="455.8906"/><line style="stroke: #A80036; stroke-width: 1.0; stroke-dasharray: 5.0,5.0;" x1="847.5" x2="847.5" y1="86.2969" y2="455.8906"/><line style="stroke: #A80036; stroke-width: 1.0; stroke-dasharray: 5.0,5.0;" x1="1007.5" x2="1007.5" y1="86.2969" y2="455.8906"/><line style="stroke: #A80036; stroke-width: 1.0; stroke-dasharray: 5.0,5.0;" x1="1189" x2="1189" y1="86.2969" y2="455.8906"/><text fill="#000000" font-family="sans-serif" font-size="14" lengthAdjust="spacingAndGlyphs" textLength="32" x="8" y="82.9951">User</text><ellipse cx="27" cy="13" fill="#FEFECE" filter="url(#fhc0pr0c18gk8)" rx="8" ry="8" style="stroke: #A80036; stroke-width: 2.0;"/><path d="M27,21 L27,48 M14,29 L40,29 M27,48 L14,63 M27,48 L40,63 " fill="none" filter="url(#fhc0pr0c18gk8)" style="stroke: #A80036; stroke-width: 2.0;"/><text fill="#000000" font-family="sans-serif" font-size="14" lengthAdjust="spacingAndGlyphs" textLength="32" x="8" y="467.8857">User</text><ellipse cx="27" cy="481.1875" fill="#FEFECE" filter="url(#fhc0pr0c18gk8)" rx="8" ry="8" style="stroke: #A80036; stroke-width: 2.0;"/><path d="M27,489.1875 L27,516.1875 M14,497.1875 L40,497.1875 M27,516.1875 L14,531.1875 M27,516.1875 L40,531.1875 " fill="none" filter="url(#fhc0pr0c18gk8)" style="stroke: #A80036; stroke-width: 2.0;"/><rect fill="#FEFECE" filter="url(#fhc0pr0c18gk8)" height="30.2969" style="stroke: #A80036; stroke-width: 1.5;" width="225" x="92.5" y="51"/><text fill="#000000" font-family="sans-serif" font-size="14" lengthAdjust="spacingAndGlyphs" textLength="211" x="99.5" y="70.9951">:ListBuildingsComponentHTML</text><rect fill="#FEFECE" filter="url(#fhc0pr0c18gk8)" height="30.2969" style="stroke: #A80036; stroke-width: 1.5;" width="225" x="92.5" y="454.8906"/><text fill="#000000" font-family="sans-serif" font-size="14" lengthAdjust="spacingAndGlyphs" textLength="211" x="99.5" y="474.8857">:ListBuildingsComponentHTML</text><rect fill="#FEFECE" filter="url(#fhc0pr0c18gk8)" height="30.2969" style="stroke: #A80036; stroke-width: 1.5;" width="182" x="331.5" y="51"/><text fill="#000000" font-family="sans-serif" font-size="14" lengthAdjust="spacingAndGlyphs" textLength="168" x="338.5" y="70.9951">ListBuildingsComponent</text><rect fill="#FEFECE" filter="url(#fhc0pr0c18gk8)" height="30.2969" style="stroke: #A80036; stroke-width: 1.5;" width="182" x="331.5" y="454.8906"/><text fill="#000000" font-family="sans-serif" font-size="14" lengthAdjust="spacingAndGlyphs" textLength="168" x="338.5" y="474.8857">ListBuildingsComponent</text><rect fill="#FEFECE" filter="url(#fhc0pr0c18gk8)" height="30.2969" style="stroke: #A80036; stroke-width: 1.5;" width="141" x="527.5" y="51"/><text fill="#000000" font-family="sans-serif" font-size="14" lengthAdjust="spacingAndGlyphs" textLength="127" x="534.5" y="70.9951">:BuildingServiceFE</text><rect fill="#FEFECE" filter="url(#fhc0pr0c18gk8)" height="30.2969" style="stroke: #A80036; stroke-width: 1.5;" width="141" x="527.5" y="454.8906"/><text fill="#000000" font-family="sans-serif" font-size="14" lengthAdjust="spacingAndGlyphs" textLength="127" x="534.5" y="474.8857">:BuildingServiceFE</text><rect fill="#FEFECE" filter="url(#fhc0pr0c18gk8)" height="30.2969" style="stroke: #A80036; stroke-width: 1.5;" width="149" x="771.5" y="51"/><text fill="#000000" font-family="sans-serif" font-size="14" lengthAdjust="spacingAndGlyphs" textLength="135" x="778.5" y="70.9951">:BuildingsController</text><rect fill="#FEFECE" filter="url(#fhc0pr0c18gk8)" height="30.2969" style="stroke: #A80036; stroke-width: 1.5;" width="149" x="771.5" y="454.8906"/><text fill="#000000" font-family="sans-serif" font-size="14" lengthAdjust="spacingAndGlyphs" textLength="135" x="778.5" y="474.8857">:BuildingsController</text><rect fill="#FEFECE" filter="url(#fhc0pr0c18gk8)" height="30.2969" style="stroke: #A80036; stroke-width: 1.5;" width="143" x="934.5" y="51"/><text fill="#000000" font-family="sans-serif" font-size="14" lengthAdjust="spacingAndGlyphs" textLength="129" x="941.5" y="70.9951">:BuildingServiceBE</text><rect fill="#FEFECE" filter="url(#fhc0pr0c18gk8)" height="30.2969" style="stroke: #A80036; stroke-width: 1.5;" width="143" x="934.5" y="454.8906"/><text fill="#000000" font-family="sans-serif" font-size="14" lengthAdjust="spacingAndGlyphs" textLength="129" x="941.5" y="474.8857">:BuildingServiceBE</text><text fill="#000000" font-family="sans-serif" font-size="14" lengthAdjust="spacingAndGlyphs" textLength="66" x="1153" y="82.9951">Database</text><path d="M1171,34 C1171,24 1189,24 1189,24 C1189,24 1207,24 1207,34 L1207,60 C1207,70 1189,70 1189,70 C1189,70 1171,70 1171,60 L1171,34 " fill="#FEFECE" filter="url(#fhc0pr0c18gk8)" style="stroke: #000000; stroke-width: 1.5;"/><path d="M1171,34 C1171,44 1189,44 1189,44 C1189,44 1207,44 1207,34 " fill="none" style="stroke: #000000; stroke-width: 1.5;"/><text fill="#000000" font-family="sans-serif" font-size="14" lengthAdjust="spacingAndGlyphs" textLength="66" x="1153" y="467.8857">Database</text><path d="M1171,481.1875 C1171,471.1875 1189,471.1875 1189,471.1875 C1189,471.1875 1207,471.1875 1207,481.1875 L1207,507.1875 C1207,517.1875 1189,517.1875 1189,517.1875 C1189,517.1875 1171,517.1875 1171,507.1875 L1171,481.1875 " fill="#FEFECE" filter="url(#fhc0pr0c18gk8)" style="stroke: #000000; stroke-width: 1.5;"/><path d="M1171,481.1875 C1171,491.1875 1189,491.1875 1189,491.1875 C1189,491.1875 1207,491.1875 1207,481.1875 " fill="none" style="stroke: #000000; stroke-width: 1.5;"/><rect fill="#FFFFFF" filter="url(#fhc0pr0c18gk8)" height="329.4609" style="stroke: #A80036; stroke-width: 1.0;" width="10" x="202" y="117.4297"/><rect fill="#FFFFFF" filter="url(#fhc0pr0c18gk8)" height="262.1953" style="stroke: #A80036; stroke-width: 1.0;" width="10" x="419.5" y="146.5625"/><rect fill="#FFFFFF" filter="url(#fhc0pr0c18gk8)" height="203.9297" style="stroke: #A80036; stroke-width: 1.0;" width="10" x="595" y="175.6953"/><rect fill="#FFFFFF" filter="url(#fhc0pr0c18gk8)" height="145.6641" style="stroke: #A80036; stroke-width: 1.0;" width="10" x="843" y="204.8281"/><rect fill="#FFFFFF" filter="url(#fhc0pr0c18gk8)" height="87.3984" style="stroke: #A80036; stroke-width: 1.0;" width="10" x="1003" y="233.9609"/><polygon fill="#A80036" points="190,113.4297,200,117.4297,190,121.4297,194,117.4297" style="stroke: #A80036; stroke-width: 1.0;"/><line style="stroke: #A80036; stroke-width: 1.0;" x1="27" x2="196" y1="117.4297" y2="117.4297"/><text fill="#000000" font-family="sans-serif" font-size="13" lengthAdjust="spacingAndGlyphs" textLength="156" x="34" y="112.3638">Request to List Buildings</text><polygon fill="#A80036" points="407.5,142.5625,417.5,146.5625,407.5,150.5625,411.5,146.5625" style="stroke: #A80036; stroke-width: 1.0;"/><line style="stroke: #A80036; stroke-width: 1.0;" x1="212" x2="413.5" y1="146.5625" y2="146.5625"/><text fill="#000000" font-family="sans-serif" font-size="13" lengthAdjust="spacingAndGlyphs" textLength="166" x="219" y="141.4966">Receive the HTTP Request</text><polygon fill="#A80036" points="583,171.6953,593,175.6953,583,179.6953,587,175.6953" style="stroke: #A80036; stroke-width: 1.0;"/><line style="stroke: #A80036; stroke-width: 1.0;" x1="429.5" x2="589" y1="175.6953" y2="175.6953"/><text fill="#000000" font-family="sans-serif" font-size="13" lengthAdjust="spacingAndGlyphs" textLength="88" x="436.5" y="170.6294">getBuildings()</text><polygon fill="#A80036" points="831,200.8281,841,204.8281,831,208.8281,835,204.8281" style="stroke: #A80036; stroke-width: 1.0;"/><line style="stroke: #A80036; stroke-width: 1.0;" x1="605" x2="837" y1="204.8281" y2="204.8281"/><text fill="#000000" font-family="sans-serif" font-size="13" lengthAdjust="spacingAndGlyphs" textLength="147" x="612" y="199.7622">HTTP GET /buildings/list</text><polygon fill="#A80036" points="991,229.9609,1001,233.9609,991,237.9609,995,233.9609" style="stroke: #A80036; stroke-width: 1.0;"/><line style="stroke: #A80036; stroke-width: 1.0;" x1="853" x2="997" y1="233.9609" y2="233.9609"/><text fill="#000000" font-family="sans-serif" font-size="13" lengthAdjust="spacingAndGlyphs" textLength="48" x="860" y="228.895">findAll()</text><polygon fill="#A80036" points="1177,259.0938,1187,263.0938,1177,267.0938,1181,263.0938" style="stroke: #A80036; stroke-width: 1.0;"/><line style="stroke: #A80036; stroke-width: 1.0;" x1="1013" x2="1183" y1="263.0938" y2="263.0938"/><text fill="#000000" font-family="sans-serif" font-size="13" lengthAdjust="spacingAndGlyphs" textLength="152" x="1020" y="258.0278">Query get Building Data</text><polygon fill="#A80036" points="1024,288.2266,1014,292.2266,1024,296.2266,1020,292.2266" style="stroke: #A80036; stroke-width: 1.0;"/><line style="stroke: #A80036; stroke-width: 1.0; stroke-dasharray: 2.0,2.0;" x1="1018" x2="1188" y1="292.2266" y2="292.2266"/><text fill="#000000" font-family="sans-serif" font-size="13" lengthAdjust="spacingAndGlyphs" textLength="99" x="1030" y="287.1606">List of Buildings</text><polygon fill="#A80036" points="864,317.3594,854,321.3594,864,325.3594,860,321.3594" style="stroke: #A80036; stroke-width: 1.0;"/><line style="stroke: #A80036; stroke-width: 1.0; stroke-dasharray: 2.0,2.0;" x1="858" x2="1007" y1="321.3594" y2="321.3594"/><text fill="#000000" font-family="sans-serif" font-size="13" lengthAdjust="spacingAndGlyphs" textLength="99" x="870" y="316.2935">List of Buildings</text><polygon fill="#A80036" points="616,346.4922,606,350.4922,616,354.4922,612,350.4922" style="stroke: #A80036; stroke-width: 1.0;"/><line style="stroke: #A80036; stroke-width: 1.0; stroke-dasharray: 2.0,2.0;" x1="610" x2="847" y1="350.4922" y2="350.4922"/><text fill="#000000" font-family="sans-serif" font-size="13" lengthAdjust="spacingAndGlyphs" textLength="214" x="622" y="345.4263">HTTP 200 OK with List of Buildings</text><polygon fill="#A80036" points="440.5,375.625,430.5,379.625,440.5,383.625,436.5,379.625" style="stroke: #A80036; stroke-width: 1.0;"/><line style="stroke: #A80036; stroke-width: 1.0;" x1="434.5" x2="599" y1="379.625" y2="379.625"/><text fill="#000000" font-family="sans-serif" font-size="13" lengthAdjust="spacingAndGlyphs" textLength="135" x="446.5" y="374.5591">Console.log Buildings</text><polygon fill="#A80036" points="223,404.7578,213,408.7578,223,412.7578,219,408.7578" style="stroke: #A80036; stroke-width: 1.0;"/><line style="stroke: #A80036; stroke-width: 1.0;" x1="217" x2="423.5" y1="408.7578" y2="408.7578"/><text fill="#000000" font-family="sans-serif" font-size="13" lengthAdjust="spacingAndGlyphs" textLength="84" x="229" y="403.6919">Buildings info</text><polygon fill="#A80036" points="38,433.8906,28,437.8906,38,441.8906,34,437.8906" style="stroke: #A80036; stroke-width: 1.0;"/><line style="stroke: #A80036; stroke-width: 1.0; stroke-dasharray: 2.0,2.0;" x1="32" x2="201" y1="437.8906" y2="437.8906"/><text fill="#000000" font-family="sans-serif" font-size="13" lengthAdjust="spacingAndGlyphs" textLength="149" x="44" y="432.8247">Display List of Buildings</text><!--MD5=[e5a37ac32d2415bb7e734674f4337c0e]
@startuml
actor "User" as user
participant ":ListBuildingsComponentHTML" as ui
participant "ListBuildingsComponent" as component
participant ":BuildingServiceFE" as servicefe
participant ":BuildingsController" as controller
participant ":BuildingServiceBE" as service

database "Database" as db

user -> ui: Request to List Buildings
activate ui
ui -> component: Receive the HTTP Request
activate component
component -> servicefe: getBuildings()
activate servicefe
servicefe -> controller: HTTP GET /buildings/list
activate controller
controller -> service: findAll()
activate service
service -> db: Query get Building Data 
db - -> service: List of Buildings
service - -> controller: List of Buildings
deactivate service
controller - -> servicefe: HTTP 200 OK with List of Buildings
deactivate controller
servicefe -> component: Console.log Buildings
deactivate servicefe
component -> ui: Buildings info
deactivate component
ui - -> user: Display List of Buildings
@enduml

PlantUML version 1.2020.02(Sun Mar 01 10:22:07 UTC 2020)
(GPL source distribution)
Java Runtime: OpenJDK Runtime Environment
JVM: OpenJDK 64-Bit Server VM
Java Version: 11.0.21+9
Operating System: Linux
Default Encoding: UTF-8
Language: en
Country: null
--></g></svg>