<?xml version="1.0" encoding="UTF-8" standalone="no"?><svg xmlns="http://www.w3.org/2000/svg" xmlns:xlink="http://www.w3.org/1999/xlink" contentScriptType="application/ecmascript" contentStyleType="text/css" height="896px" preserveAspectRatio="none" style="width:1504px;height:896px;" version="1.1" viewBox="0 0 1504 896" width="1504px" zoomAndPan="magnify"><defs><filter height="300%" id="fqw1ityuadubc" width="300%" x="-1" y="-1"><feGaussianBlur result="blurOut" stdDeviation="2.0"/><feColorMatrix in="blurOut" result="blurOut2" type="matrix" values="0 0 0 0 0 0 0 0 0 0 0 0 0 0 0 0 0 0 .4 0"/><feOffset dx="4.0" dy="4.0" in="blurOut2" result="blurOut3"/><feBlend in="SourceGraphic" in2="blurOut3" mode="normal"/></filter></defs><g><rect fill="#FFFFFF" filter="url(#fqw1ityuadubc)" height="703.1875" style="stroke: #A80036; stroke-width: 1.0;" width="10" x="37" y="96.2969"/><rect fill="#FFFFFF" filter="url(#fqw1ityuadubc)" height="667.0547" style="stroke: #A80036; stroke-width: 1.0;" width="10" x="283" y="117.4297"/><rect fill="#FFFFFF" filter="url(#fqw1ityuadubc)" height="608.7891" style="stroke: #A80036; stroke-width: 1.0;" width="10" x="419" y="146.5625"/><rect fill="#FFFFFF" filter="url(#fqw1ityuadubc)" height="550.5234" style="stroke: #A80036; stroke-width: 1.0;" width="10" x="549" y="175.6953"/><rect fill="#FFFFFF" filter="url(#fqw1ityuadubc)" height="492.2578" style="stroke: #A80036; stroke-width: 1.0;" width="10" x="670" y="204.8281"/><rect fill="#FFFFFF" filter="url(#fqw1ityuadubc)" height="433.9922" style="stroke: #A80036; stroke-width: 1.0;" width="10" x="791" y="233.9609"/><rect fill="#FFFFFF" filter="url(#fqw1ityuadubc)" height="375.7266" style="stroke: #A80036; stroke-width: 1.0;" width="10" x="1023" y="263.0938"/><rect fill="#FFFFFF" filter="url(#fqw1ityuadubc)" height="111.5313" style="stroke: #A80036; stroke-width: 1.0;" width="10" x="1250" y="292.2266"/><rect fill="#FFFFFF" filter="url(#fqw1ityuadubc)" height="29.1328" style="stroke: #A80036; stroke-width: 1.0;" width="10" x="1441.5" y="345.4922"/><rect fill="#FFFFFF" filter="url(#fqw1ityuadubc)" height="485.2578" style="stroke: #000000; stroke-width: 2.0;" width="1479.5" x="13" y="307.2266"/><rect fill="#FFFFFF" height="205.9297" style="stroke: none; stroke-width: 1.0;" width="1479.5" x="13" y="586.5547"/><line style="stroke: #A80036; stroke-width: 1.0; stroke-dasharray: 5.0,5.0;" x1="42" x2="42" y1="86.2969" y2="809.4844"/><line style="stroke: #A80036; stroke-width: 1.0; stroke-dasharray: 5.0,5.0;" x1="287.5" x2="287.5" y1="86.2969" y2="809.4844"/><line style="stroke: #A80036; stroke-width: 1.0; stroke-dasharray: 5.0,5.0;" x1="423.5" x2="423.5" y1="86.2969" y2="809.4844"/><line style="stroke: #A80036; stroke-width: 1.0; stroke-dasharray: 5.0,5.0;" x1="553.5" x2="553.5" y1="86.2969" y2="809.4844"/><line style="stroke: #A80036; stroke-width: 1.0; stroke-dasharray: 5.0,5.0;" x1="674.5" x2="674.5" y1="86.2969" y2="809.4844"/><line style="stroke: #A80036; stroke-width: 1.0; stroke-dasharray: 5.0,5.0;" x1="795.5" x2="795.5" y1="86.2969" y2="809.4844"/><line style="stroke: #A80036; stroke-width: 1.0; stroke-dasharray: 5.0,5.0;" x1="1028" x2="1028" y1="86.2969" y2="809.4844"/><line style="stroke: #A80036; stroke-width: 1.0; stroke-dasharray: 5.0,5.0;" x1="1254.5" x2="1254.5" y1="86.2969" y2="809.4844"/><line style="stroke: #A80036; stroke-width: 1.0; stroke-dasharray: 5.0,5.0;" x1="1361.5" x2="1361.5" y1="86.2969" y2="809.4844"/><line style="stroke: #A80036; stroke-width: 1.0; stroke-dasharray: 5.0,5.0;" x1="1446.5" x2="1446.5" y1="86.2969" y2="809.4844"/><text fill="#000000" font-family="sans-serif" font-size="14" lengthAdjust="spacingAndGlyphs" textLength="32" x="23" y="82.9951">User</text><ellipse cx="42" cy="13" fill="#FEFECE" filter="url(#fqw1ityuadubc)" rx="8" ry="8" style="stroke: #A80036; stroke-width: 2.0;"/><path d="M42,21 L42,48 M29,29 L55,29 M42,48 L29,63 M42,48 L55,63 " fill="none" filter="url(#fqw1ityuadubc)" style="stroke: #A80036; stroke-width: 2.0;"/><text fill="#000000" font-family="sans-serif" font-size="14" lengthAdjust="spacingAndGlyphs" textLength="32" x="23" y="821.4795">User</text><ellipse cx="42" cy="834.7813" fill="#FEFECE" filter="url(#fqw1ityuadubc)" rx="8" ry="8" style="stroke: #A80036; stroke-width: 2.0;"/><path d="M42,842.7813 L42,869.7813 M29,850.7813 L55,850.7813 M42,869.7813 L29,884.7813 M42,869.7813 L55,884.7813 " fill="none" filter="url(#fqw1ityuadubc)" style="stroke: #A80036; stroke-width: 2.0;"/><rect fill="#FEFECE" filter="url(#fqw1ityuadubc)" height="30.2969" style="stroke: #A80036; stroke-width: 1.5;" width="51" x="260.5" y="51"/><text fill="#000000" font-family="sans-serif" font-size="14" lengthAdjust="spacingAndGlyphs" textLength="37" x="267.5" y="70.9951">:View</text><rect fill="#FEFECE" filter="url(#fqw1ityuadubc)" height="30.2969" style="stroke: #A80036; stroke-width: 1.5;" width="51" x="260.5" y="808.4844"/><text fill="#000000" font-family="sans-serif" font-size="14" lengthAdjust="spacingAndGlyphs" textLength="37" x="267.5" y="828.4795">:View</text><rect fill="#FEFECE" filter="url(#fqw1ityuadubc)" height="30.2969" style="stroke: #A80036; stroke-width: 1.5;" width="125" x="359.5" y="51"/><text fill="#000000" font-family="sans-serif" font-size="14" lengthAdjust="spacingAndGlyphs" textLength="111" x="366.5" y="70.9951">:FE_Component</text><rect fill="#FEFECE" filter="url(#fqw1ityuadubc)" height="30.2969" style="stroke: #A80036; stroke-width: 1.5;" width="125" x="359.5" y="808.4844"/><text fill="#000000" font-family="sans-serif" font-size="14" lengthAdjust="spacingAndGlyphs" textLength="111" x="366.5" y="828.4795">:FE_Component</text><rect fill="#FEFECE" filter="url(#fqw1ityuadubc)" height="30.2969" style="stroke: #A80036; stroke-width: 1.5;" width="93" x="505.5" y="51"/><text fill="#000000" font-family="sans-serif" font-size="14" lengthAdjust="spacingAndGlyphs" textLength="79" x="512.5" y="70.9951">:FE_Service</text><rect fill="#FEFECE" filter="url(#fqw1ityuadubc)" height="30.2969" style="stroke: #A80036; stroke-width: 1.5;" width="93" x="505.5" y="808.4844"/><text fill="#000000" font-family="sans-serif" font-size="14" lengthAdjust="spacingAndGlyphs" textLength="79" x="512.5" y="828.4795">:FE_Service</text><rect fill="#FEFECE" filter="url(#fqw1ityuadubc)" height="30.2969" style="stroke: #A80036; stroke-width: 1.5;" width="73" x="636.5" y="51"/><text fill="#000000" font-family="sans-serif" font-size="14" lengthAdjust="spacingAndGlyphs" textLength="59" x="643.5" y="70.9951">:Routing</text><rect fill="#FEFECE" filter="url(#fqw1ityuadubc)" height="30.2969" style="stroke: #A80036; stroke-width: 1.5;" width="73" x="636.5" y="808.4844"/><text fill="#000000" font-family="sans-serif" font-size="14" lengthAdjust="spacingAndGlyphs" textLength="59" x="643.5" y="828.4795">:Routing</text><rect fill="#FEFECE" filter="url(#fqw1ityuadubc)" height="30.2969" style="stroke: #A80036; stroke-width: 1.5;" width="141" x="723.5" y="51"/><text fill="#000000" font-family="sans-serif" font-size="14" lengthAdjust="spacingAndGlyphs" textLength="127" x="730.5" y="70.9951">:BuildingController</text><rect fill="#FEFECE" filter="url(#fqw1ityuadubc)" height="30.2969" style="stroke: #A80036; stroke-width: 1.5;" width="141" x="723.5" y="808.4844"/><text fill="#000000" font-family="sans-serif" font-size="14" lengthAdjust="spacingAndGlyphs" textLength="127" x="730.5" y="828.4795">:BuildingController</text><rect fill="#FEFECE" filter="url(#fqw1ityuadubc)" height="30.2969" style="stroke: #A80036; stroke-width: 1.5;" width="124" x="964" y="51"/><text fill="#000000" font-family="sans-serif" font-size="14" lengthAdjust="spacingAndGlyphs" textLength="110" x="971" y="70.9951">:BuildingService</text><rect fill="#FEFECE" filter="url(#fqw1ityuadubc)" height="30.2969" style="stroke: #A80036; stroke-width: 1.5;" width="124" x="964" y="808.4844"/><text fill="#000000" font-family="sans-serif" font-size="14" lengthAdjust="spacingAndGlyphs" textLength="110" x="971" y="828.4795">:BuildingService</text><rect fill="#FEFECE" filter="url(#fqw1ityuadubc)" height="30.2969" style="stroke: #A80036; stroke-width: 1.5;" width="111" x="1197.5" y="51"/><text fill="#000000" font-family="sans-serif" font-size="14" lengthAdjust="spacingAndGlyphs" textLength="97" x="1204.5" y="70.9951">:BuildingRepo</text><rect fill="#FEFECE" filter="url(#fqw1ityuadubc)" height="30.2969" style="stroke: #A80036; stroke-width: 1.5;" width="111" x="1197.5" y="808.4844"/><text fill="#000000" font-family="sans-serif" font-size="14" lengthAdjust="spacingAndGlyphs" textLength="97" x="1204.5" y="828.4795">:BuildingRepo</text><rect fill="#FEFECE" filter="url(#fqw1ityuadubc)" height="30.2969" style="stroke: #A80036; stroke-width: 1.5;" width="74" x="1322.5" y="51"/><text fill="#000000" font-family="sans-serif" font-size="14" lengthAdjust="spacingAndGlyphs" textLength="60" x="1329.5" y="70.9951">:Building</text><rect fill="#FEFECE" filter="url(#fqw1ityuadubc)" height="30.2969" style="stroke: #A80036; stroke-width: 1.5;" width="74" x="1322.5" y="808.4844"/><text fill="#000000" font-family="sans-serif" font-size="14" lengthAdjust="spacingAndGlyphs" textLength="60" x="1329.5" y="828.4795">:Building</text><text fill="#000000" font-family="sans-serif" font-size="14" lengthAdjust="spacingAndGlyphs" textLength="66" x="1410.5" y="82.9951">Database</text><path d="M1428.5,34 C1428.5,24 1446.5,24 1446.5,24 C1446.5,24 1464.5,24 1464.5,34 L1464.5,60 C1464.5,70 1446.5,70 1446.5,70 C1446.5,70 1428.5,70 1428.5,60 L1428.5,34 " fill="#FEFECE" filter="url(#fqw1ityuadubc)" style="stroke: #000000; stroke-width: 1.5;"/><path d="M1428.5,34 C1428.5,44 1446.5,44 1446.5,44 C1446.5,44 1464.5,44 1464.5,34 " fill="none" style="stroke: #000000; stroke-width: 1.5;"/><text fill="#000000" font-family="sans-serif" font-size="14" lengthAdjust="spacingAndGlyphs" textLength="66" x="1410.5" y="821.4795">Database</text><path d="M1428.5,834.7813 C1428.5,824.7813 1446.5,824.7813 1446.5,824.7813 C1446.5,824.7813 1464.5,824.7813 1464.5,834.7813 L1464.5,860.7813 C1464.5,870.7813 1446.5,870.7813 1446.5,870.7813 C1446.5,870.7813 1428.5,870.7813 1428.5,860.7813 L1428.5,834.7813 " fill="#FEFECE" filter="url(#fqw1ityuadubc)" style="stroke: #000000; stroke-width: 1.5;"/><path d="M1428.5,834.7813 C1428.5,844.7813 1446.5,844.7813 1446.5,844.7813 C1446.5,844.7813 1464.5,844.7813 1464.5,834.7813 " fill="none" style="stroke: #000000; stroke-width: 1.5;"/><rect fill="#FFFFFF" filter="url(#fqw1ityuadubc)" height="703.1875" style="stroke: #A80036; stroke-width: 1.0;" width="10" x="37" y="96.2969"/><rect fill="#FFFFFF" filter="url(#fqw1ityuadubc)" height="667.0547" style="stroke: #A80036; stroke-width: 1.0;" width="10" x="283" y="117.4297"/><rect fill="#FFFFFF" filter="url(#fqw1ityuadubc)" height="608.7891" style="stroke: #A80036; stroke-width: 1.0;" width="10" x="419" y="146.5625"/><rect fill="#FFFFFF" filter="url(#fqw1ityuadubc)" height="550.5234" style="stroke: #A80036; stroke-width: 1.0;" width="10" x="549" y="175.6953"/><rect fill="#FFFFFF" filter="url(#fqw1ityuadubc)" height="492.2578" style="stroke: #A80036; stroke-width: 1.0;" width="10" x="670" y="204.8281"/><rect fill="#FFFFFF" filter="url(#fqw1ityuadubc)" height="433.9922" style="stroke: #A80036; stroke-width: 1.0;" width="10" x="791" y="233.9609"/><rect fill="#FFFFFF" filter="url(#fqw1ityuadubc)" height="375.7266" style="stroke: #A80036; stroke-width: 1.0;" width="10" x="1023" y="263.0938"/><rect fill="#FFFFFF" filter="url(#fqw1ityuadubc)" height="111.5313" style="stroke: #A80036; stroke-width: 1.0;" width="10" x="1250" y="292.2266"/><rect fill="#FFFFFF" filter="url(#fqw1ityuadubc)" height="29.1328" style="stroke: #A80036; stroke-width: 1.0;" width="10" x="1441.5" y="345.4922"/><polygon fill="#A80036" points="271,113.4297,281,117.4297,271,121.4297,275,117.4297" style="stroke: #A80036; stroke-width: 1.0;"/><line style="stroke: #A80036; stroke-width: 1.0;" x1="47" x2="277" y1="117.4297" y2="117.4297"/><text fill="#000000" font-family="sans-serif" font-size="13" font-weight="bold" lengthAdjust="spacingAndGlyphs" textLength="9" x="54" y="112.3638">1</text><text fill="#000000" font-family="sans-serif" font-size="13" lengthAdjust="spacingAndGlyphs" textLength="204" x="67" y="112.3638">wants to see the list of buildings</text><polygon fill="#A80036" points="407,142.5625,417,146.5625,407,150.5625,411,146.5625" style="stroke: #A80036; stroke-width: 1.0;"/><line style="stroke: #A80036; stroke-width: 1.0;" x1="293" x2="413" y1="146.5625" y2="146.5625"/><text fill="#000000" font-family="sans-serif" font-size="13" font-weight="bold" lengthAdjust="spacingAndGlyphs" textLength="9" x="300" y="141.4966">2</text><text fill="#000000" font-family="sans-serif" font-size="13" lengthAdjust="spacingAndGlyphs" textLength="94" x="313" y="141.4966">loadBuildings()</text><polygon fill="#A80036" points="537,171.6953,547,175.6953,537,179.6953,541,175.6953" style="stroke: #A80036; stroke-width: 1.0;"/><line style="stroke: #A80036; stroke-width: 1.0;" x1="429" x2="543" y1="175.6953" y2="175.6953"/><text fill="#000000" font-family="sans-serif" font-size="13" font-weight="bold" lengthAdjust="spacingAndGlyphs" textLength="9" x="436" y="170.6294">3</text><text fill="#000000" font-family="sans-serif" font-size="13" lengthAdjust="spacingAndGlyphs" textLength="88" x="449" y="170.6294">getBuildings()</text><polygon fill="#A80036" points="658,200.8281,668,204.8281,658,208.8281,662,204.8281" style="stroke: #A80036; stroke-width: 1.0;"/><line style="stroke: #A80036; stroke-width: 1.0;" x1="559" x2="664" y1="204.8281" y2="204.8281"/><text fill="#000000" font-family="sans-serif" font-size="13" font-weight="bold" lengthAdjust="spacingAndGlyphs" textLength="9" x="566" y="199.7622">4</text><text fill="#000000" font-family="sans-serif" font-size="13" lengthAdjust="spacingAndGlyphs" textLength="79" x="579" y="199.7622">GET route{}</text><polygon fill="#A80036" points="779,229.9609,789,233.9609,779,237.9609,783,233.9609" style="stroke: #A80036; stroke-width: 1.0;"/><line style="stroke: #A80036; stroke-width: 1.0;" x1="680" x2="785" y1="233.9609" y2="233.9609"/><text fill="#000000" font-family="sans-serif" font-size="13" font-weight="bold" lengthAdjust="spacingAndGlyphs" textLength="9" x="687" y="228.895">5</text><text fill="#000000" font-family="sans-serif" font-size="13" lengthAdjust="spacingAndGlyphs" textLength="48" x="700" y="228.895">findAll()</text><polygon fill="#A80036" points="1011,259.0938,1021,263.0938,1011,267.0938,1015,263.0938" style="stroke: #A80036; stroke-width: 1.0;"/><line style="stroke: #A80036; stroke-width: 1.0;" x1="801" x2="1017" y1="263.0938" y2="263.0938"/><text fill="#000000" font-family="sans-serif" font-size="13" font-weight="bold" lengthAdjust="spacingAndGlyphs" textLength="9" x="808" y="258.0278">6</text><text fill="#000000" font-family="sans-serif" font-size="13" lengthAdjust="spacingAndGlyphs" textLength="48" x="821" y="258.0278">findAll()</text><polygon fill="#A80036" points="1238,288.2266,1248,292.2266,1238,296.2266,1242,292.2266" style="stroke: #A80036; stroke-width: 1.0;"/><line style="stroke: #A80036; stroke-width: 1.0;" x1="1033" x2="1244" y1="292.2266" y2="292.2266"/><text fill="#000000" font-family="sans-serif" font-size="13" font-weight="bold" lengthAdjust="spacingAndGlyphs" textLength="9" x="1040" y="287.1606">7</text><text fill="#000000" font-family="sans-serif" font-size="13" lengthAdjust="spacingAndGlyphs" textLength="48" x="1053" y="287.1606">findAll()</text><path d="M13,307.2266 L77,307.2266 L77,314.2266 L67,324.2266 L13,324.2266 L13,307.2266 " fill="#EEEEEE" style="stroke: #000000; stroke-width: 1.0;"/><rect fill="none" height="485.2578" style="stroke: #000000; stroke-width: 2.0;" width="1479.5" x="13" y="307.2266"/><text fill="#000000" font-family="sans-serif" font-size="13" font-weight="bold" lengthAdjust="spacingAndGlyphs" textLength="19" x="28" y="320.2935">alt</text><polygon fill="#A80036" points="1429.5,341.4922,1439.5,345.4922,1429.5,349.4922,1433.5,345.4922" style="stroke: #A80036; stroke-width: 1.0;"/><line style="stroke: #A80036; stroke-width: 1.0;" x1="1260" x2="1435.5" y1="345.4922" y2="345.4922"/><text fill="#000000" font-family="sans-serif" font-size="13" font-weight="bold" lengthAdjust="spacingAndGlyphs" textLength="9" x="1267" y="340.4263">8</text><text fill="#000000" font-family="sans-serif" font-size="13" lengthAdjust="spacingAndGlyphs" textLength="48" x="1280" y="340.4263">findAll()</text><polygon fill="#A80036" points="1271,370.625,1261,374.625,1271,378.625,1267,374.625" style="stroke: #A80036; stroke-width: 1.0;"/><line style="stroke: #A80036; stroke-width: 1.0; stroke-dasharray: 2.0,2.0;" x1="1265" x2="1445.5" y1="374.625" y2="374.625"/><text fill="#000000" font-family="sans-serif" font-size="13" font-weight="bold" lengthAdjust="spacingAndGlyphs" textLength="9" x="1277" y="369.5591">9</text><text fill="#000000" font-family="sans-serif" font-size="13" lengthAdjust="spacingAndGlyphs" textLength="117" x="1290" y="369.5591">List of all Buildings</text><polygon fill="#A80036" points="1044,399.7578,1034,403.7578,1044,407.7578,1040,403.7578" style="stroke: #A80036; stroke-width: 1.0;"/><line style="stroke: #A80036; stroke-width: 1.0;" x1="1038" x2="1254" y1="403.7578" y2="403.7578"/><text fill="#000000" font-family="sans-serif" font-size="13" font-weight="bold" lengthAdjust="spacingAndGlyphs" textLength="18" x="1050" y="398.6919">10</text><text fill="#000000" font-family="sans-serif" font-size="13" lengthAdjust="spacingAndGlyphs" textLength="117" x="1072" y="398.6919">List of all Buildings</text><polygon fill="#A80036" points="812,428.8906,802,432.8906,812,436.8906,808,432.8906" style="stroke: #A80036; stroke-width: 1.0;"/><line style="stroke: #A80036; stroke-width: 1.0;" x1="806" x2="1022" y1="432.8906" y2="432.8906"/><text fill="#000000" font-family="sans-serif" font-size="13" font-weight="bold" lengthAdjust="spacingAndGlyphs" textLength="18" x="818" y="427.8247">11</text><text fill="#000000" font-family="sans-serif" font-size="13" lengthAdjust="spacingAndGlyphs" textLength="117" x="840" y="427.8247">List of all Buildings</text><polygon fill="#A80036" points="691,458.0234,681,462.0234,691,466.0234,687,462.0234" style="stroke: #A80036; stroke-width: 1.0;"/><line style="stroke: #A80036; stroke-width: 1.0; stroke-dasharray: 2.0,2.0;" x1="685" x2="790" y1="462.0234" y2="462.0234"/><text fill="#000000" font-family="sans-serif" font-size="13" font-weight="bold" lengthAdjust="spacingAndGlyphs" textLength="18" x="697" y="456.9575">12</text><text fill="#000000" font-family="sans-serif" font-size="13" lengthAdjust="spacingAndGlyphs" textLength="64" x="719" y="456.9575">HTTP: 201</text><polygon fill="#A80036" points="570,487.1563,560,491.1563,570,495.1563,566,491.1563" style="stroke: #A80036; stroke-width: 1.0;"/><line style="stroke: #A80036; stroke-width: 1.0; stroke-dasharray: 2.0,2.0;" x1="564" x2="669" y1="491.1563" y2="491.1563"/><text fill="#000000" font-family="sans-serif" font-size="13" font-weight="bold" lengthAdjust="spacingAndGlyphs" textLength="18" x="576" y="486.0903">13</text><text fill="#000000" font-family="sans-serif" font-size="13" lengthAdjust="spacingAndGlyphs" textLength="64" x="598" y="486.0903">HTTP: 201</text><polygon fill="#A80036" points="440,516.2891,430,520.2891,440,524.2891,436,520.2891" style="stroke: #A80036; stroke-width: 1.0;"/><line style="stroke: #A80036; stroke-width: 1.0; stroke-dasharray: 2.0,2.0;" x1="434" x2="548" y1="520.2891" y2="520.2891"/><text fill="#000000" font-family="sans-serif" font-size="13" font-weight="bold" lengthAdjust="spacingAndGlyphs" textLength="18" x="446" y="515.2231">14</text><text fill="#000000" font-family="sans-serif" font-size="13" lengthAdjust="spacingAndGlyphs" textLength="64" x="468" y="515.2231">HTTP: 201</text><polygon fill="#A80036" points="304,545.4219,294,549.4219,304,553.4219,300,549.4219" style="stroke: #A80036; stroke-width: 1.0;"/><line style="stroke: #A80036; stroke-width: 1.0; stroke-dasharray: 2.0,2.0;" x1="298" x2="418" y1="549.4219" y2="549.4219"/><text fill="#000000" font-family="sans-serif" font-size="13" font-weight="bold" lengthAdjust="spacingAndGlyphs" textLength="18" x="310" y="544.356">15</text><text fill="#000000" font-family="sans-serif" font-size="13" lengthAdjust="spacingAndGlyphs" textLength="64" x="332" y="544.356">HTTP: 201</text><polygon fill="#A80036" points="58,574.5547,48,578.5547,58,582.5547,54,578.5547" style="stroke: #A80036; stroke-width: 1.0;"/><line style="stroke: #A80036; stroke-width: 1.0; stroke-dasharray: 2.0,2.0;" x1="52" x2="282" y1="578.5547" y2="578.5547"/><text fill="#000000" font-family="sans-serif" font-size="13" font-weight="bold" lengthAdjust="spacingAndGlyphs" textLength="18" x="64" y="573.4888">16</text><text fill="#000000" font-family="sans-serif" font-size="13" lengthAdjust="spacingAndGlyphs" textLength="112" x="86" y="573.4888">show Building List</text><line style="stroke: #000000; stroke-width: 1.0; stroke-dasharray: 2.0,2.0;" x1="13" x2="1492.5" y1="587.5547" y2="587.5547"/><polygon fill="#A80036" points="1044,605.6875,1034,609.6875,1044,613.6875,1040,609.6875" style="stroke: #A80036; stroke-width: 1.0;"/><line style="stroke: #A80036; stroke-width: 1.0; stroke-dasharray: 2.0,2.0;" x1="1038" x2="1254" y1="609.6875" y2="609.6875"/><text fill="#000000" font-family="sans-serif" font-size="13" font-weight="bold" lengthAdjust="spacingAndGlyphs" textLength="18" x="1050" y="604.6216">17</text><text fill="#000000" font-family="sans-serif" font-size="13" lengthAdjust="spacingAndGlyphs" textLength="176" x="1072" y="604.6216">Error('Internal Server Error')</text><polygon fill="#A80036" points="812,634.8203,802,638.8203,812,642.8203,808,638.8203" style="stroke: #A80036; stroke-width: 1.0;"/><line style="stroke: #A80036; stroke-width: 1.0;" x1="806" x2="1027" y1="638.8203" y2="638.8203"/><text fill="#000000" font-family="sans-serif" font-size="13" font-weight="bold" lengthAdjust="spacingAndGlyphs" textLength="18" x="818" y="633.7544">18</text><text fill="#000000" font-family="sans-serif" font-size="13" lengthAdjust="spacingAndGlyphs" textLength="176" x="840" y="633.7544">Error('Internal Server Error')</text><polygon fill="#A80036" points="691,663.9531,681,667.9531,691,671.9531,687,667.9531" style="stroke: #A80036; stroke-width: 1.0;"/><line style="stroke: #A80036; stroke-width: 1.0; stroke-dasharray: 2.0,2.0;" x1="685" x2="795" y1="667.9531" y2="667.9531"/><text fill="#000000" font-family="sans-serif" font-size="13" font-weight="bold" lengthAdjust="spacingAndGlyphs" textLength="18" x="697" y="662.8872">19</text><text fill="#000000" font-family="sans-serif" font-size="13" lengthAdjust="spacingAndGlyphs" textLength="64" x="719" y="662.8872">HTTP: 500</text><polygon fill="#A80036" points="570,693.0859,560,697.0859,570,701.0859,566,697.0859" style="stroke: #A80036; stroke-width: 1.0;"/><line style="stroke: #A80036; stroke-width: 1.0; stroke-dasharray: 2.0,2.0;" x1="564" x2="674" y1="697.0859" y2="697.0859"/><text fill="#000000" font-family="sans-serif" font-size="13" font-weight="bold" lengthAdjust="spacingAndGlyphs" textLength="18" x="576" y="692.02">20</text><text fill="#000000" font-family="sans-serif" font-size="13" lengthAdjust="spacingAndGlyphs" textLength="64" x="598" y="692.02">HTTP: 500</text><polygon fill="#A80036" points="440,722.2188,430,726.2188,440,730.2188,436,726.2188" style="stroke: #A80036; stroke-width: 1.0;"/><line style="stroke: #A80036; stroke-width: 1.0; stroke-dasharray: 2.0,2.0;" x1="434" x2="553" y1="726.2188" y2="726.2188"/><text fill="#000000" font-family="sans-serif" font-size="13" font-weight="bold" lengthAdjust="spacingAndGlyphs" textLength="18" x="446" y="721.1528">21</text><text fill="#000000" font-family="sans-serif" font-size="13" lengthAdjust="spacingAndGlyphs" textLength="64" x="468" y="721.1528">HTTP: 500</text><polygon fill="#A80036" points="304,751.3516,294,755.3516,304,759.3516,300,755.3516" style="stroke: #A80036; stroke-width: 1.0;"/><line style="stroke: #A80036; stroke-width: 1.0; stroke-dasharray: 2.0,2.0;" x1="298" x2="423" y1="755.3516" y2="755.3516"/><text fill="#000000" font-family="sans-serif" font-size="13" font-weight="bold" lengthAdjust="spacingAndGlyphs" textLength="18" x="310" y="750.2856">22</text><text fill="#000000" font-family="sans-serif" font-size="13" lengthAdjust="spacingAndGlyphs" textLength="64" x="332" y="750.2856">HTTP: 500</text><polygon fill="#A80036" points="58,780.4844,48,784.4844,58,788.4844,54,784.4844" style="stroke: #A80036; stroke-width: 1.0;"/><line style="stroke: #A80036; stroke-width: 1.0; stroke-dasharray: 2.0,2.0;" x1="52" x2="287" y1="784.4844" y2="784.4844"/><text fill="#000000" font-family="sans-serif" font-size="13" font-weight="bold" lengthAdjust="spacingAndGlyphs" textLength="18" x="64" y="779.4185">23</text><text fill="#000000" font-family="sans-serif" font-size="13" lengthAdjust="spacingAndGlyphs" textLength="138" x="86" y="779.4185">show failure message</text><!--MD5=[67ed76a079661267cefe69e1e9f19ca2]
@startuml
autonumber
actor "User" as user

participant ":View" as sys
participant ":FE_Component" as comp
participant ":FE_Service" as FEsrvc
participant ":Routing" as route
participant ":BuildingController" as ctrl
participant ":BuildingService" as srvc
participant ":BuildingRepo" as repo
participant ":Building" as rt

database "Database" as db

activate user
 user -> sys: wants to see the list of buildings
activate sys
sys -> comp : loadBuildings()
activate comp
comp -> FEsrvc : getBuildings()
activate FEsrvc
FEsrvc -> route: GET route{}
activate route
route -> ctrl: findAll()
activate ctrl
ctrl -> srvc: findAll()
activate srvc
srvc -> repo: findAll()




alt 
    activate repo
    repo -> db: findAll()
    activate db
    db - -> repo: List of all Buildings
    deactivate db
    repo -> srvc: List of all Buildings
    deactivate repo
    srvc -> ctrl: List of all Buildings
    ctrl - -> route : HTTP: 201
    route - -> FEsrvc: HTTP: 201
    FEsrvc - -> comp: HTTP: 201
    comp - -> sys: HTTP: 201
    sys - -> user: show Building List
else
    repo - -> srvc: Error('Internal Server Error')
    srvc -> ctrl: Error('Internal Server Error')
    deactivate srvc
    ctrl - -> route : HTTP: 500
    deactivate ctrl
    route - -> FEsrvc: HTTP: 500
    deactivate route
    FEsrvc - -> comp: HTTP: 500
    deactivate FEsrvc 
    comp - -> sys: HTTP: 500
    deactivate comp
    sys - -> user: show failure message
    deactivate sys
end


deactivate repo
deactivate ctrl
deactivate route
deactivate FEsrvc
deactivate comp
deactivate sys
deactivate user
@enduml

PlantUML version 1.2020.02(Sun Mar 01 10:22:07 UTC 2020)
(GPL source distribution)
Java Runtime: OpenJDK Runtime Environment
JVM: OpenJDK 64-Bit Server VM
Java Version: 11.0.21+9
Operating System: Linux
Default Encoding: UTF-8
Language: en
Country: null
--></g></svg>