<?xml version="1.0" encoding="UTF-8" standalone="no"?><svg xmlns="http://www.w3.org/2000/svg" xmlns:xlink="http://www.w3.org/1999/xlink" contentScriptType="application/ecmascript" contentStyleType="text/css" height="829px" preserveAspectRatio="none" style="width:1794px;height:829px;" version="1.1" viewBox="0 0 1794 829" width="1794px" zoomAndPan="magnify"><defs><filter height="300%" id="fzrn4mhckuas" width="300%" x="-1" y="-1"><feGaussianBlur result="blurOut" stdDeviation="2.0"/><feColorMatrix in="blurOut" result="blurOut2" type="matrix" values="0 0 0 0 0 0 0 0 0 0 0 0 0 0 0 0 0 0 .4 0"/><feOffset dx="4.0" dy="4.0" in="blurOut2" result="blurOut3"/><feBlend in="SourceGraphic" in2="blurOut3" mode="normal"/></filter></defs><g><rect fill="#FFFFFF" filter="url(#fzrn4mhckuas)" height="628.3906" style="stroke: #A80036; stroke-width: 1.0;" width="10" x="22" y="96.2969"/><rect fill="#FFFFFF" filter="url(#fzrn4mhckuas)" height="607.2578" style="stroke: #A80036; stroke-width: 1.0;" width="10" x="268" y="117.4297"/><rect fill="#FFFFFF" filter="url(#fzrn4mhckuas)" height="262.1953" style="stroke: #A80036; stroke-width: 1.0;" width="10" x="611.5" y="131.4297"/><rect fill="#FFFFFF" filter="url(#fzrn4mhckuas)" height="214.5313" style="stroke: #A80036; stroke-width: 1.0;" width="10" x="611.5" y="481.0234"/><rect fill="#FFFFFF" filter="url(#fzrn4mhckuas)" height="203.9297" style="stroke: #A80036; stroke-width: 1.0;" width="10" x="850" y="160.5625"/><rect fill="#FFFFFF" filter="url(#fzrn4mhckuas)" height="156.2656" style="stroke: #A80036; stroke-width: 1.0;" width="10" x="994.5" y="510.1563"/><rect fill="#FFFFFF" filter="url(#fzrn4mhckuas)" height="145.6641" style="stroke: #A80036; stroke-width: 1.0;" width="10" x="1139" y="189.6953"/><rect fill="#FFFFFF" filter="url(#fzrn4mhckuas)" height="85.1328" style="stroke: #A80036; stroke-width: 1.0;" width="10" x="1283.5" y="567.2891"/><rect fill="#FFFFFF" filter="url(#fzrn4mhckuas)" height="87.3984" style="stroke: #A80036; stroke-width: 1.0;" width="10" x="1429" y="218.8281"/><rect fill="#FFFFFF" filter="url(#fzrn4mhckuas)" height="57.1328" style="stroke: #A80036; stroke-width: 1.0;" width="10" x="1575.5" y="581.2891"/><rect fill="#FFFFFF" filter="url(#fzrn4mhckuas)" height="29.1328" style="stroke: #A80036; stroke-width: 1.0;" width="10" x="1747.5" y="247.9609"/><rect fill="#FFFFFF" filter="url(#fzrn4mhckuas)" height="14" style="stroke: #A80036; stroke-width: 1.0;" width="10" x="1747.5" y="610.4219"/><line style="stroke: #A80036; stroke-width: 1.0; stroke-dasharray: 5.0,5.0;" x1="27" x2="27" y1="86.2969" y2="742.6875"/><line style="stroke: #A80036; stroke-width: 1.0; stroke-dasharray: 5.0,5.0;" x1="272.5" x2="272.5" y1="86.2969" y2="742.6875"/><line style="stroke: #A80036; stroke-width: 1.0; stroke-dasharray: 5.0,5.0;" x1="616.5" x2="616.5" y1="86.2969" y2="742.6875"/><line style="stroke: #A80036; stroke-width: 1.0; stroke-dasharray: 5.0,5.0;" x1="854.5" x2="854.5" y1="86.2969" y2="742.6875"/><line style="stroke: #A80036; stroke-width: 1.0; stroke-dasharray: 5.0,5.0;" x1="999.5" x2="999.5" y1="86.2969" y2="742.6875"/><line style="stroke: #A80036; stroke-width: 1.0; stroke-dasharray: 5.0,5.0;" x1="1143.5" x2="1143.5" y1="86.2969" y2="742.6875"/><line style="stroke: #A80036; stroke-width: 1.0; stroke-dasharray: 5.0,5.0;" x1="1288.5" x2="1288.5" y1="86.2969" y2="742.6875"/><line style="stroke: #A80036; stroke-width: 1.0; stroke-dasharray: 5.0,5.0;" x1="1433.5" x2="1433.5" y1="86.2969" y2="742.6875"/><line style="stroke: #A80036; stroke-width: 1.0; stroke-dasharray: 5.0,5.0;" x1="1580.5" x2="1580.5" y1="86.2969" y2="742.6875"/><line style="stroke: #A80036; stroke-width: 1.0; stroke-dasharray: 5.0,5.0;" x1="1752.5" x2="1752.5" y1="86.2969" y2="742.6875"/><text fill="#000000" font-family="sans-serif" font-size="14" lengthAdjust="spacingAndGlyphs" textLength="32" x="8" y="82.9951">User</text><ellipse cx="27" cy="13" fill="#FEFECE" filter="url(#fzrn4mhckuas)" rx="8" ry="8" style="stroke: #A80036; stroke-width: 2.0;"/><path d="M27,21 L27,48 M14,29 L40,29 M27,48 L14,63 M27,48 L40,63 " fill="none" filter="url(#fzrn4mhckuas)" style="stroke: #A80036; stroke-width: 2.0;"/><text fill="#000000" font-family="sans-serif" font-size="14" lengthAdjust="spacingAndGlyphs" textLength="32" x="8" y="754.6826">User</text><ellipse cx="27" cy="767.9844" fill="#FEFECE" filter="url(#fzrn4mhckuas)" rx="8" ry="8" style="stroke: #A80036; stroke-width: 2.0;"/><path d="M27,775.9844 L27,802.9844 M14,783.9844 L40,783.9844 M27,802.9844 L14,817.9844 M27,802.9844 L40,817.9844 " fill="none" filter="url(#fzrn4mhckuas)" style="stroke: #A80036; stroke-width: 2.0;"/><rect fill="#FEFECE" filter="url(#fzrn4mhckuas)" height="30.2969" style="stroke: #A80036; stroke-width: 1.5;" width="351" x="95.5" y="51"/><text fill="#000000" font-family="sans-serif" font-size="14" lengthAdjust="spacingAndGlyphs" textLength="337" x="102.5" y="70.9951">:listPassageBetween2BuildingsComponentHTML</text><rect fill="#FEFECE" filter="url(#fzrn4mhckuas)" height="30.2969" style="stroke: #A80036; stroke-width: 1.5;" width="351" x="95.5" y="741.6875"/><text fill="#000000" font-family="sans-serif" font-size="14" lengthAdjust="spacingAndGlyphs" textLength="337" x="102.5" y="761.6826">:listPassageBetween2BuildingsComponentHTML</text><rect fill="#FEFECE" filter="url(#fzrn4mhckuas)" height="30.2969" style="stroke: #A80036; stroke-width: 1.5;" width="308" x="460.5" y="51"/><text fill="#000000" font-family="sans-serif" font-size="14" lengthAdjust="spacingAndGlyphs" textLength="294" x="467.5" y="70.9951">listPassageBetween2BuildingsComponent</text><rect fill="#FEFECE" filter="url(#fzrn4mhckuas)" height="30.2969" style="stroke: #A80036; stroke-width: 1.5;" width="308" x="460.5" y="741.6875"/><text fill="#000000" font-family="sans-serif" font-size="14" lengthAdjust="spacingAndGlyphs" textLength="294" x="467.5" y="761.6826">listPassageBetween2BuildingsComponent</text><rect fill="#FEFECE" filter="url(#fzrn4mhckuas)" height="30.2969" style="stroke: #A80036; stroke-width: 1.5;" width="141" x="782.5" y="51"/><text fill="#000000" font-family="sans-serif" font-size="14" lengthAdjust="spacingAndGlyphs" textLength="127" x="789.5" y="70.9951">:BuildingServiceFE</text><rect fill="#FEFECE" filter="url(#fzrn4mhckuas)" height="30.2969" style="stroke: #A80036; stroke-width: 1.5;" width="141" x="782.5" y="741.6875"/><text fill="#000000" font-family="sans-serif" font-size="14" lengthAdjust="spacingAndGlyphs" textLength="127" x="789.5" y="761.6826">:BuildingServiceFE</text><rect fill="#FEFECE" filter="url(#fzrn4mhckuas)" height="30.2969" style="stroke: #A80036; stroke-width: 1.5;" width="120" x="937.5" y="51"/><text fill="#000000" font-family="sans-serif" font-size="14" lengthAdjust="spacingAndGlyphs" textLength="106" x="944.5" y="70.9951">:FloorServiceFE</text><rect fill="#FEFECE" filter="url(#fzrn4mhckuas)" height="30.2969" style="stroke: #A80036; stroke-width: 1.5;" width="120" x="937.5" y="741.6875"/><text fill="#000000" font-family="sans-serif" font-size="14" lengthAdjust="spacingAndGlyphs" textLength="106" x="944.5" y="761.6826">:FloorServiceFE</text><rect fill="#FEFECE" filter="url(#fzrn4mhckuas)" height="30.2969" style="stroke: #A80036; stroke-width: 1.5;" width="141" x="1071.5" y="51"/><text fill="#000000" font-family="sans-serif" font-size="14" lengthAdjust="spacingAndGlyphs" textLength="127" x="1078.5" y="70.9951">:BuildingController</text><rect fill="#FEFECE" filter="url(#fzrn4mhckuas)" height="30.2969" style="stroke: #A80036; stroke-width: 1.5;" width="141" x="1071.5" y="741.6875"/><text fill="#000000" font-family="sans-serif" font-size="14" lengthAdjust="spacingAndGlyphs" textLength="127" x="1078.5" y="761.6826">:BuildingController</text><rect fill="#FEFECE" filter="url(#fzrn4mhckuas)" height="30.2969" style="stroke: #A80036; stroke-width: 1.5;" width="120" x="1226.5" y="51"/><text fill="#000000" font-family="sans-serif" font-size="14" lengthAdjust="spacingAndGlyphs" textLength="106" x="1233.5" y="70.9951">:FloorController</text><rect fill="#FEFECE" filter="url(#fzrn4mhckuas)" height="30.2969" style="stroke: #A80036; stroke-width: 1.5;" width="120" x="1226.5" y="741.6875"/><text fill="#000000" font-family="sans-serif" font-size="14" lengthAdjust="spacingAndGlyphs" textLength="106" x="1233.5" y="761.6826">:FloorController</text><rect fill="#FEFECE" filter="url(#fzrn4mhckuas)" height="30.2969" style="stroke: #A80036; stroke-width: 1.5;" width="143" x="1360.5" y="51"/><text fill="#000000" font-family="sans-serif" font-size="14" lengthAdjust="spacingAndGlyphs" textLength="129" x="1367.5" y="70.9951">:BuildingServiceBE</text><rect fill="#FEFECE" filter="url(#fzrn4mhckuas)" height="30.2969" style="stroke: #A80036; stroke-width: 1.5;" width="143" x="1360.5" y="741.6875"/><text fill="#000000" font-family="sans-serif" font-size="14" lengthAdjust="spacingAndGlyphs" textLength="129" x="1367.5" y="761.6826">:BuildingServiceBE</text><rect fill="#FEFECE" filter="url(#fzrn4mhckuas)" height="30.2969" style="stroke: #A80036; stroke-width: 1.5;" width="122" x="1517.5" y="51"/><text fill="#000000" font-family="sans-serif" font-size="14" lengthAdjust="spacingAndGlyphs" textLength="108" x="1524.5" y="70.9951">:FloorServiceBE</text><rect fill="#FEFECE" filter="url(#fzrn4mhckuas)" height="30.2969" style="stroke: #A80036; stroke-width: 1.5;" width="122" x="1517.5" y="741.6875"/><text fill="#000000" font-family="sans-serif" font-size="14" lengthAdjust="spacingAndGlyphs" textLength="108" x="1524.5" y="761.6826">:FloorServiceBE</text><text fill="#000000" font-family="sans-serif" font-size="14" lengthAdjust="spacingAndGlyphs" textLength="66" x="1716.5" y="82.9951">Database</text><path d="M1734.5,34 C1734.5,24 1752.5,24 1752.5,24 C1752.5,24 1770.5,24 1770.5,34 L1770.5,60 C1770.5,70 1752.5,70 1752.5,70 C1752.5,70 1734.5,70 1734.5,60 L1734.5,34 " fill="#FEFECE" filter="url(#fzrn4mhckuas)" style="stroke: #000000; stroke-width: 1.5;"/><path d="M1734.5,34 C1734.5,44 1752.5,44 1752.5,44 C1752.5,44 1770.5,44 1770.5,34 " fill="none" style="stroke: #000000; stroke-width: 1.5;"/><text fill="#000000" font-family="sans-serif" font-size="14" lengthAdjust="spacingAndGlyphs" textLength="66" x="1716.5" y="754.6826">Database</text><path d="M1734.5,767.9844 C1734.5,757.9844 1752.5,757.9844 1752.5,757.9844 C1752.5,757.9844 1770.5,757.9844 1770.5,767.9844 L1770.5,793.9844 C1770.5,803.9844 1752.5,803.9844 1752.5,803.9844 C1752.5,803.9844 1734.5,803.9844 1734.5,793.9844 L1734.5,767.9844 " fill="#FEFECE" filter="url(#fzrn4mhckuas)" style="stroke: #000000; stroke-width: 1.5;"/><path d="M1734.5,767.9844 C1734.5,777.9844 1752.5,777.9844 1752.5,777.9844 C1752.5,777.9844 1770.5,777.9844 1770.5,767.9844 " fill="none" style="stroke: #000000; stroke-width: 1.5;"/><rect fill="#FFFFFF" filter="url(#fzrn4mhckuas)" height="628.3906" style="stroke: #A80036; stroke-width: 1.0;" width="10" x="22" y="96.2969"/><rect fill="#FFFFFF" filter="url(#fzrn4mhckuas)" height="607.2578" style="stroke: #A80036; stroke-width: 1.0;" width="10" x="268" y="117.4297"/><rect fill="#FFFFFF" filter="url(#fzrn4mhckuas)" height="262.1953" style="stroke: #A80036; stroke-width: 1.0;" width="10" x="611.5" y="131.4297"/><rect fill="#FFFFFF" filter="url(#fzrn4mhckuas)" height="214.5313" style="stroke: #A80036; stroke-width: 1.0;" width="10" x="611.5" y="481.0234"/><rect fill="#FFFFFF" filter="url(#fzrn4mhckuas)" height="203.9297" style="stroke: #A80036; stroke-width: 1.0;" width="10" x="850" y="160.5625"/><rect fill="#FFFFFF" filter="url(#fzrn4mhckuas)" height="156.2656" style="stroke: #A80036; stroke-width: 1.0;" width="10" x="994.5" y="510.1563"/><rect fill="#FFFFFF" filter="url(#fzrn4mhckuas)" height="145.6641" style="stroke: #A80036; stroke-width: 1.0;" width="10" x="1139" y="189.6953"/><rect fill="#FFFFFF" filter="url(#fzrn4mhckuas)" height="85.1328" style="stroke: #A80036; stroke-width: 1.0;" width="10" x="1283.5" y="567.2891"/><rect fill="#FFFFFF" filter="url(#fzrn4mhckuas)" height="87.3984" style="stroke: #A80036; stroke-width: 1.0;" width="10" x="1429" y="218.8281"/><rect fill="#FFFFFF" filter="url(#fzrn4mhckuas)" height="57.1328" style="stroke: #A80036; stroke-width: 1.0;" width="10" x="1575.5" y="581.2891"/><rect fill="#FFFFFF" filter="url(#fzrn4mhckuas)" height="29.1328" style="stroke: #A80036; stroke-width: 1.0;" width="10" x="1747.5" y="247.9609"/><rect fill="#FFFFFF" filter="url(#fzrn4mhckuas)" height="14" style="stroke: #A80036; stroke-width: 1.0;" width="10" x="1747.5" y="610.4219"/><polygon fill="#A80036" points="256,113.4297,266,117.4297,256,121.4297,260,117.4297" style="stroke: #A80036; stroke-width: 1.0;"/><line style="stroke: #A80036; stroke-width: 1.0;" x1="32" x2="262" y1="117.4297" y2="117.4297"/><text fill="#000000" font-family="sans-serif" font-size="13" lengthAdjust="spacingAndGlyphs" textLength="212" x="39" y="112.3638">List Passage Between 2 Buildings</text><polygon fill="#A80036" points="599.5,127.4297,609.5,131.4297,599.5,135.4297,603.5,131.4297" style="stroke: #A80036; stroke-width: 1.0;"/><line style="stroke: #A80036; stroke-width: 1.0;" x1="278" x2="605.5" y1="131.4297" y2="131.4297"/><polygon fill="#A80036" points="838,156.5625,848,160.5625,838,164.5625,842,160.5625" style="stroke: #A80036; stroke-width: 1.0;"/><line style="stroke: #A80036; stroke-width: 1.0;" x1="621.5" x2="844" y1="160.5625" y2="160.5625"/><text fill="#000000" font-family="sans-serif" font-size="13" lengthAdjust="spacingAndGlyphs" textLength="88" x="628.5" y="155.4966">getBuildings()</text><polygon fill="#A80036" points="1127,185.6953,1137,189.6953,1127,193.6953,1131,189.6953" style="stroke: #A80036; stroke-width: 1.0;"/><line style="stroke: #A80036; stroke-width: 1.0;" x1="860" x2="1133" y1="189.6953" y2="189.6953"/><text fill="#000000" font-family="sans-serif" font-size="13" lengthAdjust="spacingAndGlyphs" textLength="147" x="867" y="184.6294">HTTP GET /buildings/list</text><polygon fill="#A80036" points="1417,214.8281,1427,218.8281,1417,222.8281,1421,218.8281" style="stroke: #A80036; stroke-width: 1.0;"/><line style="stroke: #A80036; stroke-width: 1.0;" x1="1149" x2="1423" y1="218.8281" y2="218.8281"/><text fill="#000000" font-family="sans-serif" font-size="13" lengthAdjust="spacingAndGlyphs" textLength="48" x="1156" y="213.7622">findAll()</text><polygon fill="#A80036" points="1735.5,243.9609,1745.5,247.9609,1735.5,251.9609,1739.5,247.9609" style="stroke: #A80036; stroke-width: 1.0;"/><line style="stroke: #A80036; stroke-width: 1.0;" x1="1439" x2="1741.5" y1="247.9609" y2="247.9609"/><text fill="#000000" font-family="sans-serif" font-size="13" lengthAdjust="spacingAndGlyphs" textLength="124" x="1446" y="242.895">Query get Buildings</text><polygon fill="#A80036" points="1450,273.0938,1440,277.0938,1450,281.0938,1446,277.0938" style="stroke: #A80036; stroke-width: 1.0;"/><line style="stroke: #A80036; stroke-width: 1.0;" x1="1444" x2="1751.5" y1="277.0938" y2="277.0938"/><text fill="#000000" font-family="sans-serif" font-size="13" lengthAdjust="spacingAndGlyphs" textLength="99" x="1456" y="272.0278">List of Buildings</text><polygon fill="#A80036" points="1160,302.2266,1150,306.2266,1160,310.2266,1156,306.2266" style="stroke: #A80036; stroke-width: 1.0;"/><line style="stroke: #A80036; stroke-width: 1.0;" x1="1154" x2="1433" y1="306.2266" y2="306.2266"/><text fill="#000000" font-family="sans-serif" font-size="13" lengthAdjust="spacingAndGlyphs" textLength="99" x="1166" y="301.1606">List of Buildings</text><polygon fill="#A80036" points="871,331.3594,861,335.3594,871,339.3594,867,335.3594" style="stroke: #A80036; stroke-width: 1.0;"/><line style="stroke: #A80036; stroke-width: 1.0; stroke-dasharray: 2.0,2.0;" x1="865" x2="1143" y1="335.3594" y2="335.3594"/><text fill="#000000" font-family="sans-serif" font-size="13" lengthAdjust="spacingAndGlyphs" textLength="214" x="877" y="330.2935">HTTP 200 OK with List of Buildings</text><polygon fill="#A80036" points="632.5,360.4922,622.5,364.4922,632.5,368.4922,628.5,364.4922" style="stroke: #A80036; stroke-width: 1.0;"/><line style="stroke: #A80036; stroke-width: 1.0;" x1="626.5" x2="854" y1="364.4922" y2="364.4922"/><text fill="#000000" font-family="sans-serif" font-size="13" lengthAdjust="spacingAndGlyphs" textLength="135" x="638.5" y="359.4263">Console.log Buildings</text><polygon fill="#A80036" points="289,389.625,279,393.625,289,397.625,285,393.625" style="stroke: #A80036; stroke-width: 1.0;"/><line style="stroke: #A80036; stroke-width: 1.0;" x1="283" x2="615.5" y1="393.625" y2="393.625"/><text fill="#000000" font-family="sans-serif" font-size="13" lengthAdjust="spacingAndGlyphs" textLength="57" x="295" y="388.5591">Buildings</text><polygon fill="#A80036" points="43,418.7578,33,422.7578,43,426.7578,39,422.7578" style="stroke: #A80036; stroke-width: 1.0;"/><line style="stroke: #A80036; stroke-width: 1.0;" x1="37" x2="267" y1="422.7578" y2="422.7578"/><text fill="#000000" font-family="sans-serif" font-size="13" lengthAdjust="spacingAndGlyphs" textLength="123" x="49" y="417.6919">Asks for 2 buildings</text><polygon fill="#A80036" points="256,447.8906,266,451.8906,256,455.8906,260,451.8906" style="stroke: #A80036; stroke-width: 1.0;"/><line style="stroke: #A80036; stroke-width: 1.0;" x1="32" x2="262" y1="451.8906" y2="451.8906"/><text fill="#000000" font-family="sans-serif" font-size="13" lengthAdjust="spacingAndGlyphs" textLength="105" x="39" y="446.8247">Select 2 building</text><polygon fill="#A80036" points="599.5,477.0234,609.5,481.0234,599.5,485.0234,603.5,481.0234" style="stroke: #A80036; stroke-width: 1.0;"/><line style="stroke: #A80036; stroke-width: 1.0;" x1="278" x2="605.5" y1="481.0234" y2="481.0234"/><text fill="#000000" font-family="sans-serif" font-size="13" lengthAdjust="spacingAndGlyphs" textLength="206" x="285" y="475.9575">ListPassageBetween2Buildings()</text><polygon fill="#A80036" points="982.5,506.1563,992.5,510.1563,982.5,514.1563,986.5,510.1563" style="stroke: #A80036; stroke-width: 1.0;"/><line style="stroke: #A80036; stroke-width: 1.0;" x1="621.5" x2="988.5" y1="510.1563" y2="510.1563"/><text fill="#000000" font-family="sans-serif" font-size="13" lengthAdjust="spacingAndGlyphs" textLength="153" x="628.5" y="505.0903">ListFloorsFromBuilding()</text><polygon fill="#A80036" points="632.5,520.1563,622.5,524.1563,632.5,528.1563,628.5,524.1563" style="stroke: #A80036; stroke-width: 1.0;"/><line style="stroke: #A80036; stroke-width: 1.0;" x1="626.5" x2="993.5" y1="524.1563" y2="524.1563"/><polygon fill="#A80036" points="982.5,549.2891,992.5,553.2891,982.5,557.2891,986.5,553.2891" style="stroke: #A80036; stroke-width: 1.0;"/><line style="stroke: #A80036; stroke-width: 1.0;" x1="621.5" x2="988.5" y1="553.2891" y2="553.2891"/><text fill="#000000" font-family="sans-serif" font-size="13" lengthAdjust="spacingAndGlyphs" textLength="101" x="628.5" y="548.2231">checkPassage()</text><polygon fill="#A80036" points="1271.5,563.2891,1281.5,567.2891,1271.5,571.2891,1275.5,567.2891" style="stroke: #A80036; stroke-width: 1.0;"/><line style="stroke: #A80036; stroke-width: 1.0;" x1="1004.5" x2="1277.5" y1="567.2891" y2="567.2891"/><polygon fill="#A80036" points="1563.5,577.2891,1573.5,581.2891,1563.5,585.2891,1567.5,581.2891" style="stroke: #A80036; stroke-width: 1.0;"/><line style="stroke: #A80036; stroke-width: 1.0;" x1="1293.5" x2="1569.5" y1="581.2891" y2="581.2891"/><polygon fill="#A80036" points="1735.5,606.4219,1745.5,610.4219,1735.5,614.4219,1739.5,610.4219" style="stroke: #A80036; stroke-width: 1.0;"/><line style="stroke: #A80036; stroke-width: 1.0;" x1="1585.5" x2="1741.5" y1="610.4219" y2="610.4219"/><text fill="#000000" font-family="sans-serif" font-size="13" lengthAdjust="spacingAndGlyphs" textLength="143" x="1592.5" y="605.356">querry to find passage</text><polygon fill="#A80036" points="1596.5,620.4219,1586.5,624.4219,1596.5,628.4219,1592.5,624.4219" style="stroke: #A80036; stroke-width: 1.0;"/><line style="stroke: #A80036; stroke-width: 1.0;" x1="1590.5" x2="1751.5" y1="624.4219" y2="624.4219"/><polygon fill="#A80036" points="1304.5,634.4219,1294.5,638.4219,1304.5,642.4219,1300.5,638.4219" style="stroke: #A80036; stroke-width: 1.0;"/><line style="stroke: #A80036; stroke-width: 1.0;" x1="1298.5" x2="1579.5" y1="638.4219" y2="638.4219"/><polygon fill="#A80036" points="1015.5,648.4219,1005.5,652.4219,1015.5,656.4219,1011.5,652.4219" style="stroke: #A80036; stroke-width: 1.0;"/><line style="stroke: #A80036; stroke-width: 1.0;" x1="1009.5" x2="1287.5" y1="652.4219" y2="652.4219"/><polygon fill="#A80036" points="632.5,662.4219,622.5,666.4219,632.5,670.4219,628.5,666.4219" style="stroke: #A80036; stroke-width: 1.0;"/><line style="stroke: #A80036; stroke-width: 1.0;" x1="626.5" x2="998.5" y1="666.4219" y2="666.4219"/><polygon fill="#A80036" points="289,691.5547,279,695.5547,289,699.5547,285,695.5547" style="stroke: #A80036; stroke-width: 1.0;"/><line style="stroke: #A80036; stroke-width: 1.0;" x1="283" x2="615.5" y1="695.5547" y2="695.5547"/><text fill="#000000" font-family="sans-serif" font-size="13" lengthAdjust="spacingAndGlyphs" textLength="54" x="295" y="690.4888">Passage</text><polygon fill="#A80036" points="38,720.6875,28,724.6875,38,728.6875,34,724.6875" style="stroke: #A80036; stroke-width: 1.0;"/><line style="stroke: #A80036; stroke-width: 1.0;" x1="32" x2="272" y1="724.6875" y2="724.6875"/><text fill="#000000" font-family="sans-serif" font-size="13" lengthAdjust="spacingAndGlyphs" textLength="212" x="44" y="719.6216">Show Passage Between Buildings</text><!--MD5=[a2790d08b093543a7be0cfbb8e9a999c]
@startuml
actor "User" as user
participant ":listPassageBetween2BuildingsComponentHTML" as ui
participant "listPassageBetween2BuildingsComponent" as component

participant ":BuildingServiceFE" as buildingservicefe
participant ":FloorServiceFE" as floorservicefe
participant ":BuildingController" as buildingctrl
participant ":FloorController" as floorcontroller
participant ":BuildingServiceBE" as buildingservicebe
participant ":FloorServiceBE" as floorservicebe






database "Database" as db

activate user

user -> ui: List Passage Between 2 Buildings
activate ui
ui -> component
activate component
component -> buildingservicefe: getBuildings()
activate buildingservicefe
buildingservicefe -> buildingctrl: HTTP GET /buildings/list
activate buildingctrl
buildingctrl -> buildingservicebe: findAll()
activate buildingservicebe
buildingservicebe -> db : Query get Buildings
activate db
db -> buildingservicebe: List of Buildings
deactivate db 
buildingservicebe -> buildingctrl: List of Buildings
deactivate buildingservicebe
buildingctrl - -> buildingservicefe: HTTP 200 OK with List of Buildings
deactivate buildingctrl
buildingservicefe -> component: Console.log Buildings
deactivate buildingservicefe
component -> ui: Buildings 
deactivate component


ui -> user: Asks for 2 buildings
user -> ui: Select 2 building
ui -> component :ListPassageBetween2Buildings()
activate component
component -> floorservicefe: ListFloorsFromBuilding()
activate floorservicefe
floorservicefe -> component
component -> floorservicefe: checkPassage()
floorservicefe -> floorcontroller
activate floorcontroller
floorcontroller -> floorservicebe
activate floorservicebe
floorservicebe -> db: querry to find passage
activate db

db -> floorservicebe
deactivate db
floorservicebe -> floorcontroller
deactivate floorservicebe
floorcontroller -> floorservicefe
deactivate floorcontroller
floorservicefe -> component
deactivate floorservicefe
component -> ui : Passage
deactivate component
ui -> user: Show Passage Between Buildings
deactivate ui
deactivate user

@enduml

PlantUML version 1.2020.02(Sun Mar 01 10:22:07 UTC 2020)
(GPL source distribution)
Java Runtime: OpenJDK Runtime Environment
JVM: OpenJDK 64-Bit Server VM
Java Version: 11.0.21+9
Operating System: Linux
Default Encoding: UTF-8
Language: en
Country: null
--></g></svg>