<?xml version="1.0" encoding="UTF-8" standalone="no"?><svg xmlns="http://www.w3.org/2000/svg" xmlns:xlink="http://www.w3.org/1999/xlink" contentScriptType="application/ecmascript" contentStyleType="text/css" height="967px" preserveAspectRatio="none" style="width:2731px;height:967px;" version="1.1" viewBox="0 0 2731 967" width="2731px" zoomAndPan="magnify"><defs><filter height="300%" id="f1n51mhuzgd5jl" width="300%" x="-1" y="-1"><feGaussianBlur result="blurOut" stdDeviation="2.0"/><feColorMatrix in="blurOut" result="blurOut2" type="matrix" values="0 0 0 0 0 0 0 0 0 0 0 0 0 0 0 0 0 0 .4 0"/><feOffset dx="4.0" dy="4.0" in="blurOut2" result="blurOut3"/><feBlend in="SourceGraphic" in2="blurOut3" mode="normal"/></filter></defs><g><rect fill="#FFFFFF" filter="url(#f1n51mhuzgd5jl)" height="774.2578" style="stroke: #A80036; stroke-width: 1.0;" width="10" x="37" y="96.2969"/><rect fill="#FFFFFF" filter="url(#f1n51mhuzgd5jl)" height="29.1328" style="stroke: #A80036; stroke-width: 1.0;" width="10" x="1660" y="403.7578"/><rect fill="#FFFFFF" filter="url(#f1n51mhuzgd5jl)" height="679.8594" style="stroke: #A80036; stroke-width: 1.0;" width="10" x="1726.5" y="175.6953"/><rect fill="#FFFFFF" filter="url(#f1n51mhuzgd5jl)" height="621.5938" style="stroke: #A80036; stroke-width: 1.0;" width="10" x="1850.5" y="204.8281"/><rect fill="#FFFFFF" filter="url(#f1n51mhuzgd5jl)" height="563.3281" style="stroke: #A80036; stroke-width: 1.0;" width="10" x="1974.5" y="233.9609"/><rect fill="#FFFFFF" filter="url(#f1n51mhuzgd5jl)" height="505.0625" style="stroke: #A80036; stroke-width: 1.0;" width="10" x="2095.5" y="263.0938"/><rect fill="#FFFFFF" filter="url(#f1n51mhuzgd5jl)" height="446.7969" style="stroke: #A80036; stroke-width: 1.0;" width="10" x="2215.5" y="292.2266"/><rect fill="#FFFFFF" filter="url(#f1n51mhuzgd5jl)" height="388.5313" style="stroke: #A80036; stroke-width: 1.0;" width="10" x="2447.5" y="321.3594"/><rect fill="#FFFFFF" filter="url(#f1n51mhuzgd5jl)" height="330.2656" style="stroke: #A80036; stroke-width: 1.0;" width="10" x="2679.5" y="350.4922"/><rect fill="#FFFFFF" filter="url(#f1n51mhuzgd5jl)" height="498.0625" style="stroke: #000000; stroke-width: 2.0;" width="2706.5" x="13" y="365.4922"/><rect fill="#FFFFFF" height="218.7344" style="stroke: none; stroke-width: 1.0;" width="2706.5" x="13" y="644.8203"/><line style="stroke: #A80036; stroke-width: 1.0; stroke-dasharray: 5.0,5.0;" x1="42" x2="42" y1="86.2969" y2="880.5547"/><line style="stroke: #A80036; stroke-width: 1.0; stroke-dasharray: 5.0,5.0;" x1="248" x2="248" y1="86.2969" y2="880.5547"/><line style="stroke: #A80036; stroke-width: 1.0; stroke-dasharray: 5.0,5.0;" x1="592" x2="592" y1="86.2969" y2="880.5547"/><line style="stroke: #A80036; stroke-width: 1.0; stroke-dasharray: 5.0,5.0;" x1="830" x2="830" y1="86.2969" y2="880.5547"/><line style="stroke: #A80036; stroke-width: 1.0; stroke-dasharray: 5.0,5.0;" x1="975" x2="975" y1="86.2969" y2="880.5547"/><line style="stroke: #A80036; stroke-width: 1.0; stroke-dasharray: 5.0,5.0;" x1="1119" x2="1119" y1="86.2969" y2="880.5547"/><line style="stroke: #A80036; stroke-width: 1.0; stroke-dasharray: 5.0,5.0;" x1="1264" x2="1264" y1="86.2969" y2="880.5547"/><line style="stroke: #A80036; stroke-width: 1.0; stroke-dasharray: 5.0,5.0;" x1="1409" x2="1409" y1="86.2969" y2="880.5547"/><line style="stroke: #A80036; stroke-width: 1.0; stroke-dasharray: 5.0,5.0;" x1="1556" x2="1556" y1="86.2969" y2="880.5547"/><line style="stroke: #A80036; stroke-width: 1.0; stroke-dasharray: 5.0,5.0;" x1="1665" x2="1665" y1="86.2969" y2="880.5547"/><line style="stroke: #A80036; stroke-width: 1.0; stroke-dasharray: 5.0,5.0;" x1="1731" x2="1731" y1="86.2969" y2="880.5547"/><line style="stroke: #A80036; stroke-width: 1.0; stroke-dasharray: 5.0,5.0;" x1="1855" x2="1855" y1="86.2969" y2="880.5547"/><line style="stroke: #A80036; stroke-width: 1.0; stroke-dasharray: 5.0,5.0;" x1="1979" x2="1979" y1="86.2969" y2="880.5547"/><line style="stroke: #A80036; stroke-width: 1.0; stroke-dasharray: 5.0,5.0;" x1="2100" x2="2100" y1="86.2969" y2="880.5547"/><line style="stroke: #A80036; stroke-width: 1.0; stroke-dasharray: 5.0,5.0;" x1="2220" x2="2220" y1="86.2969" y2="880.5547"/><line style="stroke: #A80036; stroke-width: 1.0; stroke-dasharray: 5.0,5.0;" x1="2452.5" x2="2452.5" y1="86.2969" y2="880.5547"/><line style="stroke: #A80036; stroke-width: 1.0; stroke-dasharray: 5.0,5.0;" x1="2684.5" x2="2684.5" y1="86.2969" y2="880.5547"/><text fill="#000000" font-family="sans-serif" font-size="14" lengthAdjust="spacingAndGlyphs" textLength="32" x="23" y="82.9951">User</text><ellipse cx="42" cy="13" fill="#FEFECE" filter="url(#f1n51mhuzgd5jl)" rx="8" ry="8" style="stroke: #A80036; stroke-width: 2.0;"/><path d="M42,21 L42,48 M29,29 L55,29 M42,48 L29,63 M42,48 L55,63 " fill="none" filter="url(#f1n51mhuzgd5jl)" style="stroke: #A80036; stroke-width: 2.0;"/><text fill="#000000" font-family="sans-serif" font-size="14" lengthAdjust="spacingAndGlyphs" textLength="32" x="23" y="892.5498">User</text><ellipse cx="42" cy="905.8516" fill="#FEFECE" filter="url(#f1n51mhuzgd5jl)" rx="8" ry="8" style="stroke: #A80036; stroke-width: 2.0;"/><path d="M42,913.8516 L42,940.8516 M29,921.8516 L55,921.8516 M42,940.8516 L29,955.8516 M42,940.8516 L55,955.8516 " fill="none" filter="url(#f1n51mhuzgd5jl)" style="stroke: #A80036; stroke-width: 2.0;"/><rect fill="#FEFECE" filter="url(#f1n51mhuzgd5jl)" height="30.2969" style="stroke: #A80036; stroke-width: 1.5;" width="351" x="71" y="51"/><text fill="#000000" font-family="sans-serif" font-size="14" lengthAdjust="spacingAndGlyphs" textLength="337" x="78" y="70.9951">:listPassageBetween2BuildingsComponentHTML</text><rect fill="#FEFECE" filter="url(#f1n51mhuzgd5jl)" height="30.2969" style="stroke: #A80036; stroke-width: 1.5;" width="351" x="71" y="879.5547"/><text fill="#000000" font-family="sans-serif" font-size="14" lengthAdjust="spacingAndGlyphs" textLength="337" x="78" y="899.5498">:listPassageBetween2BuildingsComponentHTML</text><rect fill="#FEFECE" filter="url(#f1n51mhuzgd5jl)" height="30.2969" style="stroke: #A80036; stroke-width: 1.5;" width="308" x="436" y="51"/><text fill="#000000" font-family="sans-serif" font-size="14" lengthAdjust="spacingAndGlyphs" textLength="294" x="443" y="70.9951">listPassageBetween2BuildingsComponent</text><rect fill="#FEFECE" filter="url(#f1n51mhuzgd5jl)" height="30.2969" style="stroke: #A80036; stroke-width: 1.5;" width="308" x="436" y="879.5547"/><text fill="#000000" font-family="sans-serif" font-size="14" lengthAdjust="spacingAndGlyphs" textLength="294" x="443" y="899.5498">listPassageBetween2BuildingsComponent</text><rect fill="#FEFECE" filter="url(#f1n51mhuzgd5jl)" height="30.2969" style="stroke: #A80036; stroke-width: 1.5;" width="141" x="758" y="51"/><text fill="#000000" font-family="sans-serif" font-size="14" lengthAdjust="spacingAndGlyphs" textLength="127" x="765" y="70.9951">:BuildingServiceFE</text><rect fill="#FEFECE" filter="url(#f1n51mhuzgd5jl)" height="30.2969" style="stroke: #A80036; stroke-width: 1.5;" width="141" x="758" y="879.5547"/><text fill="#000000" font-family="sans-serif" font-size="14" lengthAdjust="spacingAndGlyphs" textLength="127" x="765" y="899.5498">:BuildingServiceFE</text><rect fill="#FEFECE" filter="url(#f1n51mhuzgd5jl)" height="30.2969" style="stroke: #A80036; stroke-width: 1.5;" width="120" x="913" y="51"/><text fill="#000000" font-family="sans-serif" font-size="14" lengthAdjust="spacingAndGlyphs" textLength="106" x="920" y="70.9951">:FloorServiceFE</text><rect fill="#FEFECE" filter="url(#f1n51mhuzgd5jl)" height="30.2969" style="stroke: #A80036; stroke-width: 1.5;" width="120" x="913" y="879.5547"/><text fill="#000000" font-family="sans-serif" font-size="14" lengthAdjust="spacingAndGlyphs" textLength="106" x="920" y="899.5498">:FloorServiceFE</text><rect fill="#FEFECE" filter="url(#f1n51mhuzgd5jl)" height="30.2969" style="stroke: #A80036; stroke-width: 1.5;" width="141" x="1047" y="51"/><text fill="#000000" font-family="sans-serif" font-size="14" lengthAdjust="spacingAndGlyphs" textLength="127" x="1054" y="70.9951">:BuildingController</text><rect fill="#FEFECE" filter="url(#f1n51mhuzgd5jl)" height="30.2969" style="stroke: #A80036; stroke-width: 1.5;" width="141" x="1047" y="879.5547"/><text fill="#000000" font-family="sans-serif" font-size="14" lengthAdjust="spacingAndGlyphs" textLength="127" x="1054" y="899.5498">:BuildingController</text><rect fill="#FEFECE" filter="url(#f1n51mhuzgd5jl)" height="30.2969" style="stroke: #A80036; stroke-width: 1.5;" width="120" x="1202" y="51"/><text fill="#000000" font-family="sans-serif" font-size="14" lengthAdjust="spacingAndGlyphs" textLength="106" x="1209" y="70.9951">:FloorController</text><rect fill="#FEFECE" filter="url(#f1n51mhuzgd5jl)" height="30.2969" style="stroke: #A80036; stroke-width: 1.5;" width="120" x="1202" y="879.5547"/><text fill="#000000" font-family="sans-serif" font-size="14" lengthAdjust="spacingAndGlyphs" textLength="106" x="1209" y="899.5498">:FloorController</text><rect fill="#FEFECE" filter="url(#f1n51mhuzgd5jl)" height="30.2969" style="stroke: #A80036; stroke-width: 1.5;" width="143" x="1336" y="51"/><text fill="#000000" font-family="sans-serif" font-size="14" lengthAdjust="spacingAndGlyphs" textLength="129" x="1343" y="70.9951">:BuildingServiceBE</text><rect fill="#FEFECE" filter="url(#f1n51mhuzgd5jl)" height="30.2969" style="stroke: #A80036; stroke-width: 1.5;" width="143" x="1336" y="879.5547"/><text fill="#000000" font-family="sans-serif" font-size="14" lengthAdjust="spacingAndGlyphs" textLength="129" x="1343" y="899.5498">:BuildingServiceBE</text><rect fill="#FEFECE" filter="url(#f1n51mhuzgd5jl)" height="30.2969" style="stroke: #A80036; stroke-width: 1.5;" width="122" x="1493" y="51"/><text fill="#000000" font-family="sans-serif" font-size="14" lengthAdjust="spacingAndGlyphs" textLength="108" x="1500" y="70.9951">:FloorServiceBE</text><rect fill="#FEFECE" filter="url(#f1n51mhuzgd5jl)" height="30.2969" style="stroke: #A80036; stroke-width: 1.5;" width="122" x="1493" y="879.5547"/><text fill="#000000" font-family="sans-serif" font-size="14" lengthAdjust="spacingAndGlyphs" textLength="108" x="1500" y="899.5498">:FloorServiceBE</text><text fill="#000000" font-family="sans-serif" font-size="14" lengthAdjust="spacingAndGlyphs" textLength="66" x="1629" y="82.9951">Database</text><path d="M1647,34 C1647,24 1665,24 1665,24 C1665,24 1683,24 1683,34 L1683,60 C1683,70 1665,70 1665,70 C1665,70 1647,70 1647,60 L1647,34 " fill="#FEFECE" filter="url(#f1n51mhuzgd5jl)" style="stroke: #000000; stroke-width: 1.5;"/><path d="M1647,34 C1647,44 1665,44 1665,44 C1665,44 1683,44 1683,34 " fill="none" style="stroke: #000000; stroke-width: 1.5;"/><text fill="#000000" font-family="sans-serif" font-size="14" lengthAdjust="spacingAndGlyphs" textLength="66" x="1629" y="892.5498">Database</text><path d="M1647,905.8516 C1647,895.8516 1665,895.8516 1665,895.8516 C1665,895.8516 1683,895.8516 1683,905.8516 L1683,931.8516 C1683,941.8516 1665,941.8516 1665,941.8516 C1665,941.8516 1647,941.8516 1647,931.8516 L1647,905.8516 " fill="#FEFECE" filter="url(#f1n51mhuzgd5jl)" style="stroke: #000000; stroke-width: 1.5;"/><path d="M1647,905.8516 C1647,915.8516 1665,915.8516 1665,915.8516 C1665,915.8516 1683,915.8516 1683,905.8516 " fill="none" style="stroke: #000000; stroke-width: 1.5;"/><rect fill="#FEFECE" filter="url(#f1n51mhuzgd5jl)" height="30.2969" style="stroke: #A80036; stroke-width: 1.5;" width="37" x="1711" y="51"/><text fill="#000000" font-family="sans-serif" font-size="14" lengthAdjust="spacingAndGlyphs" textLength="23" x="1718" y="70.9951">sys</text><rect fill="#FEFECE" filter="url(#f1n51mhuzgd5jl)" height="30.2969" style="stroke: #A80036; stroke-width: 1.5;" width="37" x="1711" y="879.5547"/><text fill="#000000" font-family="sans-serif" font-size="14" lengthAdjust="spacingAndGlyphs" textLength="23" x="1718" y="899.5498">sys</text><rect fill="#FEFECE" filter="url(#f1n51mhuzgd5jl)" height="30.2969" style="stroke: #A80036; stroke-width: 1.5;" width="53" x="1827" y="51"/><text fill="#000000" font-family="sans-serif" font-size="14" lengthAdjust="spacingAndGlyphs" textLength="39" x="1834" y="70.9951">comp</text><rect fill="#FEFECE" filter="url(#f1n51mhuzgd5jl)" height="30.2969" style="stroke: #A80036; stroke-width: 1.5;" width="53" x="1827" y="879.5547"/><text fill="#000000" font-family="sans-serif" font-size="14" lengthAdjust="spacingAndGlyphs" textLength="39" x="1834" y="899.5498">comp</text><rect fill="#FEFECE" filter="url(#f1n51mhuzgd5jl)" height="30.2969" style="stroke: #A80036; stroke-width: 1.5;" width="59" x="1948" y="51"/><text fill="#000000" font-family="sans-serif" font-size="14" lengthAdjust="spacingAndGlyphs" textLength="45" x="1955" y="70.9951">FEsrvc</text><rect fill="#FEFECE" filter="url(#f1n51mhuzgd5jl)" height="30.2969" style="stroke: #A80036; stroke-width: 1.5;" width="59" x="1948" y="879.5547"/><text fill="#000000" font-family="sans-serif" font-size="14" lengthAdjust="spacingAndGlyphs" textLength="45" x="1955" y="899.5498">FEsrvc</text><rect fill="#FEFECE" filter="url(#f1n51mhuzgd5jl)" height="30.2969" style="stroke: #A80036; stroke-width: 1.5;" width="51" x="2073" y="51"/><text fill="#000000" font-family="sans-serif" font-size="14" lengthAdjust="spacingAndGlyphs" textLength="37" x="2080" y="70.9951">route</text><rect fill="#FEFECE" filter="url(#f1n51mhuzgd5jl)" height="30.2969" style="stroke: #A80036; stroke-width: 1.5;" width="51" x="2073" y="879.5547"/><text fill="#000000" font-family="sans-serif" font-size="14" lengthAdjust="spacingAndGlyphs" textLength="37" x="2080" y="899.5498">route</text><rect fill="#FEFECE" filter="url(#f1n51mhuzgd5jl)" height="30.2969" style="stroke: #A80036; stroke-width: 1.5;" width="35" x="2201" y="51"/><text fill="#000000" font-family="sans-serif" font-size="14" lengthAdjust="spacingAndGlyphs" textLength="21" x="2208" y="70.9951">ctrl</text><rect fill="#FEFECE" filter="url(#f1n51mhuzgd5jl)" height="30.2969" style="stroke: #A80036; stroke-width: 1.5;" width="35" x="2201" y="879.5547"/><text fill="#000000" font-family="sans-serif" font-size="14" lengthAdjust="spacingAndGlyphs" textLength="21" x="2208" y="899.5498">ctrl</text><rect fill="#FEFECE" filter="url(#f1n51mhuzgd5jl)" height="30.2969" style="stroke: #A80036; stroke-width: 1.5;" width="42" x="2429.5" y="51"/><text fill="#000000" font-family="sans-serif" font-size="14" lengthAdjust="spacingAndGlyphs" textLength="28" x="2436.5" y="70.9951">srvc</text><rect fill="#FEFECE" filter="url(#f1n51mhuzgd5jl)" height="30.2969" style="stroke: #A80036; stroke-width: 1.5;" width="42" x="2429.5" y="879.5547"/><text fill="#000000" font-family="sans-serif" font-size="14" lengthAdjust="spacingAndGlyphs" textLength="28" x="2436.5" y="899.5498">srvc</text><rect fill="#FEFECE" filter="url(#f1n51mhuzgd5jl)" height="30.2969" style="stroke: #A80036; stroke-width: 1.5;" width="46" x="2659.5" y="51"/><text fill="#000000" font-family="sans-serif" font-size="14" lengthAdjust="spacingAndGlyphs" textLength="32" x="2666.5" y="70.9951">repo</text><rect fill="#FEFECE" filter="url(#f1n51mhuzgd5jl)" height="30.2969" style="stroke: #A80036; stroke-width: 1.5;" width="46" x="2659.5" y="879.5547"/><text fill="#000000" font-family="sans-serif" font-size="14" lengthAdjust="spacingAndGlyphs" textLength="32" x="2666.5" y="899.5498">repo</text><rect fill="#FFFFFF" filter="url(#f1n51mhuzgd5jl)" height="774.2578" style="stroke: #A80036; stroke-width: 1.0;" width="10" x="37" y="96.2969"/><rect fill="#FFFFFF" filter="url(#f1n51mhuzgd5jl)" height="29.1328" style="stroke: #A80036; stroke-width: 1.0;" width="10" x="1660" y="403.7578"/><rect fill="#FFFFFF" filter="url(#f1n51mhuzgd5jl)" height="679.8594" style="stroke: #A80036; stroke-width: 1.0;" width="10" x="1726.5" y="175.6953"/><rect fill="#FFFFFF" filter="url(#f1n51mhuzgd5jl)" height="621.5938" style="stroke: #A80036; stroke-width: 1.0;" width="10" x="1850.5" y="204.8281"/><rect fill="#FFFFFF" filter="url(#f1n51mhuzgd5jl)" height="563.3281" style="stroke: #A80036; stroke-width: 1.0;" width="10" x="1974.5" y="233.9609"/><rect fill="#FFFFFF" filter="url(#f1n51mhuzgd5jl)" height="505.0625" style="stroke: #A80036; stroke-width: 1.0;" width="10" x="2095.5" y="263.0938"/><rect fill="#FFFFFF" filter="url(#f1n51mhuzgd5jl)" height="446.7969" style="stroke: #A80036; stroke-width: 1.0;" width="10" x="2215.5" y="292.2266"/><rect fill="#FFFFFF" filter="url(#f1n51mhuzgd5jl)" height="388.5313" style="stroke: #A80036; stroke-width: 1.0;" width="10" x="2447.5" y="321.3594"/><rect fill="#FFFFFF" filter="url(#f1n51mhuzgd5jl)" height="330.2656" style="stroke: #A80036; stroke-width: 1.0;" width="10" x="2679.5" y="350.4922"/><polygon fill="#A80036" points="1719.5,113.4297,1729.5,117.4297,1719.5,121.4297,1723.5,117.4297" style="stroke: #A80036; stroke-width: 1.0;"/><line style="stroke: #A80036; stroke-width: 1.0;" x1="47" x2="1725.5" y1="117.4297" y2="117.4297"/><text fill="#000000" font-family="sans-serif" font-size="13" font-weight="bold" lengthAdjust="spacingAndGlyphs" textLength="9" x="54" y="112.3638">1</text><text fill="#000000" font-family="sans-serif" font-size="13" lengthAdjust="spacingAndGlyphs" textLength="145" x="67" y="112.3638">Wants to create a floor</text><polygon fill="#A80036" points="58,142.5625,48,146.5625,58,150.5625,54,146.5625" style="stroke: #A80036; stroke-width: 1.0;"/><line style="stroke: #A80036; stroke-width: 1.0;" x1="52" x2="1730.5" y1="146.5625" y2="146.5625"/><text fill="#000000" font-family="sans-serif" font-size="13" font-weight="bold" lengthAdjust="spacingAndGlyphs" textLength="9" x="64" y="141.4966">2</text><text fill="#000000" font-family="sans-serif" font-size="13" lengthAdjust="spacingAndGlyphs" textLength="130" x="77" y="141.4966">Request Floor's data</text><polygon fill="#A80036" points="1714.5,171.6953,1724.5,175.6953,1714.5,179.6953,1718.5,175.6953" style="stroke: #A80036; stroke-width: 1.0;"/><line style="stroke: #A80036; stroke-width: 1.0;" x1="47" x2="1720.5" y1="175.6953" y2="175.6953"/><text fill="#000000" font-family="sans-serif" font-size="13" font-weight="bold" lengthAdjust="spacingAndGlyphs" textLength="9" x="54" y="170.6294">3</text><text fill="#000000" font-family="sans-serif" font-size="13" lengthAdjust="spacingAndGlyphs" textLength="114" x="67" y="170.6294">Insert Floor's data</text><polygon fill="#A80036" points="1838.5,200.8281,1848.5,204.8281,1838.5,208.8281,1842.5,204.8281" style="stroke: #A80036; stroke-width: 1.0;"/><line style="stroke: #A80036; stroke-width: 1.0;" x1="1736.5" x2="1844.5" y1="204.8281" y2="204.8281"/><text fill="#000000" font-family="sans-serif" font-size="13" font-weight="bold" lengthAdjust="spacingAndGlyphs" textLength="9" x="1743.5" y="199.7622">4</text><text fill="#000000" font-family="sans-serif" font-size="13" lengthAdjust="spacingAndGlyphs" textLength="82" x="1756.5" y="199.7622">createFloor()</text><polygon fill="#A80036" points="1962.5,229.9609,1972.5,233.9609,1962.5,237.9609,1966.5,233.9609" style="stroke: #A80036; stroke-width: 1.0;"/><line style="stroke: #A80036; stroke-width: 1.0;" x1="1860.5" x2="1968.5" y1="233.9609" y2="233.9609"/><text fill="#000000" font-family="sans-serif" font-size="13" font-weight="bold" lengthAdjust="spacingAndGlyphs" textLength="9" x="1867.5" y="228.895">5</text><text fill="#000000" font-family="sans-serif" font-size="13" lengthAdjust="spacingAndGlyphs" textLength="82" x="1880.5" y="228.895">createFloor()</text><polygon fill="#A80036" points="2083.5,259.0938,2093.5,263.0938,2083.5,267.0938,2087.5,263.0938" style="stroke: #A80036; stroke-width: 1.0;"/><line style="stroke: #A80036; stroke-width: 1.0;" x1="1984.5" x2="2089.5" y1="263.0938" y2="263.0938"/><text fill="#000000" font-family="sans-serif" font-size="13" font-weight="bold" lengthAdjust="spacingAndGlyphs" textLength="9" x="1991.5" y="258.0278">6</text><text fill="#000000" font-family="sans-serif" font-size="13" lengthAdjust="spacingAndGlyphs" textLength="79" x="2004.5" y="258.0278">GET route{}</text><polygon fill="#A80036" points="2203.5,288.2266,2213.5,292.2266,2203.5,296.2266,2207.5,292.2266" style="stroke: #A80036; stroke-width: 1.0;"/><line style="stroke: #A80036; stroke-width: 1.0;" x1="2105.5" x2="2209.5" y1="292.2266" y2="292.2266"/><text fill="#000000" font-family="sans-serif" font-size="13" font-weight="bold" lengthAdjust="spacingAndGlyphs" textLength="9" x="2112.5" y="287.1606">7</text><text fill="#000000" font-family="sans-serif" font-size="13" lengthAdjust="spacingAndGlyphs" textLength="61" x="2125.5" y="287.1606">HTTP PUT</text><polygon fill="#A80036" points="2435.5,317.3594,2445.5,321.3594,2435.5,325.3594,2439.5,321.3594" style="stroke: #A80036; stroke-width: 1.0;"/><line style="stroke: #A80036; stroke-width: 1.0;" x1="2225.5" x2="2441.5" y1="321.3594" y2="321.3594"/><text fill="#000000" font-family="sans-serif" font-size="13" font-weight="bold" lengthAdjust="spacingAndGlyphs" textLength="9" x="2232.5" y="316.2935">8</text><text fill="#000000" font-family="sans-serif" font-size="13" lengthAdjust="spacingAndGlyphs" textLength="82" x="2245.5" y="316.2935">createFloor()</text><polygon fill="#A80036" points="2667.5,346.4922,2677.5,350.4922,2667.5,354.4922,2671.5,350.4922" style="stroke: #A80036; stroke-width: 1.0;"/><line style="stroke: #A80036; stroke-width: 1.0;" x1="2457.5" x2="2673.5" y1="350.4922" y2="350.4922"/><text fill="#000000" font-family="sans-serif" font-size="13" font-weight="bold" lengthAdjust="spacingAndGlyphs" textLength="9" x="2464.5" y="345.4263">9</text><text fill="#000000" font-family="sans-serif" font-size="13" lengthAdjust="spacingAndGlyphs" textLength="82" x="2477.5" y="345.4263">createFloor()</text><path d="M13,365.4922 L77,365.4922 L77,372.4922 L67,382.4922 L13,382.4922 L13,365.4922 " fill="#EEEEEE" style="stroke: #000000; stroke-width: 1.0;"/><rect fill="none" height="498.0625" style="stroke: #000000; stroke-width: 2.0;" width="2706.5" x="13" y="365.4922"/><text fill="#000000" font-family="sans-serif" font-size="13" font-weight="bold" lengthAdjust="spacingAndGlyphs" textLength="19" x="28" y="378.5591">alt</text><text fill="#000000" font-family="sans-serif" font-size="11" font-weight="bold" lengthAdjust="spacingAndGlyphs" textLength="54" x="92" y="377.7026">[sucess]</text><polygon fill="#A80036" points="1681,399.7578,1671,403.7578,1681,407.7578,1677,403.7578" style="stroke: #A80036; stroke-width: 1.0;"/><line style="stroke: #A80036; stroke-width: 1.0;" x1="1675" x2="2678.5" y1="403.7578" y2="403.7578"/><text fill="#000000" font-family="sans-serif" font-size="13" font-weight="bold" lengthAdjust="spacingAndGlyphs" textLength="18" x="1687" y="398.6919">10</text><text fill="#000000" font-family="sans-serif" font-size="13" lengthAdjust="spacingAndGlyphs" textLength="71" x="1709" y="398.6919">save(Floor)</text><polygon fill="#A80036" points="2667.5,428.8906,2677.5,432.8906,2667.5,436.8906,2671.5,432.8906" style="stroke: #A80036; stroke-width: 1.0;"/><line style="stroke: #A80036; stroke-width: 1.0; stroke-dasharray: 2.0,2.0;" x1="1665" x2="2673.5" y1="432.8906" y2="432.8906"/><text fill="#000000" font-family="sans-serif" font-size="13" font-weight="bold" lengthAdjust="spacingAndGlyphs" textLength="18" x="1672" y="427.8247">11</text><text fill="#000000" font-family="sans-serif" font-size="13" lengthAdjust="spacingAndGlyphs" textLength="44" x="1694" y="427.8247">sucess</text><polygon fill="#A80036" points="2468.5,458.0234,2458.5,462.0234,2468.5,466.0234,2464.5,462.0234" style="stroke: #A80036; stroke-width: 1.0;"/><line style="stroke: #A80036; stroke-width: 1.0;" x1="2462.5" x2="2678.5" y1="462.0234" y2="462.0234"/><text fill="#000000" font-family="sans-serif" font-size="13" font-weight="bold" lengthAdjust="spacingAndGlyphs" textLength="18" x="2474.5" y="456.9575">12</text><text fill="#000000" font-family="sans-serif" font-size="13" lengthAdjust="spacingAndGlyphs" textLength="44" x="2496.5" y="456.9575">sucess</text><polygon fill="#A80036" points="2236.5,487.1563,2226.5,491.1563,2236.5,495.1563,2232.5,491.1563" style="stroke: #A80036; stroke-width: 1.0;"/><line style="stroke: #A80036; stroke-width: 1.0;" x1="2230.5" x2="2446.5" y1="491.1563" y2="491.1563"/><text fill="#000000" font-family="sans-serif" font-size="13" font-weight="bold" lengthAdjust="spacingAndGlyphs" textLength="18" x="2242.5" y="486.0903">13</text><text fill="#000000" font-family="sans-serif" font-size="13" lengthAdjust="spacingAndGlyphs" textLength="44" x="2264.5" y="486.0903">sucess</text><polygon fill="#A80036" points="2116.5,516.2891,2106.5,520.2891,2116.5,524.2891,2112.5,520.2891" style="stroke: #A80036; stroke-width: 1.0;"/><line style="stroke: #A80036; stroke-width: 1.0; stroke-dasharray: 2.0,2.0;" x1="2110.5" x2="2214.5" y1="520.2891" y2="520.2891"/><text fill="#000000" font-family="sans-serif" font-size="13" font-weight="bold" lengthAdjust="spacingAndGlyphs" textLength="18" x="2122.5" y="515.2231">14</text><text fill="#000000" font-family="sans-serif" font-size="13" lengthAdjust="spacingAndGlyphs" textLength="64" x="2144.5" y="515.2231">HTTP: 201</text><polygon fill="#A80036" points="1995.5,545.4219,1985.5,549.4219,1995.5,553.4219,1991.5,549.4219" style="stroke: #A80036; stroke-width: 1.0;"/><line style="stroke: #A80036; stroke-width: 1.0; stroke-dasharray: 2.0,2.0;" x1="1989.5" x2="2094.5" y1="549.4219" y2="549.4219"/><text fill="#000000" font-family="sans-serif" font-size="13" font-weight="bold" lengthAdjust="spacingAndGlyphs" textLength="18" x="2001.5" y="544.356">15</text><text fill="#000000" font-family="sans-serif" font-size="13" lengthAdjust="spacingAndGlyphs" textLength="64" x="2023.5" y="544.356">HTTP: 201</text><polygon fill="#A80036" points="1871.5,574.5547,1861.5,578.5547,1871.5,582.5547,1867.5,578.5547" style="stroke: #A80036; stroke-width: 1.0;"/><line style="stroke: #A80036; stroke-width: 1.0; stroke-dasharray: 2.0,2.0;" x1="1865.5" x2="1973.5" y1="578.5547" y2="578.5547"/><text fill="#000000" font-family="sans-serif" font-size="13" font-weight="bold" lengthAdjust="spacingAndGlyphs" textLength="18" x="1877.5" y="573.4888">16</text><text fill="#000000" font-family="sans-serif" font-size="13" lengthAdjust="spacingAndGlyphs" textLength="64" x="1899.5" y="573.4888">HTTP: 201</text><polygon fill="#A80036" points="1747.5,603.6875,1737.5,607.6875,1747.5,611.6875,1743.5,607.6875" style="stroke: #A80036; stroke-width: 1.0;"/><line style="stroke: #A80036; stroke-width: 1.0; stroke-dasharray: 2.0,2.0;" x1="1741.5" x2="1849.5" y1="607.6875" y2="607.6875"/><text fill="#000000" font-family="sans-serif" font-size="13" font-weight="bold" lengthAdjust="spacingAndGlyphs" textLength="18" x="1753.5" y="602.6216">17</text><text fill="#000000" font-family="sans-serif" font-size="13" lengthAdjust="spacingAndGlyphs" textLength="64" x="1775.5" y="602.6216">HTTP: 201</text><polygon fill="#A80036" points="58,632.8203,48,636.8203,58,640.8203,54,636.8203" style="stroke: #A80036; stroke-width: 1.0;"/><line style="stroke: #A80036; stroke-width: 1.0; stroke-dasharray: 2.0,2.0;" x1="52" x2="1725.5" y1="636.8203" y2="636.8203"/><text fill="#000000" font-family="sans-serif" font-size="13" font-weight="bold" lengthAdjust="spacingAndGlyphs" textLength="18" x="64" y="631.7544">18</text><text fill="#000000" font-family="sans-serif" font-size="13" lengthAdjust="spacingAndGlyphs" textLength="143" x="86" y="631.7544">show Sucess Message</text><line style="stroke: #000000; stroke-width: 1.0; stroke-dasharray: 2.0,2.0;" x1="13" x2="2719.5" y1="645.8203" y2="645.8203"/><text fill="#000000" font-family="sans-serif" font-size="11" font-weight="bold" lengthAdjust="spacingAndGlyphs" textLength="5" x="18" y="656.0308">[</text><text fill="#000000" font-family="sans-serif" font-size="11" font-weight="bold" lengthAdjust="spacingAndGlyphs" textLength="47" x="50" y="656.0308">failure]</text><polygon fill="#A80036" points="2468.5,676.7578,2458.5,680.7578,2468.5,684.7578,2464.5,680.7578" style="stroke: #A80036; stroke-width: 1.0;"/><line style="stroke: #A80036; stroke-width: 1.0; stroke-dasharray: 2.0,2.0;" x1="2462.5" x2="2683.5" y1="680.7578" y2="680.7578"/><text fill="#000000" font-family="sans-serif" font-size="13" font-weight="bold" lengthAdjust="spacingAndGlyphs" textLength="18" x="2474.5" y="675.6919">19</text><text fill="#000000" font-family="sans-serif" font-size="13" lengthAdjust="spacingAndGlyphs" textLength="176" x="2496.5" y="675.6919">Error('Internal Server Error')</text><polygon fill="#A80036" points="2236.5,705.8906,2226.5,709.8906,2236.5,713.8906,2232.5,709.8906" style="stroke: #A80036; stroke-width: 1.0;"/><line style="stroke: #A80036; stroke-width: 1.0;" x1="2230.5" x2="2451.5" y1="709.8906" y2="709.8906"/><text fill="#000000" font-family="sans-serif" font-size="13" font-weight="bold" lengthAdjust="spacingAndGlyphs" textLength="18" x="2242.5" y="704.8247">20</text><text fill="#000000" font-family="sans-serif" font-size="13" lengthAdjust="spacingAndGlyphs" textLength="176" x="2264.5" y="704.8247">Error('Internal Server Error')</text><polygon fill="#A80036" points="2116.5,735.0234,2106.5,739.0234,2116.5,743.0234,2112.5,739.0234" style="stroke: #A80036; stroke-width: 1.0;"/><line style="stroke: #A80036; stroke-width: 1.0; stroke-dasharray: 2.0,2.0;" x1="2110.5" x2="2219.5" y1="739.0234" y2="739.0234"/><text fill="#000000" font-family="sans-serif" font-size="13" font-weight="bold" lengthAdjust="spacingAndGlyphs" textLength="18" x="2122.5" y="733.9575">21</text><text fill="#000000" font-family="sans-serif" font-size="13" lengthAdjust="spacingAndGlyphs" textLength="64" x="2144.5" y="733.9575">HTTP: 500</text><polygon fill="#A80036" points="1995.5,764.1563,1985.5,768.1563,1995.5,772.1563,1991.5,768.1563" style="stroke: #A80036; stroke-width: 1.0;"/><line style="stroke: #A80036; stroke-width: 1.0; stroke-dasharray: 2.0,2.0;" x1="1989.5" x2="2099.5" y1="768.1563" y2="768.1563"/><text fill="#000000" font-family="sans-serif" font-size="13" font-weight="bold" lengthAdjust="spacingAndGlyphs" textLength="18" x="2001.5" y="763.0903">22</text><text fill="#000000" font-family="sans-serif" font-size="13" lengthAdjust="spacingAndGlyphs" textLength="64" x="2023.5" y="763.0903">HTTP: 500</text><polygon fill="#A80036" points="1871.5,793.2891,1861.5,797.2891,1871.5,801.2891,1867.5,797.2891" style="stroke: #A80036; stroke-width: 1.0;"/><line style="stroke: #A80036; stroke-width: 1.0; stroke-dasharray: 2.0,2.0;" x1="1865.5" x2="1978.5" y1="797.2891" y2="797.2891"/><text fill="#000000" font-family="sans-serif" font-size="13" font-weight="bold" lengthAdjust="spacingAndGlyphs" textLength="18" x="1877.5" y="792.2231">23</text><text fill="#000000" font-family="sans-serif" font-size="13" lengthAdjust="spacingAndGlyphs" textLength="64" x="1899.5" y="792.2231">HTTP: 500</text><polygon fill="#A80036" points="1747.5,822.4219,1737.5,826.4219,1747.5,830.4219,1743.5,826.4219" style="stroke: #A80036; stroke-width: 1.0;"/><line style="stroke: #A80036; stroke-width: 1.0; stroke-dasharray: 2.0,2.0;" x1="1741.5" x2="1854.5" y1="826.4219" y2="826.4219"/><text fill="#000000" font-family="sans-serif" font-size="13" font-weight="bold" lengthAdjust="spacingAndGlyphs" textLength="18" x="1753.5" y="821.356">24</text><text fill="#000000" font-family="sans-serif" font-size="13" lengthAdjust="spacingAndGlyphs" textLength="64" x="1775.5" y="821.356">HTTP: 500</text><polygon fill="#A80036" points="58,851.5547,48,855.5547,58,859.5547,54,855.5547" style="stroke: #A80036; stroke-width: 1.0;"/><line style="stroke: #A80036; stroke-width: 1.0; stroke-dasharray: 2.0,2.0;" x1="52" x2="1730.5" y1="855.5547" y2="855.5547"/><text fill="#000000" font-family="sans-serif" font-size="13" font-weight="bold" lengthAdjust="spacingAndGlyphs" textLength="18" x="64" y="850.4888">25</text><text fill="#000000" font-family="sans-serif" font-size="13" lengthAdjust="spacingAndGlyphs" textLength="138" x="86" y="850.4888">show failure message</text><!--MD5=[08b39c3cd27abb304d2e27e0f8093a16]
@startuml
autonumber
actor "User" as user
participant ":listPassageBetween2BuildingsComponentHTML" as ui
participant "listPassageBetween2BuildingsComponent" as component

participant ":BuildingServiceFE" as buildingservicefe
participant ":FloorServiceFE" as floorservicefe
participant ":BuildingController" as buildingctrl
participant ":FloorController" as floorcontroller
participant ":BuildingServiceBE" as buildingservicebe
participant ":FloorServiceBE" as floorservicebe



database "Database" as db

activate user
 user -> sys: Wants to create a floor
 sys -> user: Request Floor's data
 user -> sys: Insert Floor's data
activate sys
sys -> comp : createFloor()
activate comp
comp -> FEsrvc : createFloor()
activate FEsrvc
FEsrvc -> route: GET route{}
activate route
route -> ctrl: HTTP PUT
activate ctrl
ctrl -> srvc: createFloor()
activate srvc
srvc -> repo: createFloor()




alt sucess
    activate repo
    repo -> db: save(Floor)
    activate db
    db - -> repo: sucess
    deactivate db
    repo -> srvc: sucess
    
    srvc -> ctrl: sucess
    ctrl - -> route : HTTP: 201
    route - -> FEsrvc: HTTP: 201
    FEsrvc - -> comp: HTTP: 201
    comp - -> sys: HTTP: 201
    sys - -> user: show Sucess Message
else \tfailure
    repo - -> srvc: Error('Internal Server Error')
    deactivate repo
    srvc -> ctrl: Error('Internal Server Error')
    deactivate srvc
    ctrl - -> route : HTTP: 500
    deactivate ctrl
    route - -> FEsrvc: HTTP: 500
    deactivate route
    FEsrvc - -> comp: HTTP: 500
    deactivate FEsrvc 
    comp - -> sys: HTTP: 500
    deactivate comp
    sys - -> user: show failure message
    deactivate sys
end


deactivate repo
deactivate ctrl
deactivate route
deactivate FEsrvc
deactivate comp
deactivate sys
deactivate user
@enduml

PlantUML version 1.2020.02(Sun Mar 01 10:22:07 UTC 2020)
(GPL source distribution)
Java Runtime: OpenJDK Runtime Environment
JVM: OpenJDK 64-Bit Server VM
Java Version: 11.0.21+9
Operating System: Linux
Default Encoding: UTF-8
Language: en
Country: null
--></g></svg>