<?xml version="1.0" encoding="UTF-8" standalone="no"?><svg xmlns="http://www.w3.org/2000/svg" xmlns:xlink="http://www.w3.org/1999/xlink" contentScriptType="application/ecmascript" contentStyleType="text/css" height="426px" preserveAspectRatio="none" style="width:918px;height:426px;" version="1.1" viewBox="0 0 918 426" width="918px" zoomAndPan="magnify"><defs><filter height="300%" id="f1kv7mzrhi4liy" width="300%" x="-1" y="-1"><feGaussianBlur result="blurOut" stdDeviation="2.0"/><feColorMatrix in="blurOut" result="blurOut2" type="matrix" values="0 0 0 0 0 0 0 0 0 0 0 0 0 0 0 0 0 0 .4 0"/><feOffset dx="4.0" dy="4.0" in="blurOut2" result="blurOut3"/><feBlend in="SourceGraphic" in2="blurOut3" mode="normal"/></filter></defs><g><rect fill="#FFFFFF" filter="url(#f1kv7mzrhi4liy)" height="145.6641" style="stroke: #A80036; stroke-width: 1.0;" width="10" x="474" y="146.5625"/><rect fill="#FFFFFF" filter="url(#f1kv7mzrhi4liy)" height="87.3984" style="stroke: #A80036; stroke-width: 1.0;" width="10" x="650" y="175.6953"/><line style="stroke: #A80036; stroke-width: 1.0; stroke-dasharray: 5.0,5.0;" x1="27" x2="27" y1="86.2969" y2="339.3594"/><line style="stroke: #A80036; stroke-width: 1.0; stroke-dasharray: 5.0,5.0;" x1="193" x2="193" y1="86.2969" y2="339.3594"/><line style="stroke: #A80036; stroke-width: 1.0; stroke-dasharray: 5.0,5.0;" x1="478.5" x2="478.5" y1="86.2969" y2="339.3594"/><line style="stroke: #A80036; stroke-width: 1.0; stroke-dasharray: 5.0,5.0;" x1="655" x2="655" y1="86.2969" y2="339.3594"/><line style="stroke: #A80036; stroke-width: 1.0; stroke-dasharray: 5.0,5.0;" x1="876" x2="876" y1="86.2969" y2="339.3594"/><text fill="#000000" font-family="sans-serif" font-size="14" lengthAdjust="spacingAndGlyphs" textLength="32" x="8" y="82.9951">User</text><ellipse cx="27" cy="13" fill="#FEFECE" filter="url(#f1kv7mzrhi4liy)" rx="8" ry="8" style="stroke: #A80036; stroke-width: 2.0;"/><path d="M27,21 L27,48 M14,29 L40,29 M27,48 L14,63 M27,48 L40,63 " fill="none" filter="url(#f1kv7mzrhi4liy)" style="stroke: #A80036; stroke-width: 2.0;"/><text fill="#000000" font-family="sans-serif" font-size="14" lengthAdjust="spacingAndGlyphs" textLength="32" x="8" y="351.3545">User</text><ellipse cx="27" cy="364.6563" fill="#FEFECE" filter="url(#f1kv7mzrhi4liy)" rx="8" ry="8" style="stroke: #A80036; stroke-width: 2.0;"/><path d="M27,372.6563 L27,399.6563 M14,380.6563 L40,380.6563 M27,399.6563 L14,414.6563 M27,399.6563 L40,414.6563 " fill="none" filter="url(#f1kv7mzrhi4liy)" style="stroke: #A80036; stroke-width: 2.0;"/><rect fill="#FEFECE" filter="url(#f1kv7mzrhi4liy)" height="30.2969" style="stroke: #A80036; stroke-width: 1.5;" width="82" x="150" y="51"/><text fill="#000000" font-family="sans-serif" font-size="14" lengthAdjust="spacingAndGlyphs" textLength="68" x="157" y="70.9951">:FrontEnd</text><rect fill="#FEFECE" filter="url(#f1kv7mzrhi4liy)" height="30.2969" style="stroke: #A80036; stroke-width: 1.5;" width="82" x="150" y="338.3594"/><text fill="#000000" font-family="sans-serif" font-size="14" lengthAdjust="spacingAndGlyphs" textLength="68" x="157" y="358.3545">:FrontEnd</text><rect fill="#FEFECE" filter="url(#f1kv7mzrhi4liy)" height="30.2969" style="stroke: #A80036; stroke-width: 1.5;" width="149" x="402.5" y="51"/><text fill="#000000" font-family="sans-serif" font-size="14" lengthAdjust="spacingAndGlyphs" textLength="135" x="409.5" y="70.9951">:BuildingsController</text><rect fill="#FEFECE" filter="url(#f1kv7mzrhi4liy)" height="30.2969" style="stroke: #A80036; stroke-width: 1.5;" width="149" x="402.5" y="338.3594"/><text fill="#000000" font-family="sans-serif" font-size="14" lengthAdjust="spacingAndGlyphs" textLength="135" x="409.5" y="358.3545">:BuildingsController</text><rect fill="#FEFECE" filter="url(#f1kv7mzrhi4liy)" height="30.2969" style="stroke: #A80036; stroke-width: 1.5;" width="124" x="591" y="51"/><text fill="#000000" font-family="sans-serif" font-size="14" lengthAdjust="spacingAndGlyphs" textLength="110" x="598" y="70.9951">:BuildingService</text><rect fill="#FEFECE" filter="url(#f1kv7mzrhi4liy)" height="30.2969" style="stroke: #A80036; stroke-width: 1.5;" width="124" x="591" y="338.3594"/><text fill="#000000" font-family="sans-serif" font-size="14" lengthAdjust="spacingAndGlyphs" textLength="110" x="598" y="358.3545">:BuildingService</text><text fill="#000000" font-family="sans-serif" font-size="14" lengthAdjust="spacingAndGlyphs" textLength="66" x="840" y="82.9951">Database</text><path d="M858,34 C858,24 876,24 876,24 C876,24 894,24 894,34 L894,60 C894,70 876,70 876,70 C876,70 858,70 858,60 L858,34 " fill="#FEFECE" filter="url(#f1kv7mzrhi4liy)" style="stroke: #000000; stroke-width: 1.5;"/><path d="M858,34 C858,44 876,44 876,44 C876,44 894,44 894,34 " fill="none" style="stroke: #000000; stroke-width: 1.5;"/><text fill="#000000" font-family="sans-serif" font-size="14" lengthAdjust="spacingAndGlyphs" textLength="66" x="840" y="351.3545">Database</text><path d="M858,364.6563 C858,354.6563 876,354.6563 876,354.6563 C876,354.6563 894,354.6563 894,364.6563 L894,390.6563 C894,400.6563 876,400.6563 876,400.6563 C876,400.6563 858,400.6563 858,390.6563 L858,364.6563 " fill="#FEFECE" filter="url(#f1kv7mzrhi4liy)" style="stroke: #000000; stroke-width: 1.5;"/><path d="M858,364.6563 C858,374.6563 876,374.6563 876,374.6563 C876,374.6563 894,374.6563 894,364.6563 " fill="none" style="stroke: #000000; stroke-width: 1.5;"/><rect fill="#FFFFFF" filter="url(#f1kv7mzrhi4liy)" height="145.6641" style="stroke: #A80036; stroke-width: 1.0;" width="10" x="474" y="146.5625"/><rect fill="#FFFFFF" filter="url(#f1kv7mzrhi4liy)" height="87.3984" style="stroke: #A80036; stroke-width: 1.0;" width="10" x="650" y="175.6953"/><polygon fill="#A80036" points="181,113.4297,191,117.4297,181,121.4297,185,117.4297" style="stroke: #A80036; stroke-width: 1.0;"/><line style="stroke: #A80036; stroke-width: 1.0;" x1="27" x2="187" y1="117.4297" y2="117.4297"/><text fill="#000000" font-family="sans-serif" font-size="13" lengthAdjust="spacingAndGlyphs" textLength="121" x="34" y="112.3638">Request to findAll()</text><polygon fill="#A80036" points="462,142.5625,472,146.5625,462,150.5625,466,146.5625" style="stroke: #A80036; stroke-width: 1.0;"/><line style="stroke: #A80036; stroke-width: 1.0;" x1="193" x2="468" y1="146.5625" y2="146.5625"/><text fill="#000000" font-family="sans-serif" font-size="13" lengthAdjust="spacingAndGlyphs" textLength="125" x="200" y="141.4966">HTTP GET /buildings</text><polygon fill="#A80036" points="638,171.6953,648,175.6953,638,179.6953,642,175.6953" style="stroke: #A80036; stroke-width: 1.0;"/><line style="stroke: #A80036; stroke-width: 1.0;" x1="484" x2="644" y1="175.6953" y2="175.6953"/><text fill="#000000" font-family="sans-serif" font-size="13" lengthAdjust="spacingAndGlyphs" textLength="48" x="491" y="170.6294">findAll()</text><polygon fill="#A80036" points="864,200.8281,874,204.8281,864,208.8281,868,204.8281" style="stroke: #A80036; stroke-width: 1.0;"/><line style="stroke: #A80036; stroke-width: 1.0;" x1="660" x2="870" y1="204.8281" y2="204.8281"/><text fill="#000000" font-family="sans-serif" font-size="13" lengthAdjust="spacingAndGlyphs" textLength="192" x="667" y="199.7622">Query to fetch building names</text><polygon fill="#A80036" points="671,229.9609,661,233.9609,671,237.9609,667,233.9609" style="stroke: #A80036; stroke-width: 1.0;"/><line style="stroke: #A80036; stroke-width: 1.0; stroke-dasharray: 2.0,2.0;" x1="665" x2="875" y1="233.9609" y2="233.9609"/><text fill="#000000" font-family="sans-serif" font-size="13" lengthAdjust="spacingAndGlyphs" textLength="142" x="677" y="228.895">List of Building Names</text><polygon fill="#A80036" points="495,259.0938,485,263.0938,495,267.0938,491,263.0938" style="stroke: #A80036; stroke-width: 1.0;"/><line style="stroke: #A80036; stroke-width: 1.0; stroke-dasharray: 2.0,2.0;" x1="489" x2="654" y1="263.0938" y2="263.0938"/><text fill="#000000" font-family="sans-serif" font-size="13" lengthAdjust="spacingAndGlyphs" textLength="142" x="501" y="258.0278">List of Building Names</text><polygon fill="#A80036" points="204,288.2266,194,292.2266,204,296.2266,200,292.2266" style="stroke: #A80036; stroke-width: 1.0;"/><line style="stroke: #A80036; stroke-width: 1.0; stroke-dasharray: 2.0,2.0;" x1="198" x2="478" y1="292.2266" y2="292.2266"/><text fill="#000000" font-family="sans-serif" font-size="13" lengthAdjust="spacingAndGlyphs" textLength="257" x="210" y="287.1606">HTTP 200 OK with List of Building Names</text><polygon fill="#A80036" points="38,317.3594,28,321.3594,38,325.3594,34,321.3594" style="stroke: #A80036; stroke-width: 1.0;"/><line style="stroke: #A80036; stroke-width: 1.0; stroke-dasharray: 2.0,2.0;" x1="32" x2="192" y1="321.3594" y2="321.3594"/><text fill="#000000" font-family="sans-serif" font-size="13" lengthAdjust="spacingAndGlyphs" textLength="142" x="44" y="316.2935">List of Building Names</text><!--MD5=[bf491d83644524bb036d6ade267be0fe]
@startuml
actor "User" as user
participant ":FrontEnd" as frontend
participant ":BuildingsController" as controller
participant ":BuildingService" as service
database "Database" as db

user -> frontend: Request to findAll()
frontend -> controller: HTTP GET /buildings
activate controller
controller -> service: findAll()
activate service
service -> db: Query to fetch building names
db - -> service: List of Building Names
service - -> controller: List of Building Names
deactivate service
controller - -> frontend: HTTP 200 OK with List of Building Names
deactivate controller
frontend - -> user: List of Building Names
@enduml

PlantUML version 1.2020.02(Sun Mar 01 10:22:07 UTC 2020)
(GPL source distribution)
Java Runtime: OpenJDK Runtime Environment
JVM: OpenJDK 64-Bit Server VM
Java Version: 11.0.21+9
Operating System: Linux
Default Encoding: UTF-8
Language: en
Country: null
--></g></svg>