<?xml version="1.0" encoding="UTF-8" standalone="no"?><svg xmlns="http://www.w3.org/2000/svg" xmlns:xlink="http://www.w3.org/1999/xlink" contentScriptType="application/ecmascript" contentStyleType="text/css" height="809px" preserveAspectRatio="none" style="width:1700px;height:809px;" version="1.1" viewBox="0 0 1700 809" width="1700px" zoomAndPan="magnify"><defs><filter height="300%" id="fscocyfnl8x9k" width="300%" x="-1" y="-1"><feGaussianBlur result="blurOut" stdDeviation="2.0"/><feColorMatrix in="blurOut" result="blurOut2" type="matrix" values="0 0 0 0 0 0 0 0 0 0 0 0 0 0 0 0 0 0 .4 0"/><feOffset dx="4.0" dy="4.0" in="blurOut2" result="blurOut3"/><feBlend in="SourceGraphic" in2="blurOut3" mode="normal"/></filter></defs><g><rect fill="#FFFFFF" filter="url(#fscocyfnl8x9k)" height="616.7891" style="stroke: #A80036; stroke-width: 1.0;" width="10" x="42.5" y="96.2969"/><rect fill="#FFFFFF" filter="url(#fscocyfnl8x9k)" height="594.6563" style="stroke: #A80036; stroke-width: 1.0;" width="10" x="250.5" y="117.4297"/><rect fill="#FFFFFF" filter="url(#fscocyfnl8x9k)" height="537.3906" style="stroke: #A80036; stroke-width: 1.0;" width="10" x="710.5" y="175.6953"/><rect fill="#FFFFFF" filter="url(#fscocyfnl8x9k)" height="508.2578" style="stroke: #A80036; stroke-width: 1.0;" width="10" x="957.5" y="204.8281"/><rect fill="#FFFFFF" filter="url(#fscocyfnl8x9k)" height="479.125" style="stroke: #A80036; stroke-width: 1.0;" width="10" x="1172.5" y="233.9609"/><rect fill="#FFFFFF" filter="url(#fscocyfnl8x9k)" height="203.9297" style="stroke: #A80036; stroke-width: 1.0;" width="10" x="1323.5" y="263.0938"/><rect fill="#FFFFFF" filter="url(#fscocyfnl8x9k)" height="87.3984" style="stroke: #A80036; stroke-width: 1.0;" width="10" x="1510.5" y="379.625"/><rect fill="#FFFFFF" filter="url(#fscocyfnl8x9k)" height="174.7969" style="stroke: #A80036; stroke-width: 1.0;" width="10" x="1628" y="292.2266"/><rect fill="#FFFFFF" filter="url(#fscocyfnl8x9k)" height="193.9297" style="stroke: #000000; stroke-width: 2.0;" width="1025.5" x="13" y="511.1563"/><rect fill="#FFFFFF" height="89.3984" style="stroke: none; stroke-width: 1.0;" width="1025.5" x="13" y="615.6875"/><line style="stroke: #A80036; stroke-width: 1.0; stroke-dasharray: 5.0,5.0;" x1="47" x2="47" y1="86.2969" y2="722.0859"/><line style="stroke: #A80036; stroke-width: 1.0; stroke-dasharray: 5.0,5.0;" x1="255.5" x2="255.5" y1="86.2969" y2="722.0859"/><line style="stroke: #A80036; stroke-width: 1.0; stroke-dasharray: 5.0,5.0;" x1="715" x2="715" y1="86.2969" y2="722.0859"/><line style="stroke: #A80036; stroke-width: 1.0; stroke-dasharray: 5.0,5.0;" x1="962.5" x2="962.5" y1="86.2969" y2="722.0859"/><line style="stroke: #A80036; stroke-width: 1.0; stroke-dasharray: 5.0,5.0;" x1="1177" x2="1177" y1="86.2969" y2="722.0859"/><line style="stroke: #A80036; stroke-width: 1.0; stroke-dasharray: 5.0,5.0;" x1="1328.5" x2="1328.5" y1="86.2969" y2="722.0859"/><line style="stroke: #A80036; stroke-width: 1.0; stroke-dasharray: 5.0,5.0;" x1="1515.5" x2="1515.5" y1="86.2969" y2="722.0859"/><line style="stroke: #A80036; stroke-width: 1.0; stroke-dasharray: 5.0,5.0;" x1="1632.5" x2="1632.5" y1="86.2969" y2="722.0859"/><text fill="#000000" font-family="sans-serif" font-size="14" lengthAdjust="spacingAndGlyphs" textLength="43" x="23" y="82.9951">Admin</text><ellipse cx="47.5" cy="13" fill="#FEFECE" filter="url(#fscocyfnl8x9k)" rx="8" ry="8" style="stroke: #A80036; stroke-width: 2.0;"/><path d="M47.5,21 L47.5,48 M34.5,29 L60.5,29 M47.5,48 L34.5,63 M47.5,48 L60.5,63 " fill="none" filter="url(#fscocyfnl8x9k)" style="stroke: #A80036; stroke-width: 2.0;"/><text fill="#000000" font-family="sans-serif" font-size="14" lengthAdjust="spacingAndGlyphs" textLength="43" x="23" y="734.0811">Admin</text><ellipse cx="47.5" cy="747.3828" fill="#FEFECE" filter="url(#fscocyfnl8x9k)" rx="8" ry="8" style="stroke: #A80036; stroke-width: 2.0;"/><path d="M47.5,755.3828 L47.5,782.3828 M34.5,763.3828 L60.5,763.3828 M47.5,782.3828 L34.5,797.3828 M47.5,782.3828 L60.5,797.3828 " fill="none" filter="url(#fscocyfnl8x9k)" style="stroke: #A80036; stroke-width: 2.0;"/><rect fill="#FEFECE" filter="url(#fscocyfnl8x9k)" height="30.2969" style="stroke: #A80036; stroke-width: 1.5;" width="82" x="212.5" y="51"/><text fill="#000000" font-family="sans-serif" font-size="14" lengthAdjust="spacingAndGlyphs" textLength="68" x="219.5" y="70.9951">:FrontEnd</text><rect fill="#FEFECE" filter="url(#fscocyfnl8x9k)" height="30.2969" style="stroke: #A80036; stroke-width: 1.5;" width="82" x="212.5" y="721.0859"/><text fill="#000000" font-family="sans-serif" font-size="14" lengthAdjust="spacingAndGlyphs" textLength="68" x="219.5" y="741.0811">:FrontEnd</text><rect fill="#FEFECE" filter="url(#fscocyfnl8x9k)" height="30.2969" style="stroke: #A80036; stroke-width: 1.5;" width="73" x="677" y="51"/><text fill="#000000" font-family="sans-serif" font-size="14" lengthAdjust="spacingAndGlyphs" textLength="59" x="684" y="70.9951">:Routing</text><rect fill="#FEFECE" filter="url(#fscocyfnl8x9k)" height="30.2969" style="stroke: #A80036; stroke-width: 1.5;" width="73" x="677" y="721.0859"/><text fill="#000000" font-family="sans-serif" font-size="14" lengthAdjust="spacingAndGlyphs" textLength="59" x="684" y="741.0811">:Routing</text><rect fill="#FEFECE" filter="url(#fscocyfnl8x9k)" height="30.2969" style="stroke: #A80036; stroke-width: 1.5;" width="128" x="896.5" y="51"/><text fill="#000000" font-family="sans-serif" font-size="14" lengthAdjust="spacingAndGlyphs" textLength="114" x="903.5" y="70.9951">:RobotController</text><rect fill="#FEFECE" filter="url(#fscocyfnl8x9k)" height="30.2969" style="stroke: #A80036; stroke-width: 1.5;" width="128" x="896.5" y="721.0859"/><text fill="#000000" font-family="sans-serif" font-size="14" lengthAdjust="spacingAndGlyphs" textLength="114" x="903.5" y="741.0811">:RobotController</text><rect fill="#FEFECE" filter="url(#fscocyfnl8x9k)" height="30.2969" style="stroke: #A80036; stroke-width: 1.5;" width="111" x="1120" y="51"/><text fill="#000000" font-family="sans-serif" font-size="14" lengthAdjust="spacingAndGlyphs" textLength="97" x="1127" y="70.9951">:RobotService</text><rect fill="#FEFECE" filter="url(#fscocyfnl8x9k)" height="30.2969" style="stroke: #A80036; stroke-width: 1.5;" width="111" x="1120" y="721.0859"/><text fill="#000000" font-family="sans-serif" font-size="14" lengthAdjust="spacingAndGlyphs" textLength="97" x="1127" y="741.0811">:RobotService</text><rect fill="#FEFECE" filter="url(#fscocyfnl8x9k)" height="30.2969" style="stroke: #A80036; stroke-width: 1.5;" width="98" x="1277.5" y="51"/><text fill="#000000" font-family="sans-serif" font-size="14" lengthAdjust="spacingAndGlyphs" textLength="84" x="1284.5" y="70.9951">:RobotRepo</text><rect fill="#FEFECE" filter="url(#fscocyfnl8x9k)" height="30.2969" style="stroke: #A80036; stroke-width: 1.5;" width="98" x="1277.5" y="721.0859"/><text fill="#000000" font-family="sans-serif" font-size="14" lengthAdjust="spacingAndGlyphs" textLength="84" x="1284.5" y="741.0811">:RobotRepo</text><rect fill="#FEFECE" filter="url(#fscocyfnl8x9k)" height="30.2969" style="stroke: #A80036; stroke-width: 1.5;" width="90" x="1468.5" y="51"/><text fill="#000000" font-family="sans-serif" font-size="14" lengthAdjust="spacingAndGlyphs" textLength="76" x="1475.5" y="70.9951">:RobotMap</text><rect fill="#FEFECE" filter="url(#fscocyfnl8x9k)" height="30.2969" style="stroke: #A80036; stroke-width: 1.5;" width="90" x="1468.5" y="721.0859"/><text fill="#000000" font-family="sans-serif" font-size="14" lengthAdjust="spacingAndGlyphs" textLength="76" x="1475.5" y="741.0811">:RobotMap</text><rect fill="#FEFECE" filter="url(#fscocyfnl8x9k)" height="30.2969" style="stroke: #A80036; stroke-width: 1.5;" width="117" x="1572.5" y="51"/><text fill="#000000" font-family="sans-serif" font-size="14" lengthAdjust="spacingAndGlyphs" textLength="103" x="1579.5" y="70.9951">:RobotSchema</text><rect fill="#FEFECE" filter="url(#fscocyfnl8x9k)" height="30.2969" style="stroke: #A80036; stroke-width: 1.5;" width="117" x="1572.5" y="721.0859"/><text fill="#000000" font-family="sans-serif" font-size="14" lengthAdjust="spacingAndGlyphs" textLength="103" x="1579.5" y="741.0811">:RobotSchema</text><rect fill="#FFFFFF" filter="url(#fscocyfnl8x9k)" height="616.7891" style="stroke: #A80036; stroke-width: 1.0;" width="10" x="42.5" y="96.2969"/><rect fill="#FFFFFF" filter="url(#fscocyfnl8x9k)" height="594.6563" style="stroke: #A80036; stroke-width: 1.0;" width="10" x="250.5" y="117.4297"/><rect fill="#FFFFFF" filter="url(#fscocyfnl8x9k)" height="537.3906" style="stroke: #A80036; stroke-width: 1.0;" width="10" x="710.5" y="175.6953"/><rect fill="#FFFFFF" filter="url(#fscocyfnl8x9k)" height="508.2578" style="stroke: #A80036; stroke-width: 1.0;" width="10" x="957.5" y="204.8281"/><rect fill="#FFFFFF" filter="url(#fscocyfnl8x9k)" height="479.125" style="stroke: #A80036; stroke-width: 1.0;" width="10" x="1172.5" y="233.9609"/><rect fill="#FFFFFF" filter="url(#fscocyfnl8x9k)" height="203.9297" style="stroke: #A80036; stroke-width: 1.0;" width="10" x="1323.5" y="263.0938"/><rect fill="#FFFFFF" filter="url(#fscocyfnl8x9k)" height="87.3984" style="stroke: #A80036; stroke-width: 1.0;" width="10" x="1510.5" y="379.625"/><rect fill="#FFFFFF" filter="url(#fscocyfnl8x9k)" height="174.7969" style="stroke: #A80036; stroke-width: 1.0;" width="10" x="1628" y="292.2266"/><polygon fill="#A80036" points="238.5,113.4297,248.5,117.4297,238.5,121.4297,242.5,117.4297" style="stroke: #A80036; stroke-width: 1.0;"/><line style="stroke: #A80036; stroke-width: 1.0;" x1="52.5" x2="244.5" y1="117.4297" y2="117.4297"/><text fill="#000000" font-family="sans-serif" font-size="13" font-weight="bold" lengthAdjust="spacingAndGlyphs" textLength="9" x="59.5" y="112.3638">1</text><text fill="#000000" font-family="sans-serif" font-size="13" lengthAdjust="spacingAndGlyphs" textLength="94" x="72.5" y="112.3638">create a Route</text><polygon fill="#A80036" points="63.5,142.5625,53.5,146.5625,63.5,150.5625,59.5,146.5625" style="stroke: #A80036; stroke-width: 1.0;"/><line style="stroke: #A80036; stroke-width: 1.0; stroke-dasharray: 2.0,2.0;" x1="57.5" x2="249.5" y1="146.5625" y2="146.5625"/><text fill="#000000" font-family="sans-serif" font-size="13" font-weight="bold" lengthAdjust="spacingAndGlyphs" textLength="9" x="69.5" y="141.4966">2</text><text fill="#000000" font-family="sans-serif" font-size="13" lengthAdjust="spacingAndGlyphs" textLength="161" x="82.5" y="141.4966">request necessary data()</text><polygon fill="#A80036" points="238.5,171.6953,248.5,175.6953,238.5,179.6953,242.5,175.6953" style="stroke: #A80036; stroke-width: 1.0;"/><line style="stroke: #A80036; stroke-width: 1.0;" x1="52.5" x2="244.5" y1="175.6953" y2="175.6953"/><text fill="#000000" font-family="sans-serif" font-size="13" font-weight="bold" lengthAdjust="spacingAndGlyphs" textLength="9" x="59.5" y="170.6294">3</text><text fill="#000000" font-family="sans-serif" font-size="13" lengthAdjust="spacingAndGlyphs" textLength="112" x="72.5" y="170.6294">insert all the data</text><polygon fill="#A80036" points="698.5,200.8281,708.5,204.8281,698.5,208.8281,702.5,204.8281" style="stroke: #A80036; stroke-width: 1.0;"/><line style="stroke: #A80036; stroke-width: 1.0;" x1="260.5" x2="704.5" y1="204.8281" y2="204.8281"/><text fill="#000000" font-family="sans-serif" font-size="13" font-weight="bold" lengthAdjust="spacingAndGlyphs" textLength="9" x="267.5" y="199.7622">4</text><text fill="#000000" font-family="sans-serif" font-size="13" lengthAdjust="spacingAndGlyphs" textLength="413" x="280.5" y="199.7622">POST route{id, nickname, robotType, serialNumber, description}</text><polygon fill="#A80036" points="945.5,229.9609,955.5,233.9609,945.5,237.9609,949.5,233.9609" style="stroke: #A80036; stroke-width: 1.0;"/><line style="stroke: #A80036; stroke-width: 1.0;" x1="720.5" x2="951.5" y1="233.9609" y2="233.9609"/><text fill="#000000" font-family="sans-serif" font-size="13" font-weight="bold" lengthAdjust="spacingAndGlyphs" textLength="9" x="727.5" y="228.895">5</text><text fill="#000000" font-family="sans-serif" font-size="13" lengthAdjust="spacingAndGlyphs" textLength="200" x="740.5" y="228.895">addRobot(request, result, next)</text><polygon fill="#A80036" points="1160.5,259.0938,1170.5,263.0938,1160.5,267.0938,1164.5,263.0938" style="stroke: #A80036; stroke-width: 1.0;"/><line style="stroke: #A80036; stroke-width: 1.0;" x1="967.5" x2="1166.5" y1="263.0938" y2="263.0938"/><text fill="#000000" font-family="sans-serif" font-size="13" font-weight="bold" lengthAdjust="spacingAndGlyphs" textLength="9" x="974.5" y="258.0278">6</text><text fill="#000000" font-family="sans-serif" font-size="13" lengthAdjust="spacingAndGlyphs" textLength="168" x="987.5" y="258.0278">addRobot(IRobotTypeDTO)</text><polygon fill="#A80036" points="1311.5,288.2266,1321.5,292.2266,1311.5,296.2266,1315.5,292.2266" style="stroke: #A80036; stroke-width: 1.0;"/><line style="stroke: #A80036; stroke-width: 1.0;" x1="1182.5" x2="1317.5" y1="292.2266" y2="292.2266"/><text fill="#000000" font-family="sans-serif" font-size="13" font-weight="bold" lengthAdjust="spacingAndGlyphs" textLength="9" x="1189.5" y="287.1606">7</text><text fill="#000000" font-family="sans-serif" font-size="13" lengthAdjust="spacingAndGlyphs" textLength="104" x="1202.5" y="287.1606">save(robotType)</text><polygon fill="#A80036" points="1616,317.3594,1626,321.3594,1616,325.3594,1620,321.3594" style="stroke: #A80036; stroke-width: 1.0;"/><line style="stroke: #A80036; stroke-width: 1.0;" x1="1333.5" x2="1622" y1="321.3594" y2="321.3594"/><text fill="#000000" font-family="sans-serif" font-size="13" font-weight="bold" lengthAdjust="spacingAndGlyphs" textLength="9" x="1340.5" y="316.2935">8</text><text fill="#000000" font-family="sans-serif" font-size="13" lengthAdjust="spacingAndGlyphs" textLength="70" x="1353.5" y="316.2935">findOne(id)</text><polygon fill="#A80036" points="1616,346.4922,1626,350.4922,1616,354.4922,1620,350.4922" style="stroke: #A80036; stroke-width: 1.0;"/><line style="stroke: #A80036; stroke-width: 1.0;" x1="1333.5" x2="1622" y1="350.4922" y2="350.4922"/><text fill="#000000" font-family="sans-serif" font-size="13" font-weight="bold" lengthAdjust="spacingAndGlyphs" textLength="9" x="1340.5" y="345.4263">9</text><text fill="#000000" font-family="sans-serif" font-size="13" lengthAdjust="spacingAndGlyphs" textLength="121" x="1353.5" y="345.4263">findOne(nickname)</text><polygon fill="#A80036" points="1616,375.625,1626,379.625,1616,383.625,1620,379.625" style="stroke: #A80036; stroke-width: 1.0;"/><line style="stroke: #A80036; stroke-width: 1.0;" x1="1333.5" x2="1622" y1="379.625" y2="379.625"/><text fill="#000000" font-family="sans-serif" font-size="13" font-weight="bold" lengthAdjust="spacingAndGlyphs" textLength="18" x="1340.5" y="374.5591">10</text><text fill="#000000" font-family="sans-serif" font-size="13" lengthAdjust="spacingAndGlyphs" textLength="145" x="1362.5" y="374.5591">findOne(serialNumber)</text><polygon fill="#A80036" points="1498.5,404.7578,1508.5,408.7578,1498.5,412.7578,1502.5,408.7578" style="stroke: #A80036; stroke-width: 1.0;"/><line style="stroke: #A80036; stroke-width: 1.0;" x1="1333.5" x2="1504.5" y1="408.7578" y2="408.7578"/><text fill="#000000" font-family="sans-serif" font-size="13" font-weight="bold" lengthAdjust="spacingAndGlyphs" textLength="18" x="1340.5" y="403.6919">11</text><text fill="#000000" font-family="sans-serif" font-size="13" lengthAdjust="spacingAndGlyphs" textLength="131" x="1362.5" y="403.6919">toPersistance(robot)</text><polygon fill="#A80036" points="1616,433.8906,1626,437.8906,1616,441.8906,1620,437.8906" style="stroke: #A80036; stroke-width: 1.0;"/><line style="stroke: #A80036; stroke-width: 1.0;" x1="1333.5" x2="1622" y1="437.8906" y2="437.8906"/><text fill="#000000" font-family="sans-serif" font-size="13" font-weight="bold" lengthAdjust="spacingAndGlyphs" textLength="18" x="1340.5" y="432.8247">12</text><text fill="#000000" font-family="sans-serif" font-size="13" lengthAdjust="spacingAndGlyphs" textLength="85" x="1362.5" y="432.8247">create(robot)</text><polygon fill="#A80036" points="1193.5,463.0234,1183.5,467.0234,1193.5,471.0234,1189.5,467.0234" style="stroke: #A80036; stroke-width: 1.0;"/><line style="stroke: #A80036; stroke-width: 1.0; stroke-dasharray: 2.0,2.0;" x1="1187.5" x2="1327.5" y1="467.0234" y2="467.0234"/><text fill="#000000" font-family="sans-serif" font-size="13" font-weight="bold" lengthAdjust="spacingAndGlyphs" textLength="18" x="1199.5" y="461.9575">13</text><text fill="#000000" font-family="sans-serif" font-size="13" lengthAdjust="spacingAndGlyphs" textLength="34" x="1221.5" y="461.9575">robot</text><polygon fill="#A80036" points="978.5,492.1563,968.5,496.1563,978.5,500.1563,974.5,496.1563" style="stroke: #A80036; stroke-width: 1.0;"/><line style="stroke: #A80036; stroke-width: 1.0; stroke-dasharray: 2.0,2.0;" x1="972.5" x2="1171.5" y1="496.1563" y2="496.1563"/><text fill="#000000" font-family="sans-serif" font-size="13" font-weight="bold" lengthAdjust="spacingAndGlyphs" textLength="18" x="984.5" y="491.0903">14</text><text fill="#000000" font-family="sans-serif" font-size="13" lengthAdjust="spacingAndGlyphs" textLength="36" x="1006.5" y="491.0903">result</text><path d="M13,511.1563 L77,511.1563 L77,518.1563 L67,528.1563 L13,528.1563 L13,511.1563 " fill="#EEEEEE" style="stroke: #000000; stroke-width: 1.0;"/><rect fill="none" height="193.9297" style="stroke: #000000; stroke-width: 2.0;" width="1025.5" x="13" y="511.1563"/><text fill="#000000" font-family="sans-serif" font-size="13" font-weight="bold" lengthAdjust="spacingAndGlyphs" textLength="19" x="28" y="524.2231">alt</text><text fill="#000000" font-family="sans-serif" font-size="11" font-weight="bold" lengthAdjust="spacingAndGlyphs" textLength="112" x="92" y="523.3667">[successful case]</text><polygon fill="#A80036" points="731.5,545.4219,721.5,549.4219,731.5,553.4219,727.5,549.4219" style="stroke: #A80036; stroke-width: 1.0;"/><line style="stroke: #A80036; stroke-width: 1.0; stroke-dasharray: 2.0,2.0;" x1="725.5" x2="956.5" y1="549.4219" y2="549.4219"/><text fill="#000000" font-family="sans-serif" font-size="13" font-weight="bold" lengthAdjust="spacingAndGlyphs" textLength="18" x="737.5" y="544.356">15</text><text fill="#000000" font-family="sans-serif" font-size="13" lengthAdjust="spacingAndGlyphs" textLength="64" x="759.5" y="544.356">HTTP: 201</text><polygon fill="#A80036" points="271.5,574.5547,261.5,578.5547,271.5,582.5547,267.5,578.5547" style="stroke: #A80036; stroke-width: 1.0;"/><line style="stroke: #A80036; stroke-width: 1.0; stroke-dasharray: 2.0,2.0;" x1="265.5" x2="709.5" y1="578.5547" y2="578.5547"/><text fill="#000000" font-family="sans-serif" font-size="13" font-weight="bold" lengthAdjust="spacingAndGlyphs" textLength="18" x="277.5" y="573.4888">16</text><text fill="#000000" font-family="sans-serif" font-size="13" lengthAdjust="spacingAndGlyphs" textLength="64" x="299.5" y="573.4888">HTTP: 201</text><polygon fill="#A80036" points="63.5,603.6875,53.5,607.6875,63.5,611.6875,59.5,607.6875" style="stroke: #A80036; stroke-width: 1.0;"/><line style="stroke: #A80036; stroke-width: 1.0; stroke-dasharray: 2.0,2.0;" x1="57.5" x2="249.5" y1="607.6875" y2="607.6875"/><text fill="#000000" font-family="sans-serif" font-size="13" font-weight="bold" lengthAdjust="spacingAndGlyphs" textLength="18" x="69.5" y="602.6216">17</text><text fill="#000000" font-family="sans-serif" font-size="13" lengthAdjust="spacingAndGlyphs" textLength="150" x="91.5" y="602.6216">show success message</text><line style="stroke: #000000; stroke-width: 1.0; stroke-dasharray: 2.0,2.0;" x1="13" x2="1038.5" y1="616.6875" y2="616.6875"/><polygon fill="#A80036" points="731.5,634.8203,721.5,638.8203,731.5,642.8203,727.5,638.8203" style="stroke: #A80036; stroke-width: 1.0;"/><line style="stroke: #A80036; stroke-width: 1.0; stroke-dasharray: 2.0,2.0;" x1="725.5" x2="956.5" y1="638.8203" y2="638.8203"/><text fill="#000000" font-family="sans-serif" font-size="13" font-weight="bold" lengthAdjust="spacingAndGlyphs" textLength="18" x="737.5" y="633.7544">18</text><text fill="#000000" font-family="sans-serif" font-size="13" lengthAdjust="spacingAndGlyphs" textLength="64" x="759.5" y="633.7544">HTTP: 400</text><polygon fill="#A80036" points="271.5,663.9531,261.5,667.9531,271.5,671.9531,267.5,667.9531" style="stroke: #A80036; stroke-width: 1.0;"/><line style="stroke: #A80036; stroke-width: 1.0; stroke-dasharray: 2.0,2.0;" x1="265.5" x2="709.5" y1="667.9531" y2="667.9531"/><text fill="#000000" font-family="sans-serif" font-size="13" font-weight="bold" lengthAdjust="spacingAndGlyphs" textLength="18" x="277.5" y="662.8872">19</text><text fill="#000000" font-family="sans-serif" font-size="13" lengthAdjust="spacingAndGlyphs" textLength="64" x="299.5" y="662.8872">HTTP: 400</text><polygon fill="#A80036" points="63.5,693.0859,53.5,697.0859,63.5,701.0859,59.5,697.0859" style="stroke: #A80036; stroke-width: 1.0;"/><line style="stroke: #A80036; stroke-width: 1.0; stroke-dasharray: 2.0,2.0;" x1="57.5" x2="249.5" y1="697.0859" y2="697.0859"/><text fill="#000000" font-family="sans-serif" font-size="13" font-weight="bold" lengthAdjust="spacingAndGlyphs" textLength="18" x="69.5" y="692.02">20</text><text fill="#000000" font-family="sans-serif" font-size="13" lengthAdjust="spacingAndGlyphs" textLength="138" x="91.5" y="692.02">show failure message</text><!--MD5=[842ab97907c258451bdc52cca94019c1]
@startuml
autonumber
actor "Admin" as admin

participant ":FrontEnd" as sys
participant ":Routing" as route
participant ":RobotController" as ctrl
participant ":RobotService" as srvc
participant ":RobotRepo" as repo
participant ":RobotMap" as rMap
participant ":RobotSchema" as rSchema

activate admin

admin -> sys: create a Route
activate sys

sys - -> admin: request necessary data()
admin -> sys : insert all the data
activate route
sys -> route: POST route{id, nickname, robotType, serialNumber, description}
activate ctrl
route -> ctrl: addRobot(request, result, next)
activate srvc
ctrl -> srvc: addRobot(IRobotTypeDTO)
activate repo
srvc -> repo: save(robotType)
activate rSchema
repo -> rSchema: findOne(id)
repo -> rSchema: findOne(nickname) 
repo -> rSchema: findOne(serialNumber) 
activate rMap
repo -> rMap: toPersistance(robot)
repo -> rSchema: create(robot)
repo - -> srvc: robot
deactivate rSchema
deactivate rMap
deactivate repo
srvc - -> ctrl: result

alt successful case
    ctrl - -> route : HTTP: 201
    route - -> sys: HTTP: 201
    sys - -> admin: show success message
else
    ctrl - -> route : HTTP: 400
    route - -> sys: HTTP: 400
    sys - -> admin: show failure message
end
deactivate sys
@enduml

PlantUML version 1.2020.02(Sun Mar 01 10:22:07 UTC 2020)
(GPL source distribution)
Java Runtime: OpenJDK Runtime Environment
JVM: OpenJDK 64-Bit Server VM
Java Version: 11.0.21+9
Operating System: Linux
Default Encoding: UTF-8
Language: en
Country: null
--></g></svg>