<?xml version="1.0" encoding="UTF-8" standalone="no"?><svg xmlns="http://www.w3.org/2000/svg" xmlns:xlink="http://www.w3.org/1999/xlink" contentScriptType="application/ecmascript" contentStyleType="text/css" height="1246px" preserveAspectRatio="none" style="width:2113px;height:1246px;" version="1.1" viewBox="0 0 2113 1246" width="2113px" zoomAndPan="magnify"><defs><filter height="300%" id="fftppqznyf9a7" width="300%" x="-1" y="-1"><feGaussianBlur result="blurOut" stdDeviation="2.0"/><feColorMatrix in="blurOut" result="blurOut2" type="matrix" values="0 0 0 0 0 0 0 0 0 0 0 0 0 0 0 0 0 0 .4 0"/><feOffset dx="4.0" dy="4.0" in="blurOut2" result="blurOut3"/><feBlend in="SourceGraphic" in2="blurOut3" mode="normal"/></filter></defs><g><rect fill="#FFFFFF" filter="url(#fftppqznyf9a7)" height="1052.7813" style="stroke: #A80036; stroke-width: 1.0;" width="10" x="42.5" y="96.2969"/><rect fill="#FFFFFF" filter="url(#fftppqznyf9a7)" height="1031.6484" style="stroke: #A80036; stroke-width: 1.0;" width="10" x="252.5" y="117.4297"/><rect fill="#FFFFFF" filter="url(#fftppqznyf9a7)" height="973.3828" style="stroke: #A80036; stroke-width: 1.0;" width="10" x="397.5" y="175.6953"/><rect fill="#FFFFFF" filter="url(#fftppqznyf9a7)" height="145.6641" style="stroke: #A80036; stroke-width: 1.0;" width="10" x="558.5" y="204.8281"/><rect fill="#FFFFFF" filter="url(#fftppqznyf9a7)" height="769.4531" style="stroke: #A80036; stroke-width: 1.0;" width="10" x="558.5" y="379.625"/><rect fill="#FFFFFF" filter="url(#fftppqznyf9a7)" height="116.5313" style="stroke: #A80036; stroke-width: 1.0;" width="10" x="728.5" y="233.9609"/><rect fill="#FFFFFF" filter="url(#fftppqznyf9a7)" height="740.3203" style="stroke: #A80036; stroke-width: 1.0;" width="10" x="728.5" y="408.7578"/><rect fill="#FFFFFF" filter="url(#fftppqznyf9a7)" height="87.3984" style="stroke: #A80036; stroke-width: 1.0;" width="10" x="892.5" y="263.0938"/><rect fill="#FFFFFF" filter="url(#fftppqznyf9a7)" height="711.1875" style="stroke: #A80036; stroke-width: 1.0;" width="10" x="892.5" y="437.8906"/><rect fill="#FFFFFF" filter="url(#fftppqznyf9a7)" height="58.2656" style="stroke: #A80036; stroke-width: 1.0;" width="10" x="1243.5" y="292.2266"/><rect fill="#FFFFFF" filter="url(#fftppqznyf9a7)" height="683.0547" style="stroke: #A80036; stroke-width: 1.0;" width="10" x="1243.5" y="467.0234"/><rect fill="#FFFFFF" filter="url(#fftppqznyf9a7)" height="594.6563" style="stroke: #A80036; stroke-width: 1.0;" width="10" x="1594.5" y="554.4219"/><rect fill="#FFFFFF" filter="url(#fftppqznyf9a7)" height="29.1328" style="stroke: #A80036; stroke-width: 1.0;" width="10" x="1723.5" y="321.3594"/><rect fill="#FFFFFF" filter="url(#fftppqznyf9a7)" height="29.1328" style="stroke: #A80036; stroke-width: 1.0;" width="10" x="1723.5" y="496.1563"/><rect fill="#FFFFFF" filter="url(#fftppqznyf9a7)" height="53.2656" style="stroke: #A80036; stroke-width: 1.0;" width="10" x="1848.5" y="641.8203"/><rect fill="#FFFFFF" filter="url(#fftppqznyf9a7)" height="140.6641" style="stroke: #A80036; stroke-width: 1.0;" width="10" x="1966" y="583.5547"/><rect fill="#FFFFFF" filter="url(#fftppqznyf9a7)" height="29.1328" style="stroke: #A80036; stroke-width: 1.0;" width="10" x="2069" y="525.2891"/><rect fill="#FFFFFF" filter="url(#fftppqznyf9a7)" height="485.2578" style="stroke: #000000; stroke-width: 2.0;" width="2028.5" x="13" y="656.8203"/><rect fill="#FFFFFF" height="205.9297" style="stroke: none; stroke-width: 1.0;" width="2028.5" x="13" y="936.1484"/><line style="stroke: #A80036; stroke-width: 1.0; stroke-dasharray: 5.0,5.0;" x1="47" x2="47" y1="86.2969" y2="1159.0781"/><line style="stroke: #A80036; stroke-width: 1.0; stroke-dasharray: 5.0,5.0;" x1="257" x2="257" y1="86.2969" y2="1159.0781"/><line style="stroke: #A80036; stroke-width: 1.0; stroke-dasharray: 5.0,5.0;" x1="402" x2="402" y1="86.2969" y2="1159.0781"/><line style="stroke: #A80036; stroke-width: 1.0; stroke-dasharray: 5.0,5.0;" x1="563" x2="563" y1="86.2969" y2="1159.0781"/><line style="stroke: #A80036; stroke-width: 1.0; stroke-dasharray: 5.0,5.0;" x1="733" x2="733" y1="86.2969" y2="1159.0781"/><line style="stroke: #A80036; stroke-width: 1.0; stroke-dasharray: 5.0,5.0;" x1="897.5" x2="897.5" y1="86.2969" y2="1159.0781"/><line style="stroke: #A80036; stroke-width: 1.0; stroke-dasharray: 5.0,5.0;" x1="1248" x2="1248" y1="86.2969" y2="1159.0781"/><line style="stroke: #A80036; stroke-width: 1.0; stroke-dasharray: 5.0,5.0;" x1="1599.5" x2="1599.5" y1="86.2969" y2="1159.0781"/><line style="stroke: #A80036; stroke-width: 1.0; stroke-dasharray: 5.0,5.0;" x1="1728.5" x2="1728.5" y1="86.2969" y2="1159.0781"/><line style="stroke: #A80036; stroke-width: 1.0; stroke-dasharray: 5.0,5.0;" x1="1853.5" x2="1853.5" y1="86.2969" y2="1159.0781"/><line style="stroke: #A80036; stroke-width: 1.0; stroke-dasharray: 5.0,5.0;" x1="1970.5" x2="1970.5" y1="86.2969" y2="1159.0781"/><line style="stroke: #A80036; stroke-width: 1.0; stroke-dasharray: 5.0,5.0;" x1="2073.5" x2="2073.5" y1="86.2969" y2="1159.0781"/><text fill="#000000" font-family="sans-serif" font-size="14" lengthAdjust="spacingAndGlyphs" textLength="43" x="23" y="82.9951">Admin</text><ellipse cx="47.5" cy="13" fill="#FEFECE" filter="url(#fftppqznyf9a7)" rx="8" ry="8" style="stroke: #A80036; stroke-width: 2.0;"/><path d="M47.5,21 L47.5,48 M34.5,29 L60.5,29 M47.5,48 L34.5,63 M47.5,48 L60.5,63 " fill="none" filter="url(#fftppqznyf9a7)" style="stroke: #A80036; stroke-width: 2.0;"/><text fill="#000000" font-family="sans-serif" font-size="14" lengthAdjust="spacingAndGlyphs" textLength="43" x="23" y="1171.0732">Admin</text><ellipse cx="47.5" cy="1184.375" fill="#FEFECE" filter="url(#fftppqznyf9a7)" rx="8" ry="8" style="stroke: #A80036; stroke-width: 2.0;"/><path d="M47.5,1192.375 L47.5,1219.375 M34.5,1200.375 L60.5,1200.375 M47.5,1219.375 L34.5,1234.375 M47.5,1219.375 L60.5,1234.375 " fill="none" filter="url(#fftppqznyf9a7)" style="stroke: #A80036; stroke-width: 2.0;"/><rect fill="#FEFECE" filter="url(#fftppqznyf9a7)" height="30.2969" style="stroke: #A80036; stroke-width: 1.5;" width="51" x="230" y="51"/><text fill="#000000" font-family="sans-serif" font-size="14" lengthAdjust="spacingAndGlyphs" textLength="37" x="237" y="70.9951">:View</text><rect fill="#FEFECE" filter="url(#fftppqznyf9a7)" height="30.2969" style="stroke: #A80036; stroke-width: 1.5;" width="51" x="230" y="1158.0781"/><text fill="#000000" font-family="sans-serif" font-size="14" lengthAdjust="spacingAndGlyphs" textLength="37" x="237" y="1178.0732">:View</text><rect fill="#FEFECE" filter="url(#fftppqznyf9a7)" height="30.2969" style="stroke: #A80036; stroke-width: 1.5;" width="125" x="338" y="51"/><text fill="#000000" font-family="sans-serif" font-size="14" lengthAdjust="spacingAndGlyphs" textLength="111" x="345" y="70.9951">:FE_Component</text><rect fill="#FEFECE" filter="url(#fftppqznyf9a7)" height="30.2969" style="stroke: #A80036; stroke-width: 1.5;" width="125" x="338" y="1158.0781"/><text fill="#000000" font-family="sans-serif" font-size="14" lengthAdjust="spacingAndGlyphs" textLength="111" x="345" y="1178.0732">:FE_Component</text><rect fill="#FEFECE" filter="url(#fftppqznyf9a7)" height="30.2969" style="stroke: #A80036; stroke-width: 1.5;" width="93" x="515" y="51"/><text fill="#000000" font-family="sans-serif" font-size="14" lengthAdjust="spacingAndGlyphs" textLength="79" x="522" y="70.9951">:FE_Service</text><rect fill="#FEFECE" filter="url(#fftppqznyf9a7)" height="30.2969" style="stroke: #A80036; stroke-width: 1.5;" width="93" x="515" y="1158.0781"/><text fill="#000000" font-family="sans-serif" font-size="14" lengthAdjust="spacingAndGlyphs" textLength="79" x="522" y="1178.0732">:FE_Service</text><rect fill="#FEFECE" filter="url(#fftppqznyf9a7)" height="30.2969" style="stroke: #A80036; stroke-width: 1.5;" width="73" x="695" y="51"/><text fill="#000000" font-family="sans-serif" font-size="14" lengthAdjust="spacingAndGlyphs" textLength="59" x="702" y="70.9951">:Routing</text><rect fill="#FEFECE" filter="url(#fftppqznyf9a7)" height="30.2969" style="stroke: #A80036; stroke-width: 1.5;" width="73" x="695" y="1158.0781"/><text fill="#000000" font-family="sans-serif" font-size="14" lengthAdjust="spacingAndGlyphs" textLength="59" x="702" y="1178.0732">:Routing</text><rect fill="#FEFECE" filter="url(#fftppqznyf9a7)" height="30.2969" style="stroke: #A80036; stroke-width: 1.5;" width="128" x="831.5" y="51"/><text fill="#000000" font-family="sans-serif" font-size="14" lengthAdjust="spacingAndGlyphs" textLength="114" x="838.5" y="70.9951">:RobotController</text><rect fill="#FEFECE" filter="url(#fftppqznyf9a7)" height="30.2969" style="stroke: #A80036; stroke-width: 1.5;" width="128" x="831.5" y="1158.0781"/><text fill="#000000" font-family="sans-serif" font-size="14" lengthAdjust="spacingAndGlyphs" textLength="114" x="838.5" y="1178.0732">:RobotController</text><rect fill="#FEFECE" filter="url(#fftppqznyf9a7)" height="30.2969" style="stroke: #A80036; stroke-width: 1.5;" width="111" x="1191" y="51"/><text fill="#000000" font-family="sans-serif" font-size="14" lengthAdjust="spacingAndGlyphs" textLength="97" x="1198" y="70.9951">:RobotService</text><rect fill="#FEFECE" filter="url(#fftppqznyf9a7)" height="30.2969" style="stroke: #A80036; stroke-width: 1.5;" width="111" x="1191" y="1158.0781"/><text fill="#000000" font-family="sans-serif" font-size="14" lengthAdjust="spacingAndGlyphs" textLength="97" x="1198" y="1178.0732">:RobotService</text><rect fill="#FEFECE" filter="url(#fftppqznyf9a7)" height="30.2969" style="stroke: #A80036; stroke-width: 1.5;" width="98" x="1548.5" y="51"/><text fill="#000000" font-family="sans-serif" font-size="14" lengthAdjust="spacingAndGlyphs" textLength="84" x="1555.5" y="70.9951">:RobotRepo</text><rect fill="#FEFECE" filter="url(#fftppqznyf9a7)" height="30.2969" style="stroke: #A80036; stroke-width: 1.5;" width="98" x="1548.5" y="1158.0781"/><text fill="#000000" font-family="sans-serif" font-size="14" lengthAdjust="spacingAndGlyphs" textLength="84" x="1555.5" y="1178.0732">:RobotRepo</text><rect fill="#FEFECE" filter="url(#fftppqznyf9a7)" height="30.2969" style="stroke: #A80036; stroke-width: 1.5;" width="132" x="1660.5" y="51"/><text fill="#000000" font-family="sans-serif" font-size="14" lengthAdjust="spacingAndGlyphs" textLength="118" x="1667.5" y="70.9951">:RobotTypeRepo</text><rect fill="#FEFECE" filter="url(#fftppqznyf9a7)" height="30.2969" style="stroke: #A80036; stroke-width: 1.5;" width="132" x="1660.5" y="1158.0781"/><text fill="#000000" font-family="sans-serif" font-size="14" lengthAdjust="spacingAndGlyphs" textLength="118" x="1667.5" y="1178.0732">:RobotTypeRepo</text><rect fill="#FEFECE" filter="url(#fftppqznyf9a7)" height="30.2969" style="stroke: #A80036; stroke-width: 1.5;" width="90" x="1806.5" y="51"/><text fill="#000000" font-family="sans-serif" font-size="14" lengthAdjust="spacingAndGlyphs" textLength="76" x="1813.5" y="70.9951">:RobotMap</text><rect fill="#FEFECE" filter="url(#fftppqznyf9a7)" height="30.2969" style="stroke: #A80036; stroke-width: 1.5;" width="90" x="1806.5" y="1158.0781"/><text fill="#000000" font-family="sans-serif" font-size="14" lengthAdjust="spacingAndGlyphs" textLength="76" x="1813.5" y="1178.0732">:RobotMap</text><rect fill="#FEFECE" filter="url(#fftppqznyf9a7)" height="30.2969" style="stroke: #A80036; stroke-width: 1.5;" width="117" x="1910.5" y="51"/><text fill="#000000" font-family="sans-serif" font-size="14" lengthAdjust="spacingAndGlyphs" textLength="103" x="1917.5" y="70.9951">:RobotSchema</text><rect fill="#FEFECE" filter="url(#fftppqznyf9a7)" height="30.2969" style="stroke: #A80036; stroke-width: 1.5;" width="117" x="1910.5" y="1158.0781"/><text fill="#000000" font-family="sans-serif" font-size="14" lengthAdjust="spacingAndGlyphs" textLength="103" x="1917.5" y="1178.0732">:RobotSchema</text><rect fill="#FEFECE" filter="url(#fftppqznyf9a7)" height="30.2969" style="stroke: #A80036; stroke-width: 1.5;" width="61" x="2041.5" y="51"/><text fill="#000000" font-family="sans-serif" font-size="14" lengthAdjust="spacingAndGlyphs" textLength="47" x="2048.5" y="70.9951">:Robot</text><rect fill="#FEFECE" filter="url(#fftppqznyf9a7)" height="30.2969" style="stroke: #A80036; stroke-width: 1.5;" width="61" x="2041.5" y="1158.0781"/><text fill="#000000" font-family="sans-serif" font-size="14" lengthAdjust="spacingAndGlyphs" textLength="47" x="2048.5" y="1178.0732">:Robot</text><rect fill="#FFFFFF" filter="url(#fftppqznyf9a7)" height="1052.7813" style="stroke: #A80036; stroke-width: 1.0;" width="10" x="42.5" y="96.2969"/><rect fill="#FFFFFF" filter="url(#fftppqznyf9a7)" height="1031.6484" style="stroke: #A80036; stroke-width: 1.0;" width="10" x="252.5" y="117.4297"/><rect fill="#FFFFFF" filter="url(#fftppqznyf9a7)" height="973.3828" style="stroke: #A80036; stroke-width: 1.0;" width="10" x="397.5" y="175.6953"/><rect fill="#FFFFFF" filter="url(#fftppqznyf9a7)" height="145.6641" style="stroke: #A80036; stroke-width: 1.0;" width="10" x="558.5" y="204.8281"/><rect fill="#FFFFFF" filter="url(#fftppqznyf9a7)" height="769.4531" style="stroke: #A80036; stroke-width: 1.0;" width="10" x="558.5" y="379.625"/><rect fill="#FFFFFF" filter="url(#fftppqznyf9a7)" height="116.5313" style="stroke: #A80036; stroke-width: 1.0;" width="10" x="728.5" y="233.9609"/><rect fill="#FFFFFF" filter="url(#fftppqznyf9a7)" height="740.3203" style="stroke: #A80036; stroke-width: 1.0;" width="10" x="728.5" y="408.7578"/><rect fill="#FFFFFF" filter="url(#fftppqznyf9a7)" height="87.3984" style="stroke: #A80036; stroke-width: 1.0;" width="10" x="892.5" y="263.0938"/><rect fill="#FFFFFF" filter="url(#fftppqznyf9a7)" height="711.1875" style="stroke: #A80036; stroke-width: 1.0;" width="10" x="892.5" y="437.8906"/><rect fill="#FFFFFF" filter="url(#fftppqznyf9a7)" height="58.2656" style="stroke: #A80036; stroke-width: 1.0;" width="10" x="1243.5" y="292.2266"/><rect fill="#FFFFFF" filter="url(#fftppqznyf9a7)" height="683.0547" style="stroke: #A80036; stroke-width: 1.0;" width="10" x="1243.5" y="467.0234"/><rect fill="#FFFFFF" filter="url(#fftppqznyf9a7)" height="594.6563" style="stroke: #A80036; stroke-width: 1.0;" width="10" x="1594.5" y="554.4219"/><rect fill="#FFFFFF" filter="url(#fftppqznyf9a7)" height="29.1328" style="stroke: #A80036; stroke-width: 1.0;" width="10" x="1723.5" y="321.3594"/><rect fill="#FFFFFF" filter="url(#fftppqznyf9a7)" height="29.1328" style="stroke: #A80036; stroke-width: 1.0;" width="10" x="1723.5" y="496.1563"/><rect fill="#FFFFFF" filter="url(#fftppqznyf9a7)" height="53.2656" style="stroke: #A80036; stroke-width: 1.0;" width="10" x="1848.5" y="641.8203"/><rect fill="#FFFFFF" filter="url(#fftppqznyf9a7)" height="140.6641" style="stroke: #A80036; stroke-width: 1.0;" width="10" x="1966" y="583.5547"/><rect fill="#FFFFFF" filter="url(#fftppqznyf9a7)" height="29.1328" style="stroke: #A80036; stroke-width: 1.0;" width="10" x="2069" y="525.2891"/><polygon fill="#A80036" points="240.5,113.4297,250.5,117.4297,240.5,121.4297,244.5,117.4297" style="stroke: #A80036; stroke-width: 1.0;"/><line style="stroke: #A80036; stroke-width: 1.0;" x1="52.5" x2="246.5" y1="117.4297" y2="117.4297"/><text fill="#000000" font-family="sans-serif" font-size="13" font-weight="bold" lengthAdjust="spacingAndGlyphs" textLength="9" x="59.5" y="112.3638">1</text><text fill="#000000" font-family="sans-serif" font-size="13" lengthAdjust="spacingAndGlyphs" textLength="168" x="72.5" y="112.3638">wants to introduce a robot</text><polygon fill="#A80036" points="63.5,142.5625,53.5,146.5625,63.5,150.5625,59.5,146.5625" style="stroke: #A80036; stroke-width: 1.0;"/><line style="stroke: #A80036; stroke-width: 1.0; stroke-dasharray: 2.0,2.0;" x1="57.5" x2="251.5" y1="146.5625" y2="146.5625"/><text fill="#000000" font-family="sans-serif" font-size="13" font-weight="bold" lengthAdjust="spacingAndGlyphs" textLength="9" x="69.5" y="141.4966">2</text><text fill="#000000" font-family="sans-serif" font-size="13" lengthAdjust="spacingAndGlyphs" textLength="161" x="82.5" y="141.4966">request necessary data()</text><polygon fill="#A80036" points="240.5,171.6953,250.5,175.6953,240.5,179.6953,244.5,175.6953" style="stroke: #A80036; stroke-width: 1.0;"/><line style="stroke: #A80036; stroke-width: 1.0;" x1="52.5" x2="246.5" y1="175.6953" y2="175.6953"/><text fill="#000000" font-family="sans-serif" font-size="13" font-weight="bold" lengthAdjust="spacingAndGlyphs" textLength="9" x="59.5" y="170.6294">3</text><text fill="#000000" font-family="sans-serif" font-size="13" lengthAdjust="spacingAndGlyphs" textLength="112" x="72.5" y="170.6294">insert all the data</text><polygon fill="#A80036" points="385.5,200.8281,395.5,204.8281,385.5,208.8281,389.5,204.8281" style="stroke: #A80036; stroke-width: 1.0;"/><line style="stroke: #A80036; stroke-width: 1.0;" x1="262.5" x2="391.5" y1="204.8281" y2="204.8281"/><text fill="#000000" font-family="sans-serif" font-size="13" font-weight="bold" lengthAdjust="spacingAndGlyphs" textLength="9" x="269.5" y="199.7622">4</text><text fill="#000000" font-family="sans-serif" font-size="13" lengthAdjust="spacingAndGlyphs" textLength="98" x="282.5" y="199.7622">getRobotType()</text><polygon fill="#A80036" points="546.5,229.9609,556.5,233.9609,546.5,237.9609,550.5,233.9609" style="stroke: #A80036; stroke-width: 1.0;"/><line style="stroke: #A80036; stroke-width: 1.0;" x1="407.5" x2="552.5" y1="233.9609" y2="233.9609"/><text fill="#000000" font-family="sans-serif" font-size="13" font-weight="bold" lengthAdjust="spacingAndGlyphs" textLength="9" x="414.5" y="228.895">5</text><text fill="#000000" font-family="sans-serif" font-size="13" lengthAdjust="spacingAndGlyphs" textLength="95" x="427.5" y="228.895">listRobotType()</text><polygon fill="#A80036" points="716.5,259.0938,726.5,263.0938,716.5,267.0938,720.5,263.0938" style="stroke: #A80036; stroke-width: 1.0;"/><line style="stroke: #A80036; stroke-width: 1.0;" x1="568.5" x2="722.5" y1="263.0938" y2="263.0938"/><text fill="#000000" font-family="sans-serif" font-size="13" font-weight="bold" lengthAdjust="spacingAndGlyphs" textLength="9" x="575.5" y="258.0278">6</text><text fill="#000000" font-family="sans-serif" font-size="13" lengthAdjust="spacingAndGlyphs" textLength="79" x="588.5" y="258.0278">GET route{}</text><polygon fill="#A80036" points="880.5,288.2266,890.5,292.2266,880.5,296.2266,884.5,292.2266" style="stroke: #A80036; stroke-width: 1.0;"/><line style="stroke: #A80036; stroke-width: 1.0;" x1="738.5" x2="886.5" y1="292.2266" y2="292.2266"/><text fill="#000000" font-family="sans-serif" font-size="13" font-weight="bold" lengthAdjust="spacingAndGlyphs" textLength="9" x="745.5" y="287.1606">7</text><text fill="#000000" font-family="sans-serif" font-size="13" lengthAdjust="spacingAndGlyphs" textLength="117" x="758.5" y="287.1606">listAllRobotTypes()</text><polygon fill="#A80036" points="1231.5,317.3594,1241.5,321.3594,1231.5,325.3594,1235.5,321.3594" style="stroke: #A80036; stroke-width: 1.0;"/><line style="stroke: #A80036; stroke-width: 1.0;" x1="902.5" x2="1237.5" y1="321.3594" y2="321.3594"/><text fill="#000000" font-family="sans-serif" font-size="13" font-weight="bold" lengthAdjust="spacingAndGlyphs" textLength="9" x="909.5" y="316.2935">8</text><text fill="#000000" font-family="sans-serif" font-size="13" lengthAdjust="spacingAndGlyphs" textLength="117" x="922.5" y="316.2935">listAllRobotTypes()</text><polygon fill="#A80036" points="1716.5,346.4922,1726.5,350.4922,1716.5,354.4922,1720.5,350.4922" style="stroke: #A80036; stroke-width: 1.0;"/><line style="stroke: #A80036; stroke-width: 1.0;" x1="1248.5" x2="1722.5" y1="350.4922" y2="350.4922"/><text fill="#000000" font-family="sans-serif" font-size="13" font-weight="bold" lengthAdjust="spacingAndGlyphs" textLength="9" x="1255.5" y="345.4263">9</text><text fill="#000000" font-family="sans-serif" font-size="13" lengthAdjust="spacingAndGlyphs" textLength="43" x="1268.5" y="345.4263">listAll()</text><polygon fill="#A80036" points="385.5,375.625,395.5,379.625,385.5,383.625,389.5,379.625" style="stroke: #A80036; stroke-width: 1.0;"/><line style="stroke: #A80036; stroke-width: 1.0;" x1="262.5" x2="391.5" y1="379.625" y2="379.625"/><text fill="#000000" font-family="sans-serif" font-size="13" font-weight="bold" lengthAdjust="spacingAndGlyphs" textLength="18" x="269.5" y="374.5591">10</text><text fill="#000000" font-family="sans-serif" font-size="13" lengthAdjust="spacingAndGlyphs" textLength="71" x="291.5" y="374.5591">addRobot()</text><polygon fill="#A80036" points="546.5,404.7578,556.5,408.7578,546.5,412.7578,550.5,408.7578" style="stroke: #A80036; stroke-width: 1.0;"/><line style="stroke: #A80036; stroke-width: 1.0;" x1="407.5" x2="552.5" y1="408.7578" y2="408.7578"/><text fill="#000000" font-family="sans-serif" font-size="13" font-weight="bold" lengthAdjust="spacingAndGlyphs" textLength="18" x="414.5" y="403.6919">11</text><text fill="#000000" font-family="sans-serif" font-size="13" lengthAdjust="spacingAndGlyphs" textLength="105" x="436.5" y="403.6919">addRobot(robot)</text><polygon fill="#A80036" points="716.5,433.8906,726.5,437.8906,716.5,441.8906,720.5,437.8906" style="stroke: #A80036; stroke-width: 1.0;"/><line style="stroke: #A80036; stroke-width: 1.0;" x1="568.5" x2="722.5" y1="437.8906" y2="437.8906"/><text fill="#000000" font-family="sans-serif" font-size="13" font-weight="bold" lengthAdjust="spacingAndGlyphs" textLength="18" x="575.5" y="432.8247">12</text><text fill="#000000" font-family="sans-serif" font-size="13" lengthAdjust="spacingAndGlyphs" textLength="114" x="597.5" y="432.8247">POST route{json}</text><polygon fill="#A80036" points="880.5,463.0234,890.5,467.0234,880.5,471.0234,884.5,467.0234" style="stroke: #A80036; stroke-width: 1.0;"/><line style="stroke: #A80036; stroke-width: 1.0;" x1="738.5" x2="886.5" y1="467.0234" y2="467.0234"/><text fill="#000000" font-family="sans-serif" font-size="13" font-weight="bold" lengthAdjust="spacingAndGlyphs" textLength="18" x="745.5" y="461.9575">13</text><text fill="#000000" font-family="sans-serif" font-size="13" lengthAdjust="spacingAndGlyphs" textLength="97" x="767.5" y="461.9575">addRobot(json)</text><polygon fill="#A80036" points="1231.5,492.1563,1241.5,496.1563,1231.5,500.1563,1235.5,496.1563" style="stroke: #A80036; stroke-width: 1.0;"/><line style="stroke: #A80036; stroke-width: 1.0;" x1="902.5" x2="1237.5" y1="496.1563" y2="496.1563"/><text fill="#000000" font-family="sans-serif" font-size="13" font-weight="bold" lengthAdjust="spacingAndGlyphs" textLength="18" x="909.5" y="491.0903">14</text><text fill="#000000" font-family="sans-serif" font-size="13" lengthAdjust="spacingAndGlyphs" textLength="168" x="931.5" y="491.0903">addRobot(IRobotTypeDTO)</text><polygon fill="#A80036" points="1716.5,521.2891,1726.5,525.2891,1716.5,529.2891,1720.5,525.2891" style="stroke: #A80036; stroke-width: 1.0;"/><line style="stroke: #A80036; stroke-width: 1.0;" x1="1253.5" x2="1722.5" y1="525.2891" y2="525.2891"/><text fill="#000000" font-family="sans-serif" font-size="13" font-weight="bold" lengthAdjust="spacingAndGlyphs" textLength="18" x="1260.5" y="520.2231">15</text><text fill="#000000" font-family="sans-serif" font-size="13" lengthAdjust="spacingAndGlyphs" textLength="176" x="1282.5" y="520.2231">findByDomainId(robot.type)</text><polygon fill="#A80036" points="2062,550.4219,2072,554.4219,2062,558.4219,2066,554.4219" style="stroke: #A80036; stroke-width: 1.0;"/><line style="stroke: #A80036; stroke-width: 1.0;" x1="1253.5" x2="2068" y1="554.4219" y2="554.4219"/><text fill="#000000" font-family="sans-serif" font-size="13" font-weight="bold" lengthAdjust="spacingAndGlyphs" textLength="18" x="1260.5" y="549.356">16</text><text fill="#000000" font-family="sans-serif" font-size="13" lengthAdjust="spacingAndGlyphs" textLength="51" x="1282.5" y="549.356">create()</text><polygon fill="#A80036" points="1582.5,579.5547,1592.5,583.5547,1582.5,587.5547,1586.5,583.5547" style="stroke: #A80036; stroke-width: 1.0;"/><line style="stroke: #A80036; stroke-width: 1.0;" x1="1253.5" x2="1588.5" y1="583.5547" y2="583.5547"/><text fill="#000000" font-family="sans-serif" font-size="13" font-weight="bold" lengthAdjust="spacingAndGlyphs" textLength="18" x="1260.5" y="578.4888">17</text><text fill="#000000" font-family="sans-serif" font-size="13" lengthAdjust="spacingAndGlyphs" textLength="74" x="1282.5" y="578.4888">save(robot)</text><polygon fill="#A80036" points="1954,608.6875,1964,612.6875,1954,616.6875,1958,612.6875" style="stroke: #A80036; stroke-width: 1.0;"/><line style="stroke: #A80036; stroke-width: 1.0;" x1="1604.5" x2="1960" y1="612.6875" y2="612.6875"/><text fill="#000000" font-family="sans-serif" font-size="13" font-weight="bold" lengthAdjust="spacingAndGlyphs" textLength="18" x="1611.5" y="607.6216">18</text><text fill="#000000" font-family="sans-serif" font-size="13" lengthAdjust="spacingAndGlyphs" textLength="121" x="1633.5" y="607.6216">findOne(nickname)</text><polygon fill="#A80036" points="1954,637.8203,1964,641.8203,1954,645.8203,1958,641.8203" style="stroke: #A80036; stroke-width: 1.0;"/><line style="stroke: #A80036; stroke-width: 1.0;" x1="1604.5" x2="1960" y1="641.8203" y2="641.8203"/><text fill="#000000" font-family="sans-serif" font-size="13" font-weight="bold" lengthAdjust="spacingAndGlyphs" textLength="18" x="1611.5" y="636.7544">19</text><text fill="#000000" font-family="sans-serif" font-size="13" lengthAdjust="spacingAndGlyphs" textLength="145" x="1633.5" y="636.7544">findOne(serialNumber)</text><path d="M13,656.8203 L77,656.8203 L77,663.8203 L67,673.8203 L13,673.8203 L13,656.8203 " fill="#EEEEEE" style="stroke: #000000; stroke-width: 1.0;"/><rect fill="none" height="485.2578" style="stroke: #000000; stroke-width: 2.0;" width="2028.5" x="13" y="656.8203"/><text fill="#000000" font-family="sans-serif" font-size="13" font-weight="bold" lengthAdjust="spacingAndGlyphs" textLength="19" x="28" y="669.8872">alt</text><text fill="#000000" font-family="sans-serif" font-size="11" font-weight="bold" lengthAdjust="spacingAndGlyphs" textLength="261" x="92" y="669.0308">[nickname and serialNumber are unique]</text><polygon fill="#A80036" points="1841.5,691.0859,1851.5,695.0859,1841.5,699.0859,1845.5,695.0859" style="stroke: #A80036; stroke-width: 1.0;"/><line style="stroke: #A80036; stroke-width: 1.0;" x1="1604.5" x2="1847.5" y1="695.0859" y2="695.0859"/><text fill="#000000" font-family="sans-serif" font-size="13" font-weight="bold" lengthAdjust="spacingAndGlyphs" textLength="18" x="1611.5" y="690.02">20</text><text fill="#000000" font-family="sans-serif" font-size="13" lengthAdjust="spacingAndGlyphs" textLength="131" x="1633.5" y="690.02">toPersistance(robot)</text><polygon fill="#A80036" points="1959,720.2188,1969,724.2188,1959,728.2188,1963,724.2188" style="stroke: #A80036; stroke-width: 1.0;"/><line style="stroke: #A80036; stroke-width: 1.0;" x1="1604.5" x2="1965" y1="724.2188" y2="724.2188"/><text fill="#000000" font-family="sans-serif" font-size="13" font-weight="bold" lengthAdjust="spacingAndGlyphs" textLength="18" x="1611.5" y="719.1528">21</text><text fill="#000000" font-family="sans-serif" font-size="13" lengthAdjust="spacingAndGlyphs" textLength="85" x="1633.5" y="719.1528">create(robot)</text><polygon fill="#A80036" points="1264.5,749.3516,1254.5,753.3516,1264.5,757.3516,1260.5,753.3516" style="stroke: #A80036; stroke-width: 1.0;"/><line style="stroke: #A80036; stroke-width: 1.0; stroke-dasharray: 2.0,2.0;" x1="1258.5" x2="1593.5" y1="753.3516" y2="753.3516"/><text fill="#000000" font-family="sans-serif" font-size="13" font-weight="bold" lengthAdjust="spacingAndGlyphs" textLength="18" x="1270.5" y="748.2856">22</text><text fill="#000000" font-family="sans-serif" font-size="13" lengthAdjust="spacingAndGlyphs" textLength="34" x="1292.5" y="748.2856">robot</text><polygon fill="#A80036" points="913.5,778.4844,903.5,782.4844,913.5,786.4844,909.5,782.4844" style="stroke: #A80036; stroke-width: 1.0;"/><line style="stroke: #A80036; stroke-width: 1.0; stroke-dasharray: 2.0,2.0;" x1="907.5" x2="1242.5" y1="782.4844" y2="782.4844"/><text fill="#000000" font-family="sans-serif" font-size="13" font-weight="bold" lengthAdjust="spacingAndGlyphs" textLength="18" x="919.5" y="777.4185">23</text><text fill="#000000" font-family="sans-serif" font-size="13" lengthAdjust="spacingAndGlyphs" textLength="34" x="941.5" y="777.4185">robot</text><polygon fill="#A80036" points="749.5,807.6172,739.5,811.6172,749.5,815.6172,745.5,811.6172" style="stroke: #A80036; stroke-width: 1.0;"/><line style="stroke: #A80036; stroke-width: 1.0; stroke-dasharray: 2.0,2.0;" x1="743.5" x2="891.5" y1="811.6172" y2="811.6172"/><text fill="#000000" font-family="sans-serif" font-size="13" font-weight="bold" lengthAdjust="spacingAndGlyphs" textLength="18" x="755.5" y="806.5513">24</text><text fill="#000000" font-family="sans-serif" font-size="13" lengthAdjust="spacingAndGlyphs" textLength="64" x="777.5" y="806.5513">HTTP: 201</text><polygon fill="#A80036" points="579.5,836.75,569.5,840.75,579.5,844.75,575.5,840.75" style="stroke: #A80036; stroke-width: 1.0;"/><line style="stroke: #A80036; stroke-width: 1.0; stroke-dasharray: 2.0,2.0;" x1="573.5" x2="727.5" y1="840.75" y2="840.75"/><text fill="#000000" font-family="sans-serif" font-size="13" font-weight="bold" lengthAdjust="spacingAndGlyphs" textLength="18" x="585.5" y="835.6841">25</text><text fill="#000000" font-family="sans-serif" font-size="13" lengthAdjust="spacingAndGlyphs" textLength="64" x="607.5" y="835.6841">HTTP: 201</text><polygon fill="#A80036" points="418.5,865.8828,408.5,869.8828,418.5,873.8828,414.5,869.8828" style="stroke: #A80036; stroke-width: 1.0;"/><line style="stroke: #A80036; stroke-width: 1.0; stroke-dasharray: 2.0,2.0;" x1="412.5" x2="557.5" y1="869.8828" y2="869.8828"/><text fill="#000000" font-family="sans-serif" font-size="13" font-weight="bold" lengthAdjust="spacingAndGlyphs" textLength="18" x="424.5" y="864.8169">26</text><text fill="#000000" font-family="sans-serif" font-size="13" lengthAdjust="spacingAndGlyphs" textLength="64" x="446.5" y="864.8169">HTTP: 201</text><polygon fill="#A80036" points="273.5,895.0156,263.5,899.0156,273.5,903.0156,269.5,899.0156" style="stroke: #A80036; stroke-width: 1.0;"/><line style="stroke: #A80036; stroke-width: 1.0; stroke-dasharray: 2.0,2.0;" x1="267.5" x2="396.5" y1="899.0156" y2="899.0156"/><text fill="#000000" font-family="sans-serif" font-size="13" font-weight="bold" lengthAdjust="spacingAndGlyphs" textLength="18" x="279.5" y="893.9497">27</text><text fill="#000000" font-family="sans-serif" font-size="13" lengthAdjust="spacingAndGlyphs" textLength="64" x="301.5" y="893.9497">HTTP: 201</text><polygon fill="#A80036" points="63.5,924.1484,53.5,928.1484,63.5,932.1484,59.5,928.1484" style="stroke: #A80036; stroke-width: 1.0;"/><line style="stroke: #A80036; stroke-width: 1.0; stroke-dasharray: 2.0,2.0;" x1="57.5" x2="251.5" y1="928.1484" y2="928.1484"/><text fill="#000000" font-family="sans-serif" font-size="13" font-weight="bold" lengthAdjust="spacingAndGlyphs" textLength="18" x="69.5" y="923.0825">28</text><text fill="#000000" font-family="sans-serif" font-size="13" lengthAdjust="spacingAndGlyphs" textLength="150" x="91.5" y="923.0825">show success message</text><line style="stroke: #000000; stroke-width: 1.0; stroke-dasharray: 2.0,2.0;" x1="13" x2="2041.5" y1="937.1484" y2="937.1484"/><polygon fill="#A80036" points="1264.5,955.2813,1254.5,959.2813,1264.5,963.2813,1260.5,959.2813" style="stroke: #A80036; stroke-width: 1.0;"/><line style="stroke: #A80036; stroke-width: 1.0; stroke-dasharray: 2.0,2.0;" x1="1258.5" x2="1593.5" y1="959.2813" y2="959.2813"/><text fill="#000000" font-family="sans-serif" font-size="13" font-weight="bold" lengthAdjust="spacingAndGlyphs" textLength="18" x="1270.5" y="954.2153">29</text><text fill="#000000" font-family="sans-serif" font-size="13" lengthAdjust="spacingAndGlyphs" textLength="295" x="1292.5" y="954.2153">Error(nickname or serialNumber already exist)</text><polygon fill="#A80036" points="913.5,984.4141,903.5,988.4141,913.5,992.4141,909.5,988.4141" style="stroke: #A80036; stroke-width: 1.0;"/><line style="stroke: #A80036; stroke-width: 1.0; stroke-dasharray: 2.0,2.0;" x1="907.5" x2="1242.5" y1="988.4141" y2="988.4141"/><text fill="#000000" font-family="sans-serif" font-size="13" font-weight="bold" lengthAdjust="spacingAndGlyphs" textLength="18" x="919.5" y="983.3481">30</text><text fill="#000000" font-family="sans-serif" font-size="13" lengthAdjust="spacingAndGlyphs" textLength="295" x="941.5" y="983.3481">Error(nickname or serialNumber already exist)</text><polygon fill="#A80036" points="749.5,1013.5469,739.5,1017.5469,749.5,1021.5469,745.5,1017.5469" style="stroke: #A80036; stroke-width: 1.0;"/><line style="stroke: #A80036; stroke-width: 1.0; stroke-dasharray: 2.0,2.0;" x1="743.5" x2="891.5" y1="1017.5469" y2="1017.5469"/><text fill="#000000" font-family="sans-serif" font-size="13" font-weight="bold" lengthAdjust="spacingAndGlyphs" textLength="18" x="755.5" y="1012.481">31</text><text fill="#000000" font-family="sans-serif" font-size="13" lengthAdjust="spacingAndGlyphs" textLength="64" x="777.5" y="1012.481">HTTP: 400</text><polygon fill="#A80036" points="579.5,1042.6797,569.5,1046.6797,579.5,1050.6797,575.5,1046.6797" style="stroke: #A80036; stroke-width: 1.0;"/><line style="stroke: #A80036; stroke-width: 1.0; stroke-dasharray: 2.0,2.0;" x1="573.5" x2="727.5" y1="1046.6797" y2="1046.6797"/><text fill="#000000" font-family="sans-serif" font-size="13" font-weight="bold" lengthAdjust="spacingAndGlyphs" textLength="18" x="585.5" y="1041.6138">32</text><text fill="#000000" font-family="sans-serif" font-size="13" lengthAdjust="spacingAndGlyphs" textLength="64" x="607.5" y="1041.6138">HTTP: 400</text><polygon fill="#A80036" points="418.5,1071.8125,408.5,1075.8125,418.5,1079.8125,414.5,1075.8125" style="stroke: #A80036; stroke-width: 1.0;"/><line style="stroke: #A80036; stroke-width: 1.0; stroke-dasharray: 2.0,2.0;" x1="412.5" x2="557.5" y1="1075.8125" y2="1075.8125"/><text fill="#000000" font-family="sans-serif" font-size="13" font-weight="bold" lengthAdjust="spacingAndGlyphs" textLength="18" x="424.5" y="1070.7466">33</text><text fill="#000000" font-family="sans-serif" font-size="13" lengthAdjust="spacingAndGlyphs" textLength="64" x="446.5" y="1070.7466">HTTP: 400</text><polygon fill="#A80036" points="273.5,1100.9453,263.5,1104.9453,273.5,1108.9453,269.5,1104.9453" style="stroke: #A80036; stroke-width: 1.0;"/><line style="stroke: #A80036; stroke-width: 1.0; stroke-dasharray: 2.0,2.0;" x1="267.5" x2="396.5" y1="1104.9453" y2="1104.9453"/><text fill="#000000" font-family="sans-serif" font-size="13" font-weight="bold" lengthAdjust="spacingAndGlyphs" textLength="18" x="279.5" y="1099.8794">34</text><text fill="#000000" font-family="sans-serif" font-size="13" lengthAdjust="spacingAndGlyphs" textLength="64" x="301.5" y="1099.8794">HTTP: 400</text><polygon fill="#A80036" points="63.5,1130.0781,53.5,1134.0781,63.5,1138.0781,59.5,1134.0781" style="stroke: #A80036; stroke-width: 1.0;"/><line style="stroke: #A80036; stroke-width: 1.0; stroke-dasharray: 2.0,2.0;" x1="57.5" x2="251.5" y1="1134.0781" y2="1134.0781"/><text fill="#000000" font-family="sans-serif" font-size="13" font-weight="bold" lengthAdjust="spacingAndGlyphs" textLength="18" x="69.5" y="1129.0122">35</text><text fill="#000000" font-family="sans-serif" font-size="13" lengthAdjust="spacingAndGlyphs" textLength="138" x="91.5" y="1129.0122">show failure message</text><!--MD5=[1b02833c27c2936fcc88b01813ea248b]
@startuml
autonumber
actor "Admin" as admin

participant ":View" as sys
participant ":FE_Component" as comp
participant ":FE_Service" as FEsrvc
participant ":Routing" as route
participant ":RobotController" as ctrl
participant ":RobotService" as srvc
participant ":RobotRepo" as repo
participant ":RobotTypeRepo" as repoT
participant ":RobotMap" as rtMap
participant ":RobotSchema" as rtSchema
participant ":Robot" as rt

activate admin

admin -> sys: wants to introduce a robot
activate sys
sys - -> admin: request necessary data()
admin -> sys : insert all the data
activate comp

sys -> comp : getRobotType()
activate FEsrvc
comp -> FEsrvc : listRobotType()
activate route
FEsrvc -> route: GET route{}
activate ctrl
route -> ctrl: listAllRobotTypes()
activate srvc
ctrl -> srvc: listAllRobotTypes()
activate repoT
srvc -> repoT: listAll()
deactivate FEsrvc
deactivate route
deactivate ctrl
deactivate srvc
deactivate repoT

sys -> comp : addRobot()
activate FEsrvc
comp -> FEsrvc : addRobot(robot)
activate route
FEsrvc -> route: POST route{json}
activate ctrl
route -> ctrl: addRobot(json)
activate srvc
ctrl -> srvc: addRobot(IRobotTypeDTO)
activate repoT
srvc -> repoT: findByDomainId(robot.type)
deactivate repoT
activate rt
srvc -> rt: create()
deactivate rt
activate repo
srvc -> repo: save(robot)
activate rtSchema
repo -> rtSchema: findOne(nickname)
repo -> rtSchema: findOne(serialNumber)
activate rtMap

alt nickname and serialNumber are unique
    repo -> rtMap: toPersistance(robot)
    deactivate rtMap
    repo -> rtSchema: create(robot)
    deactivate rtSchema
    repo - -> srvc: robot
    srvc - -> ctrl: robot
    ctrl - -> route : HTTP: 201
    route - -> FEsrvc: HTTP: 201
    FEsrvc - -> comp: HTTP: 201
    comp - -> sys: HTTP: 201
    sys - -> admin: show success message
else
    repo - -> srvc: Error(nickname or serialNumber already exist)
    srvc - -> ctrl: Error(nickname or serialNumber already exist)
    ctrl - -> route : HTTP: 400
    route - -> FEsrvc: HTTP: 400
    FEsrvc - -> comp: HTTP: 400
    comp - -> sys: HTTP: 400
    sys - -> admin: show failure message
end

deactivate repo
deactivate ctrl
deactivate route
deactivate FEsrvc
deactivate comp
deactivate sys
deactivate admin
@enduml

PlantUML version 1.2020.02(Sun Mar 01 10:22:07 UTC 2020)
(GPL source distribution)
Java Runtime: OpenJDK Runtime Environment
JVM: OpenJDK 64-Bit Server VM
Java Version: 11.0.21+9
Operating System: Linux
Default Encoding: UTF-8
Language: en
Country: null
--></g></svg>