<?xml version="1.0" encoding="UTF-8" standalone="no"?><svg xmlns="http://www.w3.org/2000/svg" xmlns:xlink="http://www.w3.org/1999/xlink" contentScriptType="application/ecmascript" contentStyleType="text/css" height="763px" preserveAspectRatio="none" style="width:1263px;height:763px;" version="1.1" viewBox="0 0 1263 763" width="1263px" zoomAndPan="magnify"><defs><filter height="300%" id="fofxj16fxh2il" width="300%" x="-1" y="-1"><feGaussianBlur result="blurOut" stdDeviation="2.0"/><feColorMatrix in="blurOut" result="blurOut2" type="matrix" values="0 0 0 0 0 0 0 0 0 0 0 0 0 0 0 0 0 0 .4 0"/><feOffset dx="4.0" dy="4.0" in="blurOut2" result="blurOut3"/><feBlend in="SourceGraphic" in2="blurOut3" mode="normal"/></filter></defs><g><rect fill="#FFFFFF" filter="url(#fofxj16fxh2il)" height="571.3281" style="stroke: #A80036; stroke-width: 1.0;" width="10" x="37" y="96.2969"/><rect fill="#FFFFFF" filter="url(#fofxj16fxh2il)" height="550.1953" style="stroke: #A80036; stroke-width: 1.0;" width="10" x="254" y="117.4297"/><rect fill="#FFFFFF" filter="url(#fofxj16fxh2il)" height="286.3281" style="stroke: #A80036; stroke-width: 1.0;" width="10" x="490.5" y="146.5625"/><rect fill="#FFFFFF" filter="url(#fofxj16fxh2il)" height="228.0625" style="stroke: #A80036; stroke-width: 1.0;" width="10" x="709.5" y="175.6953"/><rect fill="#FFFFFF" filter="url(#fofxj16fxh2il)" height="169.7969" style="stroke: #A80036; stroke-width: 1.0;" width="10" x="870.5" y="204.8281"/><rect fill="#FFFFFF" filter="url(#fofxj16fxh2il)" height="111.5313" style="stroke: #A80036; stroke-width: 1.0;" width="10" x="1030.5" y="233.9609"/><rect fill="#FFFFFF" filter="url(#fofxj16fxh2il)" height="381.5313" style="stroke: #000000; stroke-width: 2.0;" width="1238.5" x="13" y="278.0938"/><rect fill="#FFFFFF" height="189.6016" style="stroke: none; stroke-width: 1.0;" width="1238.5" x="13" y="470.0234"/><line style="stroke: #A80036; stroke-width: 1.0; stroke-dasharray: 5.0,5.0;" x1="42" x2="42" y1="86.2969" y2="676.625"/><line style="stroke: #A80036; stroke-width: 1.0; stroke-dasharray: 5.0,5.0;" x1="259" x2="259" y1="86.2969" y2="676.625"/><line style="stroke: #A80036; stroke-width: 1.0; stroke-dasharray: 5.0,5.0;" x1="495" x2="495" y1="86.2969" y2="676.625"/><line style="stroke: #A80036; stroke-width: 1.0; stroke-dasharray: 5.0,5.0;" x1="714" x2="714" y1="86.2969" y2="676.625"/><line style="stroke: #A80036; stroke-width: 1.0; stroke-dasharray: 5.0,5.0;" x1="875" x2="875" y1="86.2969" y2="676.625"/><line style="stroke: #A80036; stroke-width: 1.0; stroke-dasharray: 5.0,5.0;" x1="1035" x2="1035" y1="86.2969" y2="676.625"/><line style="stroke: #A80036; stroke-width: 1.0; stroke-dasharray: 5.0,5.0;" x1="1205.5" x2="1205.5" y1="86.2969" y2="676.625"/><text fill="#000000" font-family="sans-serif" font-size="14" lengthAdjust="spacingAndGlyphs" textLength="32" x="23" y="82.9951">User</text><ellipse cx="42" cy="13" fill="#FEFECE" filter="url(#fofxj16fxh2il)" rx="8" ry="8" style="stroke: #A80036; stroke-width: 2.0;"/><path d="M42,21 L42,48 M29,29 L55,29 M42,48 L29,63 M42,48 L55,63 " fill="none" filter="url(#fofxj16fxh2il)" style="stroke: #A80036; stroke-width: 2.0;"/><text fill="#000000" font-family="sans-serif" font-size="14" lengthAdjust="spacingAndGlyphs" textLength="32" x="23" y="688.6201">User</text><ellipse cx="42" cy="701.9219" fill="#FEFECE" filter="url(#fofxj16fxh2il)" rx="8" ry="8" style="stroke: #A80036; stroke-width: 2.0;"/><path d="M42,709.9219 L42,736.9219 M29,717.9219 L55,717.9219 M42,736.9219 L29,751.9219 M42,736.9219 L55,751.9219 " fill="none" filter="url(#fofxj16fxh2il)" style="stroke: #A80036; stroke-width: 2.0;"/><rect fill="#FEFECE" filter="url(#fofxj16fxh2il)" height="30.2969" style="stroke: #A80036; stroke-width: 1.5;" width="244" x="135" y="51"/><text fill="#000000" font-family="sans-serif" font-size="14" lengthAdjust="spacingAndGlyphs" textLength="230" x="142" y="70.9951">:UpdateBuildingComponentHTML</text><rect fill="#FEFECE" filter="url(#fofxj16fxh2il)" height="30.2969" style="stroke: #A80036; stroke-width: 1.5;" width="244" x="135" y="675.625"/><text fill="#000000" font-family="sans-serif" font-size="14" lengthAdjust="spacingAndGlyphs" textLength="230" x="142" y="695.6201">:UpdateBuildingComponentHTML</text><rect fill="#FEFECE" filter="url(#fofxj16fxh2il)" height="30.2969" style="stroke: #A80036; stroke-width: 1.5;" width="201" x="393" y="51"/><text fill="#000000" font-family="sans-serif" font-size="14" lengthAdjust="spacingAndGlyphs" textLength="187" x="400" y="70.9951">UpdateBuildingComponent</text><rect fill="#FEFECE" filter="url(#fofxj16fxh2il)" height="30.2969" style="stroke: #A80036; stroke-width: 1.5;" width="201" x="393" y="675.625"/><text fill="#000000" font-family="sans-serif" font-size="14" lengthAdjust="spacingAndGlyphs" textLength="187" x="400" y="695.6201">UpdateBuildingComponent</text><rect fill="#FEFECE" filter="url(#fofxj16fxh2il)" height="30.2969" style="stroke: #A80036; stroke-width: 1.5;" width="141" x="642" y="51"/><text fill="#000000" font-family="sans-serif" font-size="14" lengthAdjust="spacingAndGlyphs" textLength="127" x="649" y="70.9951">:BuildingServiceFE</text><rect fill="#FEFECE" filter="url(#fofxj16fxh2il)" height="30.2969" style="stroke: #A80036; stroke-width: 1.5;" width="141" x="642" y="675.625"/><text fill="#000000" font-family="sans-serif" font-size="14" lengthAdjust="spacingAndGlyphs" textLength="127" x="649" y="695.6201">:BuildingServiceFE</text><rect fill="#FEFECE" filter="url(#fofxj16fxh2il)" height="30.2969" style="stroke: #A80036; stroke-width: 1.5;" width="149" x="799" y="51"/><text fill="#000000" font-family="sans-serif" font-size="14" lengthAdjust="spacingAndGlyphs" textLength="135" x="806" y="70.9951">:BuildingsController</text><rect fill="#FEFECE" filter="url(#fofxj16fxh2il)" height="30.2969" style="stroke: #A80036; stroke-width: 1.5;" width="149" x="799" y="675.625"/><text fill="#000000" font-family="sans-serif" font-size="14" lengthAdjust="spacingAndGlyphs" textLength="135" x="806" y="695.6201">:BuildingsController</text><rect fill="#FEFECE" filter="url(#fofxj16fxh2il)" height="30.2969" style="stroke: #A80036; stroke-width: 1.5;" width="143" x="962" y="51"/><text fill="#000000" font-family="sans-serif" font-size="14" lengthAdjust="spacingAndGlyphs" textLength="129" x="969" y="70.9951">:BuildingServiceBE</text><rect fill="#FEFECE" filter="url(#fofxj16fxh2il)" height="30.2969" style="stroke: #A80036; stroke-width: 1.5;" width="143" x="962" y="675.625"/><text fill="#000000" font-family="sans-serif" font-size="14" lengthAdjust="spacingAndGlyphs" textLength="129" x="969" y="695.6201">:BuildingServiceBE</text><text fill="#000000" font-family="sans-serif" font-size="14" lengthAdjust="spacingAndGlyphs" textLength="66" x="1169.5" y="82.9951">Database</text><path d="M1187.5,34 C1187.5,24 1205.5,24 1205.5,24 C1205.5,24 1223.5,24 1223.5,34 L1223.5,60 C1223.5,70 1205.5,70 1205.5,70 C1205.5,70 1187.5,70 1187.5,60 L1187.5,34 " fill="#FEFECE" filter="url(#fofxj16fxh2il)" style="stroke: #000000; stroke-width: 1.5;"/><path d="M1187.5,34 C1187.5,44 1205.5,44 1205.5,44 C1205.5,44 1223.5,44 1223.5,34 " fill="none" style="stroke: #000000; stroke-width: 1.5;"/><text fill="#000000" font-family="sans-serif" font-size="14" lengthAdjust="spacingAndGlyphs" textLength="66" x="1169.5" y="688.6201">Database</text><path d="M1187.5,701.9219 C1187.5,691.9219 1205.5,691.9219 1205.5,691.9219 C1205.5,691.9219 1223.5,691.9219 1223.5,701.9219 L1223.5,727.9219 C1223.5,737.9219 1205.5,737.9219 1205.5,737.9219 C1205.5,737.9219 1187.5,737.9219 1187.5,727.9219 L1187.5,701.9219 " fill="#FEFECE" filter="url(#fofxj16fxh2il)" style="stroke: #000000; stroke-width: 1.5;"/><path d="M1187.5,701.9219 C1187.5,711.9219 1205.5,711.9219 1205.5,711.9219 C1205.5,711.9219 1223.5,711.9219 1223.5,701.9219 " fill="none" style="stroke: #000000; stroke-width: 1.5;"/><rect fill="#FFFFFF" filter="url(#fofxj16fxh2il)" height="571.3281" style="stroke: #A80036; stroke-width: 1.0;" width="10" x="37" y="96.2969"/><rect fill="#FFFFFF" filter="url(#fofxj16fxh2il)" height="550.1953" style="stroke: #A80036; stroke-width: 1.0;" width="10" x="254" y="117.4297"/><rect fill="#FFFFFF" filter="url(#fofxj16fxh2il)" height="286.3281" style="stroke: #A80036; stroke-width: 1.0;" width="10" x="490.5" y="146.5625"/><rect fill="#FFFFFF" filter="url(#fofxj16fxh2il)" height="228.0625" style="stroke: #A80036; stroke-width: 1.0;" width="10" x="709.5" y="175.6953"/><rect fill="#FFFFFF" filter="url(#fofxj16fxh2il)" height="169.7969" style="stroke: #A80036; stroke-width: 1.0;" width="10" x="870.5" y="204.8281"/><rect fill="#FFFFFF" filter="url(#fofxj16fxh2il)" height="111.5313" style="stroke: #A80036; stroke-width: 1.0;" width="10" x="1030.5" y="233.9609"/><polygon fill="#A80036" points="242,113.4297,252,117.4297,242,121.4297,246,117.4297" style="stroke: #A80036; stroke-width: 1.0;"/><line style="stroke: #A80036; stroke-width: 1.0;" x1="47" x2="248" y1="117.4297" y2="117.4297"/><text fill="#000000" font-family="sans-serif" font-size="13" lengthAdjust="spacingAndGlyphs" textLength="188" x="54" y="112.3638">Select Building to be updated</text><polygon fill="#A80036" points="478.5,142.5625,488.5,146.5625,478.5,150.5625,482.5,146.5625" style="stroke: #A80036; stroke-width: 1.0;"/><line style="stroke: #A80036; stroke-width: 1.0;" x1="264" x2="484.5" y1="146.5625" y2="146.5625"/><text fill="#000000" font-family="sans-serif" font-size="13" lengthAdjust="spacingAndGlyphs" textLength="186" x="271" y="141.4966">Receive the HTTP PUT/PATCH</text><polygon fill="#A80036" points="697.5,171.6953,707.5,175.6953,697.5,179.6953,701.5,175.6953" style="stroke: #A80036; stroke-width: 1.0;"/><line style="stroke: #A80036; stroke-width: 1.0;" x1="500.5" x2="703.5" y1="175.6953" y2="175.6953"/><text fill="#000000" font-family="sans-serif" font-size="13" lengthAdjust="spacingAndGlyphs" textLength="105" x="507.5" y="170.6294">updateBuilding()</text><polygon fill="#A80036" points="858.5,200.8281,868.5,204.8281,858.5,208.8281,862.5,204.8281" style="stroke: #A80036; stroke-width: 1.0;"/><line style="stroke: #A80036; stroke-width: 1.0;" x1="719.5" x2="864.5" y1="204.8281" y2="204.8281"/><text fill="#000000" font-family="sans-serif" font-size="13" lengthAdjust="spacingAndGlyphs" textLength="132" x="726.5" y="199.7622">HTTP PATCH/ update</text><polygon fill="#A80036" points="1018.5,229.9609,1028.5,233.9609,1018.5,237.9609,1022.5,233.9609" style="stroke: #A80036; stroke-width: 1.0;"/><line style="stroke: #A80036; stroke-width: 1.0;" x1="880.5" x2="1024.5" y1="233.9609" y2="233.9609"/><text fill="#000000" font-family="sans-serif" font-size="13" lengthAdjust="spacingAndGlyphs" textLength="109" x="887.5" y="228.895">updateBuilding ()</text><polygon fill="#A80036" points="1193.5,259.0938,1203.5,263.0938,1193.5,267.0938,1197.5,263.0938" style="stroke: #A80036; stroke-width: 1.0;"/><line style="stroke: #A80036; stroke-width: 1.0;" x1="1040.5" x2="1199.5" y1="263.0938" y2="263.0938"/><text fill="#000000" font-family="sans-serif" font-size="13" lengthAdjust="spacingAndGlyphs" textLength="141" x="1047.5" y="258.0278">Query update Building</text><path d="M13,278.0938 L77,278.0938 L77,285.0938 L67,295.0938 L13,295.0938 L13,278.0938 " fill="#EEEEEE" style="stroke: #000000; stroke-width: 1.0;"/><rect fill="none" height="381.5313" style="stroke: #000000; stroke-width: 2.0;" width="1238.5" x="13" y="278.0938"/><text fill="#000000" font-family="sans-serif" font-size="13" font-weight="bold" lengthAdjust="spacingAndGlyphs" textLength="19" x="28" y="291.1606">alt</text><text fill="#000000" font-family="sans-serif" font-size="11" font-weight="bold" lengthAdjust="spacingAndGlyphs" textLength="54" x="92" y="290.3042">[sucess]</text><polygon fill="#A80036" points="1051.5,312.3594,1041.5,316.3594,1051.5,320.3594,1047.5,316.3594" style="stroke: #A80036; stroke-width: 1.0;"/><line style="stroke: #A80036; stroke-width: 1.0; stroke-dasharray: 2.0,2.0;" x1="1045.5" x2="1204.5" y1="316.3594" y2="316.3594"/><text fill="#000000" font-family="sans-serif" font-size="13" lengthAdjust="spacingAndGlyphs" textLength="107" x="1057.5" y="311.2935">sucess message</text><polygon fill="#A80036" points="891.5,341.4922,881.5,345.4922,891.5,349.4922,887.5,345.4922" style="stroke: #A80036; stroke-width: 1.0;"/><line style="stroke: #A80036; stroke-width: 1.0; stroke-dasharray: 2.0,2.0;" x1="885.5" x2="1034.5" y1="345.4922" y2="345.4922"/><text fill="#000000" font-family="sans-serif" font-size="13" lengthAdjust="spacingAndGlyphs" textLength="107" x="897.5" y="340.4263">sucess message</text><polygon fill="#A80036" points="730.5,370.625,720.5,374.625,730.5,378.625,726.5,374.625" style="stroke: #A80036; stroke-width: 1.0;"/><line style="stroke: #A80036; stroke-width: 1.0; stroke-dasharray: 2.0,2.0;" x1="724.5" x2="874.5" y1="374.625" y2="374.625"/><text fill="#000000" font-family="sans-serif" font-size="13" lengthAdjust="spacingAndGlyphs" textLength="82" x="736.5" y="369.5591">HTTP 200 OK</text><polygon fill="#A80036" points="511.5,399.7578,501.5,403.7578,511.5,407.7578,507.5,403.7578" style="stroke: #A80036; stroke-width: 1.0;"/><line style="stroke: #A80036; stroke-width: 1.0;" x1="505.5" x2="713.5" y1="403.7578" y2="403.7578"/><text fill="#000000" font-family="sans-serif" font-size="13" lengthAdjust="spacingAndGlyphs" textLength="185" x="517.5" y="398.6919">Console.log sucess message</text><polygon fill="#A80036" points="275,428.8906,265,432.8906,275,436.8906,271,432.8906" style="stroke: #A80036; stroke-width: 1.0;"/><line style="stroke: #A80036; stroke-width: 1.0;" x1="269" x2="494.5" y1="432.8906" y2="432.8906"/><text fill="#000000" font-family="sans-serif" font-size="13" lengthAdjust="spacingAndGlyphs" textLength="107" x="281" y="427.8247">Sucess Message</text><polygon fill="#A80036" points="58,458.0234,48,462.0234,58,466.0234,54,462.0234" style="stroke: #A80036; stroke-width: 1.0;"/><line style="stroke: #A80036; stroke-width: 1.0; stroke-dasharray: 2.0,2.0;" x1="52" x2="253" y1="462.0234" y2="462.0234"/><text fill="#000000" font-family="sans-serif" font-size="13" lengthAdjust="spacingAndGlyphs" textLength="107" x="64" y="456.9575">Sucess Message</text><line style="stroke: #000000; stroke-width: 1.0; stroke-dasharray: 2.0,2.0;" x1="13" x2="1251.5" y1="471.0234" y2="471.0234"/><text fill="#000000" font-family="sans-serif" font-size="11" font-weight="bold" lengthAdjust="spacingAndGlyphs" textLength="41" x="18" y="481.2339">[Error]</text><polygon fill="#A80036" points="1046.5,501.9609,1036.5,505.9609,1046.5,509.9609,1042.5,505.9609" style="stroke: #A80036; stroke-width: 1.0;"/><line style="stroke: #A80036; stroke-width: 1.0; stroke-dasharray: 2.0,2.0;" x1="1040.5" x2="1204.5" y1="505.9609" y2="505.9609"/><text fill="#000000" font-family="sans-serif" font-size="13" lengthAdjust="spacingAndGlyphs" textLength="94" x="1052.5" y="500.895">error message</text><polygon fill="#A80036" points="886.5,531.0938,876.5,535.0938,886.5,539.0938,882.5,535.0938" style="stroke: #A80036; stroke-width: 1.0;"/><line style="stroke: #A80036; stroke-width: 1.0; stroke-dasharray: 2.0,2.0;" x1="880.5" x2="1034.5" y1="535.0938" y2="535.0938"/><text fill="#000000" font-family="sans-serif" font-size="13" lengthAdjust="spacingAndGlyphs" textLength="94" x="892.5" y="530.0278">error message</text><polygon fill="#A80036" points="725.5,560.2266,715.5,564.2266,725.5,568.2266,721.5,564.2266" style="stroke: #A80036; stroke-width: 1.0;"/><line style="stroke: #A80036; stroke-width: 1.0; stroke-dasharray: 2.0,2.0;" x1="719.5" x2="874.5" y1="564.2266" y2="564.2266"/><text fill="#000000" font-family="sans-serif" font-size="13" lengthAdjust="spacingAndGlyphs" textLength="60" x="731.5" y="559.1606">HTTP 500</text><polygon fill="#A80036" points="506.5,589.3594,496.5,593.3594,506.5,597.3594,502.5,593.3594" style="stroke: #A80036; stroke-width: 1.0;"/><line style="stroke: #A80036; stroke-width: 1.0;" x1="500.5" x2="713.5" y1="593.3594" y2="593.3594"/><text fill="#000000" font-family="sans-serif" font-size="13" lengthAdjust="spacingAndGlyphs" textLength="172" x="512.5" y="588.2935">Console.log error message</text><polygon fill="#A80036" points="275,618.4922,265,622.4922,275,626.4922,271,622.4922" style="stroke: #A80036; stroke-width: 1.0;"/><line style="stroke: #A80036; stroke-width: 1.0;" x1="269" x2="494.5" y1="622.4922" y2="622.4922"/><text fill="#000000" font-family="sans-serif" font-size="13" lengthAdjust="spacingAndGlyphs" textLength="92" x="281" y="617.4263">error Message</text><polygon fill="#A80036" points="58,647.625,48,651.625,58,655.625,54,651.625" style="stroke: #A80036; stroke-width: 1.0;"/><line style="stroke: #A80036; stroke-width: 1.0; stroke-dasharray: 2.0,2.0;" x1="52" x2="253" y1="651.625" y2="651.625"/><text fill="#000000" font-family="sans-serif" font-size="13" lengthAdjust="spacingAndGlyphs" textLength="92" x="64" y="646.5591">error Message</text><!--MD5=[c7bab1fd92ebbd7bac66f02e55feaaad]
@startuml
actor "User" as user
participant ":UpdateBuildingComponentHTML" as ui
participant "UpdateBuildingComponent" as component
participant ":BuildingServiceFE" as servicefe
participant ":BuildingsController" as controller
participant ":BuildingServiceBE" as service

database "Database" as db

activate user
user -> ui: Select Building to be updated
activate ui
ui -> component: Receive the HTTP PUT/PATCH
activate component
component -> servicefe: updateBuilding()
activate servicefe
servicefe -> controller: HTTP PATCH/ update
activate controller
controller -> service: updateBuilding ()
activate service
service -> db: Query update Building 
alt sucess 
db - -> service: sucess message
service - -> controller: sucess message
deactivate service
controller - -> servicefe: HTTP 200 OK 
deactivate controller
servicefe -> component: Console.log sucess message
deactivate servicefe
component -> ui: Sucess Message
deactivate component
ui - -> user: Sucess Message
else Error 
db - -> service: error message
service - -> controller: error message
deactivate service
controller - -> servicefe: HTTP 500
deactivate controller
servicefe -> component: Console.log error message
deactivate servicefe
component -> ui: error Message
deactivate component
ui - -> user: error Message

end
@enduml

PlantUML version 1.2020.02(Sun Mar 01 10:22:07 UTC 2020)
(GPL source distribution)
Java Runtime: OpenJDK Runtime Environment
JVM: OpenJDK 64-Bit Server VM
Java Version: 11.0.21+9
Operating System: Linux
Default Encoding: UTF-8
Language: en
Country: null
--></g></svg>