<?xml version="1.0" encoding="UTF-8" standalone="no"?><svg xmlns="http://www.w3.org/2000/svg" xmlns:xlink="http://www.w3.org/1999/xlink" contentScriptType="application/ecmascript" contentStyleType="text/css" height="967px" preserveAspectRatio="none" style="width:1491px;height:967px;" version="1.1" viewBox="0 0 1491 967" width="1491px" zoomAndPan="magnify"><defs><filter height="300%" id="fb1kc5x5i7vcz" width="300%" x="-1" y="-1"><feGaussianBlur result="blurOut" stdDeviation="2.0"/><feColorMatrix in="blurOut" result="blurOut2" type="matrix" values="0 0 0 0 0 0 0 0 0 0 0 0 0 0 0 0 0 0 .4 0"/><feOffset dx="4.0" dy="4.0" in="blurOut2" result="blurOut3"/><feBlend in="SourceGraphic" in2="blurOut3" mode="normal"/></filter></defs><g><rect fill="#FFFFFF" filter="url(#fb1kc5x5i7vcz)" height="774.2578" style="stroke: #A80036; stroke-width: 1.0;" width="10" x="37" y="96.2969"/><rect fill="#FFFFFF" filter="url(#fb1kc5x5i7vcz)" height="679.8594" style="stroke: #A80036; stroke-width: 1.0;" width="10" x="251" y="175.6953"/><rect fill="#FFFFFF" filter="url(#fb1kc5x5i7vcz)" height="621.5938" style="stroke: #A80036; stroke-width: 1.0;" width="10" x="398" y="204.8281"/><rect fill="#FFFFFF" filter="url(#fb1kc5x5i7vcz)" height="563.3281" style="stroke: #A80036; stroke-width: 1.0;" width="10" x="552" y="233.9609"/><rect fill="#FFFFFF" filter="url(#fb1kc5x5i7vcz)" height="505.0625" style="stroke: #A80036; stroke-width: 1.0;" width="10" x="673" y="263.0938"/><rect fill="#FFFFFF" filter="url(#fb1kc5x5i7vcz)" height="446.7969" style="stroke: #A80036; stroke-width: 1.0;" width="10" x="823" y="292.2266"/><rect fill="#FFFFFF" filter="url(#fb1kc5x5i7vcz)" height="388.5313" style="stroke: #A80036; stroke-width: 1.0;" width="10" x="1055" y="321.3594"/><rect fill="#FFFFFF" filter="url(#fb1kc5x5i7vcz)" height="330.2656" style="stroke: #A80036; stroke-width: 1.0;" width="10" x="1287" y="350.4922"/><rect fill="#FFFFFF" filter="url(#fb1kc5x5i7vcz)" height="29.1328" style="stroke: #A80036; stroke-width: 1.0;" width="10" x="1428" y="403.7578"/><rect fill="#FFFFFF" filter="url(#fb1kc5x5i7vcz)" height="498.0625" style="stroke: #000000; stroke-width: 2.0;" width="1466" x="13" y="365.4922"/><rect fill="#FFFFFF" height="218.7344" style="stroke: none; stroke-width: 1.0;" width="1466" x="13" y="644.8203"/><line style="stroke: #A80036; stroke-width: 1.0; stroke-dasharray: 5.0,5.0;" x1="42" x2="42" y1="86.2969" y2="880.5547"/><line style="stroke: #A80036; stroke-width: 1.0; stroke-dasharray: 5.0,5.0;" x1="255.5" x2="255.5" y1="86.2969" y2="880.5547"/><line style="stroke: #A80036; stroke-width: 1.0; stroke-dasharray: 5.0,5.0;" x1="402.5" x2="402.5" y1="86.2969" y2="880.5547"/><line style="stroke: #A80036; stroke-width: 1.0; stroke-dasharray: 5.0,5.0;" x1="556.5" x2="556.5" y1="86.2969" y2="880.5547"/><line style="stroke: #A80036; stroke-width: 1.0; stroke-dasharray: 5.0,5.0;" x1="677.5" x2="677.5" y1="86.2969" y2="880.5547"/><line style="stroke: #A80036; stroke-width: 1.0; stroke-dasharray: 5.0,5.0;" x1="827.5" x2="827.5" y1="86.2969" y2="880.5547"/><line style="stroke: #A80036; stroke-width: 1.0; stroke-dasharray: 5.0,5.0;" x1="1060" x2="1060" y1="86.2969" y2="880.5547"/><line style="stroke: #A80036; stroke-width: 1.0; stroke-dasharray: 5.0,5.0;" x1="1291.5" x2="1291.5" y1="86.2969" y2="880.5547"/><line style="stroke: #A80036; stroke-width: 1.0; stroke-dasharray: 5.0,5.0;" x1="1433" x2="1433" y1="86.2969" y2="880.5547"/><text fill="#000000" font-family="sans-serif" font-size="14" lengthAdjust="spacingAndGlyphs" textLength="32" x="23" y="82.9951">User</text><ellipse cx="42" cy="13" fill="#FEFECE" filter="url(#fb1kc5x5i7vcz)" rx="8" ry="8" style="stroke: #A80036; stroke-width: 2.0;"/><path d="M42,21 L42,48 M29,29 L55,29 M42,48 L29,63 M42,48 L55,63 " fill="none" filter="url(#fb1kc5x5i7vcz)" style="stroke: #A80036; stroke-width: 2.0;"/><text fill="#000000" font-family="sans-serif" font-size="14" lengthAdjust="spacingAndGlyphs" textLength="32" x="23" y="892.5498">User</text><ellipse cx="42" cy="905.8516" fill="#FEFECE" filter="url(#fb1kc5x5i7vcz)" rx="8" ry="8" style="stroke: #A80036; stroke-width: 2.0;"/><path d="M42,913.8516 L42,940.8516 M29,921.8516 L55,921.8516 M42,940.8516 L29,955.8516 M42,940.8516 L55,955.8516 " fill="none" filter="url(#fb1kc5x5i7vcz)" style="stroke: #A80036; stroke-width: 2.0;"/><rect fill="#FEFECE" filter="url(#fb1kc5x5i7vcz)" height="30.2969" style="stroke: #A80036; stroke-width: 1.5;" width="51" x="228.5" y="51"/><text fill="#000000" font-family="sans-serif" font-size="14" lengthAdjust="spacingAndGlyphs" textLength="37" x="235.5" y="70.9951">:View</text><rect fill="#FEFECE" filter="url(#fb1kc5x5i7vcz)" height="30.2969" style="stroke: #A80036; stroke-width: 1.5;" width="51" x="228.5" y="879.5547"/><text fill="#000000" font-family="sans-serif" font-size="14" lengthAdjust="spacingAndGlyphs" textLength="37" x="235.5" y="899.5498">:View</text><rect fill="#FEFECE" filter="url(#fb1kc5x5i7vcz)" height="30.2969" style="stroke: #A80036; stroke-width: 1.5;" width="125" x="338.5" y="51"/><text fill="#000000" font-family="sans-serif" font-size="14" lengthAdjust="spacingAndGlyphs" textLength="111" x="345.5" y="70.9951">:FE_Component</text><rect fill="#FEFECE" filter="url(#fb1kc5x5i7vcz)" height="30.2969" style="stroke: #A80036; stroke-width: 1.5;" width="125" x="338.5" y="879.5547"/><text fill="#000000" font-family="sans-serif" font-size="14" lengthAdjust="spacingAndGlyphs" textLength="111" x="345.5" y="899.5498">:FE_Component</text><rect fill="#FEFECE" filter="url(#fb1kc5x5i7vcz)" height="30.2969" style="stroke: #A80036; stroke-width: 1.5;" width="93" x="508.5" y="51"/><text fill="#000000" font-family="sans-serif" font-size="14" lengthAdjust="spacingAndGlyphs" textLength="79" x="515.5" y="70.9951">:FE_Service</text><rect fill="#FEFECE" filter="url(#fb1kc5x5i7vcz)" height="30.2969" style="stroke: #A80036; stroke-width: 1.5;" width="93" x="508.5" y="879.5547"/><text fill="#000000" font-family="sans-serif" font-size="14" lengthAdjust="spacingAndGlyphs" textLength="79" x="515.5" y="899.5498">:FE_Service</text><rect fill="#FEFECE" filter="url(#fb1kc5x5i7vcz)" height="30.2969" style="stroke: #A80036; stroke-width: 1.5;" width="73" x="639.5" y="51"/><text fill="#000000" font-family="sans-serif" font-size="14" lengthAdjust="spacingAndGlyphs" textLength="59" x="646.5" y="70.9951">:Routing</text><rect fill="#FEFECE" filter="url(#fb1kc5x5i7vcz)" height="30.2969" style="stroke: #A80036; stroke-width: 1.5;" width="73" x="639.5" y="879.5547"/><text fill="#000000" font-family="sans-serif" font-size="14" lengthAdjust="spacingAndGlyphs" textLength="59" x="646.5" y="899.5498">:Routing</text><rect fill="#FEFECE" filter="url(#fb1kc5x5i7vcz)" height="30.2969" style="stroke: #A80036; stroke-width: 1.5;" width="141" x="755.5" y="51"/><text fill="#000000" font-family="sans-serif" font-size="14" lengthAdjust="spacingAndGlyphs" textLength="127" x="762.5" y="70.9951">:BuildingController</text><rect fill="#FEFECE" filter="url(#fb1kc5x5i7vcz)" height="30.2969" style="stroke: #A80036; stroke-width: 1.5;" width="141" x="755.5" y="879.5547"/><text fill="#000000" font-family="sans-serif" font-size="14" lengthAdjust="spacingAndGlyphs" textLength="127" x="762.5" y="899.5498">:BuildingController</text><rect fill="#FEFECE" filter="url(#fb1kc5x5i7vcz)" height="30.2969" style="stroke: #A80036; stroke-width: 1.5;" width="124" x="996" y="51"/><text fill="#000000" font-family="sans-serif" font-size="14" lengthAdjust="spacingAndGlyphs" textLength="110" x="1003" y="70.9951">:BuildingService</text><rect fill="#FEFECE" filter="url(#fb1kc5x5i7vcz)" height="30.2969" style="stroke: #A80036; stroke-width: 1.5;" width="124" x="996" y="879.5547"/><text fill="#000000" font-family="sans-serif" font-size="14" lengthAdjust="spacingAndGlyphs" textLength="110" x="1003" y="899.5498">:BuildingService</text><rect fill="#FEFECE" filter="url(#fb1kc5x5i7vcz)" height="30.2969" style="stroke: #A80036; stroke-width: 1.5;" width="111" x="1234.5" y="51"/><text fill="#000000" font-family="sans-serif" font-size="14" lengthAdjust="spacingAndGlyphs" textLength="97" x="1241.5" y="70.9951">:BuildingRepo</text><rect fill="#FEFECE" filter="url(#fb1kc5x5i7vcz)" height="30.2969" style="stroke: #A80036; stroke-width: 1.5;" width="111" x="1234.5" y="879.5547"/><text fill="#000000" font-family="sans-serif" font-size="14" lengthAdjust="spacingAndGlyphs" textLength="97" x="1241.5" y="899.5498">:BuildingRepo</text><text fill="#000000" font-family="sans-serif" font-size="14" lengthAdjust="spacingAndGlyphs" textLength="66" x="1397" y="82.9951">Database</text><path d="M1415,34 C1415,24 1433,24 1433,24 C1433,24 1451,24 1451,34 L1451,60 C1451,70 1433,70 1433,70 C1433,70 1415,70 1415,60 L1415,34 " fill="#FEFECE" filter="url(#fb1kc5x5i7vcz)" style="stroke: #000000; stroke-width: 1.5;"/><path d="M1415,34 C1415,44 1433,44 1433,44 C1433,44 1451,44 1451,34 " fill="none" style="stroke: #000000; stroke-width: 1.5;"/><text fill="#000000" font-family="sans-serif" font-size="14" lengthAdjust="spacingAndGlyphs" textLength="66" x="1397" y="892.5498">Database</text><path d="M1415,905.8516 C1415,895.8516 1433,895.8516 1433,895.8516 C1433,895.8516 1451,895.8516 1451,905.8516 L1451,931.8516 C1451,941.8516 1433,941.8516 1433,941.8516 C1433,941.8516 1415,941.8516 1415,931.8516 L1415,905.8516 " fill="#FEFECE" filter="url(#fb1kc5x5i7vcz)" style="stroke: #000000; stroke-width: 1.5;"/><path d="M1415,905.8516 C1415,915.8516 1433,915.8516 1433,915.8516 C1433,915.8516 1451,915.8516 1451,905.8516 " fill="none" style="stroke: #000000; stroke-width: 1.5;"/><rect fill="#FFFFFF" filter="url(#fb1kc5x5i7vcz)" height="774.2578" style="stroke: #A80036; stroke-width: 1.0;" width="10" x="37" y="96.2969"/><rect fill="#FFFFFF" filter="url(#fb1kc5x5i7vcz)" height="679.8594" style="stroke: #A80036; stroke-width: 1.0;" width="10" x="251" y="175.6953"/><rect fill="#FFFFFF" filter="url(#fb1kc5x5i7vcz)" height="621.5938" style="stroke: #A80036; stroke-width: 1.0;" width="10" x="398" y="204.8281"/><rect fill="#FFFFFF" filter="url(#fb1kc5x5i7vcz)" height="563.3281" style="stroke: #A80036; stroke-width: 1.0;" width="10" x="552" y="233.9609"/><rect fill="#FFFFFF" filter="url(#fb1kc5x5i7vcz)" height="505.0625" style="stroke: #A80036; stroke-width: 1.0;" width="10" x="673" y="263.0938"/><rect fill="#FFFFFF" filter="url(#fb1kc5x5i7vcz)" height="446.7969" style="stroke: #A80036; stroke-width: 1.0;" width="10" x="823" y="292.2266"/><rect fill="#FFFFFF" filter="url(#fb1kc5x5i7vcz)" height="388.5313" style="stroke: #A80036; stroke-width: 1.0;" width="10" x="1055" y="321.3594"/><rect fill="#FFFFFF" filter="url(#fb1kc5x5i7vcz)" height="330.2656" style="stroke: #A80036; stroke-width: 1.0;" width="10" x="1287" y="350.4922"/><rect fill="#FFFFFF" filter="url(#fb1kc5x5i7vcz)" height="29.1328" style="stroke: #A80036; stroke-width: 1.0;" width="10" x="1428" y="403.7578"/><polygon fill="#A80036" points="244,113.4297,254,117.4297,244,121.4297,248,117.4297" style="stroke: #A80036; stroke-width: 1.0;"/><line style="stroke: #A80036; stroke-width: 1.0;" x1="47" x2="250" y1="117.4297" y2="117.4297"/><text fill="#000000" font-family="sans-serif" font-size="13" font-weight="bold" lengthAdjust="spacingAndGlyphs" textLength="9" x="54" y="112.3638">1</text><text fill="#000000" font-family="sans-serif" font-size="13" lengthAdjust="spacingAndGlyphs" textLength="172" x="67" y="112.3638">Select a Building to update</text><polygon fill="#A80036" points="58,142.5625,48,146.5625,58,150.5625,54,146.5625" style="stroke: #A80036; stroke-width: 1.0;"/><line style="stroke: #A80036; stroke-width: 1.0;" x1="52" x2="255" y1="146.5625" y2="146.5625"/><text fill="#000000" font-family="sans-serif" font-size="13" font-weight="bold" lengthAdjust="spacingAndGlyphs" textLength="9" x="64" y="141.4966">2</text><text fill="#000000" font-family="sans-serif" font-size="13" lengthAdjust="spacingAndGlyphs" textLength="168" x="77" y="141.4966">Request new Building data</text><polygon fill="#A80036" points="239,171.6953,249,175.6953,239,179.6953,243,175.6953" style="stroke: #A80036; stroke-width: 1.0;"/><line style="stroke: #A80036; stroke-width: 1.0;" x1="47" x2="245" y1="175.6953" y2="175.6953"/><text fill="#000000" font-family="sans-serif" font-size="13" font-weight="bold" lengthAdjust="spacingAndGlyphs" textLength="9" x="54" y="170.6294">3</text><text fill="#000000" font-family="sans-serif" font-size="13" lengthAdjust="spacingAndGlyphs" textLength="123" x="67" y="170.6294">Insert the new data</text><polygon fill="#A80036" points="386,200.8281,396,204.8281,386,208.8281,390,204.8281" style="stroke: #A80036; stroke-width: 1.0;"/><line style="stroke: #A80036; stroke-width: 1.0;" x1="261" x2="392" y1="204.8281" y2="204.8281"/><text fill="#000000" font-family="sans-serif" font-size="13" font-weight="bold" lengthAdjust="spacingAndGlyphs" textLength="9" x="268" y="199.7622">4</text><text fill="#000000" font-family="sans-serif" font-size="13" lengthAdjust="spacingAndGlyphs" textLength="105" x="281" y="199.7622">updateBuilding()</text><polygon fill="#A80036" points="540,229.9609,550,233.9609,540,237.9609,544,233.9609" style="stroke: #A80036; stroke-width: 1.0;"/><line style="stroke: #A80036; stroke-width: 1.0;" x1="408" x2="546" y1="233.9609" y2="233.9609"/><text fill="#000000" font-family="sans-serif" font-size="13" font-weight="bold" lengthAdjust="spacingAndGlyphs" textLength="9" x="415" y="228.895">5</text><text fill="#000000" font-family="sans-serif" font-size="13" lengthAdjust="spacingAndGlyphs" textLength="112" x="428" y="228.895">updateBuildings()</text><polygon fill="#A80036" points="661,259.0938,671,263.0938,661,267.0938,665,263.0938" style="stroke: #A80036; stroke-width: 1.0;"/><line style="stroke: #A80036; stroke-width: 1.0;" x1="562" x2="667" y1="263.0938" y2="263.0938"/><text fill="#000000" font-family="sans-serif" font-size="13" font-weight="bold" lengthAdjust="spacingAndGlyphs" textLength="9" x="569" y="258.0278">6</text><text fill="#000000" font-family="sans-serif" font-size="13" lengthAdjust="spacingAndGlyphs" textLength="79" x="582" y="258.0278">GET route{}</text><polygon fill="#A80036" points="811,288.2266,821,292.2266,811,296.2266,815,292.2266" style="stroke: #A80036; stroke-width: 1.0;"/><line style="stroke: #A80036; stroke-width: 1.0;" x1="683" x2="817" y1="292.2266" y2="292.2266"/><text fill="#000000" font-family="sans-serif" font-size="13" font-weight="bold" lengthAdjust="spacingAndGlyphs" textLength="9" x="690" y="287.1606">7</text><text fill="#000000" font-family="sans-serif" font-size="13" lengthAdjust="spacingAndGlyphs" textLength="108" x="703" y="287.1606">HTTP PUT/PATCH</text><polygon fill="#A80036" points="1043,317.3594,1053,321.3594,1043,325.3594,1047,321.3594" style="stroke: #A80036; stroke-width: 1.0;"/><line style="stroke: #A80036; stroke-width: 1.0;" x1="833" x2="1049" y1="321.3594" y2="321.3594"/><text fill="#000000" font-family="sans-serif" font-size="13" font-weight="bold" lengthAdjust="spacingAndGlyphs" textLength="9" x="840" y="316.2935">8</text><text fill="#000000" font-family="sans-serif" font-size="13" lengthAdjust="spacingAndGlyphs" textLength="105" x="853" y="316.2935">updateBuilding()</text><polygon fill="#A80036" points="1275,346.4922,1285,350.4922,1275,354.4922,1279,350.4922" style="stroke: #A80036; stroke-width: 1.0;"/><line style="stroke: #A80036; stroke-width: 1.0;" x1="1065" x2="1281" y1="350.4922" y2="350.4922"/><text fill="#000000" font-family="sans-serif" font-size="13" font-weight="bold" lengthAdjust="spacingAndGlyphs" textLength="9" x="1072" y="345.4263">9</text><text fill="#000000" font-family="sans-serif" font-size="13" lengthAdjust="spacingAndGlyphs" textLength="105" x="1085" y="345.4263">updateBuilding()</text><path d="M13,365.4922 L77,365.4922 L77,372.4922 L67,382.4922 L13,382.4922 L13,365.4922 " fill="#EEEEEE" style="stroke: #000000; stroke-width: 1.0;"/><rect fill="none" height="498.0625" style="stroke: #000000; stroke-width: 2.0;" width="1466" x="13" y="365.4922"/><text fill="#000000" font-family="sans-serif" font-size="13" font-weight="bold" lengthAdjust="spacingAndGlyphs" textLength="19" x="28" y="378.5591">alt</text><text fill="#000000" font-family="sans-serif" font-size="11" font-weight="bold" lengthAdjust="spacingAndGlyphs" textLength="54" x="92" y="377.7026">[sucess]</text><polygon fill="#A80036" points="1416,399.7578,1426,403.7578,1416,407.7578,1420,403.7578" style="stroke: #A80036; stroke-width: 1.0;"/><line style="stroke: #A80036; stroke-width: 1.0;" x1="1297" x2="1422" y1="403.7578" y2="403.7578"/><text fill="#000000" font-family="sans-serif" font-size="13" font-weight="bold" lengthAdjust="spacingAndGlyphs" textLength="18" x="1304" y="398.6919">10</text><text fill="#000000" font-family="sans-serif" font-size="13" lengthAdjust="spacingAndGlyphs" textLength="90" x="1326" y="398.6919">save(Building)</text><polygon fill="#A80036" points="1308,428.8906,1298,432.8906,1308,436.8906,1304,432.8906" style="stroke: #A80036; stroke-width: 1.0;"/><line style="stroke: #A80036; stroke-width: 1.0; stroke-dasharray: 2.0,2.0;" x1="1302" x2="1432" y1="432.8906" y2="432.8906"/><text fill="#000000" font-family="sans-serif" font-size="13" font-weight="bold" lengthAdjust="spacingAndGlyphs" textLength="18" x="1314" y="427.8247">11</text><text fill="#000000" font-family="sans-serif" font-size="13" lengthAdjust="spacingAndGlyphs" textLength="44" x="1336" y="427.8247">sucess</text><polygon fill="#A80036" points="1076,458.0234,1066,462.0234,1076,466.0234,1072,462.0234" style="stroke: #A80036; stroke-width: 1.0;"/><line style="stroke: #A80036; stroke-width: 1.0;" x1="1070" x2="1286" y1="462.0234" y2="462.0234"/><text fill="#000000" font-family="sans-serif" font-size="13" font-weight="bold" lengthAdjust="spacingAndGlyphs" textLength="18" x="1082" y="456.9575">12</text><text fill="#000000" font-family="sans-serif" font-size="13" lengthAdjust="spacingAndGlyphs" textLength="44" x="1104" y="456.9575">sucess</text><polygon fill="#A80036" points="844,487.1563,834,491.1563,844,495.1563,840,491.1563" style="stroke: #A80036; stroke-width: 1.0;"/><line style="stroke: #A80036; stroke-width: 1.0;" x1="838" x2="1054" y1="491.1563" y2="491.1563"/><text fill="#000000" font-family="sans-serif" font-size="13" font-weight="bold" lengthAdjust="spacingAndGlyphs" textLength="18" x="850" y="486.0903">13</text><text fill="#000000" font-family="sans-serif" font-size="13" lengthAdjust="spacingAndGlyphs" textLength="44" x="872" y="486.0903">sucess</text><polygon fill="#A80036" points="694,516.2891,684,520.2891,694,524.2891,690,520.2891" style="stroke: #A80036; stroke-width: 1.0;"/><line style="stroke: #A80036; stroke-width: 1.0; stroke-dasharray: 2.0,2.0;" x1="688" x2="822" y1="520.2891" y2="520.2891"/><text fill="#000000" font-family="sans-serif" font-size="13" font-weight="bold" lengthAdjust="spacingAndGlyphs" textLength="18" x="700" y="515.2231">14</text><text fill="#000000" font-family="sans-serif" font-size="13" lengthAdjust="spacingAndGlyphs" textLength="64" x="722" y="515.2231">HTTP: 201</text><polygon fill="#A80036" points="573,545.4219,563,549.4219,573,553.4219,569,549.4219" style="stroke: #A80036; stroke-width: 1.0;"/><line style="stroke: #A80036; stroke-width: 1.0; stroke-dasharray: 2.0,2.0;" x1="567" x2="672" y1="549.4219" y2="549.4219"/><text fill="#000000" font-family="sans-serif" font-size="13" font-weight="bold" lengthAdjust="spacingAndGlyphs" textLength="18" x="579" y="544.356">15</text><text fill="#000000" font-family="sans-serif" font-size="13" lengthAdjust="spacingAndGlyphs" textLength="64" x="601" y="544.356">HTTP: 201</text><polygon fill="#A80036" points="419,574.5547,409,578.5547,419,582.5547,415,578.5547" style="stroke: #A80036; stroke-width: 1.0;"/><line style="stroke: #A80036; stroke-width: 1.0; stroke-dasharray: 2.0,2.0;" x1="413" x2="551" y1="578.5547" y2="578.5547"/><text fill="#000000" font-family="sans-serif" font-size="13" font-weight="bold" lengthAdjust="spacingAndGlyphs" textLength="18" x="425" y="573.4888">16</text><text fill="#000000" font-family="sans-serif" font-size="13" lengthAdjust="spacingAndGlyphs" textLength="64" x="447" y="573.4888">HTTP: 201</text><polygon fill="#A80036" points="272,603.6875,262,607.6875,272,611.6875,268,607.6875" style="stroke: #A80036; stroke-width: 1.0;"/><line style="stroke: #A80036; stroke-width: 1.0; stroke-dasharray: 2.0,2.0;" x1="266" x2="397" y1="607.6875" y2="607.6875"/><text fill="#000000" font-family="sans-serif" font-size="13" font-weight="bold" lengthAdjust="spacingAndGlyphs" textLength="18" x="278" y="602.6216">17</text><text fill="#000000" font-family="sans-serif" font-size="13" lengthAdjust="spacingAndGlyphs" textLength="64" x="300" y="602.6216">HTTP: 201</text><polygon fill="#A80036" points="58,632.8203,48,636.8203,58,640.8203,54,636.8203" style="stroke: #A80036; stroke-width: 1.0;"/><line style="stroke: #A80036; stroke-width: 1.0; stroke-dasharray: 2.0,2.0;" x1="52" x2="250" y1="636.8203" y2="636.8203"/><text fill="#000000" font-family="sans-serif" font-size="13" font-weight="bold" lengthAdjust="spacingAndGlyphs" textLength="18" x="64" y="631.7544">18</text><text fill="#000000" font-family="sans-serif" font-size="13" lengthAdjust="spacingAndGlyphs" textLength="143" x="86" y="631.7544">show Sucess Message</text><line style="stroke: #000000; stroke-width: 1.0; stroke-dasharray: 2.0,2.0;" x1="13" x2="1479" y1="645.8203" y2="645.8203"/><text fill="#000000" font-family="sans-serif" font-size="11" font-weight="bold" lengthAdjust="spacingAndGlyphs" textLength="5" x="18" y="656.0308">[</text><text fill="#000000" font-family="sans-serif" font-size="11" font-weight="bold" lengthAdjust="spacingAndGlyphs" textLength="47" x="50" y="656.0308">failure]</text><polygon fill="#A80036" points="1076,676.7578,1066,680.7578,1076,684.7578,1072,680.7578" style="stroke: #A80036; stroke-width: 1.0;"/><line style="stroke: #A80036; stroke-width: 1.0; stroke-dasharray: 2.0,2.0;" x1="1070" x2="1291" y1="680.7578" y2="680.7578"/><text fill="#000000" font-family="sans-serif" font-size="13" font-weight="bold" lengthAdjust="spacingAndGlyphs" textLength="18" x="1082" y="675.6919">19</text><text fill="#000000" font-family="sans-serif" font-size="13" lengthAdjust="spacingAndGlyphs" textLength="176" x="1104" y="675.6919">Error('Internal Server Error')</text><polygon fill="#A80036" points="844,705.8906,834,709.8906,844,713.8906,840,709.8906" style="stroke: #A80036; stroke-width: 1.0;"/><line style="stroke: #A80036; stroke-width: 1.0;" x1="838" x2="1059" y1="709.8906" y2="709.8906"/><text fill="#000000" font-family="sans-serif" font-size="13" font-weight="bold" lengthAdjust="spacingAndGlyphs" textLength="18" x="850" y="704.8247">20</text><text fill="#000000" font-family="sans-serif" font-size="13" lengthAdjust="spacingAndGlyphs" textLength="176" x="872" y="704.8247">Error('Internal Server Error')</text><polygon fill="#A80036" points="694,735.0234,684,739.0234,694,743.0234,690,739.0234" style="stroke: #A80036; stroke-width: 1.0;"/><line style="stroke: #A80036; stroke-width: 1.0; stroke-dasharray: 2.0,2.0;" x1="688" x2="827" y1="739.0234" y2="739.0234"/><text fill="#000000" font-family="sans-serif" font-size="13" font-weight="bold" lengthAdjust="spacingAndGlyphs" textLength="18" x="700" y="733.9575">21</text><text fill="#000000" font-family="sans-serif" font-size="13" lengthAdjust="spacingAndGlyphs" textLength="64" x="722" y="733.9575">HTTP: 500</text><polygon fill="#A80036" points="573,764.1563,563,768.1563,573,772.1563,569,768.1563" style="stroke: #A80036; stroke-width: 1.0;"/><line style="stroke: #A80036; stroke-width: 1.0; stroke-dasharray: 2.0,2.0;" x1="567" x2="677" y1="768.1563" y2="768.1563"/><text fill="#000000" font-family="sans-serif" font-size="13" font-weight="bold" lengthAdjust="spacingAndGlyphs" textLength="18" x="579" y="763.0903">22</text><text fill="#000000" font-family="sans-serif" font-size="13" lengthAdjust="spacingAndGlyphs" textLength="64" x="601" y="763.0903">HTTP: 500</text><polygon fill="#A80036" points="419,793.2891,409,797.2891,419,801.2891,415,797.2891" style="stroke: #A80036; stroke-width: 1.0;"/><line style="stroke: #A80036; stroke-width: 1.0; stroke-dasharray: 2.0,2.0;" x1="413" x2="556" y1="797.2891" y2="797.2891"/><text fill="#000000" font-family="sans-serif" font-size="13" font-weight="bold" lengthAdjust="spacingAndGlyphs" textLength="18" x="425" y="792.2231">23</text><text fill="#000000" font-family="sans-serif" font-size="13" lengthAdjust="spacingAndGlyphs" textLength="64" x="447" y="792.2231">HTTP: 500</text><polygon fill="#A80036" points="272,822.4219,262,826.4219,272,830.4219,268,826.4219" style="stroke: #A80036; stroke-width: 1.0;"/><line style="stroke: #A80036; stroke-width: 1.0; stroke-dasharray: 2.0,2.0;" x1="266" x2="402" y1="826.4219" y2="826.4219"/><text fill="#000000" font-family="sans-serif" font-size="13" font-weight="bold" lengthAdjust="spacingAndGlyphs" textLength="18" x="278" y="821.356">24</text><text fill="#000000" font-family="sans-serif" font-size="13" lengthAdjust="spacingAndGlyphs" textLength="64" x="300" y="821.356">HTTP: 500</text><polygon fill="#A80036" points="58,851.5547,48,855.5547,58,859.5547,54,855.5547" style="stroke: #A80036; stroke-width: 1.0;"/><line style="stroke: #A80036; stroke-width: 1.0; stroke-dasharray: 2.0,2.0;" x1="52" x2="255" y1="855.5547" y2="855.5547"/><text fill="#000000" font-family="sans-serif" font-size="13" font-weight="bold" lengthAdjust="spacingAndGlyphs" textLength="18" x="64" y="850.4888">25</text><text fill="#000000" font-family="sans-serif" font-size="13" lengthAdjust="spacingAndGlyphs" textLength="138" x="86" y="850.4888">show failure message</text><!--MD5=[7641e9c825695eac2330bdee547cb7a5]
@startuml
autonumber
actor "User" as user

participant ":View" as sys
participant ":FE_Component" as comp
participant ":FE_Service" as FEsrvc
participant ":Routing" as route
participant ":BuildingController" as ctrl
participant ":BuildingService" as srvc
participant ":BuildingRepo" as repo


database "Database" as db

activate user
 user -> sys: Select a Building to update
 sys -> user: Request new Building data
 user -> sys: Insert the new data
activate sys
sys -> comp : updateBuilding()
activate comp
comp -> FEsrvc : updateBuildings()
activate FEsrvc
FEsrvc -> route: GET route{}
activate route
route -> ctrl: HTTP PUT/PATCH
activate ctrl
ctrl -> srvc: updateBuilding()
activate srvc
srvc -> repo: updateBuilding()




alt sucess
    activate repo
    repo -> db: save(Building)
    activate db
    db - -> repo: sucess
    deactivate db
    repo -> srvc: sucess
    
    srvc -> ctrl: sucess
    ctrl - -> route : HTTP: 201
    route - -> FEsrvc: HTTP: 201
    FEsrvc - -> comp: HTTP: 201
    comp - -> sys: HTTP: 201
    sys - -> user: show Sucess Message
else \tfailure
    repo - -> srvc: Error('Internal Server Error')
    deactivate repo
    srvc -> ctrl: Error('Internal Server Error')
    deactivate srvc
    ctrl - -> route : HTTP: 500
    deactivate ctrl
    route - -> FEsrvc: HTTP: 500
    deactivate route
    FEsrvc - -> comp: HTTP: 500
    deactivate FEsrvc 
    comp - -> sys: HTTP: 500
    deactivate comp
    sys - -> user: show failure message
    deactivate sys
end


deactivate repo
deactivate ctrl
deactivate route
deactivate FEsrvc
deactivate comp
deactivate sys
deactivate user
@enduml

PlantUML version 1.2020.02(Sun Mar 01 10:22:07 UTC 2020)
(GPL source distribution)
Java Runtime: OpenJDK Runtime Environment
JVM: OpenJDK 64-Bit Server VM
Java Version: 11.0.21+9
Operating System: Linux
Default Encoding: UTF-8
Language: en
Country: null
--></g></svg>