<?xml version="1.0" encoding="UTF-8" standalone="no"?><svg xmlns="http://www.w3.org/2000/svg" xmlns:xlink="http://www.w3.org/1999/xlink" contentStyleType="text/css" height="476px" preserveAspectRatio="none" style="width:753px;height:476px;background:#FFFFFF;" version="1.1" viewBox="0 0 753 476" width="753px" zoomAndPan="magnify"><defs/><g><rect fill="#FFFFFF" height="288.75" style="stroke:#181818;stroke-width:1.0;" width="10" x="250.5" y="98.7988"/><rect fill="#FFFFFF" height="146.5527" style="stroke:#181818;stroke-width:1.0;" width="10" x="382.5" y="128.1094"/><rect fill="#FFFFFF" height="87.9316" style="stroke:#181818;stroke-width:1.0;" width="10" x="509.5" y="157.4199"/><rect fill="#FFFFFF" height="29.3105" style="stroke:#181818;stroke-width:1.0;" width="10" x="713" y="186.7305"/><rect fill="none" height="90.8867" style="stroke:#000000;stroke-width:1.5;" width="317.5" x="10" y="289.6621"/><line style="stroke:#181818;stroke-width:0.5;stroke-dasharray:5.0,5.0;" x1="42" x2="42" y1="67.4883" y2="397.5488"/><line style="stroke:#181818;stroke-width:0.5;stroke-dasharray:5.0,5.0;" x1="255.5" x2="255.5" y1="67.4883" y2="397.5488"/><line style="stroke:#181818;stroke-width:0.5;stroke-dasharray:5.0,5.0;" x1="387.5" x2="387.5" y1="67.4883" y2="397.5488"/><line style="stroke:#181818;stroke-width:0.5;stroke-dasharray:5.0,5.0;" x1="514.5" x2="514.5" y1="67.4883" y2="397.5488"/><line style="stroke:#181818;stroke-width:0.5;stroke-dasharray:5.0,5.0;" x1="624.5" x2="624.5" y1="67.4883" y2="397.5488"/><line style="stroke:#181818;stroke-width:0.5;stroke-dasharray:5.0,5.0;" x1="717.5" x2="717.5" y1="67.4883" y2="397.5488"/><rect fill="#E2E2F0" height="30.4883" rx="2.5" ry="2.5" style="stroke:#181818;stroke-width:0.5;" width="45" x="20" y="36"/><text fill="#000000" font-family="sans-serif" font-size="14" lengthAdjust="spacing" textLength="31" x="27" y="56.5352">User</text><rect fill="#E2E2F0" height="30.4883" rx="2.5" ry="2.5" style="stroke:#181818;stroke-width:0.5;" width="45" x="20" y="396.5488"/><text fill="#000000" font-family="sans-serif" font-size="14" lengthAdjust="spacing" textLength="31" x="27" y="417.084">User</text><rect fill="#E2E2F0" height="30.4883" rx="2.5" ry="2.5" style="stroke:#181818;stroke-width:0.5;" width="124" x="193.5" y="36"/><text fill="#000000" font-family="sans-serif" font-size="14" lengthAdjust="spacing" textLength="110" x="200.5" y="56.5352">IFloorController</text><rect fill="#E2E2F0" height="30.4883" rx="2.5" ry="2.5" style="stroke:#181818;stroke-width:0.5;" width="124" x="193.5" y="396.5488"/><text fill="#000000" font-family="sans-serif" font-size="14" lengthAdjust="spacing" textLength="110" x="200.5" y="417.084">IFloorController</text><rect fill="#E2E2F0" height="30.4883" rx="2.5" ry="2.5" style="stroke:#181818;stroke-width:0.5;" width="120" x="327.5" y="36"/><text fill="#000000" font-family="sans-serif" font-size="14" lengthAdjust="spacing" textLength="106" x="334.5" y="56.5352">FloorController</text><rect fill="#E2E2F0" height="30.4883" rx="2.5" ry="2.5" style="stroke:#181818;stroke-width:0.5;" width="120" x="327.5" y="396.5488"/><text fill="#000000" font-family="sans-serif" font-size="14" lengthAdjust="spacing" textLength="106" x="334.5" y="417.084">FloorController</text><rect fill="#E2E2F0" height="30.4883" rx="2.5" ry="2.5" style="stroke:#181818;stroke-width:0.5;" width="102" x="463.5" y="36"/><text fill="#000000" font-family="sans-serif" font-size="14" lengthAdjust="spacing" textLength="88" x="470.5" y="56.5352">IFloorService</text><rect fill="#E2E2F0" height="30.4883" rx="2.5" ry="2.5" style="stroke:#181818;stroke-width:0.5;" width="102" x="463.5" y="396.5488"/><text fill="#000000" font-family="sans-serif" font-size="14" lengthAdjust="spacing" textLength="88" x="470.5" y="417.084">IFloorService</text><rect fill="#E2E2F0" height="30.4883" rx="2.5" ry="2.5" style="stroke:#181818;stroke-width:0.5;" width="98" x="575.5" y="36"/><text fill="#000000" font-family="sans-serif" font-size="14" lengthAdjust="spacing" textLength="84" x="582.5" y="56.5352">FloorService</text><rect fill="#E2E2F0" height="30.4883" rx="2.5" ry="2.5" style="stroke:#181818;stroke-width:0.5;" width="98" x="575.5" y="396.5488"/><text fill="#000000" font-family="sans-serif" font-size="14" lengthAdjust="spacing" textLength="84" x="582.5" y="417.084">FloorService</text><text fill="#000000" font-family="sans-serif" font-size="14" lengthAdjust="spacing" textLength="63" x="683.5" y="64.5352">Database</text><path d="M700,15 C700,5 718,5 718,5 C718,5 736,5 736,15 L736,41 C736,51 718,51 718,51 C718,51 700,51 700,41 L700,15 " fill="#E2E2F0" style="stroke:#181818;stroke-width:1.5;"/><path d="M700,15 C700,25 718,25 718,25 C718,25 736,25 736,15 " fill="none" style="stroke:#181818;stroke-width:1.5;"/><text fill="#000000" font-family="sans-serif" font-size="14" lengthAdjust="spacing" textLength="63" x="683.5" y="410.084">Database</text><path d="M700,423.0371 C700,413.0371 718,413.0371 718,413.0371 C718,413.0371 736,413.0371 736,423.0371 L736,449.0371 C736,459.0371 718,459.0371 718,459.0371 C718,459.0371 700,459.0371 700,449.0371 L700,423.0371 " fill="#E2E2F0" style="stroke:#181818;stroke-width:1.5;"/><path d="M700,423.0371 C700,433.0371 718,433.0371 718,433.0371 C718,433.0371 736,433.0371 736,423.0371 " fill="none" style="stroke:#181818;stroke-width:1.5;"/><rect fill="#FFFFFF" height="288.75" style="stroke:#181818;stroke-width:1.0;" width="10" x="250.5" y="98.7988"/><rect fill="#FFFFFF" height="146.5527" style="stroke:#181818;stroke-width:1.0;" width="10" x="382.5" y="128.1094"/><rect fill="#FFFFFF" height="87.9316" style="stroke:#181818;stroke-width:1.0;" width="10" x="509.5" y="157.4199"/><rect fill="#FFFFFF" height="29.3105" style="stroke:#181818;stroke-width:1.0;" width="10" x="713" y="186.7305"/><polygon fill="#181818" points="238.5,94.7988,248.5,98.7988,238.5,102.7988,242.5,98.7988" style="stroke:#181818;stroke-width:1.0;"/><line style="stroke:#181818;stroke-width:1.0;" x1="42.5" x2="244.5" y1="98.7988" y2="98.7988"/><text fill="#000000" font-family="sans-serif" font-size="13" lengthAdjust="spacing" textLength="156" x="49.5" y="94.0566">Request to create a Floor</text><polygon fill="#181818" points="370.5,124.1094,380.5,128.1094,370.5,132.1094,374.5,128.1094" style="stroke:#181818;stroke-width:1.0;"/><line style="stroke:#181818;stroke-width:1.0;" x1="260.5" x2="376.5" y1="128.1094" y2="128.1094"/><text fill="#000000" font-family="sans-serif" font-size="13" lengthAdjust="spacing" textLength="87" x="267.5" y="123.3672">Create a Floor</text><polygon fill="#181818" points="497.5,153.4199,507.5,157.4199,497.5,161.4199,501.5,157.4199" style="stroke:#181818;stroke-width:1.0;"/><line style="stroke:#181818;stroke-width:1.0;" x1="392.5" x2="503.5" y1="157.4199" y2="157.4199"/><text fill="#000000" font-family="sans-serif" font-size="13" lengthAdjust="spacing" textLength="98" x="399.5" y="152.6777">Handle Request</text><polygon fill="#181818" points="701,182.7305,711,186.7305,701,190.7305,705,186.7305" style="stroke:#181818;stroke-width:1.0;"/><line style="stroke:#181818;stroke-width:1.0;" x1="519.5" x2="707" y1="186.7305" y2="186.7305"/><text fill="#000000" font-family="sans-serif" font-size="13" lengthAdjust="spacing" textLength="109" x="526.5" y="181.9883">Create Floor Data</text><polygon fill="#181818" points="530.5,212.041,520.5,216.041,530.5,220.041,526.5,216.041" style="stroke:#181818;stroke-width:1.0;"/><line style="stroke:#181818;stroke-width:1.0;stroke-dasharray:2.0,2.0;" x1="524.5" x2="717" y1="216.041" y2="216.041"/><text fill="#000000" font-family="sans-serif" font-size="13" lengthAdjust="spacing" textLength="39" x="536.5" y="211.2988">Result</text><polygon fill="#181818" points="403.5,241.3516,393.5,245.3516,403.5,249.3516,399.5,245.3516" style="stroke:#181818;stroke-width:1.0;"/><line style="stroke:#181818;stroke-width:1.0;stroke-dasharray:2.0,2.0;" x1="397.5" x2="513.5" y1="245.3516" y2="245.3516"/><text fill="#000000" font-family="sans-serif" font-size="13" lengthAdjust="spacing" textLength="39" x="409.5" y="240.6094">Result</text><polygon fill="#181818" points="271.5,270.6621,261.5,274.6621,271.5,278.6621,267.5,274.6621" style="stroke:#181818;stroke-width:1.0;"/><line style="stroke:#181818;stroke-width:1.0;stroke-dasharray:2.0,2.0;" x1="265.5" x2="386.5" y1="274.6621" y2="274.6621"/><text fill="#000000" font-family="sans-serif" font-size="13" lengthAdjust="spacing" textLength="39" x="277.5" y="269.9199">Result</text><path d="M10,289.6621 L72,289.6621 L72,296.9727 L62,306.9727 L10,306.9727 L10,289.6621 " fill="#EEEEEE" style="stroke:#000000;stroke-width:1.5;"/><rect fill="none" height="90.8867" style="stroke:#000000;stroke-width:1.5;" width="317.5" x="10" y="289.6621"/><text fill="#000000" font-family="sans-serif" font-size="13" font-weight="bold" lengthAdjust="spacing" textLength="17" x="25" y="303.2305">alt</text><text fill="#000000" font-family="sans-serif" font-size="11" font-weight="bold" lengthAdjust="spacing" textLength="106" x="87" y="302.2969">[Successful Result]</text><polygon fill="#181818" points="53.5,324.2832,43.5,328.2832,53.5,332.2832,49.5,328.2832" style="stroke:#181818;stroke-width:1.0;"/><line style="stroke:#181818;stroke-width:1.0;" x1="47.5" x2="249.5" y1="328.2832" y2="328.2832"/><text fill="#000000" font-family="sans-serif" font-size="13" lengthAdjust="spacing" textLength="161" x="59.5" y="323.541">HTTP 201 with Floor Data</text><line style="stroke:#000000;stroke-width:1.0;stroke-dasharray:2.0,2.0;" x1="10" x2="327.5" y1="337.2832" y2="337.2832"/><text fill="#000000" font-family="sans-serif" font-size="11" font-weight="bold" lengthAdjust="spacing" textLength="80" x="15" y="347.918">[Failed Result]</text><polygon fill="#181818" points="53.5,368.5488,43.5,372.5488,53.5,376.5488,49.5,372.5488" style="stroke:#181818;stroke-width:1.0;"/><line style="stroke:#181818;stroke-width:1.0;" x1="47.5" x2="249.5" y1="372.5488" y2="372.5488"/><text fill="#000000" font-family="sans-serif" font-size="13" lengthAdjust="spacing" textLength="184" x="59.5" y="367.8066">HTTP 400 with Error Message</text><!--MD5=[027f0943447d9bbe5e6002532bd61093]
@startuml sd

participant "User" as A
participant "IFloorController" as IB
participant "FloorController" as B
participant "IFloorService" as IC
participant "FloorService" as C
database "Database" as D


A -> IB: Request to create a Floor
activate IB
IB -> B: Create a Floor
activate B
B -> IC: Handle Request
activate IC
IC -> D: Create Floor Data
activate D
D - -> IC: Result
deactivate D
IC - -> B: Result
deactivate IC
B - -> IB: Result
deactivate B

alt Successful Result
    IB -> A: HTTP 201 with Floor Data
else Failed Result
    IB -> A: HTTP 400 with Error Message
end

deactivate IB
deactivate A

@enduml

PlantUML version 1.2022.7(Mon Aug 22 18:01:30 WEST 2022)
(GPL source distribution)
Java Runtime: OpenJDK Runtime Environment
JVM: OpenJDK 64-Bit Server VM
Default Encoding: UTF-8
Language: pt
Country: PT
--></g></svg>