<?xml version="1.0" encoding="UTF-8" standalone="no"?><svg xmlns="http://www.w3.org/2000/svg" xmlns:xlink="http://www.w3.org/1999/xlink" contentScriptType="application/ecmascript" contentStyleType="text/css" height="717px" preserveAspectRatio="none" style="width:1482px;height:717px;" version="1.1" viewBox="0 0 1482 717" width="1482px" zoomAndPan="magnify"><defs><filter height="300%" id="fyt9duiw5xg79" width="300%" x="-1" y="-1"><feGaussianBlur result="blurOut" stdDeviation="2.0"/><feColorMatrix in="blurOut" result="blurOut2" type="matrix" values="0 0 0 0 0 0 0 0 0 0 0 0 0 0 0 0 0 0 .4 0"/><feOffset dx="4.0" dy="4.0" in="blurOut2" result="blurOut3"/><feBlend in="SourceGraphic" in2="blurOut3" mode="normal"/></filter></defs><g><rect fill="#FFFFFF" filter="url(#fyt9duiw5xg79)" height="516.3906" style="stroke: #A80036; stroke-width: 1.0;" width="10" x="27.5" y="96.2969"/><rect fill="#FFFFFF" filter="url(#fyt9duiw5xg79)" height="495.2578" style="stroke: #A80036; stroke-width: 1.0;" width="10" x="249.5" y="117.4297"/><rect fill="#FFFFFF" filter="url(#fyt9duiw5xg79)" height="436.9922" style="stroke: #A80036; stroke-width: 1.0;" width="10" x="472.5" y="175.6953"/><rect fill="#FFFFFF" filter="url(#fyt9duiw5xg79)" height="407.8594" style="stroke: #A80036; stroke-width: 1.0;" width="10" x="658.5" y="204.8281"/><rect fill="#FFFFFF" filter="url(#fyt9duiw5xg79)" height="378.7266" style="stroke: #A80036; stroke-width: 1.0;" width="10" x="831.5" y="233.9609"/><rect fill="#FFFFFF" filter="url(#fyt9duiw5xg79)" height="349.5938" style="stroke: #A80036; stroke-width: 1.0;" width="10" x="1017.5" y="263.0938"/><rect fill="#FFFFFF" filter="url(#fyt9duiw5xg79)" height="329.4609" style="stroke: #A80036; stroke-width: 1.0;" width="10" x="1240.5" y="292.2266"/><rect fill="#FFFFFF" filter="url(#fyt9duiw5xg79)" height="291.3281" style="stroke: #A80036; stroke-width: 1.0;" width="10" x="1420.5" y="321.3594"/><line style="stroke: #A80036; stroke-width: 1.0; stroke-dasharray: 5.0,5.0;" x1="32" x2="32" y1="86.2969" y2="630.6875"/><line style="stroke: #A80036; stroke-width: 1.0; stroke-dasharray: 5.0,5.0;" x1="254" x2="254" y1="86.2969" y2="630.6875"/><line style="stroke: #A80036; stroke-width: 1.0; stroke-dasharray: 5.0,5.0;" x1="477" x2="477" y1="86.2969" y2="630.6875"/><line style="stroke: #A80036; stroke-width: 1.0; stroke-dasharray: 5.0,5.0;" x1="663" x2="663" y1="86.2969" y2="630.6875"/><line style="stroke: #A80036; stroke-width: 1.0; stroke-dasharray: 5.0,5.0;" x1="836" x2="836" y1="86.2969" y2="630.6875"/><line style="stroke: #A80036; stroke-width: 1.0; stroke-dasharray: 5.0,5.0;" x1="1022.5" x2="1022.5" y1="86.2969" y2="630.6875"/><line style="stroke: #A80036; stroke-width: 1.0; stroke-dasharray: 5.0,5.0;" x1="1245" x2="1245" y1="86.2969" y2="630.6875"/><line style="stroke: #A80036; stroke-width: 1.0; stroke-dasharray: 5.0,5.0;" x1="1425.5" x2="1425.5" y1="86.2969" y2="630.6875"/><text fill="#000000" font-family="sans-serif" font-size="14" lengthAdjust="spacingAndGlyphs" textLength="43" x="8" y="82.9951">Admin</text><ellipse cx="32.5" cy="13" fill="#FEFECE" filter="url(#fyt9duiw5xg79)" rx="8" ry="8" style="stroke: #A80036; stroke-width: 2.0;"/><path d="M32.5,21 L32.5,48 M19.5,29 L45.5,29 M32.5,48 L19.5,63 M32.5,48 L45.5,63 " fill="none" filter="url(#fyt9duiw5xg79)" style="stroke: #A80036; stroke-width: 2.0;"/><text fill="#000000" font-family="sans-serif" font-size="14" lengthAdjust="spacingAndGlyphs" textLength="43" x="8" y="642.6826">Admin</text><ellipse cx="32.5" cy="655.9844" fill="#FEFECE" filter="url(#fyt9duiw5xg79)" rx="8" ry="8" style="stroke: #A80036; stroke-width: 2.0;"/><path d="M32.5,663.9844 L32.5,690.9844 M19.5,671.9844 L45.5,671.9844 M32.5,690.9844 L19.5,705.9844 M32.5,690.9844 L45.5,705.9844 " fill="none" filter="url(#fyt9duiw5xg79)" style="stroke: #A80036; stroke-width: 2.0;"/><rect fill="#FEFECE" filter="url(#fyt9duiw5xg79)" height="30.2969" style="stroke: #A80036; stroke-width: 1.5;" width="51" x="227" y="51"/><text fill="#000000" font-family="sans-serif" font-size="14" lengthAdjust="spacingAndGlyphs" textLength="37" x="234" y="70.9951">:View</text><rect fill="#FEFECE" filter="url(#fyt9duiw5xg79)" height="30.2969" style="stroke: #A80036; stroke-width: 1.5;" width="51" x="227" y="629.6875"/><text fill="#000000" font-family="sans-serif" font-size="14" lengthAdjust="spacingAndGlyphs" textLength="37" x="234" y="649.6826">:View</text><rect fill="#FEFECE" filter="url(#fyt9duiw5xg79)" height="30.2969" style="stroke: #A80036; stroke-width: 1.5;" width="125" x="413" y="51"/><text fill="#000000" font-family="sans-serif" font-size="14" lengthAdjust="spacingAndGlyphs" textLength="111" x="420" y="70.9951">:FE_Component</text><rect fill="#FEFECE" filter="url(#fyt9duiw5xg79)" height="30.2969" style="stroke: #A80036; stroke-width: 1.5;" width="125" x="413" y="629.6875"/><text fill="#000000" font-family="sans-serif" font-size="14" lengthAdjust="spacingAndGlyphs" textLength="111" x="420" y="649.6826">:FE_Component</text><rect fill="#FEFECE" filter="url(#fyt9duiw5xg79)" height="30.2969" style="stroke: #A80036; stroke-width: 1.5;" width="109" x="607" y="51"/><text fill="#000000" font-family="sans-serif" font-size="14" lengthAdjust="spacingAndGlyphs" textLength="95" x="614" y="70.9951">IRobotService</text><rect fill="#FEFECE" filter="url(#fyt9duiw5xg79)" height="30.2969" style="stroke: #A80036; stroke-width: 1.5;" width="109" x="607" y="629.6875"/><text fill="#000000" font-family="sans-serif" font-size="14" lengthAdjust="spacingAndGlyphs" textLength="95" x="614" y="649.6826">IRobotService</text><rect fill="#FEFECE" filter="url(#fyt9duiw5xg79)" height="30.2969" style="stroke: #A80036; stroke-width: 1.5;" width="73" x="798" y="51"/><text fill="#000000" font-family="sans-serif" font-size="14" lengthAdjust="spacingAndGlyphs" textLength="59" x="805" y="70.9951">:Routing</text><rect fill="#FEFECE" filter="url(#fyt9duiw5xg79)" height="30.2969" style="stroke: #A80036; stroke-width: 1.5;" width="73" x="798" y="629.6875"/><text fill="#000000" font-family="sans-serif" font-size="14" lengthAdjust="spacingAndGlyphs" textLength="59" x="805" y="649.6826">:Routing</text><rect fill="#FEFECE" filter="url(#fyt9duiw5xg79)" height="30.2969" style="stroke: #A80036; stroke-width: 1.5;" width="126" x="957.5" y="51"/><text fill="#000000" font-family="sans-serif" font-size="14" lengthAdjust="spacingAndGlyphs" textLength="112" x="964.5" y="70.9951">IRobotController</text><rect fill="#FEFECE" filter="url(#fyt9duiw5xg79)" height="30.2969" style="stroke: #A80036; stroke-width: 1.5;" width="126" x="957.5" y="629.6875"/><text fill="#000000" font-family="sans-serif" font-size="14" lengthAdjust="spacingAndGlyphs" textLength="112" x="964.5" y="649.6826">IRobotController</text><rect fill="#FEFECE" filter="url(#fyt9duiw5xg79)" height="30.2969" style="stroke: #A80036; stroke-width: 1.5;" width="109" x="1189" y="51"/><text fill="#000000" font-family="sans-serif" font-size="14" lengthAdjust="spacingAndGlyphs" textLength="95" x="1196" y="70.9951">IRobotService</text><rect fill="#FEFECE" filter="url(#fyt9duiw5xg79)" height="30.2969" style="stroke: #A80036; stroke-width: 1.5;" width="109" x="1189" y="629.6875"/><text fill="#000000" font-family="sans-serif" font-size="14" lengthAdjust="spacingAndGlyphs" textLength="95" x="1196" y="649.6826">IRobotService</text><rect fill="#FEFECE" filter="url(#fyt9duiw5xg79)" height="30.2969" style="stroke: #A80036; stroke-width: 1.5;" width="96" x="1375.5" y="51"/><text fill="#000000" font-family="sans-serif" font-size="14" lengthAdjust="spacingAndGlyphs" textLength="82" x="1382.5" y="70.9951">IRobotRepo</text><rect fill="#FEFECE" filter="url(#fyt9duiw5xg79)" height="30.2969" style="stroke: #A80036; stroke-width: 1.5;" width="96" x="1375.5" y="629.6875"/><text fill="#000000" font-family="sans-serif" font-size="14" lengthAdjust="spacingAndGlyphs" textLength="82" x="1382.5" y="649.6826">IRobotRepo</text><rect fill="#FFFFFF" filter="url(#fyt9duiw5xg79)" height="516.3906" style="stroke: #A80036; stroke-width: 1.0;" width="10" x="27.5" y="96.2969"/><rect fill="#FFFFFF" filter="url(#fyt9duiw5xg79)" height="495.2578" style="stroke: #A80036; stroke-width: 1.0;" width="10" x="249.5" y="117.4297"/><rect fill="#FFFFFF" filter="url(#fyt9duiw5xg79)" height="436.9922" style="stroke: #A80036; stroke-width: 1.0;" width="10" x="472.5" y="175.6953"/><rect fill="#FFFFFF" filter="url(#fyt9duiw5xg79)" height="407.8594" style="stroke: #A80036; stroke-width: 1.0;" width="10" x="658.5" y="204.8281"/><rect fill="#FFFFFF" filter="url(#fyt9duiw5xg79)" height="378.7266" style="stroke: #A80036; stroke-width: 1.0;" width="10" x="831.5" y="233.9609"/><rect fill="#FFFFFF" filter="url(#fyt9duiw5xg79)" height="349.5938" style="stroke: #A80036; stroke-width: 1.0;" width="10" x="1017.5" y="263.0938"/><rect fill="#FFFFFF" filter="url(#fyt9duiw5xg79)" height="329.4609" style="stroke: #A80036; stroke-width: 1.0;" width="10" x="1240.5" y="292.2266"/><rect fill="#FFFFFF" filter="url(#fyt9duiw5xg79)" height="291.3281" style="stroke: #A80036; stroke-width: 1.0;" width="10" x="1420.5" y="321.3594"/><polygon fill="#A80036" points="237.5,113.4297,247.5,117.4297,237.5,121.4297,241.5,117.4297" style="stroke: #A80036; stroke-width: 1.0;"/><line style="stroke: #A80036; stroke-width: 1.0;" x1="37.5" x2="243.5" y1="117.4297" y2="117.4297"/><text fill="#000000" font-family="sans-serif" font-size="13" font-weight="bold" lengthAdjust="spacingAndGlyphs" textLength="9" x="44.5" y="112.3638">1</text><text fill="#000000" font-family="sans-serif" font-size="13" lengthAdjust="spacingAndGlyphs" textLength="180" x="57.5" y="112.3638">wants to change robot state</text><polygon fill="#A80036" points="48.5,142.5625,38.5,146.5625,48.5,150.5625,44.5,146.5625" style="stroke: #A80036; stroke-width: 1.0;"/><line style="stroke: #A80036; stroke-width: 1.0; stroke-dasharray: 2.0,2.0;" x1="42.5" x2="248.5" y1="146.5625" y2="146.5625"/><text fill="#000000" font-family="sans-serif" font-size="13" font-weight="bold" lengthAdjust="spacingAndGlyphs" textLength="9" x="54.5" y="141.4966">2</text><text fill="#000000" font-family="sans-serif" font-size="13" lengthAdjust="spacingAndGlyphs" textLength="104" x="67.5" y="141.4966">request robot ID</text><polygon fill="#A80036" points="237.5,171.6953,247.5,175.6953,237.5,179.6953,241.5,175.6953" style="stroke: #A80036; stroke-width: 1.0;"/><line style="stroke: #A80036; stroke-width: 1.0;" x1="37.5" x2="243.5" y1="175.6953" y2="175.6953"/><text fill="#000000" font-family="sans-serif" font-size="13" font-weight="bold" lengthAdjust="spacingAndGlyphs" textLength="9" x="44.5" y="170.6294">3</text><text fill="#000000" font-family="sans-serif" font-size="13" lengthAdjust="spacingAndGlyphs" textLength="109" x="57.5" y="170.6294">provides robot ID</text><polygon fill="#A80036" points="460.5,200.8281,470.5,204.8281,460.5,208.8281,464.5,204.8281" style="stroke: #A80036; stroke-width: 1.0;"/><line style="stroke: #A80036; stroke-width: 1.0;" x1="259.5" x2="466.5" y1="204.8281" y2="204.8281"/><text fill="#000000" font-family="sans-serif" font-size="13" font-weight="bold" lengthAdjust="spacingAndGlyphs" textLength="9" x="266.5" y="199.7622">4</text><text fill="#000000" font-family="sans-serif" font-size="13" lengthAdjust="spacingAndGlyphs" textLength="176" x="279.5" y="199.7622">changeRobotState(robotID)</text><polygon fill="#A80036" points="646.5,229.9609,656.5,233.9609,646.5,237.9609,650.5,233.9609" style="stroke: #A80036; stroke-width: 1.0;"/><line style="stroke: #A80036; stroke-width: 1.0;" x1="482.5" x2="652.5" y1="233.9609" y2="233.9609"/><text fill="#000000" font-family="sans-serif" font-size="13" font-weight="bold" lengthAdjust="spacingAndGlyphs" textLength="9" x="489.5" y="228.895">5</text><text fill="#000000" font-family="sans-serif" font-size="13" lengthAdjust="spacingAndGlyphs" textLength="139" x="502.5" y="228.895">changeState(robotID)</text><polygon fill="#A80036" points="819.5,259.0938,829.5,263.0938,819.5,267.0938,823.5,263.0938" style="stroke: #A80036; stroke-width: 1.0;"/><line style="stroke: #A80036; stroke-width: 1.0;" x1="668.5" x2="825.5" y1="263.0938" y2="263.0938"/><text fill="#000000" font-family="sans-serif" font-size="13" font-weight="bold" lengthAdjust="spacingAndGlyphs" textLength="9" x="675.5" y="258.0278">6</text><text fill="#000000" font-family="sans-serif" font-size="13" lengthAdjust="spacingAndGlyphs" textLength="126" x="688.5" y="258.0278">PUT route{robotID}</text><polygon fill="#A80036" points="1005.5,288.2266,1015.5,292.2266,1005.5,296.2266,1009.5,292.2266" style="stroke: #A80036; stroke-width: 1.0;"/><line style="stroke: #A80036; stroke-width: 1.0;" x1="841.5" x2="1011.5" y1="292.2266" y2="292.2266"/><text fill="#000000" font-family="sans-serif" font-size="13" font-weight="bold" lengthAdjust="spacingAndGlyphs" textLength="9" x="848.5" y="287.1606">7</text><text fill="#000000" font-family="sans-serif" font-size="13" lengthAdjust="spacingAndGlyphs" textLength="139" x="861.5" y="287.1606">changeState(robotID)</text><polygon fill="#A80036" points="1228.5,317.3594,1238.5,321.3594,1228.5,325.3594,1232.5,321.3594" style="stroke: #A80036; stroke-width: 1.0;"/><line style="stroke: #A80036; stroke-width: 1.0;" x1="1027.5" x2="1234.5" y1="321.3594" y2="321.3594"/><text fill="#000000" font-family="sans-serif" font-size="13" font-weight="bold" lengthAdjust="spacingAndGlyphs" textLength="9" x="1034.5" y="316.2935">8</text><text fill="#000000" font-family="sans-serif" font-size="13" lengthAdjust="spacingAndGlyphs" textLength="176" x="1047.5" y="316.2935">changeRobotState(robotID)</text><polygon fill="#A80036" points="1408.5,346.4922,1418.5,350.4922,1408.5,354.4922,1412.5,350.4922" style="stroke: #A80036; stroke-width: 1.0;"/><line style="stroke: #A80036; stroke-width: 1.0;" x1="1250.5" x2="1414.5" y1="350.4922" y2="350.4922"/><text fill="#000000" font-family="sans-serif" font-size="13" font-weight="bold" lengthAdjust="spacingAndGlyphs" textLength="9" x="1257.5" y="345.4263">9</text><text fill="#000000" font-family="sans-serif" font-size="13" lengthAdjust="spacingAndGlyphs" textLength="107" x="1270.5" y="345.4263">findById(robotID)</text><polygon fill="#A80036" points="1261.5,375.625,1251.5,379.625,1261.5,383.625,1257.5,379.625" style="stroke: #A80036; stroke-width: 1.0;"/><line style="stroke: #A80036; stroke-width: 1.0;" x1="1255.5" x2="1419.5" y1="379.625" y2="379.625"/><text fill="#000000" font-family="sans-serif" font-size="13" font-weight="bold" lengthAdjust="spacingAndGlyphs" textLength="18" x="1267.5" y="374.5591">10</text><text fill="#000000" font-family="sans-serif" font-size="13" lengthAdjust="spacingAndGlyphs" textLength="78" x="1289.5" y="374.5591">robotDetails</text><polygon fill="#A80036" points="1408.5,404.7578,1418.5,408.7578,1408.5,412.7578,1412.5,408.7578" style="stroke: #A80036; stroke-width: 1.0;"/><line style="stroke: #A80036; stroke-width: 1.0;" x1="1250.5" x2="1414.5" y1="408.7578" y2="408.7578"/><text fill="#000000" font-family="sans-serif" font-size="13" font-weight="bold" lengthAdjust="spacingAndGlyphs" textLength="18" x="1257.5" y="403.6919">11</text><text fill="#000000" font-family="sans-serif" font-size="13" lengthAdjust="spacingAndGlyphs" textLength="124" x="1279.5" y="403.6919">updateState(robot)</text><polygon fill="#A80036" points="1261.5,433.8906,1251.5,437.8906,1261.5,441.8906,1257.5,437.8906" style="stroke: #A80036; stroke-width: 1.0;"/><line style="stroke: #A80036; stroke-width: 1.0;" x1="1255.5" x2="1419.5" y1="437.8906" y2="437.8906"/><text fill="#000000" font-family="sans-serif" font-size="13" font-weight="bold" lengthAdjust="spacingAndGlyphs" textLength="18" x="1267.5" y="432.8247">12</text><text fill="#000000" font-family="sans-serif" font-size="13" lengthAdjust="spacingAndGlyphs" textLength="90" x="1289.5" y="432.8247">stateChanged</text><polygon fill="#A80036" points="1038.5,463.0234,1028.5,467.0234,1038.5,471.0234,1034.5,467.0234" style="stroke: #A80036; stroke-width: 1.0;"/><line style="stroke: #A80036; stroke-width: 1.0; stroke-dasharray: 2.0,2.0;" x1="1032.5" x2="1239.5" y1="467.0234" y2="467.0234"/><text fill="#000000" font-family="sans-serif" font-size="13" font-weight="bold" lengthAdjust="spacingAndGlyphs" textLength="18" x="1044.5" y="461.9575">13</text><text fill="#000000" font-family="sans-serif" font-size="13" lengthAdjust="spacingAndGlyphs" textLength="90" x="1066.5" y="461.9575">stateChanged</text><polygon fill="#A80036" points="852.5,492.1563,842.5,496.1563,852.5,500.1563,848.5,496.1563" style="stroke: #A80036; stroke-width: 1.0;"/><line style="stroke: #A80036; stroke-width: 1.0; stroke-dasharray: 2.0,2.0;" x1="846.5" x2="1016.5" y1="496.1563" y2="496.1563"/><text fill="#000000" font-family="sans-serif" font-size="13" font-weight="bold" lengthAdjust="spacingAndGlyphs" textLength="18" x="858.5" y="491.0903">14</text><text fill="#000000" font-family="sans-serif" font-size="13" lengthAdjust="spacingAndGlyphs" textLength="64" x="880.5" y="491.0903">HTTP: 200</text><polygon fill="#A80036" points="679.5,521.2891,669.5,525.2891,679.5,529.2891,675.5,525.2891" style="stroke: #A80036; stroke-width: 1.0;"/><line style="stroke: #A80036; stroke-width: 1.0; stroke-dasharray: 2.0,2.0;" x1="673.5" x2="830.5" y1="525.2891" y2="525.2891"/><text fill="#000000" font-family="sans-serif" font-size="13" font-weight="bold" lengthAdjust="spacingAndGlyphs" textLength="18" x="685.5" y="520.2231">15</text><text fill="#000000" font-family="sans-serif" font-size="13" lengthAdjust="spacingAndGlyphs" textLength="64" x="707.5" y="520.2231">HTTP: 200</text><polygon fill="#A80036" points="493.5,550.4219,483.5,554.4219,493.5,558.4219,489.5,554.4219" style="stroke: #A80036; stroke-width: 1.0;"/><line style="stroke: #A80036; stroke-width: 1.0; stroke-dasharray: 2.0,2.0;" x1="487.5" x2="657.5" y1="554.4219" y2="554.4219"/><text fill="#000000" font-family="sans-serif" font-size="13" font-weight="bold" lengthAdjust="spacingAndGlyphs" textLength="18" x="499.5" y="549.356">16</text><text fill="#000000" font-family="sans-serif" font-size="13" lengthAdjust="spacingAndGlyphs" textLength="64" x="521.5" y="549.356">HTTP: 200</text><polygon fill="#A80036" points="270.5,579.5547,260.5,583.5547,270.5,587.5547,266.5,583.5547" style="stroke: #A80036; stroke-width: 1.0;"/><line style="stroke: #A80036; stroke-width: 1.0; stroke-dasharray: 2.0,2.0;" x1="264.5" x2="471.5" y1="583.5547" y2="583.5547"/><text fill="#000000" font-family="sans-serif" font-size="13" font-weight="bold" lengthAdjust="spacingAndGlyphs" textLength="18" x="276.5" y="578.4888">17</text><text fill="#000000" font-family="sans-serif" font-size="13" lengthAdjust="spacingAndGlyphs" textLength="64" x="298.5" y="578.4888">HTTP: 200</text><polygon fill="#A80036" points="43.5,608.6875,33.5,612.6875,43.5,616.6875,39.5,612.6875" style="stroke: #A80036; stroke-width: 1.0;"/><line style="stroke: #A80036; stroke-width: 1.0; stroke-dasharray: 2.0,2.0;" x1="37.5" x2="253.5" y1="612.6875" y2="612.6875"/><text fill="#000000" font-family="sans-serif" font-size="13" font-weight="bold" lengthAdjust="spacingAndGlyphs" textLength="18" x="49.5" y="607.6216">18</text><text fill="#000000" font-family="sans-serif" font-size="13" lengthAdjust="spacingAndGlyphs" textLength="150" x="71.5" y="607.6216">show success message</text><!--MD5=[16abd96707a1ffef56089e2f494063f7]
@startuml
autonumber
actor "Admin" as admin

participant ":View" as sys
participant ":FE_Component" as comp
participant "IRobotService" as FEsrvc
participant ":Routing" as route
participant "IRobotController" as ctrl
participant "IRobotService" as srvc
participant "IRobotRepo" as repo

activate admin

admin -> sys: wants to change robot state
activate sys
sys - -> admin: request robot ID
admin -> sys: provides robot ID
activate comp

sys -> comp: changeRobotState(robotID)
activate FEsrvc
comp -> FEsrvc: changeState(robotID)
activate route
FEsrvc -> route: PUT route{robotID}
activate ctrl
route -> ctrl: changeState(robotID)
activate srvc
ctrl -> srvc: changeRobotState(robotID)
activate repo
srvc -> repo: findById(robotID)
repo -> srvc: robotDetails
srvc -> repo: updateState(robot)
repo -> srvc: stateChanged
srvc - -> ctrl: stateChanged
ctrl - -> route : HTTP: 200
route - -> FEsrvc: HTTP: 200
FEsrvc - -> comp: HTTP: 200
comp - -> sys: HTTP: 200
sys - -> admin: show success message

deactivate repo
deactivate ctrl
deactivate route
deactivate FEsrvc
deactivate comp
deactivate sys
deactivate admin
@enduml

PlantUML version 1.2020.02(Sun Mar 01 10:22:07 UTC 2020)
(GPL source distribution)
Java Runtime: OpenJDK Runtime Environment
JVM: OpenJDK 64-Bit Server VM
Java Version: 11.0.21+9
Operating System: Linux
Default Encoding: UTF-8
Language: en
Country: null
--></g></svg>