<?xml version="1.0" encoding="UTF-8" standalone="no"?><svg xmlns="http://www.w3.org/2000/svg" xmlns:xlink="http://www.w3.org/1999/xlink" contentScriptType="application/ecmascript" contentStyleType="text/css" height="880px" preserveAspectRatio="none" style="width:1938px;height:880px;" version="1.1" viewBox="0 0 1938 880" width="1938px" zoomAndPan="magnify"><defs><filter height="300%" id="fq3aflymbqfn6" width="300%" x="-1" y="-1"><feGaussianBlur result="blurOut" stdDeviation="2.0"/><feColorMatrix in="blurOut" result="blurOut2" type="matrix" values="0 0 0 0 0 0 0 0 0 0 0 0 0 0 0 0 0 0 .4 0"/><feOffset dx="4.0" dy="4.0" in="blurOut2" result="blurOut3"/><feBlend in="SourceGraphic" in2="blurOut3" mode="normal"/></filter></defs><g><rect fill="#FFFFFF" filter="url(#fq3aflymbqfn6)" height="688.0547" style="stroke: #A80036; stroke-width: 1.0;" width="10" x="42.5" y="96.2969"/><rect fill="#FFFFFF" filter="url(#fq3aflymbqfn6)" height="665.9219" style="stroke: #A80036; stroke-width: 1.0;" width="10" x="250.5" y="117.4297"/><rect fill="#FFFFFF" filter="url(#fq3aflymbqfn6)" height="608.6563" style="stroke: #A80036; stroke-width: 1.0;" width="10" x="754.5" y="175.6953"/><rect fill="#FFFFFF" filter="url(#fq3aflymbqfn6)" height="579.5234" style="stroke: #A80036; stroke-width: 1.0;" width="10" x="1018.5" y="204.8281"/><rect fill="#FFFFFF" filter="url(#fq3aflymbqfn6)" height="550.3906" style="stroke: #A80036; stroke-width: 1.0;" width="10" x="1220.5" y="233.9609"/><rect fill="#FFFFFF" filter="url(#fq3aflymbqfn6)" height="275.1953" style="stroke: #A80036; stroke-width: 1.0;" width="10" x="1364.5" y="263.0938"/><rect fill="#FFFFFF" filter="url(#fq3aflymbqfn6)" height="275.1953" style="stroke: #A80036; stroke-width: 1.0;" width="10" x="1642.5" y="263.0938"/><rect fill="#FFFFFF" filter="url(#fq3aflymbqfn6)" height="92.3984" style="stroke: #A80036; stroke-width: 1.0;" width="10" x="1749.5" y="445.8906"/><rect fill="#FFFFFF" filter="url(#fq3aflymbqfn6)" height="216.9297" style="stroke: #A80036; stroke-width: 1.0;" width="10" x="1866" y="321.3594"/><rect fill="#FFFFFF" filter="url(#fq3aflymbqfn6)" height="193.9297" style="stroke: #000000; stroke-width: 2.0;" width="1086" x="13" y="582.4219"/><rect fill="#FFFFFF" height="89.3984" style="stroke: none; stroke-width: 1.0;" width="1086" x="13" y="686.9531"/><line style="stroke: #A80036; stroke-width: 1.0; stroke-dasharray: 5.0,5.0;" x1="47" x2="47" y1="86.2969" y2="793.3516"/><line style="stroke: #A80036; stroke-width: 1.0; stroke-dasharray: 5.0,5.0;" x1="255.5" x2="255.5" y1="86.2969" y2="793.3516"/><line style="stroke: #A80036; stroke-width: 1.0; stroke-dasharray: 5.0,5.0;" x1="759" x2="759" y1="86.2969" y2="793.3516"/><line style="stroke: #A80036; stroke-width: 1.0; stroke-dasharray: 5.0,5.0;" x1="1023" x2="1023" y1="86.2969" y2="793.3516"/><line style="stroke: #A80036; stroke-width: 1.0; stroke-dasharray: 5.0,5.0;" x1="1225.5" x2="1225.5" y1="86.2969" y2="793.3516"/><line style="stroke: #A80036; stroke-width: 1.0; stroke-dasharray: 5.0,5.0;" x1="1369" x2="1369" y1="86.2969" y2="793.3516"/><line style="stroke: #A80036; stroke-width: 1.0; stroke-dasharray: 5.0,5.0;" x1="1647" x2="1647" y1="86.2969" y2="793.3516"/><line style="stroke: #A80036; stroke-width: 1.0; stroke-dasharray: 5.0,5.0;" x1="1754" x2="1754" y1="86.2969" y2="793.3516"/><line style="stroke: #A80036; stroke-width: 1.0; stroke-dasharray: 5.0,5.0;" x1="1871" x2="1871" y1="86.2969" y2="793.3516"/><text fill="#000000" font-family="sans-serif" font-size="14" lengthAdjust="spacingAndGlyphs" textLength="43" x="23" y="82.9951">Admin</text><ellipse cx="47.5" cy="13" fill="#FEFECE" filter="url(#fq3aflymbqfn6)" rx="8" ry="8" style="stroke: #A80036; stroke-width: 2.0;"/><path d="M47.5,21 L47.5,48 M34.5,29 L60.5,29 M47.5,48 L34.5,63 M47.5,48 L60.5,63 " fill="none" filter="url(#fq3aflymbqfn6)" style="stroke: #A80036; stroke-width: 2.0;"/><text fill="#000000" font-family="sans-serif" font-size="14" lengthAdjust="spacingAndGlyphs" textLength="43" x="23" y="805.3467">Admin</text><ellipse cx="47.5" cy="818.6484" fill="#FEFECE" filter="url(#fq3aflymbqfn6)" rx="8" ry="8" style="stroke: #A80036; stroke-width: 2.0;"/><path d="M47.5,826.6484 L47.5,853.6484 M34.5,834.6484 L60.5,834.6484 M47.5,853.6484 L34.5,868.6484 M47.5,853.6484 L60.5,868.6484 " fill="none" filter="url(#fq3aflymbqfn6)" style="stroke: #A80036; stroke-width: 2.0;"/><rect fill="#FEFECE" filter="url(#fq3aflymbqfn6)" height="30.2969" style="stroke: #A80036; stroke-width: 1.5;" width="82" x="212.5" y="51"/><text fill="#000000" font-family="sans-serif" font-size="14" lengthAdjust="spacingAndGlyphs" textLength="68" x="219.5" y="70.9951">:FrontEnd</text><rect fill="#FEFECE" filter="url(#fq3aflymbqfn6)" height="30.2969" style="stroke: #A80036; stroke-width: 1.5;" width="82" x="212.5" y="792.3516"/><text fill="#000000" font-family="sans-serif" font-size="14" lengthAdjust="spacingAndGlyphs" textLength="68" x="219.5" y="812.3467">:FrontEnd</text><rect fill="#FEFECE" filter="url(#fq3aflymbqfn6)" height="30.2969" style="stroke: #A80036; stroke-width: 1.5;" width="73" x="721" y="51"/><text fill="#000000" font-family="sans-serif" font-size="14" lengthAdjust="spacingAndGlyphs" textLength="59" x="728" y="70.9951">:Routing</text><rect fill="#FEFECE" filter="url(#fq3aflymbqfn6)" height="30.2969" style="stroke: #A80036; stroke-width: 1.5;" width="73" x="721" y="792.3516"/><text fill="#000000" font-family="sans-serif" font-size="14" lengthAdjust="spacingAndGlyphs" textLength="59" x="728" y="812.3467">:Routing</text><rect fill="#FEFECE" filter="url(#fq3aflymbqfn6)" height="30.2969" style="stroke: #A80036; stroke-width: 1.5;" width="127" x="958" y="51"/><text fill="#000000" font-family="sans-serif" font-size="14" lengthAdjust="spacingAndGlyphs" textLength="113" x="965" y="70.9951">:RoomController</text><rect fill="#FEFECE" filter="url(#fq3aflymbqfn6)" height="30.2969" style="stroke: #A80036; stroke-width: 1.5;" width="127" x="958" y="792.3516"/><text fill="#000000" font-family="sans-serif" font-size="14" lengthAdjust="spacingAndGlyphs" textLength="113" x="965" y="812.3467">:RoomController</text><rect fill="#FEFECE" filter="url(#fq3aflymbqfn6)" height="30.2969" style="stroke: #A80036; stroke-width: 1.5;" width="110" x="1168.5" y="51"/><text fill="#000000" font-family="sans-serif" font-size="14" lengthAdjust="spacingAndGlyphs" textLength="96" x="1175.5" y="70.9951">:RoomService</text><rect fill="#FEFECE" filter="url(#fq3aflymbqfn6)" height="30.2969" style="stroke: #A80036; stroke-width: 1.5;" width="110" x="1168.5" y="792.3516"/><text fill="#000000" font-family="sans-serif" font-size="14" lengthAdjust="spacingAndGlyphs" textLength="96" x="1175.5" y="812.3467">:RoomService</text><rect fill="#FEFECE" filter="url(#fq3aflymbqfn6)" height="30.2969" style="stroke: #A80036; stroke-width: 1.5;" width="97" x="1319" y="51"/><text fill="#000000" font-family="sans-serif" font-size="14" lengthAdjust="spacingAndGlyphs" textLength="83" x="1326" y="70.9951">:RoomRepo</text><rect fill="#FEFECE" filter="url(#fq3aflymbqfn6)" height="30.2969" style="stroke: #A80036; stroke-width: 1.5;" width="97" x="1319" y="792.3516"/><text fill="#000000" font-family="sans-serif" font-size="14" lengthAdjust="spacingAndGlyphs" textLength="83" x="1326" y="812.3467">:RoomRepo</text><rect fill="#FEFECE" filter="url(#fq3aflymbqfn6)" height="30.2969" style="stroke: #A80036; stroke-width: 1.5;" width="97" x="1597" y="51"/><text fill="#000000" font-family="sans-serif" font-size="14" lengthAdjust="spacingAndGlyphs" textLength="83" x="1604" y="70.9951">:RoomClass</text><rect fill="#FEFECE" filter="url(#fq3aflymbqfn6)" height="30.2969" style="stroke: #A80036; stroke-width: 1.5;" width="97" x="1597" y="792.3516"/><text fill="#000000" font-family="sans-serif" font-size="14" lengthAdjust="spacingAndGlyphs" textLength="83" x="1604" y="812.3467">:RoomClass</text><rect fill="#FEFECE" filter="url(#fq3aflymbqfn6)" height="30.2969" style="stroke: #A80036; stroke-width: 1.5;" width="89" x="1708" y="51"/><text fill="#000000" font-family="sans-serif" font-size="14" lengthAdjust="spacingAndGlyphs" textLength="75" x="1715" y="70.9951">:RoomMap</text><rect fill="#FEFECE" filter="url(#fq3aflymbqfn6)" height="30.2969" style="stroke: #A80036; stroke-width: 1.5;" width="89" x="1708" y="792.3516"/><text fill="#000000" font-family="sans-serif" font-size="14" lengthAdjust="spacingAndGlyphs" textLength="75" x="1715" y="812.3467">:RoomMap</text><rect fill="#FEFECE" filter="url(#fq3aflymbqfn6)" height="30.2969" style="stroke: #A80036; stroke-width: 1.5;" width="116" x="1811" y="51"/><text fill="#000000" font-family="sans-serif" font-size="14" lengthAdjust="spacingAndGlyphs" textLength="102" x="1818" y="70.9951">:RoomSchema</text><rect fill="#FEFECE" filter="url(#fq3aflymbqfn6)" height="30.2969" style="stroke: #A80036; stroke-width: 1.5;" width="116" x="1811" y="792.3516"/><text fill="#000000" font-family="sans-serif" font-size="14" lengthAdjust="spacingAndGlyphs" textLength="102" x="1818" y="812.3467">:RoomSchema</text><rect fill="#FFFFFF" filter="url(#fq3aflymbqfn6)" height="688.0547" style="stroke: #A80036; stroke-width: 1.0;" width="10" x="42.5" y="96.2969"/><rect fill="#FFFFFF" filter="url(#fq3aflymbqfn6)" height="665.9219" style="stroke: #A80036; stroke-width: 1.0;" width="10" x="250.5" y="117.4297"/><rect fill="#FFFFFF" filter="url(#fq3aflymbqfn6)" height="608.6563" style="stroke: #A80036; stroke-width: 1.0;" width="10" x="754.5" y="175.6953"/><rect fill="#FFFFFF" filter="url(#fq3aflymbqfn6)" height="579.5234" style="stroke: #A80036; stroke-width: 1.0;" width="10" x="1018.5" y="204.8281"/><rect fill="#FFFFFF" filter="url(#fq3aflymbqfn6)" height="550.3906" style="stroke: #A80036; stroke-width: 1.0;" width="10" x="1220.5" y="233.9609"/><rect fill="#FFFFFF" filter="url(#fq3aflymbqfn6)" height="275.1953" style="stroke: #A80036; stroke-width: 1.0;" width="10" x="1364.5" y="263.0938"/><rect fill="#FFFFFF" filter="url(#fq3aflymbqfn6)" height="275.1953" style="stroke: #A80036; stroke-width: 1.0;" width="10" x="1642.5" y="263.0938"/><rect fill="#FFFFFF" filter="url(#fq3aflymbqfn6)" height="92.3984" style="stroke: #A80036; stroke-width: 1.0;" width="10" x="1749.5" y="445.8906"/><rect fill="#FFFFFF" filter="url(#fq3aflymbqfn6)" height="216.9297" style="stroke: #A80036; stroke-width: 1.0;" width="10" x="1866" y="321.3594"/><polygon fill="#A80036" points="238.5,113.4297,248.5,117.4297,238.5,121.4297,242.5,117.4297" style="stroke: #A80036; stroke-width: 1.0;"/><line style="stroke: #A80036; stroke-width: 1.0;" x1="52.5" x2="244.5" y1="117.4297" y2="117.4297"/><text fill="#000000" font-family="sans-serif" font-size="13" font-weight="bold" lengthAdjust="spacingAndGlyphs" textLength="9" x="59.5" y="112.3638">1</text><text fill="#000000" font-family="sans-serif" font-size="13" lengthAdjust="spacingAndGlyphs" textLength="94" x="72.5" y="112.3638">create a Route</text><polygon fill="#A80036" points="63.5,142.5625,53.5,146.5625,63.5,150.5625,59.5,146.5625" style="stroke: #A80036; stroke-width: 1.0;"/><line style="stroke: #A80036; stroke-width: 1.0; stroke-dasharray: 2.0,2.0;" x1="57.5" x2="249.5" y1="146.5625" y2="146.5625"/><text fill="#000000" font-family="sans-serif" font-size="13" font-weight="bold" lengthAdjust="spacingAndGlyphs" textLength="9" x="69.5" y="141.4966">2</text><text fill="#000000" font-family="sans-serif" font-size="13" lengthAdjust="spacingAndGlyphs" textLength="161" x="82.5" y="141.4966">request necessary data()</text><polygon fill="#A80036" points="238.5,171.6953,248.5,175.6953,238.5,179.6953,242.5,175.6953" style="stroke: #A80036; stroke-width: 1.0;"/><line style="stroke: #A80036; stroke-width: 1.0;" x1="52.5" x2="244.5" y1="175.6953" y2="175.6953"/><text fill="#000000" font-family="sans-serif" font-size="13" font-weight="bold" lengthAdjust="spacingAndGlyphs" textLength="9" x="59.5" y="170.6294">3</text><text fill="#000000" font-family="sans-serif" font-size="13" lengthAdjust="spacingAndGlyphs" textLength="112" x="72.5" y="170.6294">insert all the data</text><polygon fill="#A80036" points="742.5,200.8281,752.5,204.8281,742.5,208.8281,746.5,204.8281" style="stroke: #A80036; stroke-width: 1.0;"/><line style="stroke: #A80036; stroke-width: 1.0;" x1="260.5" x2="748.5" y1="204.8281" y2="204.8281"/><text fill="#000000" font-family="sans-serif" font-size="13" font-weight="bold" lengthAdjust="spacingAndGlyphs" textLength="9" x="267.5" y="199.7622">4</text><text fill="#000000" font-family="sans-serif" font-size="13" lengthAdjust="spacingAndGlyphs" textLength="457" x="280.5" y="199.7622">POST route{id, Building, Floor, name, category, description, dimension}</text><polygon fill="#A80036" points="1006.5,229.9609,1016.5,233.9609,1006.5,237.9609,1010.5,233.9609" style="stroke: #A80036; stroke-width: 1.0;"/><line style="stroke: #A80036; stroke-width: 1.0;" x1="764.5" x2="1012.5" y1="233.9609" y2="233.9609"/><text fill="#000000" font-family="sans-serif" font-size="13" font-weight="bold" lengthAdjust="spacingAndGlyphs" textLength="9" x="771.5" y="228.895">5</text><text fill="#000000" font-family="sans-serif" font-size="13" lengthAdjust="spacingAndGlyphs" textLength="217" x="784.5" y="228.895">createRoom(request, result, next)</text><polygon fill="#A80036" points="1208.5,259.0938,1218.5,263.0938,1208.5,267.0938,1212.5,263.0938" style="stroke: #A80036; stroke-width: 1.0;"/><line style="stroke: #A80036; stroke-width: 1.0;" x1="1028.5" x2="1214.5" y1="263.0938" y2="263.0938"/><text fill="#000000" font-family="sans-serif" font-size="13" font-weight="bold" lengthAdjust="spacingAndGlyphs" textLength="9" x="1035.5" y="258.0278">6</text><text fill="#000000" font-family="sans-serif" font-size="13" lengthAdjust="spacingAndGlyphs" textLength="155" x="1048.5" y="258.0278">createRoom(IRoomDTO)</text><polygon fill="#A80036" points="1630.5,288.2266,1640.5,292.2266,1630.5,296.2266,1634.5,292.2266" style="stroke: #A80036; stroke-width: 1.0;"/><line style="stroke: #A80036; stroke-width: 1.0;" x1="1230.5" x2="1636.5" y1="292.2266" y2="292.2266"/><text fill="#000000" font-family="sans-serif" font-size="13" font-weight="bold" lengthAdjust="spacingAndGlyphs" textLength="9" x="1237.5" y="287.1606">7</text><text fill="#000000" font-family="sans-serif" font-size="13" lengthAdjust="spacingAndGlyphs" textLength="108" x="1250.5" y="287.1606">create(roomDto)</text><polygon fill="#A80036" points="1352.5,317.3594,1362.5,321.3594,1352.5,325.3594,1356.5,321.3594" style="stroke: #A80036; stroke-width: 1.0;"/><line style="stroke: #A80036; stroke-width: 1.0;" x1="1230.5" x2="1358.5" y1="321.3594" y2="321.3594"/><text fill="#000000" font-family="sans-serif" font-size="13" font-weight="bold" lengthAdjust="spacingAndGlyphs" textLength="9" x="1237.5" y="316.2935">8</text><text fill="#000000" font-family="sans-serif" font-size="13" lengthAdjust="spacingAndGlyphs" textLength="97" x="1250.5" y="316.2935">save(roomDto)</text><polygon fill="#A80036" points="1854,346.4922,1864,350.4922,1854,354.4922,1858,350.4922" style="stroke: #A80036; stroke-width: 1.0;"/><line style="stroke: #A80036; stroke-width: 1.0;" x1="1374.5" x2="1860" y1="350.4922" y2="350.4922"/><text fill="#000000" font-family="sans-serif" font-size="13" font-weight="bold" lengthAdjust="spacingAndGlyphs" textLength="9" x="1381.5" y="345.4263">9</text><text fill="#000000" font-family="sans-serif" font-size="13" lengthAdjust="spacingAndGlyphs" textLength="70" x="1394.5" y="345.4263">findOne(id)</text><polygon fill="#A80036" points="1854,375.625,1864,379.625,1854,383.625,1858,379.625" style="stroke: #A80036; stroke-width: 1.0;"/><line style="stroke: #A80036; stroke-width: 1.0;" x1="1374.5" x2="1860" y1="379.625" y2="379.625"/><text fill="#000000" font-family="sans-serif" font-size="13" font-weight="bold" lengthAdjust="spacingAndGlyphs" textLength="18" x="1381.5" y="374.5591">10</text><text fill="#000000" font-family="sans-serif" font-size="13" lengthAdjust="spacingAndGlyphs" textLength="96" x="1403.5" y="374.5591">findOne(name)</text><polygon fill="#A80036" points="1854,404.7578,1864,408.7578,1854,412.7578,1858,408.7578" style="stroke: #A80036; stroke-width: 1.0;"/><line style="stroke: #A80036; stroke-width: 1.0;" x1="1374.5" x2="1860" y1="408.7578" y2="408.7578"/><text fill="#000000" font-family="sans-serif" font-size="13" font-weight="bold" lengthAdjust="spacingAndGlyphs" textLength="18" x="1381.5" y="403.6919">11</text><text fill="#000000" font-family="sans-serif" font-size="13" lengthAdjust="spacingAndGlyphs" textLength="140" x="1403.5" y="403.6919">find(buildingId, floorId)</text><line style="stroke: #A80036; stroke-width: 1.0;" x1="1374.5" x2="1421.5" y1="432.8906" y2="432.8906"/><line style="stroke: #A80036; stroke-width: 1.0;" x1="1421.5" x2="1421.5" y1="432.8906" y2="445.8906"/><line style="stroke: #A80036; stroke-width: 1.0;" x1="1380.5" x2="1421.5" y1="445.8906" y2="445.8906"/><polygon fill="#A80036" points="1390.5,441.8906,1380.5,445.8906,1390.5,449.8906,1386.5,445.8906" style="stroke: #A80036; stroke-width: 1.0;"/><text fill="#000000" font-family="sans-serif" font-size="13" font-weight="bold" lengthAdjust="spacingAndGlyphs" textLength="18" x="1386.5" y="427.8247">12</text><text fill="#000000" font-family="sans-serif" font-size="13" lengthAdjust="spacingAndGlyphs" textLength="232" x="1408.5" y="427.8247">doRoomsOverlap(room, tempRoom)</text><polygon fill="#A80036" points="1737.5,476.0234,1747.5,480.0234,1737.5,484.0234,1741.5,480.0234" style="stroke: #A80036; stroke-width: 1.0;"/><line style="stroke: #A80036; stroke-width: 1.0;" x1="1374.5" x2="1743.5" y1="480.0234" y2="480.0234"/><text fill="#000000" font-family="sans-serif" font-size="13" font-weight="bold" lengthAdjust="spacingAndGlyphs" textLength="18" x="1381.5" y="474.9575">13</text><text fill="#000000" font-family="sans-serif" font-size="13" lengthAdjust="spacingAndGlyphs" textLength="131" x="1403.5" y="474.9575">toPersistance(room)</text><polygon fill="#A80036" points="1854,505.1563,1864,509.1563,1854,513.1563,1858,509.1563" style="stroke: #A80036; stroke-width: 1.0;"/><line style="stroke: #A80036; stroke-width: 1.0;" x1="1374.5" x2="1860" y1="509.1563" y2="509.1563"/><text fill="#000000" font-family="sans-serif" font-size="13" font-weight="bold" lengthAdjust="spacingAndGlyphs" textLength="18" x="1381.5" y="504.0903">14</text><text fill="#000000" font-family="sans-serif" font-size="13" lengthAdjust="spacingAndGlyphs" textLength="85" x="1403.5" y="504.0903">create(room)</text><polygon fill="#A80036" points="1241.5,534.2891,1231.5,538.2891,1241.5,542.2891,1237.5,538.2891" style="stroke: #A80036; stroke-width: 1.0;"/><line style="stroke: #A80036; stroke-width: 1.0; stroke-dasharray: 2.0,2.0;" x1="1235.5" x2="1368.5" y1="538.2891" y2="538.2891"/><text fill="#000000" font-family="sans-serif" font-size="13" font-weight="bold" lengthAdjust="spacingAndGlyphs" textLength="18" x="1247.5" y="533.2231">15</text><text fill="#000000" font-family="sans-serif" font-size="13" lengthAdjust="spacingAndGlyphs" textLength="34" x="1269.5" y="533.2231">room</text><polygon fill="#A80036" points="1039.5,563.4219,1029.5,567.4219,1039.5,571.4219,1035.5,567.4219" style="stroke: #A80036; stroke-width: 1.0;"/><line style="stroke: #A80036; stroke-width: 1.0; stroke-dasharray: 2.0,2.0;" x1="1033.5" x2="1219.5" y1="567.4219" y2="567.4219"/><text fill="#000000" font-family="sans-serif" font-size="13" font-weight="bold" lengthAdjust="spacingAndGlyphs" textLength="18" x="1045.5" y="562.356">16</text><text fill="#000000" font-family="sans-serif" font-size="13" lengthAdjust="spacingAndGlyphs" textLength="36" x="1067.5" y="562.356">result</text><path d="M13,582.4219 L77,582.4219 L77,589.4219 L67,599.4219 L13,599.4219 L13,582.4219 " fill="#EEEEEE" style="stroke: #000000; stroke-width: 1.0;"/><rect fill="none" height="193.9297" style="stroke: #000000; stroke-width: 2.0;" width="1086" x="13" y="582.4219"/><text fill="#000000" font-family="sans-serif" font-size="13" font-weight="bold" lengthAdjust="spacingAndGlyphs" textLength="19" x="28" y="595.4888">alt</text><text fill="#000000" font-family="sans-serif" font-size="11" font-weight="bold" lengthAdjust="spacingAndGlyphs" textLength="112" x="92" y="594.6323">[successful case]</text><polygon fill="#A80036" points="775.5,616.6875,765.5,620.6875,775.5,624.6875,771.5,620.6875" style="stroke: #A80036; stroke-width: 1.0;"/><line style="stroke: #A80036; stroke-width: 1.0; stroke-dasharray: 2.0,2.0;" x1="769.5" x2="1017.5" y1="620.6875" y2="620.6875"/><text fill="#000000" font-family="sans-serif" font-size="13" font-weight="bold" lengthAdjust="spacingAndGlyphs" textLength="18" x="781.5" y="615.6216">17</text><text fill="#000000" font-family="sans-serif" font-size="13" lengthAdjust="spacingAndGlyphs" textLength="64" x="803.5" y="615.6216">HTTP: 201</text><polygon fill="#A80036" points="271.5,645.8203,261.5,649.8203,271.5,653.8203,267.5,649.8203" style="stroke: #A80036; stroke-width: 1.0;"/><line style="stroke: #A80036; stroke-width: 1.0; stroke-dasharray: 2.0,2.0;" x1="265.5" x2="753.5" y1="649.8203" y2="649.8203"/><text fill="#000000" font-family="sans-serif" font-size="13" font-weight="bold" lengthAdjust="spacingAndGlyphs" textLength="18" x="277.5" y="644.7544">18</text><text fill="#000000" font-family="sans-serif" font-size="13" lengthAdjust="spacingAndGlyphs" textLength="64" x="299.5" y="644.7544">HTTP: 201</text><polygon fill="#A80036" points="63.5,674.9531,53.5,678.9531,63.5,682.9531,59.5,678.9531" style="stroke: #A80036; stroke-width: 1.0;"/><line style="stroke: #A80036; stroke-width: 1.0; stroke-dasharray: 2.0,2.0;" x1="57.5" x2="249.5" y1="678.9531" y2="678.9531"/><text fill="#000000" font-family="sans-serif" font-size="13" font-weight="bold" lengthAdjust="spacingAndGlyphs" textLength="18" x="69.5" y="673.8872">19</text><text fill="#000000" font-family="sans-serif" font-size="13" lengthAdjust="spacingAndGlyphs" textLength="150" x="91.5" y="673.8872">show success message</text><line style="stroke: #000000; stroke-width: 1.0; stroke-dasharray: 2.0,2.0;" x1="13" x2="1099" y1="687.9531" y2="687.9531"/><polygon fill="#A80036" points="775.5,706.0859,765.5,710.0859,775.5,714.0859,771.5,710.0859" style="stroke: #A80036; stroke-width: 1.0;"/><line style="stroke: #A80036; stroke-width: 1.0; stroke-dasharray: 2.0,2.0;" x1="769.5" x2="1017.5" y1="710.0859" y2="710.0859"/><text fill="#000000" font-family="sans-serif" font-size="13" font-weight="bold" lengthAdjust="spacingAndGlyphs" textLength="18" x="781.5" y="705.02">20</text><text fill="#000000" font-family="sans-serif" font-size="13" lengthAdjust="spacingAndGlyphs" textLength="64" x="803.5" y="705.02">HTTP: 400</text><polygon fill="#A80036" points="271.5,735.2188,261.5,739.2188,271.5,743.2188,267.5,739.2188" style="stroke: #A80036; stroke-width: 1.0;"/><line style="stroke: #A80036; stroke-width: 1.0; stroke-dasharray: 2.0,2.0;" x1="265.5" x2="753.5" y1="739.2188" y2="739.2188"/><text fill="#000000" font-family="sans-serif" font-size="13" font-weight="bold" lengthAdjust="spacingAndGlyphs" textLength="18" x="277.5" y="734.1528">21</text><text fill="#000000" font-family="sans-serif" font-size="13" lengthAdjust="spacingAndGlyphs" textLength="64" x="299.5" y="734.1528">HTTP: 400</text><polygon fill="#A80036" points="63.5,764.3516,53.5,768.3516,63.5,772.3516,59.5,768.3516" style="stroke: #A80036; stroke-width: 1.0;"/><line style="stroke: #A80036; stroke-width: 1.0; stroke-dasharray: 2.0,2.0;" x1="57.5" x2="249.5" y1="768.3516" y2="768.3516"/><text fill="#000000" font-family="sans-serif" font-size="13" font-weight="bold" lengthAdjust="spacingAndGlyphs" textLength="18" x="69.5" y="763.2856">22</text><text fill="#000000" font-family="sans-serif" font-size="13" lengthAdjust="spacingAndGlyphs" textLength="138" x="91.5" y="763.2856">show failure message</text><!--MD5=[2104b08c3d1633bc5127913ef7f24e86]
@startuml
autonumber
actor "Admin" as admin

participant ":FrontEnd" as sys
participant ":Routing" as route
participant ":RoomController" as ctrl
participant ":RoomService" as srvc
participant ":RoomRepo" as repo
participant ":RoomClass" as room
participant ":RoomMap" as roomMap
participant ":RoomSchema" as roomSchema

activate admin

admin -> sys: create a Route
activate sys

sys - -> admin: request necessary data()
admin -> sys : insert all the data
activate route
sys -> route: POST route{id, Building, Floor, name, category, description, dimension}
activate ctrl
route -> ctrl: createRoom(request, result, next)
activate srvc
ctrl -> srvc: createRoom(IRoomDTO)
activate repo
activate room
srvc -> room: create(roomDto)
srvc -> repo: save(roomDto)
activate roomSchema
repo -> roomSchema: findOne(id)
repo -> roomSchema: findOne(name)
repo -> roomSchema: find(buildingId, floorId)
repo -> repo: doRoomsOverlap(room, tempRoom)
activate roomMap
repo -> roomMap: toPersistance(room)
repo -> roomSchema: create(room)
repo - -> srvc: room
deactivate roomSchema
deactivate roomMap
deactivate room
deactivate repo
srvc - -> ctrl: result

alt successful case
    ctrl - -> route : HTTP: 201
    route - -> sys: HTTP: 201
    sys - -> admin: show success message
else
    ctrl - -> route : HTTP: 400
    route - -> sys: HTTP: 400
    sys - -> admin: show failure message
end
deactivate sys
@enduml

PlantUML version 1.2020.02(Sun Mar 01 10:22:07 UTC 2020)
(GPL source distribution)
Java Runtime: OpenJDK Runtime Environment
JVM: OpenJDK 64-Bit Server VM
Java Version: 11.0.21+9
Operating System: Linux
Default Encoding: UTF-8
Language: en
Country: null
--></g></svg>