<?xml version="1.0" encoding="UTF-8" standalone="no"?><svg xmlns="http://www.w3.org/2000/svg" xmlns:xlink="http://www.w3.org/1999/xlink" contentStyleType="text/css" height="370px" preserveAspectRatio="none" style="width:328px;height:370px;background:#FFFFFF;" version="1.1" viewBox="0 0 328 370" width="328px" zoomAndPan="magnify"><defs/><g><rect fill="#FFFFFF" height="187.1094" style="stroke:#181818;stroke-width:1.0;" width="10" x="37.5" y="92.6094"/><rect fill="#FFFFFF" height="163.7578" style="stroke:#181818;stroke-width:1.0;" width="10" x="274.5" y="114.9609"/><rect fill="none" height="81.0547" style="stroke:#000000;stroke-width:1.5;" width="311.5" x="10" y="190.6641"/><line style="stroke:#181818;stroke-width:0.5;stroke-dasharray:5.0,5.0;" x1="42" x2="42" y1="82.6094" y2="288.7188"/><line style="stroke:#181818;stroke-width:0.5;stroke-dasharray:5.0,5.0;" x1="279.5" x2="279.5" y1="82.6094" y2="288.7188"/><text fill="#000000" font-family="sans-serif" font-size="14" lengthAdjust="spacing" textLength="39" x="20" y="79.5332">Admin</text><ellipse cx="42.5" cy="13.5" fill="#E2E2F0" rx="8" ry="8" style="stroke:#181818;stroke-width:0.5;"/><path d="M42.5,21.5 L42.5,48.5 M29.5,29.5 L55.5,29.5 M42.5,48.5 L29.5,63.5 M42.5,48.5 L55.5,63.5 " fill="none" style="stroke:#181818;stroke-width:0.5;"/><text fill="#000000" font-family="sans-serif" font-size="14" lengthAdjust="spacing" textLength="39" x="20" y="302.252">Admin</text><ellipse cx="42.5" cy="313.8281" fill="#E2E2F0" rx="8" ry="8" style="stroke:#181818;stroke-width:0.5;"/><path d="M42.5,321.8281 L42.5,348.8281 M29.5,329.8281 L55.5,329.8281 M42.5,348.8281 L29.5,363.8281 M42.5,348.8281 L55.5,363.8281 " fill="none" style="stroke:#181818;stroke-width:0.5;"/><rect fill="#E2E2F0" height="31.6094" rx="2.5" ry="2.5" style="stroke:#181818;stroke-width:0.5;" width="64" x="247.5" y="50"/><text fill="#000000" font-family="sans-serif" font-size="14" lengthAdjust="spacing" textLength="50" x="254.5" y="71.5332">:System</text><rect fill="#E2E2F0" height="31.6094" rx="2.5" ry="2.5" style="stroke:#181818;stroke-width:0.5;" width="64" x="247.5" y="287.7188"/><text fill="#000000" font-family="sans-serif" font-size="14" lengthAdjust="spacing" textLength="50" x="254.5" y="309.252">:System</text><rect fill="#FFFFFF" height="187.1094" style="stroke:#181818;stroke-width:1.0;" width="10" x="37.5" y="92.6094"/><rect fill="#FFFFFF" height="163.7578" style="stroke:#181818;stroke-width:1.0;" width="10" x="274.5" y="114.9609"/><polygon fill="#181818" points="262.5,110.9609,272.5,114.9609,262.5,118.9609,266.5,114.9609" style="stroke:#181818;stroke-width:1.0;"/><line style="stroke:#181818;stroke-width:1.0;" x1="47.5" x2="268.5" y1="114.9609" y2="114.9609"/><text fill="#000000" font-family="sans-serif" font-size="13" font-weight="bold" lengthAdjust="spacing" textLength="7" x="54.5" y="110.1045">1</text><text fill="#000000" font-family="sans-serif" font-size="13" lengthAdjust="spacing" textLength="197" x="65.5" y="110.1045">call createPassageBetweenFloors</text><polygon fill="#181818" points="58.5,141.3125,48.5,145.3125,58.5,149.3125,54.5,145.3125" style="stroke:#181818;stroke-width:1.0;"/><line style="stroke:#181818;stroke-width:1.0;stroke-dasharray:2.0,2.0;" x1="52.5" x2="273.5" y1="145.3125" y2="145.3125"/><text fill="#000000" font-family="sans-serif" font-size="13" font-weight="bold" lengthAdjust="spacing" textLength="7" x="64.5" y="140.4561">2</text><text fill="#000000" font-family="sans-serif" font-size="13" lengthAdjust="spacing" textLength="144" x="75.5" y="140.4561">request necessary data()</text><polygon fill="#181818" points="262.5,171.6641,272.5,175.6641,262.5,179.6641,266.5,175.6641" style="stroke:#181818;stroke-width:1.0;"/><line style="stroke:#181818;stroke-width:1.0;" x1="47.5" x2="268.5" y1="175.6641" y2="175.6641"/><text fill="#000000" font-family="sans-serif" font-size="13" font-weight="bold" lengthAdjust="spacing" textLength="7" x="54.5" y="170.8076">3</text><text fill="#000000" font-family="sans-serif" font-size="13" lengthAdjust="spacing" textLength="100" x="65.5" y="170.8076">insert all the data</text><path d="M10,190.6641 L71,190.6641 L71,199.0156 L61,209.0156 L10,209.0156 L10,190.6641 " fill="#EEEEEE" style="stroke:#000000;stroke-width:1.5;"/><rect fill="none" height="81.0547" style="stroke:#000000;stroke-width:1.5;" width="311.5" x="10" y="190.6641"/><text fill="#000000" font-family="sans-serif" font-size="13" font-weight="bold" lengthAdjust="spacing" textLength="16" x="25" y="205.1592">alt</text><text fill="#000000" font-family="sans-serif" font-size="11" font-weight="bold" lengthAdjust="spacing" textLength="98" x="86" y="204.083">[successful case]</text><polygon fill="#181818" points="58.5,227.3672,48.5,231.3672,58.5,235.3672,54.5,231.3672" style="stroke:#181818;stroke-width:1.0;"/><line style="stroke:#181818;stroke-width:1.0;stroke-dasharray:2.0,2.0;" x1="52.5" x2="273.5" y1="231.3672" y2="231.3672"/><text fill="#000000" font-family="sans-serif" font-size="13" font-weight="bold" lengthAdjust="spacing" textLength="7" x="64.5" y="226.5107">4</text><text fill="#000000" font-family="sans-serif" font-size="13" lengthAdjust="spacing" textLength="140" x="75.5" y="226.5107">show success message</text><line style="stroke:#000000;stroke-width:1.0;stroke-dasharray:2.0,2.0;" x1="10" x2="321.5" y1="240.3672" y2="240.3672"/><polygon fill="#181818" points="58.5,259.7188,48.5,263.7188,58.5,267.7188,54.5,263.7188" style="stroke:#181818;stroke-width:1.0;"/><line style="stroke:#181818;stroke-width:1.0;stroke-dasharray:2.0,2.0;" x1="52.5" x2="273.5" y1="263.7188" y2="263.7188"/><text fill="#000000" font-family="sans-serif" font-size="13" font-weight="bold" lengthAdjust="spacing" textLength="7" x="64.5" y="258.8623">5</text><text fill="#000000" font-family="sans-serif" font-size="13" lengthAdjust="spacing" textLength="125" x="75.5" y="258.8623">show failure message</text><!--MD5=[44618b94c99c3a8cebc413e98c56d5b6]
@startuml US240_LEVEL1
autonumber
'hide footbox
actor "Admin" as admin

participant ":System" as sys

activate admin

admin -> sys: call createPassageBetweenFloors
activate sys

sys - -> admin: request necessary data()
admin -> sys : insert all the data

alt successful case
    sys - -> admin: show success message
else
    sys - -> admin: show failure message
end
deactivate sys
@enduml

@startuml US240_LEVEL1
autonumber
actor "Admin" as admin

participant ":System" as sys

activate admin

admin -> sys: call createPassageBetweenFloors
activate sys

sys - -> admin: request necessary data()
admin -> sys : insert all the data

alt successful case
    sys - -> admin: show success message
else
    sys - -> admin: show failure message
end
deactivate sys
@enduml

PlantUML version 1.2022.7(Mon Aug 22 18:01:30 WEST 2022)
(GPL source distribution)
Java Runtime: Java(TM) SE Runtime Environment
JVM: Java HotSpot(TM) 64-Bit Server VM
Default Encoding: Cp1252
Language: pt
Country: PT
--></g></svg>