<?xml version="1.0" encoding="UTF-8" standalone="no"?><svg xmlns="http://www.w3.org/2000/svg" xmlns:xlink="http://www.w3.org/1999/xlink" contentScriptType="application/ecmascript" contentStyleType="text/css" height="635px" preserveAspectRatio="none" style="width:1038px;height:635px;" version="1.1" viewBox="0 0 1038 635" width="1038px" zoomAndPan="magnify"><defs><filter height="300%" id="f1o4panxlz4ogt" width="300%" x="-1" y="-1"><feGaussianBlur result="blurOut" stdDeviation="2.0"/><feColorMatrix in="blurOut" result="blurOut2" type="matrix" values="0 0 0 0 0 0 0 0 0 0 0 0 0 0 0 0 0 0 .4 0"/><feOffset dx="4.0" dy="4.0" in="blurOut2" result="blurOut3"/><feBlend in="SourceGraphic" in2="blurOut3" mode="normal"/></filter></defs><g><rect fill="#FFFFFF" filter="url(#f1o4panxlz4ogt)" height="362.0703" style="stroke: #A80036; stroke-width: 1.0;" width="10" x="599" y="146.5625"/><rect fill="#FFFFFF" filter="url(#f1o4panxlz4ogt)" height="228.7344" style="stroke: #A80036; stroke-width: 1.0;" width="10" x="794" y="175.6953"/><rect fill="#FFFFFF" filter="url(#f1o4panxlz4ogt)" height="29.1328" style="stroke: #A80036; stroke-width: 1.0;" width="10" x="967" y="204.8281"/><rect fill="#FFFFFF" filter="url(#f1o4panxlz4ogt)" height="29.1328" style="stroke: #A80036; stroke-width: 1.0;" width="10" x="967" y="287.2266"/><rect fill="#FFFFFF" filter="url(#f1o4panxlz4ogt)" height="148.4688" style="stroke: #000000; stroke-width: 2.0;" width="505" x="521.5" y="248.9609"/><rect fill="#FFFFFF" height="43.9375" style="stroke: none; stroke-width: 1.0;" width="505" x="521.5" y="353.4922"/><rect fill="#FFFFFF" filter="url(#f1o4panxlz4ogt)" height="90.2031" style="stroke: #000000; stroke-width: 2.0;" width="408.5" x="278" y="411.4297"/><rect fill="#FFFFFF" height="43.9375" style="stroke: none; stroke-width: 1.0;" width="408.5" x="278" y="457.6953"/><line style="stroke: #A80036; stroke-width: 1.0; stroke-dasharray: 5.0,5.0;" x1="27" x2="27" y1="86.2969" y2="547.7656"/><line style="stroke: #A80036; stroke-width: 1.0; stroke-dasharray: 5.0,5.0;" x1="331" x2="331" y1="86.2969" y2="547.7656"/><line style="stroke: #A80036; stroke-width: 1.0; stroke-dasharray: 5.0,5.0;" x1="603.5" x2="603.5" y1="86.2969" y2="547.7656"/><line style="stroke: #A80036; stroke-width: 1.0; stroke-dasharray: 5.0,5.0;" x1="799" x2="799" y1="86.2969" y2="547.7656"/><line style="stroke: #A80036; stroke-width: 1.0; stroke-dasharray: 5.0,5.0;" x1="971.5" x2="971.5" y1="86.2969" y2="547.7656"/><text fill="#000000" font-family="sans-serif" font-size="14" lengthAdjust="spacingAndGlyphs" textLength="32" x="8" y="82.9951">User</text><ellipse cx="27" cy="13" fill="#FEFECE" filter="url(#f1o4panxlz4ogt)" rx="8" ry="8" style="stroke: #A80036; stroke-width: 2.0;"/><path d="M27,21 L27,48 M14,29 L40,29 M27,48 L14,63 M27,48 L40,63 " fill="none" filter="url(#f1o4panxlz4ogt)" style="stroke: #A80036; stroke-width: 2.0;"/><text fill="#000000" font-family="sans-serif" font-size="14" lengthAdjust="spacingAndGlyphs" textLength="32" x="8" y="559.7607">User</text><ellipse cx="27" cy="573.0625" fill="#FEFECE" filter="url(#f1o4panxlz4ogt)" rx="8" ry="8" style="stroke: #A80036; stroke-width: 2.0;"/><path d="M27,581.0625 L27,608.0625 M14,589.0625 L40,589.0625 M27,608.0625 L14,623.0625 M27,608.0625 L40,623.0625 " fill="none" filter="url(#f1o4panxlz4ogt)" style="stroke: #A80036; stroke-width: 2.0;"/><rect fill="#FEFECE" filter="url(#f1o4panxlz4ogt)" height="30.2969" style="stroke: #A80036; stroke-width: 1.5;" width="82" x="288" y="51"/><text fill="#000000" font-family="sans-serif" font-size="14" lengthAdjust="spacingAndGlyphs" textLength="68" x="295" y="70.9951">:FrontEnd</text><rect fill="#FEFECE" filter="url(#f1o4panxlz4ogt)" height="30.2969" style="stroke: #A80036; stroke-width: 1.5;" width="82" x="288" y="546.7656"/><text fill="#000000" font-family="sans-serif" font-size="14" lengthAdjust="spacingAndGlyphs" textLength="68" x="295" y="566.7607">:FrontEnd</text><rect fill="#FEFECE" filter="url(#f1o4panxlz4ogt)" height="30.2969" style="stroke: #A80036; stroke-width: 1.5;" width="141" x="531.5" y="51"/><text fill="#000000" font-family="sans-serif" font-size="14" lengthAdjust="spacingAndGlyphs" textLength="127" x="538.5" y="70.9951">:BuildingController</text><rect fill="#FEFECE" filter="url(#f1o4panxlz4ogt)" height="30.2969" style="stroke: #A80036; stroke-width: 1.5;" width="141" x="531.5" y="546.7656"/><text fill="#000000" font-family="sans-serif" font-size="14" lengthAdjust="spacingAndGlyphs" textLength="127" x="538.5" y="566.7607">:BuildingController</text><rect fill="#FEFECE" filter="url(#f1o4panxlz4ogt)" height="30.2969" style="stroke: #A80036; stroke-width: 1.5;" width="124" x="735" y="51"/><text fill="#000000" font-family="sans-serif" font-size="14" lengthAdjust="spacingAndGlyphs" textLength="110" x="742" y="70.9951">:BuildingService</text><rect fill="#FEFECE" filter="url(#f1o4panxlz4ogt)" height="30.2969" style="stroke: #A80036; stroke-width: 1.5;" width="124" x="735" y="546.7656"/><text fill="#000000" font-family="sans-serif" font-size="14" lengthAdjust="spacingAndGlyphs" textLength="110" x="742" y="566.7607">:BuildingService</text><rect fill="#FEFECE" filter="url(#f1o4panxlz4ogt)" height="30.2969" style="stroke: #A80036; stroke-width: 1.5;" width="85" x="927.5" y="51"/><text fill="#000000" font-family="sans-serif" font-size="14" lengthAdjust="spacingAndGlyphs" textLength="71" x="934.5" y="70.9951">:Database</text><rect fill="#FEFECE" filter="url(#f1o4panxlz4ogt)" height="30.2969" style="stroke: #A80036; stroke-width: 1.5;" width="85" x="927.5" y="546.7656"/><text fill="#000000" font-family="sans-serif" font-size="14" lengthAdjust="spacingAndGlyphs" textLength="71" x="934.5" y="566.7607">:Database</text><rect fill="#FFFFFF" filter="url(#f1o4panxlz4ogt)" height="362.0703" style="stroke: #A80036; stroke-width: 1.0;" width="10" x="599" y="146.5625"/><rect fill="#FFFFFF" filter="url(#f1o4panxlz4ogt)" height="228.7344" style="stroke: #A80036; stroke-width: 1.0;" width="10" x="794" y="175.6953"/><rect fill="#FFFFFF" filter="url(#f1o4panxlz4ogt)" height="29.1328" style="stroke: #A80036; stroke-width: 1.0;" width="10" x="967" y="204.8281"/><rect fill="#FFFFFF" filter="url(#f1o4panxlz4ogt)" height="29.1328" style="stroke: #A80036; stroke-width: 1.0;" width="10" x="967" y="287.2266"/><polygon fill="#A80036" points="319,113.4297,329,117.4297,319,121.4297,323,117.4297" style="stroke: #A80036; stroke-width: 1.0;"/><line style="stroke: #A80036; stroke-width: 1.0;" x1="27" x2="325" y1="117.4297" y2="117.4297"/><text fill="#000000" font-family="sans-serif" font-size="13" lengthAdjust="spacingAndGlyphs" textLength="188" x="34" y="112.3638">Access building creation form</text><polygon fill="#A80036" points="587,142.5625,597,146.5625,587,150.5625,591,146.5625" style="stroke: #A80036; stroke-width: 1.0;"/><line style="stroke: #A80036; stroke-width: 1.0;" x1="331" x2="593" y1="146.5625" y2="146.5625"/><text fill="#000000" font-family="sans-serif" font-size="13" lengthAdjust="spacingAndGlyphs" textLength="132" x="338" y="141.4966">Submit building data</text><polygon fill="#A80036" points="782,171.6953,792,175.6953,782,179.6953,786,175.6953" style="stroke: #A80036; stroke-width: 1.0;"/><line style="stroke: #A80036; stroke-width: 1.0;" x1="609" x2="788" y1="175.6953" y2="175.6953"/><text fill="#000000" font-family="sans-serif" font-size="13" lengthAdjust="spacingAndGlyphs" textLength="130" x="616" y="170.6294">createBuilding(data)</text><polygon fill="#A80036" points="955,200.8281,965,204.8281,955,208.8281,959,204.8281" style="stroke: #A80036; stroke-width: 1.0;"/><line style="stroke: #A80036; stroke-width: 1.0;" x1="804" x2="961" y1="204.8281" y2="204.8281"/><text fill="#000000" font-family="sans-serif" font-size="13" lengthAdjust="spacingAndGlyphs" textLength="144" x="811" y="199.7622">Check if building exists</text><polygon fill="#A80036" points="815,229.9609,805,233.9609,815,237.9609,811,233.9609" style="stroke: #A80036; stroke-width: 1.0;"/><line style="stroke: #A80036; stroke-width: 1.0; stroke-dasharray: 2.0,2.0;" x1="809" x2="971" y1="233.9609" y2="233.9609"/><text fill="#000000" font-family="sans-serif" font-size="13" lengthAdjust="spacingAndGlyphs" textLength="134" x="821" y="228.895">Building exists or null</text><path d="M521.5,248.9609 L585.5,248.9609 L585.5,255.9609 L575.5,265.9609 L521.5,265.9609 L521.5,248.9609 " fill="#EEEEEE" style="stroke: #000000; stroke-width: 1.0;"/><rect fill="none" height="148.4688" style="stroke: #000000; stroke-width: 2.0;" width="505" x="521.5" y="248.9609"/><text fill="#000000" font-family="sans-serif" font-size="13" font-weight="bold" lengthAdjust="spacingAndGlyphs" textLength="19" x="536.5" y="262.0278">alt</text><text fill="#000000" font-family="sans-serif" font-size="11" font-weight="bold" lengthAdjust="spacingAndGlyphs" textLength="158" x="600.5" y="261.1714">[Building does not exist]</text><polygon fill="#A80036" points="955,283.2266,965,287.2266,955,291.2266,959,287.2266" style="stroke: #A80036; stroke-width: 1.0;"/><line style="stroke: #A80036; stroke-width: 1.0;" x1="804" x2="961" y1="287.2266" y2="287.2266"/><text fill="#000000" font-family="sans-serif" font-size="13" lengthAdjust="spacingAndGlyphs" textLength="114" x="811" y="282.1606">Save new building</text><polygon fill="#A80036" points="815,312.3594,805,316.3594,815,320.3594,811,316.3594" style="stroke: #A80036; stroke-width: 1.0;"/><line style="stroke: #A80036; stroke-width: 1.0; stroke-dasharray: 2.0,2.0;" x1="809" x2="971" y1="316.3594" y2="316.3594"/><text fill="#000000" font-family="sans-serif" font-size="13" lengthAdjust="spacingAndGlyphs" textLength="92" x="821" y="311.2935">Building saved</text><polygon fill="#A80036" points="620,341.4922,610,345.4922,620,349.4922,616,345.4922" style="stroke: #A80036; stroke-width: 1.0;"/><line style="stroke: #A80036; stroke-width: 1.0; stroke-dasharray: 2.0,2.0;" x1="614" x2="793" y1="345.4922" y2="345.4922"/><text fill="#000000" font-family="sans-serif" font-size="13" lengthAdjust="spacingAndGlyphs" textLength="161" x="626" y="340.4263">Building creation success</text><line style="stroke: #000000; stroke-width: 1.0; stroke-dasharray: 2.0,2.0;" x1="521.5" x2="1026.5" y1="354.4922" y2="354.4922"/><text fill="#000000" font-family="sans-serif" font-size="11" font-weight="bold" lengthAdjust="spacingAndGlyphs" textLength="105" x="526.5" y="364.7026">[Building exists]</text><polygon fill="#A80036" points="620,385.4297,610,389.4297,620,393.4297,616,389.4297" style="stroke: #A80036; stroke-width: 1.0;"/><line style="stroke: #A80036; stroke-width: 1.0; stroke-dasharray: 2.0,2.0;" x1="614" x2="793" y1="389.4297" y2="389.4297"/><text fill="#000000" font-family="sans-serif" font-size="13" lengthAdjust="spacingAndGlyphs" textLength="149" x="626" y="384.3638">Building creation failure</text><path d="M278,411.4297 L342,411.4297 L342,418.4297 L332,428.4297 L278,428.4297 L278,411.4297 " fill="#EEEEEE" style="stroke: #000000; stroke-width: 1.0;"/><rect fill="none" height="90.2031" style="stroke: #000000; stroke-width: 2.0;" width="408.5" x="278" y="411.4297"/><text fill="#000000" font-family="sans-serif" font-size="13" font-weight="bold" lengthAdjust="spacingAndGlyphs" textLength="19" x="293" y="424.4966">alt</text><text fill="#000000" font-family="sans-serif" font-size="11" font-weight="bold" lengthAdjust="spacingAndGlyphs" textLength="175" x="357" y="423.6401">[Building creation success]</text><polygon fill="#A80036" points="342,445.6953,332,449.6953,342,453.6953,338,449.6953" style="stroke: #A80036; stroke-width: 1.0;"/><line style="stroke: #A80036; stroke-width: 1.0; stroke-dasharray: 2.0,2.0;" x1="336" x2="598" y1="449.6953" y2="449.6953"/><text fill="#000000" font-family="sans-serif" font-size="13" lengthAdjust="spacingAndGlyphs" textLength="244" x="348" y="444.6294">Success response with building details</text><line style="stroke: #000000; stroke-width: 1.0; stroke-dasharray: 2.0,2.0;" x1="278" x2="686.5" y1="458.6953" y2="458.6953"/><text fill="#000000" font-family="sans-serif" font-size="11" font-weight="bold" lengthAdjust="spacingAndGlyphs" textLength="166" x="283" y="468.9058">[Building creation failure]</text><polygon fill="#A80036" points="342,489.6328,332,493.6328,342,497.6328,338,493.6328" style="stroke: #A80036; stroke-width: 1.0;"/><line style="stroke: #A80036; stroke-width: 1.0; stroke-dasharray: 2.0,2.0;" x1="336" x2="598" y1="493.6328" y2="493.6328"/><text fill="#000000" font-family="sans-serif" font-size="13" lengthAdjust="spacingAndGlyphs" textLength="105" x="348" y="488.5669">Failure response</text><polygon fill="#A80036" points="38,525.7656,28,529.7656,38,533.7656,34,529.7656" style="stroke: #A80036; stroke-width: 1.0;"/><line style="stroke: #A80036; stroke-width: 1.0;" x1="32" x2="330" y1="529.7656" y2="529.7656"/><text fill="#000000" font-family="sans-serif" font-size="13" lengthAdjust="spacingAndGlyphs" textLength="280" x="44" y="524.6997">Display creation outcome (success or error)</text><!--MD5=[9e4194a5025b440c7e59b98d3f4e444b]
@startuml lvl2_createBuilding

actor "User" as A
participant ":FrontEnd" as frontend
participant ":BuildingController" as controller
participant ":BuildingService" as service
participant ":Database" as db

A -> frontend: Access building creation form
frontend -> controller: Submit building data
activate controller
controller -> service: createBuilding(data)
activate service

service -> db: Check if building exists
activate db
db - -> service: Building exists or null
deactivate db

alt Building does not exist
    service -> db: Save new building
    activate db
    db - -> service: Building saved
    deactivate db
    service - -> controller: Building creation success
else Building exists
    service - -> controller: Building creation failure
end
deactivate service

alt Building creation success
    controller - -> frontend: Success response with building details
else Building creation failure
    controller - -> frontend: Failure response
end
deactivate controller

frontend -> A: Display creation outcome (success or error)

@enduml

PlantUML version 1.2020.02(Sun Mar 01 10:22:07 UTC 2020)
(GPL source distribution)
Java Runtime: OpenJDK Runtime Environment
JVM: OpenJDK 64-Bit Server VM
Java Version: 11.0.21+9
Operating System: Linux
Default Encoding: UTF-8
Language: en
Country: null
--></g></svg>