<?xml version="1.0" encoding="UTF-8" standalone="no"?><svg xmlns="http://www.w3.org/2000/svg" xmlns:xlink="http://www.w3.org/1999/xlink" contentStyleType="text/css" height="1345px" preserveAspectRatio="none" style="width:3001px;height:1345px;background:#FFFFFF;" version="1.1" viewBox="0 0 3001 1345" width="3001px" zoomAndPan="magnify"><defs/><g><rect fill="#FFFFFF" height="1229.8672" style="stroke:#181818;stroke-width:1.0;" width="10" x="334.5" y="69.9609"/><rect fill="#FFFFFF" height="1198.5156" style="stroke:#181818;stroke-width:1.0;" width="10" x="637.5" y="100.3125"/><rect fill="#FFFFFF" height="1124.8125" style="stroke:#181818;stroke-width:1.0;" width="10" x="873.5" y="175.0156"/><rect fill="#FFFFFF" height="1093.4609" style="stroke:#181818;stroke-width:1.0;" width="10" x="1081.5" y="205.3672"/><rect fill="#FFFFFF" height="212.4609" style="stroke:#181818;stroke-width:1.0;" width="10" x="1316.5" y="235.7188"/><rect fill="#FFFFFF" height="151.7578" style="stroke:#181818;stroke-width:1.0;" width="10" x="1551.5" y="266.0703"/><rect fill="#FFFFFF" height="91.0547" style="stroke:#181818;stroke-width:1.0;" width="10" x="1786.5" y="296.4219"/><rect fill="#FFFFFF" height="30.3516" style="stroke:#181818;stroke-width:1.0;" width="10" x="1977.5" y="326.7734"/><rect fill="#FFFFFF" height="212.4609" style="stroke:#181818;stroke-width:1.0;" width="10" x="2071.5" y="620.2891"/><rect fill="#FFFFFF" height="151.7578" style="stroke:#181818;stroke-width:1.0;" width="10" x="2214.5" y="650.6406"/><rect fill="#FFFFFF" height="60.7031" style="stroke:#181818;stroke-width:1.0;" width="10" x="2391.5" y="503.8828"/><rect fill="#FFFFFF" height="30.3516" style="stroke:#181818;stroke-width:1.0;" width="10" x="2391.5" y="680.9922"/><rect fill="#FFFFFF" height="30.3516" style="stroke:#181818;stroke-width:1.0;" width="10" x="2391.5" y="863.1016"/><rect fill="#FFFFFF" height="30.3516" style="stroke:#181818;stroke-width:1.0;" width="10" x="2514.5" y="534.2344"/><rect fill="#FFFFFF" height="14" style="stroke:#181818;stroke-width:1.0;" width="10" x="2599.5" y="130.6641"/><rect fill="#FFFFFF" height="30.3516" style="stroke:#181818;stroke-width:1.0;" width="10" x="2927.5" y="741.6953"/><rect fill="none" height="659.0547" style="stroke:#000000;stroke-width:1.5;" width="2419.5" x="575" y="463.1797"/><rect fill="none" height="459.1094" style="stroke:#000000;stroke-width:1.5;" width="2399.5" x="585" y="579.5859"/><rect fill="none" height="155.5938" style="stroke:#000000;stroke-width:1.5;" width="690" x="10" y="1136.2344"/><line style="stroke:#181818;stroke-width:0.5;stroke-dasharray:5.0,5.0;" x1="41" x2="41" y1="37.6094" y2="1308.8281"/><line style="stroke:#181818;stroke-width:0.5;stroke-dasharray:5.0,5.0;" x1="339.5" x2="339.5" y1="37.6094" y2="1308.8281"/><line style="stroke:#181818;stroke-width:0.5;stroke-dasharray:5.0,5.0;" x1="642" x2="642" y1="37.6094" y2="1308.8281"/><line style="stroke:#181818;stroke-width:0.5;stroke-dasharray:5.0,5.0;" x1="878" x2="878" y1="37.6094" y2="1308.8281"/><line style="stroke:#181818;stroke-width:0.5;stroke-dasharray:5.0,5.0;" x1="1086.5" x2="1086.5" y1="37.6094" y2="1308.8281"/><line style="stroke:#181818;stroke-width:0.5;stroke-dasharray:5.0,5.0;" x1="1321.5" x2="1321.5" y1="37.6094" y2="1308.8281"/><line style="stroke:#181818;stroke-width:0.5;stroke-dasharray:5.0,5.0;" x1="1556" x2="1556" y1="37.6094" y2="1308.8281"/><line style="stroke:#181818;stroke-width:0.5;stroke-dasharray:5.0,5.0;" x1="1791" x2="1791" y1="37.6094" y2="1308.8281"/><line style="stroke:#181818;stroke-width:0.5;stroke-dasharray:5.0,5.0;" x1="1982.5" x2="1982.5" y1="37.6094" y2="1308.8281"/><line style="stroke:#181818;stroke-width:0.5;stroke-dasharray:5.0,5.0;" x1="2076.5" x2="2076.5" y1="37.6094" y2="1308.8281"/><line style="stroke:#181818;stroke-width:0.5;stroke-dasharray:5.0,5.0;" x1="2219" x2="2219" y1="37.6094" y2="1308.8281"/><line style="stroke:#181818;stroke-width:0.5;stroke-dasharray:5.0,5.0;" x1="2396.5" x2="2396.5" y1="37.6094" y2="1308.8281"/><line style="stroke:#181818;stroke-width:0.5;stroke-dasharray:5.0,5.0;" x1="2519.5" x2="2519.5" y1="37.6094" y2="1308.8281"/><line style="stroke:#181818;stroke-width:0.5;stroke-dasharray:5.0,5.0;" x1="2604.5" x2="2604.5" y1="37.6094" y2="1308.8281"/><line style="stroke:#181818;stroke-width:0.5;stroke-dasharray:5.0,5.0;" x1="2708.5" x2="2708.5" y1="37.6094" y2="1308.8281"/><line style="stroke:#181818;stroke-width:0.5;stroke-dasharray:5.0,5.0;" x1="2826.5" x2="2826.5" y1="37.6094" y2="1308.8281"/><line style="stroke:#181818;stroke-width:0.5;stroke-dasharray:5.0,5.0;" x1="2932.5" x2="2932.5" y1="37.6094" y2="1308.8281"/><rect fill="#E2E2F0" height="31.6094" rx="2.5" ry="2.5" style="stroke:#181818;stroke-width:0.5;" width="43" x="20" y="5"/><text fill="#000000" font-family="sans-serif" font-size="14" lengthAdjust="spacing" textLength="29" x="27" y="26.5332">User</text><rect fill="#E2E2F0" height="31.6094" rx="2.5" ry="2.5" style="stroke:#181818;stroke-width:0.5;" width="43" x="20" y="1307.8281"/><text fill="#000000" font-family="sans-serif" font-size="14" lengthAdjust="spacing" textLength="29" x="27" y="1329.3613">User</text><rect fill="#E2E2F0" height="31.6094" rx="2.5" ry="2.5" style="stroke:#181818;stroke-width:0.5;" width="98" x="290.5" y="5"/><text fill="#000000" font-family="sans-serif" font-size="14" lengthAdjust="spacing" textLength="84" x="297.5" y="26.5332">ILiftController</text><rect fill="#E2E2F0" height="31.6094" rx="2.5" ry="2.5" style="stroke:#181818;stroke-width:0.5;" width="98" x="290.5" y="1307.8281"/><text fill="#000000" font-family="sans-serif" font-size="14" lengthAdjust="spacing" textLength="84" x="297.5" y="1329.3613">ILiftController</text><rect fill="#E2E2F0" height="31.6094" rx="2.5" ry="2.5" style="stroke:#181818;stroke-width:0.5;" width="95" x="595" y="5"/><text fill="#000000" font-family="sans-serif" font-size="14" lengthAdjust="spacing" textLength="81" x="602" y="26.5332">LiftController</text><rect fill="#E2E2F0" height="31.6094" rx="2.5" ry="2.5" style="stroke:#181818;stroke-width:0.5;" width="95" x="595" y="1307.8281"/><text fill="#000000" font-family="sans-serif" font-size="14" lengthAdjust="spacing" textLength="81" x="602" y="1329.3613">LiftController</text><rect fill="#E2E2F0" height="31.6094" rx="2.5" ry="2.5" style="stroke:#181818;stroke-width:0.5;" width="83" x="837" y="5"/><text fill="#000000" font-family="sans-serif" font-size="14" lengthAdjust="spacing" textLength="69" x="844" y="26.5332">ILiftService</text><rect fill="#E2E2F0" height="31.6094" rx="2.5" ry="2.5" style="stroke:#181818;stroke-width:0.5;" width="83" x="837" y="1307.8281"/><text fill="#000000" font-family="sans-serif" font-size="14" lengthAdjust="spacing" textLength="69" x="844" y="1329.3613">ILiftService</text><rect fill="#E2E2F0" height="31.6094" rx="2.5" ry="2.5" style="stroke:#181818;stroke-width:0.5;" width="80" x="1046.5" y="5"/><text fill="#000000" font-family="sans-serif" font-size="14" lengthAdjust="spacing" textLength="66" x="1053.5" y="26.5332">LiftService</text><rect fill="#E2E2F0" height="31.6094" rx="2.5" ry="2.5" style="stroke:#181818;stroke-width:0.5;" width="80" x="1046.5" y="1307.8281"/><text fill="#000000" font-family="sans-serif" font-size="14" lengthAdjust="spacing" textLength="66" x="1053.5" y="1329.3613">LiftService</text><rect fill="#E2E2F0" height="31.6094" rx="2.5" ry="2.5" style="stroke:#181818;stroke-width:0.5;" width="114" x="1264.5" y="5"/><text fill="#000000" font-family="sans-serif" font-size="14" lengthAdjust="spacing" textLength="100" x="1271.5" y="26.5332">IBuildingService</text><rect fill="#E2E2F0" height="31.6094" rx="2.5" ry="2.5" style="stroke:#181818;stroke-width:0.5;" width="114" x="1264.5" y="1307.8281"/><text fill="#000000" font-family="sans-serif" font-size="14" lengthAdjust="spacing" textLength="100" x="1271.5" y="1329.3613">IBuildingService</text><rect fill="#E2E2F0" height="31.6094" rx="2.5" ry="2.5" style="stroke:#181818;stroke-width:0.5;" width="111" x="1501" y="5"/><text fill="#000000" font-family="sans-serif" font-size="14" lengthAdjust="spacing" textLength="97" x="1508" y="26.5332">BuildingService</text><rect fill="#E2E2F0" height="31.6094" rx="2.5" ry="2.5" style="stroke:#181818;stroke-width:0.5;" width="111" x="1501" y="1307.8281"/><text fill="#000000" font-family="sans-serif" font-size="14" lengthAdjust="spacing" textLength="97" x="1508" y="1329.3613">BuildingService</text><rect fill="#E2E2F0" height="31.6094" rx="2.5" ry="2.5" style="stroke:#181818;stroke-width:0.5;" width="101" x="1741" y="5"/><text fill="#000000" font-family="sans-serif" font-size="14" lengthAdjust="spacing" textLength="87" x="1748" y="26.5332">IBuildingRepo</text><rect fill="#E2E2F0" height="31.6094" rx="2.5" ry="2.5" style="stroke:#181818;stroke-width:0.5;" width="101" x="1741" y="1307.8281"/><text fill="#000000" font-family="sans-serif" font-size="14" lengthAdjust="spacing" textLength="87" x="1748" y="1329.3613">IBuildingRepo</text><rect fill="#E2E2F0" height="31.6094" rx="2.5" ry="2.5" style="stroke:#181818;stroke-width:0.5;" width="98" x="1933.5" y="5"/><text fill="#000000" font-family="sans-serif" font-size="14" lengthAdjust="spacing" textLength="84" x="1940.5" y="26.5332">BuildingRepo</text><rect fill="#E2E2F0" height="31.6094" rx="2.5" ry="2.5" style="stroke:#181818;stroke-width:0.5;" width="98" x="1933.5" y="1307.8281"/><text fill="#000000" font-family="sans-serif" font-size="14" lengthAdjust="spacing" textLength="84" x="1940.5" y="1329.3613">BuildingRepo</text><rect fill="#E2E2F0" height="31.6094" rx="2.5" ry="2.5" style="stroke:#181818;stroke-width:0.5;" width="70" x="2041.5" y="5"/><text fill="#000000" font-family="sans-serif" font-size="14" lengthAdjust="spacing" textLength="56" x="2048.5" y="26.5332">ILiftRepo</text><rect fill="#E2E2F0" height="31.6094" rx="2.5" ry="2.5" style="stroke:#181818;stroke-width:0.5;" width="70" x="2041.5" y="1307.8281"/><text fill="#000000" font-family="sans-serif" font-size="14" lengthAdjust="spacing" textLength="56" x="2048.5" y="1329.3613">ILiftRepo</text><rect fill="#E2E2F0" height="31.6094" rx="2.5" ry="2.5" style="stroke:#181818;stroke-width:0.5;" width="67" x="2186" y="5"/><text fill="#000000" font-family="sans-serif" font-size="14" lengthAdjust="spacing" textLength="53" x="2193" y="26.5332">LiftRepo</text><rect fill="#E2E2F0" height="31.6094" rx="2.5" ry="2.5" style="stroke:#181818;stroke-width:0.5;" width="67" x="2186" y="1307.8281"/><text fill="#000000" font-family="sans-serif" font-size="14" lengthAdjust="spacing" textLength="53" x="2193" y="1329.3613">LiftRepo</text><rect fill="#E2E2F0" height="31.6094" rx="2.5" ry="2.5" style="stroke:#181818;stroke-width:0.5;" width="60" x="2366.5" y="5"/><text fill="#000000" font-family="sans-serif" font-size="14" lengthAdjust="spacing" textLength="46" x="2373.5" y="26.5332">LiftMap</text><rect fill="#E2E2F0" height="31.6094" rx="2.5" ry="2.5" style="stroke:#181818;stroke-width:0.5;" width="60" x="2366.5" y="1307.8281"/><text fill="#000000" font-family="sans-serif" font-size="14" lengthAdjust="spacing" textLength="46" x="2373.5" y="1329.3613">LiftMap</text><rect fill="#E2E2F0" height="31.6094" rx="2.5" ry="2.5" style="stroke:#181818;stroke-width:0.5;" width="72" x="2483.5" y="5"/><text fill="#000000" font-family="sans-serif" font-size="14" lengthAdjust="spacing" textLength="58" x="2490.5" y="26.5332">Lift Entity</text><rect fill="#E2E2F0" height="31.6094" rx="2.5" ry="2.5" style="stroke:#181818;stroke-width:0.5;" width="72" x="2483.5" y="1307.8281"/><text fill="#000000" font-family="sans-serif" font-size="14" lengthAdjust="spacing" textLength="58" x="2490.5" y="1329.3613">Lift Entity</text><rect fill="#E2E2F0" height="31.6094" rx="2.5" ry="2.5" style="stroke:#181818;stroke-width:0.5;" width="78" x="2565.5" y="5"/><text fill="#000000" font-family="sans-serif" font-size="14" lengthAdjust="spacing" textLength="64" x="2572.5" y="26.5332">ConfigFile</text><rect fill="#E2E2F0" height="31.6094" rx="2.5" ry="2.5" style="stroke:#181818;stroke-width:0.5;" width="78" x="2565.5" y="1307.8281"/><text fill="#000000" font-family="sans-serif" font-size="14" lengthAdjust="spacing" textLength="64" x="2572.5" y="1329.3613">ConfigFile</text><rect fill="#E2E2F0" height="31.6094" rx="2.5" ry="2.5" style="stroke:#181818;stroke-width:0.5;" width="110" x="2653.5" y="5"/><text fill="#000000" font-family="sans-serif" font-size="14" lengthAdjust="spacing" textLength="96" x="2660.5" y="26.5332">ILiftPersistence</text><rect fill="#E2E2F0" height="31.6094" rx="2.5" ry="2.5" style="stroke:#181818;stroke-width:0.5;" width="110" x="2653.5" y="1307.8281"/><text fill="#000000" font-family="sans-serif" font-size="14" lengthAdjust="spacing" textLength="96" x="2660.5" y="1329.3613">ILiftPersistence</text><rect fill="#E2E2F0" height="31.6094" rx="2.5" ry="2.5" style="stroke:#181818;stroke-width:0.5;" width="107" x="2773.5" y="5"/><text fill="#000000" font-family="sans-serif" font-size="14" lengthAdjust="spacing" textLength="93" x="2780.5" y="26.5332">LiftPersistence</text><rect fill="#E2E2F0" height="31.6094" rx="2.5" ry="2.5" style="stroke:#181818;stroke-width:0.5;" width="107" x="2773.5" y="1307.8281"/><text fill="#000000" font-family="sans-serif" font-size="14" lengthAdjust="spacing" textLength="93" x="2780.5" y="1329.3613">LiftPersistence</text><rect fill="#E2E2F0" height="31.6094" rx="2.5" ry="2.5" style="stroke:#181818;stroke-width:0.5;" width="84" x="2890.5" y="5"/><text fill="#000000" font-family="sans-serif" font-size="14" lengthAdjust="spacing" textLength="70" x="2897.5" y="26.5332">LiftSchema</text><rect fill="#E2E2F0" height="31.6094" rx="2.5" ry="2.5" style="stroke:#181818;stroke-width:0.5;" width="84" x="2890.5" y="1307.8281"/><text fill="#000000" font-family="sans-serif" font-size="14" lengthAdjust="spacing" textLength="70" x="2897.5" y="1329.3613">LiftSchema</text><rect fill="#FFFFFF" height="1229.8672" style="stroke:#181818;stroke-width:1.0;" width="10" x="334.5" y="69.9609"/><rect fill="#FFFFFF" height="1198.5156" style="stroke:#181818;stroke-width:1.0;" width="10" x="637.5" y="100.3125"/><rect fill="#FFFFFF" height="1124.8125" style="stroke:#181818;stroke-width:1.0;" width="10" x="873.5" y="175.0156"/><rect fill="#FFFFFF" height="1093.4609" style="stroke:#181818;stroke-width:1.0;" width="10" x="1081.5" y="205.3672"/><rect fill="#FFFFFF" height="212.4609" style="stroke:#181818;stroke-width:1.0;" width="10" x="1316.5" y="235.7188"/><rect fill="#FFFFFF" height="151.7578" style="stroke:#181818;stroke-width:1.0;" width="10" x="1551.5" y="266.0703"/><rect fill="#FFFFFF" height="91.0547" style="stroke:#181818;stroke-width:1.0;" width="10" x="1786.5" y="296.4219"/><rect fill="#FFFFFF" height="30.3516" style="stroke:#181818;stroke-width:1.0;" width="10" x="1977.5" y="326.7734"/><rect fill="#FFFFFF" height="212.4609" style="stroke:#181818;stroke-width:1.0;" width="10" x="2071.5" y="620.2891"/><rect fill="#FFFFFF" height="151.7578" style="stroke:#181818;stroke-width:1.0;" width="10" x="2214.5" y="650.6406"/><rect fill="#FFFFFF" height="60.7031" style="stroke:#181818;stroke-width:1.0;" width="10" x="2391.5" y="503.8828"/><rect fill="#FFFFFF" height="30.3516" style="stroke:#181818;stroke-width:1.0;" width="10" x="2391.5" y="680.9922"/><rect fill="#FFFFFF" height="30.3516" style="stroke:#181818;stroke-width:1.0;" width="10" x="2391.5" y="863.1016"/><rect fill="#FFFFFF" height="30.3516" style="stroke:#181818;stroke-width:1.0;" width="10" x="2514.5" y="534.2344"/><rect fill="#FFFFFF" height="14" style="stroke:#181818;stroke-width:1.0;" width="10" x="2599.5" y="130.6641"/><rect fill="#FFFFFF" height="30.3516" style="stroke:#181818;stroke-width:1.0;" width="10" x="2927.5" y="741.6953"/><polygon fill="#181818" points="322.5,65.9609,332.5,69.9609,322.5,73.9609,326.5,69.9609" style="stroke:#181818;stroke-width:1.0;"/><line style="stroke:#181818;stroke-width:1.0;" x1="41.5" x2="328.5" y1="69.9609" y2="69.9609"/><text fill="#000000" font-family="sans-serif" font-size="13" lengthAdjust="spacing" textLength="232" x="48.5" y="65.1045">send request to createLift(req, res, next)</text><polygon fill="#181818" points="625.5,96.3125,635.5,100.3125,625.5,104.3125,629.5,100.3125" style="stroke:#181818;stroke-width:1.0;"/><line style="stroke:#181818;stroke-width:1.0;" x1="344.5" x2="631.5" y1="100.3125" y2="100.3125"/><text fill="#000000" font-family="sans-serif" font-size="13" lengthAdjust="spacing" textLength="138" x="351.5" y="95.4561">createLift(req, res, next)</text><polygon fill="#181818" points="2587.5,126.6641,2597.5,130.6641,2587.5,134.6641,2591.5,130.6641" style="stroke:#181818;stroke-width:1.0;"/><line style="stroke:#181818;stroke-width:1.0;" x1="647.5" x2="2593.5" y1="130.6641" y2="130.6641"/><text fill="#000000" font-family="sans-serif" font-size="13" lengthAdjust="spacing" textLength="84" x="654.5" y="125.8076">Injects Service</text><polygon fill="#181818" points="658.5,140.6641,648.5,144.6641,658.5,148.6641,654.5,144.6641" style="stroke:#181818;stroke-width:1.0;"/><line style="stroke:#181818;stroke-width:1.0;" x1="652.5" x2="2603.5" y1="144.6641" y2="144.6641"/><polygon fill="#181818" points="861.5,171.0156,871.5,175.0156,861.5,179.0156,865.5,175.0156" style="stroke:#181818;stroke-width:1.0;"/><line style="stroke:#181818;stroke-width:1.0;" x1="647.5" x2="867.5" y1="175.0156" y2="175.0156"/><text fill="#000000" font-family="sans-serif" font-size="13" lengthAdjust="spacing" textLength="138" x="654.5" y="170.1592">createLift(req, res, next)</text><polygon fill="#181818" points="1069.5,201.3672,1079.5,205.3672,1069.5,209.3672,1073.5,205.3672" style="stroke:#181818;stroke-width:1.0;"/><line style="stroke:#181818;stroke-width:1.0;" x1="883.5" x2="1075.5" y1="205.3672" y2="205.3672"/><text fill="#000000" font-family="sans-serif" font-size="13" lengthAdjust="spacing" textLength="179" x="890.5" y="200.5107">createLift(req.body as ILiftDTO)</text><polygon fill="#181818" points="1304.5,231.7188,1314.5,235.7188,1304.5,239.7188,1308.5,235.7188" style="stroke:#181818;stroke-width:1.0;"/><line style="stroke:#181818;stroke-width:1.0;" x1="1091.5" x2="1310.5" y1="235.7188" y2="235.7188"/><text fill="#000000" font-family="sans-serif" font-size="13" lengthAdjust="spacing" textLength="206" x="1098.5" y="230.8623">findByDomainId(req.body.buildingId)</text><polygon fill="#181818" points="1539.5,262.0703,1549.5,266.0703,1539.5,270.0703,1543.5,266.0703" style="stroke:#181818;stroke-width:1.0;"/><line style="stroke:#181818;stroke-width:1.0;" x1="1326.5" x2="1545.5" y1="266.0703" y2="266.0703"/><text fill="#000000" font-family="sans-serif" font-size="13" lengthAdjust="spacing" textLength="206" x="1333.5" y="261.2139">findByDomainId(req.body.buildingId)</text><polygon fill="#181818" points="1774.5,292.4219,1784.5,296.4219,1774.5,300.4219,1778.5,296.4219" style="stroke:#181818;stroke-width:1.0;"/><line style="stroke:#181818;stroke-width:1.0;" x1="1561.5" x2="1780.5" y1="296.4219" y2="296.4219"/><text fill="#000000" font-family="sans-serif" font-size="13" lengthAdjust="spacing" textLength="206" x="1568.5" y="291.5654">findByDomainId(req.body.buildingId)</text><polygon fill="#181818" points="1965.5,322.7734,1975.5,326.7734,1965.5,330.7734,1969.5,326.7734" style="stroke:#181818;stroke-width:1.0;"/><line style="stroke:#181818;stroke-width:1.0;" x1="1796.5" x2="1971.5" y1="326.7734" y2="326.7734"/><text fill="#000000" font-family="sans-serif" font-size="13" lengthAdjust="spacing" textLength="162" x="1803.5" y="321.917">findById(req.body.buildingId)</text><polygon fill="#181818" points="1807.5,353.125,1797.5,357.125,1807.5,361.125,1803.5,357.125" style="stroke:#181818;stroke-width:1.0;"/><line style="stroke:#181818;stroke-width:1.0;stroke-dasharray:2.0,2.0;" x1="1801.5" x2="1981.5" y1="357.125" y2="357.125"/><text fill="#000000" font-family="sans-serif" font-size="13" lengthAdjust="spacing" textLength="150" x="1813.5" y="352.2686">buildingDocument (or null)</text><polygon fill="#181818" points="1572.5,383.4766,1562.5,387.4766,1572.5,391.4766,1568.5,387.4766" style="stroke:#181818;stroke-width:1.0;"/><line style="stroke:#181818;stroke-width:1.0;stroke-dasharray:2.0,2.0;" x1="1566.5" x2="1790.5" y1="387.4766" y2="387.4766"/><text fill="#000000" font-family="sans-serif" font-size="13" lengthAdjust="spacing" textLength="150" x="1578.5" y="382.6201">buildingDocument (or null)</text><polygon fill="#181818" points="1337.5,413.8281,1327.5,417.8281,1337.5,421.8281,1333.5,417.8281" style="stroke:#181818;stroke-width:1.0;"/><line style="stroke:#181818;stroke-width:1.0;stroke-dasharray:2.0,2.0;" x1="1331.5" x2="1555.5" y1="417.8281" y2="417.8281"/><text fill="#000000" font-family="sans-serif" font-size="13" lengthAdjust="spacing" textLength="150" x="1343.5" y="412.9717">buildingDocument (or null)</text><polygon fill="#181818" points="1102.5,444.1797,1092.5,448.1797,1102.5,452.1797,1098.5,448.1797" style="stroke:#181818;stroke-width:1.0;"/><line style="stroke:#181818;stroke-width:1.0;stroke-dasharray:2.0,2.0;" x1="1096.5" x2="1320.5" y1="448.1797" y2="448.1797"/><text fill="#000000" font-family="sans-serif" font-size="13" lengthAdjust="spacing" textLength="150" x="1108.5" y="443.3232">buildingDocument (or null)</text><path d="M575,463.1797 L636,463.1797 L636,471.5313 L626,481.5313 L575,481.5313 L575,463.1797 " fill="#EEEEEE" style="stroke:#000000;stroke-width:1.5;"/><rect fill="none" height="659.0547" style="stroke:#000000;stroke-width:1.5;" width="2419.5" x="575" y="463.1797"/><text fill="#000000" font-family="sans-serif" font-size="13" font-weight="bold" lengthAdjust="spacing" textLength="16" x="590" y="477.6748">alt</text><text fill="#000000" font-family="sans-serif" font-size="11" font-weight="bold" lengthAdjust="spacing" textLength="87" x="651" y="476.5986">[Building found]</text><polygon fill="#181818" points="2379.5,499.8828,2389.5,503.8828,2379.5,507.8828,2383.5,503.8828" style="stroke:#181818;stroke-width:1.0;"/><line style="stroke:#181818;stroke-width:1.0;" x1="1091.5" x2="2385.5" y1="503.8828" y2="503.8828"/><text fill="#000000" font-family="sans-serif" font-size="13" lengthAdjust="spacing" textLength="184" x="1098.5" y="499.0264">ToDomain(req.body as ILiftDTO)</text><polygon fill="#181818" points="2502.5,530.2344,2512.5,534.2344,2502.5,538.2344,2506.5,534.2344" style="stroke:#181818;stroke-width:1.0;"/><line style="stroke:#181818;stroke-width:1.0;" x1="2401.5" x2="2508.5" y1="534.2344" y2="534.2344"/><text fill="#000000" font-family="sans-serif" font-size="13" lengthAdjust="spacing" textLength="94" x="2408.5" y="529.3779">.create(ILiftDTO)</text><polygon fill="#181818" points="1102.5,560.5859,1092.5,564.5859,1102.5,568.5859,1098.5,564.5859" style="stroke:#181818;stroke-width:1.0;"/><line style="stroke:#181818;stroke-width:1.0;stroke-dasharray:2.0,2.0;" x1="1096.5" x2="2518.5" y1="564.5859" y2="564.5859"/><text fill="#000000" font-family="sans-serif" font-size="13" lengthAdjust="spacing" textLength="60" x="1108.5" y="559.7295">createdLift</text><path d="M585,579.5859 L646,579.5859 L646,587.9375 L636,597.9375 L585,597.9375 L585,579.5859 " fill="#EEEEEE" style="stroke:#000000;stroke-width:1.5;"/><rect fill="none" height="459.1094" style="stroke:#000000;stroke-width:1.5;" width="2399.5" x="585" y="579.5859"/><text fill="#000000" font-family="sans-serif" font-size="13" font-weight="bold" lengthAdjust="spacing" textLength="16" x="600" y="594.0811">alt</text><text fill="#000000" font-family="sans-serif" font-size="11" font-weight="bold" lengthAdjust="spacing" textLength="117" x="661" y="593.0049">[creation successful]</text><polygon fill="#181818" points="2059.5,616.2891,2069.5,620.2891,2059.5,624.2891,2063.5,620.2891" style="stroke:#181818;stroke-width:1.0;"/><line style="stroke:#181818;stroke-width:1.0;" x1="1091.5" x2="2065.5" y1="620.2891" y2="620.2891"/><text fill="#000000" font-family="sans-serif" font-size="13" lengthAdjust="spacing" textLength="94" x="1098.5" y="615.4326">save(createdLift)</text><polygon fill="#181818" points="2202.5,646.6406,2212.5,650.6406,2202.5,654.6406,2206.5,650.6406" style="stroke:#181818;stroke-width:1.0;"/><line style="stroke:#181818;stroke-width:1.0;" x1="2081.5" x2="2208.5" y1="650.6406" y2="650.6406"/><text fill="#000000" font-family="sans-serif" font-size="13" lengthAdjust="spacing" textLength="94" x="2088.5" y="645.7842">save(createdLift)</text><polygon fill="#181818" points="2379.5,676.9922,2389.5,680.9922,2379.5,684.9922,2383.5,680.9922" style="stroke:#181818;stroke-width:1.0;"/><line style="stroke:#181818;stroke-width:1.0;" x1="2224.5" x2="2385.5" y1="680.9922" y2="680.9922"/><text fill="#000000" font-family="sans-serif" font-size="13" lengthAdjust="spacing" textLength="148" x="2231.5" y="676.1357">toPersistence(createdLift)</text><polygon fill="#181818" points="2235.5,707.3438,2225.5,711.3438,2235.5,715.3438,2231.5,711.3438" style="stroke:#181818;stroke-width:1.0;"/><line style="stroke:#181818;stroke-width:1.0;stroke-dasharray:2.0,2.0;" x1="2229.5" x2="2395.5" y1="711.3438" y2="711.3438"/><text fill="#000000" font-family="sans-serif" font-size="13" lengthAdjust="spacing" textLength="74" x="2241.5" y="706.4873">return rawLift</text><polygon fill="#181818" points="2915.5,737.6953,2925.5,741.6953,2915.5,745.6953,2919.5,741.6953" style="stroke:#181818;stroke-width:1.0;"/><line style="stroke:#181818;stroke-width:1.0;stroke-dasharray:2.0,2.0;" x1="2224.5" x2="2921.5" y1="741.6953" y2="741.6953"/><text fill="#000000" font-family="sans-serif" font-size="13" lengthAdjust="spacing" textLength="81" x="2231.5" y="736.8389">create(rawLift)</text><polygon fill="#181818" points="2235.5,768.0469,2225.5,772.0469,2235.5,776.0469,2231.5,772.0469" style="stroke:#181818;stroke-width:1.0;"/><line style="stroke:#181818;stroke-width:1.0;stroke-dasharray:2.0,2.0;" x1="2229.5" x2="2931.5" y1="772.0469" y2="772.0469"/><text fill="#000000" font-family="sans-serif" font-size="13" lengthAdjust="spacing" textLength="109" x="2241.5" y="767.1904">return liftDocument</text><polygon fill="#181818" points="2092.5,798.3984,2082.5,802.3984,2092.5,806.3984,2088.5,802.3984" style="stroke:#181818;stroke-width:1.0;"/><line style="stroke:#181818;stroke-width:1.0;stroke-dasharray:2.0,2.0;" x1="2086.5" x2="2218.5" y1="802.3984" y2="802.3984"/><text fill="#000000" font-family="sans-serif" font-size="13" lengthAdjust="spacing" textLength="109" x="2098.5" y="797.542">saved liftDocument</text><polygon fill="#181818" points="1102.5,828.75,1092.5,832.75,1102.5,836.75,1098.5,832.75" style="stroke:#181818;stroke-width:1.0;"/><line style="stroke:#181818;stroke-width:1.0;stroke-dasharray:2.0,2.0;" x1="1096.5" x2="2075.5" y1="832.75" y2="832.75"/><text fill="#000000" font-family="sans-serif" font-size="13" lengthAdjust="spacing" textLength="109" x="1108.5" y="827.8936">saved liftDocument</text><polygon fill="#181818" points="2379.5,859.1016,2389.5,863.1016,2379.5,867.1016,2383.5,863.1016" style="stroke:#181818;stroke-width:1.0;"/><line style="stroke:#181818;stroke-width:1.0;" x1="1091.5" x2="2385.5" y1="863.1016" y2="863.1016"/><text fill="#000000" font-family="sans-serif" font-size="13" lengthAdjust="spacing" textLength="105" x="1098.5" y="858.2451">toDTO(createdLift)</text><polygon fill="#181818" points="1102.5,889.4531,1092.5,893.4531,1102.5,897.4531,1098.5,893.4531" style="stroke:#181818;stroke-width:1.0;"/><line style="stroke:#181818;stroke-width:1.0;stroke-dasharray:2.0,2.0;" x1="1096.5" x2="2395.5" y1="893.4531" y2="893.4531"/><text fill="#000000" font-family="sans-serif" font-size="13" lengthAdjust="spacing" textLength="76" x="1108.5" y="888.5967">liftDTOResult</text><polygon fill="#181818" points="894.5,919.8047,884.5,923.8047,894.5,927.8047,890.5,923.8047" style="stroke:#181818;stroke-width:1.0;"/><line style="stroke:#181818;stroke-width:1.0;stroke-dasharray:2.0,2.0;" x1="888.5" x2="1080.5" y1="923.8047" y2="923.8047"/><text fill="#000000" font-family="sans-serif" font-size="13" lengthAdjust="spacing" textLength="76" x="900.5" y="918.9482">liftDTOResult</text><polygon fill="#181818" points="658.5,950.1563,648.5,954.1563,658.5,958.1563,654.5,954.1563" style="stroke:#181818;stroke-width:1.0;"/><line style="stroke:#181818;stroke-width:1.0;stroke-dasharray:2.0,2.0;" x1="652.5" x2="872.5" y1="954.1563" y2="954.1563"/><text fill="#000000" font-family="sans-serif" font-size="13" lengthAdjust="spacing" textLength="202" x="664.5" y="949.2998">Return successful Result with DTO</text><line style="stroke:#000000;stroke-width:1.0;stroke-dasharray:2.0,2.0;" x1="585" x2="2984.5" y1="963.1563" y2="963.1563"/><text fill="#000000" font-family="sans-serif" font-size="11" font-weight="bold" lengthAdjust="spacing" textLength="86" x="590" y="974.5752">[creation failed]</text><polygon fill="#181818" points="894.5,996.3438,884.5,1000.3438,894.5,1004.3438,890.5,1000.3438" style="stroke:#181818;stroke-width:1.0;"/><line style="stroke:#181818;stroke-width:1.0;stroke-dasharray:2.0,2.0;" x1="888.5" x2="1080.5" y1="1000.3438" y2="1000.3438"/><text fill="#000000" font-family="sans-serif" font-size="13" lengthAdjust="spacing" textLength="69" x="900.5" y="995.4873">Error Result</text><polygon fill="#181818" points="658.5,1026.6953,648.5,1030.6953,658.5,1034.6953,654.5,1030.6953" style="stroke:#181818;stroke-width:1.0;"/><line style="stroke:#181818;stroke-width:1.0;stroke-dasharray:2.0,2.0;" x1="652.5" x2="872.5" y1="1030.6953" y2="1030.6953"/><text fill="#000000" font-family="sans-serif" font-size="13" lengthAdjust="spacing" textLength="69" x="664.5" y="1025.8389">Error Result</text><line style="stroke:#000000;stroke-width:1.0;stroke-dasharray:2.0,2.0;" x1="575" x2="2994.5" y1="1046.6953" y2="1046.6953"/><text fill="#000000" font-family="sans-serif" font-size="11" font-weight="bold" lengthAdjust="spacing" textLength="108" x="580" y="1058.1143">[Building not found]</text><polygon fill="#181818" points="894.5,1079.8828,884.5,1083.8828,894.5,1087.8828,890.5,1083.8828" style="stroke:#181818;stroke-width:1.0;"/><line style="stroke:#181818;stroke-width:1.0;stroke-dasharray:2.0,2.0;" x1="888.5" x2="1080.5" y1="1083.8828" y2="1083.8828"/><text fill="#000000" font-family="sans-serif" font-size="13" lengthAdjust="spacing" textLength="135" x="900.5" y="1079.0264">Building not found Error</text><polygon fill="#181818" points="658.5,1110.2344,648.5,1114.2344,658.5,1118.2344,654.5,1114.2344" style="stroke:#181818;stroke-width:1.0;"/><line style="stroke:#181818;stroke-width:1.0;stroke-dasharray:2.0,2.0;" x1="652.5" x2="872.5" y1="1114.2344" y2="1114.2344"/><text fill="#000000" font-family="sans-serif" font-size="13" lengthAdjust="spacing" textLength="135" x="664.5" y="1109.3779">Building not found Error</text><path d="M10,1136.2344 L71,1136.2344 L71,1144.5859 L61,1154.5859 L10,1154.5859 L10,1136.2344 " fill="#EEEEEE" style="stroke:#000000;stroke-width:1.5;"/><rect fill="none" height="155.5938" style="stroke:#000000;stroke-width:1.5;" width="690" x="10" y="1136.2344"/><text fill="#000000" font-family="sans-serif" font-size="13" font-weight="bold" lengthAdjust="spacing" textLength="16" x="25" y="1150.7295">alt</text><text fill="#000000" font-family="sans-serif" font-size="11" font-weight="bold" lengthAdjust="spacing" textLength="197" x="86" y="1149.6533">[LiftService returns a failure Result]</text><polygon fill="#181818" points="355.5,1172.9375,345.5,1176.9375,355.5,1180.9375,351.5,1176.9375" style="stroke:#181818;stroke-width:1.0;"/><line style="stroke:#181818;stroke-width:1.0;" x1="349.5" x2="636.5" y1="1176.9375" y2="1176.9375"/><text fill="#000000" font-family="sans-serif" font-size="13" lengthAdjust="spacing" textLength="179" x="361.5" y="1172.0811">Send response with status 402</text><polygon fill="#181818" points="52.5,1203.2891,42.5,1207.2891,52.5,1211.2891,48.5,1207.2891" style="stroke:#181818;stroke-width:1.0;"/><line style="stroke:#181818;stroke-width:1.0;" x1="46.5" x2="333.5" y1="1207.2891" y2="1207.2891"/><text fill="#000000" font-family="sans-serif" font-size="13" lengthAdjust="spacing" textLength="179" x="58.5" y="1202.4326">Send response with status 402</text><line style="stroke:#000000;stroke-width:1.0;stroke-dasharray:2.0,2.0;" x1="10" x2="700" y1="1216.2891" y2="1216.2891"/><text fill="#000000" font-family="sans-serif" font-size="11" font-weight="bold" lengthAdjust="spacing" textLength="223" x="15" y="1227.708">[LiftService returns a successful Result]</text><polygon fill="#181818" points="355.5,1249.4766,345.5,1253.4766,355.5,1257.4766,351.5,1253.4766" style="stroke:#181818;stroke-width:1.0;"/><line style="stroke:#181818;stroke-width:1.0;" x1="349.5" x2="636.5" y1="1253.4766" y2="1253.4766"/><text fill="#000000" font-family="sans-serif" font-size="13" lengthAdjust="spacing" textLength="269" x="361.5" y="1248.6201">Send response with status 201 and the liftDTO</text><polygon fill="#181818" points="52.5,1279.8281,42.5,1283.8281,52.5,1287.8281,48.5,1283.8281" style="stroke:#181818;stroke-width:1.0;"/><line style="stroke:#181818;stroke-width:1.0;" x1="46.5" x2="333.5" y1="1283.8281" y2="1283.8281"/><text fill="#000000" font-family="sans-serif" font-size="13" lengthAdjust="spacing" textLength="269" x="58.5" y="1278.9717">Send response with status 201 and the liftDTO</text><!--MD5=[d403cb9e9b7e17ca51ab81e8375c51ac]
@startuml US270_LEVEL3
participant "User" as A
participant "ILiftController" as IL
participant "LiftController" as L
participant "ILiftService" as IS
participant "LiftService" as S
participant "IBuildingService" as IBS  
participant "BuildingService" as BS    
participant "IBuildingRepo" as IBR
participant "BuildingRepo" as BR
participant "ILiftRepo" as IR
participant "LiftRepo" as R
participant "LiftMap" as M
participant "Lift Entity" as E
participant "ConfigFile" as CONF
participant "ILiftPersistence" as IH
participant "LiftPersistence" as H
participant "LiftSchema" as I

A -> IL: send request to createLift(req, res, next)
activate IL

IL -> L: createLift(req, res, next)
activate L

L -> CONF: Injects Service
activate CONF

CONF -> L
deactivate CONF

L -> IS: createLift(req, res, next)
activate IS

IS -> S: createLift(req.body as ILiftDTO)
activate S

S -> IBS: findByDomainId(req.body.buildingId)
activate IBS
IBS -> BS: findByDomainId(req.body.buildingId)
activate BS
BS -> IBR: findByDomainId(req.body.buildingId)
activate IBR
IBR -> BR: findById(req.body.buildingId)
activate BR
BR - -> IBR: buildingDocument (or null)
deactivate BR
IBR - -> BS: buildingDocument (or null)
deactivate IBR
BS - -> IBS: buildingDocument (or null)
deactivate BS
IBS - -> S: buildingDocument (or null)
deactivate IBS

alt Building found
    S -> M: ToDomain(req.body as ILiftDTO)
    activate M
    M -> E: .create(ILiftDTO)
    activate E
    E - -> S: createdLift
    deactivate E
    deactivate M

    alt creation successful
        S -> IR: save(createdLift)
        activate IR
        IR -> R: save(createdLift)
        activate R
        R -> M: toPersistence(createdLift)
        activate M
        M - -> R : return rawLift
        deactivate M
        R - -> I: create(rawLift)
        activate I
        I - -> R : return liftDocument
        deactivate I
        R - -> IR: saved liftDocument
        deactivate R
        IR - -> S: saved liftDocument
        deactivate IR
        
        S -> M: toDTO(createdLift)
        activate M
        M - -> S: liftDTOResult
        deactivate M
        S - -> IS : liftDTOResult
        IS - -> L: Return successful Result with DTO
    else creation failed
        S - -> IS: Error Result
        IS - -> L: Error Result
    end
else Building not found
    S - -> IS: Building not found Error
    IS - -> L: Building not found Error
end

alt LiftService returns a failure Result
    L -> IL: Send response with status 402
    IL -> A: Send response with status 402
else LiftService returns a successful Result
    L -> IL: Send response with status 201 and the liftDTO
    IL -> A: Send response with status 201 and the liftDTO
end

deactivate S
deactivate L
@enduml

PlantUML version 1.2022.7(Mon Aug 22 18:01:30 WEST 2022)
(GPL source distribution)
Java Runtime: Java(TM) SE Runtime Environment
JVM: Java HotSpot(TM) 64-Bit Server VM
Default Encoding: Cp1252
Language: pt
Country: PT
--></g></svg>