<?xml version="1.0" encoding="UTF-8" standalone="no"?><svg xmlns="http://www.w3.org/2000/svg" xmlns:xlink="http://www.w3.org/1999/xlink" contentStyleType="text/css" height="416px" preserveAspectRatio="none" style="width:910px;height:416px;background:#FFFFFF;" version="1.1" viewBox="0 0 910 416" width="910px" zoomAndPan="magnify"><defs/><g><rect fill="#FFFFFF" height="146.5527" style="stroke:#181818;stroke-width:1.0;" width="10" x="473.5" y="142.1094"/><rect fill="#FFFFFF" height="87.9316" style="stroke:#181818;stroke-width:1.0;" width="10" x="649.5" y="171.4199"/><line style="stroke:#181818;stroke-width:0.5;stroke-dasharray:5.0,5.0;" x1="23" x2="23" y1="81.4883" y2="335.9727"/><line style="stroke:#181818;stroke-width:0.5;stroke-dasharray:5.0,5.0;" x1="189" x2="189" y1="81.4883" y2="335.9727"/><line style="stroke:#181818;stroke-width:0.5;stroke-dasharray:5.0,5.0;" x1="478" x2="478" y1="81.4883" y2="335.9727"/><line style="stroke:#181818;stroke-width:0.5;stroke-dasharray:5.0,5.0;" x1="654.5" x2="654.5" y1="81.4883" y2="335.9727"/><line style="stroke:#181818;stroke-width:0.5;stroke-dasharray:5.0,5.0;" x1="874" x2="874" y1="81.4883" y2="335.9727"/><text fill="#000000" font-family="sans-serif" font-size="14" lengthAdjust="spacing" textLength="31" x="5" y="78.5352">User</text><ellipse cx="23.5" cy="13.5" fill="#E2E2F0" rx="8" ry="8" style="stroke:#181818;stroke-width:0.5;"/><path d="M23.5,21.5 L23.5,48.5 M10.5,29.5 L36.5,29.5 M23.5,48.5 L10.5,63.5 M23.5,48.5 L36.5,63.5 " fill="none" style="stroke:#181818;stroke-width:0.5;"/><text fill="#000000" font-family="sans-serif" font-size="14" lengthAdjust="spacing" textLength="31" x="5" y="348.5078">User</text><ellipse cx="23.5" cy="359.9609" fill="#E2E2F0" rx="8" ry="8" style="stroke:#181818;stroke-width:0.5;"/><path d="M23.5,367.9609 L23.5,394.9609 M10.5,375.9609 L36.5,375.9609 M23.5,394.9609 L10.5,409.9609 M23.5,394.9609 L36.5,409.9609 " fill="none" style="stroke:#181818;stroke-width:0.5;"/><rect fill="#E2E2F0" height="30.4883" rx="2.5" ry="2.5" style="stroke:#181818;stroke-width:0.5;" width="81" x="149" y="50"/><text fill="#000000" font-family="sans-serif" font-size="14" lengthAdjust="spacing" textLength="67" x="156" y="70.5352">:FrontEnd</text><rect fill="#E2E2F0" height="30.4883" rx="2.5" ry="2.5" style="stroke:#181818;stroke-width:0.5;" width="81" x="149" y="334.9727"/><text fill="#000000" font-family="sans-serif" font-size="14" lengthAdjust="spacing" textLength="67" x="156" y="355.5078">:FrontEnd</text><rect fill="#E2E2F0" height="30.4883" rx="2.5" ry="2.5" style="stroke:#181818;stroke-width:0.5;" width="151" x="403" y="50"/><text fill="#000000" font-family="sans-serif" font-size="14" lengthAdjust="spacing" textLength="137" x="410" y="70.5352">:BuildingsController</text><rect fill="#E2E2F0" height="30.4883" rx="2.5" ry="2.5" style="stroke:#181818;stroke-width:0.5;" width="151" x="403" y="334.9727"/><text fill="#000000" font-family="sans-serif" font-size="14" lengthAdjust="spacing" textLength="137" x="410" y="355.5078">:BuildingsController</text><rect fill="#E2E2F0" height="30.4883" rx="2.5" ry="2.5" style="stroke:#181818;stroke-width:0.5;" width="122" x="593.5" y="50"/><text fill="#000000" font-family="sans-serif" font-size="14" lengthAdjust="spacing" textLength="108" x="600.5" y="70.5352">:BuildingService</text><rect fill="#E2E2F0" height="30.4883" rx="2.5" ry="2.5" style="stroke:#181818;stroke-width:0.5;" width="122" x="593.5" y="334.9727"/><text fill="#000000" font-family="sans-serif" font-size="14" lengthAdjust="spacing" textLength="108" x="600.5" y="355.5078">:BuildingService</text><text fill="#000000" font-family="sans-serif" font-size="14" lengthAdjust="spacing" textLength="63" x="840" y="78.5352">Database</text><path d="M856.5,29 C856.5,19 874.5,19 874.5,19 C874.5,19 892.5,19 892.5,29 L892.5,55 C892.5,65 874.5,65 874.5,65 C874.5,65 856.5,65 856.5,55 L856.5,29 " fill="#E2E2F0" style="stroke:#181818;stroke-width:1.5;"/><path d="M856.5,29 C856.5,39 874.5,39 874.5,39 C874.5,39 892.5,39 892.5,29 " fill="none" style="stroke:#181818;stroke-width:1.5;"/><text fill="#000000" font-family="sans-serif" font-size="14" lengthAdjust="spacing" textLength="63" x="840" y="348.5078">Database</text><path d="M856.5,361.4609 C856.5,351.4609 874.5,351.4609 874.5,351.4609 C874.5,351.4609 892.5,351.4609 892.5,361.4609 L892.5,387.4609 C892.5,397.4609 874.5,397.4609 874.5,397.4609 C874.5,397.4609 856.5,397.4609 856.5,387.4609 L856.5,361.4609 " fill="#E2E2F0" style="stroke:#181818;stroke-width:1.5;"/><path d="M856.5,361.4609 C856.5,371.4609 874.5,371.4609 874.5,371.4609 C874.5,371.4609 892.5,371.4609 892.5,361.4609 " fill="none" style="stroke:#181818;stroke-width:1.5;"/><rect fill="#FFFFFF" height="146.5527" style="stroke:#181818;stroke-width:1.0;" width="10" x="473.5" y="142.1094"/><rect fill="#FFFFFF" height="87.9316" style="stroke:#181818;stroke-width:1.0;" width="10" x="649.5" y="171.4199"/><polygon fill="#181818" points="177.5,108.7988,187.5,112.7988,177.5,116.7988,181.5,112.7988" style="stroke:#181818;stroke-width:1.0;"/><line style="stroke:#181818;stroke-width:1.0;" x1="23.5" x2="183.5" y1="112.7988" y2="112.7988"/><text fill="#000000" font-family="sans-serif" font-size="13" lengthAdjust="spacing" textLength="121" x="30.5" y="108.0566">Request to findAll()</text><polygon fill="#181818" points="461.5,138.1094,471.5,142.1094,461.5,146.1094,465.5,142.1094" style="stroke:#181818;stroke-width:1.0;"/><line style="stroke:#181818;stroke-width:1.0;" x1="189.5" x2="467.5" y1="142.1094" y2="142.1094"/><text fill="#000000" font-family="sans-serif" font-size="13" lengthAdjust="spacing" textLength="131" x="196.5" y="137.3672">HTTP GET /buildings</text><polygon fill="#181818" points="637.5,167.4199,647.5,171.4199,637.5,175.4199,641.5,171.4199" style="stroke:#181818;stroke-width:1.0;"/><line style="stroke:#181818;stroke-width:1.0;" x1="483.5" x2="643.5" y1="171.4199" y2="171.4199"/><text fill="#000000" font-family="sans-serif" font-size="13" lengthAdjust="spacing" textLength="50" x="490.5" y="166.6777">findAll()</text><polygon fill="#181818" points="862.5,196.7305,872.5,200.7305,862.5,204.7305,866.5,200.7305" style="stroke:#181818;stroke-width:1.0;"/><line style="stroke:#181818;stroke-width:1.0;" x1="659.5" x2="868.5" y1="200.7305" y2="200.7305"/><text fill="#000000" font-family="sans-serif" font-size="13" lengthAdjust="spacing" textLength="191" x="666.5" y="195.9883">Query to fetch building names</text><polygon fill="#181818" points="670.5,226.041,660.5,230.041,670.5,234.041,666.5,230.041" style="stroke:#181818;stroke-width:1.0;"/><line style="stroke:#181818;stroke-width:1.0;stroke-dasharray:2.0,2.0;" x1="664.5" x2="873.5" y1="230.041" y2="230.041"/><text fill="#000000" font-family="sans-serif" font-size="13" lengthAdjust="spacing" textLength="142" x="676.5" y="225.2988">List of Building Names</text><polygon fill="#181818" points="494.5,255.3516,484.5,259.3516,494.5,263.3516,490.5,259.3516" style="stroke:#181818;stroke-width:1.0;"/><line style="stroke:#181818;stroke-width:1.0;stroke-dasharray:2.0,2.0;" x1="488.5" x2="653.5" y1="259.3516" y2="259.3516"/><text fill="#000000" font-family="sans-serif" font-size="13" lengthAdjust="spacing" textLength="142" x="500.5" y="254.6094">List of Building Names</text><polygon fill="#181818" points="200.5,284.6621,190.5,288.6621,200.5,292.6621,196.5,288.6621" style="stroke:#181818;stroke-width:1.0;"/><line style="stroke:#181818;stroke-width:1.0;stroke-dasharray:2.0,2.0;" x1="194.5" x2="477.5" y1="288.6621" y2="288.6621"/><text fill="#000000" font-family="sans-serif" font-size="13" lengthAdjust="spacing" textLength="260" x="206.5" y="283.9199">HTTP 200 OK with List of Building Names</text><polygon fill="#181818" points="34.5,313.9727,24.5,317.9727,34.5,321.9727,30.5,317.9727" style="stroke:#181818;stroke-width:1.0;"/><line style="stroke:#181818;stroke-width:1.0;stroke-dasharray:2.0,2.0;" x1="28.5" x2="188.5" y1="317.9727" y2="317.9727"/><text fill="#000000" font-family="sans-serif" font-size="13" lengthAdjust="spacing" textLength="142" x="40.5" y="313.2305">List of Building Names</text><!--MD5=[4a1a7a2079bfca6f36b23f170bc30fbf]
@startuml
actor "User" as user
participant ":FrontEnd" as frontend
participant ":BuildingsController" as controller
participant ":BuildingService" as service
database "Database" as db

user -> frontend: Request to findAll()
frontend -> controller: HTTP GET /buildings
activate controller
controller -> service: findAll()
activate service
service -> db: Query to fetch building names
db - -> service: List of Building Names
service - -> controller: List of Building Names
deactivate service
controller - -> frontend: HTTP 200 OK with List of Building Names
deactivate controller
frontend - -> user: List of Building Names
@enduml

PlantUML version 1.2022.7(Mon Aug 22 18:01:30 WEST 2022)
(GPL source distribution)
Java Runtime: OpenJDK Runtime Environment
JVM: OpenJDK 64-Bit Server VM
Default Encoding: UTF-8
Language: pt
Country: PT
--></g></svg>