<?xml version="1.0" encoding="UTF-8" standalone="no"?><svg xmlns="http://www.w3.org/2000/svg" xmlns:xlink="http://www.w3.org/1999/xlink" contentScriptType="application/ecmascript" contentStyleType="text/css" height="368px" preserveAspectRatio="none" style="width:589px;height:368px;" version="1.1" viewBox="0 0 589 368" width="589px" zoomAndPan="magnify"><defs><filter height="300%" id="f15o0f80i5tjlf" width="300%" x="-1" y="-1"><feGaussianBlur result="blurOut" stdDeviation="2.0"/><feColorMatrix in="blurOut" result="blurOut2" type="matrix" values="0 0 0 0 0 0 0 0 0 0 0 0 0 0 0 0 0 0 .4 0"/><feOffset dx="4.0" dy="4.0" in="blurOut2" result="blurOut3"/><feBlend in="SourceGraphic" in2="blurOut3" mode="normal"/></filter></defs><g><line style="stroke: #A80036; stroke-width: 1.0; stroke-dasharray: 5.0,5.0;" x1="27" x2="27" y1="86.2969" y2="281.0938"/><line style="stroke: #A80036; stroke-width: 1.0; stroke-dasharray: 5.0,5.0;" x1="193" x2="193" y1="86.2969" y2="281.0938"/><line style="stroke: #A80036; stroke-width: 1.0; stroke-dasharray: 5.0,5.0;" x1="358.5" x2="358.5" y1="86.2969" y2="281.0938"/><line style="stroke: #A80036; stroke-width: 1.0; stroke-dasharray: 5.0,5.0;" x1="525" x2="525" y1="86.2969" y2="281.0938"/><text fill="#000000" font-family="sans-serif" font-size="14" lengthAdjust="spacingAndGlyphs" textLength="32" x="8" y="82.9951">User</text><ellipse cx="27" cy="13" fill="#FEFECE" filter="url(#f15o0f80i5tjlf)" rx="8" ry="8" style="stroke: #A80036; stroke-width: 2.0;"/><path d="M27,21 L27,48 M14,29 L40,29 M27,48 L14,63 M27,48 L40,63 " fill="none" filter="url(#f15o0f80i5tjlf)" style="stroke: #A80036; stroke-width: 2.0;"/><text fill="#000000" font-family="sans-serif" font-size="14" lengthAdjust="spacingAndGlyphs" textLength="32" x="8" y="293.0889">User</text><ellipse cx="27" cy="306.3906" fill="#FEFECE" filter="url(#f15o0f80i5tjlf)" rx="8" ry="8" style="stroke: #A80036; stroke-width: 2.0;"/><path d="M27,314.3906 L27,341.3906 M14,322.3906 L40,322.3906 M27,341.3906 L14,356.3906 M27,341.3906 L40,356.3906 " fill="none" filter="url(#f15o0f80i5tjlf)" style="stroke: #A80036; stroke-width: 2.0;"/><rect fill="#FEFECE" filter="url(#f15o0f80i5tjlf)" height="30.2969" style="stroke: #A80036; stroke-width: 1.5;" width="82" x="150" y="51"/><text fill="#000000" font-family="sans-serif" font-size="14" lengthAdjust="spacingAndGlyphs" textLength="68" x="157" y="70.9951">:FrontEnd</text><rect fill="#FEFECE" filter="url(#f15o0f80i5tjlf)" height="30.2969" style="stroke: #A80036; stroke-width: 1.5;" width="82" x="150" y="280.0938"/><text fill="#000000" font-family="sans-serif" font-size="14" lengthAdjust="spacingAndGlyphs" textLength="68" x="157" y="300.0889">:FrontEnd</text><rect fill="#FEFECE" filter="url(#f15o0f80i5tjlf)" height="30.2969" style="stroke: #A80036; stroke-width: 1.5;" width="149" x="282.5" y="51"/><text fill="#000000" font-family="sans-serif" font-size="14" lengthAdjust="spacingAndGlyphs" textLength="135" x="289.5" y="70.9951">:BuildingsController</text><rect fill="#FEFECE" filter="url(#f15o0f80i5tjlf)" height="30.2969" style="stroke: #A80036; stroke-width: 1.5;" width="149" x="282.5" y="280.0938"/><text fill="#000000" font-family="sans-serif" font-size="14" lengthAdjust="spacingAndGlyphs" textLength="135" x="289.5" y="300.0889">:BuildingsController</text><text fill="#000000" font-family="sans-serif" font-size="14" lengthAdjust="spacingAndGlyphs" textLength="110" x="467" y="82.9951">:BuildingService</text><path d="M507,34 C507,24 525,24 525,24 C525,24 543,24 543,34 L543,60 C543,70 525,70 525,70 C525,70 507,70 507,60 L507,34 " fill="#FEFECE" filter="url(#f15o0f80i5tjlf)" style="stroke: #000000; stroke-width: 1.5;"/><path d="M507,34 C507,44 525,44 525,44 C525,44 543,44 543,34 " fill="none" style="stroke: #000000; stroke-width: 1.5;"/><text fill="#000000" font-family="sans-serif" font-size="14" lengthAdjust="spacingAndGlyphs" textLength="110" x="467" y="293.0889">:BuildingService</text><path d="M507,306.3906 C507,296.3906 525,296.3906 525,296.3906 C525,296.3906 543,296.3906 543,306.3906 L543,332.3906 C543,342.3906 525,342.3906 525,342.3906 C525,342.3906 507,342.3906 507,332.3906 L507,306.3906 " fill="#FEFECE" filter="url(#f15o0f80i5tjlf)" style="stroke: #000000; stroke-width: 1.5;"/><path d="M507,306.3906 C507,316.3906 525,316.3906 525,316.3906 C525,316.3906 543,316.3906 543,306.3906 " fill="none" style="stroke: #000000; stroke-width: 1.5;"/><polygon fill="#A80036" points="181,113.4297,191,117.4297,181,121.4297,185,117.4297" style="stroke: #A80036; stroke-width: 1.0;"/><line style="stroke: #A80036; stroke-width: 1.0;" x1="27" x2="187" y1="117.4297" y2="117.4297"/><text fill="#000000" font-family="sans-serif" font-size="13" lengthAdjust="spacingAndGlyphs" textLength="121" x="34" y="112.3638">Request to findAll()</text><polygon fill="#A80036" points="347,142.5625,357,146.5625,347,150.5625,351,146.5625" style="stroke: #A80036; stroke-width: 1.0;"/><line style="stroke: #A80036; stroke-width: 1.0;" x1="193" x2="353" y1="146.5625" y2="146.5625"/><text fill="#000000" font-family="sans-serif" font-size="13" lengthAdjust="spacingAndGlyphs" textLength="48" x="200" y="141.4966">findAll()</text><polygon fill="#A80036" points="513,171.6953,523,175.6953,513,179.6953,517,175.6953" style="stroke: #A80036; stroke-width: 1.0;"/><line style="stroke: #A80036; stroke-width: 1.0;" x1="359" x2="519" y1="175.6953" y2="175.6953"/><text fill="#000000" font-family="sans-serif" font-size="13" lengthAdjust="spacingAndGlyphs" textLength="48" x="366" y="170.6294">findAll()</text><polygon fill="#A80036" points="370,200.8281,360,204.8281,370,208.8281,366,204.8281" style="stroke: #A80036; stroke-width: 1.0;"/><line style="stroke: #A80036; stroke-width: 1.0; stroke-dasharray: 2.0,2.0;" x1="364" x2="524" y1="204.8281" y2="204.8281"/><text fill="#000000" font-family="sans-serif" font-size="13" lengthAdjust="spacingAndGlyphs" textLength="142" x="376" y="199.7622">List of Building Names</text><polygon fill="#A80036" points="204,229.9609,194,233.9609,204,237.9609,200,233.9609" style="stroke: #A80036; stroke-width: 1.0;"/><line style="stroke: #A80036; stroke-width: 1.0; stroke-dasharray: 2.0,2.0;" x1="198" x2="358" y1="233.9609" y2="233.9609"/><text fill="#000000" font-family="sans-serif" font-size="13" lengthAdjust="spacingAndGlyphs" textLength="142" x="210" y="228.895">List of Building Names</text><polygon fill="#A80036" points="38,259.0938,28,263.0938,38,267.0938,34,263.0938" style="stroke: #A80036; stroke-width: 1.0;"/><line style="stroke: #A80036; stroke-width: 1.0; stroke-dasharray: 2.0,2.0;" x1="32" x2="192" y1="263.0938" y2="263.0938"/><text fill="#000000" font-family="sans-serif" font-size="13" lengthAdjust="spacingAndGlyphs" textLength="142" x="44" y="258.0278">List of Building Names</text><!--MD5=[cba74966d6c77660286bbc77a646d84f]
@startuml
actor "User" as user
participant ":FrontEnd" as frontend
participant ":BuildingsController" as controller
database ":BuildingService" as service

user -> frontend: Request to findAll()
frontend -> controller: findAll()
controller -> service: findAll()
service - -> controller: List of Building Names
controller - -> frontend: List of Building Names
frontend - -> user: List of Building Names
@enduml

PlantUML version 1.2020.02(Sun Mar 01 10:22:07 UTC 2020)
(GPL source distribution)
Java Runtime: OpenJDK Runtime Environment
JVM: OpenJDK 64-Bit Server VM
Java Version: 11.0.21+9
Operating System: Linux
Default Encoding: UTF-8
Language: en
Country: null
--></g></svg>