<?xml version="1.0" encoding="UTF-8" standalone="no"?><svg xmlns="http://www.w3.org/2000/svg" xmlns:xlink="http://www.w3.org/1999/xlink" contentScriptType="application/ecmascript" contentStyleType="text/css" height="812px" preserveAspectRatio="none" style="width:1407px;height:812px;" version="1.1" viewBox="0 0 1407 812" width="1407px" zoomAndPan="magnify"><defs><filter height="300%" id="f1ubx51u1x1jih" width="300%" x="-1" y="-1"><feGaussianBlur result="blurOut" stdDeviation="2.0"/><feColorMatrix in="blurOut" result="blurOut2" type="matrix" values="0 0 0 0 0 0 0 0 0 0 0 0 0 0 0 0 0 0 .4 0"/><feOffset dx="4.0" dy="4.0" in="blurOut2" result="blurOut3"/><feBlend in="SourceGraphic" in2="blurOut3" mode="normal"/></filter></defs><g><!--MD5=[9ddaf8ee8bcae11a9a9232f969198262]
cluster Infrastructure--><polygon fill="#FFFFFF" filter="url(#f1ubx51u1x1jih)" points="560,32,676,32,683,54.2969,838,54.2969,838,135,560,135,560,32" style="stroke: #000000; stroke-width: 1.5;"/><line style="stroke: #000000; stroke-width: 1.5;" x1="560" x2="683" y1="54.2969" y2="54.2969"/><text fill="#000000" font-family="sans-serif" font-size="14" font-weight="bold" lengthAdjust="spacingAndGlyphs" textLength="110" x="564" y="46.9951">Infrastructure</text><!--MD5=[1a79add8e979d124e6f695a10b210dad]
cluster InterfaceAdapters--><polygon fill="#FFFFFF" filter="url(#f1ubx51u1x1jih)" points="560,175,709,175,716,197.2969,1385,197.2969,1385,348,560,348,560,175" style="stroke: #000000; stroke-width: 1.5;"/><line style="stroke: #000000; stroke-width: 1.5;" x1="560" x2="716" y1="197.2969" y2="197.2969"/><text fill="#000000" font-family="sans-serif" font-size="14" font-weight="bold" lengthAdjust="spacingAndGlyphs" textLength="143" x="564" y="189.9951">InterfaceAdapters</text><!--MD5=[ed1d20ea533a2a0e7df5ba3c35e56ced]
cluster Controllers--><polygon fill="#FFFFFF" filter="url(#f1ubx51u1x1jih)" points="999,226,1093,226,1100,248.2969,1353,248.2969,1353,316,999,316,999,226" style="stroke: #000000; stroke-width: 1.5;"/><line style="stroke: #000000; stroke-width: 1.5;" x1="999" x2="1100" y1="248.2969" y2="248.2969"/><text fill="#000000" font-family="sans-serif" font-size="14" font-weight="bold" lengthAdjust="spacingAndGlyphs" textLength="88" x="1003" y="240.9951">Controllers</text><!--MD5=[600c2d25b6889bd4e9f6b335204b22ae]
cluster Repositories--><polygon fill="#FFFFFF" filter="url(#f1ubx51u1x1jih)" points="600,226,705,226,712,248.2969,975,248.2969,975,316,600,316,600,226" style="stroke: #000000; stroke-width: 1.5;"/><line style="stroke: #000000; stroke-width: 1.5;" x1="600" x2="712" y1="248.2969" y2="248.2969"/><text fill="#000000" font-family="sans-serif" font-size="14" font-weight="bold" lengthAdjust="spacingAndGlyphs" textLength="99" x="604" y="240.9951">Repositories</text><!--MD5=[87a28688a54fdf50801fb3ebc4a46d57]
cluster ApplicationServices--><polygon fill="#FFFFFF" filter="url(#f1ubx51u1x1jih)" points="560,388,721,388,728,410.2969,1007,410.2969,1007,561,560,561,560,388" style="stroke: #000000; stroke-width: 1.5;"/><line style="stroke: #000000; stroke-width: 1.5;" x1="560" x2="728" y1="410.2969" y2="410.2969"/><text fill="#000000" font-family="sans-serif" font-size="14" font-weight="bold" lengthAdjust="spacingAndGlyphs" textLength="155" x="564" y="402.9951">ApplicationServices</text><!--MD5=[d162a5ae288990018fb35fb03309107f]
cluster AppServices--><polygon fill="#FFFFFF" filter="url(#f1ubx51u1x1jih)" points="600,439,705,439,712,461.2969,975,461.2969,975,529,600,529,600,439" style="stroke: #000000; stroke-width: 1.5;"/><line style="stroke: #000000; stroke-width: 1.5;" x1="600" x2="712" y1="461.2969" y2="461.2969"/><text fill="#000000" font-family="sans-serif" font-size="14" font-weight="bold" lengthAdjust="spacingAndGlyphs" textLength="99" x="604" y="453.9951">AppServices</text><!--MD5=[121a8bf1197281ab89ed693fab589f94]
cluster Domain--><polygon fill="#FFFFFF" filter="url(#f1ubx51u1x1jih)" points="560,601,624,601,631,623.2969,873,623.2969,873,800,560,800,560,601" style="stroke: #000000; stroke-width: 1.5;"/><line style="stroke: #000000; stroke-width: 1.5;" x1="560" x2="631" y1="623.2969" y2="623.2969"/><text fill="#000000" font-family="sans-serif" font-size="14" font-weight="bold" lengthAdjust="spacingAndGlyphs" textLength="58" x="564" y="615.9951">Domain</text><!--MD5=[7a980fe5388f2c0b48dbfb0a8ec1f254]
entity Routing--><rect fill="#FEFECE" filter="url(#f1ubx51u1x1jih)" height="36.2969" style="stroke: #A80036; stroke-width: 1.5;" width="74" x="740" y="75"/><rect fill="#FEFECE" height="5" style="stroke: #A80036; stroke-width: 1.5;" width="10" x="735" y="80"/><rect fill="#FEFECE" height="5" style="stroke: #A80036; stroke-width: 1.5;" width="10" x="735" y="101.2969"/><text fill="#000000" font-family="sans-serif" font-size="14" lengthAdjust="spacingAndGlyphs" textLength="54" x="750" y="97.9951">Routing</text><!--MD5=[6d90bd632e1dbd4e1012d34a6301881d]
entity Persistance--><rect fill="#FEFECE" filter="url(#f1ubx51u1x1jih)" height="36.2969" style="stroke: #A80036; stroke-width: 1.5;" width="101" x="603.5" y="75"/><rect fill="#FEFECE" height="5" style="stroke: #A80036; stroke-width: 1.5;" width="10" x="598.5" y="80"/><rect fill="#FEFECE" height="5" style="stroke: #A80036; stroke-width: 1.5;" width="10" x="598.5" y="101.2969"/><text fill="#000000" font-family="sans-serif" font-size="14" lengthAdjust="spacingAndGlyphs" textLength="81" x="613.5" y="97.9951">Persistance</text><!--MD5=[1eb76606e51726ca1b314e8ef269bea1]
entity I_Controllers--><polygon fill="#FEFECE" filter="url(#f1ubx51u1x1jih)" points="1207.5,261,1312.5,261,1319.5,283.2969,1336.5,283.2969,1336.5,300.2969,1207.5,300.2969,1207.5,261" style="stroke: #000000; stroke-width: 1.5;"/><line style="stroke: #000000; stroke-width: 1.5;" x1="1207.5" x2="1319.5" y1="283.2969" y2="283.2969"/><text fill="#000000" font-family="sans-serif" font-size="14" font-weight="bold" lengthAdjust="spacingAndGlyphs" textLength="99" x="1211.5" y="276.9951">I_Controllers</text><!--MD5=[5bcf9776926527cdb1fff11e23aaa229]
entity Impl_Controllers--><polygon fill="#FEFECE" filter="url(#f1ubx51u1x1jih)" points="1015.5,261,1148.5,261,1155.5,283.2969,1172.5,283.2969,1172.5,300.2969,1015.5,300.2969,1015.5,261" style="stroke: #000000; stroke-width: 1.5;"/><line style="stroke: #000000; stroke-width: 1.5;" x1="1015.5" x2="1155.5" y1="283.2969" y2="283.2969"/><text fill="#000000" font-family="sans-serif" font-size="14" font-weight="bold" lengthAdjust="spacingAndGlyphs" textLength="127" x="1019.5" y="276.9951">Impl_Controllers</text><!--MD5=[82b326a54518e72fd50d002502630a95]
entity I_Repositories--><polygon fill="#FEFECE" filter="url(#f1ubx51u1x1jih)" points="819,261,935,261,942,283.2969,959,283.2969,959,300.2969,819,300.2969,819,261" style="stroke: #000000; stroke-width: 1.5;"/><line style="stroke: #000000; stroke-width: 1.5;" x1="819" x2="942" y1="283.2969" y2="283.2969"/><text fill="#000000" font-family="sans-serif" font-size="14" font-weight="bold" lengthAdjust="spacingAndGlyphs" textLength="110" x="823" y="276.9951">I_Repositories</text><!--MD5=[7cf98fc8d6b4fcf16b00999ea3c479b9]
entity Impl_Repositories--><polygon fill="#FEFECE" filter="url(#f1ubx51u1x1jih)" points="616,261,760,261,767,283.2969,784,283.2969,784,300.2969,616,300.2969,616,261" style="stroke: #000000; stroke-width: 1.5;"/><line style="stroke: #000000; stroke-width: 1.5;" x1="616" x2="767" y1="283.2969" y2="283.2969"/><text fill="#000000" font-family="sans-serif" font-size="14" font-weight="bold" lengthAdjust="spacingAndGlyphs" textLength="138" x="620" y="276.9951">Impl_Repositories</text><!--MD5=[eb9c2aa8a5cf1b2c087f1a1ad66def0c]
entity I_AppServices--><polygon fill="#FEFECE" filter="url(#f1ubx51u1x1jih)" points="819,474,935,474,942,496.2969,959,496.2969,959,513.2969,819,513.2969,819,474" style="stroke: #000000; stroke-width: 1.5;"/><line style="stroke: #000000; stroke-width: 1.5;" x1="819" x2="942" y1="496.2969" y2="496.2969"/><text fill="#000000" font-family="sans-serif" font-size="14" font-weight="bold" lengthAdjust="spacingAndGlyphs" textLength="110" x="823" y="489.9951">I_AppServices</text><!--MD5=[90db5fa2407e60fbf5c8a9b04947d0c5]
entity Impl_AppServices--><polygon fill="#FEFECE" filter="url(#f1ubx51u1x1jih)" points="616,474,760,474,767,496.2969,784,496.2969,784,513.2969,616,513.2969,616,474" style="stroke: #000000; stroke-width: 1.5;"/><line style="stroke: #000000; stroke-width: 1.5;" x1="616" x2="767" y1="496.2969" y2="496.2969"/><text fill="#000000" font-family="sans-serif" font-size="14" font-weight="bold" lengthAdjust="spacingAndGlyphs" textLength="138" x="620" y="489.9951">Impl_AppServices</text><!--MD5=[2926a3d40dfbaae06bdd43e1c6b0088b]
entity Aggregates--><rect fill="#FEFECE" filter="url(#f1ubx51u1x1jih)" height="36.2969" style="stroke: #A80036; stroke-width: 1.5;" width="100" x="603" y="644"/><rect fill="#FEFECE" height="5" style="stroke: #A80036; stroke-width: 1.5;" width="10" x="598" y="649"/><rect fill="#FEFECE" height="5" style="stroke: #A80036; stroke-width: 1.5;" width="10" x="598" y="670.2969"/><text fill="#000000" font-family="sans-serif" font-size="14" lengthAdjust="spacingAndGlyphs" textLength="80" x="613" y="666.9951">Aggregates</text><!--MD5=[d4431bf3c75bf55908c281f839c556ae]
entity ValueObjects--><rect fill="#FEFECE" filter="url(#f1ubx51u1x1jih)" height="36.2969" style="stroke: #A80036; stroke-width: 1.5;" width="111" x="738.5" y="644"/><rect fill="#FEFECE" height="5" style="stroke: #A80036; stroke-width: 1.5;" width="10" x="733.5" y="649"/><rect fill="#FEFECE" height="5" style="stroke: #A80036; stroke-width: 1.5;" width="10" x="733.5" y="670.2969"/><text fill="#000000" font-family="sans-serif" font-size="14" lengthAdjust="spacingAndGlyphs" textLength="91" x="748.5" y="666.9951">ValueObjects</text><!--MD5=[3ab6bc66408bc465e62c4c0dcccb802d]
entity Services--><rect fill="#FEFECE" filter="url(#f1ubx51u1x1jih)" height="36.2969" style="stroke: #A80036; stroke-width: 1.5;" width="78" x="614" y="740"/><rect fill="#FEFECE" height="5" style="stroke: #A80036; stroke-width: 1.5;" width="10" x="609" y="745"/><rect fill="#FEFECE" height="5" style="stroke: #A80036; stroke-width: 1.5;" width="10" x="609" y="766.2969"/><text fill="#000000" font-family="sans-serif" font-size="14" lengthAdjust="spacingAndGlyphs" textLength="58" x="624" y="762.9951">Services</text><!--MD5=[03ba9bfcb46f925f7050a1ebb958eef7]
entity I_Controllers" -> "Impl_Controllers--><ellipse cx="133" cy="62" fill="#FEFECE" filter="url(#f1ubx51u1x1jih)" rx="8" ry="8" style="stroke: #A80036; stroke-width: 1.5;"/><path d="M133,70 L133,97 M120,78 L146,78 M133,97 L120,112 M133,97 L146,112 " fill="none" filter="url(#f1ubx51u1x1jih)" style="stroke: #A80036; stroke-width: 1.5;"/><text fill="#000000" font-family="sans-serif" font-size="14" lengthAdjust="spacingAndGlyphs" textLength="230" x="18" y="130.4951">I_Controllers" -&gt; "Impl_Controllers</text><!--MD5=[844b54258375579865f57fde935fc9a5]
entity I_AppServices" -> "Impl_AppServices--><ellipse cx="408" cy="62" fill="#FEFECE" filter="url(#f1ubx51u1x1jih)" rx="8" ry="8" style="stroke: #A80036; stroke-width: 1.5;"/><path d="M408,70 L408,97 M395,78 L421,78 M408,97 L395,112 M408,97 L421,112 " fill="none" filter="url(#f1ubx51u1x1jih)" style="stroke: #A80036; stroke-width: 1.5;"/><text fill="#000000" font-family="sans-serif" font-size="14" lengthAdjust="spacingAndGlyphs" textLength="250" x="283" y="130.4951">I_AppServices" -&gt; "Impl_AppServices</text><!--MD5=[7795bcab5907109f92be3bda4603a5b2]
entity I_Repositories" -> "Impl_Repositories--><ellipse cx="133" cy="249.5" fill="#FEFECE" filter="url(#f1ubx51u1x1jih)" rx="8" ry="8" style="stroke: #A80036; stroke-width: 1.5;"/><path d="M133,257.5 L133,284.5 M120,265.5 L146,265.5 M133,284.5 L120,299.5 M133,284.5 L146,299.5 " fill="none" filter="url(#f1ubx51u1x1jih)" style="stroke: #A80036; stroke-width: 1.5;"/><text fill="#000000" font-family="sans-serif" font-size="14" lengthAdjust="spacingAndGlyphs" textLength="254" x="6" y="317.9951">I_Repositories" -&gt; "Impl_Repositories</text><!--MD5=[9513a3cc453ebabd7c766bb35f7e4625]
link Infrastructure to InterfaceAdapters--><path d="M568,135.7316 C568,136.0304 568,136.3302 568,136.6311 C568,137.2328 568,137.8385 568,138.4481 C568,143.3248 568,148.4485 568,153.7369 C568,159.0253 568,164.4783 568,170.0136 C568,171.3974 568,172.7864 568,174.1792 C568,174.3533 568,174.5275 568,174.7017 C568,174.7888 568,174.8759 568,174.9631 " fill="none" id="Infrastructure-&gt;InterfaceAdapters" style="stroke: #A80036; stroke-width: 1.0;"/><polygon fill="#A80036" points="568,174.9631,572,165.9631,568,169.9631,564,165.9631,568,174.9631" style="stroke: #A80036; stroke-width: 1.0;"/><!--MD5=[8ae8c2fc7f4712b624819409281d813e]
link InterfaceAdapters to ApplicationServices--><path d="M568,348.3232 C568,348.6977 568,349.0729 568,349.4488 C568,361.4792 568,374.2588 568,387.0375 C568,387.2372 568,387.4368 568,387.6365 " fill="none" id="InterfaceAdapters-&gt;ApplicationServices" style="stroke: #A80036; stroke-width: 1.0;"/><polygon fill="#A80036" points="568,387.6365,572,378.6365,568,382.6365,564,378.6365,568,387.6365" style="stroke: #A80036; stroke-width: 1.0;"/><!--MD5=[cafe62ee2dcfd1ce7937069c4595721c]
link ApplicationServices to Domain--><path d="M568,561.7972 C568,562.1071 568,562.4174 568,562.7279 C568,567.6961 568,572.7381 568,577.78 C568,582.8219 568,587.8636 568,592.8312 C568,595.315 568,597.7802 568,600.2177 C568,600.3701 568,600.5223 568,600.6744 " fill="none" id="ApplicationServices-&gt;Domain" style="stroke: #A80036; stroke-width: 1.0;"/><polygon fill="#A80036" points="568,600.6744,572,591.6744,568,595.6744,564,591.6744,568,600.6744" style="stroke: #A80036; stroke-width: 1.0;"/><!--MD5=[72d255904eb75ef52d7f8a90ec4dab74]
link I_Controllers" -> "Impl_Controllers to I_AppServices" -> "Impl_AppServices--><!--MD5=[eecc52883442c8613bd2e4bac84bfd10]
link I_Controllers" -> "Impl_Controllers to I_Repositories" -> "Impl_Repositories--><!--MD5=[c63fd1229a4bef71f445c63d9ce6d000]
link Aggregates to ValueObjects--><!--MD5=[ff0d9df756d97cdd7b536506b339b953]
link Aggregates to Services--><!--MD5=[ee0a72d795adcb3cf396a017fe28aaf4]
@startuml

package "Infrastructure" {
    [Routing]
    [Persistance]
}

package "InterfaceAdapters" {
    package "Controllers" {
        package "I_Controllers"
        package "Impl_Controllers"
    }
    package "Repositories"{
        package "I_Repositories"
        package "Impl_Repositories"
    }
    
}

package "ApplicationServices" {
    package "AppServices" {
        package "I_AppServices"
        package "Impl_AppServices"
    }
}

package "Domain" {
    [Aggregates]
    [ValueObjects]
    [Services]
}

"I_Controllers" -> "Impl_Controllers"
"I_AppServices" -> "Impl_AppServices"
"I_Repositories" -> "Impl_Repositories"

Infrastructure - -> InterfaceAdapters
InterfaceAdapters - -> ApplicationServices
ApplicationServices - -> Domain

@enduml

PlantUML version 1.2020.02(Sun Mar 01 10:22:07 UTC 2020)
(GPL source distribution)
Java Runtime: OpenJDK Runtime Environment
JVM: OpenJDK 64-Bit Server VM
Java Version: 11.0.21+9
Operating System: Linux
Default Encoding: UTF-8
Language: en
Country: null
--></g></svg>