<?xml version="1.0" encoding="UTF-8" standalone="no"?><svg xmlns="http://www.w3.org/2000/svg" xmlns:xlink="http://www.w3.org/1999/xlink" contentScriptType="application/ecmascript" contentStyleType="text/css" height="483px" preserveAspectRatio="none" style="width:326px;height:483px;" version="1.1" viewBox="0 0 326 483" width="326px" zoomAndPan="magnify"><defs><filter height="300%" id="f1fgf85ejhc473" width="300%" x="-1" y="-1"><feGaussianBlur result="blurOut" stdDeviation="2.0"/><feColorMatrix in="blurOut" result="blurOut2" type="matrix" values="0 0 0 0 0 0 0 0 0 0 0 0 0 0 0 0 0 0 .4 0"/><feOffset dx="4.0" dy="4.0" in="blurOut2" result="blurOut3"/><feBlend in="SourceGraphic" in2="blurOut3" mode="normal"/></filter></defs><g><!--MD5=[0ac70d5a357257da33ce88abad68f4a4]
cluster S1--><polygon fill="#FFFFFF" filter="url(#f1fgf85ejhc473)" points="30,32,99,32,106,54.2969,213,54.2969,213,135,30,135,30,32" style="stroke: #000000; stroke-width: 1.5;"/><line style="stroke: #000000; stroke-width: 1.5;" x1="30" x2="106" y1="54.2969" y2="54.2969"/><text fill="#000000" font-family="sans-serif" font-size="14" font-weight="bold" lengthAdjust="spacingAndGlyphs" textLength="63" x="34" y="46.9951">Server1</text><!--MD5=[dc4eb2012487d12714526fe7f88b694b]
cluster S2--><polygon fill="#FFFFFF" filter="url(#f1fgf85ejhc473)" points="30,200,99,200,106,222.2969,304,222.2969,304,303,30,303,30,200" style="stroke: #000000; stroke-width: 1.5;"/><line style="stroke: #000000; stroke-width: 1.5;" x1="30" x2="106" y1="222.2969" y2="222.2969"/><text fill="#000000" font-family="sans-serif" font-size="14" font-weight="bold" lengthAdjust="spacingAndGlyphs" textLength="63" x="34" y="214.9951">Server1</text><!--MD5=[addf083e429417be7ad7bace6a60d70a]
cluster S3--><polygon fill="#FFFFFF" filter="url(#f1fgf85ejhc473)" points="30,368,99,368,106,390.2969,179,390.2969,179,471,30,471,30,368" style="stroke: #000000; stroke-width: 1.5;"/><line style="stroke: #000000; stroke-width: 1.5;" x1="30" x2="106" y1="390.2969" y2="390.2969"/><text fill="#000000" font-family="sans-serif" font-size="14" font-weight="bold" lengthAdjust="spacingAndGlyphs" textLength="63" x="34" y="382.9951">Server1</text><!--MD5=[9c35c66068622dad62ecac52c54c307b]
entity V--><rect fill="#FEFECE" filter="url(#f1fgf85ejhc473)" height="36.2969" style="stroke: #A80036; stroke-width: 1.5;" width="115" x="73.5" y="75"/><rect fill="#FEFECE" height="5" style="stroke: #A80036; stroke-width: 1.5;" width="10" x="68.5" y="80"/><rect fill="#FEFECE" height="5" style="stroke: #A80036; stroke-width: 1.5;" width="10" x="68.5" y="101.2969"/><text fill="#000000" font-family="sans-serif" font-size="14" lengthAdjust="spacingAndGlyphs" textLength="95" x="83.5" y="97.9951">[Visualization]</text><!--MD5=[1200cabd2a84086424de0b397dfd2f71]
entity L--><rect fill="#FEFECE" filter="url(#f1fgf85ejhc473)" height="36.2969" style="stroke: #A80036; stroke-width: 1.5;" width="82" x="198" y="243"/><rect fill="#FEFECE" height="5" style="stroke: #A80036; stroke-width: 1.5;" width="10" x="193" y="248"/><rect fill="#FEFECE" height="5" style="stroke: #A80036; stroke-width: 1.5;" width="10" x="193" y="269.2969"/><text fill="#000000" font-family="sans-serif" font-size="14" lengthAdjust="spacingAndGlyphs" textLength="62" x="208" y="265.9951">[Logistic]</text><!--MD5=[626ad08abde0879284d52f51a0eb42aa]
entity P--><rect fill="#FEFECE" filter="url(#f1fgf85ejhc473)" height="36.2969" style="stroke: #A80036; stroke-width: 1.5;" width="89" x="73.5" y="243"/><rect fill="#FEFECE" height="5" style="stroke: #A80036; stroke-width: 1.5;" width="10" x="68.5" y="248"/><rect fill="#FEFECE" height="5" style="stroke: #A80036; stroke-width: 1.5;" width="10" x="68.5" y="269.2969"/><text fill="#000000" font-family="sans-serif" font-size="14" lengthAdjust="spacingAndGlyphs" textLength="69" x="83.5" y="265.9951">[Planning]</text><!--MD5=[5fa073e7557ceedd5ffab818dd99475f]
entity L2--><rect fill="#FEFECE" filter="url(#f1fgf85ejhc473)" height="36.2969" style="stroke: #A80036; stroke-width: 1.5;" width="82" x="73" y="411"/><rect fill="#FEFECE" height="5" style="stroke: #A80036; stroke-width: 1.5;" width="10" x="68" y="416"/><rect fill="#FEFECE" height="5" style="stroke: #A80036; stroke-width: 1.5;" width="10" x="68" y="437.2969"/><text fill="#000000" font-family="sans-serif" font-size="14" lengthAdjust="spacingAndGlyphs" textLength="62" x="83" y="433.9951">[Logistic]</text><!--MD5=[15cb110786dd224ca6a510a3d2a24e20]
link S1 to S2--><path d="M38,135.4245 C38,135.9767 38,136.5323 38,137.091 C38,138.2084 38,139.3385 38,140.4801 C38,142.7633 38,145.0926 38,147.4587 C38,156.9231 38,166.9769 38,177.03 C38,182.0566 38,187.083 38,192.0355 C38,194.5117 38,196.9695 38,199.3996 C38,199.5515 38,199.7032 38,199.8549 " fill="none" id="S1-&gt;S2" style="stroke: #A80036; stroke-width: 1.0;"/><polygon fill="#A80036" points="38,199.8549,42,190.8549,38,194.8549,34,190.8549,38,199.8549" style="stroke: #A80036; stroke-width: 1.0;"/><text fill="#000000" font-family="sans-serif" font-size="13" lengthAdjust="spacingAndGlyphs" textLength="37" x="39" y="172.0669">http/s</text><!--MD5=[8eac89d31ced3c9003fbd6a8a005c745]
link S2 to S3--><path d="M38,303.4245 C38,303.9767 38,304.5323 38,305.091 C38,306.2084 38,307.3385 38,308.4801 C38,310.7633 38,313.0926 38,315.4587 C38,324.9231 38,334.9769 38,345.03 C38,350.0566 38,355.083 38,360.0355 C38,362.5117 38,364.9695 38,367.3996 C38,367.5515 38,367.7032 38,367.8549 " fill="none" id="S2-&gt;S3" style="stroke: #A80036; stroke-width: 1.0;"/><polygon fill="#A80036" points="38,367.8549,42,358.8549,38,362.8549,34,358.8549,38,367.8549" style="stroke: #A80036; stroke-width: 1.0;"/><text fill="#000000" font-family="sans-serif" font-size="13" lengthAdjust="spacingAndGlyphs" textLength="37" x="39" y="340.0669">http/s</text><!--MD5=[dbbb60dec53961dc83c2447218f6c3a9]
@startuml

package "Server1" as S1 {
    component "[Visualization]" as V
}

package "Server1" as S2 {
    component "[Logistic]" as L
    component "[Planning]" as P
}

package "Server1" as S3 {
    component "[Logistic]" as L2
}

S1 - -> S2: http/s
S2 - -> S3: http/s

@enduml

PlantUML version 1.2020.02(Sun Mar 01 10:22:07 UTC 2020)
(GPL source distribution)
Java Runtime: OpenJDK Runtime Environment
JVM: OpenJDK 64-Bit Server VM
Java Version: 11.0.21+9
Operating System: Linux
Default Encoding: UTF-8
Language: en
Country: null
--></g></svg>