<?xml version="1.0" encoding="UTF-8" standalone="no"?><svg xmlns="http://www.w3.org/2000/svg" xmlns:xlink="http://www.w3.org/1999/xlink" contentScriptType="application/ecmascript" contentStyleType="text/css" height="1394px" preserveAspectRatio="none" style="width:1803px;height:1394px;" version="1.1" viewBox="0 0 1803 1394" width="1803px" zoomAndPan="magnify"><defs><filter height="300%" id="ffhnzmvd0mi2p" width="300%" x="-1" y="-1"><feGaussianBlur result="blurOut" stdDeviation="2.0"/><feColorMatrix in="blurOut" result="blurOut2" type="matrix" values="0 0 0 0 0 0 0 0 0 0 0 0 0 0 0 0 0 0 .4 0"/><feOffset dx="4.0" dy="4.0" in="blurOut2" result="blurOut3"/><feBlend in="SourceGraphic" in2="blurOut3" mode="normal"/></filter></defs><g><rect fill="#FFFFFF" filter="url(#ffhnzmvd0mi2p)" height="1200.4453" style="stroke: #A80036; stroke-width: 1.0;" width="10" x="42.5" y="96.2969"/><rect fill="#FFFFFF" filter="url(#ffhnzmvd0mi2p)" height="1179.3125" style="stroke: #A80036; stroke-width: 1.0;" width="10" x="250.5" y="117.4297"/><rect fill="#FFFFFF" filter="url(#ffhnzmvd0mi2p)" height="1121.0469" style="stroke: #A80036; stroke-width: 1.0;" width="10" x="378.5" y="175.6953"/><rect fill="#FFFFFF" filter="url(#ffhnzmvd0mi2p)" height="145.6641" style="stroke: #A80036; stroke-width: 1.0;" width="10" x="527.5" y="379.625"/><rect fill="#FFFFFF" filter="url(#ffhnzmvd0mi2p)" height="742.3203" style="stroke: #A80036; stroke-width: 1.0;" width="10" x="527.5" y="554.4219"/><rect fill="#FFFFFF" filter="url(#ffhnzmvd0mi2p)" height="145.6641" style="stroke: #A80036; stroke-width: 1.0;" width="10" x="679" y="204.8281"/><rect fill="#FFFFFF" filter="url(#ffhnzmvd0mi2p)" height="116.5313" style="stroke: #A80036; stroke-width: 1.0;" width="10" x="805" y="233.9609"/><rect fill="#FFFFFF" filter="url(#ffhnzmvd0mi2p)" height="116.5313" style="stroke: #A80036; stroke-width: 1.0;" width="10" x="805" y="408.7578"/><rect fill="#FFFFFF" filter="url(#ffhnzmvd0mi2p)" height="713.1875" style="stroke: #A80036; stroke-width: 1.0;" width="10" x="805" y="583.5547"/><rect fill="#FFFFFF" filter="url(#ffhnzmvd0mi2p)" height="87.3984" style="stroke: #A80036; stroke-width: 1.0;" width="10" x="973" y="263.0938"/><rect fill="#FFFFFF" filter="url(#ffhnzmvd0mi2p)" height="87.3984" style="stroke: #A80036; stroke-width: 1.0;" width="10" x="973" y="437.8906"/><rect fill="#FFFFFF" filter="url(#ffhnzmvd0mi2p)" height="684.0547" style="stroke: #A80036; stroke-width: 1.0;" width="10" x="973" y="612.6875"/><rect fill="#FFFFFF" filter="url(#ffhnzmvd0mi2p)" height="58.2656" style="stroke: #A80036; stroke-width: 1.0;" width="10" x="1176" y="292.2266"/><rect fill="#FFFFFF" filter="url(#ffhnzmvd0mi2p)" height="58.2656" style="stroke: #A80036; stroke-width: 1.0;" width="10" x="1176" y="467.0234"/><rect fill="#FFFFFF" filter="url(#ffhnzmvd0mi2p)" height="655.9219" style="stroke: #A80036; stroke-width: 1.0;" width="10" x="1176" y="641.8203"/><rect fill="#FFFFFF" filter="url(#ffhnzmvd0mi2p)" height="29.1328" style="stroke: #A80036; stroke-width: 1.0;" width="10" x="1400" y="496.1563"/><rect fill="#FFFFFF" filter="url(#ffhnzmvd0mi2p)" height="625.7891" style="stroke: #A80036; stroke-width: 1.0;" width="10" x="1400" y="670.9531"/><rect fill="#FFFFFF" filter="url(#ffhnzmvd0mi2p)" height="29.1328" style="stroke: #A80036; stroke-width: 1.0;" width="10" x="1514.5" y="321.3594"/><rect fill="#FFFFFF" filter="url(#ffhnzmvd0mi2p)" height="58.2656" style="stroke: #A80036; stroke-width: 1.0;" width="10" x="1625" y="789.4844"/><rect fill="#FFFFFF" filter="url(#ffhnzmvd0mi2p)" height="29.1328" style="stroke: #A80036; stroke-width: 1.0;" width="10" x="1734.5" y="818.6172"/><rect fill="#FFFFFF" filter="url(#ffhnzmvd0mi2p)" height="46.2656" style="stroke: #000000; stroke-width: 2.0;" width="344.5" x="1117.5" y="715.0859"/><rect fill="#FFFFFF" filter="url(#ffhnzmvd0mi2p)" height="426.9922" style="stroke: #000000; stroke-width: 2.0;" width="1449" x="13" y="862.75"/><rect fill="#FFFFFF" height="205.9297" style="stroke: none; stroke-width: 1.0;" width="1449" x="13" y="1083.8125"/><line style="stroke: #A80036; stroke-width: 1.0; stroke-dasharray: 5.0,5.0;" x1="47" x2="47" y1="86.2969" y2="1306.7422"/><line style="stroke: #A80036; stroke-width: 1.0; stroke-dasharray: 5.0,5.0;" x1="255" x2="255" y1="86.2969" y2="1306.7422"/><line style="stroke: #A80036; stroke-width: 1.0; stroke-dasharray: 5.0,5.0;" x1="383" x2="383" y1="86.2969" y2="1306.7422"/><line style="stroke: #A80036; stroke-width: 1.0; stroke-dasharray: 5.0,5.0;" x1="532" x2="532" y1="86.2969" y2="1306.7422"/><line style="stroke: #A80036; stroke-width: 1.0; stroke-dasharray: 5.0,5.0;" x1="684" x2="684" y1="86.2969" y2="1306.7422"/><line style="stroke: #A80036; stroke-width: 1.0; stroke-dasharray: 5.0,5.0;" x1="809.5" x2="809.5" y1="86.2969" y2="1306.7422"/><line style="stroke: #A80036; stroke-width: 1.0; stroke-dasharray: 5.0,5.0;" x1="978" x2="978" y1="86.2969" y2="1306.7422"/><line style="stroke: #A80036; stroke-width: 1.0; stroke-dasharray: 5.0,5.0;" x1="1180.5" x2="1180.5" y1="86.2969" y2="1306.7422"/><line style="stroke: #A80036; stroke-width: 1.0; stroke-dasharray: 5.0,5.0;" x1="1405" x2="1405" y1="86.2969" y2="1306.7422"/><line style="stroke: #A80036; stroke-width: 1.0; stroke-dasharray: 5.0,5.0;" x1="1519" x2="1519" y1="86.2969" y2="1306.7422"/><line style="stroke: #A80036; stroke-width: 1.0; stroke-dasharray: 5.0,5.0;" x1="1630" x2="1630" y1="86.2969" y2="1306.7422"/><line style="stroke: #A80036; stroke-width: 1.0; stroke-dasharray: 5.0,5.0;" x1="1739" x2="1739" y1="86.2969" y2="1306.7422"/><text fill="#000000" font-family="sans-serif" font-size="14" lengthAdjust="spacingAndGlyphs" textLength="43" x="23" y="82.9951">Admin</text><ellipse cx="47.5" cy="13" fill="#FEFECE" filter="url(#ffhnzmvd0mi2p)" rx="8" ry="8" style="stroke: #A80036; stroke-width: 2.0;"/><path d="M47.5,21 L47.5,48 M34.5,29 L60.5,29 M47.5,48 L34.5,63 M47.5,48 L60.5,63 " fill="none" filter="url(#ffhnzmvd0mi2p)" style="stroke: #A80036; stroke-width: 2.0;"/><text fill="#000000" font-family="sans-serif" font-size="14" lengthAdjust="spacingAndGlyphs" textLength="43" x="23" y="1318.7373">Admin</text><ellipse cx="47.5" cy="1332.0391" fill="#FEFECE" filter="url(#ffhnzmvd0mi2p)" rx="8" ry="8" style="stroke: #A80036; stroke-width: 2.0;"/><path d="M47.5,1340.0391 L47.5,1367.0391 M34.5,1348.0391 L60.5,1348.0391 M47.5,1367.0391 L34.5,1382.0391 M47.5,1367.0391 L60.5,1382.0391 " fill="none" filter="url(#ffhnzmvd0mi2p)" style="stroke: #A80036; stroke-width: 2.0;"/><rect fill="#FEFECE" filter="url(#ffhnzmvd0mi2p)" height="30.2969" style="stroke: #A80036; stroke-width: 1.5;" width="51" x="228" y="51"/><text fill="#000000" font-family="sans-serif" font-size="14" lengthAdjust="spacingAndGlyphs" textLength="37" x="235" y="70.9951">:View</text><rect fill="#FEFECE" filter="url(#ffhnzmvd0mi2p)" height="30.2969" style="stroke: #A80036; stroke-width: 1.5;" width="51" x="228" y="1305.7422"/><text fill="#000000" font-family="sans-serif" font-size="14" lengthAdjust="spacingAndGlyphs" textLength="37" x="235" y="1325.7373">:View</text><rect fill="#FEFECE" filter="url(#ffhnzmvd0mi2p)" height="30.2969" style="stroke: #A80036; stroke-width: 1.5;" width="125" x="319" y="51"/><text fill="#000000" font-family="sans-serif" font-size="14" lengthAdjust="spacingAndGlyphs" textLength="111" x="326" y="70.9951">:FE_Component</text><rect fill="#FEFECE" filter="url(#ffhnzmvd0mi2p)" height="30.2969" style="stroke: #A80036; stroke-width: 1.5;" width="125" x="319" y="1305.7422"/><text fill="#000000" font-family="sans-serif" font-size="14" lengthAdjust="spacingAndGlyphs" textLength="111" x="326" y="1325.7373">:FE_Component</text><rect fill="#FEFECE" filter="url(#ffhnzmvd0mi2p)" height="30.2969" style="stroke: #A80036; stroke-width: 1.5;" width="127" x="467" y="51"/><text fill="#000000" font-family="sans-serif" font-size="14" lengthAdjust="spacingAndGlyphs" textLength="113" x="474" y="70.9951">:FE_FloorService</text><rect fill="#FEFECE" filter="url(#ffhnzmvd0mi2p)" height="30.2969" style="stroke: #A80036; stroke-width: 1.5;" width="127" x="467" y="1305.7422"/><text fill="#000000" font-family="sans-serif" font-size="14" lengthAdjust="spacingAndGlyphs" textLength="113" x="474" y="1325.7373">:FE_FloorService</text><rect fill="#FEFECE" filter="url(#ffhnzmvd0mi2p)" height="30.2969" style="stroke: #A80036; stroke-width: 1.5;" width="148" x="608" y="51"/><text fill="#000000" font-family="sans-serif" font-size="14" lengthAdjust="spacingAndGlyphs" textLength="134" x="615" y="70.9951">:FE_BuildingService</text><rect fill="#FEFECE" filter="url(#ffhnzmvd0mi2p)" height="30.2969" style="stroke: #A80036; stroke-width: 1.5;" width="148" x="608" y="1305.7422"/><text fill="#000000" font-family="sans-serif" font-size="14" lengthAdjust="spacingAndGlyphs" textLength="134" x="615" y="1325.7373">:FE_BuildingService</text><rect fill="#FEFECE" filter="url(#ffhnzmvd0mi2p)" height="30.2969" style="stroke: #A80036; stroke-width: 1.5;" width="73" x="771.5" y="51"/><text fill="#000000" font-family="sans-serif" font-size="14" lengthAdjust="spacingAndGlyphs" textLength="59" x="778.5" y="70.9951">:Routing</text><rect fill="#FEFECE" filter="url(#ffhnzmvd0mi2p)" height="30.2969" style="stroke: #A80036; stroke-width: 1.5;" width="73" x="771.5" y="1305.7422"/><text fill="#000000" font-family="sans-serif" font-size="14" lengthAdjust="spacingAndGlyphs" textLength="59" x="778.5" y="1325.7373">:Routing</text><rect fill="#FEFECE" filter="url(#ffhnzmvd0mi2p)" height="30.2969" style="stroke: #A80036; stroke-width: 1.5;" width="120" x="916" y="51"/><text fill="#000000" font-family="sans-serif" font-size="14" lengthAdjust="spacingAndGlyphs" textLength="106" x="923" y="70.9951">:FloorController</text><rect fill="#FEFECE" filter="url(#ffhnzmvd0mi2p)" height="30.2969" style="stroke: #A80036; stroke-width: 1.5;" width="120" x="916" y="1305.7422"/><text fill="#000000" font-family="sans-serif" font-size="14" lengthAdjust="spacingAndGlyphs" textLength="106" x="923" y="1325.7373">:FloorController</text><rect fill="#FEFECE" filter="url(#ffhnzmvd0mi2p)" height="30.2969" style="stroke: #A80036; stroke-width: 1.5;" width="103" x="1127.5" y="51"/><text fill="#000000" font-family="sans-serif" font-size="14" lengthAdjust="spacingAndGlyphs" textLength="89" x="1134.5" y="70.9951">:FloorService</text><rect fill="#FEFECE" filter="url(#ffhnzmvd0mi2p)" height="30.2969" style="stroke: #A80036; stroke-width: 1.5;" width="103" x="1127.5" y="1305.7422"/><text fill="#000000" font-family="sans-serif" font-size="14" lengthAdjust="spacingAndGlyphs" textLength="89" x="1134.5" y="1325.7373">:FloorService</text><rect fill="#FEFECE" filter="url(#ffhnzmvd0mi2p)" height="30.2969" style="stroke: #A80036; stroke-width: 1.5;" width="90" x="1358" y="51"/><text fill="#000000" font-family="sans-serif" font-size="14" lengthAdjust="spacingAndGlyphs" textLength="76" x="1365" y="70.9951">:FloorRepo</text><rect fill="#FEFECE" filter="url(#ffhnzmvd0mi2p)" height="30.2969" style="stroke: #A80036; stroke-width: 1.5;" width="90" x="1358" y="1305.7422"/><text fill="#000000" font-family="sans-serif" font-size="14" lengthAdjust="spacingAndGlyphs" textLength="76" x="1365" y="1325.7373">:FloorRepo</text><rect fill="#FEFECE" filter="url(#ffhnzmvd0mi2p)" height="30.2969" style="stroke: #A80036; stroke-width: 1.5;" width="111" x="1462" y="51"/><text fill="#000000" font-family="sans-serif" font-size="14" lengthAdjust="spacingAndGlyphs" textLength="97" x="1469" y="70.9951">:BuildingRepo</text><rect fill="#FEFECE" filter="url(#ffhnzmvd0mi2p)" height="30.2969" style="stroke: #A80036; stroke-width: 1.5;" width="111" x="1462" y="1305.7422"/><text fill="#000000" font-family="sans-serif" font-size="14" lengthAdjust="spacingAndGlyphs" textLength="97" x="1469" y="1325.7373">:BuildingRepo</text><rect fill="#FEFECE" filter="url(#ffhnzmvd0mi2p)" height="30.2969" style="stroke: #A80036; stroke-width: 1.5;" width="82" x="1587" y="51"/><text fill="#000000" font-family="sans-serif" font-size="14" lengthAdjust="spacingAndGlyphs" textLength="68" x="1594" y="70.9951">:FloorMap</text><rect fill="#FEFECE" filter="url(#ffhnzmvd0mi2p)" height="30.2969" style="stroke: #A80036; stroke-width: 1.5;" width="82" x="1587" y="1305.7422"/><text fill="#000000" font-family="sans-serif" font-size="14" lengthAdjust="spacingAndGlyphs" textLength="68" x="1594" y="1325.7373">:FloorMap</text><rect fill="#FEFECE" filter="url(#ffhnzmvd0mi2p)" height="30.2969" style="stroke: #A80036; stroke-width: 1.5;" width="109" x="1683" y="51"/><text fill="#000000" font-family="sans-serif" font-size="14" lengthAdjust="spacingAndGlyphs" textLength="95" x="1690" y="70.9951">:FloorSchema</text><rect fill="#FEFECE" filter="url(#ffhnzmvd0mi2p)" height="30.2969" style="stroke: #A80036; stroke-width: 1.5;" width="109" x="1683" y="1305.7422"/><text fill="#000000" font-family="sans-serif" font-size="14" lengthAdjust="spacingAndGlyphs" textLength="95" x="1690" y="1325.7373">:FloorSchema</text><rect fill="#FFFFFF" filter="url(#ffhnzmvd0mi2p)" height="1200.4453" style="stroke: #A80036; stroke-width: 1.0;" width="10" x="42.5" y="96.2969"/><rect fill="#FFFFFF" filter="url(#ffhnzmvd0mi2p)" height="1179.3125" style="stroke: #A80036; stroke-width: 1.0;" width="10" x="250.5" y="117.4297"/><rect fill="#FFFFFF" filter="url(#ffhnzmvd0mi2p)" height="1121.0469" style="stroke: #A80036; stroke-width: 1.0;" width="10" x="378.5" y="175.6953"/><rect fill="#FFFFFF" filter="url(#ffhnzmvd0mi2p)" height="145.6641" style="stroke: #A80036; stroke-width: 1.0;" width="10" x="527.5" y="379.625"/><rect fill="#FFFFFF" filter="url(#ffhnzmvd0mi2p)" height="742.3203" style="stroke: #A80036; stroke-width: 1.0;" width="10" x="527.5" y="554.4219"/><rect fill="#FFFFFF" filter="url(#ffhnzmvd0mi2p)" height="145.6641" style="stroke: #A80036; stroke-width: 1.0;" width="10" x="679" y="204.8281"/><rect fill="#FFFFFF" filter="url(#ffhnzmvd0mi2p)" height="116.5313" style="stroke: #A80036; stroke-width: 1.0;" width="10" x="805" y="233.9609"/><rect fill="#FFFFFF" filter="url(#ffhnzmvd0mi2p)" height="116.5313" style="stroke: #A80036; stroke-width: 1.0;" width="10" x="805" y="408.7578"/><rect fill="#FFFFFF" filter="url(#ffhnzmvd0mi2p)" height="713.1875" style="stroke: #A80036; stroke-width: 1.0;" width="10" x="805" y="583.5547"/><rect fill="#FFFFFF" filter="url(#ffhnzmvd0mi2p)" height="87.3984" style="stroke: #A80036; stroke-width: 1.0;" width="10" x="973" y="263.0938"/><rect fill="#FFFFFF" filter="url(#ffhnzmvd0mi2p)" height="87.3984" style="stroke: #A80036; stroke-width: 1.0;" width="10" x="973" y="437.8906"/><rect fill="#FFFFFF" filter="url(#ffhnzmvd0mi2p)" height="684.0547" style="stroke: #A80036; stroke-width: 1.0;" width="10" x="973" y="612.6875"/><rect fill="#FFFFFF" filter="url(#ffhnzmvd0mi2p)" height="58.2656" style="stroke: #A80036; stroke-width: 1.0;" width="10" x="1176" y="292.2266"/><rect fill="#FFFFFF" filter="url(#ffhnzmvd0mi2p)" height="58.2656" style="stroke: #A80036; stroke-width: 1.0;" width="10" x="1176" y="467.0234"/><rect fill="#FFFFFF" filter="url(#ffhnzmvd0mi2p)" height="655.9219" style="stroke: #A80036; stroke-width: 1.0;" width="10" x="1176" y="641.8203"/><rect fill="#FFFFFF" filter="url(#ffhnzmvd0mi2p)" height="29.1328" style="stroke: #A80036; stroke-width: 1.0;" width="10" x="1400" y="496.1563"/><rect fill="#FFFFFF" filter="url(#ffhnzmvd0mi2p)" height="625.7891" style="stroke: #A80036; stroke-width: 1.0;" width="10" x="1400" y="670.9531"/><rect fill="#FFFFFF" filter="url(#ffhnzmvd0mi2p)" height="29.1328" style="stroke: #A80036; stroke-width: 1.0;" width="10" x="1514.5" y="321.3594"/><rect fill="#FFFFFF" filter="url(#ffhnzmvd0mi2p)" height="58.2656" style="stroke: #A80036; stroke-width: 1.0;" width="10" x="1625" y="789.4844"/><rect fill="#FFFFFF" filter="url(#ffhnzmvd0mi2p)" height="29.1328" style="stroke: #A80036; stroke-width: 1.0;" width="10" x="1734.5" y="818.6172"/><polygon fill="#A80036" points="238.5,113.4297,248.5,117.4297,238.5,121.4297,242.5,117.4297" style="stroke: #A80036; stroke-width: 1.0;"/><line style="stroke: #A80036; stroke-width: 1.0;" x1="52.5" x2="244.5" y1="117.4297" y2="117.4297"/><text fill="#000000" font-family="sans-serif" font-size="13" font-weight="bold" lengthAdjust="spacingAndGlyphs" textLength="9" x="59.5" y="112.3638">1</text><text fill="#000000" font-family="sans-serif" font-size="13" lengthAdjust="spacingAndGlyphs" textLength="162" x="72.5" y="112.3638">wants to introduce a floor</text><polygon fill="#A80036" points="63.5,142.5625,53.5,146.5625,63.5,150.5625,59.5,146.5625" style="stroke: #A80036; stroke-width: 1.0;"/><line style="stroke: #A80036; stroke-width: 1.0; stroke-dasharray: 2.0,2.0;" x1="57.5" x2="249.5" y1="146.5625" y2="146.5625"/><text fill="#000000" font-family="sans-serif" font-size="13" font-weight="bold" lengthAdjust="spacingAndGlyphs" textLength="9" x="69.5" y="141.4966">2</text><text fill="#000000" font-family="sans-serif" font-size="13" lengthAdjust="spacingAndGlyphs" textLength="161" x="82.5" y="141.4966">request necessary data()</text><polygon fill="#A80036" points="238.5,171.6953,248.5,175.6953,238.5,179.6953,242.5,175.6953" style="stroke: #A80036; stroke-width: 1.0;"/><line style="stroke: #A80036; stroke-width: 1.0;" x1="52.5" x2="244.5" y1="175.6953" y2="175.6953"/><text fill="#000000" font-family="sans-serif" font-size="13" font-weight="bold" lengthAdjust="spacingAndGlyphs" textLength="9" x="59.5" y="170.6294">3</text><text fill="#000000" font-family="sans-serif" font-size="13" lengthAdjust="spacingAndGlyphs" textLength="112" x="72.5" y="170.6294">insert all the data</text><polygon fill="#A80036" points="366.5,200.8281,376.5,204.8281,366.5,208.8281,370.5,204.8281" style="stroke: #A80036; stroke-width: 1.0;"/><line style="stroke: #A80036; stroke-width: 1.0;" x1="260.5" x2="372.5" y1="204.8281" y2="204.8281"/><text fill="#000000" font-family="sans-serif" font-size="13" font-weight="bold" lengthAdjust="spacingAndGlyphs" textLength="9" x="267.5" y="199.7622">4</text><text fill="#000000" font-family="sans-serif" font-size="13" lengthAdjust="spacingAndGlyphs" textLength="81" x="280.5" y="199.7622">getBuilding()</text><polygon fill="#A80036" points="667,229.9609,677,233.9609,667,237.9609,671,233.9609" style="stroke: #A80036; stroke-width: 1.0;"/><line style="stroke: #A80036; stroke-width: 1.0;" x1="388.5" x2="673" y1="233.9609" y2="233.9609"/><text fill="#000000" font-family="sans-serif" font-size="13" font-weight="bold" lengthAdjust="spacingAndGlyphs" textLength="9" x="395.5" y="228.895">5</text><text fill="#000000" font-family="sans-serif" font-size="13" lengthAdjust="spacingAndGlyphs" textLength="88" x="408.5" y="228.895">getBuildings()</text><polygon fill="#A80036" points="793,259.0938,803,263.0938,793,267.0938,797,263.0938" style="stroke: #A80036; stroke-width: 1.0;"/><line style="stroke: #A80036; stroke-width: 1.0;" x1="689" x2="799" y1="263.0938" y2="263.0938"/><text fill="#000000" font-family="sans-serif" font-size="13" font-weight="bold" lengthAdjust="spacingAndGlyphs" textLength="9" x="696" y="258.0278">6</text><text fill="#000000" font-family="sans-serif" font-size="13" lengthAdjust="spacingAndGlyphs" textLength="79" x="709" y="258.0278">GET route{}</text><polygon fill="#A80036" points="961,288.2266,971,292.2266,961,296.2266,965,292.2266" style="stroke: #A80036; stroke-width: 1.0;"/><line style="stroke: #A80036; stroke-width: 1.0;" x1="815" x2="967" y1="292.2266" y2="292.2266"/><text fill="#000000" font-family="sans-serif" font-size="13" font-weight="bold" lengthAdjust="spacingAndGlyphs" textLength="9" x="822" y="287.1606">7</text><text fill="#000000" font-family="sans-serif" font-size="13" lengthAdjust="spacingAndGlyphs" textLength="48" x="835" y="287.1606">findAll()</text><polygon fill="#A80036" points="1164,317.3594,1174,321.3594,1164,325.3594,1168,321.3594" style="stroke: #A80036; stroke-width: 1.0;"/><line style="stroke: #A80036; stroke-width: 1.0;" x1="983" x2="1170" y1="321.3594" y2="321.3594"/><text fill="#000000" font-family="sans-serif" font-size="13" font-weight="bold" lengthAdjust="spacingAndGlyphs" textLength="9" x="990" y="316.2935">8</text><text fill="#000000" font-family="sans-serif" font-size="13" lengthAdjust="spacingAndGlyphs" textLength="48" x="1003" y="316.2935">findAll()</text><polygon fill="#A80036" points="1507.5,346.4922,1517.5,350.4922,1507.5,354.4922,1511.5,350.4922" style="stroke: #A80036; stroke-width: 1.0;"/><line style="stroke: #A80036; stroke-width: 1.0;" x1="1181" x2="1513.5" y1="350.4922" y2="350.4922"/><text fill="#000000" font-family="sans-serif" font-size="13" font-weight="bold" lengthAdjust="spacingAndGlyphs" textLength="9" x="1188" y="345.4263">9</text><text fill="#000000" font-family="sans-serif" font-size="13" lengthAdjust="spacingAndGlyphs" textLength="48" x="1201" y="345.4263">findAll()</text><polygon fill="#A80036" points="366.5,375.625,376.5,379.625,366.5,383.625,370.5,379.625" style="stroke: #A80036; stroke-width: 1.0;"/><line style="stroke: #A80036; stroke-width: 1.0;" x1="260.5" x2="372.5" y1="379.625" y2="379.625"/><text fill="#000000" font-family="sans-serif" font-size="13" font-weight="bold" lengthAdjust="spacingAndGlyphs" textLength="18" x="267.5" y="374.5591">10</text><text fill="#000000" font-family="sans-serif" font-size="13" lengthAdjust="spacingAndGlyphs" textLength="69" x="289.5" y="374.5591">getFloors()</text><polygon fill="#A80036" points="515.5,404.7578,525.5,408.7578,515.5,412.7578,519.5,408.7578" style="stroke: #A80036; stroke-width: 1.0;"/><line style="stroke: #A80036; stroke-width: 1.0;" x1="388.5" x2="521.5" y1="408.7578" y2="408.7578"/><text fill="#000000" font-family="sans-serif" font-size="13" font-weight="bold" lengthAdjust="spacingAndGlyphs" textLength="18" x="395.5" y="403.6919">11</text><text fill="#000000" font-family="sans-serif" font-size="13" lengthAdjust="spacingAndGlyphs" textLength="66" x="417.5" y="403.6919">listFloors()</text><polygon fill="#A80036" points="793,433.8906,803,437.8906,793,441.8906,797,437.8906" style="stroke: #A80036; stroke-width: 1.0;"/><line style="stroke: #A80036; stroke-width: 1.0;" x1="537.5" x2="799" y1="437.8906" y2="437.8906"/><text fill="#000000" font-family="sans-serif" font-size="13" font-weight="bold" lengthAdjust="spacingAndGlyphs" textLength="18" x="544.5" y="432.8247">12</text><text fill="#000000" font-family="sans-serif" font-size="13" lengthAdjust="spacingAndGlyphs" textLength="79" x="566.5" y="432.8247">GET route{}</text><polygon fill="#A80036" points="961,463.0234,971,467.0234,961,471.0234,965,467.0234" style="stroke: #A80036; stroke-width: 1.0;"/><line style="stroke: #A80036; stroke-width: 1.0;" x1="815" x2="967" y1="467.0234" y2="467.0234"/><text fill="#000000" font-family="sans-serif" font-size="13" font-weight="bold" lengthAdjust="spacingAndGlyphs" textLength="18" x="822" y="461.9575">13</text><text fill="#000000" font-family="sans-serif" font-size="13" lengthAdjust="spacingAndGlyphs" textLength="81" x="844" y="461.9575">listAllFloors()</text><polygon fill="#A80036" points="1164,492.1563,1174,496.1563,1164,500.1563,1168,496.1563" style="stroke: #A80036; stroke-width: 1.0;"/><line style="stroke: #A80036; stroke-width: 1.0;" x1="983" x2="1170" y1="496.1563" y2="496.1563"/><text fill="#000000" font-family="sans-serif" font-size="13" font-weight="bold" lengthAdjust="spacingAndGlyphs" textLength="18" x="990" y="491.0903">14</text><text fill="#000000" font-family="sans-serif" font-size="13" lengthAdjust="spacingAndGlyphs" textLength="48" x="1012" y="491.0903">findAll()</text><polygon fill="#A80036" points="1393,521.2891,1403,525.2891,1393,529.2891,1397,525.2891" style="stroke: #A80036; stroke-width: 1.0;"/><line style="stroke: #A80036; stroke-width: 1.0;" x1="1181" x2="1399" y1="525.2891" y2="525.2891"/><text fill="#000000" font-family="sans-serif" font-size="13" font-weight="bold" lengthAdjust="spacingAndGlyphs" textLength="18" x="1188" y="520.2231">15</text><text fill="#000000" font-family="sans-serif" font-size="13" lengthAdjust="spacingAndGlyphs" textLength="48" x="1210" y="520.2231">findAll()</text><polygon fill="#A80036" points="366.5,550.4219,376.5,554.4219,366.5,558.4219,370.5,554.4219" style="stroke: #A80036; stroke-width: 1.0;"/><line style="stroke: #A80036; stroke-width: 1.0;" x1="260.5" x2="372.5" y1="554.4219" y2="554.4219"/><text fill="#000000" font-family="sans-serif" font-size="13" font-weight="bold" lengthAdjust="spacingAndGlyphs" textLength="18" x="267.5" y="549.356">16</text><text fill="#000000" font-family="sans-serif" font-size="13" lengthAdjust="spacingAndGlyphs" textLength="65" x="289.5" y="549.356">editFloor()</text><polygon fill="#A80036" points="515.5,579.5547,525.5,583.5547,515.5,587.5547,519.5,583.5547" style="stroke: #A80036; stroke-width: 1.0;"/><line style="stroke: #A80036; stroke-width: 1.0;" x1="388.5" x2="521.5" y1="583.5547" y2="583.5547"/><text fill="#000000" font-family="sans-serif" font-size="13" font-weight="bold" lengthAdjust="spacingAndGlyphs" textLength="18" x="395.5" y="578.4888">17</text><text fill="#000000" font-family="sans-serif" font-size="13" lengthAdjust="spacingAndGlyphs" textLength="93" x="417.5" y="578.4888">editFloor(floor)</text><polygon fill="#A80036" points="793,608.6875,803,612.6875,793,616.6875,797,612.6875" style="stroke: #A80036; stroke-width: 1.0;"/><line style="stroke: #A80036; stroke-width: 1.0;" x1="537.5" x2="799" y1="612.6875" y2="612.6875"/><text fill="#000000" font-family="sans-serif" font-size="13" font-weight="bold" lengthAdjust="spacingAndGlyphs" textLength="18" x="544.5" y="607.6216">18</text><text fill="#000000" font-family="sans-serif" font-size="13" lengthAdjust="spacingAndGlyphs" textLength="114" x="566.5" y="607.6216">POST route{json}</text><polygon fill="#A80036" points="961,637.8203,971,641.8203,961,645.8203,965,641.8203" style="stroke: #A80036; stroke-width: 1.0;"/><line style="stroke: #A80036; stroke-width: 1.0;" x1="815" x2="967" y1="641.8203" y2="641.8203"/><text fill="#000000" font-family="sans-serif" font-size="13" font-weight="bold" lengthAdjust="spacingAndGlyphs" textLength="18" x="822" y="636.7544">19</text><text fill="#000000" font-family="sans-serif" font-size="13" lengthAdjust="spacingAndGlyphs" textLength="112" x="844" y="636.7544">updateFloor(json)</text><polygon fill="#A80036" points="1164,666.9531,1174,670.9531,1164,674.9531,1168,670.9531" style="stroke: #A80036; stroke-width: 1.0;"/><line style="stroke: #A80036; stroke-width: 1.0;" x1="983" x2="1170" y1="670.9531" y2="670.9531"/><text fill="#000000" font-family="sans-serif" font-size="13" font-weight="bold" lengthAdjust="spacingAndGlyphs" textLength="18" x="990" y="665.8872">20</text><text fill="#000000" font-family="sans-serif" font-size="13" lengthAdjust="spacingAndGlyphs" textLength="147" x="1012" y="665.8872">updateFloor(IFloorDTO)</text><polygon fill="#A80036" points="1388,696.0859,1398,700.0859,1388,704.0859,1392,700.0859" style="stroke: #A80036; stroke-width: 1.0;"/><line style="stroke: #A80036; stroke-width: 1.0;" x1="1186" x2="1394" y1="700.0859" y2="700.0859"/><text fill="#000000" font-family="sans-serif" font-size="13" font-weight="bold" lengthAdjust="spacingAndGlyphs" textLength="18" x="1193" y="695.02">21</text><text fill="#000000" font-family="sans-serif" font-size="13" lengthAdjust="spacingAndGlyphs" textLength="103" x="1215" y="695.02">findById(floor.id)</text><path d="M1117.5,715.0859 L1194.5,715.0859 L1194.5,722.0859 L1184.5,732.0859 L1117.5,732.0859 L1117.5,715.0859 " fill="#EEEEEE" style="stroke: #000000; stroke-width: 1.0;"/><rect fill="none" height="46.2656" style="stroke: #000000; stroke-width: 2.0;" width="344.5" x="1117.5" y="715.0859"/><text fill="#000000" font-family="sans-serif" font-size="13" font-weight="bold" lengthAdjust="spacingAndGlyphs" textLength="32" x="1132.5" y="728.1528">loop</text><text fill="#000000" font-family="sans-serif" font-size="11" font-weight="bold" lengthAdjust="spacingAndGlyphs" textLength="91" x="1209.5" y="727.2964">[all passages]</text><polygon fill="#A80036" points="1388,749.3516,1398,753.3516,1388,757.3516,1392,753.3516" style="stroke: #A80036; stroke-width: 1.0;"/><line style="stroke: #A80036; stroke-width: 1.0;" x1="1186" x2="1394" y1="753.3516" y2="753.3516"/><text fill="#000000" font-family="sans-serif" font-size="13" font-weight="bold" lengthAdjust="spacingAndGlyphs" textLength="18" x="1193" y="748.2856">22</text><text fill="#000000" font-family="sans-serif" font-size="13" lengthAdjust="spacingAndGlyphs" textLength="168" x="1215" y="748.2856">findById(floor.passages.id)</text><polygon fill="#A80036" points="1388,785.4844,1398,789.4844,1388,793.4844,1392,789.4844" style="stroke: #A80036; stroke-width: 1.0;"/><line style="stroke: #A80036; stroke-width: 1.0;" x1="1186" x2="1394" y1="789.4844" y2="789.4844"/><text fill="#000000" font-family="sans-serif" font-size="13" font-weight="bold" lengthAdjust="spacingAndGlyphs" textLength="18" x="1193" y="784.4185">23</text><text fill="#000000" font-family="sans-serif" font-size="13" lengthAdjust="spacingAndGlyphs" textLength="68" x="1215" y="784.4185">save(floor)</text><polygon fill="#A80036" points="1613,814.6172,1623,818.6172,1613,822.6172,1617,818.6172" style="stroke: #A80036; stroke-width: 1.0;"/><line style="stroke: #A80036; stroke-width: 1.0;" x1="1410" x2="1619" y1="818.6172" y2="818.6172"/><text fill="#000000" font-family="sans-serif" font-size="13" font-weight="bold" lengthAdjust="spacingAndGlyphs" textLength="18" x="1417" y="813.5513">24</text><text fill="#000000" font-family="sans-serif" font-size="13" lengthAdjust="spacingAndGlyphs" textLength="125" x="1439" y="813.5513">toPersistance(floor)</text><polygon fill="#A80036" points="1727.5,843.75,1737.5,847.75,1727.5,851.75,1731.5,847.75" style="stroke: #A80036; stroke-width: 1.0;"/><line style="stroke: #A80036; stroke-width: 1.0;" x1="1410" x2="1733.5" y1="847.75" y2="847.75"/><text fill="#000000" font-family="sans-serif" font-size="13" font-weight="bold" lengthAdjust="spacingAndGlyphs" textLength="18" x="1417" y="842.6841">25</text><text fill="#000000" font-family="sans-serif" font-size="13" lengthAdjust="spacingAndGlyphs" textLength="79" x="1439" y="842.6841">create(floor)</text><path d="M13,862.75 L77,862.75 L77,869.75 L67,879.75 L13,879.75 L13,862.75 " fill="#EEEEEE" style="stroke: #000000; stroke-width: 1.0;"/><rect fill="none" height="426.9922" style="stroke: #000000; stroke-width: 2.0;" width="1449" x="13" y="862.75"/><text fill="#000000" font-family="sans-serif" font-size="13" font-weight="bold" lengthAdjust="spacingAndGlyphs" textLength="19" x="28" y="875.8169">alt</text><text fill="#000000" font-family="sans-serif" font-size="11" font-weight="bold" lengthAdjust="spacingAndGlyphs" textLength="135" x="92" y="874.9604">[saved with success]</text><polygon fill="#A80036" points="1197,897.0156,1187,901.0156,1197,905.0156,1193,901.0156" style="stroke: #A80036; stroke-width: 1.0;"/><line style="stroke: #A80036; stroke-width: 1.0; stroke-dasharray: 2.0,2.0;" x1="1191" x2="1399" y1="901.0156" y2="901.0156"/><text fill="#000000" font-family="sans-serif" font-size="13" font-weight="bold" lengthAdjust="spacingAndGlyphs" textLength="18" x="1203" y="895.9497">26</text><text fill="#000000" font-family="sans-serif" font-size="13" lengthAdjust="spacingAndGlyphs" textLength="28" x="1225" y="895.9497">floor</text><polygon fill="#A80036" points="994,926.1484,984,930.1484,994,934.1484,990,930.1484" style="stroke: #A80036; stroke-width: 1.0;"/><line style="stroke: #A80036; stroke-width: 1.0; stroke-dasharray: 2.0,2.0;" x1="988" x2="1175" y1="930.1484" y2="930.1484"/><text fill="#000000" font-family="sans-serif" font-size="13" font-weight="bold" lengthAdjust="spacingAndGlyphs" textLength="18" x="1000" y="925.0825">27</text><text fill="#000000" font-family="sans-serif" font-size="13" lengthAdjust="spacingAndGlyphs" textLength="28" x="1022" y="925.0825">floor</text><polygon fill="#A80036" points="826,955.2813,816,959.2813,826,963.2813,822,959.2813" style="stroke: #A80036; stroke-width: 1.0;"/><line style="stroke: #A80036; stroke-width: 1.0; stroke-dasharray: 2.0,2.0;" x1="820" x2="972" y1="959.2813" y2="959.2813"/><text fill="#000000" font-family="sans-serif" font-size="13" font-weight="bold" lengthAdjust="spacingAndGlyphs" textLength="18" x="832" y="954.2153">28</text><text fill="#000000" font-family="sans-serif" font-size="13" lengthAdjust="spacingAndGlyphs" textLength="64" x="854" y="954.2153">HTTP: 201</text><polygon fill="#A80036" points="548.5,984.4141,538.5,988.4141,548.5,992.4141,544.5,988.4141" style="stroke: #A80036; stroke-width: 1.0;"/><line style="stroke: #A80036; stroke-width: 1.0; stroke-dasharray: 2.0,2.0;" x1="542.5" x2="804" y1="988.4141" y2="988.4141"/><text fill="#000000" font-family="sans-serif" font-size="13" font-weight="bold" lengthAdjust="spacingAndGlyphs" textLength="18" x="554.5" y="983.3481">29</text><text fill="#000000" font-family="sans-serif" font-size="13" lengthAdjust="spacingAndGlyphs" textLength="64" x="576.5" y="983.3481">HTTP: 201</text><polygon fill="#A80036" points="399.5,1013.5469,389.5,1017.5469,399.5,1021.5469,395.5,1017.5469" style="stroke: #A80036; stroke-width: 1.0;"/><line style="stroke: #A80036; stroke-width: 1.0; stroke-dasharray: 2.0,2.0;" x1="393.5" x2="526.5" y1="1017.5469" y2="1017.5469"/><text fill="#000000" font-family="sans-serif" font-size="13" font-weight="bold" lengthAdjust="spacingAndGlyphs" textLength="18" x="405.5" y="1012.481">30</text><text fill="#000000" font-family="sans-serif" font-size="13" lengthAdjust="spacingAndGlyphs" textLength="64" x="427.5" y="1012.481">HTTP: 201</text><polygon fill="#A80036" points="271.5,1042.6797,261.5,1046.6797,271.5,1050.6797,267.5,1046.6797" style="stroke: #A80036; stroke-width: 1.0;"/><line style="stroke: #A80036; stroke-width: 1.0; stroke-dasharray: 2.0,2.0;" x1="265.5" x2="377.5" y1="1046.6797" y2="1046.6797"/><text fill="#000000" font-family="sans-serif" font-size="13" font-weight="bold" lengthAdjust="spacingAndGlyphs" textLength="18" x="277.5" y="1041.6138">31</text><text fill="#000000" font-family="sans-serif" font-size="13" lengthAdjust="spacingAndGlyphs" textLength="64" x="299.5" y="1041.6138">HTTP: 201</text><polygon fill="#A80036" points="63.5,1071.8125,53.5,1075.8125,63.5,1079.8125,59.5,1075.8125" style="stroke: #A80036; stroke-width: 1.0;"/><line style="stroke: #A80036; stroke-width: 1.0; stroke-dasharray: 2.0,2.0;" x1="57.5" x2="249.5" y1="1075.8125" y2="1075.8125"/><text fill="#000000" font-family="sans-serif" font-size="13" font-weight="bold" lengthAdjust="spacingAndGlyphs" textLength="18" x="69.5" y="1070.7466">32</text><text fill="#000000" font-family="sans-serif" font-size="13" lengthAdjust="spacingAndGlyphs" textLength="150" x="91.5" y="1070.7466">show success message</text><line style="stroke: #000000; stroke-width: 1.0; stroke-dasharray: 2.0,2.0;" x1="13" x2="1462" y1="1084.8125" y2="1084.8125"/><polygon fill="#A80036" points="1197,1102.9453,1187,1106.9453,1197,1110.9453,1193,1106.9453" style="stroke: #A80036; stroke-width: 1.0;"/><line style="stroke: #A80036; stroke-width: 1.0; stroke-dasharray: 2.0,2.0;" x1="1191" x2="1399" y1="1106.9453" y2="1106.9453"/><text fill="#000000" font-family="sans-serif" font-size="13" font-weight="bold" lengthAdjust="spacingAndGlyphs" textLength="18" x="1203" y="1101.8794">33</text><text fill="#000000" font-family="sans-serif" font-size="13" lengthAdjust="spacingAndGlyphs" textLength="31" x="1225" y="1101.8794">Error</text><polygon fill="#A80036" points="1197,1132.0781,1187,1136.0781,1197,1140.0781,1193,1136.0781" style="stroke: #A80036; stroke-width: 1.0;"/><line style="stroke: #A80036; stroke-width: 1.0; stroke-dasharray: 2.0,2.0;" x1="1191" x2="1399" y1="1136.0781" y2="1136.0781"/><text fill="#000000" font-family="sans-serif" font-size="13" font-weight="bold" lengthAdjust="spacingAndGlyphs" textLength="18" x="1203" y="1131.0122">34</text><text fill="#000000" font-family="sans-serif" font-size="13" lengthAdjust="spacingAndGlyphs" textLength="31" x="1225" y="1131.0122">Error</text><polygon fill="#A80036" points="826,1161.2109,816,1165.2109,826,1169.2109,822,1165.2109" style="stroke: #A80036; stroke-width: 1.0;"/><line style="stroke: #A80036; stroke-width: 1.0; stroke-dasharray: 2.0,2.0;" x1="820" x2="972" y1="1165.2109" y2="1165.2109"/><text fill="#000000" font-family="sans-serif" font-size="13" font-weight="bold" lengthAdjust="spacingAndGlyphs" textLength="18" x="832" y="1160.145">35</text><text fill="#000000" font-family="sans-serif" font-size="13" lengthAdjust="spacingAndGlyphs" textLength="64" x="854" y="1160.145">HTTP: 400</text><polygon fill="#A80036" points="548.5,1190.3438,538.5,1194.3438,548.5,1198.3438,544.5,1194.3438" style="stroke: #A80036; stroke-width: 1.0;"/><line style="stroke: #A80036; stroke-width: 1.0; stroke-dasharray: 2.0,2.0;" x1="542.5" x2="804" y1="1194.3438" y2="1194.3438"/><text fill="#000000" font-family="sans-serif" font-size="13" font-weight="bold" lengthAdjust="spacingAndGlyphs" textLength="18" x="554.5" y="1189.2778">36</text><text fill="#000000" font-family="sans-serif" font-size="13" lengthAdjust="spacingAndGlyphs" textLength="64" x="576.5" y="1189.2778">HTTP: 400</text><polygon fill="#A80036" points="399.5,1219.4766,389.5,1223.4766,399.5,1227.4766,395.5,1223.4766" style="stroke: #A80036; stroke-width: 1.0;"/><line style="stroke: #A80036; stroke-width: 1.0; stroke-dasharray: 2.0,2.0;" x1="393.5" x2="526.5" y1="1223.4766" y2="1223.4766"/><text fill="#000000" font-family="sans-serif" font-size="13" font-weight="bold" lengthAdjust="spacingAndGlyphs" textLength="18" x="405.5" y="1218.4106">37</text><text fill="#000000" font-family="sans-serif" font-size="13" lengthAdjust="spacingAndGlyphs" textLength="64" x="427.5" y="1218.4106">HTTP: 400</text><polygon fill="#A80036" points="271.5,1248.6094,261.5,1252.6094,271.5,1256.6094,267.5,1252.6094" style="stroke: #A80036; stroke-width: 1.0;"/><line style="stroke: #A80036; stroke-width: 1.0; stroke-dasharray: 2.0,2.0;" x1="265.5" x2="377.5" y1="1252.6094" y2="1252.6094"/><text fill="#000000" font-family="sans-serif" font-size="13" font-weight="bold" lengthAdjust="spacingAndGlyphs" textLength="18" x="277.5" y="1247.5435">38</text><text fill="#000000" font-family="sans-serif" font-size="13" lengthAdjust="spacingAndGlyphs" textLength="64" x="299.5" y="1247.5435">HTTP: 400</text><polygon fill="#A80036" points="63.5,1277.7422,53.5,1281.7422,63.5,1285.7422,59.5,1281.7422" style="stroke: #A80036; stroke-width: 1.0;"/><line style="stroke: #A80036; stroke-width: 1.0; stroke-dasharray: 2.0,2.0;" x1="57.5" x2="249.5" y1="1281.7422" y2="1281.7422"/><text fill="#000000" font-family="sans-serif" font-size="13" font-weight="bold" lengthAdjust="spacingAndGlyphs" textLength="18" x="69.5" y="1276.6763">39</text><text fill="#000000" font-family="sans-serif" font-size="13" lengthAdjust="spacingAndGlyphs" textLength="138" x="91.5" y="1276.6763">show failure message</text><!--MD5=[d6bbe7d37f97e0f67c4ad86c6cf1acaf]
@startuml
autonumber
actor "Admin" as admin

participant ":View" as sys
participant ":FE_Component" as comp
participant ":FE_FloorService" as FEsrvc
participant ":FE_BuildingService" as FEBsrvc
participant ":Routing" as route
participant ":FloorController" as ctrl
participant ":FloorService" as srvc
participant ":FloorRepo" as repo
participant ":BuildingRepo" as repoT
participant ":FloorMap" as rtMap
participant ":FloorSchema" as rtSchema

activate admin

admin -> sys: wants to introduce a floor
activate sys
sys - -> admin: request necessary data()
admin -> sys : insert all the data
activate comp

sys -> comp : getBuilding()
activate FEBsrvc
comp -> FEBsrvc : getBuildings()
activate route
FEBsrvc -> route: GET route{}
activate ctrl
route -> ctrl: findAll()
activate srvc
ctrl -> srvc: findAll()
activate repoT
srvc -> repoT: findAll()
deactivate FEBsrvc
deactivate route
deactivate ctrl
deactivate srvc
deactivate repoT


sys -> comp : getFloors()
activate FEsrvc
comp -> FEsrvc : listFloors()
activate route
FEsrvc -> route: GET route{}
activate ctrl
route -> ctrl: listAllFloors()
activate srvc
ctrl -> srvc: findAll()
activate repo
srvc -> repo: findAll()
deactivate FEsrvc
deactivate route
deactivate ctrl
deactivate srvc
deactivate repo

sys -> comp : editFloor()
activate FEsrvc
comp -> FEsrvc : editFloor(floor)
activate route
FEsrvc -> route: POST route{json}
activate ctrl
route -> ctrl: updateFloor(json)
activate srvc
ctrl -> srvc: updateFloor(IFloorDTO)
activate repo
srvc -> repo: findById(floor.id)
loop all passages
    srvc -> repo: findById(floor.passages.id)
end
srvc -> repo: save(floor)
activate rtMap
repo -> rtMap: toPersistance(floor)
activate rtSchema
repo -> rtSchema: create(floor)
deactivate rtSchema
deactivate rtMap

alt saved with success
    repo - -> srvc: floor
    srvc - -> ctrl: floor
    ctrl - -> route : HTTP: 201
    route - -> FEsrvc: HTTP: 201
    FEsrvc - -> comp: HTTP: 201
    comp - -> sys: HTTP: 201
    sys - -> admin: show success message
else
    repo - -> srvc: Error
    repo - -> srvc: Error
    ctrl - -> route : HTTP: 400
    route - -> FEsrvc: HTTP: 400
    FEsrvc - -> comp: HTTP: 400
    comp - -> sys: HTTP: 400
    sys - -> admin: show failure message
end

deactivate repo
deactivate ctrl
deactivate route
deactivate FEsrvc
deactivate comp
deactivate sys
deactivate admin
@enduml

PlantUML version 1.2020.02(Sun Mar 01 10:22:07 UTC 2020)
(GPL source distribution)
Java Runtime: OpenJDK Runtime Environment
JVM: OpenJDK 64-Bit Server VM
Java Version: 11.0.21+9
Operating System: Linux
Default Encoding: UTF-8
Language: en
Country: null
--></g></svg>