<?xml version="1.0" encoding="UTF-8" standalone="no"?><svg xmlns="http://www.w3.org/2000/svg" xmlns:xlink="http://www.w3.org/1999/xlink" contentScriptType="application/ecmascript" contentStyleType="text/css" height="501px" preserveAspectRatio="none" style="width:1267px;height:501px;" version="1.1" viewBox="0 0 1267 501" width="1267px" zoomAndPan="magnify"><defs><filter height="300%" id="fnl7xbs0dbj5c" width="300%" x="-1" y="-1"><feGaussianBlur result="blurOut" stdDeviation="2.0"/><feColorMatrix in="blurOut" result="blurOut2" type="matrix" values="0 0 0 0 0 0 0 0 0 0 0 0 0 0 0 0 0 0 .4 0"/><feOffset dx="4.0" dy="4.0" in="blurOut2" result="blurOut3"/><feBlend in="SourceGraphic" in2="blurOut3" mode="normal"/></filter></defs><g><rect fill="#FFFFFF" filter="url(#fnl7xbs0dbj5c)" height="228.7344" style="stroke: #A80036; stroke-width: 1.0;" width="10" x="644" y="146.5625"/><rect fill="#FFFFFF" filter="url(#fnl7xbs0dbj5c)" height="87.3984" style="stroke: #A80036; stroke-width: 1.0;" width="10" x="941" y="175.6953"/><rect fill="#FFFFFF" filter="url(#fnl7xbs0dbj5c)" height="29.1328" style="stroke: #A80036; stroke-width: 1.0;" width="10" x="1211" y="204.8281"/><rect fill="#FFFFFF" filter="url(#fnl7xbs0dbj5c)" height="90.2031" style="stroke: #000000; stroke-width: 2.0;" width="434" x="287" y="278.0938"/><rect fill="#FFFFFF" height="43.9375" style="stroke: none; stroke-width: 1.0;" width="434" x="287" y="324.3594"/><line style="stroke: #A80036; stroke-width: 1.0; stroke-dasharray: 5.0,5.0;" x1="27" x2="27" y1="86.2969" y2="414.4297"/><line style="stroke: #A80036; stroke-width: 1.0; stroke-dasharray: 5.0,5.0;" x1="340" x2="340" y1="86.2969" y2="414.4297"/><line style="stroke: #A80036; stroke-width: 1.0; stroke-dasharray: 5.0,5.0;" x1="649" x2="649" y1="86.2969" y2="414.4297"/><line style="stroke: #A80036; stroke-width: 1.0; stroke-dasharray: 5.0,5.0;" x1="945.5" x2="945.5" y1="86.2969" y2="414.4297"/><line style="stroke: #A80036; stroke-width: 1.0; stroke-dasharray: 5.0,5.0;" x1="1215.5" x2="1215.5" y1="86.2969" y2="414.4297"/><text fill="#000000" font-family="sans-serif" font-size="14" lengthAdjust="spacingAndGlyphs" textLength="32" x="8" y="82.9951">User</text><ellipse cx="27" cy="13" fill="#FEFECE" filter="url(#fnl7xbs0dbj5c)" rx="8" ry="8" style="stroke: #A80036; stroke-width: 2.0;"/><path d="M27,21 L27,48 M14,29 L40,29 M27,48 L14,63 M27,48 L40,63 " fill="none" filter="url(#fnl7xbs0dbj5c)" style="stroke: #A80036; stroke-width: 2.0;"/><text fill="#000000" font-family="sans-serif" font-size="14" lengthAdjust="spacingAndGlyphs" textLength="32" x="8" y="426.4248">User</text><ellipse cx="27" cy="439.7266" fill="#FEFECE" filter="url(#fnl7xbs0dbj5c)" rx="8" ry="8" style="stroke: #A80036; stroke-width: 2.0;"/><path d="M27,447.7266 L27,474.7266 M14,455.7266 L40,455.7266 M27,474.7266 L14,489.7266 M27,474.7266 L40,489.7266 " fill="none" filter="url(#fnl7xbs0dbj5c)" style="stroke: #A80036; stroke-width: 2.0;"/><rect fill="#FEFECE" filter="url(#fnl7xbs0dbj5c)" height="30.2969" style="stroke: #A80036; stroke-width: 1.5;" width="82" x="297" y="51"/><text fill="#000000" font-family="sans-serif" font-size="14" lengthAdjust="spacingAndGlyphs" textLength="68" x="304" y="70.9951">:FrontEnd</text><rect fill="#FEFECE" filter="url(#fnl7xbs0dbj5c)" height="30.2969" style="stroke: #A80036; stroke-width: 1.5;" width="82" x="297" y="413.4297"/><text fill="#000000" font-family="sans-serif" font-size="14" lengthAdjust="spacingAndGlyphs" textLength="68" x="304" y="433.4248">:FrontEnd</text><rect fill="#FEFECE" filter="url(#fnl7xbs0dbj5c)" height="30.2969" style="stroke: #A80036; stroke-width: 1.5;" width="120" x="587" y="51"/><text fill="#000000" font-family="sans-serif" font-size="14" lengthAdjust="spacingAndGlyphs" textLength="106" x="594" y="70.9951">:FloorController</text><rect fill="#FEFECE" filter="url(#fnl7xbs0dbj5c)" height="30.2969" style="stroke: #A80036; stroke-width: 1.5;" width="120" x="587" y="413.4297"/><text fill="#000000" font-family="sans-serif" font-size="14" lengthAdjust="spacingAndGlyphs" textLength="106" x="594" y="433.4248">:FloorController</text><rect fill="#FEFECE" filter="url(#fnl7xbs0dbj5c)" height="30.2969" style="stroke: #A80036; stroke-width: 1.5;" width="103" x="892.5" y="51"/><text fill="#000000" font-family="sans-serif" font-size="14" lengthAdjust="spacingAndGlyphs" textLength="89" x="899.5" y="70.9951">:FloorService</text><rect fill="#FEFECE" filter="url(#fnl7xbs0dbj5c)" height="30.2969" style="stroke: #A80036; stroke-width: 1.5;" width="103" x="892.5" y="413.4297"/><text fill="#000000" font-family="sans-serif" font-size="14" lengthAdjust="spacingAndGlyphs" textLength="89" x="899.5" y="433.4248">:FloorService</text><rect fill="#FEFECE" filter="url(#fnl7xbs0dbj5c)" height="30.2969" style="stroke: #A80036; stroke-width: 1.5;" width="85" x="1171.5" y="51"/><text fill="#000000" font-family="sans-serif" font-size="14" lengthAdjust="spacingAndGlyphs" textLength="71" x="1178.5" y="70.9951">:Database</text><rect fill="#FEFECE" filter="url(#fnl7xbs0dbj5c)" height="30.2969" style="stroke: #A80036; stroke-width: 1.5;" width="85" x="1171.5" y="413.4297"/><text fill="#000000" font-family="sans-serif" font-size="14" lengthAdjust="spacingAndGlyphs" textLength="71" x="1178.5" y="433.4248">:Database</text><rect fill="#FFFFFF" filter="url(#fnl7xbs0dbj5c)" height="228.7344" style="stroke: #A80036; stroke-width: 1.0;" width="10" x="644" y="146.5625"/><rect fill="#FFFFFF" filter="url(#fnl7xbs0dbj5c)" height="87.3984" style="stroke: #A80036; stroke-width: 1.0;" width="10" x="941" y="175.6953"/><rect fill="#FFFFFF" filter="url(#fnl7xbs0dbj5c)" height="29.1328" style="stroke: #A80036; stroke-width: 1.0;" width="10" x="1211" y="204.8281"/><polygon fill="#A80036" points="328,113.4297,338,117.4297,328,121.4297,332,117.4297" style="stroke: #A80036; stroke-width: 1.0;"/><line style="stroke: #A80036; stroke-width: 1.0;" x1="27" x2="334" y1="117.4297" y2="117.4297"/><text fill="#000000" font-family="sans-serif" font-size="13" lengthAdjust="spacingAndGlyphs" textLength="289" x="34" y="112.3638">Access web interface and input passage data</text><polygon fill="#A80036" points="632,142.5625,642,146.5625,632,150.5625,636,146.5625" style="stroke: #A80036; stroke-width: 1.0;"/><line style="stroke: #A80036; stroke-width: 1.0;" x1="340" x2="638" y1="146.5625" y2="146.5625"/><text fill="#000000" font-family="sans-serif" font-size="13" lengthAdjust="spacingAndGlyphs" textLength="285" x="347" y="141.4966">Submit passage data (floorID, passageData)</text><polygon fill="#A80036" points="929,171.6953,939,175.6953,929,179.6953,933,175.6953" style="stroke: #A80036; stroke-width: 1.0;"/><line style="stroke: #A80036; stroke-width: 1.0;" x1="654" x2="935" y1="175.6953" y2="175.6953"/><text fill="#000000" font-family="sans-serif" font-size="13" lengthAdjust="spacingAndGlyphs" textLength="268" x="661" y="170.6294">addPassageToFloor(floorID, passageData)</text><polygon fill="#A80036" points="1199,200.8281,1209,204.8281,1199,208.8281,1203,204.8281" style="stroke: #A80036; stroke-width: 1.0;"/><line style="stroke: #A80036; stroke-width: 1.0;" x1="951" x2="1205" y1="204.8281" y2="204.8281"/><text fill="#000000" font-family="sans-serif" font-size="13" lengthAdjust="spacingAndGlyphs" textLength="241" x="958" y="199.7622">Query for floor by ID and add passage</text><polygon fill="#A80036" points="962,229.9609,952,233.9609,962,237.9609,958,233.9609" style="stroke: #A80036; stroke-width: 1.0;"/><line style="stroke: #A80036; stroke-width: 1.0; stroke-dasharray: 2.0,2.0;" x1="956" x2="1215" y1="233.9609" y2="233.9609"/><text fill="#000000" font-family="sans-serif" font-size="13" lengthAdjust="spacingAndGlyphs" textLength="179" x="968" y="228.895">Updated floor entity or error</text><polygon fill="#A80036" points="665,259.0938,655,263.0938,665,267.0938,661,263.0938" style="stroke: #A80036; stroke-width: 1.0;"/><line style="stroke: #A80036; stroke-width: 1.0; stroke-dasharray: 2.0,2.0;" x1="659" x2="945" y1="263.0938" y2="263.0938"/><text fill="#000000" font-family="sans-serif" font-size="13" lengthAdjust="spacingAndGlyphs" textLength="237" x="671" y="258.0278">Floor update result (success or error)</text><path d="M287,278.0938 L351,278.0938 L351,285.0938 L341,295.0938 L287,295.0938 L287,278.0938 " fill="#EEEEEE" style="stroke: #000000; stroke-width: 1.0;"/><rect fill="none" height="90.2031" style="stroke: #000000; stroke-width: 2.0;" width="434" x="287" y="278.0938"/><text fill="#000000" font-family="sans-serif" font-size="13" font-weight="bold" lengthAdjust="spacingAndGlyphs" textLength="19" x="302" y="291.1606">alt</text><text fill="#000000" font-family="sans-serif" font-size="11" font-weight="bold" lengthAdjust="spacingAndGlyphs" textLength="147" x="366" y="290.3042">[Floor update success]</text><polygon fill="#A80036" points="351,312.3594,341,316.3594,351,320.3594,347,316.3594" style="stroke: #A80036; stroke-width: 1.0;"/><line style="stroke: #A80036; stroke-width: 1.0; stroke-dasharray: 2.0,2.0;" x1="345" x2="643" y1="316.3594" y2="316.3594"/><text fill="#000000" font-family="sans-serif" font-size="13" lengthAdjust="spacingAndGlyphs" textLength="270" x="357" y="311.2935">Success response with updated Floor data</text><line style="stroke: #000000; stroke-width: 1.0; stroke-dasharray: 2.0,2.0;" x1="287" x2="721" y1="325.3594" y2="325.3594"/><text fill="#000000" font-family="sans-serif" font-size="11" font-weight="bold" lengthAdjust="spacingAndGlyphs" textLength="138" x="292" y="335.5698">[Floor update failure]</text><polygon fill="#A80036" points="351,356.2969,341,360.2969,351,364.2969,347,360.2969" style="stroke: #A80036; stroke-width: 1.0;"/><line style="stroke: #A80036; stroke-width: 1.0; stroke-dasharray: 2.0,2.0;" x1="345" x2="643" y1="360.2969" y2="360.2969"/><text fill="#000000" font-family="sans-serif" font-size="13" lengthAdjust="spacingAndGlyphs" textLength="94" x="357" y="355.231">Error response</text><polygon fill="#A80036" points="38,392.4297,28,396.4297,38,400.4297,34,396.4297" style="stroke: #A80036; stroke-width: 1.0;"/><line style="stroke: #A80036; stroke-width: 1.0;" x1="32" x2="339" y1="396.4297" y2="396.4297"/><text fill="#000000" font-family="sans-serif" font-size="13" lengthAdjust="spacingAndGlyphs" textLength="273" x="44" y="391.3638">Display update outcome (success or error)</text><!--MD5=[06da5ea46a59cc57e3cf79782896a3c8]
@startuml lvl2_createPassageBetweenFloors

actor "User" as U
participant ":FrontEnd" as frontend
participant ":FloorController" as controller
participant ":FloorService" as service
participant ":Database" as db

U -> frontend: Access web interface and input passage data
frontend -> controller: Submit passage data (floorID, passageData)
activate controller

controller -> service: addPassageToFloor(floorID, passageData)
activate service

service -> db: Query for floor by ID and add passage
activate db
db - -> service: Updated floor entity or error
deactivate db

service - -> controller: Floor update result (success or error)
deactivate service

alt Floor update success
    controller - -> frontend: Success response with updated Floor data
else Floor update failure
    controller - -> frontend: Error response
end
deactivate controller

frontend -> U: Display update outcome (success or error)

@enduml

PlantUML version 1.2020.02(Sun Mar 01 10:22:07 UTC 2020)
(GPL source distribution)
Java Runtime: OpenJDK Runtime Environment
JVM: OpenJDK 64-Bit Server VM
Java Version: 11.0.21+9
Operating System: Linux
Default Encoding: UTF-8
Language: en
Country: null
--></g></svg>