<?xml version="1.0" encoding="UTF-8" standalone="no"?><svg xmlns="http://www.w3.org/2000/svg" xmlns:xlink="http://www.w3.org/1999/xlink" contentScriptType="application/ecmascript" contentStyleType="text/css" height="1299px" preserveAspectRatio="none" style="width:3284px;height:1299px;" version="1.1" viewBox="0 0 3284 1299" width="3284px" zoomAndPan="magnify"><defs><filter height="300%" id="f1pjyijde9i7u2" width="300%" x="-1" y="-1"><feGaussianBlur result="blurOut" stdDeviation="2.0"/><feColorMatrix in="blurOut" result="blurOut2" type="matrix" values="0 0 0 0 0 0 0 0 0 0 0 0 0 0 0 0 0 0 .4 0"/><feOffset dx="4.0" dy="4.0" in="blurOut2" result="blurOut3"/><feBlend in="SourceGraphic" in2="blurOut3" mode="normal"/></filter></defs><g><rect fill="#FFFFFF" filter="url(#f1pjyijde9i7u2)" height="1180.4609" style="stroke: #A80036; stroke-width: 1.0;" width="10" x="368" y="69.4297"/><rect fill="#FFFFFF" filter="url(#f1pjyijde9i7u2)" height="1150.3281" style="stroke: #A80036; stroke-width: 1.0;" width="10" x="698" y="98.5625"/><rect fill="#FFFFFF" filter="url(#f1pjyijde9i7u2)" height="1079.0625" style="stroke: #A80036; stroke-width: 1.0;" width="10" x="947" y="170.8281"/><rect fill="#FFFFFF" filter="url(#f1pjyijde9i7u2)" height="1048.9297" style="stroke: #A80036; stroke-width: 1.0;" width="10" x="1174" y="199.9609"/><rect fill="#FFFFFF" filter="url(#f1pjyijde9i7u2)" height="203.9297" style="stroke: #A80036; stroke-width: 1.0;" width="10" x="1433" y="229.0938"/><rect fill="#FFFFFF" filter="url(#f1pjyijde9i7u2)" height="145.6641" style="stroke: #A80036; stroke-width: 1.0;" width="10" x="1692" y="258.2266"/><rect fill="#FFFFFF" filter="url(#f1pjyijde9i7u2)" height="87.3984" style="stroke: #A80036; stroke-width: 1.0;" width="10" x="1951" y="287.3594"/><rect fill="#FFFFFF" filter="url(#f1pjyijde9i7u2)" height="29.1328" style="stroke: #A80036; stroke-width: 1.0;" width="10" x="2160" y="316.4922"/><rect fill="#FFFFFF" filter="url(#f1pjyijde9i7u2)" height="203.9297" style="stroke: #A80036; stroke-width: 1.0;" width="10" x="2263.5" y="597.8203"/><rect fill="#FFFFFF" filter="url(#f1pjyijde9i7u2)" height="145.6641" style="stroke: #A80036; stroke-width: 1.0;" width="10" x="2421.5" y="626.9531"/><rect fill="#FFFFFF" filter="url(#f1pjyijde9i7u2)" height="58.2656" style="stroke: #A80036; stroke-width: 1.0;" width="10" x="2615.5" y="486.2891"/><rect fill="#FFFFFF" filter="url(#f1pjyijde9i7u2)" height="29.1328" style="stroke: #A80036; stroke-width: 1.0;" width="10" x="2615.5" y="656.0859"/><rect fill="#FFFFFF" filter="url(#f1pjyijde9i7u2)" height="29.1328" style="stroke: #A80036; stroke-width: 1.0;" width="10" x="2615.5" y="830.8828"/><rect fill="#FFFFFF" filter="url(#f1pjyijde9i7u2)" height="29.1328" style="stroke: #A80036; stroke-width: 1.0;" width="10" x="2748.5" y="515.4219"/><rect fill="#FFFFFF" filter="url(#f1pjyijde9i7u2)" height="14" style="stroke: #A80036; stroke-width: 1.0;" width="10" x="2840.5" y="127.6953"/><rect fill="#FFFFFF" filter="url(#f1pjyijde9i7u2)" height="29.1328" style="stroke: #A80036; stroke-width: 1.0;" width="10" x="3200.5" y="714.3516"/><rect fill="#FFFFFF" filter="url(#f1pjyijde9i7u2)" height="631.3984" style="stroke: #000000; stroke-width: 2.0;" width="2641" x="631" y="448.0234"/><rect fill="#FFFFFF" filter="url(#f1pjyijde9i7u2)" height="439.7969" style="stroke: #000000; stroke-width: 2.0;" width="2621" x="641" y="559.5547"/><rect fill="#FFFFFF" height="73.0703" style="stroke: none; stroke-width: 1.0;" width="2621" x="641" y="926.2813"/><rect fill="#FFFFFF" height="73.0703" style="stroke: none; stroke-width: 1.0;" width="2641" x="631" y="1006.3516"/><rect fill="#FFFFFF" filter="url(#f1pjyijde9i7u2)" height="148.4688" style="stroke: #000000; stroke-width: 2.0;" width="752" x="13" y="1093.4219"/><rect fill="#FFFFFF" height="73.0703" style="stroke: none; stroke-width: 1.0;" width="752" x="13" y="1168.8203"/><line style="stroke: #A80036; stroke-width: 1.0; stroke-dasharray: 5.0,5.0;" x1="48" x2="48" y1="38.2969" y2="1258.8906"/><line style="stroke: #A80036; stroke-width: 1.0; stroke-dasharray: 5.0,5.0;" x1="372.5" x2="372.5" y1="38.2969" y2="1258.8906"/><line style="stroke: #A80036; stroke-width: 1.0; stroke-dasharray: 5.0,5.0;" x1="703" x2="703" y1="38.2969" y2="1258.8906"/><line style="stroke: #A80036; stroke-width: 1.0; stroke-dasharray: 5.0,5.0;" x1="952" x2="952" y1="38.2969" y2="1258.8906"/><line style="stroke: #A80036; stroke-width: 1.0; stroke-dasharray: 5.0,5.0;" x1="1178.5" x2="1178.5" y1="38.2969" y2="1258.8906"/><line style="stroke: #A80036; stroke-width: 1.0; stroke-dasharray: 5.0,5.0;" x1="1438" x2="1438" y1="38.2969" y2="1258.8906"/><line style="stroke: #A80036; stroke-width: 1.0; stroke-dasharray: 5.0,5.0;" x1="1696.5" x2="1696.5" y1="38.2969" y2="1258.8906"/><line style="stroke: #A80036; stroke-width: 1.0; stroke-dasharray: 5.0,5.0;" x1="1955.5" x2="1955.5" y1="38.2969" y2="1258.8906"/><line style="stroke: #A80036; stroke-width: 1.0; stroke-dasharray: 5.0,5.0;" x1="2165" x2="2165" y1="38.2969" y2="1258.8906"/><line style="stroke: #A80036; stroke-width: 1.0; stroke-dasharray: 5.0,5.0;" x1="2268" x2="2268" y1="38.2969" y2="1258.8906"/><line style="stroke: #A80036; stroke-width: 1.0; stroke-dasharray: 5.0,5.0;" x1="2426.5" x2="2426.5" y1="38.2969" y2="1258.8906"/><line style="stroke: #A80036; stroke-width: 1.0; stroke-dasharray: 5.0,5.0;" x1="2620.5" x2="2620.5" y1="38.2969" y2="1258.8906"/><line style="stroke: #A80036; stroke-width: 1.0; stroke-dasharray: 5.0,5.0;" x1="2753" x2="2753" y1="38.2969" y2="1258.8906"/><line style="stroke: #A80036; stroke-width: 1.0; stroke-dasharray: 5.0,5.0;" x1="2845" x2="2845" y1="38.2969" y2="1258.8906"/><line style="stroke: #A80036; stroke-width: 1.0; stroke-dasharray: 5.0,5.0;" x1="2959" x2="2959" y1="38.2969" y2="1258.8906"/><line style="stroke: #A80036; stroke-width: 1.0; stroke-dasharray: 5.0,5.0;" x1="3089" x2="3089" y1="38.2969" y2="1258.8906"/><line style="stroke: #A80036; stroke-width: 1.0; stroke-dasharray: 5.0,5.0;" x1="3205" x2="3205" y1="38.2969" y2="1258.8906"/><rect fill="#FEFECE" filter="url(#f1pjyijde9i7u2)" height="30.2969" style="stroke: #A80036; stroke-width: 1.5;" width="46" x="23" y="3"/><text fill="#000000" font-family="sans-serif" font-size="14" lengthAdjust="spacingAndGlyphs" textLength="32" x="30" y="22.9951">User</text><rect fill="#FEFECE" filter="url(#f1pjyijde9i7u2)" height="30.2969" style="stroke: #A80036; stroke-width: 1.5;" width="46" x="23" y="1257.8906"/><text fill="#000000" font-family="sans-serif" font-size="14" lengthAdjust="spacingAndGlyphs" textLength="32" x="30" y="1277.8857">User</text><rect fill="#FEFECE" filter="url(#f1pjyijde9i7u2)" height="30.2969" style="stroke: #A80036; stroke-width: 1.5;" width="103" x="319.5" y="3"/><text fill="#000000" font-family="sans-serif" font-size="14" lengthAdjust="spacingAndGlyphs" textLength="89" x="326.5" y="22.9951">ILiftController</text><rect fill="#FEFECE" filter="url(#f1pjyijde9i7u2)" height="30.2969" style="stroke: #A80036; stroke-width: 1.5;" width="103" x="319.5" y="1257.8906"/><text fill="#000000" font-family="sans-serif" font-size="14" lengthAdjust="spacingAndGlyphs" textLength="89" x="326.5" y="1277.8857">ILiftController</text><rect fill="#FEFECE" filter="url(#f1pjyijde9i7u2)" height="30.2969" style="stroke: #A80036; stroke-width: 1.5;" width="100" x="651" y="3"/><text fill="#000000" font-family="sans-serif" font-size="14" lengthAdjust="spacingAndGlyphs" textLength="86" x="658" y="22.9951">LiftController</text><rect fill="#FEFECE" filter="url(#f1pjyijde9i7u2)" height="30.2969" style="stroke: #A80036; stroke-width: 1.5;" width="100" x="651" y="1257.8906"/><text fill="#000000" font-family="sans-serif" font-size="14" lengthAdjust="spacingAndGlyphs" textLength="86" x="658" y="1277.8857">LiftController</text><rect fill="#FEFECE" filter="url(#f1pjyijde9i7u2)" height="30.2969" style="stroke: #A80036; stroke-width: 1.5;" width="86" x="907" y="3"/><text fill="#000000" font-family="sans-serif" font-size="14" lengthAdjust="spacingAndGlyphs" textLength="72" x="914" y="22.9951">ILiftService</text><rect fill="#FEFECE" filter="url(#f1pjyijde9i7u2)" height="30.2969" style="stroke: #A80036; stroke-width: 1.5;" width="86" x="907" y="1257.8906"/><text fill="#000000" font-family="sans-serif" font-size="14" lengthAdjust="spacingAndGlyphs" textLength="72" x="914" y="1277.8857">ILiftService</text><rect fill="#FEFECE" filter="url(#f1pjyijde9i7u2)" height="30.2969" style="stroke: #A80036; stroke-width: 1.5;" width="83" x="1135.5" y="3"/><text fill="#000000" font-family="sans-serif" font-size="14" lengthAdjust="spacingAndGlyphs" textLength="69" x="1142.5" y="22.9951">LiftService</text><rect fill="#FEFECE" filter="url(#f1pjyijde9i7u2)" height="30.2969" style="stroke: #A80036; stroke-width: 1.5;" width="83" x="1135.5" y="1257.8906"/><text fill="#000000" font-family="sans-serif" font-size="14" lengthAdjust="spacingAndGlyphs" textLength="69" x="1142.5" y="1277.8857">LiftService</text><rect fill="#FEFECE" filter="url(#f1pjyijde9i7u2)" height="30.2969" style="stroke: #A80036; stroke-width: 1.5;" width="122" x="1375" y="3"/><text fill="#000000" font-family="sans-serif" font-size="14" lengthAdjust="spacingAndGlyphs" textLength="108" x="1382" y="22.9951">IBuildingService</text><rect fill="#FEFECE" filter="url(#f1pjyijde9i7u2)" height="30.2969" style="stroke: #A80036; stroke-width: 1.5;" width="122" x="1375" y="1257.8906"/><text fill="#000000" font-family="sans-serif" font-size="14" lengthAdjust="spacingAndGlyphs" textLength="108" x="1382" y="1277.8857">IBuildingService</text><rect fill="#FEFECE" filter="url(#f1pjyijde9i7u2)" height="30.2969" style="stroke: #A80036; stroke-width: 1.5;" width="119" x="1635.5" y="3"/><text fill="#000000" font-family="sans-serif" font-size="14" lengthAdjust="spacingAndGlyphs" textLength="105" x="1642.5" y="22.9951">BuildingService</text><rect fill="#FEFECE" filter="url(#f1pjyijde9i7u2)" height="30.2969" style="stroke: #A80036; stroke-width: 1.5;" width="119" x="1635.5" y="1257.8906"/><text fill="#000000" font-family="sans-serif" font-size="14" lengthAdjust="spacingAndGlyphs" textLength="105" x="1642.5" y="1277.8857">BuildingService</text><rect fill="#FEFECE" filter="url(#f1pjyijde9i7u2)" height="30.2969" style="stroke: #A80036; stroke-width: 1.5;" width="109" x="1899.5" y="3"/><text fill="#000000" font-family="sans-serif" font-size="14" lengthAdjust="spacingAndGlyphs" textLength="95" x="1906.5" y="22.9951">IBuildingRepo</text><rect fill="#FEFECE" filter="url(#f1pjyijde9i7u2)" height="30.2969" style="stroke: #A80036; stroke-width: 1.5;" width="109" x="1899.5" y="1257.8906"/><text fill="#000000" font-family="sans-serif" font-size="14" lengthAdjust="spacingAndGlyphs" textLength="95" x="1906.5" y="1277.8857">IBuildingRepo</text><rect fill="#FEFECE" filter="url(#f1pjyijde9i7u2)" height="30.2969" style="stroke: #A80036; stroke-width: 1.5;" width="106" x="2110" y="3"/><text fill="#000000" font-family="sans-serif" font-size="14" lengthAdjust="spacingAndGlyphs" textLength="92" x="2117" y="22.9951">BuildingRepo</text><rect fill="#FEFECE" filter="url(#f1pjyijde9i7u2)" height="30.2969" style="stroke: #A80036; stroke-width: 1.5;" width="106" x="2110" y="1257.8906"/><text fill="#000000" font-family="sans-serif" font-size="14" lengthAdjust="spacingAndGlyphs" textLength="92" x="2117" y="1277.8857">BuildingRepo</text><rect fill="#FEFECE" filter="url(#f1pjyijde9i7u2)" height="30.2969" style="stroke: #A80036; stroke-width: 1.5;" width="73" x="2230" y="3"/><text fill="#000000" font-family="sans-serif" font-size="14" lengthAdjust="spacingAndGlyphs" textLength="59" x="2237" y="22.9951">ILiftRepo</text><rect fill="#FEFECE" filter="url(#f1pjyijde9i7u2)" height="30.2969" style="stroke: #A80036; stroke-width: 1.5;" width="73" x="2230" y="1257.8906"/><text fill="#000000" font-family="sans-serif" font-size="14" lengthAdjust="spacingAndGlyphs" textLength="59" x="2237" y="1277.8857">ILiftRepo</text><rect fill="#FEFECE" filter="url(#f1pjyijde9i7u2)" height="30.2969" style="stroke: #A80036; stroke-width: 1.5;" width="70" x="2389.5" y="3"/><text fill="#000000" font-family="sans-serif" font-size="14" lengthAdjust="spacingAndGlyphs" textLength="56" x="2396.5" y="22.9951">LiftRepo</text><rect fill="#FEFECE" filter="url(#f1pjyijde9i7u2)" height="30.2969" style="stroke: #A80036; stroke-width: 1.5;" width="70" x="2389.5" y="1257.8906"/><text fill="#000000" font-family="sans-serif" font-size="14" lengthAdjust="spacingAndGlyphs" textLength="56" x="2396.5" y="1277.8857">LiftRepo</text><rect fill="#FEFECE" filter="url(#f1pjyijde9i7u2)" height="30.2969" style="stroke: #A80036; stroke-width: 1.5;" width="62" x="2587.5" y="3"/><text fill="#000000" font-family="sans-serif" font-size="14" lengthAdjust="spacingAndGlyphs" textLength="48" x="2594.5" y="22.9951">LiftMap</text><rect fill="#FEFECE" filter="url(#f1pjyijde9i7u2)" height="30.2969" style="stroke: #A80036; stroke-width: 1.5;" width="62" x="2587.5" y="1257.8906"/><text fill="#000000" font-family="sans-serif" font-size="14" lengthAdjust="spacingAndGlyphs" textLength="48" x="2594.5" y="1277.8857">LiftMap</text><rect fill="#FEFECE" filter="url(#f1pjyijde9i7u2)" height="30.2969" style="stroke: #A80036; stroke-width: 1.5;" width="75" x="2714" y="3"/><text fill="#000000" font-family="sans-serif" font-size="14" lengthAdjust="spacingAndGlyphs" textLength="61" x="2721" y="22.9951">Lift Entity</text><rect fill="#FEFECE" filter="url(#f1pjyijde9i7u2)" height="30.2969" style="stroke: #A80036; stroke-width: 1.5;" width="75" x="2714" y="1257.8906"/><text fill="#000000" font-family="sans-serif" font-size="14" lengthAdjust="spacingAndGlyphs" textLength="61" x="2721" y="1277.8857">Lift Entity</text><rect fill="#FEFECE" filter="url(#f1pjyijde9i7u2)" height="30.2969" style="stroke: #A80036; stroke-width: 1.5;" width="81" x="2803" y="3"/><text fill="#000000" font-family="sans-serif" font-size="14" lengthAdjust="spacingAndGlyphs" textLength="67" x="2810" y="22.9951">ConfigFile</text><rect fill="#FEFECE" filter="url(#f1pjyijde9i7u2)" height="30.2969" style="stroke: #A80036; stroke-width: 1.5;" width="81" x="2803" y="1257.8906"/><text fill="#000000" font-family="sans-serif" font-size="14" lengthAdjust="spacingAndGlyphs" textLength="67" x="2810" y="1277.8857">ConfigFile</text><rect fill="#FEFECE" filter="url(#f1pjyijde9i7u2)" height="30.2969" style="stroke: #A80036; stroke-width: 1.5;" width="118" x="2898" y="3"/><text fill="#000000" font-family="sans-serif" font-size="14" lengthAdjust="spacingAndGlyphs" textLength="104" x="2905" y="22.9951">ILiftPersistence</text><rect fill="#FEFECE" filter="url(#f1pjyijde9i7u2)" height="30.2969" style="stroke: #A80036; stroke-width: 1.5;" width="118" x="2898" y="1257.8906"/><text fill="#000000" font-family="sans-serif" font-size="14" lengthAdjust="spacingAndGlyphs" textLength="104" x="2905" y="1277.8857">ILiftPersistence</text><rect fill="#FEFECE" filter="url(#f1pjyijde9i7u2)" height="30.2969" style="stroke: #A80036; stroke-width: 1.5;" width="115" x="3030" y="3"/><text fill="#000000" font-family="sans-serif" font-size="14" lengthAdjust="spacingAndGlyphs" textLength="101" x="3037" y="22.9951">LiftPersistence</text><rect fill="#FEFECE" filter="url(#f1pjyijde9i7u2)" height="30.2969" style="stroke: #A80036; stroke-width: 1.5;" width="115" x="3030" y="1257.8906"/><text fill="#000000" font-family="sans-serif" font-size="14" lengthAdjust="spacingAndGlyphs" textLength="101" x="3037" y="1277.8857">LiftPersistence</text><rect fill="#FEFECE" filter="url(#f1pjyijde9i7u2)" height="30.2969" style="stroke: #A80036; stroke-width: 1.5;" width="89" x="3159" y="3"/><text fill="#000000" font-family="sans-serif" font-size="14" lengthAdjust="spacingAndGlyphs" textLength="75" x="3166" y="22.9951">LiftSchema</text><rect fill="#FEFECE" filter="url(#f1pjyijde9i7u2)" height="30.2969" style="stroke: #A80036; stroke-width: 1.5;" width="89" x="3159" y="1257.8906"/><text fill="#000000" font-family="sans-serif" font-size="14" lengthAdjust="spacingAndGlyphs" textLength="75" x="3166" y="1277.8857">LiftSchema</text><rect fill="#FFFFFF" filter="url(#f1pjyijde9i7u2)" height="1180.4609" style="stroke: #A80036; stroke-width: 1.0;" width="10" x="368" y="69.4297"/><rect fill="#FFFFFF" filter="url(#f1pjyijde9i7u2)" height="1150.3281" style="stroke: #A80036; stroke-width: 1.0;" width="10" x="698" y="98.5625"/><rect fill="#FFFFFF" filter="url(#f1pjyijde9i7u2)" height="1079.0625" style="stroke: #A80036; stroke-width: 1.0;" width="10" x="947" y="170.8281"/><rect fill="#FFFFFF" filter="url(#f1pjyijde9i7u2)" height="1048.9297" style="stroke: #A80036; stroke-width: 1.0;" width="10" x="1174" y="199.9609"/><rect fill="#FFFFFF" filter="url(#f1pjyijde9i7u2)" height="203.9297" style="stroke: #A80036; stroke-width: 1.0;" width="10" x="1433" y="229.0938"/><rect fill="#FFFFFF" filter="url(#f1pjyijde9i7u2)" height="145.6641" style="stroke: #A80036; stroke-width: 1.0;" width="10" x="1692" y="258.2266"/><rect fill="#FFFFFF" filter="url(#f1pjyijde9i7u2)" height="87.3984" style="stroke: #A80036; stroke-width: 1.0;" width="10" x="1951" y="287.3594"/><rect fill="#FFFFFF" filter="url(#f1pjyijde9i7u2)" height="29.1328" style="stroke: #A80036; stroke-width: 1.0;" width="10" x="2160" y="316.4922"/><rect fill="#FFFFFF" filter="url(#f1pjyijde9i7u2)" height="203.9297" style="stroke: #A80036; stroke-width: 1.0;" width="10" x="2263.5" y="597.8203"/><rect fill="#FFFFFF" filter="url(#f1pjyijde9i7u2)" height="145.6641" style="stroke: #A80036; stroke-width: 1.0;" width="10" x="2421.5" y="626.9531"/><rect fill="#FFFFFF" filter="url(#f1pjyijde9i7u2)" height="58.2656" style="stroke: #A80036; stroke-width: 1.0;" width="10" x="2615.5" y="486.2891"/><rect fill="#FFFFFF" filter="url(#f1pjyijde9i7u2)" height="29.1328" style="stroke: #A80036; stroke-width: 1.0;" width="10" x="2615.5" y="656.0859"/><rect fill="#FFFFFF" filter="url(#f1pjyijde9i7u2)" height="29.1328" style="stroke: #A80036; stroke-width: 1.0;" width="10" x="2615.5" y="830.8828"/><rect fill="#FFFFFF" filter="url(#f1pjyijde9i7u2)" height="29.1328" style="stroke: #A80036; stroke-width: 1.0;" width="10" x="2748.5" y="515.4219"/><rect fill="#FFFFFF" filter="url(#f1pjyijde9i7u2)" height="14" style="stroke: #A80036; stroke-width: 1.0;" width="10" x="2840.5" y="127.6953"/><rect fill="#FFFFFF" filter="url(#f1pjyijde9i7u2)" height="29.1328" style="stroke: #A80036; stroke-width: 1.0;" width="10" x="3200.5" y="714.3516"/><polygon fill="#A80036" points="356,65.4297,366,69.4297,356,73.4297,360,69.4297" style="stroke: #A80036; stroke-width: 1.0;"/><line style="stroke: #A80036; stroke-width: 1.0;" x1="48" x2="362" y1="69.4297" y2="69.4297"/><text fill="#000000" font-family="sans-serif" font-size="13" lengthAdjust="spacingAndGlyphs" textLength="260" x="55" y="64.3638">send request to createLift(req, res, next)</text><polygon fill="#A80036" points="686,94.5625,696,98.5625,686,102.5625,690,98.5625" style="stroke: #A80036; stroke-width: 1.0;"/><line style="stroke: #A80036; stroke-width: 1.0;" x1="378" x2="692" y1="98.5625" y2="98.5625"/><text fill="#000000" font-family="sans-serif" font-size="13" lengthAdjust="spacingAndGlyphs" textLength="155" x="385" y="93.4966">createLift(req, res, next)</text><polygon fill="#A80036" points="2828.5,123.6953,2838.5,127.6953,2828.5,131.6953,2832.5,127.6953" style="stroke: #A80036; stroke-width: 1.0;"/><line style="stroke: #A80036; stroke-width: 1.0;" x1="708" x2="2834.5" y1="127.6953" y2="127.6953"/><text fill="#000000" font-family="sans-serif" font-size="13" lengthAdjust="spacingAndGlyphs" textLength="92" x="715" y="122.6294">Injects Service</text><polygon fill="#A80036" points="719,137.6953,709,141.6953,719,145.6953,715,141.6953" style="stroke: #A80036; stroke-width: 1.0;"/><line style="stroke: #A80036; stroke-width: 1.0;" x1="713" x2="2844.5" y1="141.6953" y2="141.6953"/><polygon fill="#A80036" points="935,166.8281,945,170.8281,935,174.8281,939,170.8281" style="stroke: #A80036; stroke-width: 1.0;"/><line style="stroke: #A80036; stroke-width: 1.0;" x1="708" x2="941" y1="170.8281" y2="170.8281"/><text fill="#000000" font-family="sans-serif" font-size="13" lengthAdjust="spacingAndGlyphs" textLength="155" x="715" y="165.7622">createLift(req, res, next)</text><polygon fill="#A80036" points="1162,195.9609,1172,199.9609,1162,203.9609,1166,199.9609" style="stroke: #A80036; stroke-width: 1.0;"/><line style="stroke: #A80036; stroke-width: 1.0;" x1="957" x2="1168" y1="199.9609" y2="199.9609"/><text fill="#000000" font-family="sans-serif" font-size="13" lengthAdjust="spacingAndGlyphs" textLength="198" x="964" y="194.895">createLift(req.body as ILiftDTO)</text><polygon fill="#A80036" points="1421,225.0938,1431,229.0938,1421,233.0938,1425,229.0938" style="stroke: #A80036; stroke-width: 1.0;"/><line style="stroke: #A80036; stroke-width: 1.0;" x1="1184" x2="1427" y1="229.0938" y2="229.0938"/><text fill="#000000" font-family="sans-serif" font-size="13" lengthAdjust="spacingAndGlyphs" textLength="230" x="1191" y="224.0278">findByDomainId(req.body.buildingId)</text><polygon fill="#A80036" points="1680,254.2266,1690,258.2266,1680,262.2266,1684,258.2266" style="stroke: #A80036; stroke-width: 1.0;"/><line style="stroke: #A80036; stroke-width: 1.0;" x1="1443" x2="1686" y1="258.2266" y2="258.2266"/><text fill="#000000" font-family="sans-serif" font-size="13" lengthAdjust="spacingAndGlyphs" textLength="230" x="1450" y="253.1606">findByDomainId(req.body.buildingId)</text><polygon fill="#A80036" points="1939,283.3594,1949,287.3594,1939,291.3594,1943,287.3594" style="stroke: #A80036; stroke-width: 1.0;"/><line style="stroke: #A80036; stroke-width: 1.0;" x1="1702" x2="1945" y1="287.3594" y2="287.3594"/><text fill="#000000" font-family="sans-serif" font-size="13" lengthAdjust="spacingAndGlyphs" textLength="230" x="1709" y="282.2935">findByDomainId(req.body.buildingId)</text><polygon fill="#A80036" points="2148,312.4922,2158,316.4922,2148,320.4922,2152,316.4922" style="stroke: #A80036; stroke-width: 1.0;"/><line style="stroke: #A80036; stroke-width: 1.0;" x1="1961" x2="2154" y1="316.4922" y2="316.4922"/><text fill="#000000" font-family="sans-serif" font-size="13" lengthAdjust="spacingAndGlyphs" textLength="180" x="1968" y="311.4263">findById(req.body.buildingId)</text><polygon fill="#A80036" points="1972,341.625,1962,345.625,1972,349.625,1968,345.625" style="stroke: #A80036; stroke-width: 1.0;"/><line style="stroke: #A80036; stroke-width: 1.0; stroke-dasharray: 2.0,2.0;" x1="1966" x2="2164" y1="345.625" y2="345.625"/><text fill="#000000" font-family="sans-serif" font-size="13" lengthAdjust="spacingAndGlyphs" textLength="169" x="1978" y="340.5591">buildingDocument (or null)</text><polygon fill="#A80036" points="1713,370.7578,1703,374.7578,1713,378.7578,1709,374.7578" style="stroke: #A80036; stroke-width: 1.0;"/><line style="stroke: #A80036; stroke-width: 1.0; stroke-dasharray: 2.0,2.0;" x1="1707" x2="1955" y1="374.7578" y2="374.7578"/><text fill="#000000" font-family="sans-serif" font-size="13" lengthAdjust="spacingAndGlyphs" textLength="169" x="1719" y="369.6919">buildingDocument (or null)</text><polygon fill="#A80036" points="1454,399.8906,1444,403.8906,1454,407.8906,1450,403.8906" style="stroke: #A80036; stroke-width: 1.0;"/><line style="stroke: #A80036; stroke-width: 1.0; stroke-dasharray: 2.0,2.0;" x1="1448" x2="1696" y1="403.8906" y2="403.8906"/><text fill="#000000" font-family="sans-serif" font-size="13" lengthAdjust="spacingAndGlyphs" textLength="169" x="1460" y="398.8247">buildingDocument (or null)</text><polygon fill="#A80036" points="1195,429.0234,1185,433.0234,1195,437.0234,1191,433.0234" style="stroke: #A80036; stroke-width: 1.0;"/><line style="stroke: #A80036; stroke-width: 1.0; stroke-dasharray: 2.0,2.0;" x1="1189" x2="1437" y1="433.0234" y2="433.0234"/><text fill="#000000" font-family="sans-serif" font-size="13" lengthAdjust="spacingAndGlyphs" textLength="169" x="1201" y="427.9575">buildingDocument (or null)</text><path d="M631,448.0234 L695,448.0234 L695,455.0234 L685,465.0234 L631,465.0234 L631,448.0234 " fill="#EEEEEE" style="stroke: #000000; stroke-width: 1.0;"/><rect fill="none" height="631.3984" style="stroke: #000000; stroke-width: 2.0;" width="2641" x="631" y="448.0234"/><text fill="#000000" font-family="sans-serif" font-size="13" font-weight="bold" lengthAdjust="spacingAndGlyphs" textLength="19" x="646" y="461.0903">alt</text><text fill="#000000" font-family="sans-serif" font-size="11" font-weight="bold" lengthAdjust="spacingAndGlyphs" textLength="104" x="710" y="460.2339">[Building found]</text><polygon fill="#A80036" points="2603.5,482.2891,2613.5,486.2891,2603.5,490.2891,2607.5,486.2891" style="stroke: #A80036; stroke-width: 1.0;"/><line style="stroke: #A80036; stroke-width: 1.0;" x1="1184" x2="2609.5" y1="486.2891" y2="486.2891"/><text fill="#000000" font-family="sans-serif" font-size="13" lengthAdjust="spacingAndGlyphs" textLength="203" x="1191" y="481.2231">ToDomain(req.body as ILiftDTO)</text><polygon fill="#A80036" points="2736.5,511.4219,2746.5,515.4219,2736.5,519.4219,2740.5,515.4219" style="stroke: #A80036; stroke-width: 1.0;"/><line style="stroke: #A80036; stroke-width: 1.0;" x1="2625.5" x2="2742.5" y1="515.4219" y2="515.4219"/><text fill="#000000" font-family="sans-serif" font-size="13" lengthAdjust="spacingAndGlyphs" textLength="104" x="2632.5" y="510.356">.create(ILiftDTO)</text><polygon fill="#A80036" points="1195,540.5547,1185,544.5547,1195,548.5547,1191,544.5547" style="stroke: #A80036; stroke-width: 1.0;"/><line style="stroke: #A80036; stroke-width: 1.0; stroke-dasharray: 2.0,2.0;" x1="1189" x2="2752.5" y1="544.5547" y2="544.5547"/><text fill="#000000" font-family="sans-serif" font-size="13" lengthAdjust="spacingAndGlyphs" textLength="68" x="1201" y="539.4888">createdLift</text><path d="M641,559.5547 L705,559.5547 L705,566.5547 L695,576.5547 L641,576.5547 L641,559.5547 " fill="#EEEEEE" style="stroke: #000000; stroke-width: 1.0;"/><rect fill="none" height="439.7969" style="stroke: #000000; stroke-width: 2.0;" width="2621" x="641" y="559.5547"/><text fill="#000000" font-family="sans-serif" font-size="13" font-weight="bold" lengthAdjust="spacingAndGlyphs" textLength="19" x="656" y="572.6216">alt</text><text fill="#000000" font-family="sans-serif" font-size="11" font-weight="bold" lengthAdjust="spacingAndGlyphs" textLength="135" x="720" y="571.7651">[creation successful]</text><polygon fill="#A80036" points="2251.5,593.8203,2261.5,597.8203,2251.5,601.8203,2255.5,597.8203" style="stroke: #A80036; stroke-width: 1.0;"/><line style="stroke: #A80036; stroke-width: 1.0;" x1="1184" x2="2257.5" y1="597.8203" y2="597.8203"/><text fill="#000000" font-family="sans-serif" font-size="13" lengthAdjust="spacingAndGlyphs" textLength="108" x="1191" y="592.7544">save(createdLift)</text><polygon fill="#A80036" points="2409.5,622.9531,2419.5,626.9531,2409.5,630.9531,2413.5,626.9531" style="stroke: #A80036; stroke-width: 1.0;"/><line style="stroke: #A80036; stroke-width: 1.0;" x1="2273.5" x2="2415.5" y1="626.9531" y2="626.9531"/><text fill="#000000" font-family="sans-serif" font-size="13" lengthAdjust="spacingAndGlyphs" textLength="108" x="2280.5" y="621.8872">save(createdLift)</text><polygon fill="#A80036" points="2603.5,652.0859,2613.5,656.0859,2603.5,660.0859,2607.5,656.0859" style="stroke: #A80036; stroke-width: 1.0;"/><line style="stroke: #A80036; stroke-width: 1.0;" x1="2431.5" x2="2609.5" y1="656.0859" y2="656.0859"/><text fill="#000000" font-family="sans-serif" font-size="13" lengthAdjust="spacingAndGlyphs" textLength="165" x="2438.5" y="651.02">toPersistence(createdLift)</text><polygon fill="#A80036" points="2442.5,681.2188,2432.5,685.2188,2442.5,689.2188,2438.5,685.2188" style="stroke: #A80036; stroke-width: 1.0;"/><line style="stroke: #A80036; stroke-width: 1.0; stroke-dasharray: 2.0,2.0;" x1="2436.5" x2="2619.5" y1="685.2188" y2="685.2188"/><text fill="#000000" font-family="sans-serif" font-size="13" lengthAdjust="spacingAndGlyphs" textLength="84" x="2448.5" y="680.1528">return rawLift</text><polygon fill="#A80036" points="3188.5,710.3516,3198.5,714.3516,3188.5,718.3516,3192.5,714.3516" style="stroke: #A80036; stroke-width: 1.0;"/><line style="stroke: #A80036; stroke-width: 1.0; stroke-dasharray: 2.0,2.0;" x1="2431.5" x2="3194.5" y1="714.3516" y2="714.3516"/><text fill="#000000" font-family="sans-serif" font-size="13" lengthAdjust="spacingAndGlyphs" textLength="92" x="2438.5" y="709.2856">create(rawLift)</text><polygon fill="#A80036" points="2442.5,739.4844,2432.5,743.4844,2442.5,747.4844,2438.5,743.4844" style="stroke: #A80036; stroke-width: 1.0;"/><line style="stroke: #A80036; stroke-width: 1.0; stroke-dasharray: 2.0,2.0;" x1="2436.5" x2="3204.5" y1="743.4844" y2="743.4844"/><text fill="#000000" font-family="sans-serif" font-size="13" lengthAdjust="spacingAndGlyphs" textLength="125" x="2448.5" y="738.4185">return liftDocument</text><polygon fill="#A80036" points="2284.5,768.6172,2274.5,772.6172,2284.5,776.6172,2280.5,772.6172" style="stroke: #A80036; stroke-width: 1.0;"/><line style="stroke: #A80036; stroke-width: 1.0; stroke-dasharray: 2.0,2.0;" x1="2278.5" x2="2425.5" y1="772.6172" y2="772.6172"/><text fill="#000000" font-family="sans-serif" font-size="13" lengthAdjust="spacingAndGlyphs" textLength="124" x="2290.5" y="767.5513">saved liftDocument</text><polygon fill="#A80036" points="1195,797.75,1185,801.75,1195,805.75,1191,801.75" style="stroke: #A80036; stroke-width: 1.0;"/><line style="stroke: #A80036; stroke-width: 1.0; stroke-dasharray: 2.0,2.0;" x1="1189" x2="2267.5" y1="801.75" y2="801.75"/><text fill="#000000" font-family="sans-serif" font-size="13" lengthAdjust="spacingAndGlyphs" textLength="124" x="1201" y="796.6841">saved liftDocument</text><polygon fill="#A80036" points="2603.5,826.8828,2613.5,830.8828,2603.5,834.8828,2607.5,830.8828" style="stroke: #A80036; stroke-width: 1.0;"/><line style="stroke: #A80036; stroke-width: 1.0;" x1="1184" x2="2609.5" y1="830.8828" y2="830.8828"/><text fill="#000000" font-family="sans-serif" font-size="13" lengthAdjust="spacingAndGlyphs" textLength="118" x="1191" y="825.8169">toDTO(createdLift)</text><polygon fill="#A80036" points="1195,856.0156,1185,860.0156,1195,864.0156,1191,860.0156" style="stroke: #A80036; stroke-width: 1.0;"/><line style="stroke: #A80036; stroke-width: 1.0; stroke-dasharray: 2.0,2.0;" x1="1189" x2="2619.5" y1="860.0156" y2="860.0156"/><text fill="#000000" font-family="sans-serif" font-size="13" lengthAdjust="spacingAndGlyphs" textLength="81" x="1201" y="854.9497">liftDTOResult</text><polygon fill="#A80036" points="968,885.1484,958,889.1484,968,893.1484,964,889.1484" style="stroke: #A80036; stroke-width: 1.0;"/><line style="stroke: #A80036; stroke-width: 1.0; stroke-dasharray: 2.0,2.0;" x1="962" x2="1173" y1="889.1484" y2="889.1484"/><text fill="#000000" font-family="sans-serif" font-size="13" lengthAdjust="spacingAndGlyphs" textLength="81" x="974" y="884.0825">liftDTOResult</text><polygon fill="#A80036" points="719,914.2813,709,918.2813,719,922.2813,715,918.2813" style="stroke: #A80036; stroke-width: 1.0;"/><line style="stroke: #A80036; stroke-width: 1.0; stroke-dasharray: 2.0,2.0;" x1="713" x2="946" y1="918.2813" y2="918.2813"/><text fill="#000000" font-family="sans-serif" font-size="13" lengthAdjust="spacingAndGlyphs" textLength="215" x="725" y="913.2153">Return successful Result with DTO</text><line style="stroke: #000000; stroke-width: 1.0; stroke-dasharray: 2.0,2.0;" x1="641" x2="3262" y1="927.2813" y2="927.2813"/><text fill="#000000" font-family="sans-serif" font-size="11" font-weight="bold" lengthAdjust="spacingAndGlyphs" textLength="104" x="646" y="937.4917">[creation failed]</text><polygon fill="#A80036" points="968,958.2188,958,962.2188,968,966.2188,964,962.2188" style="stroke: #A80036; stroke-width: 1.0;"/><line style="stroke: #A80036; stroke-width: 1.0; stroke-dasharray: 2.0,2.0;" x1="962" x2="1173" y1="962.2188" y2="962.2188"/><text fill="#000000" font-family="sans-serif" font-size="13" lengthAdjust="spacingAndGlyphs" textLength="74" x="974" y="957.1528">Error Result</text><polygon fill="#A80036" points="719,987.3516,709,991.3516,719,995.3516,715,991.3516" style="stroke: #A80036; stroke-width: 1.0;"/><line style="stroke: #A80036; stroke-width: 1.0; stroke-dasharray: 2.0,2.0;" x1="713" x2="946" y1="991.3516" y2="991.3516"/><text fill="#000000" font-family="sans-serif" font-size="13" lengthAdjust="spacingAndGlyphs" textLength="74" x="725" y="986.2856">Error Result</text><line style="stroke: #000000; stroke-width: 1.0; stroke-dasharray: 2.0,2.0;" x1="631" x2="3272" y1="1007.3516" y2="1007.3516"/><text fill="#000000" font-family="sans-serif" font-size="11" font-weight="bold" lengthAdjust="spacingAndGlyphs" textLength="129" x="636" y="1017.562">[Building not found]</text><polygon fill="#A80036" points="968,1038.2891,958,1042.2891,968,1046.2891,964,1042.2891" style="stroke: #A80036; stroke-width: 1.0;"/><line style="stroke: #A80036; stroke-width: 1.0; stroke-dasharray: 2.0,2.0;" x1="962" x2="1173" y1="1042.2891" y2="1042.2891"/><text fill="#000000" font-family="sans-serif" font-size="13" lengthAdjust="spacingAndGlyphs" textLength="150" x="974" y="1037.2231">Building not found Error</text><polygon fill="#A80036" points="719,1067.4219,709,1071.4219,719,1075.4219,715,1071.4219" style="stroke: #A80036; stroke-width: 1.0;"/><line style="stroke: #A80036; stroke-width: 1.0; stroke-dasharray: 2.0,2.0;" x1="713" x2="946" y1="1071.4219" y2="1071.4219"/><text fill="#000000" font-family="sans-serif" font-size="13" lengthAdjust="spacingAndGlyphs" textLength="150" x="725" y="1066.356">Building not found Error</text><path d="M13,1093.4219 L77,1093.4219 L77,1100.4219 L67,1110.4219 L13,1110.4219 L13,1093.4219 " fill="#EEEEEE" style="stroke: #000000; stroke-width: 1.0;"/><rect fill="none" height="148.4688" style="stroke: #000000; stroke-width: 2.0;" width="752" x="13" y="1093.4219"/><text fill="#000000" font-family="sans-serif" font-size="13" font-weight="bold" lengthAdjust="spacingAndGlyphs" textLength="19" x="28" y="1106.4888">alt</text><text fill="#000000" font-family="sans-serif" font-size="11" font-weight="bold" lengthAdjust="spacingAndGlyphs" textLength="230" x="92" y="1105.6323">[LiftService returns a failure Result]</text><polygon fill="#A80036" points="389,1127.6875,379,1131.6875,389,1135.6875,385,1131.6875" style="stroke: #A80036; stroke-width: 1.0;"/><line style="stroke: #A80036; stroke-width: 1.0;" x1="383" x2="697" y1="1131.6875" y2="1131.6875"/><text fill="#000000" font-family="sans-serif" font-size="13" lengthAdjust="spacingAndGlyphs" textLength="197" x="395" y="1126.6216">Send response with status 402</text><polygon fill="#A80036" points="59,1156.8203,49,1160.8203,59,1164.8203,55,1160.8203" style="stroke: #A80036; stroke-width: 1.0;"/><line style="stroke: #A80036; stroke-width: 1.0;" x1="53" x2="367" y1="1160.8203" y2="1160.8203"/><text fill="#000000" font-family="sans-serif" font-size="13" lengthAdjust="spacingAndGlyphs" textLength="197" x="65" y="1155.7544">Send response with status 402</text><line style="stroke: #000000; stroke-width: 1.0; stroke-dasharray: 2.0,2.0;" x1="13" x2="765" y1="1169.8203" y2="1169.8203"/><text fill="#000000" font-family="sans-serif" font-size="11" font-weight="bold" lengthAdjust="spacingAndGlyphs" textLength="256" x="18" y="1180.0308">[LiftService returns a successful Result]</text><polygon fill="#A80036" points="389,1200.7578,379,1204.7578,389,1208.7578,385,1204.7578" style="stroke: #A80036; stroke-width: 1.0;"/><line style="stroke: #A80036; stroke-width: 1.0;" x1="383" x2="697" y1="1204.7578" y2="1204.7578"/><text fill="#000000" font-family="sans-serif" font-size="13" lengthAdjust="spacingAndGlyphs" textLength="296" x="395" y="1199.6919">Send response with status 201 and the liftDTO</text><polygon fill="#A80036" points="59,1229.8906,49,1233.8906,59,1237.8906,55,1233.8906" style="stroke: #A80036; stroke-width: 1.0;"/><line style="stroke: #A80036; stroke-width: 1.0;" x1="53" x2="367" y1="1233.8906" y2="1233.8906"/><text fill="#000000" font-family="sans-serif" font-size="13" lengthAdjust="spacingAndGlyphs" textLength="296" x="65" y="1228.8247">Send response with status 201 and the liftDTO</text><!--MD5=[a91ec8f7cb69cfeab91aa34009570e7c]
@startuml US270_LEVEL3
participant "User" as A
participant "ILiftController" as IL
participant "LiftController" as L
participant "ILiftService" as IS
participant "LiftService" as S
participant "IBuildingService" as IBS  
participant "BuildingService" as BS    
participant "IBuildingRepo" as IBR
participant "BuildingRepo" as BR
participant "ILiftRepo" as IR
participant "LiftRepo" as R
participant "LiftMap" as M
participant "Lift Entity" as E
participant "ConfigFile" as CONF
participant "ILiftPersistence" as IH
participant "LiftPersistence" as H
participant "LiftSchema" as I

A -> IL: send request to createLift(req, res, next)
activate IL

IL -> L: createLift(req, res, next)
activate L

L -> CONF: Injects Service
activate CONF

CONF -> L
deactivate CONF

L -> IS: createLift(req, res, next)
activate IS

IS -> S: createLift(req.body as ILiftDTO)
activate S

S -> IBS: findByDomainId(req.body.buildingId)
activate IBS
IBS -> BS: findByDomainId(req.body.buildingId)
activate BS
BS -> IBR: findByDomainId(req.body.buildingId)
activate IBR
IBR -> BR: findById(req.body.buildingId)
activate BR
BR - -> IBR: buildingDocument (or null)
deactivate BR
IBR - -> BS: buildingDocument (or null)
deactivate IBR
BS - -> IBS: buildingDocument (or null)
deactivate BS
IBS - -> S: buildingDocument (or null)
deactivate IBS

alt Building found
    S -> M: ToDomain(req.body as ILiftDTO)
    activate M
    M -> E: .create(ILiftDTO)
    activate E
    E - -> S: createdLift
    deactivate E
    deactivate M

    alt creation successful
        S -> IR: save(createdLift)
        activate IR
        IR -> R: save(createdLift)
        activate R
        R -> M: toPersistence(createdLift)
        activate M
        M - -> R : return rawLift
        deactivate M
        R - -> I: create(rawLift)
        activate I
        I - -> R : return liftDocument
        deactivate I
        R - -> IR: saved liftDocument
        deactivate R
        IR - -> S: saved liftDocument
        deactivate IR
        
        S -> M: toDTO(createdLift)
        activate M
        M - -> S: liftDTOResult
        deactivate M
        S - -> IS : liftDTOResult
        IS - -> L: Return successful Result with DTO
    else creation failed
        S - -> IS: Error Result
        IS - -> L: Error Result
    end
else Building not found
    S - -> IS: Building not found Error
    IS - -> L: Building not found Error
end

alt LiftService returns a failure Result
    L -> IL: Send response with status 402
    IL -> A: Send response with status 402
else LiftService returns a successful Result
    L -> IL: Send response with status 201 and the liftDTO
    IL -> A: Send response with status 201 and the liftDTO
end

deactivate S
deactivate L
@enduml

PlantUML version 1.2020.02(Sun Mar 01 10:22:07 UTC 2020)
(GPL source distribution)
Java Runtime: OpenJDK Runtime Environment
JVM: OpenJDK 64-Bit Server VM
Java Version: 11.0.21+9
Operating System: Linux
Default Encoding: UTF-8
Language: en
Country: null
--></g></svg>