<?xml version="1.0" encoding="UTF-8" standalone="no"?><svg xmlns="http://www.w3.org/2000/svg" xmlns:xlink="http://www.w3.org/1999/xlink" contentScriptType="application/ecmascript" contentStyleType="text/css" height="466px" preserveAspectRatio="none" style="width:775px;height:466px;" version="1.1" viewBox="0 0 775 466" width="775px" zoomAndPan="magnify"><defs><filter height="300%" id="f1arzay0elqi4i" width="300%" x="-1" y="-1"><feGaussianBlur result="blurOut" stdDeviation="2.0"/><feColorMatrix in="blurOut" result="blurOut2" type="matrix" values="0 0 0 0 0 0 0 0 0 0 0 0 0 0 0 0 0 0 .4 0"/><feOffset dx="4.0" dy="4.0" in="blurOut2" result="blurOut3"/><feBlend in="SourceGraphic" in2="blurOut3" mode="normal"/></filter></defs><g><rect fill="#FFFFFF" filter="url(#f1arzay0elqi4i)" height="287" style="stroke: #A80036; stroke-width: 1.0;" width="10" x="257" y="96.4297"/><rect fill="#FFFFFF" filter="url(#f1arzay0elqi4i)" height="145.6641" style="stroke: #A80036; stroke-width: 1.0;" width="10" x="387.5" y="125.5625"/><rect fill="#FFFFFF" filter="url(#f1arzay0elqi4i)" height="87.3984" style="stroke: #A80036; stroke-width: 1.0;" width="10" x="517.5" y="154.6953"/><rect fill="#FFFFFF" filter="url(#f1arzay0elqi4i)" height="29.1328" style="stroke: #A80036; stroke-width: 1.0;" width="10" x="728" y="183.8281"/><rect fill="#FFFFFF" filter="url(#f1arzay0elqi4i)" height="90.2031" style="stroke: #000000; stroke-width: 2.0;" width="320" x="13" y="286.2266"/><rect fill="#FFFFFF" height="43.9375" style="stroke: none; stroke-width: 1.0;" width="320" x="13" y="332.4922"/><line style="stroke: #A80036; stroke-width: 1.0; stroke-dasharray: 5.0,5.0;" x1="48" x2="48" y1="65.2969" y2="393.4297"/><line style="stroke: #A80036; stroke-width: 1.0; stroke-dasharray: 5.0,5.0;" x1="262" x2="262" y1="65.2969" y2="393.4297"/><line style="stroke: #A80036; stroke-width: 1.0; stroke-dasharray: 5.0,5.0;" x1="392" x2="392" y1="65.2969" y2="393.4297"/><line style="stroke: #A80036; stroke-width: 1.0; stroke-dasharray: 5.0,5.0;" x1="522" x2="522" y1="65.2969" y2="393.4297"/><line style="stroke: #A80036; stroke-width: 1.0; stroke-dasharray: 5.0,5.0;" x1="636" x2="636" y1="65.2969" y2="393.4297"/><line style="stroke: #A80036; stroke-width: 1.0; stroke-dasharray: 5.0,5.0;" x1="733" x2="733" y1="65.2969" y2="393.4297"/><rect fill="#FEFECE" filter="url(#f1arzay0elqi4i)" height="30.2969" style="stroke: #A80036; stroke-width: 1.5;" width="46" x="23" y="30"/><text fill="#000000" font-family="sans-serif" font-size="14" lengthAdjust="spacingAndGlyphs" textLength="32" x="30" y="49.9951">User</text><rect fill="#FEFECE" filter="url(#f1arzay0elqi4i)" height="30.2969" style="stroke: #A80036; stroke-width: 1.5;" width="46" x="23" y="392.4297"/><text fill="#000000" font-family="sans-serif" font-size="14" lengthAdjust="spacingAndGlyphs" textLength="32" x="30" y="412.4248">User</text><rect fill="#FEFECE" filter="url(#f1arzay0elqi4i)" height="30.2969" style="stroke: #A80036; stroke-width: 1.5;" width="118" x="201" y="30"/><text fill="#000000" font-family="sans-serif" font-size="14" lengthAdjust="spacingAndGlyphs" textLength="104" x="208" y="49.9951">IFloorController</text><rect fill="#FEFECE" filter="url(#f1arzay0elqi4i)" height="30.2969" style="stroke: #A80036; stroke-width: 1.5;" width="118" x="201" y="392.4297"/><text fill="#000000" font-family="sans-serif" font-size="14" lengthAdjust="spacingAndGlyphs" textLength="104" x="208" y="412.4248">IFloorController</text><rect fill="#FEFECE" filter="url(#f1arzay0elqi4i)" height="30.2969" style="stroke: #A80036; stroke-width: 1.5;" width="115" x="333" y="30"/><text fill="#000000" font-family="sans-serif" font-size="14" lengthAdjust="spacingAndGlyphs" textLength="101" x="340" y="49.9951">FloorController</text><rect fill="#FEFECE" filter="url(#f1arzay0elqi4i)" height="30.2969" style="stroke: #A80036; stroke-width: 1.5;" width="115" x="333" y="392.4297"/><text fill="#000000" font-family="sans-serif" font-size="14" lengthAdjust="spacingAndGlyphs" textLength="101" x="340" y="412.4248">FloorController</text><rect fill="#FEFECE" filter="url(#f1arzay0elqi4i)" height="30.2969" style="stroke: #A80036; stroke-width: 1.5;" width="101" x="470" y="30"/><text fill="#000000" font-family="sans-serif" font-size="14" lengthAdjust="spacingAndGlyphs" textLength="87" x="477" y="49.9951">IFloorService</text><rect fill="#FEFECE" filter="url(#f1arzay0elqi4i)" height="30.2969" style="stroke: #A80036; stroke-width: 1.5;" width="101" x="470" y="392.4297"/><text fill="#000000" font-family="sans-serif" font-size="14" lengthAdjust="spacingAndGlyphs" textLength="87" x="477" y="412.4248">IFloorService</text><rect fill="#FEFECE" filter="url(#f1arzay0elqi4i)" height="30.2969" style="stroke: #A80036; stroke-width: 1.5;" width="98" x="585" y="30"/><text fill="#000000" font-family="sans-serif" font-size="14" lengthAdjust="spacingAndGlyphs" textLength="84" x="592" y="49.9951">FloorService</text><rect fill="#FEFECE" filter="url(#f1arzay0elqi4i)" height="30.2969" style="stroke: #A80036; stroke-width: 1.5;" width="98" x="585" y="392.4297"/><text fill="#000000" font-family="sans-serif" font-size="14" lengthAdjust="spacingAndGlyphs" textLength="84" x="592" y="412.4248">FloorService</text><text fill="#000000" font-family="sans-serif" font-size="14" lengthAdjust="spacingAndGlyphs" textLength="66" x="697" y="61.9951">Database</text><path d="M715,13 C715,3 733,3 733,3 C733,3 751,3 751,13 L751,39 C751,49 733,49 733,49 C733,49 715,49 715,39 L715,13 " fill="#FEFECE" filter="url(#f1arzay0elqi4i)" style="stroke: #000000; stroke-width: 1.5;"/><path d="M715,13 C715,23 733,23 733,23 C733,23 751,23 751,13 " fill="none" style="stroke: #000000; stroke-width: 1.5;"/><text fill="#000000" font-family="sans-serif" font-size="14" lengthAdjust="spacingAndGlyphs" textLength="66" x="697" y="405.4248">Database</text><path d="M715,418.7266 C715,408.7266 733,408.7266 733,408.7266 C733,408.7266 751,408.7266 751,418.7266 L751,444.7266 C751,454.7266 733,454.7266 733,454.7266 C733,454.7266 715,454.7266 715,444.7266 L715,418.7266 " fill="#FEFECE" filter="url(#f1arzay0elqi4i)" style="stroke: #000000; stroke-width: 1.5;"/><path d="M715,418.7266 C715,428.7266 733,428.7266 733,428.7266 C733,428.7266 751,428.7266 751,418.7266 " fill="none" style="stroke: #000000; stroke-width: 1.5;"/><rect fill="#FFFFFF" filter="url(#f1arzay0elqi4i)" height="287" style="stroke: #A80036; stroke-width: 1.0;" width="10" x="257" y="96.4297"/><rect fill="#FFFFFF" filter="url(#f1arzay0elqi4i)" height="145.6641" style="stroke: #A80036; stroke-width: 1.0;" width="10" x="387.5" y="125.5625"/><rect fill="#FFFFFF" filter="url(#f1arzay0elqi4i)" height="87.3984" style="stroke: #A80036; stroke-width: 1.0;" width="10" x="517.5" y="154.6953"/><rect fill="#FFFFFF" filter="url(#f1arzay0elqi4i)" height="29.1328" style="stroke: #A80036; stroke-width: 1.0;" width="10" x="728" y="183.8281"/><polygon fill="#A80036" points="245,92.4297,255,96.4297,245,100.4297,249,96.4297" style="stroke: #A80036; stroke-width: 1.0;"/><line style="stroke: #A80036; stroke-width: 1.0;" x1="48" x2="251" y1="96.4297" y2="96.4297"/><text fill="#000000" font-family="sans-serif" font-size="13" lengthAdjust="spacingAndGlyphs" textLength="161" x="55" y="91.3638">Request to create a Floor</text><polygon fill="#A80036" points="375.5,121.5625,385.5,125.5625,375.5,129.5625,379.5,125.5625" style="stroke: #A80036; stroke-width: 1.0;"/><line style="stroke: #A80036; stroke-width: 1.0;" x1="267" x2="381.5" y1="125.5625" y2="125.5625"/><text fill="#000000" font-family="sans-serif" font-size="13" lengthAdjust="spacingAndGlyphs" textLength="90" x="274" y="120.4966">Create a Floor</text><polygon fill="#A80036" points="505.5,150.6953,515.5,154.6953,505.5,158.6953,509.5,154.6953" style="stroke: #A80036; stroke-width: 1.0;"/><line style="stroke: #A80036; stroke-width: 1.0;" x1="397.5" x2="511.5" y1="154.6953" y2="154.6953"/><text fill="#000000" font-family="sans-serif" font-size="13" lengthAdjust="spacingAndGlyphs" textLength="101" x="404.5" y="149.6294">Handle Request</text><polygon fill="#A80036" points="716,179.8281,726,183.8281,716,187.8281,720,183.8281" style="stroke: #A80036; stroke-width: 1.0;"/><line style="stroke: #A80036; stroke-width: 1.0;" x1="527.5" x2="722" y1="183.8281" y2="183.8281"/><text fill="#000000" font-family="sans-serif" font-size="13" lengthAdjust="spacingAndGlyphs" textLength="113" x="534.5" y="178.7622">Create Floor Data</text><polygon fill="#A80036" points="538.5,208.9609,528.5,212.9609,538.5,216.9609,534.5,212.9609" style="stroke: #A80036; stroke-width: 1.0;"/><line style="stroke: #A80036; stroke-width: 1.0; stroke-dasharray: 2.0,2.0;" x1="532.5" x2="732" y1="212.9609" y2="212.9609"/><text fill="#000000" font-family="sans-serif" font-size="13" lengthAdjust="spacingAndGlyphs" textLength="39" x="544.5" y="207.895">Result</text><polygon fill="#A80036" points="408.5,238.0938,398.5,242.0938,408.5,246.0938,404.5,242.0938" style="stroke: #A80036; stroke-width: 1.0;"/><line style="stroke: #A80036; stroke-width: 1.0; stroke-dasharray: 2.0,2.0;" x1="402.5" x2="521.5" y1="242.0938" y2="242.0938"/><text fill="#000000" font-family="sans-serif" font-size="13" lengthAdjust="spacingAndGlyphs" textLength="39" x="414.5" y="237.0278">Result</text><polygon fill="#A80036" points="278,267.2266,268,271.2266,278,275.2266,274,271.2266" style="stroke: #A80036; stroke-width: 1.0;"/><line style="stroke: #A80036; stroke-width: 1.0; stroke-dasharray: 2.0,2.0;" x1="272" x2="391.5" y1="271.2266" y2="271.2266"/><text fill="#000000" font-family="sans-serif" font-size="13" lengthAdjust="spacingAndGlyphs" textLength="39" x="284" y="266.1606">Result</text><path d="M13,286.2266 L77,286.2266 L77,293.2266 L67,303.2266 L13,303.2266 L13,286.2266 " fill="#EEEEEE" style="stroke: #000000; stroke-width: 1.0;"/><rect fill="none" height="90.2031" style="stroke: #000000; stroke-width: 2.0;" width="320" x="13" y="286.2266"/><text fill="#000000" font-family="sans-serif" font-size="13" font-weight="bold" lengthAdjust="spacingAndGlyphs" textLength="19" x="28" y="299.2935">alt</text><text fill="#000000" font-family="sans-serif" font-size="11" font-weight="bold" lengthAdjust="spacingAndGlyphs" textLength="123" x="92" y="298.437">[Successful Result]</text><polygon fill="#A80036" points="59,320.4922,49,324.4922,59,328.4922,55,324.4922" style="stroke: #A80036; stroke-width: 1.0;"/><line style="stroke: #A80036; stroke-width: 1.0;" x1="53" x2="256" y1="324.4922" y2="324.4922"/><text fill="#000000" font-family="sans-serif" font-size="13" lengthAdjust="spacingAndGlyphs" textLength="159" x="65" y="319.4263">HTTP 201 with Floor Data</text><line style="stroke: #000000; stroke-width: 1.0; stroke-dasharray: 2.0,2.0;" x1="13" x2="333" y1="333.4922" y2="333.4922"/><text fill="#000000" font-family="sans-serif" font-size="11" font-weight="bold" lengthAdjust="spacingAndGlyphs" textLength="94" x="18" y="343.7026">[Failed Result]</text><polygon fill="#A80036" points="59,364.4297,49,368.4297,59,372.4297,55,368.4297" style="stroke: #A80036; stroke-width: 1.0;"/><line style="stroke: #A80036; stroke-width: 1.0;" x1="53" x2="256" y1="368.4297" y2="368.4297"/><text fill="#000000" font-family="sans-serif" font-size="13" lengthAdjust="spacingAndGlyphs" textLength="185" x="65" y="363.3638">HTTP 400 with Error Message</text><!--MD5=[2fb3e20407ac15afe2d33c6a53910711]
@startuml sd

participant "User" as A
participant "IFloorController" as IB
participant "FloorController" as B
participant "IFloorService" as IC
participant "FloorService" as C
database "Database" as D


A -> IB: Request to create a Floor
activate IB
IB -> B: Create a Floor
activate B
B -> IC: Handle Request
activate IC
IC -> D: Create Floor Data
activate D
D - -> IC: Result
deactivate D
IC - -> B: Result
deactivate IC
B - -> IB: Result
deactivate B

alt Successful Result
    IB -> A: HTTP 201 with Floor Data
else Failed Result
    IB -> A: HTTP 400 with Error Message
end

deactivate IB
deactivate A

@enduml

PlantUML version 1.2020.02(Sun Mar 01 10:22:07 UTC 2020)
(GPL source distribution)
Java Runtime: OpenJDK Runtime Environment
JVM: OpenJDK 64-Bit Server VM
Java Version: 11.0.21+9
Operating System: Linux
Default Encoding: UTF-8
Language: en
Country: null
--></g></svg>