<?xml version="1.0" encoding="UTF-8" standalone="no"?><svg xmlns="http://www.w3.org/2000/svg" xmlns:xlink="http://www.w3.org/1999/xlink" contentScriptType="application/ecmascript" contentStyleType="text/css" height="426px" preserveAspectRatio="none" style="width:711px;height:426px;" version="1.1" viewBox="0 0 711 426" width="711px" zoomAndPan="magnify"><defs><filter height="300%" id="f1ehctiu406dp9" width="300%" x="-1" y="-1"><feGaussianBlur result="blurOut" stdDeviation="2.0"/><feColorMatrix in="blurOut" result="blurOut2" type="matrix" values="0 0 0 0 0 0 0 0 0 0 0 0 0 0 0 0 0 0 .4 0"/><feOffset dx="4.0" dy="4.0" in="blurOut2" result="blurOut3"/><feBlend in="SourceGraphic" in2="blurOut3" mode="normal"/></filter></defs><g><rect fill="#FFFFFF" filter="url(#f1ehctiu406dp9)" height="203.9297" style="stroke: #A80036; stroke-width: 1.0;" width="10" x="196" y="117.4297"/><rect fill="#FFFFFF" filter="url(#f1ehctiu406dp9)" height="145.6641" style="stroke: #A80036; stroke-width: 1.0;" width="10" x="392" y="146.5625"/><rect fill="#FFFFFF" filter="url(#f1ehctiu406dp9)" height="87.3984" style="stroke: #A80036; stroke-width: 1.0;" width="10" x="522" y="175.6953"/><line style="stroke: #A80036; stroke-width: 1.0; stroke-dasharray: 5.0,5.0;" x1="27" x2="27" y1="86.2969" y2="339.3594"/><line style="stroke: #A80036; stroke-width: 1.0; stroke-dasharray: 5.0,5.0;" x1="201" x2="201" y1="86.2969" y2="339.3594"/><line style="stroke: #A80036; stroke-width: 1.0; stroke-dasharray: 5.0,5.0;" x1="397" x2="397" y1="86.2969" y2="339.3594"/><line style="stroke: #A80036; stroke-width: 1.0; stroke-dasharray: 5.0,5.0;" x1="526.5" x2="526.5" y1="86.2969" y2="339.3594"/><line style="stroke: #A80036; stroke-width: 1.0; stroke-dasharray: 5.0,5.0;" x1="669" x2="669" y1="86.2969" y2="339.3594"/><text fill="#000000" font-family="sans-serif" font-size="14" lengthAdjust="spacingAndGlyphs" textLength="32" x="8" y="82.9951">User</text><ellipse cx="27" cy="13" fill="#FEFECE" filter="url(#f1ehctiu406dp9)" rx="8" ry="8" style="stroke: #A80036; stroke-width: 2.0;"/><path d="M27,21 L27,48 M14,29 L40,29 M27,48 L14,63 M27,48 L40,63 " fill="none" filter="url(#f1ehctiu406dp9)" style="stroke: #A80036; stroke-width: 2.0;"/><text fill="#000000" font-family="sans-serif" font-size="14" lengthAdjust="spacingAndGlyphs" textLength="32" x="8" y="351.3545">User</text><ellipse cx="27" cy="364.6563" fill="#FEFECE" filter="url(#f1ehctiu406dp9)" rx="8" ry="8" style="stroke: #A80036; stroke-width: 2.0;"/><path d="M27,372.6563 L27,399.6563 M14,380.6563 L40,380.6563 M27,399.6563 L14,414.6563 M27,399.6563 L40,414.6563 " fill="none" filter="url(#f1ehctiu406dp9)" style="stroke: #A80036; stroke-width: 2.0;"/><rect fill="#FEFECE" filter="url(#f1ehctiu406dp9)" height="30.2969" style="stroke: #A80036; stroke-width: 1.5;" width="82" x="158" y="51"/><text fill="#000000" font-family="sans-serif" font-size="14" lengthAdjust="spacingAndGlyphs" textLength="68" x="165" y="70.9951">:FrontEnd</text><rect fill="#FEFECE" filter="url(#f1ehctiu406dp9)" height="30.2969" style="stroke: #A80036; stroke-width: 1.5;" width="82" x="158" y="338.3594"/><text fill="#000000" font-family="sans-serif" font-size="14" lengthAdjust="spacingAndGlyphs" textLength="68" x="165" y="358.3545">:FrontEnd</text><rect fill="#FEFECE" filter="url(#f1ehctiu406dp9)" height="30.2969" style="stroke: #A80036; stroke-width: 1.5;" width="120" x="335" y="51"/><text fill="#000000" font-family="sans-serif" font-size="14" lengthAdjust="spacingAndGlyphs" textLength="106" x="342" y="70.9951">:FloorController</text><rect fill="#FEFECE" filter="url(#f1ehctiu406dp9)" height="30.2969" style="stroke: #A80036; stroke-width: 1.5;" width="120" x="335" y="338.3594"/><text fill="#000000" font-family="sans-serif" font-size="14" lengthAdjust="spacingAndGlyphs" textLength="106" x="342" y="358.3545">:FloorController</text><rect fill="#FEFECE" filter="url(#f1ehctiu406dp9)" height="30.2969" style="stroke: #A80036; stroke-width: 1.5;" width="103" x="473.5" y="51"/><text fill="#000000" font-family="sans-serif" font-size="14" lengthAdjust="spacingAndGlyphs" textLength="89" x="480.5" y="70.9951">:FloorService</text><rect fill="#FEFECE" filter="url(#f1ehctiu406dp9)" height="30.2969" style="stroke: #A80036; stroke-width: 1.5;" width="103" x="473.5" y="338.3594"/><text fill="#000000" font-family="sans-serif" font-size="14" lengthAdjust="spacingAndGlyphs" textLength="89" x="480.5" y="358.3545">:FloorService</text><text fill="#000000" font-family="sans-serif" font-size="14" lengthAdjust="spacingAndGlyphs" textLength="66" x="633" y="82.9951">Database</text><path d="M651,34 C651,24 669,24 669,24 C669,24 687,24 687,34 L687,60 C687,70 669,70 669,70 C669,70 651,70 651,60 L651,34 " fill="#FEFECE" filter="url(#f1ehctiu406dp9)" style="stroke: #000000; stroke-width: 1.5;"/><path d="M651,34 C651,44 669,44 669,44 C669,44 687,44 687,34 " fill="none" style="stroke: #000000; stroke-width: 1.5;"/><text fill="#000000" font-family="sans-serif" font-size="14" lengthAdjust="spacingAndGlyphs" textLength="66" x="633" y="351.3545">Database</text><path d="M651,364.6563 C651,354.6563 669,354.6563 669,354.6563 C669,354.6563 687,354.6563 687,364.6563 L687,390.6563 C687,400.6563 669,400.6563 669,400.6563 C669,400.6563 651,400.6563 651,390.6563 L651,364.6563 " fill="#FEFECE" filter="url(#f1ehctiu406dp9)" style="stroke: #000000; stroke-width: 1.5;"/><path d="M651,364.6563 C651,374.6563 669,374.6563 669,374.6563 C669,374.6563 687,374.6563 687,364.6563 " fill="none" style="stroke: #000000; stroke-width: 1.5;"/><rect fill="#FFFFFF" filter="url(#f1ehctiu406dp9)" height="203.9297" style="stroke: #A80036; stroke-width: 1.0;" width="10" x="196" y="117.4297"/><rect fill="#FFFFFF" filter="url(#f1ehctiu406dp9)" height="145.6641" style="stroke: #A80036; stroke-width: 1.0;" width="10" x="392" y="146.5625"/><rect fill="#FFFFFF" filter="url(#f1ehctiu406dp9)" height="87.3984" style="stroke: #A80036; stroke-width: 1.0;" width="10" x="522" y="175.6953"/><polygon fill="#A80036" points="184,113.4297,194,117.4297,184,121.4297,188,117.4297" style="stroke: #A80036; stroke-width: 1.0;"/><line style="stroke: #A80036; stroke-width: 1.0;" x1="27" x2="190" y1="117.4297" y2="117.4297"/><text fill="#000000" font-family="sans-serif" font-size="13" lengthAdjust="spacingAndGlyphs" textLength="150" x="34" y="112.3638">HTTP POST /createFloor</text><polygon fill="#A80036" points="380,142.5625,390,146.5625,380,150.5625,384,146.5625" style="stroke: #A80036; stroke-width: 1.0;"/><line style="stroke: #A80036; stroke-width: 1.0;" x1="206" x2="386" y1="146.5625" y2="146.5625"/><text fill="#000000" font-family="sans-serif" font-size="13" lengthAdjust="spacingAndGlyphs" textLength="137" x="213" y="141.4966">Handle HTTP Request</text><polygon fill="#A80036" points="510,171.6953,520,175.6953,510,179.6953,514,175.6953" style="stroke: #A80036; stroke-width: 1.0;"/><line style="stroke: #A80036; stroke-width: 1.0;" x1="402" x2="516" y1="175.6953" y2="175.6953"/><text fill="#000000" font-family="sans-serif" font-size="13" lengthAdjust="spacingAndGlyphs" textLength="101" x="409" y="170.6294">Handle Request</text><polygon fill="#A80036" points="657,200.8281,667,204.8281,657,208.8281,661,204.8281" style="stroke: #A80036; stroke-width: 1.0;"/><line style="stroke: #A80036; stroke-width: 1.0;" x1="532" x2="663" y1="204.8281" y2="204.8281"/><text fill="#000000" font-family="sans-serif" font-size="13" lengthAdjust="spacingAndGlyphs" textLength="113" x="539" y="199.7622">Create Floor Data</text><polygon fill="#A80036" points="543,229.9609,533,233.9609,543,237.9609,539,233.9609" style="stroke: #A80036; stroke-width: 1.0;"/><line style="stroke: #A80036; stroke-width: 1.0; stroke-dasharray: 2.0,2.0;" x1="537" x2="668" y1="233.9609" y2="233.9609"/><text fill="#000000" font-family="sans-serif" font-size="13" lengthAdjust="spacingAndGlyphs" textLength="39" x="549" y="228.895">Result</text><polygon fill="#A80036" points="413,259.0938,403,263.0938,413,267.0938,409,263.0938" style="stroke: #A80036; stroke-width: 1.0;"/><line style="stroke: #A80036; stroke-width: 1.0; stroke-dasharray: 2.0,2.0;" x1="407" x2="526" y1="263.0938" y2="263.0938"/><text fill="#000000" font-family="sans-serif" font-size="13" lengthAdjust="spacingAndGlyphs" textLength="39" x="419" y="258.0278">Result</text><polygon fill="#A80036" points="217,288.2266,207,292.2266,217,296.2266,213,292.2266" style="stroke: #A80036; stroke-width: 1.0;"/><line style="stroke: #A80036; stroke-width: 1.0; stroke-dasharray: 2.0,2.0;" x1="211" x2="396" y1="292.2266" y2="292.2266"/><text fill="#000000" font-family="sans-serif" font-size="13" lengthAdjust="spacingAndGlyphs" textLength="162" x="223" y="287.1606">Generate HTTP Response</text><polygon fill="#A80036" points="38,317.3594,28,321.3594,38,325.3594,34,321.3594" style="stroke: #A80036; stroke-width: 1.0;"/><line style="stroke: #A80036; stroke-width: 1.0; stroke-dasharray: 2.0,2.0;" x1="32" x2="200" y1="321.3594" y2="321.3594"/><text fill="#000000" font-family="sans-serif" font-size="13" lengthAdjust="spacingAndGlyphs" textLength="98" x="44" y="316.2935">HTTP Response</text><!--MD5=[6ae8f2c5e1c835f9b4965ec903de29b9]
@startuml
actor "User" as user
participant ":FrontEnd" as frontend
participant ":FloorController" as controller
participant ":FloorService" as service
database "Database" as db

user -> frontend: HTTP POST /createFloor
activate frontend
frontend -> controller: Handle HTTP Request
activate controller
controller -> service: Handle Request
activate service
service -> db: Create Floor Data
db - -> service: Result
service - -> controller: Result
deactivate service
controller - -> frontend: Generate HTTP Response
deactivate controller
frontend - -> user: HTTP Response
deactivate frontend
@enduml

PlantUML version 1.2020.02(Sun Mar 01 10:22:07 UTC 2020)
(GPL source distribution)
Java Runtime: OpenJDK Runtime Environment
JVM: OpenJDK 64-Bit Server VM
Java Version: 11.0.21+9
Operating System: Linux
Default Encoding: UTF-8
Language: en
Country: null
--></g></svg>