<?xml version="1.0" encoding="UTF-8" standalone="no"?><svg xmlns="http://www.w3.org/2000/svg" xmlns:xlink="http://www.w3.org/1999/xlink" contentScriptType="application/ecmascript" contentStyleType="text/css" height="1158px" preserveAspectRatio="none" style="width:1793px;height:1158px;" version="1.1" viewBox="0 0 1793 1158" width="1793px" zoomAndPan="magnify"><defs><filter height="300%" id="f1u1tdo8cuswtb" width="300%" x="-1" y="-1"><feGaussianBlur result="blurOut" stdDeviation="2.0"/><feColorMatrix in="blurOut" result="blurOut2" type="matrix" values="0 0 0 0 0 0 0 0 0 0 0 0 0 0 0 0 0 0 .4 0"/><feOffset dx="4.0" dy="4.0" in="blurOut2" result="blurOut3"/><feBlend in="SourceGraphic" in2="blurOut3" mode="normal"/></filter></defs><g><rect fill="#FFFFFF" filter="url(#f1u1tdo8cuswtb)" height="965.3828" style="stroke: #A80036; stroke-width: 1.0;" width="10" x="42.5" y="96.2969"/><rect fill="#FFFFFF" filter="url(#f1u1tdo8cuswtb)" height="944.25" style="stroke: #A80036; stroke-width: 1.0;" width="10" x="250.5" y="117.4297"/><rect fill="#FFFFFF" filter="url(#f1u1tdo8cuswtb)" height="885.9844" style="stroke: #A80036; stroke-width: 1.0;" width="10" x="398.5" y="175.6953"/><rect fill="#FFFFFF" filter="url(#f1u1tdo8cuswtb)" height="145.6641" style="stroke: #A80036; stroke-width: 1.0;" width="10" x="689.5" y="204.8281"/><rect fill="#FFFFFF" filter="url(#f1u1tdo8cuswtb)" height="682.0547" style="stroke: #A80036; stroke-width: 1.0;" width="10" x="689.5" y="379.625"/><rect fill="#FFFFFF" filter="url(#f1u1tdo8cuswtb)" height="116.5313" style="stroke: #A80036; stroke-width: 1.0;" width="10" x="868.5" y="233.9609"/><rect fill="#FFFFFF" filter="url(#f1u1tdo8cuswtb)" height="652.9219" style="stroke: #A80036; stroke-width: 1.0;" width="10" x="868.5" y="408.7578"/><rect fill="#FFFFFF" filter="url(#f1u1tdo8cuswtb)" height="87.3984" style="stroke: #A80036; stroke-width: 1.0;" width="10" x="1054.5" y="263.0938"/><rect fill="#FFFFFF" filter="url(#f1u1tdo8cuswtb)" height="623.7891" style="stroke: #A80036; stroke-width: 1.0;" width="10" x="1054.5" y="437.8906"/><rect fill="#FFFFFF" filter="url(#f1u1tdo8cuswtb)" height="58.2656" style="stroke: #A80036; stroke-width: 1.0;" width="10" x="1275.5" y="292.2266"/><rect fill="#FFFFFF" filter="url(#f1u1tdo8cuswtb)" height="595.6563" style="stroke: #A80036; stroke-width: 1.0;" width="10" x="1275.5" y="467.0234"/><rect fill="#FFFFFF" filter="url(#f1u1tdo8cuswtb)" height="29.1328" style="stroke: #A80036; stroke-width: 1.0;" width="10" x="1434.5" y="321.3594"/><rect fill="#FFFFFF" filter="url(#f1u1tdo8cuswtb)" height="565.5234" style="stroke: #A80036; stroke-width: 1.0;" width="10" x="1434.5" y="496.1563"/><rect fill="#FFFFFF" filter="url(#f1u1tdo8cuswtb)" height="58.2656" style="stroke: #A80036; stroke-width: 1.0;" width="10" x="1615.5" y="554.4219"/><rect fill="#FFFFFF" filter="url(#f1u1tdo8cuswtb)" height="29.1328" style="stroke: #A80036; stroke-width: 1.0;" width="10" x="1725" y="583.5547"/><rect fill="#FFFFFF" filter="url(#f1u1tdo8cuswtb)" height="426.9922" style="stroke: #000000; stroke-width: 2.0;" width="1483.5" x="13" y="627.6875"/><rect fill="#FFFFFF" height="205.9297" style="stroke: none; stroke-width: 1.0;" width="1483.5" x="13" y="848.75"/><line style="stroke: #A80036; stroke-width: 1.0; stroke-dasharray: 5.0,5.0;" x1="47" x2="47" y1="86.2969" y2="1071.6797"/><line style="stroke: #A80036; stroke-width: 1.0; stroke-dasharray: 5.0,5.0;" x1="255" x2="255" y1="86.2969" y2="1071.6797"/><line style="stroke: #A80036; stroke-width: 1.0; stroke-dasharray: 5.0,5.0;" x1="403" x2="403" y1="86.2969" y2="1071.6797"/><line style="stroke: #A80036; stroke-width: 1.0; stroke-dasharray: 5.0,5.0;" x1="694" x2="694" y1="86.2969" y2="1071.6797"/><line style="stroke: #A80036; stroke-width: 1.0; stroke-dasharray: 5.0,5.0;" x1="873" x2="873" y1="86.2969" y2="1071.6797"/><line style="stroke: #A80036; stroke-width: 1.0; stroke-dasharray: 5.0,5.0;" x1="1059.5" x2="1059.5" y1="86.2969" y2="1071.6797"/><line style="stroke: #A80036; stroke-width: 1.0; stroke-dasharray: 5.0,5.0;" x1="1280" x2="1280" y1="86.2969" y2="1071.6797"/><line style="stroke: #A80036; stroke-width: 1.0; stroke-dasharray: 5.0,5.0;" x1="1439.5" x2="1439.5" y1="86.2969" y2="1071.6797"/><line style="stroke: #A80036; stroke-width: 1.0; stroke-dasharray: 5.0,5.0;" x1="1620.5" x2="1620.5" y1="86.2969" y2="1071.6797"/><line style="stroke: #A80036; stroke-width: 1.0; stroke-dasharray: 5.0,5.0;" x1="1729.5" x2="1729.5" y1="86.2969" y2="1071.6797"/><text fill="#000000" font-family="sans-serif" font-size="14" lengthAdjust="spacingAndGlyphs" textLength="43" x="23" y="82.9951">Admin</text><ellipse cx="47.5" cy="13" fill="#FEFECE" filter="url(#f1u1tdo8cuswtb)" rx="8" ry="8" style="stroke: #A80036; stroke-width: 2.0;"/><path d="M47.5,21 L47.5,48 M34.5,29 L60.5,29 M47.5,48 L34.5,63 M47.5,48 L60.5,63 " fill="none" filter="url(#f1u1tdo8cuswtb)" style="stroke: #A80036; stroke-width: 2.0;"/><text fill="#000000" font-family="sans-serif" font-size="14" lengthAdjust="spacingAndGlyphs" textLength="43" x="23" y="1083.6748">Admin</text><ellipse cx="47.5" cy="1096.9766" fill="#FEFECE" filter="url(#f1u1tdo8cuswtb)" rx="8" ry="8" style="stroke: #A80036; stroke-width: 2.0;"/><path d="M47.5,1104.9766 L47.5,1131.9766 M34.5,1112.9766 L60.5,1112.9766 M47.5,1131.9766 L34.5,1146.9766 M47.5,1131.9766 L60.5,1146.9766 " fill="none" filter="url(#f1u1tdo8cuswtb)" style="stroke: #A80036; stroke-width: 2.0;"/><rect fill="#FEFECE" filter="url(#f1u1tdo8cuswtb)" height="30.2969" style="stroke: #A80036; stroke-width: 1.5;" width="51" x="228" y="51"/><text fill="#000000" font-family="sans-serif" font-size="14" lengthAdjust="spacingAndGlyphs" textLength="37" x="235" y="70.9951">:View</text><rect fill="#FEFECE" filter="url(#f1u1tdo8cuswtb)" height="30.2969" style="stroke: #A80036; stroke-width: 1.5;" width="51" x="228" y="1070.6797"/><text fill="#000000" font-family="sans-serif" font-size="14" lengthAdjust="spacingAndGlyphs" textLength="37" x="235" y="1090.6748">:View</text><rect fill="#FEFECE" filter="url(#f1u1tdo8cuswtb)" height="30.2969" style="stroke: #A80036; stroke-width: 1.5;" width="125" x="339" y="51"/><text fill="#000000" font-family="sans-serif" font-size="14" lengthAdjust="spacingAndGlyphs" textLength="111" x="346" y="70.9951">:FE_Component</text><rect fill="#FEFECE" filter="url(#f1u1tdo8cuswtb)" height="30.2969" style="stroke: #A80036; stroke-width: 1.5;" width="125" x="339" y="1070.6797"/><text fill="#000000" font-family="sans-serif" font-size="14" lengthAdjust="spacingAndGlyphs" textLength="111" x="346" y="1090.6748">:FE_Component</text><rect fill="#FEFECE" filter="url(#f1u1tdo8cuswtb)" height="30.2969" style="stroke: #A80036; stroke-width: 1.5;" width="127" x="629" y="51"/><text fill="#000000" font-family="sans-serif" font-size="14" lengthAdjust="spacingAndGlyphs" textLength="113" x="636" y="70.9951">:FE_FloorService</text><rect fill="#FEFECE" filter="url(#f1u1tdo8cuswtb)" height="30.2969" style="stroke: #A80036; stroke-width: 1.5;" width="127" x="629" y="1070.6797"/><text fill="#000000" font-family="sans-serif" font-size="14" lengthAdjust="spacingAndGlyphs" textLength="113" x="636" y="1090.6748">:FE_FloorService</text><rect fill="#FEFECE" filter="url(#f1u1tdo8cuswtb)" height="30.2969" style="stroke: #A80036; stroke-width: 1.5;" width="73" x="835" y="51"/><text fill="#000000" font-family="sans-serif" font-size="14" lengthAdjust="spacingAndGlyphs" textLength="59" x="842" y="70.9951">:Routing</text><rect fill="#FEFECE" filter="url(#f1u1tdo8cuswtb)" height="30.2969" style="stroke: #A80036; stroke-width: 1.5;" width="73" x="835" y="1070.6797"/><text fill="#000000" font-family="sans-serif" font-size="14" lengthAdjust="spacingAndGlyphs" textLength="59" x="842" y="1090.6748">:Routing</text><rect fill="#FEFECE" filter="url(#f1u1tdo8cuswtb)" height="30.2969" style="stroke: #A80036; stroke-width: 1.5;" width="120" x="997.5" y="51"/><text fill="#000000" font-family="sans-serif" font-size="14" lengthAdjust="spacingAndGlyphs" textLength="106" x="1004.5" y="70.9951">:FloorController</text><rect fill="#FEFECE" filter="url(#f1u1tdo8cuswtb)" height="30.2969" style="stroke: #A80036; stroke-width: 1.5;" width="120" x="997.5" y="1070.6797"/><text fill="#000000" font-family="sans-serif" font-size="14" lengthAdjust="spacingAndGlyphs" textLength="106" x="1004.5" y="1090.6748">:FloorController</text><rect fill="#FEFECE" filter="url(#f1u1tdo8cuswtb)" height="30.2969" style="stroke: #A80036; stroke-width: 1.5;" width="103" x="1227" y="51"/><text fill="#000000" font-family="sans-serif" font-size="14" lengthAdjust="spacingAndGlyphs" textLength="89" x="1234" y="70.9951">:FloorService</text><rect fill="#FEFECE" filter="url(#f1u1tdo8cuswtb)" height="30.2969" style="stroke: #A80036; stroke-width: 1.5;" width="103" x="1227" y="1070.6797"/><text fill="#000000" font-family="sans-serif" font-size="14" lengthAdjust="spacingAndGlyphs" textLength="89" x="1234" y="1090.6748">:FloorService</text><rect fill="#FEFECE" filter="url(#f1u1tdo8cuswtb)" height="30.2969" style="stroke: #A80036; stroke-width: 1.5;" width="90" x="1392.5" y="51"/><text fill="#000000" font-family="sans-serif" font-size="14" lengthAdjust="spacingAndGlyphs" textLength="76" x="1399.5" y="70.9951">:FloorRepo</text><rect fill="#FEFECE" filter="url(#f1u1tdo8cuswtb)" height="30.2969" style="stroke: #A80036; stroke-width: 1.5;" width="90" x="1392.5" y="1070.6797"/><text fill="#000000" font-family="sans-serif" font-size="14" lengthAdjust="spacingAndGlyphs" textLength="76" x="1399.5" y="1090.6748">:FloorRepo</text><rect fill="#FEFECE" filter="url(#f1u1tdo8cuswtb)" height="30.2969" style="stroke: #A80036; stroke-width: 1.5;" width="82" x="1577.5" y="51"/><text fill="#000000" font-family="sans-serif" font-size="14" lengthAdjust="spacingAndGlyphs" textLength="68" x="1584.5" y="70.9951">:FloorMap</text><rect fill="#FEFECE" filter="url(#f1u1tdo8cuswtb)" height="30.2969" style="stroke: #A80036; stroke-width: 1.5;" width="82" x="1577.5" y="1070.6797"/><text fill="#000000" font-family="sans-serif" font-size="14" lengthAdjust="spacingAndGlyphs" textLength="68" x="1584.5" y="1090.6748">:FloorMap</text><rect fill="#FEFECE" filter="url(#f1u1tdo8cuswtb)" height="30.2969" style="stroke: #A80036; stroke-width: 1.5;" width="109" x="1673.5" y="51"/><text fill="#000000" font-family="sans-serif" font-size="14" lengthAdjust="spacingAndGlyphs" textLength="95" x="1680.5" y="70.9951">:FloorSchema</text><rect fill="#FEFECE" filter="url(#f1u1tdo8cuswtb)" height="30.2969" style="stroke: #A80036; stroke-width: 1.5;" width="109" x="1673.5" y="1070.6797"/><text fill="#000000" font-family="sans-serif" font-size="14" lengthAdjust="spacingAndGlyphs" textLength="95" x="1680.5" y="1090.6748">:FloorSchema</text><rect fill="#FFFFFF" filter="url(#f1u1tdo8cuswtb)" height="965.3828" style="stroke: #A80036; stroke-width: 1.0;" width="10" x="42.5" y="96.2969"/><rect fill="#FFFFFF" filter="url(#f1u1tdo8cuswtb)" height="944.25" style="stroke: #A80036; stroke-width: 1.0;" width="10" x="250.5" y="117.4297"/><rect fill="#FFFFFF" filter="url(#f1u1tdo8cuswtb)" height="885.9844" style="stroke: #A80036; stroke-width: 1.0;" width="10" x="398.5" y="175.6953"/><rect fill="#FFFFFF" filter="url(#f1u1tdo8cuswtb)" height="145.6641" style="stroke: #A80036; stroke-width: 1.0;" width="10" x="689.5" y="204.8281"/><rect fill="#FFFFFF" filter="url(#f1u1tdo8cuswtb)" height="682.0547" style="stroke: #A80036; stroke-width: 1.0;" width="10" x="689.5" y="379.625"/><rect fill="#FFFFFF" filter="url(#f1u1tdo8cuswtb)" height="116.5313" style="stroke: #A80036; stroke-width: 1.0;" width="10" x="868.5" y="233.9609"/><rect fill="#FFFFFF" filter="url(#f1u1tdo8cuswtb)" height="652.9219" style="stroke: #A80036; stroke-width: 1.0;" width="10" x="868.5" y="408.7578"/><rect fill="#FFFFFF" filter="url(#f1u1tdo8cuswtb)" height="87.3984" style="stroke: #A80036; stroke-width: 1.0;" width="10" x="1054.5" y="263.0938"/><rect fill="#FFFFFF" filter="url(#f1u1tdo8cuswtb)" height="623.7891" style="stroke: #A80036; stroke-width: 1.0;" width="10" x="1054.5" y="437.8906"/><rect fill="#FFFFFF" filter="url(#f1u1tdo8cuswtb)" height="58.2656" style="stroke: #A80036; stroke-width: 1.0;" width="10" x="1275.5" y="292.2266"/><rect fill="#FFFFFF" filter="url(#f1u1tdo8cuswtb)" height="595.6563" style="stroke: #A80036; stroke-width: 1.0;" width="10" x="1275.5" y="467.0234"/><rect fill="#FFFFFF" filter="url(#f1u1tdo8cuswtb)" height="29.1328" style="stroke: #A80036; stroke-width: 1.0;" width="10" x="1434.5" y="321.3594"/><rect fill="#FFFFFF" filter="url(#f1u1tdo8cuswtb)" height="565.5234" style="stroke: #A80036; stroke-width: 1.0;" width="10" x="1434.5" y="496.1563"/><rect fill="#FFFFFF" filter="url(#f1u1tdo8cuswtb)" height="58.2656" style="stroke: #A80036; stroke-width: 1.0;" width="10" x="1615.5" y="554.4219"/><rect fill="#FFFFFF" filter="url(#f1u1tdo8cuswtb)" height="29.1328" style="stroke: #A80036; stroke-width: 1.0;" width="10" x="1725" y="583.5547"/><polygon fill="#A80036" points="238.5,113.4297,248.5,117.4297,238.5,121.4297,242.5,117.4297" style="stroke: #A80036; stroke-width: 1.0;"/><line style="stroke: #A80036; stroke-width: 1.0;" x1="52.5" x2="244.5" y1="117.4297" y2="117.4297"/><text fill="#000000" font-family="sans-serif" font-size="13" font-weight="bold" lengthAdjust="spacingAndGlyphs" textLength="9" x="59.5" y="112.3638">1</text><text fill="#000000" font-family="sans-serif" font-size="13" lengthAdjust="spacingAndGlyphs" textLength="110" x="72.5" y="112.3638">update floor map</text><polygon fill="#A80036" points="63.5,142.5625,53.5,146.5625,63.5,150.5625,59.5,146.5625" style="stroke: #A80036; stroke-width: 1.0;"/><line style="stroke: #A80036; stroke-width: 1.0; stroke-dasharray: 2.0,2.0;" x1="57.5" x2="249.5" y1="146.5625" y2="146.5625"/><text fill="#000000" font-family="sans-serif" font-size="13" font-weight="bold" lengthAdjust="spacingAndGlyphs" textLength="9" x="69.5" y="141.4966">2</text><text fill="#000000" font-family="sans-serif" font-size="13" lengthAdjust="spacingAndGlyphs" textLength="161" x="82.5" y="141.4966">request necessary data()</text><polygon fill="#A80036" points="238.5,171.6953,248.5,175.6953,238.5,179.6953,242.5,175.6953" style="stroke: #A80036; stroke-width: 1.0;"/><line style="stroke: #A80036; stroke-width: 1.0;" x1="52.5" x2="244.5" y1="175.6953" y2="175.6953"/><text fill="#000000" font-family="sans-serif" font-size="13" font-weight="bold" lengthAdjust="spacingAndGlyphs" textLength="9" x="59.5" y="170.6294">3</text><text fill="#000000" font-family="sans-serif" font-size="13" lengthAdjust="spacingAndGlyphs" textLength="112" x="72.5" y="170.6294">insert all the data</text><polygon fill="#A80036" points="386.5,200.8281,396.5,204.8281,386.5,208.8281,390.5,204.8281" style="stroke: #A80036; stroke-width: 1.0;"/><line style="stroke: #A80036; stroke-width: 1.0;" x1="260.5" x2="392.5" y1="204.8281" y2="204.8281"/><text fill="#000000" font-family="sans-serif" font-size="13" font-weight="bold" lengthAdjust="spacingAndGlyphs" textLength="9" x="267.5" y="199.7622">4</text><text fill="#000000" font-family="sans-serif" font-size="13" lengthAdjust="spacingAndGlyphs" textLength="69" x="280.5" y="199.7622">getFloors()</text><polygon fill="#A80036" points="677.5,229.9609,687.5,233.9609,677.5,237.9609,681.5,233.9609" style="stroke: #A80036; stroke-width: 1.0;"/><line style="stroke: #A80036; stroke-width: 1.0;" x1="408.5" x2="683.5" y1="233.9609" y2="233.9609"/><text fill="#000000" font-family="sans-serif" font-size="13" font-weight="bold" lengthAdjust="spacingAndGlyphs" textLength="9" x="415.5" y="228.895">5</text><text fill="#000000" font-family="sans-serif" font-size="13" lengthAdjust="spacingAndGlyphs" textLength="66" x="428.5" y="228.895">listFloors()</text><polygon fill="#A80036" points="856.5,259.0938,866.5,263.0938,856.5,267.0938,860.5,263.0938" style="stroke: #A80036; stroke-width: 1.0;"/><line style="stroke: #A80036; stroke-width: 1.0;" x1="699.5" x2="862.5" y1="263.0938" y2="263.0938"/><text fill="#000000" font-family="sans-serif" font-size="13" font-weight="bold" lengthAdjust="spacingAndGlyphs" textLength="9" x="706.5" y="258.0278">6</text><text fill="#000000" font-family="sans-serif" font-size="13" lengthAdjust="spacingAndGlyphs" textLength="79" x="719.5" y="258.0278">GET route{}</text><polygon fill="#A80036" points="1042.5,288.2266,1052.5,292.2266,1042.5,296.2266,1046.5,292.2266" style="stroke: #A80036; stroke-width: 1.0;"/><line style="stroke: #A80036; stroke-width: 1.0;" x1="878.5" x2="1048.5" y1="292.2266" y2="292.2266"/><text fill="#000000" font-family="sans-serif" font-size="13" font-weight="bold" lengthAdjust="spacingAndGlyphs" textLength="9" x="885.5" y="287.1606">7</text><text fill="#000000" font-family="sans-serif" font-size="13" lengthAdjust="spacingAndGlyphs" textLength="81" x="898.5" y="287.1606">listAllFloors()</text><polygon fill="#A80036" points="1263.5,317.3594,1273.5,321.3594,1263.5,325.3594,1267.5,321.3594" style="stroke: #A80036; stroke-width: 1.0;"/><line style="stroke: #A80036; stroke-width: 1.0;" x1="1064.5" x2="1269.5" y1="321.3594" y2="321.3594"/><text fill="#000000" font-family="sans-serif" font-size="13" font-weight="bold" lengthAdjust="spacingAndGlyphs" textLength="9" x="1071.5" y="316.2935">8</text><text fill="#000000" font-family="sans-serif" font-size="13" lengthAdjust="spacingAndGlyphs" textLength="48" x="1084.5" y="316.2935">findAll()</text><polygon fill="#A80036" points="1427.5,346.4922,1437.5,350.4922,1427.5,354.4922,1431.5,350.4922" style="stroke: #A80036; stroke-width: 1.0;"/><line style="stroke: #A80036; stroke-width: 1.0;" x1="1280.5" x2="1433.5" y1="350.4922" y2="350.4922"/><text fill="#000000" font-family="sans-serif" font-size="13" font-weight="bold" lengthAdjust="spacingAndGlyphs" textLength="9" x="1287.5" y="345.4263">9</text><text fill="#000000" font-family="sans-serif" font-size="13" lengthAdjust="spacingAndGlyphs" textLength="48" x="1300.5" y="345.4263">findAll()</text><polygon fill="#A80036" points="386.5,375.625,396.5,379.625,386.5,383.625,390.5,379.625" style="stroke: #A80036; stroke-width: 1.0;"/><line style="stroke: #A80036; stroke-width: 1.0;" x1="260.5" x2="392.5" y1="379.625" y2="379.625"/><text fill="#000000" font-family="sans-serif" font-size="13" font-weight="bold" lengthAdjust="spacingAndGlyphs" textLength="18" x="267.5" y="374.5591">10</text><text fill="#000000" font-family="sans-serif" font-size="13" lengthAdjust="spacingAndGlyphs" textLength="92" x="289.5" y="374.5591">editFloorMap()</text><polygon fill="#A80036" points="677.5,404.7578,687.5,408.7578,677.5,412.7578,681.5,408.7578" style="stroke: #A80036; stroke-width: 1.0;"/><line style="stroke: #A80036; stroke-width: 1.0;" x1="408.5" x2="683.5" y1="408.7578" y2="408.7578"/><text fill="#000000" font-family="sans-serif" font-size="13" font-weight="bold" lengthAdjust="spacingAndGlyphs" textLength="18" x="415.5" y="403.6919">11</text><text fill="#000000" font-family="sans-serif" font-size="13" lengthAdjust="spacingAndGlyphs" textLength="235" x="437.5" y="403.6919">patchFloorMap(Object{id, floorMap})</text><polygon fill="#A80036" points="856.5,433.8906,866.5,437.8906,856.5,441.8906,860.5,437.8906" style="stroke: #A80036; stroke-width: 1.0;"/><line style="stroke: #A80036; stroke-width: 1.0;" x1="699.5" x2="862.5" y1="437.8906" y2="437.8906"/><text fill="#000000" font-family="sans-serif" font-size="13" font-weight="bold" lengthAdjust="spacingAndGlyphs" textLength="18" x="706.5" y="432.8247">12</text><text fill="#000000" font-family="sans-serif" font-size="13" lengthAdjust="spacingAndGlyphs" textLength="123" x="728.5" y="432.8247">PATCH route{json}</text><polygon fill="#A80036" points="1042.5,463.0234,1052.5,467.0234,1042.5,471.0234,1046.5,467.0234" style="stroke: #A80036; stroke-width: 1.0;"/><line style="stroke: #A80036; stroke-width: 1.0;" x1="878.5" x2="1048.5" y1="467.0234" y2="467.0234"/><text fill="#000000" font-family="sans-serif" font-size="13" font-weight="bold" lengthAdjust="spacingAndGlyphs" textLength="18" x="885.5" y="461.9575">13</text><text fill="#000000" font-family="sans-serif" font-size="13" lengthAdjust="spacingAndGlyphs" textLength="130" x="907.5" y="461.9575">patchFloorMap(json)</text><polygon fill="#A80036" points="1263.5,492.1563,1273.5,496.1563,1263.5,500.1563,1267.5,496.1563" style="stroke: #A80036; stroke-width: 1.0;"/><line style="stroke: #A80036; stroke-width: 1.0;" x1="1064.5" x2="1269.5" y1="496.1563" y2="496.1563"/><text fill="#000000" font-family="sans-serif" font-size="13" font-weight="bold" lengthAdjust="spacingAndGlyphs" textLength="18" x="1071.5" y="491.0903">14</text><text fill="#000000" font-family="sans-serif" font-size="13" lengthAdjust="spacingAndGlyphs" textLength="165" x="1093.5" y="491.0903">patchFloorMap(IFloorDTO)</text><polygon fill="#A80036" points="1422.5,521.2891,1432.5,525.2891,1422.5,529.2891,1426.5,525.2891" style="stroke: #A80036; stroke-width: 1.0;"/><line style="stroke: #A80036; stroke-width: 1.0;" x1="1285.5" x2="1428.5" y1="525.2891" y2="525.2891"/><text fill="#000000" font-family="sans-serif" font-size="13" font-weight="bold" lengthAdjust="spacingAndGlyphs" textLength="18" x="1292.5" y="520.2231">15</text><text fill="#000000" font-family="sans-serif" font-size="13" lengthAdjust="spacingAndGlyphs" textLength="103" x="1314.5" y="520.2231">findById(floor.id)</text><polygon fill="#A80036" points="1422.5,550.4219,1432.5,554.4219,1422.5,558.4219,1426.5,554.4219" style="stroke: #A80036; stroke-width: 1.0;"/><line style="stroke: #A80036; stroke-width: 1.0;" x1="1285.5" x2="1428.5" y1="554.4219" y2="554.4219"/><text fill="#000000" font-family="sans-serif" font-size="13" font-weight="bold" lengthAdjust="spacingAndGlyphs" textLength="18" x="1292.5" y="549.356">16</text><text fill="#000000" font-family="sans-serif" font-size="13" lengthAdjust="spacingAndGlyphs" textLength="68" x="1314.5" y="549.356">save(floor)</text><polygon fill="#A80036" points="1603.5,579.5547,1613.5,583.5547,1603.5,587.5547,1607.5,583.5547" style="stroke: #A80036; stroke-width: 1.0;"/><line style="stroke: #A80036; stroke-width: 1.0;" x1="1444.5" x2="1609.5" y1="583.5547" y2="583.5547"/><text fill="#000000" font-family="sans-serif" font-size="13" font-weight="bold" lengthAdjust="spacingAndGlyphs" textLength="18" x="1451.5" y="578.4888">17</text><text fill="#000000" font-family="sans-serif" font-size="13" lengthAdjust="spacingAndGlyphs" textLength="125" x="1473.5" y="578.4888">toPersistance(floor)</text><polygon fill="#A80036" points="1718,608.6875,1728,612.6875,1718,616.6875,1722,612.6875" style="stroke: #A80036; stroke-width: 1.0;"/><line style="stroke: #A80036; stroke-width: 1.0;" x1="1444.5" x2="1724" y1="612.6875" y2="612.6875"/><text fill="#000000" font-family="sans-serif" font-size="13" font-weight="bold" lengthAdjust="spacingAndGlyphs" textLength="18" x="1451.5" y="607.6216">18</text><text fill="#000000" font-family="sans-serif" font-size="13" lengthAdjust="spacingAndGlyphs" textLength="79" x="1473.5" y="607.6216">create(floor)</text><path d="M13,627.6875 L77,627.6875 L77,634.6875 L67,644.6875 L13,644.6875 L13,627.6875 " fill="#EEEEEE" style="stroke: #000000; stroke-width: 1.0;"/><rect fill="none" height="426.9922" style="stroke: #000000; stroke-width: 2.0;" width="1483.5" x="13" y="627.6875"/><text fill="#000000" font-family="sans-serif" font-size="13" font-weight="bold" lengthAdjust="spacingAndGlyphs" textLength="19" x="28" y="640.7544">alt</text><text fill="#000000" font-family="sans-serif" font-size="11" font-weight="bold" lengthAdjust="spacingAndGlyphs" textLength="135" x="92" y="639.8979">[saved with success]</text><polygon fill="#A80036" points="1296.5,661.9531,1286.5,665.9531,1296.5,669.9531,1292.5,665.9531" style="stroke: #A80036; stroke-width: 1.0;"/><line style="stroke: #A80036; stroke-width: 1.0; stroke-dasharray: 2.0,2.0;" x1="1290.5" x2="1433.5" y1="665.9531" y2="665.9531"/><text fill="#000000" font-family="sans-serif" font-size="13" font-weight="bold" lengthAdjust="spacingAndGlyphs" textLength="18" x="1302.5" y="660.8872">19</text><text fill="#000000" font-family="sans-serif" font-size="13" lengthAdjust="spacingAndGlyphs" textLength="28" x="1324.5" y="660.8872">floor</text><polygon fill="#A80036" points="1075.5,691.0859,1065.5,695.0859,1075.5,699.0859,1071.5,695.0859" style="stroke: #A80036; stroke-width: 1.0;"/><line style="stroke: #A80036; stroke-width: 1.0; stroke-dasharray: 2.0,2.0;" x1="1069.5" x2="1274.5" y1="695.0859" y2="695.0859"/><text fill="#000000" font-family="sans-serif" font-size="13" font-weight="bold" lengthAdjust="spacingAndGlyphs" textLength="18" x="1081.5" y="690.02">20</text><text fill="#000000" font-family="sans-serif" font-size="13" lengthAdjust="spacingAndGlyphs" textLength="28" x="1103.5" y="690.02">floor</text><polygon fill="#A80036" points="889.5,720.2188,879.5,724.2188,889.5,728.2188,885.5,724.2188" style="stroke: #A80036; stroke-width: 1.0;"/><line style="stroke: #A80036; stroke-width: 1.0; stroke-dasharray: 2.0,2.0;" x1="883.5" x2="1053.5" y1="724.2188" y2="724.2188"/><text fill="#000000" font-family="sans-serif" font-size="13" font-weight="bold" lengthAdjust="spacingAndGlyphs" textLength="18" x="895.5" y="719.1528">21</text><text fill="#000000" font-family="sans-serif" font-size="13" lengthAdjust="spacingAndGlyphs" textLength="64" x="917.5" y="719.1528">HTTP: 201</text><polygon fill="#A80036" points="710.5,749.3516,700.5,753.3516,710.5,757.3516,706.5,753.3516" style="stroke: #A80036; stroke-width: 1.0;"/><line style="stroke: #A80036; stroke-width: 1.0; stroke-dasharray: 2.0,2.0;" x1="704.5" x2="867.5" y1="753.3516" y2="753.3516"/><text fill="#000000" font-family="sans-serif" font-size="13" font-weight="bold" lengthAdjust="spacingAndGlyphs" textLength="18" x="716.5" y="748.2856">22</text><text fill="#000000" font-family="sans-serif" font-size="13" lengthAdjust="spacingAndGlyphs" textLength="64" x="738.5" y="748.2856">HTTP: 201</text><polygon fill="#A80036" points="419.5,778.4844,409.5,782.4844,419.5,786.4844,415.5,782.4844" style="stroke: #A80036; stroke-width: 1.0;"/><line style="stroke: #A80036; stroke-width: 1.0; stroke-dasharray: 2.0,2.0;" x1="413.5" x2="688.5" y1="782.4844" y2="782.4844"/><text fill="#000000" font-family="sans-serif" font-size="13" font-weight="bold" lengthAdjust="spacingAndGlyphs" textLength="18" x="425.5" y="777.4185">23</text><text fill="#000000" font-family="sans-serif" font-size="13" lengthAdjust="spacingAndGlyphs" textLength="64" x="447.5" y="777.4185">HTTP: 201</text><polygon fill="#A80036" points="271.5,807.6172,261.5,811.6172,271.5,815.6172,267.5,811.6172" style="stroke: #A80036; stroke-width: 1.0;"/><line style="stroke: #A80036; stroke-width: 1.0; stroke-dasharray: 2.0,2.0;" x1="265.5" x2="397.5" y1="811.6172" y2="811.6172"/><text fill="#000000" font-family="sans-serif" font-size="13" font-weight="bold" lengthAdjust="spacingAndGlyphs" textLength="18" x="277.5" y="806.5513">24</text><text fill="#000000" font-family="sans-serif" font-size="13" lengthAdjust="spacingAndGlyphs" textLength="64" x="299.5" y="806.5513">HTTP: 201</text><polygon fill="#A80036" points="63.5,836.75,53.5,840.75,63.5,844.75,59.5,840.75" style="stroke: #A80036; stroke-width: 1.0;"/><line style="stroke: #A80036; stroke-width: 1.0; stroke-dasharray: 2.0,2.0;" x1="57.5" x2="249.5" y1="840.75" y2="840.75"/><text fill="#000000" font-family="sans-serif" font-size="13" font-weight="bold" lengthAdjust="spacingAndGlyphs" textLength="18" x="69.5" y="835.6841">25</text><text fill="#000000" font-family="sans-serif" font-size="13" lengthAdjust="spacingAndGlyphs" textLength="150" x="91.5" y="835.6841">show success message</text><line style="stroke: #000000; stroke-width: 1.0; stroke-dasharray: 2.0,2.0;" x1="13" x2="1496.5" y1="849.75" y2="849.75"/><polygon fill="#A80036" points="1296.5,867.8828,1286.5,871.8828,1296.5,875.8828,1292.5,871.8828" style="stroke: #A80036; stroke-width: 1.0;"/><line style="stroke: #A80036; stroke-width: 1.0; stroke-dasharray: 2.0,2.0;" x1="1290.5" x2="1433.5" y1="871.8828" y2="871.8828"/><text fill="#000000" font-family="sans-serif" font-size="13" font-weight="bold" lengthAdjust="spacingAndGlyphs" textLength="18" x="1302.5" y="866.8169">26</text><text fill="#000000" font-family="sans-serif" font-size="13" lengthAdjust="spacingAndGlyphs" textLength="31" x="1324.5" y="866.8169">error</text><polygon fill="#A80036" points="1075.5,897.0156,1065.5,901.0156,1075.5,905.0156,1071.5,901.0156" style="stroke: #A80036; stroke-width: 1.0;"/><line style="stroke: #A80036; stroke-width: 1.0; stroke-dasharray: 2.0,2.0;" x1="1069.5" x2="1274.5" y1="901.0156" y2="901.0156"/><text fill="#000000" font-family="sans-serif" font-size="13" font-weight="bold" lengthAdjust="spacingAndGlyphs" textLength="18" x="1081.5" y="895.9497">27</text><text fill="#000000" font-family="sans-serif" font-size="13" lengthAdjust="spacingAndGlyphs" textLength="31" x="1103.5" y="895.9497">error</text><polygon fill="#A80036" points="889.5,926.1484,879.5,930.1484,889.5,934.1484,885.5,930.1484" style="stroke: #A80036; stroke-width: 1.0;"/><line style="stroke: #A80036; stroke-width: 1.0; stroke-dasharray: 2.0,2.0;" x1="883.5" x2="1053.5" y1="930.1484" y2="930.1484"/><text fill="#000000" font-family="sans-serif" font-size="13" font-weight="bold" lengthAdjust="spacingAndGlyphs" textLength="18" x="895.5" y="925.0825">28</text><text fill="#000000" font-family="sans-serif" font-size="13" lengthAdjust="spacingAndGlyphs" textLength="64" x="917.5" y="925.0825">HTTP: 400</text><polygon fill="#A80036" points="710.5,955.2813,700.5,959.2813,710.5,963.2813,706.5,959.2813" style="stroke: #A80036; stroke-width: 1.0;"/><line style="stroke: #A80036; stroke-width: 1.0; stroke-dasharray: 2.0,2.0;" x1="704.5" x2="867.5" y1="959.2813" y2="959.2813"/><text fill="#000000" font-family="sans-serif" font-size="13" font-weight="bold" lengthAdjust="spacingAndGlyphs" textLength="18" x="716.5" y="954.2153">29</text><text fill="#000000" font-family="sans-serif" font-size="13" lengthAdjust="spacingAndGlyphs" textLength="64" x="738.5" y="954.2153">HTTP: 400</text><polygon fill="#A80036" points="419.5,984.4141,409.5,988.4141,419.5,992.4141,415.5,988.4141" style="stroke: #A80036; stroke-width: 1.0;"/><line style="stroke: #A80036; stroke-width: 1.0; stroke-dasharray: 2.0,2.0;" x1="413.5" x2="688.5" y1="988.4141" y2="988.4141"/><text fill="#000000" font-family="sans-serif" font-size="13" font-weight="bold" lengthAdjust="spacingAndGlyphs" textLength="18" x="425.5" y="983.3481">30</text><text fill="#000000" font-family="sans-serif" font-size="13" lengthAdjust="spacingAndGlyphs" textLength="64" x="447.5" y="983.3481">HTTP: 400</text><polygon fill="#A80036" points="271.5,1013.5469,261.5,1017.5469,271.5,1021.5469,267.5,1017.5469" style="stroke: #A80036; stroke-width: 1.0;"/><line style="stroke: #A80036; stroke-width: 1.0; stroke-dasharray: 2.0,2.0;" x1="265.5" x2="397.5" y1="1017.5469" y2="1017.5469"/><text fill="#000000" font-family="sans-serif" font-size="13" font-weight="bold" lengthAdjust="spacingAndGlyphs" textLength="18" x="277.5" y="1012.481">31</text><text fill="#000000" font-family="sans-serif" font-size="13" lengthAdjust="spacingAndGlyphs" textLength="64" x="299.5" y="1012.481">HTTP: 400</text><polygon fill="#A80036" points="63.5,1042.6797,53.5,1046.6797,63.5,1050.6797,59.5,1046.6797" style="stroke: #A80036; stroke-width: 1.0;"/><line style="stroke: #A80036; stroke-width: 1.0; stroke-dasharray: 2.0,2.0;" x1="57.5" x2="249.5" y1="1046.6797" y2="1046.6797"/><text fill="#000000" font-family="sans-serif" font-size="13" font-weight="bold" lengthAdjust="spacingAndGlyphs" textLength="18" x="69.5" y="1041.6138">32</text><text fill="#000000" font-family="sans-serif" font-size="13" lengthAdjust="spacingAndGlyphs" textLength="138" x="91.5" y="1041.6138">show failure message</text><!--MD5=[31a86b889c3188812b387a210fa05288]
@startuml
autonumber
actor "Admin" as admin

participant ":View" as sys
participant ":FE_Component" as comp
participant ":FE_FloorService" as FEsrvc
participant ":Routing" as route
participant ":FloorController" as ctrl
participant ":FloorService" as srvc
participant ":FloorRepo" as repo
participant ":FloorMap" as rtMap
participant ":FloorSchema" as rtSchema

activate admin

admin -> sys: update floor map
activate sys
sys - -> admin: request necessary data()
admin -> sys : insert all the data
activate comp

sys -> comp : getFloors()
activate FEsrvc
comp -> FEsrvc : listFloors()
activate route
FEsrvc -> route: GET route{}
activate ctrl
route -> ctrl: listAllFloors()
activate srvc
ctrl -> srvc: findAll()
activate repo
srvc -> repo: findAll()
deactivate FEsrvc
deactivate route
deactivate ctrl
deactivate srvc
deactivate repo

sys -> comp : editFloorMap()
activate FEsrvc
comp -> FEsrvc : patchFloorMap(Object{id, floorMap})
activate route
FEsrvc -> route: PATCH route{json}
activate ctrl
route -> ctrl: patchFloorMap(json)
activate srvc
ctrl -> srvc: patchFloorMap(IFloorDTO)
activate repo
srvc -> repo: findById(floor.id)
srvc -> repo: save(floor)
activate rtMap
repo -> rtMap: toPersistance(floor)
activate rtSchema
repo -> rtSchema: create(floor)
deactivate rtSchema
deactivate rtMap

alt saved with success
    repo - -> srvc: floor
    srvc - -> ctrl: floor
    ctrl - -> route : HTTP: 201
    route - -> FEsrvc: HTTP: 201
    FEsrvc - -> comp: HTTP: 201
    comp - -> sys: HTTP: 201
    sys - -> admin: show success message
else
    repo - -> srvc: error
    srvc - -> ctrl: error
    ctrl - -> route : HTTP: 400
    route - -> FEsrvc: HTTP: 400
    FEsrvc - -> comp: HTTP: 400
    comp - -> sys: HTTP: 400
    sys - -> admin: show failure message
end

deactivate repo
deactivate ctrl
deactivate route
deactivate FEsrvc
deactivate comp
deactivate sys
deactivate admin
@enduml

PlantUML version 1.2020.02(Sun Mar 01 10:22:07 UTC 2020)
(GPL source distribution)
Java Runtime: OpenJDK Runtime Environment
JVM: OpenJDK 64-Bit Server VM
Java Version: 11.0.21+9
Operating System: Linux
Default Encoding: UTF-8
Language: en
Country: null
--></g></svg>