<?xml version="1.0" encoding="UTF-8" standalone="no"?><svg xmlns="http://www.w3.org/2000/svg" xmlns:xlink="http://www.w3.org/1999/xlink" contentScriptType="application/ecmascript" contentStyleType="text/css" height="985px" preserveAspectRatio="none" style="width:3722px;height:985px;" version="1.1" viewBox="0 0 3722 985" width="3722px" zoomAndPan="magnify"><defs><filter height="300%" id="fn2jan535e4gg" width="300%" x="-1" y="-1"><feGaussianBlur result="blurOut" stdDeviation="2.0"/><feColorMatrix in="blurOut" result="blurOut2" type="matrix" values="0 0 0 0 0 0 0 0 0 0 0 0 0 0 0 0 0 0 .4 0"/><feOffset dx="4.0" dy="4.0" in="blurOut2" result="blurOut3"/><feBlend in="SourceGraphic" in2="blurOut3" mode="normal"/></filter></defs><g><rect fill="#FFFFFF" filter="url(#fn2jan535e4gg)" height="691.9219" style="stroke: #A80036; stroke-width: 1.0;" width="10" x="1266" y="244.2266"/><rect fill="#FFFFFF" filter="url(#fn2jan535e4gg)" height="662.7891" style="stroke: #A80036; stroke-width: 1.0;" width="10" x="1675" y="273.3594"/><rect fill="#FFFFFF" filter="url(#fn2jan535e4gg)" height="406.7266" style="stroke: #A80036; stroke-width: 1.0;" width="10" x="1979" y="345.625"/><rect fill="#FFFFFF" filter="url(#fn2jan535e4gg)" height="348.4609" style="stroke: #A80036; stroke-width: 1.0;" width="10" x="2283" y="374.7578"/><rect fill="#FFFFFF" filter="url(#fn2jan535e4gg)" height="231.9297" style="stroke: #A80036; stroke-width: 1.0;" width="10" x="2587" y="403.8906"/><rect fill="#FFFFFF" filter="url(#fn2jan535e4gg)" height="173.6641" style="stroke: #A80036; stroke-width: 1.0;" width="10" x="2839" y="433.0234"/><rect fill="#FFFFFF" filter="url(#fn2jan535e4gg)" height="29.1328" style="stroke: #A80036; stroke-width: 1.0;" width="10" x="2963" y="664.9531"/><rect fill="#FFFFFF" filter="url(#fn2jan535e4gg)" height="14" style="stroke: #A80036; stroke-width: 1.0;" width="10" x="3195.5" y="302.4922"/><rect fill="#FFFFFF" filter="url(#fn2jan535e4gg)" height="57.1328" style="stroke: #A80036; stroke-width: 1.0;" width="10" x="3327" y="462.1563"/><rect fill="#FFFFFF" filter="url(#fn2jan535e4gg)" height="14" style="stroke: #A80036; stroke-width: 1.0;" width="10" x="3493.5" y="476.1563"/><rect fill="#FFFFFF" filter="url(#fn2jan535e4gg)" height="29.1328" style="stroke: #A80036; stroke-width: 1.0;" width="10" x="3645.5" y="548.4219"/><line style="stroke: #A80036; stroke-width: 1.0; stroke-dasharray: 5.0,5.0;" x1="33" x2="33" y1="38.2969" y2="945.1484"/><line style="stroke: #A80036; stroke-width: 1.0; stroke-dasharray: 5.0,5.0;" x1="249.5" x2="249.5" y1="38.2969" y2="945.1484"/><line style="stroke: #A80036; stroke-width: 1.0; stroke-dasharray: 5.0,5.0;" x1="510.5" x2="510.5" y1="38.2969" y2="945.1484"/><line style="stroke: #A80036; stroke-width: 1.0; stroke-dasharray: 5.0,5.0;" x1="755.5" x2="755.5" y1="38.2969" y2="945.1484"/><line style="stroke: #A80036; stroke-width: 1.0; stroke-dasharray: 5.0,5.0;" x1="993.5" x2="993.5" y1="38.2969" y2="945.1484"/><line style="stroke: #A80036; stroke-width: 1.0; stroke-dasharray: 5.0,5.0;" x1="1270.5" x2="1270.5" y1="38.2969" y2="945.1484"/><line style="stroke: #A80036; stroke-width: 1.0; stroke-dasharray: 5.0,5.0;" x1="1680" x2="1680" y1="38.2969" y2="945.1484"/><line style="stroke: #A80036; stroke-width: 1.0; stroke-dasharray: 5.0,5.0;" x1="1984" x2="1984" y1="38.2969" y2="945.1484"/><line style="stroke: #A80036; stroke-width: 1.0; stroke-dasharray: 5.0,5.0;" x1="2287.5" x2="2287.5" y1="38.2969" y2="945.1484"/><line style="stroke: #A80036; stroke-width: 1.0; stroke-dasharray: 5.0,5.0;" x1="2591.5" x2="2591.5" y1="38.2969" y2="945.1484"/><line style="stroke: #A80036; stroke-width: 1.0; stroke-dasharray: 5.0,5.0;" x1="2844" x2="2844" y1="38.2969" y2="945.1484"/><line style="stroke: #A80036; stroke-width: 1.0; stroke-dasharray: 5.0,5.0;" x1="2968" x2="2968" y1="38.2969" y2="945.1484"/><line style="stroke: #A80036; stroke-width: 1.0; stroke-dasharray: 5.0,5.0;" x1="3090" x2="3090" y1="38.2969" y2="945.1484"/><line style="stroke: #A80036; stroke-width: 1.0; stroke-dasharray: 5.0,5.0;" x1="3200" x2="3200" y1="38.2969" y2="945.1484"/><line style="stroke: #A80036; stroke-width: 1.0; stroke-dasharray: 5.0,5.0;" x1="3332" x2="3332" y1="38.2969" y2="945.1484"/><line style="stroke: #A80036; stroke-width: 1.0; stroke-dasharray: 5.0,5.0;" x1="3498" x2="3498" y1="38.2969" y2="945.1484"/><line style="stroke: #A80036; stroke-width: 1.0; stroke-dasharray: 5.0,5.0;" x1="3650" x2="3650" y1="38.2969" y2="945.1484"/><rect fill="#FEFECE" filter="url(#fn2jan535e4gg)" height="30.2969" style="stroke: #A80036; stroke-width: 1.5;" width="46" x="8" y="3"/><text fill="#000000" font-family="sans-serif" font-size="14" lengthAdjust="spacingAndGlyphs" textLength="32" x="15" y="22.9951">User</text><rect fill="#FEFECE" filter="url(#fn2jan535e4gg)" height="30.2969" style="stroke: #A80036; stroke-width: 1.5;" width="46" x="8" y="944.1484"/><text fill="#000000" font-family="sans-serif" font-size="14" lengthAdjust="spacingAndGlyphs" textLength="32" x="15" y="964.1436">User</text><rect fill="#FEFECE" filter="url(#fn2jan535e4gg)" height="30.2969" style="stroke: #A80036; stroke-width: 1.5;" width="51" x="222.5" y="3"/><text fill="#000000" font-family="sans-serif" font-size="14" lengthAdjust="spacingAndGlyphs" textLength="37" x="229.5" y="22.9951">:View</text><rect fill="#FEFECE" filter="url(#fn2jan535e4gg)" height="30.2969" style="stroke: #A80036; stroke-width: 1.5;" width="51" x="222.5" y="944.1484"/><text fill="#000000" font-family="sans-serif" font-size="14" lengthAdjust="spacingAndGlyphs" textLength="37" x="229.5" y="964.1436">:View</text><rect fill="#FEFECE" filter="url(#fn2jan535e4gg)" height="30.2969" style="stroke: #A80036; stroke-width: 1.5;" width="125" x="446.5" y="3"/><text fill="#000000" font-family="sans-serif" font-size="14" lengthAdjust="spacingAndGlyphs" textLength="111" x="453.5" y="22.9951">:FE_Component</text><rect fill="#FEFECE" filter="url(#fn2jan535e4gg)" height="30.2969" style="stroke: #A80036; stroke-width: 1.5;" width="125" x="446.5" y="944.1484"/><text fill="#000000" font-family="sans-serif" font-size="14" lengthAdjust="spacingAndGlyphs" textLength="111" x="453.5" y="964.1436">:FE_Component</text><rect fill="#FEFECE" filter="url(#fn2jan535e4gg)" height="30.2969" style="stroke: #A80036; stroke-width: 1.5;" width="93" x="707.5" y="3"/><text fill="#000000" font-family="sans-serif" font-size="14" lengthAdjust="spacingAndGlyphs" textLength="79" x="714.5" y="22.9951">:FE_Service</text><rect fill="#FEFECE" filter="url(#fn2jan535e4gg)" height="30.2969" style="stroke: #A80036; stroke-width: 1.5;" width="93" x="707.5" y="944.1484"/><text fill="#000000" font-family="sans-serif" font-size="14" lengthAdjust="spacingAndGlyphs" textLength="79" x="714.5" y="964.1436">:FE_Service</text><rect fill="#FEFECE" filter="url(#fn2jan535e4gg)" height="30.2969" style="stroke: #A80036; stroke-width: 1.5;" width="73" x="955.5" y="3"/><text fill="#000000" font-family="sans-serif" font-size="14" lengthAdjust="spacingAndGlyphs" textLength="59" x="962.5" y="22.9951">:Routing</text><rect fill="#FEFECE" filter="url(#fn2jan535e4gg)" height="30.2969" style="stroke: #A80036; stroke-width: 1.5;" width="73" x="955.5" y="944.1484"/><text fill="#000000" font-family="sans-serif" font-size="14" lengthAdjust="spacingAndGlyphs" textLength="59" x="962.5" y="964.1436">:Routing</text><rect fill="#FEFECE" filter="url(#fn2jan535e4gg)" height="30.2969" style="stroke: #A80036; stroke-width: 1.5;" width="139" x="1199.5" y="3"/><text fill="#000000" font-family="sans-serif" font-size="14" lengthAdjust="spacingAndGlyphs" textLength="125" x="1206.5" y="22.9951">IBuildingController</text><rect fill="#FEFECE" filter="url(#fn2jan535e4gg)" height="30.2969" style="stroke: #A80036; stroke-width: 1.5;" width="139" x="1199.5" y="944.1484"/><text fill="#000000" font-family="sans-serif" font-size="14" lengthAdjust="spacingAndGlyphs" textLength="125" x="1206.5" y="964.1436">IBuildingController</text><rect fill="#FEFECE" filter="url(#fn2jan535e4gg)" height="30.2969" style="stroke: #A80036; stroke-width: 1.5;" width="136" x="1610" y="3"/><text fill="#000000" font-family="sans-serif" font-size="14" lengthAdjust="spacingAndGlyphs" textLength="122" x="1617" y="22.9951">BuildingController</text><rect fill="#FEFECE" filter="url(#fn2jan535e4gg)" height="30.2969" style="stroke: #A80036; stroke-width: 1.5;" width="136" x="1610" y="944.1484"/><text fill="#000000" font-family="sans-serif" font-size="14" lengthAdjust="spacingAndGlyphs" textLength="122" x="1617" y="964.1436">BuildingController</text><rect fill="#FEFECE" filter="url(#fn2jan535e4gg)" height="30.2969" style="stroke: #A80036; stroke-width: 1.5;" width="130" x="1917" y="3"/><text fill="#000000" font-family="sans-serif" font-size="14" lengthAdjust="spacingAndGlyphs" textLength="116" x="1924" y="22.9951">IBuildingsService</text><rect fill="#FEFECE" filter="url(#fn2jan535e4gg)" height="30.2969" style="stroke: #A80036; stroke-width: 1.5;" width="130" x="1917" y="944.1484"/><text fill="#000000" font-family="sans-serif" font-size="14" lengthAdjust="spacingAndGlyphs" textLength="116" x="1924" y="964.1436">IBuildingsService</text><rect fill="#FEFECE" filter="url(#fn2jan535e4gg)" height="30.2969" style="stroke: #A80036; stroke-width: 1.5;" width="127" x="2222.5" y="3"/><text fill="#000000" font-family="sans-serif" font-size="14" lengthAdjust="spacingAndGlyphs" textLength="113" x="2229.5" y="22.9951">BuildingsService</text><rect fill="#FEFECE" filter="url(#fn2jan535e4gg)" height="30.2969" style="stroke: #A80036; stroke-width: 1.5;" width="127" x="2222.5" y="944.1484"/><text fill="#000000" font-family="sans-serif" font-size="14" lengthAdjust="spacingAndGlyphs" textLength="113" x="2229.5" y="964.1436">BuildingsService</text><rect fill="#FEFECE" filter="url(#fn2jan535e4gg)" height="30.2969" style="stroke: #A80036; stroke-width: 1.5;" width="117" x="2531.5" y="3"/><text fill="#000000" font-family="sans-serif" font-size="14" lengthAdjust="spacingAndGlyphs" textLength="103" x="2538.5" y="22.9951">IBuildingsRepo</text><rect fill="#FEFECE" filter="url(#fn2jan535e4gg)" height="30.2969" style="stroke: #A80036; stroke-width: 1.5;" width="117" x="2531.5" y="944.1484"/><text fill="#000000" font-family="sans-serif" font-size="14" lengthAdjust="spacingAndGlyphs" textLength="103" x="2538.5" y="964.1436">IBuildingsRepo</text><rect fill="#FEFECE" filter="url(#fn2jan535e4gg)" height="30.2969" style="stroke: #A80036; stroke-width: 1.5;" width="114" x="2785" y="3"/><text fill="#000000" font-family="sans-serif" font-size="14" lengthAdjust="spacingAndGlyphs" textLength="100" x="2792" y="22.9951">BuildingsRepo</text><rect fill="#FEFECE" filter="url(#fn2jan535e4gg)" height="30.2969" style="stroke: #A80036; stroke-width: 1.5;" width="114" x="2785" y="944.1484"/><text fill="#000000" font-family="sans-serif" font-size="14" lengthAdjust="spacingAndGlyphs" textLength="100" x="2792" y="964.1436">BuildingsRepo</text><rect fill="#FEFECE" filter="url(#fn2jan535e4gg)" height="30.2969" style="stroke: #A80036; stroke-width: 1.5;" width="106" x="2913" y="3"/><text fill="#000000" font-family="sans-serif" font-size="14" lengthAdjust="spacingAndGlyphs" textLength="92" x="2920" y="22.9951">BuildingsMap</text><rect fill="#FEFECE" filter="url(#fn2jan535e4gg)" height="30.2969" style="stroke: #A80036; stroke-width: 1.5;" width="106" x="2913" y="944.1484"/><text fill="#000000" font-family="sans-serif" font-size="14" lengthAdjust="spacingAndGlyphs" textLength="92" x="2920" y="964.1436">BuildingsMap</text><rect fill="#FEFECE" filter="url(#fn2jan535e4gg)" height="30.2969" style="stroke: #A80036; stroke-width: 1.5;" width="111" x="3033" y="3"/><text fill="#000000" font-family="sans-serif" font-size="14" lengthAdjust="spacingAndGlyphs" textLength="97" x="3040" y="22.9951">Building Entity</text><rect fill="#FEFECE" filter="url(#fn2jan535e4gg)" height="30.2969" style="stroke: #A80036; stroke-width: 1.5;" width="111" x="3033" y="944.1484"/><text fill="#000000" font-family="sans-serif" font-size="14" lengthAdjust="spacingAndGlyphs" textLength="97" x="3040" y="964.1436">Building Entity</text><rect fill="#FEFECE" filter="url(#fn2jan535e4gg)" height="30.2969" style="stroke: #A80036; stroke-width: 1.5;" width="81" x="3158" y="3"/><text fill="#000000" font-family="sans-serif" font-size="14" lengthAdjust="spacingAndGlyphs" textLength="67" x="3165" y="22.9951">ConfigFile</text><rect fill="#FEFECE" filter="url(#fn2jan535e4gg)" height="30.2969" style="stroke: #A80036; stroke-width: 1.5;" width="81" x="3158" y="944.1484"/><text fill="#000000" font-family="sans-serif" font-size="14" lengthAdjust="spacingAndGlyphs" textLength="67" x="3165" y="964.1436">ConfigFile</text><rect fill="#FEFECE" filter="url(#fn2jan535e4gg)" height="30.2969" style="stroke: #A80036; stroke-width: 1.5;" width="154" x="3253" y="3"/><text fill="#000000" font-family="sans-serif" font-size="14" lengthAdjust="spacingAndGlyphs" textLength="140" x="3260" y="22.9951">IBuildingPersistence</text><rect fill="#FEFECE" filter="url(#fn2jan535e4gg)" height="30.2969" style="stroke: #A80036; stroke-width: 1.5;" width="154" x="3253" y="944.1484"/><text fill="#000000" font-family="sans-serif" font-size="14" lengthAdjust="spacingAndGlyphs" textLength="140" x="3260" y="964.1436">IBuildingPersistence</text><rect fill="#FEFECE" filter="url(#fn2jan535e4gg)" height="30.2969" style="stroke: #A80036; stroke-width: 1.5;" width="151" x="3421" y="3"/><text fill="#000000" font-family="sans-serif" font-size="14" lengthAdjust="spacingAndGlyphs" textLength="137" x="3428" y="22.9951">BuildingPersistence</text><rect fill="#FEFECE" filter="url(#fn2jan535e4gg)" height="30.2969" style="stroke: #A80036; stroke-width: 1.5;" width="151" x="3421" y="944.1484"/><text fill="#000000" font-family="sans-serif" font-size="14" lengthAdjust="spacingAndGlyphs" textLength="137" x="3428" y="964.1436">BuildingPersistence</text><rect fill="#FEFECE" filter="url(#fn2jan535e4gg)" height="30.2969" style="stroke: #A80036; stroke-width: 1.5;" width="125" x="3586" y="3"/><text fill="#000000" font-family="sans-serif" font-size="14" lengthAdjust="spacingAndGlyphs" textLength="111" x="3593" y="22.9951">BuildingSchema</text><rect fill="#FEFECE" filter="url(#fn2jan535e4gg)" height="30.2969" style="stroke: #A80036; stroke-width: 1.5;" width="125" x="3586" y="944.1484"/><text fill="#000000" font-family="sans-serif" font-size="14" lengthAdjust="spacingAndGlyphs" textLength="111" x="3593" y="964.1436">BuildingSchema</text><rect fill="#FFFFFF" filter="url(#fn2jan535e4gg)" height="691.9219" style="stroke: #A80036; stroke-width: 1.0;" width="10" x="1266" y="244.2266"/><rect fill="#FFFFFF" filter="url(#fn2jan535e4gg)" height="662.7891" style="stroke: #A80036; stroke-width: 1.0;" width="10" x="1675" y="273.3594"/><rect fill="#FFFFFF" filter="url(#fn2jan535e4gg)" height="406.7266" style="stroke: #A80036; stroke-width: 1.0;" width="10" x="1979" y="345.625"/><rect fill="#FFFFFF" filter="url(#fn2jan535e4gg)" height="348.4609" style="stroke: #A80036; stroke-width: 1.0;" width="10" x="2283" y="374.7578"/><rect fill="#FFFFFF" filter="url(#fn2jan535e4gg)" height="231.9297" style="stroke: #A80036; stroke-width: 1.0;" width="10" x="2587" y="403.8906"/><rect fill="#FFFFFF" filter="url(#fn2jan535e4gg)" height="173.6641" style="stroke: #A80036; stroke-width: 1.0;" width="10" x="2839" y="433.0234"/><rect fill="#FFFFFF" filter="url(#fn2jan535e4gg)" height="29.1328" style="stroke: #A80036; stroke-width: 1.0;" width="10" x="2963" y="664.9531"/><rect fill="#FFFFFF" filter="url(#fn2jan535e4gg)" height="14" style="stroke: #A80036; stroke-width: 1.0;" width="10" x="3195.5" y="302.4922"/><rect fill="#FFFFFF" filter="url(#fn2jan535e4gg)" height="57.1328" style="stroke: #A80036; stroke-width: 1.0;" width="10" x="3327" y="462.1563"/><rect fill="#FFFFFF" filter="url(#fn2jan535e4gg)" height="14" style="stroke: #A80036; stroke-width: 1.0;" width="10" x="3493.5" y="476.1563"/><rect fill="#FFFFFF" filter="url(#fn2jan535e4gg)" height="29.1328" style="stroke: #A80036; stroke-width: 1.0;" width="10" x="3645.5" y="548.4219"/><polygon fill="#A80036" points="238,65.4297,248,69.4297,238,73.4297,242,69.4297" style="stroke: #A80036; stroke-width: 1.0;"/><line style="stroke: #A80036; stroke-width: 1.0;" x1="33" x2="244" y1="69.4297" y2="69.4297"/><text fill="#000000" font-family="sans-serif" font-size="13" lengthAdjust="spacingAndGlyphs" textLength="149" x="40" y="64.3638">Accesses web interface</text><polygon fill="#A80036" points="499,94.5625,509,98.5625,499,102.5625,503,98.5625" style="stroke: #A80036; stroke-width: 1.0;"/><line style="stroke: #A80036; stroke-width: 1.0;" x1="250" x2="505" y1="98.5625" y2="98.5625"/><text fill="#000000" font-family="sans-serif" font-size="13" lengthAdjust="spacingAndGlyphs" textLength="206" x="257" y="93.4966">Display form to input floor range</text><polygon fill="#A80036" points="261,123.6953,251,127.6953,261,131.6953,257,127.6953" style="stroke: #A80036; stroke-width: 1.0;"/><line style="stroke: #A80036; stroke-width: 1.0;" x1="255" x2="510" y1="127.6953" y2="127.6953"/><text fill="#000000" font-family="sans-serif" font-size="13" lengthAdjust="spacingAndGlyphs" textLength="237" x="267" y="122.6294">User inputs minFloors and maxFloors</text><polygon fill="#A80036" points="744,152.8281,754,156.8281,744,160.8281,748,156.8281" style="stroke: #A80036; stroke-width: 1.0;"/><line style="stroke: #A80036; stroke-width: 1.0;" x1="250" x2="750" y1="156.8281" y2="156.8281"/><text fill="#000000" font-family="sans-serif" font-size="13" lengthAdjust="spacingAndGlyphs" textLength="119" x="257" y="151.7622">Submit floor range</text><polygon fill="#A80036" points="982,181.9609,992,185.9609,982,189.9609,986,185.9609" style="stroke: #A80036; stroke-width: 1.0;"/><line style="stroke: #A80036; stroke-width: 1.0;" x1="756" x2="988" y1="185.9609" y2="185.9609"/><text fill="#000000" font-family="sans-serif" font-size="13" lengthAdjust="spacingAndGlyphs" textLength="214" x="763" y="180.895">Request to find buildings by floors</text><polygon fill="#A80036" points="1259,211.0938,1269,215.0938,1259,219.0938,1263,215.0938" style="stroke: #A80036; stroke-width: 1.0;"/><line style="stroke: #A80036; stroke-width: 1.0;" x1="994" x2="1265" y1="215.0938" y2="215.0938"/><text fill="#000000" font-family="sans-serif" font-size="13" lengthAdjust="spacingAndGlyphs" textLength="253" x="1001" y="210.0278">Forward request (minFloors, maxFloors)</text><polygon fill="#A80036" points="1254,240.2266,1264,244.2266,1254,248.2266,1258,244.2266" style="stroke: #A80036; stroke-width: 1.0;"/><line style="stroke: #A80036; stroke-width: 1.0;" x1="33" x2="1260" y1="244.2266" y2="244.2266"/><text fill="#000000" font-family="sans-serif" font-size="13" lengthAdjust="spacingAndGlyphs" textLength="328" x="40" y="239.1606">send request to findByFloors(minFloors, maxFloors)</text><polygon fill="#A80036" points="1663,269.3594,1673,273.3594,1663,277.3594,1667,273.3594" style="stroke: #A80036; stroke-width: 1.0;"/><line style="stroke: #A80036; stroke-width: 1.0;" x1="1276" x2="1669" y1="273.3594" y2="273.3594"/><text fill="#000000" font-family="sans-serif" font-size="13" lengthAdjust="spacingAndGlyphs" textLength="223" x="1283" y="268.2935">findByFloors(minFloors, maxFloors)</text><polygon fill="#A80036" points="3183.5,298.4922,3193.5,302.4922,3183.5,306.4922,3187.5,302.4922" style="stroke: #A80036; stroke-width: 1.0;"/><line style="stroke: #A80036; stroke-width: 1.0;" x1="1685" x2="3189.5" y1="302.4922" y2="302.4922"/><text fill="#000000" font-family="sans-serif" font-size="13" lengthAdjust="spacingAndGlyphs" textLength="92" x="1692" y="297.4263">Injects Service</text><polygon fill="#A80036" points="1696,312.4922,1686,316.4922,1696,320.4922,1692,316.4922" style="stroke: #A80036; stroke-width: 1.0;"/><line style="stroke: #A80036; stroke-width: 1.0;" x1="1690" x2="3199.5" y1="316.4922" y2="316.4922"/><polygon fill="#A80036" points="1967,341.625,1977,345.625,1967,349.625,1971,345.625" style="stroke: #A80036; stroke-width: 1.0;"/><line style="stroke: #A80036; stroke-width: 1.0;" x1="1685" x2="1973" y1="345.625" y2="345.625"/><text fill="#000000" font-family="sans-serif" font-size="13" lengthAdjust="spacingAndGlyphs" textLength="275" x="1692" y="340.5591">listBuildingsByFloors(minFloors, maxFloors)</text><polygon fill="#A80036" points="2271,370.7578,2281,374.7578,2271,378.7578,2275,374.7578" style="stroke: #A80036; stroke-width: 1.0;"/><line style="stroke: #A80036; stroke-width: 1.0;" x1="1989" x2="2277" y1="374.7578" y2="374.7578"/><text fill="#000000" font-family="sans-serif" font-size="13" lengthAdjust="spacingAndGlyphs" textLength="275" x="1996" y="369.6919">listBuildingsByFloors(minFloors, maxFloors)</text><polygon fill="#A80036" points="2575,399.8906,2585,403.8906,2575,407.8906,2579,403.8906" style="stroke: #A80036; stroke-width: 1.0;"/><line style="stroke: #A80036; stroke-width: 1.0;" x1="2293" x2="2581" y1="403.8906" y2="403.8906"/><text fill="#000000" font-family="sans-serif" font-size="13" lengthAdjust="spacingAndGlyphs" textLength="275" x="2300" y="398.8247">listBuildingsByFloors(minFloors, maxFloors)</text><polygon fill="#A80036" points="2827,429.0234,2837,433.0234,2827,437.0234,2831,433.0234" style="stroke: #A80036; stroke-width: 1.0;"/><line style="stroke: #A80036; stroke-width: 1.0;" x1="2597" x2="2833" y1="433.0234" y2="433.0234"/><text fill="#000000" font-family="sans-serif" font-size="13" lengthAdjust="spacingAndGlyphs" textLength="223" x="2604" y="427.9575">findByFloors(minFloors, maxFloors)</text><polygon fill="#A80036" points="3315,458.1563,3325,462.1563,3315,466.1563,3319,462.1563" style="stroke: #A80036; stroke-width: 1.0;"/><line style="stroke: #A80036; stroke-width: 1.0;" x1="2849" x2="3321" y1="462.1563" y2="462.1563"/><text fill="#000000" font-family="sans-serif" font-size="13" lengthAdjust="spacingAndGlyphs" textLength="270" x="2856" y="457.0903">query = FilterQuery(minFloors, maxFloors)</text><polygon fill="#A80036" points="3481.5,472.1563,3491.5,476.1563,3481.5,480.1563,3485.5,476.1563" style="stroke: #A80036; stroke-width: 1.0;"/><line style="stroke: #A80036; stroke-width: 1.0;" x1="3337" x2="3487.5" y1="476.1563" y2="476.1563"/><polygon fill="#A80036" points="3348,486.1563,3338,490.1563,3348,494.1563,3344,490.1563" style="stroke: #A80036; stroke-width: 1.0;"/><line style="stroke: #A80036; stroke-width: 1.0;" x1="3342" x2="3497.5" y1="490.1563" y2="490.1563"/><polygon fill="#A80036" points="2860,515.2891,2850,519.2891,2860,523.2891,2856,519.2891" style="stroke: #A80036; stroke-width: 1.0;"/><line style="stroke: #A80036; stroke-width: 1.0;" x1="2854" x2="3331" y1="519.2891" y2="519.2891"/><text fill="#000000" font-family="sans-serif" font-size="13" lengthAdjust="spacingAndGlyphs" textLength="79" x="2866" y="514.2231">return query</text><polygon fill="#A80036" points="3633.5,544.4219,3643.5,548.4219,3633.5,552.4219,3637.5,548.4219" style="stroke: #A80036; stroke-width: 1.0;"/><line style="stroke: #A80036; stroke-width: 1.0;" x1="2849" x2="3639.5" y1="548.4219" y2="548.4219"/><text fill="#000000" font-family="sans-serif" font-size="13" lengthAdjust="spacingAndGlyphs" textLength="69" x="2856" y="543.356">find(query)</text><polygon fill="#A80036" points="2860,573.5547,2850,577.5547,2860,581.5547,2856,577.5547" style="stroke: #A80036; stroke-width: 1.0;"/><line style="stroke: #A80036; stroke-width: 1.0; stroke-dasharray: 2.0,2.0;" x1="2854" x2="3649.5" y1="577.5547" y2="577.5547"/><text fill="#000000" font-family="sans-serif" font-size="13" lengthAdjust="spacingAndGlyphs" textLength="147" x="2866" y="572.4888">return filtered buildings</text><polygon fill="#A80036" points="2608,602.6875,2598,606.6875,2608,610.6875,2604,606.6875" style="stroke: #A80036; stroke-width: 1.0;"/><line style="stroke: #A80036; stroke-width: 1.0; stroke-dasharray: 2.0,2.0;" x1="2602" x2="2843" y1="606.6875" y2="606.6875"/><text fill="#000000" font-family="sans-serif" font-size="13" lengthAdjust="spacingAndGlyphs" textLength="147" x="2614" y="601.6216">return filtered buildings</text><polygon fill="#A80036" points="2304,631.8203,2294,635.8203,2304,639.8203,2300,635.8203" style="stroke: #A80036; stroke-width: 1.0;"/><line style="stroke: #A80036; stroke-width: 1.0; stroke-dasharray: 2.0,2.0;" x1="2298" x2="2591" y1="635.8203" y2="635.8203"/><text fill="#000000" font-family="sans-serif" font-size="13" lengthAdjust="spacingAndGlyphs" textLength="104" x="2310" y="630.7544">filtered buildings</text><polygon fill="#A80036" points="2951,660.9531,2961,664.9531,2951,668.9531,2955,664.9531" style="stroke: #A80036; stroke-width: 1.0;"/><line style="stroke: #A80036; stroke-width: 1.0;" x1="2293" x2="2957" y1="664.9531" y2="664.9531"/><text fill="#000000" font-family="sans-serif" font-size="13" lengthAdjust="spacingAndGlyphs" textLength="158" x="2300" y="659.8872">toDTOs(filteredBuildings)</text><polygon fill="#A80036" points="2304,690.0859,2294,694.0859,2304,698.0859,2300,694.0859" style="stroke: #A80036; stroke-width: 1.0;"/><line style="stroke: #A80036; stroke-width: 1.0; stroke-dasharray: 2.0,2.0;" x1="2298" x2="2967" y1="694.0859" y2="694.0859"/><text fill="#000000" font-family="sans-serif" font-size="13" lengthAdjust="spacingAndGlyphs" textLength="164" x="2310" y="689.02">return list of buildingDTOs</text><polygon fill="#A80036" points="2000,719.2188,1990,723.2188,2000,727.2188,1996,723.2188" style="stroke: #A80036; stroke-width: 1.0;"/><line style="stroke: #A80036; stroke-width: 1.0; stroke-dasharray: 2.0,2.0;" x1="1994" x2="2287" y1="723.2188" y2="723.2188"/><text fill="#000000" font-family="sans-serif" font-size="13" lengthAdjust="spacingAndGlyphs" textLength="164" x="2006" y="718.1528">return list of buildingDTOs</text><polygon fill="#A80036" points="1696,748.3516,1686,752.3516,1696,756.3516,1692,752.3516" style="stroke: #A80036; stroke-width: 1.0;"/><line style="stroke: #A80036; stroke-width: 1.0; stroke-dasharray: 2.0,2.0;" x1="1690" x2="1983" y1="752.3516" y2="752.3516"/><text fill="#000000" font-family="sans-serif" font-size="13" lengthAdjust="spacingAndGlyphs" textLength="167" x="1702" y="747.2856">Return list of buildingDTOs</text><polygon fill="#A80036" points="1287,777.4844,1277,781.4844,1287,785.4844,1283,781.4844" style="stroke: #A80036; stroke-width: 1.0;"/><line style="stroke: #A80036; stroke-width: 1.0;" x1="1281" x2="1674" y1="781.4844" y2="781.4844"/><text fill="#000000" font-family="sans-serif" font-size="13" lengthAdjust="spacingAndGlyphs" textLength="375" x="1293" y="776.4185">Send response with status 200 and the list of buildingDTOs</text><polygon fill="#A80036" points="1005,806.6172,995,810.6172,1005,814.6172,1001,810.6172" style="stroke: #A80036; stroke-width: 1.0;"/><line style="stroke: #A80036; stroke-width: 1.0;" x1="999" x2="1265" y1="810.6172" y2="810.6172"/><text fill="#000000" font-family="sans-serif" font-size="13" lengthAdjust="spacingAndGlyphs" textLength="113" x="1011" y="805.5513">Forward response</text><polygon fill="#A80036" points="767,835.75,757,839.75,767,843.75,763,839.75" style="stroke: #A80036; stroke-width: 1.0;"/><line style="stroke: #A80036; stroke-width: 1.0;" x1="761" x2="993" y1="839.75" y2="839.75"/><text fill="#000000" font-family="sans-serif" font-size="13" lengthAdjust="spacingAndGlyphs" textLength="113" x="773" y="834.6841">Forward response</text><polygon fill="#A80036" points="522,864.8828,512,868.8828,522,872.8828,518,868.8828" style="stroke: #A80036; stroke-width: 1.0;"/><line style="stroke: #A80036; stroke-width: 1.0;" x1="516" x2="755" y1="868.8828" y2="868.8828"/><text fill="#000000" font-family="sans-serif" font-size="13" lengthAdjust="spacingAndGlyphs" textLength="221" x="528" y="863.8169">Display result (list of buildingDTOs)</text><polygon fill="#A80036" points="261,894.0156,251,898.0156,261,902.0156,257,898.0156" style="stroke: #A80036; stroke-width: 1.0;"/><line style="stroke: #A80036; stroke-width: 1.0;" x1="255" x2="510" y1="898.0156" y2="898.0156"/><text fill="#000000" font-family="sans-serif" font-size="13" lengthAdjust="spacingAndGlyphs" textLength="191" x="267" y="892.9497">Update view to show buildings</text><polygon fill="#A80036" points="44,923.1484,34,927.1484,44,931.1484,40,927.1484" style="stroke: #A80036; stroke-width: 1.0;"/><line style="stroke: #A80036; stroke-width: 1.0;" x1="38" x2="249" y1="927.1484" y2="927.1484"/><text fill="#000000" font-family="sans-serif" font-size="13" lengthAdjust="spacingAndGlyphs" textLength="193" x="50" y="922.0825">Show filtered buildings to User</text><!--MD5=[391ffba26871d3ed00781dd51ba74de0]
@startuml findByFloors

participant "User" as A
participant ":View" as sys
participant ":FE_Component" as comp
participant ":FE_Service" as FEsrvc
participant ":Routing" as route
participant "IBuildingController" as IB
participant "BuildingController" as B
participant "IBuildingsService" as IC
participant "BuildingsService" as C
participant "IBuildingsRepo" as ID
participant "BuildingsRepo" as D
participant "BuildingsMap" as F
participant "Building Entity" as E
participant "ConfigFile" as CONF
participant "IBuildingPersistence" as IH
participant "BuildingPersistence" as H
participant "BuildingSchema" as I

A -> sys: Accesses web interface
sys -> comp: Display form to input floor range
comp -> sys: User inputs minFloors and maxFloors
sys -> FEsrvc: Submit floor range
FEsrvc -> route: Request to find buildings by floors
route -> IB: Forward request (minFloors, maxFloors)

A -> IB: send request to findByFloors(minFloors, maxFloors)
activate IB

IB -> B: findByFloors(minFloors, maxFloors)
activate B

B -> CONF: Injects Service
activate CONF
CONF -> B
deactivate CONF

B -> IC: listBuildingsByFloors(minFloors, maxFloors)
activate IC

IC -> C: listBuildingsByFloors(minFloors, maxFloors)
activate C

C -> ID: listBuildingsByFloors(minFloors, maxFloors)
activate ID

ID -> D: findByFloors(minFloors, maxFloors)
activate D

D -> IH: query = FilterQuery(minFloors, maxFloors)
activate IH
IH -> H
activate H
H -> IH
deactivate H
IH -> D: return query
deactivate IH
D -> I: find(query)
activate I
I - -> D: return filtered buildings
deactivate I
D - -> ID: return filtered buildings
deactivate D
ID - -> C: filtered buildings
deactivate ID

C -> F: toDTOs(filteredBuildings)
activate F
F - -> C: return list of buildingDTOs
deactivate F

C - -> IC: return list of buildingDTOs
deactivate C

IC - -> B: Return list of buildingDTOs
deactivate IC

B -> IB: Send response with status 200 and the list of buildingDTOs
IB -> route: Forward response

route -> FEsrvc: Forward response
FEsrvc -> comp: Display result (list of buildingDTOs)
comp -> sys: Update view to show buildings
sys -> A: Show filtered buildings to User

@enduml

PlantUML version 1.2020.02(Sun Mar 01 10:22:07 UTC 2020)
(GPL source distribution)
Java Runtime: OpenJDK Runtime Environment
JVM: OpenJDK 64-Bit Server VM
Java Version: 11.0.21+9
Operating System: Linux
Default Encoding: UTF-8
Language: en
Country: null
--></g></svg>