<?xml version="1.0" encoding="UTF-8" standalone="no"?><svg xmlns="http://www.w3.org/2000/svg" xmlns:xlink="http://www.w3.org/1999/xlink" contentStyleType="text/css" height="358px" preserveAspectRatio="none" style="width:579px;height:358px;background:#FFFFFF;" version="1.1" viewBox="0 0 579 358" width="579px" zoomAndPan="magnify"><defs/><g><line style="stroke:#181818;stroke-width:0.5;stroke-dasharray:5.0,5.0;" x1="23" x2="23" y1="81.4883" y2="277.3516"/><line style="stroke:#181818;stroke-width:0.5;stroke-dasharray:5.0,5.0;" x1="189" x2="189" y1="81.4883" y2="277.3516"/><line style="stroke:#181818;stroke-width:0.5;stroke-dasharray:5.0,5.0;" x1="355" x2="355" y1="81.4883" y2="277.3516"/><line style="stroke:#181818;stroke-width:0.5;stroke-dasharray:5.0,5.0;" x1="521.5" x2="521.5" y1="81.4883" y2="277.3516"/><text fill="#000000" font-family="sans-serif" font-size="14" lengthAdjust="spacing" textLength="31" x="5" y="78.5352">User</text><ellipse cx="23.5" cy="13.5" fill="#E2E2F0" rx="8" ry="8" style="stroke:#181818;stroke-width:0.5;"/><path d="M23.5,21.5 L23.5,48.5 M10.5,29.5 L36.5,29.5 M23.5,48.5 L10.5,63.5 M23.5,48.5 L36.5,63.5 " fill="none" style="stroke:#181818;stroke-width:0.5;"/><text fill="#000000" font-family="sans-serif" font-size="14" lengthAdjust="spacing" textLength="31" x="5" y="289.8867">User</text><ellipse cx="23.5" cy="301.3398" fill="#E2E2F0" rx="8" ry="8" style="stroke:#181818;stroke-width:0.5;"/><path d="M23.5,309.3398 L23.5,336.3398 M10.5,317.3398 L36.5,317.3398 M23.5,336.3398 L10.5,351.3398 M23.5,336.3398 L36.5,351.3398 " fill="none" style="stroke:#181818;stroke-width:0.5;"/><rect fill="#E2E2F0" height="30.4883" rx="2.5" ry="2.5" style="stroke:#181818;stroke-width:0.5;" width="81" x="149" y="50"/><text fill="#000000" font-family="sans-serif" font-size="14" lengthAdjust="spacing" textLength="67" x="156" y="70.5352">:FrontEnd</text><rect fill="#E2E2F0" height="30.4883" rx="2.5" ry="2.5" style="stroke:#181818;stroke-width:0.5;" width="81" x="149" y="276.3516"/><text fill="#000000" font-family="sans-serif" font-size="14" lengthAdjust="spacing" textLength="67" x="156" y="296.8867">:FrontEnd</text><rect fill="#E2E2F0" height="30.4883" rx="2.5" ry="2.5" style="stroke:#181818;stroke-width:0.5;" width="151" x="280" y="50"/><text fill="#000000" font-family="sans-serif" font-size="14" lengthAdjust="spacing" textLength="137" x="287" y="70.5352">:BuildingsController</text><rect fill="#E2E2F0" height="30.4883" rx="2.5" ry="2.5" style="stroke:#181818;stroke-width:0.5;" width="151" x="280" y="276.3516"/><text fill="#000000" font-family="sans-serif" font-size="14" lengthAdjust="spacing" textLength="137" x="287" y="296.8867">:BuildingsController</text><text fill="#000000" font-family="sans-serif" font-size="14" lengthAdjust="spacing" textLength="108" x="464.5" y="78.5352">:BuildingService</text><path d="M503.5,29 C503.5,19 521.5,19 521.5,19 C521.5,19 539.5,19 539.5,29 L539.5,55 C539.5,65 521.5,65 521.5,65 C521.5,65 503.5,65 503.5,55 L503.5,29 " fill="#E2E2F0" style="stroke:#181818;stroke-width:1.5;"/><path d="M503.5,29 C503.5,39 521.5,39 521.5,39 C521.5,39 539.5,39 539.5,29 " fill="none" style="stroke:#181818;stroke-width:1.5;"/><text fill="#000000" font-family="sans-serif" font-size="14" lengthAdjust="spacing" textLength="108" x="464.5" y="289.8867">:BuildingService</text><path d="M503.5,302.8398 C503.5,292.8398 521.5,292.8398 521.5,292.8398 C521.5,292.8398 539.5,292.8398 539.5,302.8398 L539.5,328.8398 C539.5,338.8398 521.5,338.8398 521.5,338.8398 C521.5,338.8398 503.5,338.8398 503.5,328.8398 L503.5,302.8398 " fill="#E2E2F0" style="stroke:#181818;stroke-width:1.5;"/><path d="M503.5,302.8398 C503.5,312.8398 521.5,312.8398 521.5,312.8398 C521.5,312.8398 539.5,312.8398 539.5,302.8398 " fill="none" style="stroke:#181818;stroke-width:1.5;"/><polygon fill="#181818" points="177.5,108.7988,187.5,112.7988,177.5,116.7988,181.5,112.7988" style="stroke:#181818;stroke-width:1.0;"/><line style="stroke:#181818;stroke-width:1.0;" x1="23.5" x2="183.5" y1="112.7988" y2="112.7988"/><text fill="#000000" font-family="sans-serif" font-size="13" lengthAdjust="spacing" textLength="121" x="30.5" y="108.0566">Request to findAll()</text><polygon fill="#181818" points="343.5,138.1094,353.5,142.1094,343.5,146.1094,347.5,142.1094" style="stroke:#181818;stroke-width:1.0;"/><line style="stroke:#181818;stroke-width:1.0;" x1="189.5" x2="349.5" y1="142.1094" y2="142.1094"/><text fill="#000000" font-family="sans-serif" font-size="13" lengthAdjust="spacing" textLength="50" x="196.5" y="137.3672">findAll()</text><polygon fill="#181818" points="509.5,167.4199,519.5,171.4199,509.5,175.4199,513.5,171.4199" style="stroke:#181818;stroke-width:1.0;"/><line style="stroke:#181818;stroke-width:1.0;" x1="355.5" x2="515.5" y1="171.4199" y2="171.4199"/><text fill="#000000" font-family="sans-serif" font-size="13" lengthAdjust="spacing" textLength="50" x="362.5" y="166.6777">findAll()</text><polygon fill="#181818" points="366.5,196.7305,356.5,200.7305,366.5,204.7305,362.5,200.7305" style="stroke:#181818;stroke-width:1.0;"/><line style="stroke:#181818;stroke-width:1.0;stroke-dasharray:2.0,2.0;" x1="360.5" x2="520.5" y1="200.7305" y2="200.7305"/><text fill="#000000" font-family="sans-serif" font-size="13" lengthAdjust="spacing" textLength="142" x="372.5" y="195.9883">List of Building Names</text><polygon fill="#181818" points="200.5,226.041,190.5,230.041,200.5,234.041,196.5,230.041" style="stroke:#181818;stroke-width:1.0;"/><line style="stroke:#181818;stroke-width:1.0;stroke-dasharray:2.0,2.0;" x1="194.5" x2="354.5" y1="230.041" y2="230.041"/><text fill="#000000" font-family="sans-serif" font-size="13" lengthAdjust="spacing" textLength="142" x="206.5" y="225.2988">List of Building Names</text><polygon fill="#181818" points="34.5,255.3516,24.5,259.3516,34.5,263.3516,30.5,259.3516" style="stroke:#181818;stroke-width:1.0;"/><line style="stroke:#181818;stroke-width:1.0;stroke-dasharray:2.0,2.0;" x1="28.5" x2="188.5" y1="259.3516" y2="259.3516"/><text fill="#000000" font-family="sans-serif" font-size="13" lengthAdjust="spacing" textLength="142" x="40.5" y="254.6094">List of Building Names</text><!--MD5=[dfafe76f7dfdc67e69c5669b0d094f08]
@startuml
actor "User" as user
participant ":FrontEnd" as frontend
participant ":BuildingsController" as controller
database ":BuildingService" as service

user -> frontend: Request to findAll()
frontend -> controller: findAll()
controller -> service: findAll()
service - -> controller: List of Building Names
controller - -> frontend: List of Building Names
frontend - -> user: List of Building Names
@enduml

PlantUML version 1.2022.7(Mon Aug 22 18:01:30 WEST 2022)
(GPL source distribution)
Java Runtime: OpenJDK Runtime Environment
JVM: OpenJDK 64-Bit Server VM
Default Encoding: UTF-8
Language: pt
Country: PT
--></g></svg>