<?xml version="1.0" encoding="UTF-8" standalone="no"?><svg xmlns="http://www.w3.org/2000/svg" xmlns:xlink="http://www.w3.org/1999/xlink" contentScriptType="application/ecmascript" contentStyleType="text/css" height="372px" preserveAspectRatio="none" style="width:314px;height:372px;" version="1.1" viewBox="0 0 314 372" width="314px" zoomAndPan="magnify"><defs><filter height="300%" id="f9qyvimccvnln" width="300%" x="-1" y="-1"><feGaussianBlur result="blurOut" stdDeviation="2.0"/><feColorMatrix in="blurOut" result="blurOut2" type="matrix" values="0 0 0 0 0 0 0 0 0 0 0 0 0 0 0 0 0 0 .4 0"/><feOffset dx="4.0" dy="4.0" in="blurOut2" result="blurOut3"/><feBlend in="SourceGraphic" in2="blurOut3" mode="normal"/></filter></defs><g><rect fill="#FFFFFF" filter="url(#f9qyvimccvnln)" height="179.7969" style="stroke: #A80036; stroke-width: 1.0;" width="10" x="42.5" y="96.2969"/><rect fill="#FFFFFF" filter="url(#f9qyvimccvnln)" height="157.6641" style="stroke: #A80036; stroke-width: 1.0;" width="10" x="250.5" y="117.4297"/><rect fill="#FFFFFF" filter="url(#f9qyvimccvnln)" height="77.3984" style="stroke: #000000; stroke-width: 2.0;" width="289.5" x="13" y="190.6953"/><rect fill="#FFFFFF" height="31.1328" style="stroke: none; stroke-width: 1.0;" width="289.5" x="13" y="236.9609"/><line style="stroke: #A80036; stroke-width: 1.0; stroke-dasharray: 5.0,5.0;" x1="47" x2="47" y1="86.2969" y2="285.0938"/><line style="stroke: #A80036; stroke-width: 1.0; stroke-dasharray: 5.0,5.0;" x1="255.5" x2="255.5" y1="86.2969" y2="285.0938"/><text fill="#000000" font-family="sans-serif" font-size="14" lengthAdjust="spacingAndGlyphs" textLength="43" x="23" y="82.9951">Admin</text><ellipse cx="47.5" cy="13" fill="#FEFECE" filter="url(#f9qyvimccvnln)" rx="8" ry="8" style="stroke: #A80036; stroke-width: 2.0;"/><path d="M47.5,21 L47.5,48 M34.5,29 L60.5,29 M47.5,48 L34.5,63 M47.5,48 L60.5,63 " fill="none" filter="url(#f9qyvimccvnln)" style="stroke: #A80036; stroke-width: 2.0;"/><text fill="#000000" font-family="sans-serif" font-size="14" lengthAdjust="spacingAndGlyphs" textLength="43" x="23" y="297.0889">Admin</text><ellipse cx="47.5" cy="310.3906" fill="#FEFECE" filter="url(#f9qyvimccvnln)" rx="8" ry="8" style="stroke: #A80036; stroke-width: 2.0;"/><path d="M47.5,318.3906 L47.5,345.3906 M34.5,326.3906 L60.5,326.3906 M47.5,345.3906 L34.5,360.3906 M47.5,345.3906 L60.5,360.3906 " fill="none" filter="url(#f9qyvimccvnln)" style="stroke: #A80036; stroke-width: 2.0;"/><rect fill="#FEFECE" filter="url(#f9qyvimccvnln)" height="30.2969" style="stroke: #A80036; stroke-width: 1.5;" width="70" x="218.5" y="51"/><text fill="#000000" font-family="sans-serif" font-size="14" lengthAdjust="spacingAndGlyphs" textLength="56" x="225.5" y="70.9951">:System</text><rect fill="#FEFECE" filter="url(#f9qyvimccvnln)" height="30.2969" style="stroke: #A80036; stroke-width: 1.5;" width="70" x="218.5" y="284.0938"/><text fill="#000000" font-family="sans-serif" font-size="14" lengthAdjust="spacingAndGlyphs" textLength="56" x="225.5" y="304.0889">:System</text><rect fill="#FFFFFF" filter="url(#f9qyvimccvnln)" height="179.7969" style="stroke: #A80036; stroke-width: 1.0;" width="10" x="42.5" y="96.2969"/><rect fill="#FFFFFF" filter="url(#f9qyvimccvnln)" height="157.6641" style="stroke: #A80036; stroke-width: 1.0;" width="10" x="250.5" y="117.4297"/><polygon fill="#A80036" points="238.5,113.4297,248.5,117.4297,238.5,121.4297,242.5,117.4297" style="stroke: #A80036; stroke-width: 1.0;"/><line style="stroke: #A80036; stroke-width: 1.0;" x1="52.5" x2="244.5" y1="117.4297" y2="117.4297"/><text fill="#000000" font-family="sans-serif" font-size="13" font-weight="bold" lengthAdjust="spacingAndGlyphs" textLength="9" x="59.5" y="112.3638">1</text><text fill="#000000" font-family="sans-serif" font-size="13" lengthAdjust="spacingAndGlyphs" textLength="157" x="72.5" y="112.3638">call listAllFloorsInBuilding</text><polygon fill="#A80036" points="63.5,142.5625,53.5,146.5625,63.5,150.5625,59.5,146.5625" style="stroke: #A80036; stroke-width: 1.0;"/><line style="stroke: #A80036; stroke-width: 1.0; stroke-dasharray: 2.0,2.0;" x1="57.5" x2="249.5" y1="146.5625" y2="146.5625"/><text fill="#000000" font-family="sans-serif" font-size="13" font-weight="bold" lengthAdjust="spacingAndGlyphs" textLength="9" x="69.5" y="141.4966">2</text><text fill="#000000" font-family="sans-serif" font-size="13" lengthAdjust="spacingAndGlyphs" textLength="161" x="82.5" y="141.4966">request necessary data()</text><polygon fill="#A80036" points="238.5,171.6953,248.5,175.6953,238.5,179.6953,242.5,175.6953" style="stroke: #A80036; stroke-width: 1.0;"/><line style="stroke: #A80036; stroke-width: 1.0;" x1="52.5" x2="244.5" y1="175.6953" y2="175.6953"/><text fill="#000000" font-family="sans-serif" font-size="13" font-weight="bold" lengthAdjust="spacingAndGlyphs" textLength="9" x="59.5" y="170.6294">3</text><text fill="#000000" font-family="sans-serif" font-size="13" lengthAdjust="spacingAndGlyphs" textLength="112" x="72.5" y="170.6294">insert all the data</text><path d="M13,190.6953 L77,190.6953 L77,197.6953 L67,207.6953 L13,207.6953 L13,190.6953 " fill="#EEEEEE" style="stroke: #000000; stroke-width: 1.0;"/><rect fill="none" height="77.3984" style="stroke: #000000; stroke-width: 2.0;" width="289.5" x="13" y="190.6953"/><text fill="#000000" font-family="sans-serif" font-size="13" font-weight="bold" lengthAdjust="spacingAndGlyphs" textLength="19" x="28" y="203.7622">alt</text><text fill="#000000" font-family="sans-serif" font-size="11" font-weight="bold" lengthAdjust="spacingAndGlyphs" textLength="112" x="92" y="202.9058">[successful case]</text><polygon fill="#A80036" points="63.5,224.9609,53.5,228.9609,63.5,232.9609,59.5,228.9609" style="stroke: #A80036; stroke-width: 1.0;"/><line style="stroke: #A80036; stroke-width: 1.0; stroke-dasharray: 2.0,2.0;" x1="57.5" x2="249.5" y1="228.9609" y2="228.9609"/><text fill="#000000" font-family="sans-serif" font-size="13" font-weight="bold" lengthAdjust="spacingAndGlyphs" textLength="9" x="69.5" y="223.895">4</text><text fill="#000000" font-family="sans-serif" font-size="13" lengthAdjust="spacingAndGlyphs" textLength="150" x="82.5" y="223.895">show success message</text><line style="stroke: #000000; stroke-width: 1.0; stroke-dasharray: 2.0,2.0;" x1="13" x2="302.5" y1="237.9609" y2="237.9609"/><polygon fill="#A80036" points="63.5,256.0938,53.5,260.0938,63.5,264.0938,59.5,260.0938" style="stroke: #A80036; stroke-width: 1.0;"/><line style="stroke: #A80036; stroke-width: 1.0; stroke-dasharray: 2.0,2.0;" x1="57.5" x2="249.5" y1="260.0938" y2="260.0938"/><text fill="#000000" font-family="sans-serif" font-size="13" font-weight="bold" lengthAdjust="spacingAndGlyphs" textLength="9" x="69.5" y="255.0278">5</text><text fill="#000000" font-family="sans-serif" font-size="13" lengthAdjust="spacingAndGlyphs" textLength="138" x="82.5" y="255.0278">show failure message</text><!--MD5=[c4cffde0d6b10bf26778f1ea8e591023]
@startuml
autonumber
actor "Admin" as admin

participant ":System" as sys

activate admin

admin -> sys: call listAllFloorsInBuilding
activate sys

sys - -> admin: request necessary data()
admin -> sys : insert all the data

alt successful case
    sys - -> admin: show success message
else
    sys - -> admin: show failure message
end
deactivate sys
@enduml

PlantUML version 1.2020.02(Sun Mar 01 10:22:07 UTC 2020)
(GPL source distribution)
Java Runtime: OpenJDK Runtime Environment
JVM: OpenJDK 64-Bit Server VM
Java Version: 11.0.21+9
Operating System: Linux
Default Encoding: UTF-8
Language: en
Country: null
--></g></svg>