<?xml version="1.0" encoding="UTF-8" standalone="no"?><svg xmlns="http://www.w3.org/2000/svg" xmlns:xlink="http://www.w3.org/1999/xlink" contentScriptType="application/ecmascript" contentStyleType="text/css" height="501px" preserveAspectRatio="none" style="width:1286px;height:501px;" version="1.1" viewBox="0 0 1286 501" width="1286px" zoomAndPan="magnify"><defs><filter height="300%" id="f1d0htbleyt4jb" width="300%" x="-1" y="-1"><feGaussianBlur result="blurOut" stdDeviation="2.0"/><feColorMatrix in="blurOut" result="blurOut2" type="matrix" values="0 0 0 0 0 0 0 0 0 0 0 0 0 0 0 0 0 0 .4 0"/><feOffset dx="4.0" dy="4.0" in="blurOut2" result="blurOut3"/><feBlend in="SourceGraphic" in2="blurOut3" mode="normal"/></filter></defs><g><rect fill="#FFFFFF" filter="url(#f1d0htbleyt4jb)" height="228.7344" style="stroke: #A80036; stroke-width: 1.0;" width="10" x="616" y="146.5625"/><rect fill="#FFFFFF" filter="url(#f1d0htbleyt4jb)" height="87.3984" style="stroke: #A80036; stroke-width: 1.0;" width="10" x="920" y="175.6953"/><rect fill="#FFFFFF" filter="url(#f1d0htbleyt4jb)" height="29.1328" style="stroke: #A80036; stroke-width: 1.0;" width="10" x="1230" y="204.8281"/><rect fill="#FFFFFF" filter="url(#f1d0htbleyt4jb)" height="90.2031" style="stroke: #000000; stroke-width: 2.0;" width="434.5" x="269" y="278.0938"/><rect fill="#FFFFFF" height="43.9375" style="stroke: none; stroke-width: 1.0;" width="434.5" x="269" y="324.3594"/><line style="stroke: #A80036; stroke-width: 1.0; stroke-dasharray: 5.0,5.0;" x1="27" x2="27" y1="86.2969" y2="414.4297"/><line style="stroke: #A80036; stroke-width: 1.0; stroke-dasharray: 5.0,5.0;" x1="322" x2="322" y1="86.2969" y2="414.4297"/><line style="stroke: #A80036; stroke-width: 1.0; stroke-dasharray: 5.0,5.0;" x1="620.5" x2="620.5" y1="86.2969" y2="414.4297"/><line style="stroke: #A80036; stroke-width: 1.0; stroke-dasharray: 5.0,5.0;" x1="925" x2="925" y1="86.2969" y2="414.4297"/><line style="stroke: #A80036; stroke-width: 1.0; stroke-dasharray: 5.0,5.0;" x1="1234.5" x2="1234.5" y1="86.2969" y2="414.4297"/><text fill="#000000" font-family="sans-serif" font-size="14" lengthAdjust="spacingAndGlyphs" textLength="32" x="8" y="82.9951">User</text><ellipse cx="27" cy="13" fill="#FEFECE" filter="url(#f1d0htbleyt4jb)" rx="8" ry="8" style="stroke: #A80036; stroke-width: 2.0;"/><path d="M27,21 L27,48 M14,29 L40,29 M27,48 L14,63 M27,48 L40,63 " fill="none" filter="url(#f1d0htbleyt4jb)" style="stroke: #A80036; stroke-width: 2.0;"/><text fill="#000000" font-family="sans-serif" font-size="14" lengthAdjust="spacingAndGlyphs" textLength="32" x="8" y="426.4248">User</text><ellipse cx="27" cy="439.7266" fill="#FEFECE" filter="url(#f1d0htbleyt4jb)" rx="8" ry="8" style="stroke: #A80036; stroke-width: 2.0;"/><path d="M27,447.7266 L27,474.7266 M14,455.7266 L40,455.7266 M27,474.7266 L14,489.7266 M27,474.7266 L40,489.7266 " fill="none" filter="url(#f1d0htbleyt4jb)" style="stroke: #A80036; stroke-width: 2.0;"/><rect fill="#FEFECE" filter="url(#f1d0htbleyt4jb)" height="30.2969" style="stroke: #A80036; stroke-width: 1.5;" width="82" x="279" y="51"/><text fill="#000000" font-family="sans-serif" font-size="14" lengthAdjust="spacingAndGlyphs" textLength="68" x="286" y="70.9951">:FrontEnd</text><rect fill="#FEFECE" filter="url(#f1d0htbleyt4jb)" height="30.2969" style="stroke: #A80036; stroke-width: 1.5;" width="82" x="279" y="413.4297"/><text fill="#000000" font-family="sans-serif" font-size="14" lengthAdjust="spacingAndGlyphs" textLength="68" x="286" y="433.4248">:FrontEnd</text><rect fill="#FEFECE" filter="url(#f1d0htbleyt4jb)" height="30.2969" style="stroke: #A80036; stroke-width: 1.5;" width="141" x="548.5" y="51"/><text fill="#000000" font-family="sans-serif" font-size="14" lengthAdjust="spacingAndGlyphs" textLength="127" x="555.5" y="70.9951">:BuildingController</text><rect fill="#FEFECE" filter="url(#f1d0htbleyt4jb)" height="30.2969" style="stroke: #A80036; stroke-width: 1.5;" width="141" x="548.5" y="413.4297"/><text fill="#000000" font-family="sans-serif" font-size="14" lengthAdjust="spacingAndGlyphs" textLength="127" x="555.5" y="433.4248">:BuildingController</text><rect fill="#FEFECE" filter="url(#f1d0htbleyt4jb)" height="30.2969" style="stroke: #A80036; stroke-width: 1.5;" width="124" x="861" y="51"/><text fill="#000000" font-family="sans-serif" font-size="14" lengthAdjust="spacingAndGlyphs" textLength="110" x="868" y="70.9951">:BuildingService</text><rect fill="#FEFECE" filter="url(#f1d0htbleyt4jb)" height="30.2969" style="stroke: #A80036; stroke-width: 1.5;" width="124" x="861" y="413.4297"/><text fill="#000000" font-family="sans-serif" font-size="14" lengthAdjust="spacingAndGlyphs" textLength="110" x="868" y="433.4248">:BuildingService</text><rect fill="#FEFECE" filter="url(#f1d0htbleyt4jb)" height="30.2969" style="stroke: #A80036; stroke-width: 1.5;" width="85" x="1190.5" y="51"/><text fill="#000000" font-family="sans-serif" font-size="14" lengthAdjust="spacingAndGlyphs" textLength="71" x="1197.5" y="70.9951">:Database</text><rect fill="#FEFECE" filter="url(#f1d0htbleyt4jb)" height="30.2969" style="stroke: #A80036; stroke-width: 1.5;" width="85" x="1190.5" y="413.4297"/><text fill="#000000" font-family="sans-serif" font-size="14" lengthAdjust="spacingAndGlyphs" textLength="71" x="1197.5" y="433.4248">:Database</text><rect fill="#FFFFFF" filter="url(#f1d0htbleyt4jb)" height="228.7344" style="stroke: #A80036; stroke-width: 1.0;" width="10" x="616" y="146.5625"/><rect fill="#FFFFFF" filter="url(#f1d0htbleyt4jb)" height="87.3984" style="stroke: #A80036; stroke-width: 1.0;" width="10" x="920" y="175.6953"/><rect fill="#FFFFFF" filter="url(#f1d0htbleyt4jb)" height="29.1328" style="stroke: #A80036; stroke-width: 1.0;" width="10" x="1230" y="204.8281"/><polygon fill="#A80036" points="310,113.4297,320,117.4297,310,121.4297,314,117.4297" style="stroke: #A80036; stroke-width: 1.0;"/><line style="stroke: #A80036; stroke-width: 1.0;" x1="27" x2="316" y1="117.4297" y2="117.4297"/><text fill="#000000" font-family="sans-serif" font-size="13" lengthAdjust="spacingAndGlyphs" textLength="271" x="34" y="112.3638">Access web interface and input floor range</text><polygon fill="#A80036" points="604,142.5625,614,146.5625,604,150.5625,608,146.5625" style="stroke: #A80036; stroke-width: 1.0;"/><line style="stroke: #A80036; stroke-width: 1.0;" x1="322" x2="610" y1="146.5625" y2="146.5625"/><text fill="#000000" font-family="sans-serif" font-size="13" lengthAdjust="spacingAndGlyphs" textLength="269" x="329" y="141.4966">Submit floor range (minFloors, maxFloors)</text><polygon fill="#A80036" points="908,171.6953,918,175.6953,908,179.6953,912,175.6953" style="stroke: #A80036; stroke-width: 1.0;"/><line style="stroke: #A80036; stroke-width: 1.0;" x1="626" x2="914" y1="175.6953" y2="175.6953"/><text fill="#000000" font-family="sans-serif" font-size="13" lengthAdjust="spacingAndGlyphs" textLength="275" x="633" y="170.6294">listBuildingsByFloors(minFloors, maxFloors)</text><polygon fill="#A80036" points="1218,200.8281,1228,204.8281,1218,208.8281,1222,204.8281" style="stroke: #A80036; stroke-width: 1.0;"/><line style="stroke: #A80036; stroke-width: 1.0;" x1="930" x2="1224" y1="204.8281" y2="204.8281"/><text fill="#000000" font-family="sans-serif" font-size="13" lengthAdjust="spacingAndGlyphs" textLength="281" x="937" y="199.7622">Query for buildings with specified floor range</text><polygon fill="#A80036" points="941,229.9609,931,233.9609,941,237.9609,937,233.9609" style="stroke: #A80036; stroke-width: 1.0;"/><line style="stroke: #A80036; stroke-width: 1.0; stroke-dasharray: 2.0,2.0;" x1="935" x2="1234" y1="233.9609" y2="233.9609"/><text fill="#000000" font-family="sans-serif" font-size="13" lengthAdjust="spacingAndGlyphs" textLength="146" x="947" y="228.895">List of filtered buildings</text><polygon fill="#A80036" points="637,259.0938,627,263.0938,637,267.0938,633,263.0938" style="stroke: #A80036; stroke-width: 1.0;"/><line style="stroke: #A80036; stroke-width: 1.0; stroke-dasharray: 2.0,2.0;" x1="631" x2="924" y1="263.0938" y2="263.0938"/><text fill="#000000" font-family="sans-serif" font-size="13" lengthAdjust="spacingAndGlyphs" textLength="177" x="643" y="258.0278">List of buildingDTOs or error</text><path d="M269,278.0938 L333,278.0938 L333,285.0938 L323,295.0938 L269,295.0938 L269,278.0938 " fill="#EEEEEE" style="stroke: #000000; stroke-width: 1.0;"/><rect fill="none" height="90.2031" style="stroke: #000000; stroke-width: 2.0;" width="434.5" x="269" y="278.0938"/><text fill="#000000" font-family="sans-serif" font-size="13" font-weight="bold" lengthAdjust="spacingAndGlyphs" textLength="19" x="284" y="291.1606">alt</text><text fill="#000000" font-family="sans-serif" font-size="11" font-weight="bold" lengthAdjust="spacingAndGlyphs" textLength="175" x="348" y="290.3042">[List returned successfully]</text><polygon fill="#A80036" points="333,312.3594,323,316.3594,333,320.3594,329,316.3594" style="stroke: #A80036; stroke-width: 1.0;"/><line style="stroke: #A80036; stroke-width: 1.0; stroke-dasharray: 2.0,2.0;" x1="327" x2="615" y1="316.3594" y2="316.3594"/><text fill="#000000" font-family="sans-serif" font-size="13" lengthAdjust="spacingAndGlyphs" textLength="270" x="339" y="311.2935">Success response with list of buildingDTOs</text><line style="stroke: #000000; stroke-width: 1.0; stroke-dasharray: 2.0,2.0;" x1="269" x2="703.5" y1="325.3594" y2="325.3594"/><text fill="#000000" font-family="sans-serif" font-size="11" font-weight="bold" lengthAdjust="spacingAndGlyphs" textLength="138" x="274" y="335.5698">[Error in fetching list]</text><polygon fill="#A80036" points="333,356.2969,323,360.2969,333,364.2969,329,360.2969" style="stroke: #A80036; stroke-width: 1.0;"/><line style="stroke: #A80036; stroke-width: 1.0; stroke-dasharray: 2.0,2.0;" x1="327" x2="615" y1="360.2969" y2="360.2969"/><text fill="#000000" font-family="sans-serif" font-size="13" lengthAdjust="spacingAndGlyphs" textLength="94" x="339" y="355.231">Error response</text><polygon fill="#A80036" points="38,392.4297,28,396.4297,38,400.4297,34,396.4297" style="stroke: #A80036; stroke-width: 1.0;"/><line style="stroke: #A80036; stroke-width: 1.0;" x1="32" x2="321" y1="396.4297" y2="396.4297"/><text fill="#000000" font-family="sans-serif" font-size="13" lengthAdjust="spacingAndGlyphs" textLength="221" x="44" y="391.3638">Display buildings or error message</text><!--MD5=[ddb68b837519816e03511ecc92cb7128]
@startuml lvl2_findByFloors

actor "User" as A
participant ":FrontEnd" as frontend
participant ":BuildingController" as controller
participant ":BuildingService" as service
participant ":Database" as db

A -> frontend: Access web interface and input floor range
frontend -> controller: Submit floor range (minFloors, maxFloors)
activate controller

controller -> service: listBuildingsByFloors(minFloors, maxFloors)
activate service

service -> db: Query for buildings with specified floor range
activate db
db - -> service: List of filtered buildings
deactivate db

service - -> controller: List of buildingDTOs or error
deactivate service

alt List returned successfully
    controller - -> frontend: Success response with list of buildingDTOs
else Error in fetching list
    controller - -> frontend: Error response
end
deactivate controller

frontend -> A: Display buildings or error message

@enduml

PlantUML version 1.2020.02(Sun Mar 01 10:22:07 UTC 2020)
(GPL source distribution)
Java Runtime: OpenJDK Runtime Environment
JVM: OpenJDK 64-Bit Server VM
Java Version: 11.0.21+9
Operating System: Linux
Default Encoding: UTF-8
Language: en
Country: null
--></g></svg>