<?xml version="1.0" encoding="UTF-8" standalone="no"?><svg xmlns="http://www.w3.org/2000/svg" xmlns:xlink="http://www.w3.org/1999/xlink" contentScriptType="application/ecmascript" contentStyleType="text/css" height="984px" preserveAspectRatio="none" style="width:2073px;height:984px;" version="1.1" viewBox="0 0 2073 984" width="2073px" zoomAndPan="magnify"><defs><filter height="300%" id="f1zzv1u25toe" width="300%" x="-1" y="-1"><feGaussianBlur result="blurOut" stdDeviation="2.0"/><feColorMatrix in="blurOut" result="blurOut2" type="matrix" values="0 0 0 0 0 0 0 0 0 0 0 0 0 0 0 0 0 0 .4 0"/><feOffset dx="4.0" dy="4.0" in="blurOut2" result="blurOut3"/><feBlend in="SourceGraphic" in2="blurOut3" mode="normal"/></filter></defs><g><rect fill="#FFFFFF" filter="url(#f1zzv1u25toe)" height="790.5859" style="stroke: #A80036; stroke-width: 1.0;" width="10" x="42.5" y="96.2969"/><rect fill="#FFFFFF" filter="url(#f1zzv1u25toe)" height="769.4531" style="stroke: #A80036; stroke-width: 1.0;" width="10" x="282.5" y="117.4297"/><rect fill="#FFFFFF" filter="url(#f1zzv1u25toe)" height="711.1875" style="stroke: #A80036; stroke-width: 1.0;" width="10" x="447.5" y="175.6953"/><rect fill="#FFFFFF" filter="url(#f1zzv1u25toe)" height="682.0547" style="stroke: #A80036; stroke-width: 1.0;" width="10" x="646.5" y="204.8281"/><rect fill="#FFFFFF" filter="url(#f1zzv1u25toe)" height="652.9219" style="stroke: #A80036; stroke-width: 1.0;" width="10" x="807.5" y="233.9609"/><rect fill="#FFFFFF" filter="url(#f1zzv1u25toe)" height="623.7891" style="stroke: #A80036; stroke-width: 1.0;" width="10" x="998.5" y="263.0938"/><rect fill="#FFFFFF" filter="url(#f1zzv1u25toe)" height="262.1953" style="stroke: #A80036; stroke-width: 1.0;" width="10" x="1260.5" y="292.2266"/><rect fill="#FFFFFF" filter="url(#f1zzv1u25toe)" height="203.9297" style="stroke: #A80036; stroke-width: 1.0;" width="10" x="1506.5" y="321.3594"/><rect fill="#FFFFFF" filter="url(#f1zzv1u25toe)" height="87.3984" style="stroke: #A80036; stroke-width: 1.0;" width="10" x="1723.5" y="437.8906"/><rect fill="#FFFFFF" filter="url(#f1zzv1u25toe)" height="116.5313" style="stroke: #A80036; stroke-width: 1.0;" width="10" x="1875" y="408.7578"/><rect fill="#FFFFFF" filter="url(#f1zzv1u25toe)" height="29.1328" style="stroke: #A80036; stroke-width: 1.0;" width="10" x="2012" y="350.4922"/><rect fill="#FFFFFF" filter="url(#f1zzv1u25toe)" height="310.4609" style="stroke: #000000; stroke-width: 2.0;" width="1066.5" x="13" y="569.4219"/><rect fill="#FFFFFF" height="147.6641" style="stroke: none; stroke-width: 1.0;" width="1066.5" x="13" y="732.2188"/><line style="stroke: #A80036; stroke-width: 1.0; stroke-dasharray: 5.0,5.0;" x1="47" x2="47" y1="86.2969" y2="896.8828"/><line style="stroke: #A80036; stroke-width: 1.0; stroke-dasharray: 5.0,5.0;" x1="287" x2="287" y1="86.2969" y2="896.8828"/><line style="stroke: #A80036; stroke-width: 1.0; stroke-dasharray: 5.0,5.0;" x1="452" x2="452" y1="86.2969" y2="896.8828"/><line style="stroke: #A80036; stroke-width: 1.0; stroke-dasharray: 5.0,5.0;" x1="651" x2="651" y1="86.2969" y2="896.8828"/><line style="stroke: #A80036; stroke-width: 1.0; stroke-dasharray: 5.0,5.0;" x1="812" x2="812" y1="86.2969" y2="896.8828"/><line style="stroke: #A80036; stroke-width: 1.0; stroke-dasharray: 5.0,5.0;" x1="1003.5" x2="1003.5" y1="86.2969" y2="896.8828"/><line style="stroke: #A80036; stroke-width: 1.0; stroke-dasharray: 5.0,5.0;" x1="1265" x2="1265" y1="86.2969" y2="896.8828"/><line style="stroke: #A80036; stroke-width: 1.0; stroke-dasharray: 5.0,5.0;" x1="1511.5" x2="1511.5" y1="86.2969" y2="896.8828"/><line style="stroke: #A80036; stroke-width: 1.0; stroke-dasharray: 5.0,5.0;" x1="1728.5" x2="1728.5" y1="86.2969" y2="896.8828"/><line style="stroke: #A80036; stroke-width: 1.0; stroke-dasharray: 5.0,5.0;" x1="1879.5" x2="1879.5" y1="86.2969" y2="896.8828"/><line style="stroke: #A80036; stroke-width: 1.0; stroke-dasharray: 5.0,5.0;" x1="2016.5" x2="2016.5" y1="86.2969" y2="896.8828"/><text fill="#000000" font-family="sans-serif" font-size="14" lengthAdjust="spacingAndGlyphs" textLength="43" x="23" y="82.9951">Admin</text><ellipse cx="47.5" cy="13" fill="#FEFECE" filter="url(#f1zzv1u25toe)" rx="8" ry="8" style="stroke: #A80036; stroke-width: 2.0;"/><path d="M47.5,21 L47.5,48 M34.5,29 L60.5,29 M47.5,48 L34.5,63 M47.5,48 L60.5,63 " fill="none" filter="url(#f1zzv1u25toe)" style="stroke: #A80036; stroke-width: 2.0;"/><text fill="#000000" font-family="sans-serif" font-size="14" lengthAdjust="spacingAndGlyphs" textLength="43" x="23" y="908.8779">Admin</text><ellipse cx="47.5" cy="922.1797" fill="#FEFECE" filter="url(#f1zzv1u25toe)" rx="8" ry="8" style="stroke: #A80036; stroke-width: 2.0;"/><path d="M47.5,930.1797 L47.5,957.1797 M34.5,938.1797 L60.5,938.1797 M47.5,957.1797 L34.5,972.1797 M47.5,957.1797 L60.5,972.1797 " fill="none" filter="url(#f1zzv1u25toe)" style="stroke: #A80036; stroke-width: 2.0;"/><rect fill="#FEFECE" filter="url(#f1zzv1u25toe)" height="30.2969" style="stroke: #A80036; stroke-width: 1.5;" width="51" x="260" y="51"/><text fill="#000000" font-family="sans-serif" font-size="14" lengthAdjust="spacingAndGlyphs" textLength="37" x="267" y="70.9951">:View</text><rect fill="#FEFECE" filter="url(#f1zzv1u25toe)" height="30.2969" style="stroke: #A80036; stroke-width: 1.5;" width="51" x="260" y="895.8828"/><text fill="#000000" font-family="sans-serif" font-size="14" lengthAdjust="spacingAndGlyphs" textLength="37" x="267" y="915.8779">:View</text><rect fill="#FEFECE" filter="url(#f1zzv1u25toe)" height="30.2969" style="stroke: #A80036; stroke-width: 1.5;" width="125" x="388" y="51"/><text fill="#000000" font-family="sans-serif" font-size="14" lengthAdjust="spacingAndGlyphs" textLength="111" x="395" y="70.9951">:FE_Component</text><rect fill="#FEFECE" filter="url(#f1zzv1u25toe)" height="30.2969" style="stroke: #A80036; stroke-width: 1.5;" width="125" x="388" y="895.8828"/><text fill="#000000" font-family="sans-serif" font-size="14" lengthAdjust="spacingAndGlyphs" textLength="111" x="395" y="915.8779">:FE_Component</text><rect fill="#FEFECE" filter="url(#f1zzv1u25toe)" height="30.2969" style="stroke: #A80036; stroke-width: 1.5;" width="93" x="603" y="51"/><text fill="#000000" font-family="sans-serif" font-size="14" lengthAdjust="spacingAndGlyphs" textLength="79" x="610" y="70.9951">:FE_Service</text><rect fill="#FEFECE" filter="url(#f1zzv1u25toe)" height="30.2969" style="stroke: #A80036; stroke-width: 1.5;" width="93" x="603" y="895.8828"/><text fill="#000000" font-family="sans-serif" font-size="14" lengthAdjust="spacingAndGlyphs" textLength="79" x="610" y="915.8779">:FE_Service</text><rect fill="#FEFECE" filter="url(#f1zzv1u25toe)" height="30.2969" style="stroke: #A80036; stroke-width: 1.5;" width="73" x="774" y="51"/><text fill="#000000" font-family="sans-serif" font-size="14" lengthAdjust="spacingAndGlyphs" textLength="59" x="781" y="70.9951">:Routing</text><rect fill="#FEFECE" filter="url(#f1zzv1u25toe)" height="30.2969" style="stroke: #A80036; stroke-width: 1.5;" width="73" x="774" y="895.8828"/><text fill="#000000" font-family="sans-serif" font-size="14" lengthAdjust="spacingAndGlyphs" textLength="59" x="781" y="915.8779">:Routing</text><rect fill="#FEFECE" filter="url(#f1zzv1u25toe)" height="30.2969" style="stroke: #A80036; stroke-width: 1.5;" width="128" x="937.5" y="51"/><text fill="#000000" font-family="sans-serif" font-size="14" lengthAdjust="spacingAndGlyphs" textLength="114" x="944.5" y="70.9951">:RobotController</text><rect fill="#FEFECE" filter="url(#f1zzv1u25toe)" height="30.2969" style="stroke: #A80036; stroke-width: 1.5;" width="128" x="937.5" y="895.8828"/><text fill="#000000" font-family="sans-serif" font-size="14" lengthAdjust="spacingAndGlyphs" textLength="114" x="944.5" y="915.8779">:RobotController</text><rect fill="#FEFECE" filter="url(#f1zzv1u25toe)" height="30.2969" style="stroke: #A80036; stroke-width: 1.5;" width="111" x="1208" y="51"/><text fill="#000000" font-family="sans-serif" font-size="14" lengthAdjust="spacingAndGlyphs" textLength="97" x="1215" y="70.9951">:RobotService</text><rect fill="#FEFECE" filter="url(#f1zzv1u25toe)" height="30.2969" style="stroke: #A80036; stroke-width: 1.5;" width="111" x="1208" y="895.8828"/><text fill="#000000" font-family="sans-serif" font-size="14" lengthAdjust="spacingAndGlyphs" textLength="97" x="1215" y="915.8779">:RobotService</text><rect fill="#FEFECE" filter="url(#f1zzv1u25toe)" height="30.2969" style="stroke: #A80036; stroke-width: 1.5;" width="132" x="1443.5" y="51"/><text fill="#000000" font-family="sans-serif" font-size="14" lengthAdjust="spacingAndGlyphs" textLength="118" x="1450.5" y="70.9951">:RobotTypeRepo</text><rect fill="#FEFECE" filter="url(#f1zzv1u25toe)" height="30.2969" style="stroke: #A80036; stroke-width: 1.5;" width="132" x="1443.5" y="895.8828"/><text fill="#000000" font-family="sans-serif" font-size="14" lengthAdjust="spacingAndGlyphs" textLength="118" x="1450.5" y="915.8779">:RobotTypeRepo</text><rect fill="#FEFECE" filter="url(#f1zzv1u25toe)" height="30.2969" style="stroke: #A80036; stroke-width: 1.5;" width="124" x="1664.5" y="51"/><text fill="#000000" font-family="sans-serif" font-size="14" lengthAdjust="spacingAndGlyphs" textLength="110" x="1671.5" y="70.9951">:RobotTypeMap</text><rect fill="#FEFECE" filter="url(#f1zzv1u25toe)" height="30.2969" style="stroke: #A80036; stroke-width: 1.5;" width="124" x="1664.5" y="895.8828"/><text fill="#000000" font-family="sans-serif" font-size="14" lengthAdjust="spacingAndGlyphs" textLength="110" x="1671.5" y="915.8779">:RobotTypeMap</text><rect fill="#FEFECE" filter="url(#f1zzv1u25toe)" height="30.2969" style="stroke: #A80036; stroke-width: 1.5;" width="151" x="1802.5" y="51"/><text fill="#000000" font-family="sans-serif" font-size="14" lengthAdjust="spacingAndGlyphs" textLength="137" x="1809.5" y="70.9951">:RobotTypeSchema</text><rect fill="#FEFECE" filter="url(#f1zzv1u25toe)" height="30.2969" style="stroke: #A80036; stroke-width: 1.5;" width="151" x="1802.5" y="895.8828"/><text fill="#000000" font-family="sans-serif" font-size="14" lengthAdjust="spacingAndGlyphs" textLength="137" x="1809.5" y="915.8779">:RobotTypeSchema</text><rect fill="#FEFECE" filter="url(#f1zzv1u25toe)" height="30.2969" style="stroke: #A80036; stroke-width: 1.5;" width="95" x="1967.5" y="51"/><text fill="#000000" font-family="sans-serif" font-size="14" lengthAdjust="spacingAndGlyphs" textLength="81" x="1974.5" y="70.9951">:RobotType</text><rect fill="#FEFECE" filter="url(#f1zzv1u25toe)" height="30.2969" style="stroke: #A80036; stroke-width: 1.5;" width="95" x="1967.5" y="895.8828"/><text fill="#000000" font-family="sans-serif" font-size="14" lengthAdjust="spacingAndGlyphs" textLength="81" x="1974.5" y="915.8779">:RobotType</text><rect fill="#FFFFFF" filter="url(#f1zzv1u25toe)" height="790.5859" style="stroke: #A80036; stroke-width: 1.0;" width="10" x="42.5" y="96.2969"/><rect fill="#FFFFFF" filter="url(#f1zzv1u25toe)" height="769.4531" style="stroke: #A80036; stroke-width: 1.0;" width="10" x="282.5" y="117.4297"/><rect fill="#FFFFFF" filter="url(#f1zzv1u25toe)" height="711.1875" style="stroke: #A80036; stroke-width: 1.0;" width="10" x="447.5" y="175.6953"/><rect fill="#FFFFFF" filter="url(#f1zzv1u25toe)" height="682.0547" style="stroke: #A80036; stroke-width: 1.0;" width="10" x="646.5" y="204.8281"/><rect fill="#FFFFFF" filter="url(#f1zzv1u25toe)" height="652.9219" style="stroke: #A80036; stroke-width: 1.0;" width="10" x="807.5" y="233.9609"/><rect fill="#FFFFFF" filter="url(#f1zzv1u25toe)" height="623.7891" style="stroke: #A80036; stroke-width: 1.0;" width="10" x="998.5" y="263.0938"/><rect fill="#FFFFFF" filter="url(#f1zzv1u25toe)" height="262.1953" style="stroke: #A80036; stroke-width: 1.0;" width="10" x="1260.5" y="292.2266"/><rect fill="#FFFFFF" filter="url(#f1zzv1u25toe)" height="203.9297" style="stroke: #A80036; stroke-width: 1.0;" width="10" x="1506.5" y="321.3594"/><rect fill="#FFFFFF" filter="url(#f1zzv1u25toe)" height="87.3984" style="stroke: #A80036; stroke-width: 1.0;" width="10" x="1723.5" y="437.8906"/><rect fill="#FFFFFF" filter="url(#f1zzv1u25toe)" height="116.5313" style="stroke: #A80036; stroke-width: 1.0;" width="10" x="1875" y="408.7578"/><rect fill="#FFFFFF" filter="url(#f1zzv1u25toe)" height="29.1328" style="stroke: #A80036; stroke-width: 1.0;" width="10" x="2012" y="350.4922"/><polygon fill="#A80036" points="270.5,113.4297,280.5,117.4297,270.5,121.4297,274.5,117.4297" style="stroke: #A80036; stroke-width: 1.0;"/><line style="stroke: #A80036; stroke-width: 1.0;" x1="52.5" x2="276.5" y1="117.4297" y2="117.4297"/><text fill="#000000" font-family="sans-serif" font-size="13" font-weight="bold" lengthAdjust="spacingAndGlyphs" textLength="9" x="59.5" y="112.3638">1</text><text fill="#000000" font-family="sans-serif" font-size="13" lengthAdjust="spacingAndGlyphs" textLength="198" x="72.5" y="112.3638">wants to introduce a robotType</text><polygon fill="#A80036" points="63.5,142.5625,53.5,146.5625,63.5,150.5625,59.5,146.5625" style="stroke: #A80036; stroke-width: 1.0;"/><line style="stroke: #A80036; stroke-width: 1.0; stroke-dasharray: 2.0,2.0;" x1="57.5" x2="281.5" y1="146.5625" y2="146.5625"/><text fill="#000000" font-family="sans-serif" font-size="13" font-weight="bold" lengthAdjust="spacingAndGlyphs" textLength="9" x="69.5" y="141.4966">2</text><text fill="#000000" font-family="sans-serif" font-size="13" lengthAdjust="spacingAndGlyphs" textLength="161" x="82.5" y="141.4966">request necessary data()</text><polygon fill="#A80036" points="270.5,171.6953,280.5,175.6953,270.5,179.6953,274.5,175.6953" style="stroke: #A80036; stroke-width: 1.0;"/><line style="stroke: #A80036; stroke-width: 1.0;" x1="52.5" x2="276.5" y1="175.6953" y2="175.6953"/><text fill="#000000" font-family="sans-serif" font-size="13" font-weight="bold" lengthAdjust="spacingAndGlyphs" textLength="9" x="59.5" y="170.6294">3</text><text fill="#000000" font-family="sans-serif" font-size="13" lengthAdjust="spacingAndGlyphs" textLength="112" x="72.5" y="170.6294">insert all the data</text><polygon fill="#A80036" points="435.5,200.8281,445.5,204.8281,435.5,208.8281,439.5,204.8281" style="stroke: #A80036; stroke-width: 1.0;"/><line style="stroke: #A80036; stroke-width: 1.0;" x1="292.5" x2="441.5" y1="204.8281" y2="204.8281"/><text fill="#000000" font-family="sans-serif" font-size="13" font-weight="bold" lengthAdjust="spacingAndGlyphs" textLength="9" x="299.5" y="199.7622">4</text><text fill="#000000" font-family="sans-serif" font-size="13" lengthAdjust="spacingAndGlyphs" textLength="118" x="312.5" y="199.7622">createRobotType()</text><polygon fill="#A80036" points="634.5,229.9609,644.5,233.9609,634.5,237.9609,638.5,233.9609" style="stroke: #A80036; stroke-width: 1.0;"/><line style="stroke: #A80036; stroke-width: 1.0;" x1="457.5" x2="640.5" y1="233.9609" y2="233.9609"/><text fill="#000000" font-family="sans-serif" font-size="13" font-weight="bold" lengthAdjust="spacingAndGlyphs" textLength="9" x="464.5" y="228.895">5</text><text fill="#000000" font-family="sans-serif" font-size="13" lengthAdjust="spacingAndGlyphs" textLength="152" x="477.5" y="228.895">createRobot(robotType)</text><polygon fill="#A80036" points="795.5,259.0938,805.5,263.0938,795.5,267.0938,799.5,263.0938" style="stroke: #A80036; stroke-width: 1.0;"/><line style="stroke: #A80036; stroke-width: 1.0;" x1="656.5" x2="801.5" y1="263.0938" y2="263.0938"/><text fill="#000000" font-family="sans-serif" font-size="13" font-weight="bold" lengthAdjust="spacingAndGlyphs" textLength="9" x="663.5" y="258.0278">6</text><text fill="#000000" font-family="sans-serif" font-size="13" lengthAdjust="spacingAndGlyphs" textLength="114" x="676.5" y="258.0278">POST route{json}</text><polygon fill="#A80036" points="986.5,288.2266,996.5,292.2266,986.5,296.2266,990.5,292.2266" style="stroke: #A80036; stroke-width: 1.0;"/><line style="stroke: #A80036; stroke-width: 1.0;" x1="817.5" x2="992.5" y1="292.2266" y2="292.2266"/><text fill="#000000" font-family="sans-serif" font-size="13" font-weight="bold" lengthAdjust="spacingAndGlyphs" textLength="9" x="824.5" y="287.1606">7</text><text fill="#000000" font-family="sans-serif" font-size="13" lengthAdjust="spacingAndGlyphs" textLength="144" x="837.5" y="287.1606">createRobotType(json)</text><polygon fill="#A80036" points="1248.5,317.3594,1258.5,321.3594,1248.5,325.3594,1252.5,321.3594" style="stroke: #A80036; stroke-width: 1.0;"/><line style="stroke: #A80036; stroke-width: 1.0;" x1="1008.5" x2="1254.5" y1="321.3594" y2="321.3594"/><text fill="#000000" font-family="sans-serif" font-size="13" font-weight="bold" lengthAdjust="spacingAndGlyphs" textLength="9" x="1015.5" y="316.2935">8</text><text fill="#000000" font-family="sans-serif" font-size="13" lengthAdjust="spacingAndGlyphs" textLength="215" x="1028.5" y="316.2935">createRobotType(IRobotTypeDTO)</text><polygon fill="#A80036" points="1494.5,346.4922,1504.5,350.4922,1494.5,354.4922,1498.5,350.4922" style="stroke: #A80036; stroke-width: 1.0;"/><line style="stroke: #A80036; stroke-width: 1.0;" x1="1270.5" x2="1500.5" y1="350.4922" y2="350.4922"/><text fill="#000000" font-family="sans-serif" font-size="13" font-weight="bold" lengthAdjust="spacingAndGlyphs" textLength="9" x="1277.5" y="345.4263">9</text><text fill="#000000" font-family="sans-serif" font-size="13" lengthAdjust="spacingAndGlyphs" textLength="199" x="1290.5" y="345.4263">findByDesignation(designation)</text><polygon fill="#A80036" points="2005,375.625,2015,379.625,2005,383.625,2009,379.625" style="stroke: #A80036; stroke-width: 1.0;"/><line style="stroke: #A80036; stroke-width: 1.0;" x1="1270.5" x2="2011" y1="379.625" y2="379.625"/><text fill="#000000" font-family="sans-serif" font-size="13" font-weight="bold" lengthAdjust="spacingAndGlyphs" textLength="18" x="1277.5" y="374.5591">10</text><text fill="#000000" font-family="sans-serif" font-size="13" lengthAdjust="spacingAndGlyphs" textLength="51" x="1299.5" y="374.5591">create()</text><polygon fill="#A80036" points="1494.5,404.7578,1504.5,408.7578,1494.5,412.7578,1498.5,408.7578" style="stroke: #A80036; stroke-width: 1.0;"/><line style="stroke: #A80036; stroke-width: 1.0;" x1="1270.5" x2="1500.5" y1="408.7578" y2="408.7578"/><text fill="#000000" font-family="sans-serif" font-size="13" font-weight="bold" lengthAdjust="spacingAndGlyphs" textLength="18" x="1277.5" y="403.6919">11</text><text fill="#000000" font-family="sans-serif" font-size="13" lengthAdjust="spacingAndGlyphs" textLength="104" x="1299.5" y="403.6919">save(robotType)</text><polygon fill="#A80036" points="1863,433.8906,1873,437.8906,1863,441.8906,1867,437.8906" style="stroke: #A80036; stroke-width: 1.0;"/><line style="stroke: #A80036; stroke-width: 1.0;" x1="1516.5" x2="1869" y1="437.8906" y2="437.8906"/><text fill="#000000" font-family="sans-serif" font-size="13" font-weight="bold" lengthAdjust="spacingAndGlyphs" textLength="18" x="1523.5" y="432.8247">12</text><text fill="#000000" font-family="sans-serif" font-size="13" lengthAdjust="spacingAndGlyphs" textLength="70" x="1545.5" y="432.8247">findOne(id)</text><polygon fill="#A80036" points="1711.5,463.0234,1721.5,467.0234,1711.5,471.0234,1715.5,467.0234" style="stroke: #A80036; stroke-width: 1.0;"/><line style="stroke: #A80036; stroke-width: 1.0;" x1="1516.5" x2="1717.5" y1="467.0234" y2="467.0234"/><text fill="#000000" font-family="sans-serif" font-size="13" font-weight="bold" lengthAdjust="spacingAndGlyphs" textLength="18" x="1523.5" y="461.9575">13</text><text fill="#000000" font-family="sans-serif" font-size="13" lengthAdjust="spacingAndGlyphs" textLength="161" x="1545.5" y="461.9575">toPersistance(robotType)</text><polygon fill="#A80036" points="1863,492.1563,1873,496.1563,1863,500.1563,1867,496.1563" style="stroke: #A80036; stroke-width: 1.0;"/><line style="stroke: #A80036; stroke-width: 1.0;" x1="1516.5" x2="1869" y1="496.1563" y2="496.1563"/><text fill="#000000" font-family="sans-serif" font-size="13" font-weight="bold" lengthAdjust="spacingAndGlyphs" textLength="18" x="1523.5" y="491.0903">14</text><text fill="#000000" font-family="sans-serif" font-size="13" lengthAdjust="spacingAndGlyphs" textLength="115" x="1545.5" y="491.0903">create(robotType)</text><polygon fill="#A80036" points="1281.5,521.2891,1271.5,525.2891,1281.5,529.2891,1277.5,525.2891" style="stroke: #A80036; stroke-width: 1.0;"/><line style="stroke: #A80036; stroke-width: 1.0; stroke-dasharray: 2.0,2.0;" x1="1275.5" x2="1510.5" y1="525.2891" y2="525.2891"/><text fill="#000000" font-family="sans-serif" font-size="13" font-weight="bold" lengthAdjust="spacingAndGlyphs" textLength="18" x="1287.5" y="520.2231">15</text><text fill="#000000" font-family="sans-serif" font-size="13" lengthAdjust="spacingAndGlyphs" textLength="64" x="1309.5" y="520.2231">robotType</text><polygon fill="#A80036" points="1019.5,550.4219,1009.5,554.4219,1019.5,558.4219,1015.5,554.4219" style="stroke: #A80036; stroke-width: 1.0;"/><line style="stroke: #A80036; stroke-width: 1.0; stroke-dasharray: 2.0,2.0;" x1="1013.5" x2="1264.5" y1="554.4219" y2="554.4219"/><text fill="#000000" font-family="sans-serif" font-size="13" font-weight="bold" lengthAdjust="spacingAndGlyphs" textLength="18" x="1025.5" y="549.356">16</text><text fill="#000000" font-family="sans-serif" font-size="13" lengthAdjust="spacingAndGlyphs" textLength="36" x="1047.5" y="549.356">result</text><path d="M13,569.4219 L77,569.4219 L77,576.4219 L67,586.4219 L13,586.4219 L13,569.4219 " fill="#EEEEEE" style="stroke: #000000; stroke-width: 1.0;"/><rect fill="none" height="310.4609" style="stroke: #000000; stroke-width: 2.0;" width="1066.5" x="13" y="569.4219"/><text fill="#000000" font-family="sans-serif" font-size="13" font-weight="bold" lengthAdjust="spacingAndGlyphs" textLength="19" x="28" y="582.4888">alt</text><text fill="#000000" font-family="sans-serif" font-size="11" font-weight="bold" lengthAdjust="spacingAndGlyphs" textLength="112" x="92" y="581.6323">[successful case]</text><polygon fill="#A80036" points="828.5,603.6875,818.5,607.6875,828.5,611.6875,824.5,607.6875" style="stroke: #A80036; stroke-width: 1.0;"/><line style="stroke: #A80036; stroke-width: 1.0; stroke-dasharray: 2.0,2.0;" x1="822.5" x2="997.5" y1="607.6875" y2="607.6875"/><text fill="#000000" font-family="sans-serif" font-size="13" font-weight="bold" lengthAdjust="spacingAndGlyphs" textLength="18" x="834.5" y="602.6216">17</text><text fill="#000000" font-family="sans-serif" font-size="13" lengthAdjust="spacingAndGlyphs" textLength="64" x="856.5" y="602.6216">HTTP: 201</text><polygon fill="#A80036" points="667.5,632.8203,657.5,636.8203,667.5,640.8203,663.5,636.8203" style="stroke: #A80036; stroke-width: 1.0;"/><line style="stroke: #A80036; stroke-width: 1.0; stroke-dasharray: 2.0,2.0;" x1="661.5" x2="806.5" y1="636.8203" y2="636.8203"/><text fill="#000000" font-family="sans-serif" font-size="13" font-weight="bold" lengthAdjust="spacingAndGlyphs" textLength="18" x="673.5" y="631.7544">18</text><text fill="#000000" font-family="sans-serif" font-size="13" lengthAdjust="spacingAndGlyphs" textLength="64" x="695.5" y="631.7544">HTTP: 201</text><polygon fill="#A80036" points="468.5,661.9531,458.5,665.9531,468.5,669.9531,464.5,665.9531" style="stroke: #A80036; stroke-width: 1.0;"/><line style="stroke: #A80036; stroke-width: 1.0; stroke-dasharray: 2.0,2.0;" x1="462.5" x2="645.5" y1="665.9531" y2="665.9531"/><text fill="#000000" font-family="sans-serif" font-size="13" font-weight="bold" lengthAdjust="spacingAndGlyphs" textLength="18" x="474.5" y="660.8872">19</text><text fill="#000000" font-family="sans-serif" font-size="13" lengthAdjust="spacingAndGlyphs" textLength="64" x="496.5" y="660.8872">HTTP: 201</text><polygon fill="#A80036" points="303.5,691.0859,293.5,695.0859,303.5,699.0859,299.5,695.0859" style="stroke: #A80036; stroke-width: 1.0;"/><line style="stroke: #A80036; stroke-width: 1.0; stroke-dasharray: 2.0,2.0;" x1="297.5" x2="446.5" y1="695.0859" y2="695.0859"/><text fill="#000000" font-family="sans-serif" font-size="13" font-weight="bold" lengthAdjust="spacingAndGlyphs" textLength="18" x="309.5" y="690.02">20</text><text fill="#000000" font-family="sans-serif" font-size="13" lengthAdjust="spacingAndGlyphs" textLength="64" x="331.5" y="690.02">HTTP: 201</text><polygon fill="#A80036" points="63.5,720.2188,53.5,724.2188,63.5,728.2188,59.5,724.2188" style="stroke: #A80036; stroke-width: 1.0;"/><line style="stroke: #A80036; stroke-width: 1.0; stroke-dasharray: 2.0,2.0;" x1="57.5" x2="281.5" y1="724.2188" y2="724.2188"/><text fill="#000000" font-family="sans-serif" font-size="13" font-weight="bold" lengthAdjust="spacingAndGlyphs" textLength="18" x="69.5" y="719.1528">21</text><text fill="#000000" font-family="sans-serif" font-size="13" lengthAdjust="spacingAndGlyphs" textLength="150" x="91.5" y="719.1528">show success message</text><line style="stroke: #000000; stroke-width: 1.0; stroke-dasharray: 2.0,2.0;" x1="13" x2="1079.5" y1="733.2188" y2="733.2188"/><polygon fill="#A80036" points="828.5,751.3516,818.5,755.3516,828.5,759.3516,824.5,755.3516" style="stroke: #A80036; stroke-width: 1.0;"/><line style="stroke: #A80036; stroke-width: 1.0; stroke-dasharray: 2.0,2.0;" x1="822.5" x2="997.5" y1="755.3516" y2="755.3516"/><text fill="#000000" font-family="sans-serif" font-size="13" font-weight="bold" lengthAdjust="spacingAndGlyphs" textLength="18" x="834.5" y="750.2856">22</text><text fill="#000000" font-family="sans-serif" font-size="13" lengthAdjust="spacingAndGlyphs" textLength="64" x="856.5" y="750.2856">HTTP: 400</text><polygon fill="#A80036" points="667.5,780.4844,657.5,784.4844,667.5,788.4844,663.5,784.4844" style="stroke: #A80036; stroke-width: 1.0;"/><line style="stroke: #A80036; stroke-width: 1.0; stroke-dasharray: 2.0,2.0;" x1="661.5" x2="806.5" y1="784.4844" y2="784.4844"/><text fill="#000000" font-family="sans-serif" font-size="13" font-weight="bold" lengthAdjust="spacingAndGlyphs" textLength="18" x="673.5" y="779.4185">23</text><text fill="#000000" font-family="sans-serif" font-size="13" lengthAdjust="spacingAndGlyphs" textLength="64" x="695.5" y="779.4185">HTTP: 400</text><polygon fill="#A80036" points="468.5,809.6172,458.5,813.6172,468.5,817.6172,464.5,813.6172" style="stroke: #A80036; stroke-width: 1.0;"/><line style="stroke: #A80036; stroke-width: 1.0; stroke-dasharray: 2.0,2.0;" x1="462.5" x2="645.5" y1="813.6172" y2="813.6172"/><text fill="#000000" font-family="sans-serif" font-size="13" font-weight="bold" lengthAdjust="spacingAndGlyphs" textLength="18" x="474.5" y="808.5513">24</text><text fill="#000000" font-family="sans-serif" font-size="13" lengthAdjust="spacingAndGlyphs" textLength="64" x="496.5" y="808.5513">HTTP: 400</text><polygon fill="#A80036" points="303.5,838.75,293.5,842.75,303.5,846.75,299.5,842.75" style="stroke: #A80036; stroke-width: 1.0;"/><line style="stroke: #A80036; stroke-width: 1.0; stroke-dasharray: 2.0,2.0;" x1="297.5" x2="446.5" y1="842.75" y2="842.75"/><text fill="#000000" font-family="sans-serif" font-size="13" font-weight="bold" lengthAdjust="spacingAndGlyphs" textLength="18" x="309.5" y="837.6841">25</text><text fill="#000000" font-family="sans-serif" font-size="13" lengthAdjust="spacingAndGlyphs" textLength="64" x="331.5" y="837.6841">HTTP: 400</text><polygon fill="#A80036" points="63.5,867.8828,53.5,871.8828,63.5,875.8828,59.5,871.8828" style="stroke: #A80036; stroke-width: 1.0;"/><line style="stroke: #A80036; stroke-width: 1.0; stroke-dasharray: 2.0,2.0;" x1="57.5" x2="281.5" y1="871.8828" y2="871.8828"/><text fill="#000000" font-family="sans-serif" font-size="13" font-weight="bold" lengthAdjust="spacingAndGlyphs" textLength="18" x="69.5" y="866.8169">26</text><text fill="#000000" font-family="sans-serif" font-size="13" lengthAdjust="spacingAndGlyphs" textLength="138" x="91.5" y="866.8169">show failure message</text><!--MD5=[2521ad4a280e3bcc83ffce58ca1f4692]
@startuml
autonumber
actor "Admin" as admin

participant ":View" as sys
participant ":FE_Component" as comp
participant ":FE_Service" as FEsrvc
participant ":Routing" as route
participant ":RobotController" as ctrl
participant ":RobotService" as srvc
participant ":RobotTypeRepo" as repo
participant ":RobotTypeMap" as rtMap
participant ":RobotTypeSchema" as rtSchema
participant ":RobotType" as rt

activate admin

admin -> sys: wants to introduce a robotType
activate sys
sys - -> admin: request necessary data()
admin -> sys : insert all the data
activate comp
sys -> comp : createRobotType()
activate FEsrvc
comp -> FEsrvc : createRobot(robotType)
activate route
FEsrvc -> route: POST route{json}
activate ctrl
route -> ctrl: createRobotType(json)
activate srvc
ctrl -> srvc: createRobotType(IRobotTypeDTO)
activate repo
srvc -> repo: findByDesignation(designation)
activate rt
srvc -> rt: create()
deactivate rt
srvc -> repo: save(robotType)
activate rtSchema
repo -> rtSchema: findOne(id)
activate rtMap
repo -> rtMap: toPersistance(robotType)
repo -> rtSchema: create(robotType)
repo - -> srvc: robotType
deactivate rtSchema
deactivate rtMap
deactivate repo
srvc - -> ctrl: result
deactivate srvc

alt successful case
    ctrl - -> route : HTTP: 201
    route - -> FEsrvc: HTTP: 201
    FEsrvc - -> comp: HTTP: 201
    comp - -> sys: HTTP: 201
    sys - -> admin: show success message
else
    ctrl - -> route : HTTP: 400
    route - -> FEsrvc: HTTP: 400
    FEsrvc - -> comp: HTTP: 400
    comp - -> sys: HTTP: 400
    sys - -> admin: show failure message
end
deactivate ctrl
deactivate route
deactivate FEsrvc
deactivate comp
deactivate sys
deactivate admin
@enduml

PlantUML version 1.2020.02(Sun Mar 01 10:22:07 UTC 2020)
(GPL source distribution)
Java Runtime: OpenJDK Runtime Environment
JVM: OpenJDK 64-Bit Server VM
Java Version: 11.0.21+9
Operating System: Linux
Default Encoding: UTF-8
Language: en
Country: null
--></g></svg>