<?xml version="1.0" encoding="UTF-8" standalone="no"?><svg xmlns="http://www.w3.org/2000/svg" xmlns:xlink="http://www.w3.org/1999/xlink" contentScriptType="application/ecmascript" contentStyleType="text/css" height="822px" preserveAspectRatio="none" style="width:1178px;height:822px;" version="1.1" viewBox="0 0 1178 822" width="1178px" zoomAndPan="magnify"><defs><filter height="300%" id="fxdi7tbyqgurm" width="300%" x="-1" y="-1"><feGaussianBlur result="blurOut" stdDeviation="2.0"/><feColorMatrix in="blurOut" result="blurOut2" type="matrix" values="0 0 0 0 0 0 0 0 0 0 0 0 0 0 0 0 0 0 .4 0"/><feOffset dx="4.0" dy="4.0" in="blurOut2" result="blurOut3"/><feBlend in="SourceGraphic" in2="blurOut3" mode="normal"/></filter></defs><g><rect fill="#FFFFFF" filter="url(#fxdi7tbyqgurm)" height="629.5938" style="stroke: #A80036; stroke-width: 1.0;" width="10" x="37" y="96.2969"/><rect fill="#FFFFFF" filter="url(#fxdi7tbyqgurm)" height="629.5938" style="stroke: #A80036; stroke-width: 1.0;" width="10" x="203" y="96.2969"/><rect fill="#FFFFFF" filter="url(#fxdi7tbyqgurm)" height="286.3281" style="stroke: #A80036; stroke-width: 1.0;" width="10" x="414.5" y="204.8281"/><rect fill="#FFFFFF" filter="url(#fxdi7tbyqgurm)" height="228.0625" style="stroke: #A80036; stroke-width: 1.0;" width="10" x="633.5" y="233.9609"/><rect fill="#FFFFFF" filter="url(#fxdi7tbyqgurm)" height="169.7969" style="stroke: #A80036; stroke-width: 1.0;" width="10" x="767.5" y="263.0938"/><rect fill="#FFFFFF" filter="url(#fxdi7tbyqgurm)" height="111.5313" style="stroke: #A80036; stroke-width: 1.0;" width="10" x="908.5" y="292.2266"/><rect fill="#FFFFFF" filter="url(#fxdi7tbyqgurm)" height="381.5313" style="stroke: #000000; stroke-width: 2.0;" width="1153.5" x="13" y="336.3594"/><rect fill="#FFFFFF" height="189.6016" style="stroke: none; stroke-width: 1.0;" width="1153.5" x="13" y="528.2891"/><line style="stroke: #A80036; stroke-width: 1.0; stroke-dasharray: 5.0,5.0;" x1="42" x2="42" y1="86.2969" y2="734.8906"/><line style="stroke: #A80036; stroke-width: 1.0; stroke-dasharray: 5.0,5.0;" x1="207.5" x2="207.5" y1="86.2969" y2="734.8906"/><line style="stroke: #A80036; stroke-width: 1.0; stroke-dasharray: 5.0,5.0;" x1="419.5" x2="419.5" y1="86.2969" y2="734.8906"/><line style="stroke: #A80036; stroke-width: 1.0; stroke-dasharray: 5.0,5.0;" x1="638.5" x2="638.5" y1="86.2969" y2="734.8906"/><line style="stroke: #A80036; stroke-width: 1.0; stroke-dasharray: 5.0,5.0;" x1="772.5" x2="772.5" y1="86.2969" y2="734.8906"/><line style="stroke: #A80036; stroke-width: 1.0; stroke-dasharray: 5.0,5.0;" x1="913.5" x2="913.5" y1="86.2969" y2="734.8906"/><line style="stroke: #A80036; stroke-width: 1.0; stroke-dasharray: 5.0,5.0;" x1="1120.5" x2="1120.5" y1="86.2969" y2="734.8906"/><text fill="#000000" font-family="sans-serif" font-size="14" lengthAdjust="spacingAndGlyphs" textLength="32" x="23" y="82.9951">User</text><ellipse cx="42" cy="13" fill="#FEFECE" filter="url(#fxdi7tbyqgurm)" rx="8" ry="8" style="stroke: #A80036; stroke-width: 2.0;"/><path d="M42,21 L42,48 M29,29 L55,29 M42,48 L29,63 M42,48 L55,63 " fill="none" filter="url(#fxdi7tbyqgurm)" style="stroke: #A80036; stroke-width: 2.0;"/><text fill="#000000" font-family="sans-serif" font-size="14" lengthAdjust="spacingAndGlyphs" textLength="32" x="23" y="746.8857">User</text><ellipse cx="42" cy="760.1875" fill="#FEFECE" filter="url(#fxdi7tbyqgurm)" rx="8" ry="8" style="stroke: #A80036; stroke-width: 2.0;"/><path d="M42,768.1875 L42,795.1875 M29,776.1875 L55,776.1875 M42,795.1875 L29,810.1875 M42,795.1875 L55,810.1875 " fill="none" filter="url(#fxdi7tbyqgurm)" style="stroke: #A80036; stroke-width: 2.0;"/><rect fill="#FEFECE" filter="url(#fxdi7tbyqgurm)" height="30.2969" style="stroke: #A80036; stroke-width: 1.5;" width="219" x="96.5" y="51"/><text fill="#000000" font-family="sans-serif" font-size="14" lengthAdjust="spacingAndGlyphs" textLength="205" x="103.5" y="70.9951">:CreateFloorComponentHTML</text><rect fill="#FEFECE" filter="url(#fxdi7tbyqgurm)" height="30.2969" style="stroke: #A80036; stroke-width: 1.5;" width="219" x="96.5" y="733.8906"/><text fill="#000000" font-family="sans-serif" font-size="14" lengthAdjust="spacingAndGlyphs" textLength="205" x="103.5" y="753.8857">:CreateFloorComponentHTML</text><rect fill="#FEFECE" filter="url(#fxdi7tbyqgurm)" height="30.2969" style="stroke: #A80036; stroke-width: 1.5;" width="176" x="329.5" y="51"/><text fill="#000000" font-family="sans-serif" font-size="14" lengthAdjust="spacingAndGlyphs" textLength="162" x="336.5" y="70.9951">CreateFloorComponent</text><rect fill="#FEFECE" filter="url(#fxdi7tbyqgurm)" height="30.2969" style="stroke: #A80036; stroke-width: 1.5;" width="176" x="329.5" y="733.8906"/><text fill="#000000" font-family="sans-serif" font-size="14" lengthAdjust="spacingAndGlyphs" textLength="162" x="336.5" y="753.8857">CreateFloorComponent</text><rect fill="#FEFECE" filter="url(#fxdi7tbyqgurm)" height="30.2969" style="stroke: #A80036; stroke-width: 1.5;" width="120" x="576.5" y="51"/><text fill="#000000" font-family="sans-serif" font-size="14" lengthAdjust="spacingAndGlyphs" textLength="106" x="583.5" y="70.9951">:FloorServiceFE</text><rect fill="#FEFECE" filter="url(#fxdi7tbyqgurm)" height="30.2969" style="stroke: #A80036; stroke-width: 1.5;" width="120" x="576.5" y="733.8906"/><text fill="#000000" font-family="sans-serif" font-size="14" lengthAdjust="spacingAndGlyphs" textLength="106" x="583.5" y="753.8857">:FloorServiceFE</text><rect fill="#FEFECE" filter="url(#fxdi7tbyqgurm)" height="30.2969" style="stroke: #A80036; stroke-width: 1.5;" width="120" x="710.5" y="51"/><text fill="#000000" font-family="sans-serif" font-size="14" lengthAdjust="spacingAndGlyphs" textLength="106" x="717.5" y="70.9951">:FloorController</text><rect fill="#FEFECE" filter="url(#fxdi7tbyqgurm)" height="30.2969" style="stroke: #A80036; stroke-width: 1.5;" width="120" x="710.5" y="733.8906"/><text fill="#000000" font-family="sans-serif" font-size="14" lengthAdjust="spacingAndGlyphs" textLength="106" x="717.5" y="753.8857">:FloorController</text><rect fill="#FEFECE" filter="url(#fxdi7tbyqgurm)" height="30.2969" style="stroke: #A80036; stroke-width: 1.5;" width="122" x="850.5" y="51"/><text fill="#000000" font-family="sans-serif" font-size="14" lengthAdjust="spacingAndGlyphs" textLength="108" x="857.5" y="70.9951">:FloorServiceBE</text><rect fill="#FEFECE" filter="url(#fxdi7tbyqgurm)" height="30.2969" style="stroke: #A80036; stroke-width: 1.5;" width="122" x="850.5" y="733.8906"/><text fill="#000000" font-family="sans-serif" font-size="14" lengthAdjust="spacingAndGlyphs" textLength="108" x="857.5" y="753.8857">:FloorServiceBE</text><text fill="#000000" font-family="sans-serif" font-size="14" lengthAdjust="spacingAndGlyphs" textLength="66" x="1084.5" y="82.9951">Database</text><path d="M1102.5,34 C1102.5,24 1120.5,24 1120.5,24 C1120.5,24 1138.5,24 1138.5,34 L1138.5,60 C1138.5,70 1120.5,70 1120.5,70 C1120.5,70 1102.5,70 1102.5,60 L1102.5,34 " fill="#FEFECE" filter="url(#fxdi7tbyqgurm)" style="stroke: #000000; stroke-width: 1.5;"/><path d="M1102.5,34 C1102.5,44 1120.5,44 1120.5,44 C1120.5,44 1138.5,44 1138.5,34 " fill="none" style="stroke: #000000; stroke-width: 1.5;"/><text fill="#000000" font-family="sans-serif" font-size="14" lengthAdjust="spacingAndGlyphs" textLength="66" x="1084.5" y="746.8857">Database</text><path d="M1102.5,760.1875 C1102.5,750.1875 1120.5,750.1875 1120.5,750.1875 C1120.5,750.1875 1138.5,750.1875 1138.5,760.1875 L1138.5,786.1875 C1138.5,796.1875 1120.5,796.1875 1120.5,796.1875 C1120.5,796.1875 1102.5,796.1875 1102.5,786.1875 L1102.5,760.1875 " fill="#FEFECE" filter="url(#fxdi7tbyqgurm)" style="stroke: #000000; stroke-width: 1.5;"/><path d="M1102.5,760.1875 C1102.5,770.1875 1120.5,770.1875 1120.5,770.1875 C1120.5,770.1875 1138.5,770.1875 1138.5,760.1875 " fill="none" style="stroke: #000000; stroke-width: 1.5;"/><rect fill="#FFFFFF" filter="url(#fxdi7tbyqgurm)" height="629.5938" style="stroke: #A80036; stroke-width: 1.0;" width="10" x="37" y="96.2969"/><rect fill="#FFFFFF" filter="url(#fxdi7tbyqgurm)" height="629.5938" style="stroke: #A80036; stroke-width: 1.0;" width="10" x="203" y="96.2969"/><rect fill="#FFFFFF" filter="url(#fxdi7tbyqgurm)" height="286.3281" style="stroke: #A80036; stroke-width: 1.0;" width="10" x="414.5" y="204.8281"/><rect fill="#FFFFFF" filter="url(#fxdi7tbyqgurm)" height="228.0625" style="stroke: #A80036; stroke-width: 1.0;" width="10" x="633.5" y="233.9609"/><rect fill="#FFFFFF" filter="url(#fxdi7tbyqgurm)" height="169.7969" style="stroke: #A80036; stroke-width: 1.0;" width="10" x="767.5" y="263.0938"/><rect fill="#FFFFFF" filter="url(#fxdi7tbyqgurm)" height="111.5313" style="stroke: #A80036; stroke-width: 1.0;" width="10" x="908.5" y="292.2266"/><polygon fill="#A80036" points="191,113.4297,201,117.4297,191,121.4297,195,117.4297" style="stroke: #A80036; stroke-width: 1.0;"/><line style="stroke: #A80036; stroke-width: 1.0;" x1="47" x2="197" y1="117.4297" y2="117.4297"/><text fill="#000000" font-family="sans-serif" font-size="13" lengthAdjust="spacingAndGlyphs" textLength="78" x="54" y="112.3638">Create Floor</text><polygon fill="#A80036" points="58,142.5625,48,146.5625,58,150.5625,54,146.5625" style="stroke: #A80036; stroke-width: 1.0;"/><line style="stroke: #A80036; stroke-width: 1.0;" x1="52" x2="202" y1="146.5625" y2="146.5625"/><text fill="#000000" font-family="sans-serif" font-size="13" lengthAdjust="spacingAndGlyphs" textLength="132" x="64" y="141.4966">Request Floor's Data</text><polygon fill="#A80036" points="191,171.6953,201,175.6953,191,179.6953,195,175.6953" style="stroke: #A80036; stroke-width: 1.0;"/><line style="stroke: #A80036; stroke-width: 1.0;" x1="47" x2="197" y1="175.6953" y2="175.6953"/><text fill="#000000" font-family="sans-serif" font-size="13" lengthAdjust="spacingAndGlyphs" textLength="116" x="54" y="170.6294">Insert Floor's Data</text><polygon fill="#A80036" points="402.5,200.8281,412.5,204.8281,402.5,208.8281,406.5,204.8281" style="stroke: #A80036; stroke-width: 1.0;"/><line style="stroke: #A80036; stroke-width: 1.0;" x1="213" x2="408.5" y1="204.8281" y2="204.8281"/><text fill="#000000" font-family="sans-serif" font-size="13" lengthAdjust="spacingAndGlyphs" textLength="139" x="220" y="199.7622">Receive the HTTP PUT</text><polygon fill="#A80036" points="621.5,229.9609,631.5,233.9609,621.5,237.9609,625.5,233.9609" style="stroke: #A80036; stroke-width: 1.0;"/><line style="stroke: #A80036; stroke-width: 1.0;" x1="424.5" x2="627.5" y1="233.9609" y2="233.9609"/><text fill="#000000" font-family="sans-serif" font-size="13" lengthAdjust="spacingAndGlyphs" textLength="82" x="431.5" y="228.895">createFloor()</text><polygon fill="#A80036" points="755.5,259.0938,765.5,263.0938,755.5,267.0938,759.5,263.0938" style="stroke: #A80036; stroke-width: 1.0;"/><line style="stroke: #A80036; stroke-width: 1.0;" x1="643.5" x2="761.5" y1="263.0938" y2="263.0938"/><text fill="#000000" font-family="sans-serif" font-size="13" lengthAdjust="spacingAndGlyphs" textLength="61" x="650.5" y="258.0278">HTTP PUT</text><polygon fill="#A80036" points="896.5,288.2266,906.5,292.2266,896.5,296.2266,900.5,292.2266" style="stroke: #A80036; stroke-width: 1.0;"/><line style="stroke: #A80036; stroke-width: 1.0;" x1="777.5" x2="902.5" y1="292.2266" y2="292.2266"/><text fill="#000000" font-family="sans-serif" font-size="13" lengthAdjust="spacingAndGlyphs" textLength="82" x="784.5" y="287.1606">createFloor()</text><polygon fill="#A80036" points="1108.5,317.3594,1118.5,321.3594,1108.5,325.3594,1112.5,321.3594" style="stroke: #A80036; stroke-width: 1.0;"/><line style="stroke: #A80036; stroke-width: 1.0;" x1="918.5" x2="1114.5" y1="321.3594" y2="321.3594"/><text fill="#000000" font-family="sans-serif" font-size="13" lengthAdjust="spacingAndGlyphs" textLength="178" x="925.5" y="316.2935">Query to save the new Floor</text><path d="M13,336.3594 L77,336.3594 L77,343.3594 L67,353.3594 L13,353.3594 L13,336.3594 " fill="#EEEEEE" style="stroke: #000000; stroke-width: 1.0;"/><rect fill="none" height="381.5313" style="stroke: #000000; stroke-width: 2.0;" width="1153.5" x="13" y="336.3594"/><text fill="#000000" font-family="sans-serif" font-size="13" font-weight="bold" lengthAdjust="spacingAndGlyphs" textLength="19" x="28" y="349.4263">alt</text><text fill="#000000" font-family="sans-serif" font-size="11" font-weight="bold" lengthAdjust="spacingAndGlyphs" textLength="54" x="92" y="348.5698">[sucess]</text><polygon fill="#A80036" points="929.5,370.625,919.5,374.625,929.5,378.625,925.5,374.625" style="stroke: #A80036; stroke-width: 1.0;"/><line style="stroke: #A80036; stroke-width: 1.0; stroke-dasharray: 2.0,2.0;" x1="923.5" x2="1119.5" y1="374.625" y2="374.625"/><text fill="#000000" font-family="sans-serif" font-size="13" lengthAdjust="spacingAndGlyphs" textLength="107" x="935.5" y="369.5591">sucess message</text><polygon fill="#A80036" points="788.5,399.7578,778.5,403.7578,788.5,407.7578,784.5,403.7578" style="stroke: #A80036; stroke-width: 1.0;"/><line style="stroke: #A80036; stroke-width: 1.0; stroke-dasharray: 2.0,2.0;" x1="782.5" x2="912.5" y1="403.7578" y2="403.7578"/><text fill="#000000" font-family="sans-serif" font-size="13" lengthAdjust="spacingAndGlyphs" textLength="107" x="794.5" y="398.6919">sucess message</text><polygon fill="#A80036" points="654.5,428.8906,644.5,432.8906,654.5,436.8906,650.5,432.8906" style="stroke: #A80036; stroke-width: 1.0;"/><line style="stroke: #A80036; stroke-width: 1.0; stroke-dasharray: 2.0,2.0;" x1="648.5" x2="771.5" y1="432.8906" y2="432.8906"/><text fill="#000000" font-family="sans-serif" font-size="13" lengthAdjust="spacingAndGlyphs" textLength="82" x="660.5" y="427.8247">HTTP 200 OK</text><polygon fill="#A80036" points="435.5,458.0234,425.5,462.0234,435.5,466.0234,431.5,462.0234" style="stroke: #A80036; stroke-width: 1.0;"/><line style="stroke: #A80036; stroke-width: 1.0;" x1="429.5" x2="637.5" y1="462.0234" y2="462.0234"/><text fill="#000000" font-family="sans-serif" font-size="13" lengthAdjust="spacingAndGlyphs" textLength="185" x="441.5" y="456.9575">Console.log sucess message</text><polygon fill="#A80036" points="224,487.1563,214,491.1563,224,495.1563,220,491.1563" style="stroke: #A80036; stroke-width: 1.0;"/><line style="stroke: #A80036; stroke-width: 1.0;" x1="218" x2="418.5" y1="491.1563" y2="491.1563"/><text fill="#000000" font-family="sans-serif" font-size="13" lengthAdjust="spacingAndGlyphs" textLength="107" x="230" y="486.0903">Sucess Message</text><polygon fill="#A80036" points="58,516.2891,48,520.2891,58,524.2891,54,520.2891" style="stroke: #A80036; stroke-width: 1.0;"/><line style="stroke: #A80036; stroke-width: 1.0; stroke-dasharray: 2.0,2.0;" x1="52" x2="202" y1="520.2891" y2="520.2891"/><text fill="#000000" font-family="sans-serif" font-size="13" lengthAdjust="spacingAndGlyphs" textLength="107" x="64" y="515.2231">Sucess Message</text><line style="stroke: #000000; stroke-width: 1.0; stroke-dasharray: 2.0,2.0;" x1="13" x2="1166.5" y1="529.2891" y2="529.2891"/><text fill="#000000" font-family="sans-serif" font-size="11" font-weight="bold" lengthAdjust="spacingAndGlyphs" textLength="41" x="18" y="539.4995">[Error]</text><polygon fill="#A80036" points="924.5,560.2266,914.5,564.2266,924.5,568.2266,920.5,564.2266" style="stroke: #A80036; stroke-width: 1.0;"/><line style="stroke: #A80036; stroke-width: 1.0; stroke-dasharray: 2.0,2.0;" x1="918.5" x2="1119.5" y1="564.2266" y2="564.2266"/><text fill="#000000" font-family="sans-serif" font-size="13" lengthAdjust="spacingAndGlyphs" textLength="94" x="930.5" y="559.1606">error message</text><polygon fill="#A80036" points="783.5,589.3594,773.5,593.3594,783.5,597.3594,779.5,593.3594" style="stroke: #A80036; stroke-width: 1.0;"/><line style="stroke: #A80036; stroke-width: 1.0; stroke-dasharray: 2.0,2.0;" x1="777.5" x2="912.5" y1="593.3594" y2="593.3594"/><text fill="#000000" font-family="sans-serif" font-size="13" lengthAdjust="spacingAndGlyphs" textLength="94" x="789.5" y="588.2935">error message</text><polygon fill="#A80036" points="649.5,618.4922,639.5,622.4922,649.5,626.4922,645.5,622.4922" style="stroke: #A80036; stroke-width: 1.0;"/><line style="stroke: #A80036; stroke-width: 1.0; stroke-dasharray: 2.0,2.0;" x1="643.5" x2="771.5" y1="622.4922" y2="622.4922"/><text fill="#000000" font-family="sans-serif" font-size="13" lengthAdjust="spacingAndGlyphs" textLength="60" x="655.5" y="617.4263">HTTP 500</text><polygon fill="#A80036" points="430.5,647.625,420.5,651.625,430.5,655.625,426.5,651.625" style="stroke: #A80036; stroke-width: 1.0;"/><line style="stroke: #A80036; stroke-width: 1.0;" x1="424.5" x2="637.5" y1="651.625" y2="651.625"/><text fill="#000000" font-family="sans-serif" font-size="13" lengthAdjust="spacingAndGlyphs" textLength="172" x="436.5" y="646.5591">Console.log error message</text><polygon fill="#A80036" points="224,676.7578,214,680.7578,224,684.7578,220,680.7578" style="stroke: #A80036; stroke-width: 1.0;"/><line style="stroke: #A80036; stroke-width: 1.0;" x1="218" x2="418.5" y1="680.7578" y2="680.7578"/><text fill="#000000" font-family="sans-serif" font-size="13" lengthAdjust="spacingAndGlyphs" textLength="92" x="230" y="675.6919">error Message</text><polygon fill="#A80036" points="58,705.8906,48,709.8906,58,713.8906,54,709.8906" style="stroke: #A80036; stroke-width: 1.0;"/><line style="stroke: #A80036; stroke-width: 1.0; stroke-dasharray: 2.0,2.0;" x1="52" x2="202" y1="709.8906" y2="709.8906"/><text fill="#000000" font-family="sans-serif" font-size="13" lengthAdjust="spacingAndGlyphs" textLength="92" x="64" y="704.8247">error Message</text><!--MD5=[16ddbf539efe27e790612d29ea73d7ce]
@startuml
actor "User" as user
participant ":CreateFloorComponentHTML" as ui
participant "CreateFloorComponent" as component
participant ":FloorServiceFE" as servicefe
participant ":FloorController" as controller
participant ":FloorServiceBE" as service

database "Database" as db

activate user
activate ui
user -> ui: Create Floor
ui -> user: Request Floor's Data
user -> ui: Insert Floor's Data

ui -> component: Receive the HTTP PUT
activate component
component -> servicefe: createFloor()
activate servicefe
servicefe -> controller: HTTP PUT
activate controller
controller -> service: createFloor()
activate service
service -> db: Query to save the new Floor
alt sucess 
db - -> service: sucess message
service - -> controller: sucess message
deactivate service
controller - -> servicefe: HTTP 200 OK 
deactivate controller
servicefe -> component: Console.log sucess message
deactivate servicefe
component -> ui: Sucess Message
deactivate component
ui - -> user: Sucess Message
else Error 
db - -> service: error message
service - -> controller: error message
deactivate service
controller - -> servicefe: HTTP 500
deactivate controller
servicefe -> component: Console.log error message
deactivate servicefe
component -> ui: error Message
deactivate component
ui - -> user: error Message

end
@enduml

PlantUML version 1.2020.02(Sun Mar 01 10:22:07 UTC 2020)
(GPL source distribution)
Java Runtime: OpenJDK Runtime Environment
JVM: OpenJDK 64-Bit Server VM
Java Version: 11.0.21+9
Operating System: Linux
Default Encoding: UTF-8
Language: en
Country: null
--></g></svg>