<?xml version="1.0" encoding="UTF-8" standalone="no"?><svg xmlns="http://www.w3.org/2000/svg" xmlns:xlink="http://www.w3.org/1999/xlink" contentScriptType="application/ecmascript" contentStyleType="text/css" height="967px" preserveAspectRatio="none" style="width:1375px;height:967px;" version="1.1" viewBox="0 0 1375 967" width="1375px" zoomAndPan="magnify"><defs><filter height="300%" id="fr4ucv9jbzv2i" width="300%" x="-1" y="-1"><feGaussianBlur result="blurOut" stdDeviation="2.0"/><feColorMatrix in="blurOut" result="blurOut2" type="matrix" values="0 0 0 0 0 0 0 0 0 0 0 0 0 0 0 0 0 0 .4 0"/><feOffset dx="4.0" dy="4.0" in="blurOut2" result="blurOut3"/><feBlend in="SourceGraphic" in2="blurOut3" mode="normal"/></filter></defs><g><rect fill="#FFFFFF" filter="url(#fr4ucv9jbzv2i)" height="774.2578" style="stroke: #A80036; stroke-width: 1.0;" width="10" x="37" y="96.2969"/><rect fill="#FFFFFF" filter="url(#fr4ucv9jbzv2i)" height="679.8594" style="stroke: #A80036; stroke-width: 1.0;" width="10" x="236" y="175.6953"/><rect fill="#FFFFFF" filter="url(#fr4ucv9jbzv2i)" height="621.5938" style="stroke: #A80036; stroke-width: 1.0;" width="10" x="360" y="204.8281"/><rect fill="#FFFFFF" filter="url(#fr4ucv9jbzv2i)" height="563.3281" style="stroke: #A80036; stroke-width: 1.0;" width="10" x="484" y="233.9609"/><rect fill="#FFFFFF" filter="url(#fr4ucv9jbzv2i)" height="505.0625" style="stroke: #A80036; stroke-width: 1.0;" width="10" x="605" y="263.0938"/><rect fill="#FFFFFF" filter="url(#fr4ucv9jbzv2i)" height="446.7969" style="stroke: #A80036; stroke-width: 1.0;" width="10" x="726" y="292.2266"/><rect fill="#FFFFFF" filter="url(#fr4ucv9jbzv2i)" height="388.5313" style="stroke: #A80036; stroke-width: 1.0;" width="10" x="958" y="321.3594"/><rect fill="#FFFFFF" filter="url(#fr4ucv9jbzv2i)" height="330.2656" style="stroke: #A80036; stroke-width: 1.0;" width="10" x="1190" y="350.4922"/><rect fill="#FFFFFF" filter="url(#fr4ucv9jbzv2i)" height="29.1328" style="stroke: #A80036; stroke-width: 1.0;" width="10" x="1312" y="403.7578"/><rect fill="#FFFFFF" filter="url(#fr4ucv9jbzv2i)" height="498.0625" style="stroke: #000000; stroke-width: 2.0;" width="1350" x="13" y="365.4922"/><rect fill="#FFFFFF" height="218.7344" style="stroke: none; stroke-width: 1.0;" width="1350" x="13" y="644.8203"/><line style="stroke: #A80036; stroke-width: 1.0; stroke-dasharray: 5.0,5.0;" x1="42" x2="42" y1="86.2969" y2="880.5547"/><line style="stroke: #A80036; stroke-width: 1.0; stroke-dasharray: 5.0,5.0;" x1="240.5" x2="240.5" y1="86.2969" y2="880.5547"/><line style="stroke: #A80036; stroke-width: 1.0; stroke-dasharray: 5.0,5.0;" x1="364.5" x2="364.5" y1="86.2969" y2="880.5547"/><line style="stroke: #A80036; stroke-width: 1.0; stroke-dasharray: 5.0,5.0;" x1="488.5" x2="488.5" y1="86.2969" y2="880.5547"/><line style="stroke: #A80036; stroke-width: 1.0; stroke-dasharray: 5.0,5.0;" x1="609.5" x2="609.5" y1="86.2969" y2="880.5547"/><line style="stroke: #A80036; stroke-width: 1.0; stroke-dasharray: 5.0,5.0;" x1="730.5" x2="730.5" y1="86.2969" y2="880.5547"/><line style="stroke: #A80036; stroke-width: 1.0; stroke-dasharray: 5.0,5.0;" x1="963" x2="963" y1="86.2969" y2="880.5547"/><line style="stroke: #A80036; stroke-width: 1.0; stroke-dasharray: 5.0,5.0;" x1="1194.5" x2="1194.5" y1="86.2969" y2="880.5547"/><line style="stroke: #A80036; stroke-width: 1.0; stroke-dasharray: 5.0,5.0;" x1="1317" x2="1317" y1="86.2969" y2="880.5547"/><text fill="#000000" font-family="sans-serif" font-size="14" lengthAdjust="spacingAndGlyphs" textLength="32" x="23" y="82.9951">User</text><ellipse cx="42" cy="13" fill="#FEFECE" filter="url(#fr4ucv9jbzv2i)" rx="8" ry="8" style="stroke: #A80036; stroke-width: 2.0;"/><path d="M42,21 L42,48 M29,29 L55,29 M42,48 L29,63 M42,48 L55,63 " fill="none" filter="url(#fr4ucv9jbzv2i)" style="stroke: #A80036; stroke-width: 2.0;"/><text fill="#000000" font-family="sans-serif" font-size="14" lengthAdjust="spacingAndGlyphs" textLength="32" x="23" y="892.5498">User</text><ellipse cx="42" cy="905.8516" fill="#FEFECE" filter="url(#fr4ucv9jbzv2i)" rx="8" ry="8" style="stroke: #A80036; stroke-width: 2.0;"/><path d="M42,913.8516 L42,940.8516 M29,921.8516 L55,921.8516 M42,940.8516 L29,955.8516 M42,940.8516 L55,955.8516 " fill="none" filter="url(#fr4ucv9jbzv2i)" style="stroke: #A80036; stroke-width: 2.0;"/><rect fill="#FEFECE" filter="url(#fr4ucv9jbzv2i)" height="30.2969" style="stroke: #A80036; stroke-width: 1.5;" width="51" x="213.5" y="51"/><text fill="#000000" font-family="sans-serif" font-size="14" lengthAdjust="spacingAndGlyphs" textLength="37" x="220.5" y="70.9951">:View</text><rect fill="#FEFECE" filter="url(#fr4ucv9jbzv2i)" height="30.2969" style="stroke: #A80036; stroke-width: 1.5;" width="51" x="213.5" y="879.5547"/><text fill="#000000" font-family="sans-serif" font-size="14" lengthAdjust="spacingAndGlyphs" textLength="37" x="220.5" y="899.5498">:View</text><rect fill="#FEFECE" filter="url(#fr4ucv9jbzv2i)" height="30.2969" style="stroke: #A80036; stroke-width: 1.5;" width="125" x="300.5" y="51"/><text fill="#000000" font-family="sans-serif" font-size="14" lengthAdjust="spacingAndGlyphs" textLength="111" x="307.5" y="70.9951">:FE_Component</text><rect fill="#FEFECE" filter="url(#fr4ucv9jbzv2i)" height="30.2969" style="stroke: #A80036; stroke-width: 1.5;" width="125" x="300.5" y="879.5547"/><text fill="#000000" font-family="sans-serif" font-size="14" lengthAdjust="spacingAndGlyphs" textLength="111" x="307.5" y="899.5498">:FE_Component</text><rect fill="#FEFECE" filter="url(#fr4ucv9jbzv2i)" height="30.2969" style="stroke: #A80036; stroke-width: 1.5;" width="93" x="440.5" y="51"/><text fill="#000000" font-family="sans-serif" font-size="14" lengthAdjust="spacingAndGlyphs" textLength="79" x="447.5" y="70.9951">:FE_Service</text><rect fill="#FEFECE" filter="url(#fr4ucv9jbzv2i)" height="30.2969" style="stroke: #A80036; stroke-width: 1.5;" width="93" x="440.5" y="879.5547"/><text fill="#000000" font-family="sans-serif" font-size="14" lengthAdjust="spacingAndGlyphs" textLength="79" x="447.5" y="899.5498">:FE_Service</text><rect fill="#FEFECE" filter="url(#fr4ucv9jbzv2i)" height="30.2969" style="stroke: #A80036; stroke-width: 1.5;" width="73" x="571.5" y="51"/><text fill="#000000" font-family="sans-serif" font-size="14" lengthAdjust="spacingAndGlyphs" textLength="59" x="578.5" y="70.9951">:Routing</text><rect fill="#FEFECE" filter="url(#fr4ucv9jbzv2i)" height="30.2969" style="stroke: #A80036; stroke-width: 1.5;" width="73" x="571.5" y="879.5547"/><text fill="#000000" font-family="sans-serif" font-size="14" lengthAdjust="spacingAndGlyphs" textLength="59" x="578.5" y="899.5498">:Routing</text><rect fill="#FEFECE" filter="url(#fr4ucv9jbzv2i)" height="30.2969" style="stroke: #A80036; stroke-width: 1.5;" width="141" x="658.5" y="51"/><text fill="#000000" font-family="sans-serif" font-size="14" lengthAdjust="spacingAndGlyphs" textLength="127" x="665.5" y="70.9951">:BuildingController</text><rect fill="#FEFECE" filter="url(#fr4ucv9jbzv2i)" height="30.2969" style="stroke: #A80036; stroke-width: 1.5;" width="141" x="658.5" y="879.5547"/><text fill="#000000" font-family="sans-serif" font-size="14" lengthAdjust="spacingAndGlyphs" textLength="127" x="665.5" y="899.5498">:BuildingController</text><rect fill="#FEFECE" filter="url(#fr4ucv9jbzv2i)" height="30.2969" style="stroke: #A80036; stroke-width: 1.5;" width="124" x="899" y="51"/><text fill="#000000" font-family="sans-serif" font-size="14" lengthAdjust="spacingAndGlyphs" textLength="110" x="906" y="70.9951">:BuildingService</text><rect fill="#FEFECE" filter="url(#fr4ucv9jbzv2i)" height="30.2969" style="stroke: #A80036; stroke-width: 1.5;" width="124" x="899" y="879.5547"/><text fill="#000000" font-family="sans-serif" font-size="14" lengthAdjust="spacingAndGlyphs" textLength="110" x="906" y="899.5498">:BuildingService</text><rect fill="#FEFECE" filter="url(#fr4ucv9jbzv2i)" height="30.2969" style="stroke: #A80036; stroke-width: 1.5;" width="111" x="1137.5" y="51"/><text fill="#000000" font-family="sans-serif" font-size="14" lengthAdjust="spacingAndGlyphs" textLength="97" x="1144.5" y="70.9951">:BuildingRepo</text><rect fill="#FEFECE" filter="url(#fr4ucv9jbzv2i)" height="30.2969" style="stroke: #A80036; stroke-width: 1.5;" width="111" x="1137.5" y="879.5547"/><text fill="#000000" font-family="sans-serif" font-size="14" lengthAdjust="spacingAndGlyphs" textLength="97" x="1144.5" y="899.5498">:BuildingRepo</text><text fill="#000000" font-family="sans-serif" font-size="14" lengthAdjust="spacingAndGlyphs" textLength="66" x="1281" y="82.9951">Database</text><path d="M1299,34 C1299,24 1317,24 1317,24 C1317,24 1335,24 1335,34 L1335,60 C1335,70 1317,70 1317,70 C1317,70 1299,70 1299,60 L1299,34 " fill="#FEFECE" filter="url(#fr4ucv9jbzv2i)" style="stroke: #000000; stroke-width: 1.5;"/><path d="M1299,34 C1299,44 1317,44 1317,44 C1317,44 1335,44 1335,34 " fill="none" style="stroke: #000000; stroke-width: 1.5;"/><text fill="#000000" font-family="sans-serif" font-size="14" lengthAdjust="spacingAndGlyphs" textLength="66" x="1281" y="892.5498">Database</text><path d="M1299,905.8516 C1299,895.8516 1317,895.8516 1317,895.8516 C1317,895.8516 1335,895.8516 1335,905.8516 L1335,931.8516 C1335,941.8516 1317,941.8516 1317,941.8516 C1317,941.8516 1299,941.8516 1299,931.8516 L1299,905.8516 " fill="#FEFECE" filter="url(#fr4ucv9jbzv2i)" style="stroke: #000000; stroke-width: 1.5;"/><path d="M1299,905.8516 C1299,915.8516 1317,915.8516 1317,915.8516 C1317,915.8516 1335,915.8516 1335,905.8516 " fill="none" style="stroke: #000000; stroke-width: 1.5;"/><rect fill="#FFFFFF" filter="url(#fr4ucv9jbzv2i)" height="774.2578" style="stroke: #A80036; stroke-width: 1.0;" width="10" x="37" y="96.2969"/><rect fill="#FFFFFF" filter="url(#fr4ucv9jbzv2i)" height="679.8594" style="stroke: #A80036; stroke-width: 1.0;" width="10" x="236" y="175.6953"/><rect fill="#FFFFFF" filter="url(#fr4ucv9jbzv2i)" height="621.5938" style="stroke: #A80036; stroke-width: 1.0;" width="10" x="360" y="204.8281"/><rect fill="#FFFFFF" filter="url(#fr4ucv9jbzv2i)" height="563.3281" style="stroke: #A80036; stroke-width: 1.0;" width="10" x="484" y="233.9609"/><rect fill="#FFFFFF" filter="url(#fr4ucv9jbzv2i)" height="505.0625" style="stroke: #A80036; stroke-width: 1.0;" width="10" x="605" y="263.0938"/><rect fill="#FFFFFF" filter="url(#fr4ucv9jbzv2i)" height="446.7969" style="stroke: #A80036; stroke-width: 1.0;" width="10" x="726" y="292.2266"/><rect fill="#FFFFFF" filter="url(#fr4ucv9jbzv2i)" height="388.5313" style="stroke: #A80036; stroke-width: 1.0;" width="10" x="958" y="321.3594"/><rect fill="#FFFFFF" filter="url(#fr4ucv9jbzv2i)" height="330.2656" style="stroke: #A80036; stroke-width: 1.0;" width="10" x="1190" y="350.4922"/><rect fill="#FFFFFF" filter="url(#fr4ucv9jbzv2i)" height="29.1328" style="stroke: #A80036; stroke-width: 1.0;" width="10" x="1312" y="403.7578"/><polygon fill="#A80036" points="229,113.4297,239,117.4297,229,121.4297,233,117.4297" style="stroke: #A80036; stroke-width: 1.0;"/><line style="stroke: #A80036; stroke-width: 1.0;" x1="47" x2="235" y1="117.4297" y2="117.4297"/><text fill="#000000" font-family="sans-serif" font-size="13" font-weight="bold" lengthAdjust="spacingAndGlyphs" textLength="9" x="54" y="112.3638">1</text><text fill="#000000" font-family="sans-serif" font-size="13" lengthAdjust="spacingAndGlyphs" textLength="145" x="67" y="112.3638">Wants to create a floor</text><polygon fill="#A80036" points="58,142.5625,48,146.5625,58,150.5625,54,146.5625" style="stroke: #A80036; stroke-width: 1.0;"/><line style="stroke: #A80036; stroke-width: 1.0;" x1="52" x2="240" y1="146.5625" y2="146.5625"/><text fill="#000000" font-family="sans-serif" font-size="13" font-weight="bold" lengthAdjust="spacingAndGlyphs" textLength="9" x="64" y="141.4966">2</text><text fill="#000000" font-family="sans-serif" font-size="13" lengthAdjust="spacingAndGlyphs" textLength="130" x="77" y="141.4966">Request Floor's data</text><polygon fill="#A80036" points="224,171.6953,234,175.6953,224,179.6953,228,175.6953" style="stroke: #A80036; stroke-width: 1.0;"/><line style="stroke: #A80036; stroke-width: 1.0;" x1="47" x2="230" y1="175.6953" y2="175.6953"/><text fill="#000000" font-family="sans-serif" font-size="13" font-weight="bold" lengthAdjust="spacingAndGlyphs" textLength="9" x="54" y="170.6294">3</text><text fill="#000000" font-family="sans-serif" font-size="13" lengthAdjust="spacingAndGlyphs" textLength="114" x="67" y="170.6294">Insert Floor's data</text><polygon fill="#A80036" points="348,200.8281,358,204.8281,348,208.8281,352,204.8281" style="stroke: #A80036; stroke-width: 1.0;"/><line style="stroke: #A80036; stroke-width: 1.0;" x1="246" x2="354" y1="204.8281" y2="204.8281"/><text fill="#000000" font-family="sans-serif" font-size="13" font-weight="bold" lengthAdjust="spacingAndGlyphs" textLength="9" x="253" y="199.7622">4</text><text fill="#000000" font-family="sans-serif" font-size="13" lengthAdjust="spacingAndGlyphs" textLength="82" x="266" y="199.7622">createFloor()</text><polygon fill="#A80036" points="472,229.9609,482,233.9609,472,237.9609,476,233.9609" style="stroke: #A80036; stroke-width: 1.0;"/><line style="stroke: #A80036; stroke-width: 1.0;" x1="370" x2="478" y1="233.9609" y2="233.9609"/><text fill="#000000" font-family="sans-serif" font-size="13" font-weight="bold" lengthAdjust="spacingAndGlyphs" textLength="9" x="377" y="228.895">5</text><text fill="#000000" font-family="sans-serif" font-size="13" lengthAdjust="spacingAndGlyphs" textLength="82" x="390" y="228.895">createFloor()</text><polygon fill="#A80036" points="593,259.0938,603,263.0938,593,267.0938,597,263.0938" style="stroke: #A80036; stroke-width: 1.0;"/><line style="stroke: #A80036; stroke-width: 1.0;" x1="494" x2="599" y1="263.0938" y2="263.0938"/><text fill="#000000" font-family="sans-serif" font-size="13" font-weight="bold" lengthAdjust="spacingAndGlyphs" textLength="9" x="501" y="258.0278">6</text><text fill="#000000" font-family="sans-serif" font-size="13" lengthAdjust="spacingAndGlyphs" textLength="79" x="514" y="258.0278">GET route{}</text><polygon fill="#A80036" points="714,288.2266,724,292.2266,714,296.2266,718,292.2266" style="stroke: #A80036; stroke-width: 1.0;"/><line style="stroke: #A80036; stroke-width: 1.0;" x1="615" x2="720" y1="292.2266" y2="292.2266"/><text fill="#000000" font-family="sans-serif" font-size="13" font-weight="bold" lengthAdjust="spacingAndGlyphs" textLength="9" x="622" y="287.1606">7</text><text fill="#000000" font-family="sans-serif" font-size="13" lengthAdjust="spacingAndGlyphs" textLength="61" x="635" y="287.1606">HTTP PUT</text><polygon fill="#A80036" points="946,317.3594,956,321.3594,946,325.3594,950,321.3594" style="stroke: #A80036; stroke-width: 1.0;"/><line style="stroke: #A80036; stroke-width: 1.0;" x1="736" x2="952" y1="321.3594" y2="321.3594"/><text fill="#000000" font-family="sans-serif" font-size="13" font-weight="bold" lengthAdjust="spacingAndGlyphs" textLength="9" x="743" y="316.2935">8</text><text fill="#000000" font-family="sans-serif" font-size="13" lengthAdjust="spacingAndGlyphs" textLength="82" x="756" y="316.2935">createFloor()</text><polygon fill="#A80036" points="1178,346.4922,1188,350.4922,1178,354.4922,1182,350.4922" style="stroke: #A80036; stroke-width: 1.0;"/><line style="stroke: #A80036; stroke-width: 1.0;" x1="968" x2="1184" y1="350.4922" y2="350.4922"/><text fill="#000000" font-family="sans-serif" font-size="13" font-weight="bold" lengthAdjust="spacingAndGlyphs" textLength="9" x="975" y="345.4263">9</text><text fill="#000000" font-family="sans-serif" font-size="13" lengthAdjust="spacingAndGlyphs" textLength="82" x="988" y="345.4263">createFloor()</text><path d="M13,365.4922 L77,365.4922 L77,372.4922 L67,382.4922 L13,382.4922 L13,365.4922 " fill="#EEEEEE" style="stroke: #000000; stroke-width: 1.0;"/><rect fill="none" height="498.0625" style="stroke: #000000; stroke-width: 2.0;" width="1350" x="13" y="365.4922"/><text fill="#000000" font-family="sans-serif" font-size="13" font-weight="bold" lengthAdjust="spacingAndGlyphs" textLength="19" x="28" y="378.5591">alt</text><text fill="#000000" font-family="sans-serif" font-size="11" font-weight="bold" lengthAdjust="spacingAndGlyphs" textLength="54" x="92" y="377.7026">[sucess]</text><polygon fill="#A80036" points="1300,399.7578,1310,403.7578,1300,407.7578,1304,403.7578" style="stroke: #A80036; stroke-width: 1.0;"/><line style="stroke: #A80036; stroke-width: 1.0;" x1="1200" x2="1306" y1="403.7578" y2="403.7578"/><text fill="#000000" font-family="sans-serif" font-size="13" font-weight="bold" lengthAdjust="spacingAndGlyphs" textLength="18" x="1207" y="398.6919">10</text><text fill="#000000" font-family="sans-serif" font-size="13" lengthAdjust="spacingAndGlyphs" textLength="71" x="1229" y="398.6919">save(Floor)</text><polygon fill="#A80036" points="1211,428.8906,1201,432.8906,1211,436.8906,1207,432.8906" style="stroke: #A80036; stroke-width: 1.0;"/><line style="stroke: #A80036; stroke-width: 1.0; stroke-dasharray: 2.0,2.0;" x1="1205" x2="1316" y1="432.8906" y2="432.8906"/><text fill="#000000" font-family="sans-serif" font-size="13" font-weight="bold" lengthAdjust="spacingAndGlyphs" textLength="18" x="1217" y="427.8247">11</text><text fill="#000000" font-family="sans-serif" font-size="13" lengthAdjust="spacingAndGlyphs" textLength="44" x="1239" y="427.8247">sucess</text><polygon fill="#A80036" points="979,458.0234,969,462.0234,979,466.0234,975,462.0234" style="stroke: #A80036; stroke-width: 1.0;"/><line style="stroke: #A80036; stroke-width: 1.0;" x1="973" x2="1189" y1="462.0234" y2="462.0234"/><text fill="#000000" font-family="sans-serif" font-size="13" font-weight="bold" lengthAdjust="spacingAndGlyphs" textLength="18" x="985" y="456.9575">12</text><text fill="#000000" font-family="sans-serif" font-size="13" lengthAdjust="spacingAndGlyphs" textLength="44" x="1007" y="456.9575">sucess</text><polygon fill="#A80036" points="747,487.1563,737,491.1563,747,495.1563,743,491.1563" style="stroke: #A80036; stroke-width: 1.0;"/><line style="stroke: #A80036; stroke-width: 1.0;" x1="741" x2="957" y1="491.1563" y2="491.1563"/><text fill="#000000" font-family="sans-serif" font-size="13" font-weight="bold" lengthAdjust="spacingAndGlyphs" textLength="18" x="753" y="486.0903">13</text><text fill="#000000" font-family="sans-serif" font-size="13" lengthAdjust="spacingAndGlyphs" textLength="44" x="775" y="486.0903">sucess</text><polygon fill="#A80036" points="626,516.2891,616,520.2891,626,524.2891,622,520.2891" style="stroke: #A80036; stroke-width: 1.0;"/><line style="stroke: #A80036; stroke-width: 1.0; stroke-dasharray: 2.0,2.0;" x1="620" x2="725" y1="520.2891" y2="520.2891"/><text fill="#000000" font-family="sans-serif" font-size="13" font-weight="bold" lengthAdjust="spacingAndGlyphs" textLength="18" x="632" y="515.2231">14</text><text fill="#000000" font-family="sans-serif" font-size="13" lengthAdjust="spacingAndGlyphs" textLength="64" x="654" y="515.2231">HTTP: 201</text><polygon fill="#A80036" points="505,545.4219,495,549.4219,505,553.4219,501,549.4219" style="stroke: #A80036; stroke-width: 1.0;"/><line style="stroke: #A80036; stroke-width: 1.0; stroke-dasharray: 2.0,2.0;" x1="499" x2="604" y1="549.4219" y2="549.4219"/><text fill="#000000" font-family="sans-serif" font-size="13" font-weight="bold" lengthAdjust="spacingAndGlyphs" textLength="18" x="511" y="544.356">15</text><text fill="#000000" font-family="sans-serif" font-size="13" lengthAdjust="spacingAndGlyphs" textLength="64" x="533" y="544.356">HTTP: 201</text><polygon fill="#A80036" points="381,574.5547,371,578.5547,381,582.5547,377,578.5547" style="stroke: #A80036; stroke-width: 1.0;"/><line style="stroke: #A80036; stroke-width: 1.0; stroke-dasharray: 2.0,2.0;" x1="375" x2="483" y1="578.5547" y2="578.5547"/><text fill="#000000" font-family="sans-serif" font-size="13" font-weight="bold" lengthAdjust="spacingAndGlyphs" textLength="18" x="387" y="573.4888">16</text><text fill="#000000" font-family="sans-serif" font-size="13" lengthAdjust="spacingAndGlyphs" textLength="64" x="409" y="573.4888">HTTP: 201</text><polygon fill="#A80036" points="257,603.6875,247,607.6875,257,611.6875,253,607.6875" style="stroke: #A80036; stroke-width: 1.0;"/><line style="stroke: #A80036; stroke-width: 1.0; stroke-dasharray: 2.0,2.0;" x1="251" x2="359" y1="607.6875" y2="607.6875"/><text fill="#000000" font-family="sans-serif" font-size="13" font-weight="bold" lengthAdjust="spacingAndGlyphs" textLength="18" x="263" y="602.6216">17</text><text fill="#000000" font-family="sans-serif" font-size="13" lengthAdjust="spacingAndGlyphs" textLength="64" x="285" y="602.6216">HTTP: 201</text><polygon fill="#A80036" points="58,632.8203,48,636.8203,58,640.8203,54,636.8203" style="stroke: #A80036; stroke-width: 1.0;"/><line style="stroke: #A80036; stroke-width: 1.0; stroke-dasharray: 2.0,2.0;" x1="52" x2="235" y1="636.8203" y2="636.8203"/><text fill="#000000" font-family="sans-serif" font-size="13" font-weight="bold" lengthAdjust="spacingAndGlyphs" textLength="18" x="64" y="631.7544">18</text><text fill="#000000" font-family="sans-serif" font-size="13" lengthAdjust="spacingAndGlyphs" textLength="143" x="86" y="631.7544">show Sucess Message</text><line style="stroke: #000000; stroke-width: 1.0; stroke-dasharray: 2.0,2.0;" x1="13" x2="1363" y1="645.8203" y2="645.8203"/><text fill="#000000" font-family="sans-serif" font-size="11" font-weight="bold" lengthAdjust="spacingAndGlyphs" textLength="5" x="18" y="656.0308">[</text><text fill="#000000" font-family="sans-serif" font-size="11" font-weight="bold" lengthAdjust="spacingAndGlyphs" textLength="47" x="50" y="656.0308">failure]</text><polygon fill="#A80036" points="979,676.7578,969,680.7578,979,684.7578,975,680.7578" style="stroke: #A80036; stroke-width: 1.0;"/><line style="stroke: #A80036; stroke-width: 1.0; stroke-dasharray: 2.0,2.0;" x1="973" x2="1194" y1="680.7578" y2="680.7578"/><text fill="#000000" font-family="sans-serif" font-size="13" font-weight="bold" lengthAdjust="spacingAndGlyphs" textLength="18" x="985" y="675.6919">19</text><text fill="#000000" font-family="sans-serif" font-size="13" lengthAdjust="spacingAndGlyphs" textLength="176" x="1007" y="675.6919">Error('Internal Server Error')</text><polygon fill="#A80036" points="747,705.8906,737,709.8906,747,713.8906,743,709.8906" style="stroke: #A80036; stroke-width: 1.0;"/><line style="stroke: #A80036; stroke-width: 1.0;" x1="741" x2="962" y1="709.8906" y2="709.8906"/><text fill="#000000" font-family="sans-serif" font-size="13" font-weight="bold" lengthAdjust="spacingAndGlyphs" textLength="18" x="753" y="704.8247">20</text><text fill="#000000" font-family="sans-serif" font-size="13" lengthAdjust="spacingAndGlyphs" textLength="176" x="775" y="704.8247">Error('Internal Server Error')</text><polygon fill="#A80036" points="626,735.0234,616,739.0234,626,743.0234,622,739.0234" style="stroke: #A80036; stroke-width: 1.0;"/><line style="stroke: #A80036; stroke-width: 1.0; stroke-dasharray: 2.0,2.0;" x1="620" x2="730" y1="739.0234" y2="739.0234"/><text fill="#000000" font-family="sans-serif" font-size="13" font-weight="bold" lengthAdjust="spacingAndGlyphs" textLength="18" x="632" y="733.9575">21</text><text fill="#000000" font-family="sans-serif" font-size="13" lengthAdjust="spacingAndGlyphs" textLength="64" x="654" y="733.9575">HTTP: 500</text><polygon fill="#A80036" points="505,764.1563,495,768.1563,505,772.1563,501,768.1563" style="stroke: #A80036; stroke-width: 1.0;"/><line style="stroke: #A80036; stroke-width: 1.0; stroke-dasharray: 2.0,2.0;" x1="499" x2="609" y1="768.1563" y2="768.1563"/><text fill="#000000" font-family="sans-serif" font-size="13" font-weight="bold" lengthAdjust="spacingAndGlyphs" textLength="18" x="511" y="763.0903">22</text><text fill="#000000" font-family="sans-serif" font-size="13" lengthAdjust="spacingAndGlyphs" textLength="64" x="533" y="763.0903">HTTP: 500</text><polygon fill="#A80036" points="381,793.2891,371,797.2891,381,801.2891,377,797.2891" style="stroke: #A80036; stroke-width: 1.0;"/><line style="stroke: #A80036; stroke-width: 1.0; stroke-dasharray: 2.0,2.0;" x1="375" x2="488" y1="797.2891" y2="797.2891"/><text fill="#000000" font-family="sans-serif" font-size="13" font-weight="bold" lengthAdjust="spacingAndGlyphs" textLength="18" x="387" y="792.2231">23</text><text fill="#000000" font-family="sans-serif" font-size="13" lengthAdjust="spacingAndGlyphs" textLength="64" x="409" y="792.2231">HTTP: 500</text><polygon fill="#A80036" points="257,822.4219,247,826.4219,257,830.4219,253,826.4219" style="stroke: #A80036; stroke-width: 1.0;"/><line style="stroke: #A80036; stroke-width: 1.0; stroke-dasharray: 2.0,2.0;" x1="251" x2="364" y1="826.4219" y2="826.4219"/><text fill="#000000" font-family="sans-serif" font-size="13" font-weight="bold" lengthAdjust="spacingAndGlyphs" textLength="18" x="263" y="821.356">24</text><text fill="#000000" font-family="sans-serif" font-size="13" lengthAdjust="spacingAndGlyphs" textLength="64" x="285" y="821.356">HTTP: 500</text><polygon fill="#A80036" points="58,851.5547,48,855.5547,58,859.5547,54,855.5547" style="stroke: #A80036; stroke-width: 1.0;"/><line style="stroke: #A80036; stroke-width: 1.0; stroke-dasharray: 2.0,2.0;" x1="52" x2="240" y1="855.5547" y2="855.5547"/><text fill="#000000" font-family="sans-serif" font-size="13" font-weight="bold" lengthAdjust="spacingAndGlyphs" textLength="18" x="64" y="850.4888">25</text><text fill="#000000" font-family="sans-serif" font-size="13" lengthAdjust="spacingAndGlyphs" textLength="138" x="86" y="850.4888">show failure message</text><!--MD5=[18a2aee45d2cdc186df8a69d85c65606]
@startuml
autonumber
actor "User" as user

participant ":View" as sys
participant ":FE_Component" as comp
participant ":FE_Service" as FEsrvc
participant ":Routing" as route
participant ":BuildingController" as ctrl
participant ":BuildingService" as srvc
participant ":BuildingRepo" as repo


database "Database" as db

activate user
 user -> sys: Wants to create a floor
 sys -> user: Request Floor's data
 user -> sys: Insert Floor's data
activate sys
sys -> comp : createFloor()
activate comp
comp -> FEsrvc : createFloor()
activate FEsrvc
FEsrvc -> route: GET route{}
activate route
route -> ctrl: HTTP PUT
activate ctrl
ctrl -> srvc: createFloor()
activate srvc
srvc -> repo: createFloor()




alt sucess
    activate repo
    repo -> db: save(Floor)
    activate db
    db - -> repo: sucess
    deactivate db
    repo -> srvc: sucess
    
    srvc -> ctrl: sucess
    ctrl - -> route : HTTP: 201
    route - -> FEsrvc: HTTP: 201
    FEsrvc - -> comp: HTTP: 201
    comp - -> sys: HTTP: 201
    sys - -> user: show Sucess Message
else \tfailure
    repo - -> srvc: Error('Internal Server Error')
    deactivate repo
    srvc -> ctrl: Error('Internal Server Error')
    deactivate srvc
    ctrl - -> route : HTTP: 500
    deactivate ctrl
    route - -> FEsrvc: HTTP: 500
    deactivate route
    FEsrvc - -> comp: HTTP: 500
    deactivate FEsrvc 
    comp - -> sys: HTTP: 500
    deactivate comp
    sys - -> user: show failure message
    deactivate sys
end


deactivate repo
deactivate ctrl
deactivate route
deactivate FEsrvc
deactivate comp
deactivate sys
deactivate user
@enduml

PlantUML version 1.2020.02(Sun Mar 01 10:22:07 UTC 2020)
(GPL source distribution)
Java Runtime: OpenJDK Runtime Environment
JVM: OpenJDK 64-Bit Server VM
Java Version: 11.0.21+9
Operating System: Linux
Default Encoding: UTF-8
Language: en
Country: null
--></g></svg>