<?xml version="1.0" encoding="UTF-8" standalone="no"?><svg xmlns="http://www.w3.org/2000/svg" xmlns:xlink="http://www.w3.org/1999/xlink" contentScriptType="application/ecmascript" contentStyleType="text/css" height="1320px" preserveAspectRatio="none" style="width:2229px;height:1320px;" version="1.1" viewBox="0 0 2229 1320" width="2229px" zoomAndPan="magnify"><defs><filter height="300%" id="f1ofa3rjg9oeip" width="300%" x="-1" y="-1"><feGaussianBlur result="blurOut" stdDeviation="2.0"/><feColorMatrix in="blurOut" result="blurOut2" type="matrix" values="0 0 0 0 0 0 0 0 0 0 0 0 0 0 0 0 0 0 .4 0"/><feOffset dx="4.0" dy="4.0" in="blurOut2" result="blurOut3"/><feBlend in="SourceGraphic" in2="blurOut3" mode="normal"/></filter></defs><g><rect fill="#FFFFFF" filter="url(#f1ofa3rjg9oeip)" height="1126.9141" style="stroke: #A80036; stroke-width: 1.0;" width="10" x="42.5" y="96.2969"/><rect fill="#FFFFFF" filter="url(#f1ofa3rjg9oeip)" height="1105.7813" style="stroke: #A80036; stroke-width: 1.0;" width="10" x="250.5" y="117.4297"/><rect fill="#FFFFFF" filter="url(#f1ofa3rjg9oeip)" height="1047.5156" style="stroke: #A80036; stroke-width: 1.0;" width="10" x="394.5" y="175.6953"/><rect fill="#FFFFFF" filter="url(#f1ofa3rjg9oeip)" height="843.5859" style="stroke: #A80036; stroke-width: 1.0;" width="10" x="572.5" y="379.625"/><rect fill="#FFFFFF" filter="url(#f1ofa3rjg9oeip)" height="58.2656" style="stroke: #A80036; stroke-width: 1.0;" width="10" x="717" y="204.8281"/><rect fill="#FFFFFF" filter="url(#f1ofa3rjg9oeip)" height="58.2656" style="stroke: #A80036; stroke-width: 1.0;" width="10" x="843" y="233.9609"/><rect fill="#FFFFFF" filter="url(#f1ofa3rjg9oeip)" height="814.4531" style="stroke: #A80036; stroke-width: 1.0;" width="10" x="843" y="408.7578"/><rect fill="#FFFFFF" filter="url(#f1ofa3rjg9oeip)" height="785.3203" style="stroke: #A80036; stroke-width: 1.0;" width="10" x="1013" y="437.8906"/><rect fill="#FFFFFF" filter="url(#f1ofa3rjg9oeip)" height="58.2656" style="stroke: #A80036; stroke-width: 1.0;" width="10" x="1150.5" y="263.0938"/><rect fill="#FFFFFF" filter="url(#f1ofa3rjg9oeip)" height="58.2656" style="stroke: #A80036; stroke-width: 1.0;" width="10" x="1276" y="292.2266"/><rect fill="#FFFFFF" filter="url(#f1ofa3rjg9oeip)" height="757.1875" style="stroke: #A80036; stroke-width: 1.0;" width="10" x="1396.5" y="467.0234"/><rect fill="#FFFFFF" filter="url(#f1ofa3rjg9oeip)" height="29.1328" style="stroke: #A80036; stroke-width: 1.0;" width="10" x="1555.5" y="321.3594"/><rect fill="#FFFFFF" filter="url(#f1ofa3rjg9oeip)" height="29.1328" style="stroke: #A80036; stroke-width: 1.0;" width="10" x="1555.5" y="525.2891"/><rect fill="#FFFFFF" filter="url(#f1ofa3rjg9oeip)" height="668.7891" style="stroke: #A80036; stroke-width: 1.0;" width="10" x="1719.5" y="554.4219"/><rect fill="#FFFFFF" filter="url(#f1ofa3rjg9oeip)" height="30" style="stroke: #A80036; stroke-width: 1.0;" width="10" x="1966.5" y="739.2188"/><rect fill="#FFFFFF" filter="url(#f1ofa3rjg9oeip)" height="29.1328" style="stroke: #A80036; stroke-width: 1.0;" width="10" x="2083" y="583.5547"/><rect fill="#FFFFFF" filter="url(#f1ofa3rjg9oeip)" height="29.1328" style="stroke: #A80036; stroke-width: 1.0;" width="10" x="2083" y="798.3516"/><rect fill="#FFFFFF" filter="url(#f1ofa3rjg9oeip)" height="29.1328" style="stroke: #A80036; stroke-width: 1.0;" width="10" x="2185" y="496.1563"/><rect fill="#FFFFFF" filter="url(#f1ofa3rjg9oeip)" height="59.2656" style="stroke: #000000; stroke-width: 2.0;" width="307.5" x="1664" y="627.6875"/><rect fill="#FFFFFF" filter="url(#f1ofa3rjg9oeip)" height="515.2578" style="stroke: #000000; stroke-width: 2.0;" width="2145" x="13" y="700.9531"/><rect fill="#FFFFFF" height="205.9297" style="stroke: none; stroke-width: 1.0;" width="2145" x="13" y="1010.2813"/><line style="stroke: #A80036; stroke-width: 1.0; stroke-dasharray: 5.0,5.0;" x1="47" x2="47" y1="86.2969" y2="1233.2109"/><line style="stroke: #A80036; stroke-width: 1.0; stroke-dasharray: 5.0,5.0;" x1="255" x2="255" y1="86.2969" y2="1233.2109"/><line style="stroke: #A80036; stroke-width: 1.0; stroke-dasharray: 5.0,5.0;" x1="399" x2="399" y1="86.2969" y2="1233.2109"/><line style="stroke: #A80036; stroke-width: 1.0; stroke-dasharray: 5.0,5.0;" x1="577.5" x2="577.5" y1="86.2969" y2="1233.2109"/><line style="stroke: #A80036; stroke-width: 1.0; stroke-dasharray: 5.0,5.0;" x1="721.5" x2="721.5" y1="86.2969" y2="1233.2109"/><line style="stroke: #A80036; stroke-width: 1.0; stroke-dasharray: 5.0,5.0;" x1="847.5" x2="847.5" y1="86.2969" y2="1233.2109"/><line style="stroke: #A80036; stroke-width: 1.0; stroke-dasharray: 5.0,5.0;" x1="1017.5" x2="1017.5" y1="86.2969" y2="1233.2109"/><line style="stroke: #A80036; stroke-width: 1.0; stroke-dasharray: 5.0,5.0;" x1="1155.5" x2="1155.5" y1="86.2969" y2="1233.2109"/><line style="stroke: #A80036; stroke-width: 1.0; stroke-dasharray: 5.0,5.0;" x1="1280.5" x2="1280.5" y1="86.2969" y2="1233.2109"/><line style="stroke: #A80036; stroke-width: 1.0; stroke-dasharray: 5.0,5.0;" x1="1401.5" x2="1401.5" y1="86.2969" y2="1233.2109"/><line style="stroke: #A80036; stroke-width: 1.0; stroke-dasharray: 5.0,5.0;" x1="1560.5" x2="1560.5" y1="86.2969" y2="1233.2109"/><line style="stroke: #A80036; stroke-width: 1.0; stroke-dasharray: 5.0,5.0;" x1="1724" x2="1724" y1="86.2969" y2="1233.2109"/><line style="stroke: #A80036; stroke-width: 1.0; stroke-dasharray: 5.0,5.0;" x1="1971" x2="1971" y1="86.2969" y2="1233.2109"/><line style="stroke: #A80036; stroke-width: 1.0; stroke-dasharray: 5.0,5.0;" x1="2088" x2="2088" y1="86.2969" y2="1233.2109"/><line style="stroke: #A80036; stroke-width: 1.0; stroke-dasharray: 5.0,5.0;" x1="2190" x2="2190" y1="86.2969" y2="1233.2109"/><text fill="#000000" font-family="sans-serif" font-size="14" lengthAdjust="spacingAndGlyphs" textLength="43" x="23" y="82.9951">Admin</text><ellipse cx="47.5" cy="13" fill="#FEFECE" filter="url(#f1ofa3rjg9oeip)" rx="8" ry="8" style="stroke: #A80036; stroke-width: 2.0;"/><path d="M47.5,21 L47.5,48 M34.5,29 L60.5,29 M47.5,48 L34.5,63 M47.5,48 L60.5,63 " fill="none" filter="url(#f1ofa3rjg9oeip)" style="stroke: #A80036; stroke-width: 2.0;"/><text fill="#000000" font-family="sans-serif" font-size="14" lengthAdjust="spacingAndGlyphs" textLength="43" x="23" y="1245.2061">Admin</text><ellipse cx="47.5" cy="1258.5078" fill="#FEFECE" filter="url(#f1ofa3rjg9oeip)" rx="8" ry="8" style="stroke: #A80036; stroke-width: 2.0;"/><path d="M47.5,1266.5078 L47.5,1293.5078 M34.5,1274.5078 L60.5,1274.5078 M47.5,1293.5078 L34.5,1308.5078 M47.5,1293.5078 L60.5,1308.5078 " fill="none" filter="url(#f1ofa3rjg9oeip)" style="stroke: #A80036; stroke-width: 2.0;"/><rect fill="#FEFECE" filter="url(#f1ofa3rjg9oeip)" height="30.2969" style="stroke: #A80036; stroke-width: 1.5;" width="51" x="228" y="51"/><text fill="#000000" font-family="sans-serif" font-size="14" lengthAdjust="spacingAndGlyphs" textLength="37" x="235" y="70.9951">:View</text><rect fill="#FEFECE" filter="url(#f1ofa3rjg9oeip)" height="30.2969" style="stroke: #A80036; stroke-width: 1.5;" width="51" x="228" y="1232.2109"/><text fill="#000000" font-family="sans-serif" font-size="14" lengthAdjust="spacingAndGlyphs" textLength="37" x="235" y="1252.2061">:View</text><rect fill="#FEFECE" filter="url(#f1ofa3rjg9oeip)" height="30.2969" style="stroke: #A80036; stroke-width: 1.5;" width="125" x="335" y="51"/><text fill="#000000" font-family="sans-serif" font-size="14" lengthAdjust="spacingAndGlyphs" textLength="111" x="342" y="70.9951">:FE_Component</text><rect fill="#FEFECE" filter="url(#f1ofa3rjg9oeip)" height="30.2969" style="stroke: #A80036; stroke-width: 1.5;" width="125" x="335" y="1232.2109"/><text fill="#000000" font-family="sans-serif" font-size="14" lengthAdjust="spacingAndGlyphs" textLength="111" x="342" y="1252.2061">:FE_Component</text><rect fill="#FEFECE" filter="url(#f1ofa3rjg9oeip)" height="30.2969" style="stroke: #A80036; stroke-width: 1.5;" width="134" x="508.5" y="51"/><text fill="#000000" font-family="sans-serif" font-size="14" lengthAdjust="spacingAndGlyphs" textLength="120" x="515.5" y="70.9951">:FE_RoomService</text><rect fill="#FEFECE" filter="url(#f1ofa3rjg9oeip)" height="30.2969" style="stroke: #A80036; stroke-width: 1.5;" width="134" x="508.5" y="1232.2109"/><text fill="#000000" font-family="sans-serif" font-size="14" lengthAdjust="spacingAndGlyphs" textLength="120" x="515.5" y="1252.2061">:FE_RoomService</text><rect fill="#FEFECE" filter="url(#f1ofa3rjg9oeip)" height="30.2969" style="stroke: #A80036; stroke-width: 1.5;" width="127" x="656.5" y="51"/><text fill="#000000" font-family="sans-serif" font-size="14" lengthAdjust="spacingAndGlyphs" textLength="113" x="663.5" y="70.9951">:FE_FloorService</text><rect fill="#FEFECE" filter="url(#f1ofa3rjg9oeip)" height="30.2969" style="stroke: #A80036; stroke-width: 1.5;" width="127" x="656.5" y="1232.2109"/><text fill="#000000" font-family="sans-serif" font-size="14" lengthAdjust="spacingAndGlyphs" textLength="113" x="663.5" y="1252.2061">:FE_FloorService</text><rect fill="#FEFECE" filter="url(#f1ofa3rjg9oeip)" height="30.2969" style="stroke: #A80036; stroke-width: 1.5;" width="73" x="809.5" y="51"/><text fill="#000000" font-family="sans-serif" font-size="14" lengthAdjust="spacingAndGlyphs" textLength="59" x="816.5" y="70.9951">:Routing</text><rect fill="#FEFECE" filter="url(#f1ofa3rjg9oeip)" height="30.2969" style="stroke: #A80036; stroke-width: 1.5;" width="73" x="809.5" y="1232.2109"/><text fill="#000000" font-family="sans-serif" font-size="14" lengthAdjust="spacingAndGlyphs" textLength="59" x="816.5" y="1252.2061">:Routing</text><rect fill="#FEFECE" filter="url(#f1ofa3rjg9oeip)" height="30.2969" style="stroke: #A80036; stroke-width: 1.5;" width="127" x="952.5" y="51"/><text fill="#000000" font-family="sans-serif" font-size="14" lengthAdjust="spacingAndGlyphs" textLength="113" x="959.5" y="70.9951">:RoomController</text><rect fill="#FEFECE" filter="url(#f1ofa3rjg9oeip)" height="30.2969" style="stroke: #A80036; stroke-width: 1.5;" width="127" x="952.5" y="1232.2109"/><text fill="#000000" font-family="sans-serif" font-size="14" lengthAdjust="spacingAndGlyphs" textLength="113" x="959.5" y="1252.2061">:RoomController</text><rect fill="#FEFECE" filter="url(#f1ofa3rjg9oeip)" height="30.2969" style="stroke: #A80036; stroke-width: 1.5;" width="120" x="1093.5" y="51"/><text fill="#000000" font-family="sans-serif" font-size="14" lengthAdjust="spacingAndGlyphs" textLength="106" x="1100.5" y="70.9951">:FloorController</text><rect fill="#FEFECE" filter="url(#f1ofa3rjg9oeip)" height="30.2969" style="stroke: #A80036; stroke-width: 1.5;" width="120" x="1093.5" y="1232.2109"/><text fill="#000000" font-family="sans-serif" font-size="14" lengthAdjust="spacingAndGlyphs" textLength="106" x="1100.5" y="1252.2061">:FloorController</text><rect fill="#FEFECE" filter="url(#f1ofa3rjg9oeip)" height="30.2969" style="stroke: #A80036; stroke-width: 1.5;" width="103" x="1227.5" y="51"/><text fill="#000000" font-family="sans-serif" font-size="14" lengthAdjust="spacingAndGlyphs" textLength="89" x="1234.5" y="70.9951">:FloorService</text><rect fill="#FEFECE" filter="url(#f1ofa3rjg9oeip)" height="30.2969" style="stroke: #A80036; stroke-width: 1.5;" width="103" x="1227.5" y="1232.2109"/><text fill="#000000" font-family="sans-serif" font-size="14" lengthAdjust="spacingAndGlyphs" textLength="89" x="1234.5" y="1252.2061">:FloorService</text><rect fill="#FEFECE" filter="url(#f1ofa3rjg9oeip)" height="30.2969" style="stroke: #A80036; stroke-width: 1.5;" width="110" x="1344.5" y="51"/><text fill="#000000" font-family="sans-serif" font-size="14" lengthAdjust="spacingAndGlyphs" textLength="96" x="1351.5" y="70.9951">:RoomService</text><rect fill="#FEFECE" filter="url(#f1ofa3rjg9oeip)" height="30.2969" style="stroke: #A80036; stroke-width: 1.5;" width="110" x="1344.5" y="1232.2109"/><text fill="#000000" font-family="sans-serif" font-size="14" lengthAdjust="spacingAndGlyphs" textLength="96" x="1351.5" y="1252.2061">:RoomService</text><rect fill="#FEFECE" filter="url(#f1ofa3rjg9oeip)" height="30.2969" style="stroke: #A80036; stroke-width: 1.5;" width="90" x="1513.5" y="51"/><text fill="#000000" font-family="sans-serif" font-size="14" lengthAdjust="spacingAndGlyphs" textLength="76" x="1520.5" y="70.9951">:FloorRepo</text><rect fill="#FEFECE" filter="url(#f1ofa3rjg9oeip)" height="30.2969" style="stroke: #A80036; stroke-width: 1.5;" width="90" x="1513.5" y="1232.2109"/><text fill="#000000" font-family="sans-serif" font-size="14" lengthAdjust="spacingAndGlyphs" textLength="76" x="1520.5" y="1252.2061">:FloorRepo</text><rect fill="#FEFECE" filter="url(#f1ofa3rjg9oeip)" height="30.2969" style="stroke: #A80036; stroke-width: 1.5;" width="97" x="1674" y="51"/><text fill="#000000" font-family="sans-serif" font-size="14" lengthAdjust="spacingAndGlyphs" textLength="83" x="1681" y="70.9951">:RoomRepo</text><rect fill="#FEFECE" filter="url(#f1ofa3rjg9oeip)" height="30.2969" style="stroke: #A80036; stroke-width: 1.5;" width="97" x="1674" y="1232.2109"/><text fill="#000000" font-family="sans-serif" font-size="14" lengthAdjust="spacingAndGlyphs" textLength="83" x="1681" y="1252.2061">:RoomRepo</text><rect fill="#FEFECE" filter="url(#f1ofa3rjg9oeip)" height="30.2969" style="stroke: #A80036; stroke-width: 1.5;" width="89" x="1925" y="51"/><text fill="#000000" font-family="sans-serif" font-size="14" lengthAdjust="spacingAndGlyphs" textLength="75" x="1932" y="70.9951">:RoomMap</text><rect fill="#FEFECE" filter="url(#f1ofa3rjg9oeip)" height="30.2969" style="stroke: #A80036; stroke-width: 1.5;" width="89" x="1925" y="1232.2109"/><text fill="#000000" font-family="sans-serif" font-size="14" lengthAdjust="spacingAndGlyphs" textLength="75" x="1932" y="1252.2061">:RoomMap</text><rect fill="#FEFECE" filter="url(#f1ofa3rjg9oeip)" height="30.2969" style="stroke: #A80036; stroke-width: 1.5;" width="116" x="2028" y="51"/><text fill="#000000" font-family="sans-serif" font-size="14" lengthAdjust="spacingAndGlyphs" textLength="102" x="2035" y="70.9951">:RoomSchema</text><rect fill="#FEFECE" filter="url(#f1ofa3rjg9oeip)" height="30.2969" style="stroke: #A80036; stroke-width: 1.5;" width="116" x="2028" y="1232.2109"/><text fill="#000000" font-family="sans-serif" font-size="14" lengthAdjust="spacingAndGlyphs" textLength="102" x="2035" y="1252.2061">:RoomSchema</text><rect fill="#FEFECE" filter="url(#f1ofa3rjg9oeip)" height="30.2969" style="stroke: #A80036; stroke-width: 1.5;" width="60" x="2158" y="51"/><text fill="#000000" font-family="sans-serif" font-size="14" lengthAdjust="spacingAndGlyphs" textLength="46" x="2165" y="70.9951">:Room</text><rect fill="#FEFECE" filter="url(#f1ofa3rjg9oeip)" height="30.2969" style="stroke: #A80036; stroke-width: 1.5;" width="60" x="2158" y="1232.2109"/><text fill="#000000" font-family="sans-serif" font-size="14" lengthAdjust="spacingAndGlyphs" textLength="46" x="2165" y="1252.2061">:Room</text><rect fill="#FFFFFF" filter="url(#f1ofa3rjg9oeip)" height="1126.9141" style="stroke: #A80036; stroke-width: 1.0;" width="10" x="42.5" y="96.2969"/><rect fill="#FFFFFF" filter="url(#f1ofa3rjg9oeip)" height="1105.7813" style="stroke: #A80036; stroke-width: 1.0;" width="10" x="250.5" y="117.4297"/><rect fill="#FFFFFF" filter="url(#f1ofa3rjg9oeip)" height="1047.5156" style="stroke: #A80036; stroke-width: 1.0;" width="10" x="394.5" y="175.6953"/><rect fill="#FFFFFF" filter="url(#f1ofa3rjg9oeip)" height="843.5859" style="stroke: #A80036; stroke-width: 1.0;" width="10" x="572.5" y="379.625"/><rect fill="#FFFFFF" filter="url(#f1ofa3rjg9oeip)" height="58.2656" style="stroke: #A80036; stroke-width: 1.0;" width="10" x="717" y="204.8281"/><rect fill="#FFFFFF" filter="url(#f1ofa3rjg9oeip)" height="58.2656" style="stroke: #A80036; stroke-width: 1.0;" width="10" x="843" y="233.9609"/><rect fill="#FFFFFF" filter="url(#f1ofa3rjg9oeip)" height="814.4531" style="stroke: #A80036; stroke-width: 1.0;" width="10" x="843" y="408.7578"/><rect fill="#FFFFFF" filter="url(#f1ofa3rjg9oeip)" height="785.3203" style="stroke: #A80036; stroke-width: 1.0;" width="10" x="1013" y="437.8906"/><rect fill="#FFFFFF" filter="url(#f1ofa3rjg9oeip)" height="58.2656" style="stroke: #A80036; stroke-width: 1.0;" width="10" x="1150.5" y="263.0938"/><rect fill="#FFFFFF" filter="url(#f1ofa3rjg9oeip)" height="58.2656" style="stroke: #A80036; stroke-width: 1.0;" width="10" x="1276" y="292.2266"/><rect fill="#FFFFFF" filter="url(#f1ofa3rjg9oeip)" height="757.1875" style="stroke: #A80036; stroke-width: 1.0;" width="10" x="1396.5" y="467.0234"/><rect fill="#FFFFFF" filter="url(#f1ofa3rjg9oeip)" height="29.1328" style="stroke: #A80036; stroke-width: 1.0;" width="10" x="1555.5" y="321.3594"/><rect fill="#FFFFFF" filter="url(#f1ofa3rjg9oeip)" height="29.1328" style="stroke: #A80036; stroke-width: 1.0;" width="10" x="1555.5" y="525.2891"/><rect fill="#FFFFFF" filter="url(#f1ofa3rjg9oeip)" height="668.7891" style="stroke: #A80036; stroke-width: 1.0;" width="10" x="1719.5" y="554.4219"/><rect fill="#FFFFFF" filter="url(#f1ofa3rjg9oeip)" height="30" style="stroke: #A80036; stroke-width: 1.0;" width="10" x="1966.5" y="739.2188"/><rect fill="#FFFFFF" filter="url(#f1ofa3rjg9oeip)" height="29.1328" style="stroke: #A80036; stroke-width: 1.0;" width="10" x="2083" y="583.5547"/><rect fill="#FFFFFF" filter="url(#f1ofa3rjg9oeip)" height="29.1328" style="stroke: #A80036; stroke-width: 1.0;" width="10" x="2083" y="798.3516"/><rect fill="#FFFFFF" filter="url(#f1ofa3rjg9oeip)" height="29.1328" style="stroke: #A80036; stroke-width: 1.0;" width="10" x="2185" y="496.1563"/><polygon fill="#A80036" points="238.5,113.4297,248.5,117.4297,238.5,121.4297,242.5,117.4297" style="stroke: #A80036; stroke-width: 1.0;"/><line style="stroke: #A80036; stroke-width: 1.0;" x1="52.5" x2="244.5" y1="117.4297" y2="117.4297"/><text fill="#000000" font-family="sans-serif" font-size="13" font-weight="bold" lengthAdjust="spacingAndGlyphs" textLength="9" x="59.5" y="112.3638">1</text><text fill="#000000" font-family="sans-serif" font-size="13" lengthAdjust="spacingAndGlyphs" textLength="74" x="72.5" y="112.3638">add a room</text><polygon fill="#A80036" points="63.5,142.5625,53.5,146.5625,63.5,150.5625,59.5,146.5625" style="stroke: #A80036; stroke-width: 1.0;"/><line style="stroke: #A80036; stroke-width: 1.0; stroke-dasharray: 2.0,2.0;" x1="57.5" x2="249.5" y1="146.5625" y2="146.5625"/><text fill="#000000" font-family="sans-serif" font-size="13" font-weight="bold" lengthAdjust="spacingAndGlyphs" textLength="9" x="69.5" y="141.4966">2</text><text fill="#000000" font-family="sans-serif" font-size="13" lengthAdjust="spacingAndGlyphs" textLength="161" x="82.5" y="141.4966">request necessary data()</text><polygon fill="#A80036" points="238.5,171.6953,248.5,175.6953,238.5,179.6953,242.5,175.6953" style="stroke: #A80036; stroke-width: 1.0;"/><line style="stroke: #A80036; stroke-width: 1.0;" x1="52.5" x2="244.5" y1="175.6953" y2="175.6953"/><text fill="#000000" font-family="sans-serif" font-size="13" font-weight="bold" lengthAdjust="spacingAndGlyphs" textLength="9" x="59.5" y="170.6294">3</text><text fill="#000000" font-family="sans-serif" font-size="13" lengthAdjust="spacingAndGlyphs" textLength="112" x="72.5" y="170.6294">insert all the data</text><polygon fill="#A80036" points="382.5,200.8281,392.5,204.8281,382.5,208.8281,386.5,204.8281" style="stroke: #A80036; stroke-width: 1.0;"/><line style="stroke: #A80036; stroke-width: 1.0;" x1="260.5" x2="388.5" y1="204.8281" y2="204.8281"/><text fill="#000000" font-family="sans-serif" font-size="13" font-weight="bold" lengthAdjust="spacingAndGlyphs" textLength="9" x="267.5" y="199.7622">4</text><text fill="#000000" font-family="sans-serif" font-size="13" lengthAdjust="spacingAndGlyphs" textLength="69" x="280.5" y="199.7622">getFloors()</text><polygon fill="#A80036" points="705,229.9609,715,233.9609,705,237.9609,709,233.9609" style="stroke: #A80036; stroke-width: 1.0;"/><line style="stroke: #A80036; stroke-width: 1.0;" x1="404.5" x2="711" y1="233.9609" y2="233.9609"/><text fill="#000000" font-family="sans-serif" font-size="13" font-weight="bold" lengthAdjust="spacingAndGlyphs" textLength="9" x="411.5" y="228.895">5</text><text fill="#000000" font-family="sans-serif" font-size="13" lengthAdjust="spacingAndGlyphs" textLength="66" x="424.5" y="228.895">listFloors()</text><polygon fill="#A80036" points="831,259.0938,841,263.0938,831,267.0938,835,263.0938" style="stroke: #A80036; stroke-width: 1.0;"/><line style="stroke: #A80036; stroke-width: 1.0;" x1="722" x2="837" y1="263.0938" y2="263.0938"/><text fill="#000000" font-family="sans-serif" font-size="13" font-weight="bold" lengthAdjust="spacingAndGlyphs" textLength="9" x="729" y="258.0278">6</text><text fill="#000000" font-family="sans-serif" font-size="13" lengthAdjust="spacingAndGlyphs" textLength="79" x="742" y="258.0278">GET route{}</text><polygon fill="#A80036" points="1138.5,288.2266,1148.5,292.2266,1138.5,296.2266,1142.5,292.2266" style="stroke: #A80036; stroke-width: 1.0;"/><line style="stroke: #A80036; stroke-width: 1.0;" x1="848" x2="1144.5" y1="292.2266" y2="292.2266"/><text fill="#000000" font-family="sans-serif" font-size="13" font-weight="bold" lengthAdjust="spacingAndGlyphs" textLength="9" x="855" y="287.1606">7</text><text fill="#000000" font-family="sans-serif" font-size="13" lengthAdjust="spacingAndGlyphs" textLength="81" x="868" y="287.1606">listAllFloors()</text><polygon fill="#A80036" points="1264,317.3594,1274,321.3594,1264,325.3594,1268,321.3594" style="stroke: #A80036; stroke-width: 1.0;"/><line style="stroke: #A80036; stroke-width: 1.0;" x1="1155.5" x2="1270" y1="321.3594" y2="321.3594"/><text fill="#000000" font-family="sans-serif" font-size="13" font-weight="bold" lengthAdjust="spacingAndGlyphs" textLength="9" x="1162.5" y="316.2935">8</text><text fill="#000000" font-family="sans-serif" font-size="13" lengthAdjust="spacingAndGlyphs" textLength="48" x="1175.5" y="316.2935">findAll()</text><polygon fill="#A80036" points="1548.5,346.4922,1558.5,350.4922,1548.5,354.4922,1552.5,350.4922" style="stroke: #A80036; stroke-width: 1.0;"/><line style="stroke: #A80036; stroke-width: 1.0;" x1="1281" x2="1554.5" y1="350.4922" y2="350.4922"/><text fill="#000000" font-family="sans-serif" font-size="13" font-weight="bold" lengthAdjust="spacingAndGlyphs" textLength="9" x="1288" y="345.4263">9</text><text fill="#000000" font-family="sans-serif" font-size="13" lengthAdjust="spacingAndGlyphs" textLength="48" x="1301" y="345.4263">findAll()</text><polygon fill="#A80036" points="382.5,375.625,392.5,379.625,382.5,383.625,386.5,379.625" style="stroke: #A80036; stroke-width: 1.0;"/><line style="stroke: #A80036; stroke-width: 1.0;" x1="260.5" x2="388.5" y1="379.625" y2="379.625"/><text fill="#000000" font-family="sans-serif" font-size="13" font-weight="bold" lengthAdjust="spacingAndGlyphs" textLength="18" x="267.5" y="374.5591">10</text><text fill="#000000" font-family="sans-serif" font-size="13" lengthAdjust="spacingAndGlyphs" textLength="88" x="289.5" y="374.5591">createRoom()</text><polygon fill="#A80036" points="560.5,404.7578,570.5,408.7578,560.5,412.7578,564.5,408.7578" style="stroke: #A80036; stroke-width: 1.0;"/><line style="stroke: #A80036; stroke-width: 1.0;" x1="404.5" x2="566.5" y1="408.7578" y2="408.7578"/><text fill="#000000" font-family="sans-serif" font-size="13" font-weight="bold" lengthAdjust="spacingAndGlyphs" textLength="18" x="411.5" y="403.6919">11</text><text fill="#000000" font-family="sans-serif" font-size="13" lengthAdjust="spacingAndGlyphs" textLength="122" x="433.5" y="403.6919">createRoom(room)</text><polygon fill="#A80036" points="831,433.8906,841,437.8906,831,441.8906,835,437.8906" style="stroke: #A80036; stroke-width: 1.0;"/><line style="stroke: #A80036; stroke-width: 1.0;" x1="582.5" x2="837" y1="437.8906" y2="437.8906"/><text fill="#000000" font-family="sans-serif" font-size="13" font-weight="bold" lengthAdjust="spacingAndGlyphs" textLength="18" x="589.5" y="432.8247">12</text><text fill="#000000" font-family="sans-serif" font-size="13" lengthAdjust="spacingAndGlyphs" textLength="114" x="611.5" y="432.8247">POST route{json}</text><polygon fill="#A80036" points="1001,463.0234,1011,467.0234,1001,471.0234,1005,467.0234" style="stroke: #A80036; stroke-width: 1.0;"/><line style="stroke: #A80036; stroke-width: 1.0;" x1="853" x2="1007" y1="467.0234" y2="467.0234"/><text fill="#000000" font-family="sans-serif" font-size="13" font-weight="bold" lengthAdjust="spacingAndGlyphs" textLength="18" x="860" y="461.9575">13</text><text fill="#000000" font-family="sans-serif" font-size="13" lengthAdjust="spacingAndGlyphs" textLength="114" x="882" y="461.9575">createRoom(json)</text><polygon fill="#A80036" points="1384.5,492.1563,1394.5,496.1563,1384.5,500.1563,1388.5,496.1563" style="stroke: #A80036; stroke-width: 1.0;"/><line style="stroke: #A80036; stroke-width: 1.0;" x1="1023" x2="1390.5" y1="496.1563" y2="496.1563"/><text fill="#000000" font-family="sans-serif" font-size="13" font-weight="bold" lengthAdjust="spacingAndGlyphs" textLength="18" x="1030" y="491.0903">14</text><text fill="#000000" font-family="sans-serif" font-size="13" lengthAdjust="spacingAndGlyphs" textLength="155" x="1052" y="491.0903">createRoom(IRoomDTO)</text><polygon fill="#A80036" points="2178,521.2891,2188,525.2891,2178,529.2891,2182,525.2891" style="stroke: #A80036; stroke-width: 1.0;"/><line style="stroke: #A80036; stroke-width: 1.0;" x1="1406.5" x2="2184" y1="525.2891" y2="525.2891"/><text fill="#000000" font-family="sans-serif" font-size="13" font-weight="bold" lengthAdjust="spacingAndGlyphs" textLength="18" x="1413.5" y="520.2231">15</text><text fill="#000000" font-family="sans-serif" font-size="13" lengthAdjust="spacingAndGlyphs" textLength="51" x="1435.5" y="520.2231">create()</text><polygon fill="#A80036" points="1548.5,550.4219,1558.5,554.4219,1548.5,558.4219,1552.5,554.4219" style="stroke: #A80036; stroke-width: 1.0;"/><line style="stroke: #A80036; stroke-width: 1.0;" x1="1406.5" x2="1554.5" y1="554.4219" y2="554.4219"/><text fill="#000000" font-family="sans-serif" font-size="13" font-weight="bold" lengthAdjust="spacingAndGlyphs" textLength="18" x="1413.5" y="549.356">16</text><text fill="#000000" font-family="sans-serif" font-size="13" lengthAdjust="spacingAndGlyphs" textLength="103" x="1435.5" y="549.356">findById(floor.id)</text><polygon fill="#A80036" points="1707.5,579.5547,1717.5,583.5547,1707.5,587.5547,1711.5,583.5547" style="stroke: #A80036; stroke-width: 1.0;"/><line style="stroke: #A80036; stroke-width: 1.0;" x1="1406.5" x2="1713.5" y1="583.5547" y2="583.5547"/><text fill="#000000" font-family="sans-serif" font-size="13" font-weight="bold" lengthAdjust="spacingAndGlyphs" textLength="18" x="1413.5" y="578.4888">17</text><text fill="#000000" font-family="sans-serif" font-size="13" lengthAdjust="spacingAndGlyphs" textLength="68" x="1435.5" y="578.4888">save(floor)</text><polygon fill="#A80036" points="2076,608.6875,2086,612.6875,2076,616.6875,2080,612.6875" style="stroke: #A80036; stroke-width: 1.0;"/><line style="stroke: #A80036; stroke-width: 1.0;" x1="1729.5" x2="2082" y1="612.6875" y2="612.6875"/><text fill="#000000" font-family="sans-serif" font-size="13" font-weight="bold" lengthAdjust="spacingAndGlyphs" textLength="18" x="1736.5" y="607.6216">18</text><text fill="#000000" font-family="sans-serif" font-size="13" lengthAdjust="spacingAndGlyphs" textLength="114" x="1758.5" y="607.6216">find(room.floor.id)</text><path d="M1664,627.6875 L1741,627.6875 L1741,634.6875 L1731,644.6875 L1664,644.6875 L1664,627.6875 " fill="#EEEEEE" style="stroke: #000000; stroke-width: 1.0;"/><rect fill="none" height="59.2656" style="stroke: #000000; stroke-width: 2.0;" width="307.5" x="1664" y="627.6875"/><text fill="#000000" font-family="sans-serif" font-size="13" font-weight="bold" lengthAdjust="spacingAndGlyphs" textLength="32" x="1679" y="640.7544">loop</text><text fill="#000000" font-family="sans-serif" font-size="11" font-weight="bold" lengthAdjust="spacingAndGlyphs" textLength="148" x="1756" y="639.8979">[All Rooms Same Floor]</text><line style="stroke: #A80036; stroke-width: 1.0;" x1="1729.5" x2="1771.5" y1="665.9531" y2="665.9531"/><line style="stroke: #A80036; stroke-width: 1.0;" x1="1771.5" x2="1771.5" y1="665.9531" y2="678.9531"/><line style="stroke: #A80036; stroke-width: 1.0;" x1="1730.5" x2="1771.5" y1="678.9531" y2="678.9531"/><polygon fill="#A80036" points="1740.5,674.9531,1730.5,678.9531,1740.5,682.9531,1736.5,678.9531" style="stroke: #A80036; stroke-width: 1.0;"/><text fill="#000000" font-family="sans-serif" font-size="13" font-weight="bold" lengthAdjust="spacingAndGlyphs" textLength="18" x="1736.5" y="660.8872">19</text><text fill="#000000" font-family="sans-serif" font-size="13" lengthAdjust="spacingAndGlyphs" textLength="201" x="1758.5" y="660.8872">doRoomsOverlap(Room, Room)</text><path d="M13,700.9531 L77,700.9531 L77,707.9531 L67,717.9531 L13,717.9531 L13,700.9531 " fill="#EEEEEE" style="stroke: #000000; stroke-width: 1.0;"/><rect fill="none" height="515.2578" style="stroke: #000000; stroke-width: 2.0;" width="2145" x="13" y="700.9531"/><text fill="#000000" font-family="sans-serif" font-size="13" font-weight="bold" lengthAdjust="spacingAndGlyphs" textLength="19" x="28" y="714.02">alt</text><text fill="#000000" font-family="sans-serif" font-size="11" font-weight="bold" lengthAdjust="spacingAndGlyphs" textLength="78" x="92" y="713.1636">[no overlap]</text><polygon fill="#A80036" points="1954.5,735.2188,1964.5,739.2188,1954.5,743.2188,1958.5,739.2188" style="stroke: #A80036; stroke-width: 1.0;"/><line style="stroke: #A80036; stroke-width: 1.0;" x1="1729.5" x2="1960.5" y1="739.2188" y2="739.2188"/><text fill="#000000" font-family="sans-serif" font-size="13" font-weight="bold" lengthAdjust="spacingAndGlyphs" textLength="18" x="1736.5" y="734.1528">20</text><text fill="#000000" font-family="sans-serif" font-size="13" lengthAdjust="spacingAndGlyphs" textLength="134" x="1758.5" y="734.1528">toPersistance(Room)</text><polygon fill="#A80036" points="2071,794.3516,2081,798.3516,2071,802.3516,2075,798.3516" style="stroke: #A80036; stroke-width: 1.0;"/><line style="stroke: #A80036; stroke-width: 1.0;" x1="1729.5" x2="2077" y1="798.3516" y2="798.3516"/><text fill="#000000" font-family="sans-serif" font-size="13" font-weight="bold" lengthAdjust="spacingAndGlyphs" textLength="18" x="1736.5" y="793.2856">21</text><text fill="#000000" font-family="sans-serif" font-size="13" lengthAdjust="spacingAndGlyphs" textLength="88" x="1758.5" y="793.2856">create(Room)</text><polygon fill="#A80036" points="1417.5,823.4844,1407.5,827.4844,1417.5,831.4844,1413.5,827.4844" style="stroke: #A80036; stroke-width: 1.0;"/><line style="stroke: #A80036; stroke-width: 1.0; stroke-dasharray: 2.0,2.0;" x1="1411.5" x2="1718.5" y1="827.4844" y2="827.4844"/><text fill="#000000" font-family="sans-serif" font-size="13" font-weight="bold" lengthAdjust="spacingAndGlyphs" textLength="18" x="1423.5" y="822.4185">22</text><text fill="#000000" font-family="sans-serif" font-size="13" lengthAdjust="spacingAndGlyphs" textLength="37" x="1445.5" y="822.4185">Room</text><polygon fill="#A80036" points="1034,852.6172,1024,856.6172,1034,860.6172,1030,856.6172" style="stroke: #A80036; stroke-width: 1.0;"/><line style="stroke: #A80036; stroke-width: 1.0; stroke-dasharray: 2.0,2.0;" x1="1028" x2="1395.5" y1="856.6172" y2="856.6172"/><text fill="#000000" font-family="sans-serif" font-size="13" font-weight="bold" lengthAdjust="spacingAndGlyphs" textLength="18" x="1040" y="851.5513">23</text><text fill="#000000" font-family="sans-serif" font-size="13" lengthAdjust="spacingAndGlyphs" textLength="37" x="1062" y="851.5513">Room</text><polygon fill="#A80036" points="864,881.75,854,885.75,864,889.75,860,885.75" style="stroke: #A80036; stroke-width: 1.0;"/><line style="stroke: #A80036; stroke-width: 1.0; stroke-dasharray: 2.0,2.0;" x1="858" x2="1012" y1="885.75" y2="885.75"/><text fill="#000000" font-family="sans-serif" font-size="13" font-weight="bold" lengthAdjust="spacingAndGlyphs" textLength="18" x="870" y="880.6841">24</text><text fill="#000000" font-family="sans-serif" font-size="13" lengthAdjust="spacingAndGlyphs" textLength="64" x="892" y="880.6841">HTTP: 201</text><polygon fill="#A80036" points="593.5,910.8828,583.5,914.8828,593.5,918.8828,589.5,914.8828" style="stroke: #A80036; stroke-width: 1.0;"/><line style="stroke: #A80036; stroke-width: 1.0; stroke-dasharray: 2.0,2.0;" x1="587.5" x2="842" y1="914.8828" y2="914.8828"/><text fill="#000000" font-family="sans-serif" font-size="13" font-weight="bold" lengthAdjust="spacingAndGlyphs" textLength="18" x="599.5" y="909.8169">25</text><text fill="#000000" font-family="sans-serif" font-size="13" lengthAdjust="spacingAndGlyphs" textLength="64" x="621.5" y="909.8169">HTTP: 201</text><polygon fill="#A80036" points="415.5,940.0156,405.5,944.0156,415.5,948.0156,411.5,944.0156" style="stroke: #A80036; stroke-width: 1.0;"/><line style="stroke: #A80036; stroke-width: 1.0; stroke-dasharray: 2.0,2.0;" x1="409.5" x2="571.5" y1="944.0156" y2="944.0156"/><text fill="#000000" font-family="sans-serif" font-size="13" font-weight="bold" lengthAdjust="spacingAndGlyphs" textLength="18" x="421.5" y="938.9497">26</text><text fill="#000000" font-family="sans-serif" font-size="13" lengthAdjust="spacingAndGlyphs" textLength="64" x="443.5" y="938.9497">HTTP: 201</text><polygon fill="#A80036" points="271.5,969.1484,261.5,973.1484,271.5,977.1484,267.5,973.1484" style="stroke: #A80036; stroke-width: 1.0;"/><line style="stroke: #A80036; stroke-width: 1.0; stroke-dasharray: 2.0,2.0;" x1="265.5" x2="393.5" y1="973.1484" y2="973.1484"/><text fill="#000000" font-family="sans-serif" font-size="13" font-weight="bold" lengthAdjust="spacingAndGlyphs" textLength="18" x="277.5" y="968.0825">27</text><text fill="#000000" font-family="sans-serif" font-size="13" lengthAdjust="spacingAndGlyphs" textLength="64" x="299.5" y="968.0825">HTTP: 201</text><polygon fill="#A80036" points="63.5,998.2813,53.5,1002.2813,63.5,1006.2813,59.5,1002.2813" style="stroke: #A80036; stroke-width: 1.0;"/><line style="stroke: #A80036; stroke-width: 1.0; stroke-dasharray: 2.0,2.0;" x1="57.5" x2="249.5" y1="1002.2813" y2="1002.2813"/><text fill="#000000" font-family="sans-serif" font-size="13" font-weight="bold" lengthAdjust="spacingAndGlyphs" textLength="18" x="69.5" y="997.2153">28</text><text fill="#000000" font-family="sans-serif" font-size="13" lengthAdjust="spacingAndGlyphs" textLength="150" x="91.5" y="997.2153">show success message</text><line style="stroke: #000000; stroke-width: 1.0; stroke-dasharray: 2.0,2.0;" x1="13" x2="2158" y1="1011.2813" y2="1011.2813"/><polygon fill="#A80036" points="1417.5,1029.4141,1407.5,1033.4141,1417.5,1037.4141,1413.5,1033.4141" style="stroke: #A80036; stroke-width: 1.0;"/><line style="stroke: #A80036; stroke-width: 1.0; stroke-dasharray: 2.0,2.0;" x1="1411.5" x2="1718.5" y1="1033.4141" y2="1033.4141"/><text fill="#000000" font-family="sans-serif" font-size="13" font-weight="bold" lengthAdjust="spacingAndGlyphs" textLength="18" x="1423.5" y="1028.3481">29</text><text fill="#000000" font-family="sans-serif" font-size="13" lengthAdjust="spacingAndGlyphs" textLength="267" x="1445.5" y="1028.3481">Error(Room overlaps with existing rooms.)</text><polygon fill="#A80036" points="1034,1058.5469,1024,1062.5469,1034,1066.5469,1030,1062.5469" style="stroke: #A80036; stroke-width: 1.0;"/><line style="stroke: #A80036; stroke-width: 1.0; stroke-dasharray: 2.0,2.0;" x1="1028" x2="1395.5" y1="1062.5469" y2="1062.5469"/><text fill="#000000" font-family="sans-serif" font-size="13" font-weight="bold" lengthAdjust="spacingAndGlyphs" textLength="18" x="1040" y="1057.481">30</text><text fill="#000000" font-family="sans-serif" font-size="13" lengthAdjust="spacingAndGlyphs" textLength="267" x="1062" y="1057.481">Error(Room overlaps with existing rooms.)</text><polygon fill="#A80036" points="864,1087.6797,854,1091.6797,864,1095.6797,860,1091.6797" style="stroke: #A80036; stroke-width: 1.0;"/><line style="stroke: #A80036; stroke-width: 1.0; stroke-dasharray: 2.0,2.0;" x1="858" x2="1012" y1="1091.6797" y2="1091.6797"/><text fill="#000000" font-family="sans-serif" font-size="13" font-weight="bold" lengthAdjust="spacingAndGlyphs" textLength="18" x="870" y="1086.6138">31</text><text fill="#000000" font-family="sans-serif" font-size="13" lengthAdjust="spacingAndGlyphs" textLength="64" x="892" y="1086.6138">HTTP: 400</text><polygon fill="#A80036" points="593.5,1116.8125,583.5,1120.8125,593.5,1124.8125,589.5,1120.8125" style="stroke: #A80036; stroke-width: 1.0;"/><line style="stroke: #A80036; stroke-width: 1.0; stroke-dasharray: 2.0,2.0;" x1="587.5" x2="842" y1="1120.8125" y2="1120.8125"/><text fill="#000000" font-family="sans-serif" font-size="13" font-weight="bold" lengthAdjust="spacingAndGlyphs" textLength="18" x="599.5" y="1115.7466">32</text><text fill="#000000" font-family="sans-serif" font-size="13" lengthAdjust="spacingAndGlyphs" textLength="64" x="621.5" y="1115.7466">HTTP: 400</text><polygon fill="#A80036" points="415.5,1145.9453,405.5,1149.9453,415.5,1153.9453,411.5,1149.9453" style="stroke: #A80036; stroke-width: 1.0;"/><line style="stroke: #A80036; stroke-width: 1.0; stroke-dasharray: 2.0,2.0;" x1="409.5" x2="571.5" y1="1149.9453" y2="1149.9453"/><text fill="#000000" font-family="sans-serif" font-size="13" font-weight="bold" lengthAdjust="spacingAndGlyphs" textLength="18" x="421.5" y="1144.8794">33</text><text fill="#000000" font-family="sans-serif" font-size="13" lengthAdjust="spacingAndGlyphs" textLength="64" x="443.5" y="1144.8794">HTTP: 400</text><polygon fill="#A80036" points="271.5,1175.0781,261.5,1179.0781,271.5,1183.0781,267.5,1179.0781" style="stroke: #A80036; stroke-width: 1.0;"/><line style="stroke: #A80036; stroke-width: 1.0; stroke-dasharray: 2.0,2.0;" x1="265.5" x2="393.5" y1="1179.0781" y2="1179.0781"/><text fill="#000000" font-family="sans-serif" font-size="13" font-weight="bold" lengthAdjust="spacingAndGlyphs" textLength="18" x="277.5" y="1174.0122">34</text><text fill="#000000" font-family="sans-serif" font-size="13" lengthAdjust="spacingAndGlyphs" textLength="64" x="299.5" y="1174.0122">HTTP: 400</text><polygon fill="#A80036" points="63.5,1204.2109,53.5,1208.2109,63.5,1212.2109,59.5,1208.2109" style="stroke: #A80036; stroke-width: 1.0;"/><line style="stroke: #A80036; stroke-width: 1.0; stroke-dasharray: 2.0,2.0;" x1="57.5" x2="249.5" y1="1208.2109" y2="1208.2109"/><text fill="#000000" font-family="sans-serif" font-size="13" font-weight="bold" lengthAdjust="spacingAndGlyphs" textLength="18" x="69.5" y="1203.145">35</text><text fill="#000000" font-family="sans-serif" font-size="13" lengthAdjust="spacingAndGlyphs" textLength="138" x="91.5" y="1203.145">show failure message</text><!--MD5=[c1f1547d0df9a62ada838928f1116422]
@startuml
autonumber
actor "Admin" as admin

participant ":View" as sys
participant ":FE_Component" as comp
participant ":FE_RoomService" as FEsrvc
participant ":FE_FloorService" as FFEsrvc
participant ":Routing" as route
participant ":RoomController" as ctrl
participant ":FloorController" as Fctrl
participant ":FloorService" as Fsrvc
participant ":RoomService" as srvc
participant ":FloorRepo" as Frepo
participant ":RoomRepo" as repo
participant ":RoomMap" as rtMap
participant ":RoomSchema" as rtSchema
participant ":Room" as r

activate admin

admin -> sys: add a room
activate sys
sys - -> admin: request necessary data()
admin -> sys : insert all the data
activate comp

sys -> comp : getFloors()
activate FFEsrvc
comp -> FFEsrvc : listFloors()
activate route
FFEsrvc -> route: GET route{}
deactivate FFEsrvc
activate Fctrl
route -> Fctrl: listAllFloors()
deactivate route
activate Fsrvc
Fctrl -> Fsrvc: findAll()
deactivate Fctrl
activate Frepo
Fsrvc -> Frepo: findAll()
deactivate Fsrvc
deactivate Frepo

sys -> comp : createRoom()
activate FEsrvc
comp -> FEsrvc : createRoom(room)
activate route
FEsrvc -> route: POST route{json}
activate ctrl
route -> ctrl: createRoom(json)
activate srvc
ctrl -> srvc: createRoom(IRoomDTO)
activate r
srvc -> r: create()
deactivate r
activate Frepo
srvc -> Frepo: findById(floor.id)
deactivate Frepo
activate repo
srvc -> repo: save(floor)
activate rtSchema
repo -> rtSchema: find(room.floor.id)
deactivate rtSchema
loop All Rooms Same Floor
    repo -> repo: doRoomsOverlap(Room, Room)
end
alt no overlap
    repo -> rtMap: toPersistance(Room)
    activate rtMap
    deactivate rtMap
    repo -> rtSchema: create(Room)
    activate rtSchema
    repo - -> srvc: Room
    deactivate rtSchema
    srvc - -> ctrl: Room
    ctrl - -> route : HTTP: 201
    route - -> FEsrvc: HTTP: 201
    FEsrvc - -> comp: HTTP: 201
    comp - -> sys: HTTP: 201
    sys - -> admin: show success message
else
    repo - -> srvc: Error(Room overlaps with existing rooms.)
    srvc - -> ctrl: Error(Room overlaps with existing rooms.)
    ctrl - -> route : HTTP: 400
    route - -> FEsrvc: HTTP: 400
    FEsrvc - -> comp: HTTP: 400
    comp - -> sys: HTTP: 400
    sys - -> admin: show failure message
end

deactivate repo
deactivate ctrl
deactivate route
deactivate FEsrvc
deactivate comp
deactivate sys
deactivate admin
@enduml

PlantUML version 1.2020.02(Sun Mar 01 10:22:07 UTC 2020)
(GPL source distribution)
Java Runtime: OpenJDK Runtime Environment
JVM: OpenJDK 64-Bit Server VM
Java Version: 11.0.21+9
Operating System: Linux
Default Encoding: UTF-8
Language: en
Country: null
--></g></svg>