<?xml version="1.0" encoding="us-ascii" standalone="no"?><svg xmlns="http://www.w3.org/2000/svg" xmlns:xlink="http://www.w3.org/1999/xlink" contentStyleType="text/css" height="797px" preserveAspectRatio="none" style="width:1712px;height:797px;background:#FFFFFF;" version="1.1" viewBox="0 0 1712 797" width="1712px" zoomAndPan="magnify"><defs/><g><rect fill="#FFFFFF" height="616.7891" style="stroke:#181818;stroke-width:1.0;" width="10" x="41" y="91.2969"/><rect fill="#FFFFFF" height="594.6563" style="stroke:#181818;stroke-width:1.0;" width="10" x="250" y="112.4297"/><rect fill="#FFFFFF" height="537.3906" style="stroke:#181818;stroke-width:1.0;" width="10" x="713" y="170.6953"/><rect fill="#FFFFFF" height="508.2578" style="stroke:#181818;stroke-width:1.0;" width="10" x="962" y="199.8281"/><rect fill="#FFFFFF" height="479.125" style="stroke:#181818;stroke-width:1.0;" width="10" x="1182" y="228.9609"/><rect fill="#FFFFFF" height="203.9297" style="stroke:#181818;stroke-width:1.0;" width="10" x="1336" y="258.0938"/><rect fill="#FFFFFF" height="87.3984" style="stroke:#181818;stroke-width:1.0;" width="10" x="1523" y="374.625"/><rect fill="#FFFFFF" height="174.7969" style="stroke:#181818;stroke-width:1.0;" width="10" x="1640.5" y="287.2266"/><rect fill="none" height="193.9297" style="stroke:#000000;stroke-width:1.5;" width="1035.5" x="10" y="506.1563"/><line style="stroke:#181818;stroke-width:0.5;stroke-dasharray:5.0,5.0;" x1="46" x2="46" y1="81.2969" y2="717.0859"/><line style="stroke:#181818;stroke-width:0.5;stroke-dasharray:5.0,5.0;" x1="254.5" x2="254.5" y1="81.2969" y2="717.0859"/><line style="stroke:#181818;stroke-width:0.5;stroke-dasharray:5.0,5.0;" x1="717.5" x2="717.5" y1="81.2969" y2="717.0859"/><line style="stroke:#181818;stroke-width:0.5;stroke-dasharray:5.0,5.0;" x1="966.5" x2="966.5" y1="81.2969" y2="717.0859"/><line style="stroke:#181818;stroke-width:0.5;stroke-dasharray:5.0,5.0;" x1="1186.5" x2="1186.5" y1="81.2969" y2="717.0859"/><line style="stroke:#181818;stroke-width:0.5;stroke-dasharray:5.0,5.0;" x1="1341" x2="1341" y1="81.2969" y2="717.0859"/><line style="stroke:#181818;stroke-width:0.5;stroke-dasharray:5.0,5.0;" x1="1528" x2="1528" y1="81.2969" y2="717.0859"/><line style="stroke:#181818;stroke-width:0.5;stroke-dasharray:5.0,5.0;" x1="1645" x2="1645" y1="81.2969" y2="717.0859"/><text fill="#000000" font-family="sans-serif" font-size="14" lengthAdjust="spacing" textLength="46" x="20" y="77.9951">Admin</text><ellipse cx="46" cy="13.5" fill="#E2E2F0" rx="8" ry="8" style="stroke:#181818;stroke-width:0.5;"/><path d="M46,21.5 L46,48.5 M33,29.5 L59,29.5 M46,48.5 L33,63.5 M46,48.5 L59,63.5 " fill="none" style="stroke:#181818;stroke-width:0.5;"/><text fill="#000000" font-family="sans-serif" font-size="14" lengthAdjust="spacing" textLength="46" x="20" y="729.0811">Admin</text><ellipse cx="46" cy="740.8828" fill="#E2E2F0" rx="8" ry="8" style="stroke:#181818;stroke-width:0.5;"/><path d="M46,748.8828 L46,775.8828 M33,756.8828 L59,756.8828 M46,775.8828 L33,790.8828 M46,775.8828 L59,790.8828 " fill="none" style="stroke:#181818;stroke-width:0.5;"/><rect fill="#E2E2F0" height="30.2969" rx="2.5" ry="2.5" style="stroke:#181818;stroke-width:0.5;" width="85" x="212.5" y="50"/><text fill="#000000" font-family="sans-serif" font-size="14" lengthAdjust="spacing" textLength="71" x="219.5" y="69.9951">:FrontEnd</text><rect fill="#E2E2F0" height="30.2969" rx="2.5" ry="2.5" style="stroke:#181818;stroke-width:0.5;" width="85" x="212.5" y="716.0859"/><text fill="#000000" font-family="sans-serif" font-size="14" lengthAdjust="spacing" textLength="71" x="219.5" y="736.0811">:FrontEnd</text><rect fill="#E2E2F0" height="30.2969" rx="2.5" ry="2.5" style="stroke:#181818;stroke-width:0.5;" width="75" x="680.5" y="50"/><text fill="#000000" font-family="sans-serif" font-size="14" lengthAdjust="spacing" textLength="61" x="687.5" y="69.9951">:Routing</text><rect fill="#E2E2F0" height="30.2969" rx="2.5" ry="2.5" style="stroke:#181818;stroke-width:0.5;" width="75" x="680.5" y="716.0859"/><text fill="#000000" font-family="sans-serif" font-size="14" lengthAdjust="spacing" textLength="61" x="687.5" y="736.0811">:Routing</text><rect fill="#E2E2F0" height="30.2969" rx="2.5" ry="2.5" style="stroke:#181818;stroke-width:0.5;" width="137" x="898.5" y="50"/><text fill="#000000" font-family="sans-serif" font-size="14" lengthAdjust="spacing" textLength="123" x="905.5" y="69.9951">:RobotController</text><rect fill="#E2E2F0" height="30.2969" rx="2.5" ry="2.5" style="stroke:#181818;stroke-width:0.5;" width="137" x="898.5" y="716.0859"/><text fill="#000000" font-family="sans-serif" font-size="14" lengthAdjust="spacing" textLength="123" x="905.5" y="736.0811">:RobotController</text><rect fill="#E2E2F0" height="30.2969" rx="2.5" ry="2.5" style="stroke:#181818;stroke-width:0.5;" width="117" x="1128.5" y="50"/><text fill="#000000" font-family="sans-serif" font-size="14" lengthAdjust="spacing" textLength="103" x="1135.5" y="69.9951">:RobotService</text><rect fill="#E2E2F0" height="30.2969" rx="2.5" ry="2.5" style="stroke:#181818;stroke-width:0.5;" width="117" x="1128.5" y="716.0859"/><text fill="#000000" font-family="sans-serif" font-size="14" lengthAdjust="spacing" textLength="103" x="1135.5" y="736.0811">:RobotService</text><rect fill="#E2E2F0" height="30.2969" rx="2.5" ry="2.5" style="stroke:#181818;stroke-width:0.5;" width="102" x="1290" y="50"/><text fill="#000000" font-family="sans-serif" font-size="14" lengthAdjust="spacing" textLength="88" x="1297" y="69.9951">:RobotRepo</text><rect fill="#E2E2F0" height="30.2969" rx="2.5" ry="2.5" style="stroke:#181818;stroke-width:0.5;" width="102" x="1290" y="716.0859"/><text fill="#000000" font-family="sans-serif" font-size="14" lengthAdjust="spacing" textLength="88" x="1297" y="736.0811">:RobotRepo</text><rect fill="#E2E2F0" height="30.2969" rx="2.5" ry="2.5" style="stroke:#181818;stroke-width:0.5;" width="94" x="1481" y="50"/><text fill="#000000" font-family="sans-serif" font-size="14" lengthAdjust="spacing" textLength="80" x="1488" y="69.9951">:RobotMap</text><rect fill="#E2E2F0" height="30.2969" rx="2.5" ry="2.5" style="stroke:#181818;stroke-width:0.5;" width="94" x="1481" y="716.0859"/><text fill="#000000" font-family="sans-serif" font-size="14" lengthAdjust="spacing" textLength="80" x="1488" y="736.0811">:RobotMap</text><rect fill="#E2E2F0" height="30.2969" rx="2.5" ry="2.5" style="stroke:#181818;stroke-width:0.5;" width="121" x="1585" y="50"/><text fill="#000000" font-family="sans-serif" font-size="14" lengthAdjust="spacing" textLength="107" x="1592" y="69.9951">:RobotSchema</text><rect fill="#E2E2F0" height="30.2969" rx="2.5" ry="2.5" style="stroke:#181818;stroke-width:0.5;" width="121" x="1585" y="716.0859"/><text fill="#000000" font-family="sans-serif" font-size="14" lengthAdjust="spacing" textLength="107" x="1592" y="736.0811">:RobotSchema</text><rect fill="#FFFFFF" height="616.7891" style="stroke:#181818;stroke-width:1.0;" width="10" x="41" y="91.2969"/><rect fill="#FFFFFF" height="594.6563" style="stroke:#181818;stroke-width:1.0;" width="10" x="250" y="112.4297"/><rect fill="#FFFFFF" height="537.3906" style="stroke:#181818;stroke-width:1.0;" width="10" x="713" y="170.6953"/><rect fill="#FFFFFF" height="508.2578" style="stroke:#181818;stroke-width:1.0;" width="10" x="962" y="199.8281"/><rect fill="#FFFFFF" height="479.125" style="stroke:#181818;stroke-width:1.0;" width="10" x="1182" y="228.9609"/><rect fill="#FFFFFF" height="203.9297" style="stroke:#181818;stroke-width:1.0;" width="10" x="1336" y="258.0938"/><rect fill="#FFFFFF" height="87.3984" style="stroke:#181818;stroke-width:1.0;" width="10" x="1523" y="374.625"/><rect fill="#FFFFFF" height="174.7969" style="stroke:#181818;stroke-width:1.0;" width="10" x="1640.5" y="287.2266"/><polygon fill="#181818" points="238,108.4297,248,112.4297,238,116.4297,242,112.4297" style="stroke:#181818;stroke-width:1.0;"/><line style="stroke:#181818;stroke-width:1.0;" x1="51" x2="244" y1="112.4297" y2="112.4297"/><text fill="#000000" font-family="sans-serif" font-size="13" font-weight="bold" lengthAdjust="spacing" textLength="9" x="58" y="107.3638">1</text><text fill="#000000" font-family="sans-serif" font-size="13" lengthAdjust="spacing" textLength="95" x="71" y="107.3638">create a Route</text><polygon fill="#181818" points="62,137.5625,52,141.5625,62,145.5625,58,141.5625" style="stroke:#181818;stroke-width:1.0;"/><line style="stroke:#181818;stroke-width:1.0;stroke-dasharray:2.0,2.0;" x1="56" x2="249" y1="141.5625" y2="141.5625"/><text fill="#000000" font-family="sans-serif" font-size="13" font-weight="bold" lengthAdjust="spacing" textLength="9" x="68" y="136.4966">2</text><text fill="#000000" font-family="sans-serif" font-size="13" lengthAdjust="spacing" textLength="162" x="81" y="136.4966">request necessary data()</text><polygon fill="#181818" points="238,166.6953,248,170.6953,238,174.6953,242,170.6953" style="stroke:#181818;stroke-width:1.0;"/><line style="stroke:#181818;stroke-width:1.0;" x1="51" x2="244" y1="170.6953" y2="170.6953"/><text fill="#000000" font-family="sans-serif" font-size="13" font-weight="bold" lengthAdjust="spacing" textLength="8" x="58" y="165.6294">3</text><text fill="#000000" font-family="sans-serif" font-size="13" lengthAdjust="spacing" textLength="112" x="70" y="165.6294">insert all the data</text><polygon fill="#181818" points="701,195.8281,711,199.8281,701,203.8281,705,199.8281" style="stroke:#181818;stroke-width:1.0;"/><line style="stroke:#181818;stroke-width:1.0;" x1="260" x2="707" y1="199.8281" y2="199.8281"/><text fill="#000000" font-family="sans-serif" font-size="13" font-weight="bold" lengthAdjust="spacing" textLength="9" x="267" y="194.7622">4</text><text fill="#000000" font-family="sans-serif" font-size="13" lengthAdjust="spacing" textLength="416" x="280" y="194.7622">POST route{id, nickname, robotType, serialNumber, description}</text><polygon fill="#181818" points="950,224.9609,960,228.9609,950,232.9609,954,228.9609" style="stroke:#181818;stroke-width:1.0;"/><line style="stroke:#181818;stroke-width:1.0;" x1="723" x2="956" y1="228.9609" y2="228.9609"/><text fill="#000000" font-family="sans-serif" font-size="13" font-weight="bold" lengthAdjust="spacing" textLength="9" x="730" y="223.895">5</text><text fill="#000000" font-family="sans-serif" font-size="13" lengthAdjust="spacing" textLength="202" x="743" y="223.895">addRobot(request, result, next)</text><polygon fill="#181818" points="1170,254.0938,1180,258.0938,1170,262.0938,1174,258.0938" style="stroke:#181818;stroke-width:1.0;"/><line style="stroke:#181818;stroke-width:1.0;" x1="972" x2="1176" y1="258.0938" y2="258.0938"/><text fill="#000000" font-family="sans-serif" font-size="13" font-weight="bold" lengthAdjust="spacing" textLength="9" x="979" y="253.0278">6</text><text fill="#000000" font-family="sans-serif" font-size="13" lengthAdjust="spacing" textLength="173" x="992" y="253.0278">addRobot(IRobotTypeDTO)</text><polygon fill="#181818" points="1324,283.2266,1334,287.2266,1324,291.2266,1328,287.2266" style="stroke:#181818;stroke-width:1.0;"/><line style="stroke:#181818;stroke-width:1.0;" x1="1192" x2="1330" y1="287.2266" y2="287.2266"/><text fill="#000000" font-family="sans-serif" font-size="13" font-weight="bold" lengthAdjust="spacing" textLength="9" x="1199" y="282.1606">7</text><text fill="#000000" font-family="sans-serif" font-size="13" lengthAdjust="spacing" textLength="107" x="1212" y="282.1606">save(robotType)</text><polygon fill="#181818" points="1628.5,312.3594,1638.5,316.3594,1628.5,320.3594,1632.5,316.3594" style="stroke:#181818;stroke-width:1.0;"/><line style="stroke:#181818;stroke-width:1.0;" x1="1346" x2="1634.5" y1="316.3594" y2="316.3594"/><text fill="#000000" font-family="sans-serif" font-size="13" font-weight="bold" lengthAdjust="spacing" textLength="9" x="1353" y="311.2935">8</text><text fill="#000000" font-family="sans-serif" font-size="13" lengthAdjust="spacing" textLength="71" x="1366" y="311.2935">findOne(id)</text><polygon fill="#181818" points="1628.5,341.4922,1638.5,345.4922,1628.5,349.4922,1632.5,345.4922" style="stroke:#181818;stroke-width:1.0;"/><line style="stroke:#181818;stroke-width:1.0;" x1="1346" x2="1634.5" y1="345.4922" y2="345.4922"/><text fill="#000000" font-family="sans-serif" font-size="13" font-weight="bold" lengthAdjust="spacing" textLength="9" x="1353" y="340.4263">9</text><text fill="#000000" font-family="sans-serif" font-size="13" lengthAdjust="spacing" textLength="122" x="1366" y="340.4263">findOne(nickname)</text><polygon fill="#181818" points="1628.5,370.625,1638.5,374.625,1628.5,378.625,1632.5,374.625" style="stroke:#181818;stroke-width:1.0;"/><line style="stroke:#181818;stroke-width:1.0;" x1="1346" x2="1634.5" y1="374.625" y2="374.625"/><text fill="#000000" font-family="sans-serif" font-size="13" font-weight="bold" lengthAdjust="spacing" textLength="19" x="1353" y="369.5591">10</text><text fill="#000000" font-family="sans-serif" font-size="13" lengthAdjust="spacing" textLength="145" x="1376" y="369.5591">findOne(serialNumber)</text><polygon fill="#181818" points="1511,399.7578,1521,403.7578,1511,407.7578,1515,403.7578" style="stroke:#181818;stroke-width:1.0;"/><line style="stroke:#181818;stroke-width:1.0;" x1="1346" x2="1517" y1="403.7578" y2="403.7578"/><text fill="#000000" font-family="sans-serif" font-size="13" font-weight="bold" lengthAdjust="spacing" textLength="18" x="1353" y="398.6919">11</text><text fill="#000000" font-family="sans-serif" font-size="13" lengthAdjust="spacing" textLength="131" x="1375" y="398.6919">toPersistance(robot)</text><polygon fill="#181818" points="1628.5,428.8906,1638.5,432.8906,1628.5,436.8906,1632.5,432.8906" style="stroke:#181818;stroke-width:1.0;"/><line style="stroke:#181818;stroke-width:1.0;" x1="1346" x2="1634.5" y1="432.8906" y2="432.8906"/><text fill="#000000" font-family="sans-serif" font-size="13" font-weight="bold" lengthAdjust="spacing" textLength="18" x="1353" y="427.8247">12</text><text fill="#000000" font-family="sans-serif" font-size="13" lengthAdjust="spacing" textLength="85" x="1375" y="427.8247">create(robot)</text><polygon fill="#181818" points="1203,458.0234,1193,462.0234,1203,466.0234,1199,462.0234" style="stroke:#181818;stroke-width:1.0;"/><line style="stroke:#181818;stroke-width:1.0;stroke-dasharray:2.0,2.0;" x1="1197" x2="1340" y1="462.0234" y2="462.0234"/><text fill="#000000" font-family="sans-serif" font-size="13" font-weight="bold" lengthAdjust="spacing" textLength="17" x="1209" y="456.9575">13</text><text fill="#000000" font-family="sans-serif" font-size="13" lengthAdjust="spacing" textLength="34" x="1230" y="456.9575">robot</text><polygon fill="#181818" points="983,487.1563,973,491.1563,983,495.1563,979,491.1563" style="stroke:#181818;stroke-width:1.0;"/><line style="stroke:#181818;stroke-width:1.0;stroke-dasharray:2.0,2.0;" x1="977" x2="1181" y1="491.1563" y2="491.1563"/><text fill="#000000" font-family="sans-serif" font-size="13" font-weight="bold" lengthAdjust="spacing" textLength="18" x="989" y="486.0903">14</text><text fill="#000000" font-family="sans-serif" font-size="13" lengthAdjust="spacing" textLength="36" x="1011" y="486.0903">result</text><path d="M10,506.1563 L76,506.1563 L76,513.2891 L66,523.2891 L10,523.2891 L10,506.1563 " fill="#EEEEEE" style="stroke:#000000;stroke-width:1.5;"/><rect fill="none" height="193.9297" style="stroke:#000000;stroke-width:1.5;" width="1035.5" x="10" y="506.1563"/><text fill="#000000" font-family="sans-serif" font-size="13" font-weight="bold" lengthAdjust="spacing" textLength="21" x="25" y="519.2231">alt</text><text fill="#000000" font-family="sans-serif" font-size="11" font-weight="bold" lengthAdjust="spacing" textLength="114" x="91" y="518.3667">[successful case]</text><polygon fill="#181818" points="734,540.4219,724,544.4219,734,548.4219,730,544.4219" style="stroke:#181818;stroke-width:1.0;"/><line style="stroke:#181818;stroke-width:1.0;stroke-dasharray:2.0,2.0;" x1="728" x2="961" y1="544.4219" y2="544.4219"/><text fill="#000000" font-family="sans-serif" font-size="13" font-weight="bold" lengthAdjust="spacing" textLength="18" x="740" y="539.356">15</text><text fill="#000000" font-family="sans-serif" font-size="13" lengthAdjust="spacing" textLength="66" x="762" y="539.356">HTTP: 201</text><polygon fill="#181818" points="271,569.5547,261,573.5547,271,577.5547,267,573.5547" style="stroke:#181818;stroke-width:1.0;"/><line style="stroke:#181818;stroke-width:1.0;stroke-dasharray:2.0,2.0;" x1="265" x2="712" y1="573.5547" y2="573.5547"/><text fill="#000000" font-family="sans-serif" font-size="13" font-weight="bold" lengthAdjust="spacing" textLength="18" x="277" y="568.4888">16</text><text fill="#000000" font-family="sans-serif" font-size="13" lengthAdjust="spacing" textLength="66" x="299" y="568.4888">HTTP: 201</text><polygon fill="#181818" points="62,598.6875,52,602.6875,62,606.6875,58,602.6875" style="stroke:#181818;stroke-width:1.0;"/><line style="stroke:#181818;stroke-width:1.0;stroke-dasharray:2.0,2.0;" x1="56" x2="249" y1="602.6875" y2="602.6875"/><text fill="#000000" font-family="sans-serif" font-size="13" font-weight="bold" lengthAdjust="spacing" textLength="18" x="68" y="597.6216">17</text><text fill="#000000" font-family="sans-serif" font-size="13" lengthAdjust="spacing" textLength="152" x="90" y="597.6216">show success message</text><line style="stroke:#000000;stroke-width:1.0;stroke-dasharray:2.0,2.0;" x1="10" x2="1045.5" y1="611.6875" y2="611.6875"/><polygon fill="#181818" points="734,629.8203,724,633.8203,734,637.8203,730,633.8203" style="stroke:#181818;stroke-width:1.0;"/><line style="stroke:#181818;stroke-width:1.0;stroke-dasharray:2.0,2.0;" x1="728" x2="961" y1="633.8203" y2="633.8203"/><text fill="#000000" font-family="sans-serif" font-size="13" font-weight="bold" lengthAdjust="spacing" textLength="18" x="740" y="628.7544">18</text><text fill="#000000" font-family="sans-serif" font-size="13" lengthAdjust="spacing" textLength="66" x="762" y="628.7544">HTTP: 400</text><polygon fill="#181818" points="271,658.9531,261,662.9531,271,666.9531,267,662.9531" style="stroke:#181818;stroke-width:1.0;"/><line style="stroke:#181818;stroke-width:1.0;stroke-dasharray:2.0,2.0;" x1="265" x2="712" y1="662.9531" y2="662.9531"/><text fill="#000000" font-family="sans-serif" font-size="13" font-weight="bold" lengthAdjust="spacing" textLength="18" x="277" y="657.8872">19</text><text fill="#000000" font-family="sans-serif" font-size="13" lengthAdjust="spacing" textLength="66" x="299" y="657.8872">HTTP: 400</text><polygon fill="#181818" points="62,688.0859,52,692.0859,62,696.0859,58,692.0859" style="stroke:#181818;stroke-width:1.0;"/><line style="stroke:#181818;stroke-width:1.0;stroke-dasharray:2.0,2.0;" x1="56" x2="249" y1="692.0859" y2="692.0859"/><text fill="#000000" font-family="sans-serif" font-size="13" font-weight="bold" lengthAdjust="spacing" textLength="19" x="68" y="687.02">20</text><text fill="#000000" font-family="sans-serif" font-size="13" lengthAdjust="spacing" textLength="141" x="91" y="687.02">show failure message</text><!--SRC=[VLB1Rjim3BtxAuXSbW0fa0qxwL1Ws5PiXor1wXzG9AOHAakUH6SDXltxA2bsdDPP3Z4fFlAHZvGTUTSrEmpLkuFH27llQUTVAgd81vXzqernCv0HPBAggfM1Z3AjT0GpyH2yewzEPqGynLVXhU_8kASS3MpZc_ZEqsSk4Ror639EKR1Ji4SCHwEmC8MZci9iiVM5Z8qfm0_PbZWRaoJgW8qia69NIGbpb8Iz0la3T_TfNW4gO8x1DiytW9CO5V_17IDpYk2kVdKO2HmgZ5664sX9ShwuAWa2Z8iO2AIrG0VCe4lXecEkV5yS0PlrOrtiFqOlmHdrx6I3ItxZeUfJooQNDDB-pBjUWiQeWcd9UFVtKZjhd-kauiaJtBlEqipFtNDHZ9tbhyCNMemcJaj9ENaGTaQvtxTz8r_gzIWdxobXyp3i28ZoYFEXxp7sl904o_3Y2zWRfzSEvqOlRWTxJHPm6pEMY74NvdGjGnOx0iXlC4GJIJfrRdU2l1p7TNWG9xzM6jyCE7vAp6F_ejUmeB8ElajB43kLJclVML0oOWNyAolfZuNFwrjTRmHyMBtFuVEw-tk-3huwu7ZmltiEQD8DFs65zlz47rUhsqHzS8feButj0bw8d1vhmId_0000]--></g></svg>