<?xml version="1.0" encoding="UTF-8" standalone="no"?><svg xmlns="http://www.w3.org/2000/svg" xmlns:xlink="http://www.w3.org/1999/xlink" contentScriptType="application/ecmascript" contentStyleType="text/css" height="1590px" preserveAspectRatio="none" style="width:4046px;height:1590px;" version="1.1" viewBox="0 0 4046 1590" width="4046px" zoomAndPan="magnify"><defs><filter height="300%" id="f10t73l2iuxni6" width="300%" x="-1" y="-1"><feGaussianBlur result="blurOut" stdDeviation="2.0"/><feColorMatrix in="blurOut" result="blurOut2" type="matrix" values="0 0 0 0 0 0 0 0 0 0 0 0 0 0 0 0 0 0 .4 0"/><feOffset dx="4.0" dy="4.0" in="blurOut2" result="blurOut3"/><feBlend in="SourceGraphic" in2="blurOut3" mode="normal"/></filter></defs><g><rect fill="#FFFFFF" filter="url(#f10t73l2iuxni6)" height="1296.9922" style="stroke: #A80036; stroke-width: 1.0;" width="10" x="1130" y="244.2266"/><rect fill="#FFFFFF" filter="url(#f10t73l2iuxni6)" height="1267.8594" style="stroke: #A80036; stroke-width: 1.0;" width="10" x="1460" y="273.3594"/><rect fill="#FFFFFF" filter="url(#f10t73l2iuxni6)" height="1195.5938" style="stroke: #A80036; stroke-width: 1.0;" width="10" x="1709" y="345.625"/><rect fill="#FFFFFF" filter="url(#f10t73l2iuxni6)" height="1166.4609" style="stroke: #A80036; stroke-width: 1.0;" width="10" x="1936" y="374.7578"/><rect fill="#FFFFFF" filter="url(#f10t73l2iuxni6)" height="203.9297" style="stroke: #A80036; stroke-width: 1.0;" width="10" x="2195" y="403.8906"/><rect fill="#FFFFFF" filter="url(#f10t73l2iuxni6)" height="145.6641" style="stroke: #A80036; stroke-width: 1.0;" width="10" x="2454" y="433.0234"/><rect fill="#FFFFFF" filter="url(#f10t73l2iuxni6)" height="87.3984" style="stroke: #A80036; stroke-width: 1.0;" width="10" x="2713" y="462.1563"/><rect fill="#FFFFFF" filter="url(#f10t73l2iuxni6)" height="29.1328" style="stroke: #A80036; stroke-width: 1.0;" width="10" x="2922" y="491.2891"/><rect fill="#FFFFFF" filter="url(#f10t73l2iuxni6)" height="203.9297" style="stroke: #A80036; stroke-width: 1.0;" width="10" x="3025.5" y="772.6172"/><rect fill="#FFFFFF" filter="url(#f10t73l2iuxni6)" height="145.6641" style="stroke: #A80036; stroke-width: 1.0;" width="10" x="3183.5" y="801.75"/><rect fill="#FFFFFF" filter="url(#f10t73l2iuxni6)" height="58.2656" style="stroke: #A80036; stroke-width: 1.0;" width="10" x="3377.5" y="661.0859"/><rect fill="#FFFFFF" filter="url(#f10t73l2iuxni6)" height="29.1328" style="stroke: #A80036; stroke-width: 1.0;" width="10" x="3377.5" y="830.8828"/><rect fill="#FFFFFF" filter="url(#f10t73l2iuxni6)" height="29.1328" style="stroke: #A80036; stroke-width: 1.0;" width="10" x="3377.5" y="1005.6797"/><rect fill="#FFFFFF" filter="url(#f10t73l2iuxni6)" height="29.1328" style="stroke: #A80036; stroke-width: 1.0;" width="10" x="3510.5" y="690.2188"/><rect fill="#FFFFFF" filter="url(#f10t73l2iuxni6)" height="14" style="stroke: #A80036; stroke-width: 1.0;" width="10" x="3602.5" y="302.4922"/><rect fill="#FFFFFF" filter="url(#f10t73l2iuxni6)" height="29.1328" style="stroke: #A80036; stroke-width: 1.0;" width="10" x="3962.5" y="889.1484"/><rect fill="#FFFFFF" filter="url(#f10t73l2iuxni6)" height="631.3984" style="stroke: #000000; stroke-width: 2.0;" width="2641" x="1393" y="622.8203"/><rect fill="#FFFFFF" filter="url(#f10t73l2iuxni6)" height="439.7969" style="stroke: #000000; stroke-width: 2.0;" width="2621" x="1403" y="734.3516"/><rect fill="#FFFFFF" height="73.0703" style="stroke: none; stroke-width: 1.0;" width="2621" x="1403" y="1101.0781"/><rect fill="#FFFFFF" height="73.0703" style="stroke: none; stroke-width: 1.0;" width="2641" x="1393" y="1181.1484"/><rect fill="#FFFFFF" filter="url(#f10t73l2iuxni6)" height="148.4688" style="stroke: #000000; stroke-width: 2.0;" width="765.5" x="761.5" y="1268.2188"/><rect fill="#FFFFFF" height="73.0703" style="stroke: none; stroke-width: 1.0;" width="765.5" x="761.5" y="1343.6172"/><line style="stroke: #A80036; stroke-width: 1.0; stroke-dasharray: 5.0,5.0;" x1="33" x2="33" y1="38.2969" y2="1550.2188"/><line style="stroke: #A80036; stroke-width: 1.0; stroke-dasharray: 5.0,5.0;" x1="232.5" x2="232.5" y1="38.2969" y2="1550.2188"/><line style="stroke: #A80036; stroke-width: 1.0; stroke-dasharray: 5.0,5.0;" x1="417.5" x2="417.5" y1="38.2969" y2="1550.2188"/><line style="stroke: #A80036; stroke-width: 1.0; stroke-dasharray: 5.0,5.0;" x1="652.5" x2="652.5" y1="38.2969" y2="1550.2188"/><line style="stroke: #A80036; stroke-width: 1.0; stroke-dasharray: 5.0,5.0;" x1="809.5" x2="809.5" y1="38.2969" y2="1550.2188"/><line style="stroke: #A80036; stroke-width: 1.0; stroke-dasharray: 5.0,5.0;" x1="1134.5" x2="1134.5" y1="38.2969" y2="1550.2188"/><line style="stroke: #A80036; stroke-width: 1.0; stroke-dasharray: 5.0,5.0;" x1="1465" x2="1465" y1="38.2969" y2="1550.2188"/><line style="stroke: #A80036; stroke-width: 1.0; stroke-dasharray: 5.0,5.0;" x1="1714" x2="1714" y1="38.2969" y2="1550.2188"/><line style="stroke: #A80036; stroke-width: 1.0; stroke-dasharray: 5.0,5.0;" x1="1940.5" x2="1940.5" y1="38.2969" y2="1550.2188"/><line style="stroke: #A80036; stroke-width: 1.0; stroke-dasharray: 5.0,5.0;" x1="2200" x2="2200" y1="38.2969" y2="1550.2188"/><line style="stroke: #A80036; stroke-width: 1.0; stroke-dasharray: 5.0,5.0;" x1="2458.5" x2="2458.5" y1="38.2969" y2="1550.2188"/><line style="stroke: #A80036; stroke-width: 1.0; stroke-dasharray: 5.0,5.0;" x1="2717.5" x2="2717.5" y1="38.2969" y2="1550.2188"/><line style="stroke: #A80036; stroke-width: 1.0; stroke-dasharray: 5.0,5.0;" x1="2927" x2="2927" y1="38.2969" y2="1550.2188"/><line style="stroke: #A80036; stroke-width: 1.0; stroke-dasharray: 5.0,5.0;" x1="3030" x2="3030" y1="38.2969" y2="1550.2188"/><line style="stroke: #A80036; stroke-width: 1.0; stroke-dasharray: 5.0,5.0;" x1="3188.5" x2="3188.5" y1="38.2969" y2="1550.2188"/><line style="stroke: #A80036; stroke-width: 1.0; stroke-dasharray: 5.0,5.0;" x1="3382.5" x2="3382.5" y1="38.2969" y2="1550.2188"/><line style="stroke: #A80036; stroke-width: 1.0; stroke-dasharray: 5.0,5.0;" x1="3515" x2="3515" y1="38.2969" y2="1550.2188"/><line style="stroke: #A80036; stroke-width: 1.0; stroke-dasharray: 5.0,5.0;" x1="3607" x2="3607" y1="38.2969" y2="1550.2188"/><line style="stroke: #A80036; stroke-width: 1.0; stroke-dasharray: 5.0,5.0;" x1="3721" x2="3721" y1="38.2969" y2="1550.2188"/><line style="stroke: #A80036; stroke-width: 1.0; stroke-dasharray: 5.0,5.0;" x1="3851" x2="3851" y1="38.2969" y2="1550.2188"/><line style="stroke: #A80036; stroke-width: 1.0; stroke-dasharray: 5.0,5.0;" x1="3967" x2="3967" y1="38.2969" y2="1550.2188"/><rect fill="#FEFECE" filter="url(#f10t73l2iuxni6)" height="30.2969" style="stroke: #A80036; stroke-width: 1.5;" width="46" x="8" y="3"/><text fill="#000000" font-family="sans-serif" font-size="14" lengthAdjust="spacingAndGlyphs" textLength="32" x="15" y="22.9951">User</text><rect fill="#FEFECE" filter="url(#f10t73l2iuxni6)" height="30.2969" style="stroke: #A80036; stroke-width: 1.5;" width="46" x="8" y="1549.2188"/><text fill="#000000" font-family="sans-serif" font-size="14" lengthAdjust="spacingAndGlyphs" textLength="32" x="15" y="1569.2139">User</text><rect fill="#FEFECE" filter="url(#f10t73l2iuxni6)" height="30.2969" style="stroke: #A80036; stroke-width: 1.5;" width="51" x="205.5" y="3"/><text fill="#000000" font-family="sans-serif" font-size="14" lengthAdjust="spacingAndGlyphs" textLength="37" x="212.5" y="22.9951">:View</text><rect fill="#FEFECE" filter="url(#f10t73l2iuxni6)" height="30.2969" style="stroke: #A80036; stroke-width: 1.5;" width="51" x="205.5" y="1549.2188"/><text fill="#000000" font-family="sans-serif" font-size="14" lengthAdjust="spacingAndGlyphs" textLength="37" x="212.5" y="1569.2139">:View</text><rect fill="#FEFECE" filter="url(#f10t73l2iuxni6)" height="30.2969" style="stroke: #A80036; stroke-width: 1.5;" width="125" x="353.5" y="3"/><text fill="#000000" font-family="sans-serif" font-size="14" lengthAdjust="spacingAndGlyphs" textLength="111" x="360.5" y="22.9951">:FE_Component</text><rect fill="#FEFECE" filter="url(#f10t73l2iuxni6)" height="30.2969" style="stroke: #A80036; stroke-width: 1.5;" width="125" x="353.5" y="1549.2188"/><text fill="#000000" font-family="sans-serif" font-size="14" lengthAdjust="spacingAndGlyphs" textLength="111" x="360.5" y="1569.2139">:FE_Component</text><rect fill="#FEFECE" filter="url(#f10t73l2iuxni6)" height="30.2969" style="stroke: #A80036; stroke-width: 1.5;" width="93" x="604.5" y="3"/><text fill="#000000" font-family="sans-serif" font-size="14" lengthAdjust="spacingAndGlyphs" textLength="79" x="611.5" y="22.9951">:FE_Service</text><rect fill="#FEFECE" filter="url(#f10t73l2iuxni6)" height="30.2969" style="stroke: #A80036; stroke-width: 1.5;" width="93" x="604.5" y="1549.2188"/><text fill="#000000" font-family="sans-serif" font-size="14" lengthAdjust="spacingAndGlyphs" textLength="79" x="611.5" y="1569.2139">:FE_Service</text><rect fill="#FEFECE" filter="url(#f10t73l2iuxni6)" height="30.2969" style="stroke: #A80036; stroke-width: 1.5;" width="73" x="771.5" y="3"/><text fill="#000000" font-family="sans-serif" font-size="14" lengthAdjust="spacingAndGlyphs" textLength="59" x="778.5" y="22.9951">:Routing</text><rect fill="#FEFECE" filter="url(#f10t73l2iuxni6)" height="30.2969" style="stroke: #A80036; stroke-width: 1.5;" width="73" x="771.5" y="1549.2188"/><text fill="#000000" font-family="sans-serif" font-size="14" lengthAdjust="spacingAndGlyphs" textLength="59" x="778.5" y="1569.2139">:Routing</text><rect fill="#FEFECE" filter="url(#f10t73l2iuxni6)" height="30.2969" style="stroke: #A80036; stroke-width: 1.5;" width="103" x="1081.5" y="3"/><text fill="#000000" font-family="sans-serif" font-size="14" lengthAdjust="spacingAndGlyphs" textLength="89" x="1088.5" y="22.9951">ILiftController</text><rect fill="#FEFECE" filter="url(#f10t73l2iuxni6)" height="30.2969" style="stroke: #A80036; stroke-width: 1.5;" width="103" x="1081.5" y="1549.2188"/><text fill="#000000" font-family="sans-serif" font-size="14" lengthAdjust="spacingAndGlyphs" textLength="89" x="1088.5" y="1569.2139">ILiftController</text><rect fill="#FEFECE" filter="url(#f10t73l2iuxni6)" height="30.2969" style="stroke: #A80036; stroke-width: 1.5;" width="100" x="1413" y="3"/><text fill="#000000" font-family="sans-serif" font-size="14" lengthAdjust="spacingAndGlyphs" textLength="86" x="1420" y="22.9951">LiftController</text><rect fill="#FEFECE" filter="url(#f10t73l2iuxni6)" height="30.2969" style="stroke: #A80036; stroke-width: 1.5;" width="100" x="1413" y="1549.2188"/><text fill="#000000" font-family="sans-serif" font-size="14" lengthAdjust="spacingAndGlyphs" textLength="86" x="1420" y="1569.2139">LiftController</text><rect fill="#FEFECE" filter="url(#f10t73l2iuxni6)" height="30.2969" style="stroke: #A80036; stroke-width: 1.5;" width="86" x="1669" y="3"/><text fill="#000000" font-family="sans-serif" font-size="14" lengthAdjust="spacingAndGlyphs" textLength="72" x="1676" y="22.9951">ILiftService</text><rect fill="#FEFECE" filter="url(#f10t73l2iuxni6)" height="30.2969" style="stroke: #A80036; stroke-width: 1.5;" width="86" x="1669" y="1549.2188"/><text fill="#000000" font-family="sans-serif" font-size="14" lengthAdjust="spacingAndGlyphs" textLength="72" x="1676" y="1569.2139">ILiftService</text><rect fill="#FEFECE" filter="url(#f10t73l2iuxni6)" height="30.2969" style="stroke: #A80036; stroke-width: 1.5;" width="83" x="1897.5" y="3"/><text fill="#000000" font-family="sans-serif" font-size="14" lengthAdjust="spacingAndGlyphs" textLength="69" x="1904.5" y="22.9951">LiftService</text><rect fill="#FEFECE" filter="url(#f10t73l2iuxni6)" height="30.2969" style="stroke: #A80036; stroke-width: 1.5;" width="83" x="1897.5" y="1549.2188"/><text fill="#000000" font-family="sans-serif" font-size="14" lengthAdjust="spacingAndGlyphs" textLength="69" x="1904.5" y="1569.2139">LiftService</text><rect fill="#FEFECE" filter="url(#f10t73l2iuxni6)" height="30.2969" style="stroke: #A80036; stroke-width: 1.5;" width="122" x="2137" y="3"/><text fill="#000000" font-family="sans-serif" font-size="14" lengthAdjust="spacingAndGlyphs" textLength="108" x="2144" y="22.9951">IBuildingService</text><rect fill="#FEFECE" filter="url(#f10t73l2iuxni6)" height="30.2969" style="stroke: #A80036; stroke-width: 1.5;" width="122" x="2137" y="1549.2188"/><text fill="#000000" font-family="sans-serif" font-size="14" lengthAdjust="spacingAndGlyphs" textLength="108" x="2144" y="1569.2139">IBuildingService</text><rect fill="#FEFECE" filter="url(#f10t73l2iuxni6)" height="30.2969" style="stroke: #A80036; stroke-width: 1.5;" width="119" x="2397.5" y="3"/><text fill="#000000" font-family="sans-serif" font-size="14" lengthAdjust="spacingAndGlyphs" textLength="105" x="2404.5" y="22.9951">BuildingService</text><rect fill="#FEFECE" filter="url(#f10t73l2iuxni6)" height="30.2969" style="stroke: #A80036; stroke-width: 1.5;" width="119" x="2397.5" y="1549.2188"/><text fill="#000000" font-family="sans-serif" font-size="14" lengthAdjust="spacingAndGlyphs" textLength="105" x="2404.5" y="1569.2139">BuildingService</text><rect fill="#FEFECE" filter="url(#f10t73l2iuxni6)" height="30.2969" style="stroke: #A80036; stroke-width: 1.5;" width="109" x="2661.5" y="3"/><text fill="#000000" font-family="sans-serif" font-size="14" lengthAdjust="spacingAndGlyphs" textLength="95" x="2668.5" y="22.9951">IBuildingRepo</text><rect fill="#FEFECE" filter="url(#f10t73l2iuxni6)" height="30.2969" style="stroke: #A80036; stroke-width: 1.5;" width="109" x="2661.5" y="1549.2188"/><text fill="#000000" font-family="sans-serif" font-size="14" lengthAdjust="spacingAndGlyphs" textLength="95" x="2668.5" y="1569.2139">IBuildingRepo</text><rect fill="#FEFECE" filter="url(#f10t73l2iuxni6)" height="30.2969" style="stroke: #A80036; stroke-width: 1.5;" width="106" x="2872" y="3"/><text fill="#000000" font-family="sans-serif" font-size="14" lengthAdjust="spacingAndGlyphs" textLength="92" x="2879" y="22.9951">BuildingRepo</text><rect fill="#FEFECE" filter="url(#f10t73l2iuxni6)" height="30.2969" style="stroke: #A80036; stroke-width: 1.5;" width="106" x="2872" y="1549.2188"/><text fill="#000000" font-family="sans-serif" font-size="14" lengthAdjust="spacingAndGlyphs" textLength="92" x="2879" y="1569.2139">BuildingRepo</text><rect fill="#FEFECE" filter="url(#f10t73l2iuxni6)" height="30.2969" style="stroke: #A80036; stroke-width: 1.5;" width="73" x="2992" y="3"/><text fill="#000000" font-family="sans-serif" font-size="14" lengthAdjust="spacingAndGlyphs" textLength="59" x="2999" y="22.9951">ILiftRepo</text><rect fill="#FEFECE" filter="url(#f10t73l2iuxni6)" height="30.2969" style="stroke: #A80036; stroke-width: 1.5;" width="73" x="2992" y="1549.2188"/><text fill="#000000" font-family="sans-serif" font-size="14" lengthAdjust="spacingAndGlyphs" textLength="59" x="2999" y="1569.2139">ILiftRepo</text><rect fill="#FEFECE" filter="url(#f10t73l2iuxni6)" height="30.2969" style="stroke: #A80036; stroke-width: 1.5;" width="70" x="3151.5" y="3"/><text fill="#000000" font-family="sans-serif" font-size="14" lengthAdjust="spacingAndGlyphs" textLength="56" x="3158.5" y="22.9951">LiftRepo</text><rect fill="#FEFECE" filter="url(#f10t73l2iuxni6)" height="30.2969" style="stroke: #A80036; stroke-width: 1.5;" width="70" x="3151.5" y="1549.2188"/><text fill="#000000" font-family="sans-serif" font-size="14" lengthAdjust="spacingAndGlyphs" textLength="56" x="3158.5" y="1569.2139">LiftRepo</text><rect fill="#FEFECE" filter="url(#f10t73l2iuxni6)" height="30.2969" style="stroke: #A80036; stroke-width: 1.5;" width="62" x="3349.5" y="3"/><text fill="#000000" font-family="sans-serif" font-size="14" lengthAdjust="spacingAndGlyphs" textLength="48" x="3356.5" y="22.9951">LiftMap</text><rect fill="#FEFECE" filter="url(#f10t73l2iuxni6)" height="30.2969" style="stroke: #A80036; stroke-width: 1.5;" width="62" x="3349.5" y="1549.2188"/><text fill="#000000" font-family="sans-serif" font-size="14" lengthAdjust="spacingAndGlyphs" textLength="48" x="3356.5" y="1569.2139">LiftMap</text><rect fill="#FEFECE" filter="url(#f10t73l2iuxni6)" height="30.2969" style="stroke: #A80036; stroke-width: 1.5;" width="75" x="3476" y="3"/><text fill="#000000" font-family="sans-serif" font-size="14" lengthAdjust="spacingAndGlyphs" textLength="61" x="3483" y="22.9951">Lift Entity</text><rect fill="#FEFECE" filter="url(#f10t73l2iuxni6)" height="30.2969" style="stroke: #A80036; stroke-width: 1.5;" width="75" x="3476" y="1549.2188"/><text fill="#000000" font-family="sans-serif" font-size="14" lengthAdjust="spacingAndGlyphs" textLength="61" x="3483" y="1569.2139">Lift Entity</text><rect fill="#FEFECE" filter="url(#f10t73l2iuxni6)" height="30.2969" style="stroke: #A80036; stroke-width: 1.5;" width="81" x="3565" y="3"/><text fill="#000000" font-family="sans-serif" font-size="14" lengthAdjust="spacingAndGlyphs" textLength="67" x="3572" y="22.9951">ConfigFile</text><rect fill="#FEFECE" filter="url(#f10t73l2iuxni6)" height="30.2969" style="stroke: #A80036; stroke-width: 1.5;" width="81" x="3565" y="1549.2188"/><text fill="#000000" font-family="sans-serif" font-size="14" lengthAdjust="spacingAndGlyphs" textLength="67" x="3572" y="1569.2139">ConfigFile</text><rect fill="#FEFECE" filter="url(#f10t73l2iuxni6)" height="30.2969" style="stroke: #A80036; stroke-width: 1.5;" width="118" x="3660" y="3"/><text fill="#000000" font-family="sans-serif" font-size="14" lengthAdjust="spacingAndGlyphs" textLength="104" x="3667" y="22.9951">ILiftPersistence</text><rect fill="#FEFECE" filter="url(#f10t73l2iuxni6)" height="30.2969" style="stroke: #A80036; stroke-width: 1.5;" width="118" x="3660" y="1549.2188"/><text fill="#000000" font-family="sans-serif" font-size="14" lengthAdjust="spacingAndGlyphs" textLength="104" x="3667" y="1569.2139">ILiftPersistence</text><rect fill="#FEFECE" filter="url(#f10t73l2iuxni6)" height="30.2969" style="stroke: #A80036; stroke-width: 1.5;" width="115" x="3792" y="3"/><text fill="#000000" font-family="sans-serif" font-size="14" lengthAdjust="spacingAndGlyphs" textLength="101" x="3799" y="22.9951">LiftPersistence</text><rect fill="#FEFECE" filter="url(#f10t73l2iuxni6)" height="30.2969" style="stroke: #A80036; stroke-width: 1.5;" width="115" x="3792" y="1549.2188"/><text fill="#000000" font-family="sans-serif" font-size="14" lengthAdjust="spacingAndGlyphs" textLength="101" x="3799" y="1569.2139">LiftPersistence</text><rect fill="#FEFECE" filter="url(#f10t73l2iuxni6)" height="30.2969" style="stroke: #A80036; stroke-width: 1.5;" width="89" x="3921" y="3"/><text fill="#000000" font-family="sans-serif" font-size="14" lengthAdjust="spacingAndGlyphs" textLength="75" x="3928" y="22.9951">LiftSchema</text><rect fill="#FEFECE" filter="url(#f10t73l2iuxni6)" height="30.2969" style="stroke: #A80036; stroke-width: 1.5;" width="89" x="3921" y="1549.2188"/><text fill="#000000" font-family="sans-serif" font-size="14" lengthAdjust="spacingAndGlyphs" textLength="75" x="3928" y="1569.2139">LiftSchema</text><rect fill="#FFFFFF" filter="url(#f10t73l2iuxni6)" height="1296.9922" style="stroke: #A80036; stroke-width: 1.0;" width="10" x="1130" y="244.2266"/><rect fill="#FFFFFF" filter="url(#f10t73l2iuxni6)" height="1267.8594" style="stroke: #A80036; stroke-width: 1.0;" width="10" x="1460" y="273.3594"/><rect fill="#FFFFFF" filter="url(#f10t73l2iuxni6)" height="1195.5938" style="stroke: #A80036; stroke-width: 1.0;" width="10" x="1709" y="345.625"/><rect fill="#FFFFFF" filter="url(#f10t73l2iuxni6)" height="1166.4609" style="stroke: #A80036; stroke-width: 1.0;" width="10" x="1936" y="374.7578"/><rect fill="#FFFFFF" filter="url(#f10t73l2iuxni6)" height="203.9297" style="stroke: #A80036; stroke-width: 1.0;" width="10" x="2195" y="403.8906"/><rect fill="#FFFFFF" filter="url(#f10t73l2iuxni6)" height="145.6641" style="stroke: #A80036; stroke-width: 1.0;" width="10" x="2454" y="433.0234"/><rect fill="#FFFFFF" filter="url(#f10t73l2iuxni6)" height="87.3984" style="stroke: #A80036; stroke-width: 1.0;" width="10" x="2713" y="462.1563"/><rect fill="#FFFFFF" filter="url(#f10t73l2iuxni6)" height="29.1328" style="stroke: #A80036; stroke-width: 1.0;" width="10" x="2922" y="491.2891"/><rect fill="#FFFFFF" filter="url(#f10t73l2iuxni6)" height="203.9297" style="stroke: #A80036; stroke-width: 1.0;" width="10" x="3025.5" y="772.6172"/><rect fill="#FFFFFF" filter="url(#f10t73l2iuxni6)" height="145.6641" style="stroke: #A80036; stroke-width: 1.0;" width="10" x="3183.5" y="801.75"/><rect fill="#FFFFFF" filter="url(#f10t73l2iuxni6)" height="58.2656" style="stroke: #A80036; stroke-width: 1.0;" width="10" x="3377.5" y="661.0859"/><rect fill="#FFFFFF" filter="url(#f10t73l2iuxni6)" height="29.1328" style="stroke: #A80036; stroke-width: 1.0;" width="10" x="3377.5" y="830.8828"/><rect fill="#FFFFFF" filter="url(#f10t73l2iuxni6)" height="29.1328" style="stroke: #A80036; stroke-width: 1.0;" width="10" x="3377.5" y="1005.6797"/><rect fill="#FFFFFF" filter="url(#f10t73l2iuxni6)" height="29.1328" style="stroke: #A80036; stroke-width: 1.0;" width="10" x="3510.5" y="690.2188"/><rect fill="#FFFFFF" filter="url(#f10t73l2iuxni6)" height="14" style="stroke: #A80036; stroke-width: 1.0;" width="10" x="3602.5" y="302.4922"/><rect fill="#FFFFFF" filter="url(#f10t73l2iuxni6)" height="29.1328" style="stroke: #A80036; stroke-width: 1.0;" width="10" x="3962.5" y="889.1484"/><polygon fill="#A80036" points="221,65.4297,231,69.4297,221,73.4297,225,69.4297" style="stroke: #A80036; stroke-width: 1.0;"/><line style="stroke: #A80036; stroke-width: 1.0;" x1="33" x2="227" y1="69.4297" y2="69.4297"/><text fill="#000000" font-family="sans-serif" font-size="13" lengthAdjust="spacingAndGlyphs" textLength="149" x="40" y="64.3638">Accesses web interface</text><polygon fill="#A80036" points="406,94.5625,416,98.5625,406,102.5625,410,98.5625" style="stroke: #A80036; stroke-width: 1.0;"/><line style="stroke: #A80036; stroke-width: 1.0;" x1="233" x2="412" y1="98.5625" y2="98.5625"/><text fill="#000000" font-family="sans-serif" font-size="13" lengthAdjust="spacingAndGlyphs" textLength="161" x="240" y="93.4966">Display form to create lift</text><polygon fill="#A80036" points="244,123.6953,234,127.6953,244,131.6953,240,127.6953" style="stroke: #A80036; stroke-width: 1.0;"/><line style="stroke: #A80036; stroke-width: 1.0;" x1="238" x2="417" y1="127.6953" y2="127.6953"/><text fill="#000000" font-family="sans-serif" font-size="13" lengthAdjust="spacingAndGlyphs" textLength="125" x="250" y="122.6294">User inputs lift data</text><polygon fill="#A80036" points="641,152.8281,651,156.8281,641,160.8281,645,156.8281" style="stroke: #A80036; stroke-width: 1.0;"/><line style="stroke: #A80036; stroke-width: 1.0;" x1="233" x2="647" y1="156.8281" y2="156.8281"/><text fill="#000000" font-family="sans-serif" font-size="13" lengthAdjust="spacingAndGlyphs" textLength="98" x="240" y="151.7622">Submit lift data</text><polygon fill="#A80036" points="798,181.9609,808,185.9609,798,189.9609,802,185.9609" style="stroke: #A80036; stroke-width: 1.0;"/><line style="stroke: #A80036; stroke-width: 1.0;" x1="653" x2="804" y1="185.9609" y2="185.9609"/><text fill="#000000" font-family="sans-serif" font-size="13" lengthAdjust="spacingAndGlyphs" textLength="133" x="660" y="180.895">Request to create lift</text><polygon fill="#A80036" points="1123,211.0938,1133,215.0938,1123,219.0938,1127,215.0938" style="stroke: #A80036; stroke-width: 1.0;"/><line style="stroke: #A80036; stroke-width: 1.0;" x1="810" x2="1129" y1="215.0938" y2="215.0938"/><text fill="#000000" font-family="sans-serif" font-size="13" lengthAdjust="spacingAndGlyphs" textLength="202" x="817" y="210.0278">Forward request (req, res, next)</text><polygon fill="#A80036" points="1118,240.2266,1128,244.2266,1118,248.2266,1122,244.2266" style="stroke: #A80036; stroke-width: 1.0;"/><line style="stroke: #A80036; stroke-width: 1.0;" x1="33" x2="1124" y1="244.2266" y2="244.2266"/><text fill="#000000" font-family="sans-serif" font-size="13" lengthAdjust="spacingAndGlyphs" textLength="260" x="40" y="239.1606">send request to createLift(req, res, next)</text><polygon fill="#A80036" points="1448,269.3594,1458,273.3594,1448,277.3594,1452,273.3594" style="stroke: #A80036; stroke-width: 1.0;"/><line style="stroke: #A80036; stroke-width: 1.0;" x1="1140" x2="1454" y1="273.3594" y2="273.3594"/><text fill="#000000" font-family="sans-serif" font-size="13" lengthAdjust="spacingAndGlyphs" textLength="155" x="1147" y="268.2935">createLift(req, res, next)</text><polygon fill="#A80036" points="3590.5,298.4922,3600.5,302.4922,3590.5,306.4922,3594.5,302.4922" style="stroke: #A80036; stroke-width: 1.0;"/><line style="stroke: #A80036; stroke-width: 1.0;" x1="1470" x2="3596.5" y1="302.4922" y2="302.4922"/><text fill="#000000" font-family="sans-serif" font-size="13" lengthAdjust="spacingAndGlyphs" textLength="92" x="1477" y="297.4263">Injects Service</text><polygon fill="#A80036" points="1481,312.4922,1471,316.4922,1481,320.4922,1477,316.4922" style="stroke: #A80036; stroke-width: 1.0;"/><line style="stroke: #A80036; stroke-width: 1.0;" x1="1475" x2="3606.5" y1="316.4922" y2="316.4922"/><polygon fill="#A80036" points="1697,341.625,1707,345.625,1697,349.625,1701,345.625" style="stroke: #A80036; stroke-width: 1.0;"/><line style="stroke: #A80036; stroke-width: 1.0;" x1="1470" x2="1703" y1="345.625" y2="345.625"/><text fill="#000000" font-family="sans-serif" font-size="13" lengthAdjust="spacingAndGlyphs" textLength="155" x="1477" y="340.5591">createLift(req, res, next)</text><polygon fill="#A80036" points="1924,370.7578,1934,374.7578,1924,378.7578,1928,374.7578" style="stroke: #A80036; stroke-width: 1.0;"/><line style="stroke: #A80036; stroke-width: 1.0;" x1="1719" x2="1930" y1="374.7578" y2="374.7578"/><text fill="#000000" font-family="sans-serif" font-size="13" lengthAdjust="spacingAndGlyphs" textLength="198" x="1726" y="369.6919">createLift(req.body as ILiftDTO)</text><polygon fill="#A80036" points="2183,399.8906,2193,403.8906,2183,407.8906,2187,403.8906" style="stroke: #A80036; stroke-width: 1.0;"/><line style="stroke: #A80036; stroke-width: 1.0;" x1="1946" x2="2189" y1="403.8906" y2="403.8906"/><text fill="#000000" font-family="sans-serif" font-size="13" lengthAdjust="spacingAndGlyphs" textLength="230" x="1953" y="398.8247">findByDomainId(req.body.buildingId)</text><polygon fill="#A80036" points="2442,429.0234,2452,433.0234,2442,437.0234,2446,433.0234" style="stroke: #A80036; stroke-width: 1.0;"/><line style="stroke: #A80036; stroke-width: 1.0;" x1="2205" x2="2448" y1="433.0234" y2="433.0234"/><text fill="#000000" font-family="sans-serif" font-size="13" lengthAdjust="spacingAndGlyphs" textLength="230" x="2212" y="427.9575">findByDomainId(req.body.buildingId)</text><polygon fill="#A80036" points="2701,458.1563,2711,462.1563,2701,466.1563,2705,462.1563" style="stroke: #A80036; stroke-width: 1.0;"/><line style="stroke: #A80036; stroke-width: 1.0;" x1="2464" x2="2707" y1="462.1563" y2="462.1563"/><text fill="#000000" font-family="sans-serif" font-size="13" lengthAdjust="spacingAndGlyphs" textLength="230" x="2471" y="457.0903">findByDomainId(req.body.buildingId)</text><polygon fill="#A80036" points="2910,487.2891,2920,491.2891,2910,495.2891,2914,491.2891" style="stroke: #A80036; stroke-width: 1.0;"/><line style="stroke: #A80036; stroke-width: 1.0;" x1="2723" x2="2916" y1="491.2891" y2="491.2891"/><text fill="#000000" font-family="sans-serif" font-size="13" lengthAdjust="spacingAndGlyphs" textLength="180" x="2730" y="486.2231">findById(req.body.buildingId)</text><polygon fill="#A80036" points="2734,516.4219,2724,520.4219,2734,524.4219,2730,520.4219" style="stroke: #A80036; stroke-width: 1.0;"/><line style="stroke: #A80036; stroke-width: 1.0; stroke-dasharray: 2.0,2.0;" x1="2728" x2="2926" y1="520.4219" y2="520.4219"/><text fill="#000000" font-family="sans-serif" font-size="13" lengthAdjust="spacingAndGlyphs" textLength="169" x="2740" y="515.356">buildingDocument (or null)</text><polygon fill="#A80036" points="2475,545.5547,2465,549.5547,2475,553.5547,2471,549.5547" style="stroke: #A80036; stroke-width: 1.0;"/><line style="stroke: #A80036; stroke-width: 1.0; stroke-dasharray: 2.0,2.0;" x1="2469" x2="2717" y1="549.5547" y2="549.5547"/><text fill="#000000" font-family="sans-serif" font-size="13" lengthAdjust="spacingAndGlyphs" textLength="169" x="2481" y="544.4888">buildingDocument (or null)</text><polygon fill="#A80036" points="2216,574.6875,2206,578.6875,2216,582.6875,2212,578.6875" style="stroke: #A80036; stroke-width: 1.0;"/><line style="stroke: #A80036; stroke-width: 1.0; stroke-dasharray: 2.0,2.0;" x1="2210" x2="2458" y1="578.6875" y2="578.6875"/><text fill="#000000" font-family="sans-serif" font-size="13" lengthAdjust="spacingAndGlyphs" textLength="169" x="2222" y="573.6216">buildingDocument (or null)</text><polygon fill="#A80036" points="1957,603.8203,1947,607.8203,1957,611.8203,1953,607.8203" style="stroke: #A80036; stroke-width: 1.0;"/><line style="stroke: #A80036; stroke-width: 1.0; stroke-dasharray: 2.0,2.0;" x1="1951" x2="2199" y1="607.8203" y2="607.8203"/><text fill="#000000" font-family="sans-serif" font-size="13" lengthAdjust="spacingAndGlyphs" textLength="169" x="1963" y="602.7544">buildingDocument (or null)</text><path d="M1393,622.8203 L1457,622.8203 L1457,629.8203 L1447,639.8203 L1393,639.8203 L1393,622.8203 " fill="#EEEEEE" style="stroke: #000000; stroke-width: 1.0;"/><rect fill="none" height="631.3984" style="stroke: #000000; stroke-width: 2.0;" width="2641" x="1393" y="622.8203"/><text fill="#000000" font-family="sans-serif" font-size="13" font-weight="bold" lengthAdjust="spacingAndGlyphs" textLength="19" x="1408" y="635.8872">alt</text><text fill="#000000" font-family="sans-serif" font-size="11" font-weight="bold" lengthAdjust="spacingAndGlyphs" textLength="104" x="1472" y="635.0308">[Building found]</text><polygon fill="#A80036" points="3365.5,657.0859,3375.5,661.0859,3365.5,665.0859,3369.5,661.0859" style="stroke: #A80036; stroke-width: 1.0;"/><line style="stroke: #A80036; stroke-width: 1.0;" x1="1946" x2="3371.5" y1="661.0859" y2="661.0859"/><text fill="#000000" font-family="sans-serif" font-size="13" lengthAdjust="spacingAndGlyphs" textLength="203" x="1953" y="656.02">ToDomain(req.body as ILiftDTO)</text><polygon fill="#A80036" points="3498.5,686.2188,3508.5,690.2188,3498.5,694.2188,3502.5,690.2188" style="stroke: #A80036; stroke-width: 1.0;"/><line style="stroke: #A80036; stroke-width: 1.0;" x1="3387.5" x2="3504.5" y1="690.2188" y2="690.2188"/><text fill="#000000" font-family="sans-serif" font-size="13" lengthAdjust="spacingAndGlyphs" textLength="104" x="3394.5" y="685.1528">.create(ILiftDTO)</text><polygon fill="#A80036" points="1957,715.3516,1947,719.3516,1957,723.3516,1953,719.3516" style="stroke: #A80036; stroke-width: 1.0;"/><line style="stroke: #A80036; stroke-width: 1.0; stroke-dasharray: 2.0,2.0;" x1="1951" x2="3514.5" y1="719.3516" y2="719.3516"/><text fill="#000000" font-family="sans-serif" font-size="13" lengthAdjust="spacingAndGlyphs" textLength="68" x="1963" y="714.2856">createdLift</text><path d="M1403,734.3516 L1467,734.3516 L1467,741.3516 L1457,751.3516 L1403,751.3516 L1403,734.3516 " fill="#EEEEEE" style="stroke: #000000; stroke-width: 1.0;"/><rect fill="none" height="439.7969" style="stroke: #000000; stroke-width: 2.0;" width="2621" x="1403" y="734.3516"/><text fill="#000000" font-family="sans-serif" font-size="13" font-weight="bold" lengthAdjust="spacingAndGlyphs" textLength="19" x="1418" y="747.4185">alt</text><text fill="#000000" font-family="sans-serif" font-size="11" font-weight="bold" lengthAdjust="spacingAndGlyphs" textLength="135" x="1482" y="746.562">[creation successful]</text><polygon fill="#A80036" points="3013.5,768.6172,3023.5,772.6172,3013.5,776.6172,3017.5,772.6172" style="stroke: #A80036; stroke-width: 1.0;"/><line style="stroke: #A80036; stroke-width: 1.0;" x1="1946" x2="3019.5" y1="772.6172" y2="772.6172"/><text fill="#000000" font-family="sans-serif" font-size="13" lengthAdjust="spacingAndGlyphs" textLength="108" x="1953" y="767.5513">save(createdLift)</text><polygon fill="#A80036" points="3171.5,797.75,3181.5,801.75,3171.5,805.75,3175.5,801.75" style="stroke: #A80036; stroke-width: 1.0;"/><line style="stroke: #A80036; stroke-width: 1.0;" x1="3035.5" x2="3177.5" y1="801.75" y2="801.75"/><text fill="#000000" font-family="sans-serif" font-size="13" lengthAdjust="spacingAndGlyphs" textLength="108" x="3042.5" y="796.6841">save(createdLift)</text><polygon fill="#A80036" points="3365.5,826.8828,3375.5,830.8828,3365.5,834.8828,3369.5,830.8828" style="stroke: #A80036; stroke-width: 1.0;"/><line style="stroke: #A80036; stroke-width: 1.0;" x1="3193.5" x2="3371.5" y1="830.8828" y2="830.8828"/><text fill="#000000" font-family="sans-serif" font-size="13" lengthAdjust="spacingAndGlyphs" textLength="165" x="3200.5" y="825.8169">toPersistence(createdLift)</text><polygon fill="#A80036" points="3204.5,856.0156,3194.5,860.0156,3204.5,864.0156,3200.5,860.0156" style="stroke: #A80036; stroke-width: 1.0;"/><line style="stroke: #A80036; stroke-width: 1.0; stroke-dasharray: 2.0,2.0;" x1="3198.5" x2="3381.5" y1="860.0156" y2="860.0156"/><text fill="#000000" font-family="sans-serif" font-size="13" lengthAdjust="spacingAndGlyphs" textLength="84" x="3210.5" y="854.9497">return rawLift</text><polygon fill="#A80036" points="3950.5,885.1484,3960.5,889.1484,3950.5,893.1484,3954.5,889.1484" style="stroke: #A80036; stroke-width: 1.0;"/><line style="stroke: #A80036; stroke-width: 1.0; stroke-dasharray: 2.0,2.0;" x1="3193.5" x2="3956.5" y1="889.1484" y2="889.1484"/><text fill="#000000" font-family="sans-serif" font-size="13" lengthAdjust="spacingAndGlyphs" textLength="92" x="3200.5" y="884.0825">create(rawLift)</text><polygon fill="#A80036" points="3204.5,914.2813,3194.5,918.2813,3204.5,922.2813,3200.5,918.2813" style="stroke: #A80036; stroke-width: 1.0;"/><line style="stroke: #A80036; stroke-width: 1.0; stroke-dasharray: 2.0,2.0;" x1="3198.5" x2="3966.5" y1="918.2813" y2="918.2813"/><text fill="#000000" font-family="sans-serif" font-size="13" lengthAdjust="spacingAndGlyphs" textLength="125" x="3210.5" y="913.2153">return liftDocument</text><polygon fill="#A80036" points="3046.5,943.4141,3036.5,947.4141,3046.5,951.4141,3042.5,947.4141" style="stroke: #A80036; stroke-width: 1.0;"/><line style="stroke: #A80036; stroke-width: 1.0; stroke-dasharray: 2.0,2.0;" x1="3040.5" x2="3187.5" y1="947.4141" y2="947.4141"/><text fill="#000000" font-family="sans-serif" font-size="13" lengthAdjust="spacingAndGlyphs" textLength="124" x="3052.5" y="942.3481">saved liftDocument</text><polygon fill="#A80036" points="1957,972.5469,1947,976.5469,1957,980.5469,1953,976.5469" style="stroke: #A80036; stroke-width: 1.0;"/><line style="stroke: #A80036; stroke-width: 1.0; stroke-dasharray: 2.0,2.0;" x1="1951" x2="3029.5" y1="976.5469" y2="976.5469"/><text fill="#000000" font-family="sans-serif" font-size="13" lengthAdjust="spacingAndGlyphs" textLength="124" x="1963" y="971.481">saved liftDocument</text><polygon fill="#A80036" points="3365.5,1001.6797,3375.5,1005.6797,3365.5,1009.6797,3369.5,1005.6797" style="stroke: #A80036; stroke-width: 1.0;"/><line style="stroke: #A80036; stroke-width: 1.0;" x1="1946" x2="3371.5" y1="1005.6797" y2="1005.6797"/><text fill="#000000" font-family="sans-serif" font-size="13" lengthAdjust="spacingAndGlyphs" textLength="118" x="1953" y="1000.6138">toDTO(createdLift)</text><polygon fill="#A80036" points="1957,1030.8125,1947,1034.8125,1957,1038.8125,1953,1034.8125" style="stroke: #A80036; stroke-width: 1.0;"/><line style="stroke: #A80036; stroke-width: 1.0; stroke-dasharray: 2.0,2.0;" x1="1951" x2="3381.5" y1="1034.8125" y2="1034.8125"/><text fill="#000000" font-family="sans-serif" font-size="13" lengthAdjust="spacingAndGlyphs" textLength="81" x="1963" y="1029.7466">liftDTOResult</text><polygon fill="#A80036" points="1730,1059.9453,1720,1063.9453,1730,1067.9453,1726,1063.9453" style="stroke: #A80036; stroke-width: 1.0;"/><line style="stroke: #A80036; stroke-width: 1.0; stroke-dasharray: 2.0,2.0;" x1="1724" x2="1935" y1="1063.9453" y2="1063.9453"/><text fill="#000000" font-family="sans-serif" font-size="13" lengthAdjust="spacingAndGlyphs" textLength="81" x="1736" y="1058.8794">liftDTOResult</text><polygon fill="#A80036" points="1481,1089.0781,1471,1093.0781,1481,1097.0781,1477,1093.0781" style="stroke: #A80036; stroke-width: 1.0;"/><line style="stroke: #A80036; stroke-width: 1.0; stroke-dasharray: 2.0,2.0;" x1="1475" x2="1708" y1="1093.0781" y2="1093.0781"/><text fill="#000000" font-family="sans-serif" font-size="13" lengthAdjust="spacingAndGlyphs" textLength="215" x="1487" y="1088.0122">Return successful Result with DTO</text><line style="stroke: #000000; stroke-width: 1.0; stroke-dasharray: 2.0,2.0;" x1="1403" x2="4024" y1="1102.0781" y2="1102.0781"/><text fill="#000000" font-family="sans-serif" font-size="11" font-weight="bold" lengthAdjust="spacingAndGlyphs" textLength="104" x="1408" y="1112.2886">[creation failed]</text><polygon fill="#A80036" points="1730,1133.0156,1720,1137.0156,1730,1141.0156,1726,1137.0156" style="stroke: #A80036; stroke-width: 1.0;"/><line style="stroke: #A80036; stroke-width: 1.0; stroke-dasharray: 2.0,2.0;" x1="1724" x2="1935" y1="1137.0156" y2="1137.0156"/><text fill="#000000" font-family="sans-serif" font-size="13" lengthAdjust="spacingAndGlyphs" textLength="74" x="1736" y="1131.9497">Error Result</text><polygon fill="#A80036" points="1481,1162.1484,1471,1166.1484,1481,1170.1484,1477,1166.1484" style="stroke: #A80036; stroke-width: 1.0;"/><line style="stroke: #A80036; stroke-width: 1.0; stroke-dasharray: 2.0,2.0;" x1="1475" x2="1708" y1="1166.1484" y2="1166.1484"/><text fill="#000000" font-family="sans-serif" font-size="13" lengthAdjust="spacingAndGlyphs" textLength="74" x="1487" y="1161.0825">Error Result</text><line style="stroke: #000000; stroke-width: 1.0; stroke-dasharray: 2.0,2.0;" x1="1393" x2="4034" y1="1182.1484" y2="1182.1484"/><text fill="#000000" font-family="sans-serif" font-size="11" font-weight="bold" lengthAdjust="spacingAndGlyphs" textLength="129" x="1398" y="1192.3589">[Building not found]</text><polygon fill="#A80036" points="1730,1213.0859,1720,1217.0859,1730,1221.0859,1726,1217.0859" style="stroke: #A80036; stroke-width: 1.0;"/><line style="stroke: #A80036; stroke-width: 1.0; stroke-dasharray: 2.0,2.0;" x1="1724" x2="1935" y1="1217.0859" y2="1217.0859"/><text fill="#000000" font-family="sans-serif" font-size="13" lengthAdjust="spacingAndGlyphs" textLength="150" x="1736" y="1212.02">Building not found Error</text><polygon fill="#A80036" points="1481,1242.2188,1471,1246.2188,1481,1250.2188,1477,1246.2188" style="stroke: #A80036; stroke-width: 1.0;"/><line style="stroke: #A80036; stroke-width: 1.0; stroke-dasharray: 2.0,2.0;" x1="1475" x2="1708" y1="1246.2188" y2="1246.2188"/><text fill="#000000" font-family="sans-serif" font-size="13" lengthAdjust="spacingAndGlyphs" textLength="150" x="1487" y="1241.1528">Building not found Error</text><path d="M761.5,1268.2188 L825.5,1268.2188 L825.5,1275.2188 L815.5,1285.2188 L761.5,1285.2188 L761.5,1268.2188 " fill="#EEEEEE" style="stroke: #000000; stroke-width: 1.0;"/><rect fill="none" height="148.4688" style="stroke: #000000; stroke-width: 2.0;" width="765.5" x="761.5" y="1268.2188"/><text fill="#000000" font-family="sans-serif" font-size="13" font-weight="bold" lengthAdjust="spacingAndGlyphs" textLength="19" x="776.5" y="1281.2856">alt</text><text fill="#000000" font-family="sans-serif" font-size="11" font-weight="bold" lengthAdjust="spacingAndGlyphs" textLength="230" x="840.5" y="1280.4292">[LiftService returns a failure Result]</text><polygon fill="#A80036" points="1151,1302.4844,1141,1306.4844,1151,1310.4844,1147,1306.4844" style="stroke: #A80036; stroke-width: 1.0;"/><line style="stroke: #A80036; stroke-width: 1.0;" x1="1145" x2="1459" y1="1306.4844" y2="1306.4844"/><text fill="#000000" font-family="sans-serif" font-size="13" lengthAdjust="spacingAndGlyphs" textLength="197" x="1157" y="1301.4185">Send response with status 402</text><polygon fill="#A80036" points="821,1331.6172,811,1335.6172,821,1339.6172,817,1335.6172" style="stroke: #A80036; stroke-width: 1.0;"/><line style="stroke: #A80036; stroke-width: 1.0;" x1="815" x2="1129" y1="1335.6172" y2="1335.6172"/><text fill="#000000" font-family="sans-serif" font-size="13" lengthAdjust="spacingAndGlyphs" textLength="197" x="827" y="1330.5513">Send response with status 402</text><line style="stroke: #000000; stroke-width: 1.0; stroke-dasharray: 2.0,2.0;" x1="761.5" x2="1527" y1="1344.6172" y2="1344.6172"/><text fill="#000000" font-family="sans-serif" font-size="11" font-weight="bold" lengthAdjust="spacingAndGlyphs" textLength="256" x="766.5" y="1354.8276">[LiftService returns a successful Result]</text><polygon fill="#A80036" points="1151,1375.5547,1141,1379.5547,1151,1383.5547,1147,1379.5547" style="stroke: #A80036; stroke-width: 1.0;"/><line style="stroke: #A80036; stroke-width: 1.0;" x1="1145" x2="1459" y1="1379.5547" y2="1379.5547"/><text fill="#000000" font-family="sans-serif" font-size="13" lengthAdjust="spacingAndGlyphs" textLength="296" x="1157" y="1374.4888">Send response with status 201 and the liftDTO</text><polygon fill="#A80036" points="821,1404.6875,811,1408.6875,821,1412.6875,817,1408.6875" style="stroke: #A80036; stroke-width: 1.0;"/><line style="stroke: #A80036; stroke-width: 1.0;" x1="815" x2="1129" y1="1408.6875" y2="1408.6875"/><text fill="#000000" font-family="sans-serif" font-size="13" lengthAdjust="spacingAndGlyphs" textLength="296" x="827" y="1403.6216">Send response with status 201 and the liftDTO</text><polygon fill="#A80036" points="664,1440.8203,654,1444.8203,664,1448.8203,660,1444.8203" style="stroke: #A80036; stroke-width: 1.0;"/><line style="stroke: #A80036; stroke-width: 1.0;" x1="658" x2="809" y1="1444.8203" y2="1444.8203"/><text fill="#000000" font-family="sans-serif" font-size="13" lengthAdjust="spacingAndGlyphs" textLength="113" x="670" y="1439.7544">Forward response</text><polygon fill="#A80036" points="429,1469.9531,419,1473.9531,429,1477.9531,425,1473.9531" style="stroke: #A80036; stroke-width: 1.0;"/><line style="stroke: #A80036; stroke-width: 1.0;" x1="423" x2="652" y1="1473.9531" y2="1473.9531"/><text fill="#000000" font-family="sans-serif" font-size="13" lengthAdjust="spacingAndGlyphs" textLength="211" x="435" y="1468.8872">Display result (success or failure)</text><polygon fill="#A80036" points="244,1499.0859,234,1503.0859,244,1507.0859,240,1503.0859" style="stroke: #A80036; stroke-width: 1.0;"/><line style="stroke: #A80036; stroke-width: 1.0;" x1="238" x2="417" y1="1503.0859" y2="1503.0859"/><text fill="#000000" font-family="sans-serif" font-size="13" lengthAdjust="spacingAndGlyphs" textLength="154" x="250" y="1498.02">Update view accordingly</text><polygon fill="#A80036" points="44,1528.2188,34,1532.2188,44,1536.2188,40,1532.2188" style="stroke: #A80036; stroke-width: 1.0;"/><line style="stroke: #A80036; stroke-width: 1.0;" x1="38" x2="232" y1="1532.2188" y2="1532.2188"/><text fill="#000000" font-family="sans-serif" font-size="13" lengthAdjust="spacingAndGlyphs" textLength="176" x="50" y="1527.1528">Show final outcome to User</text><!--MD5=[db8320bc047386aed1863bc741e89286]
@startuml LEVEL3_createlift

participant "User" as A
participant ":View" as sys
participant ":FE_Component" as comp
participant ":FE_Service" as FEsrvc
participant ":Routing" as route
participant "ILiftController" as IL
participant "LiftController" as L
participant "ILiftService" as IS
participant "LiftService" as S
participant "IBuildingService" as IBS  
participant "BuildingService" as BS    
participant "IBuildingRepo" as IBR
participant "BuildingRepo" as BR
participant "ILiftRepo" as IR
participant "LiftRepo" as R
participant "LiftMap" as M
participant "Lift Entity" as E
participant "ConfigFile" as CONF
participant "ILiftPersistence" as IH
participant "LiftPersistence" as H
participant "LiftSchema" as I

A -> sys: Accesses web interface
sys -> comp: Display form to create lift
comp -> sys: User inputs lift data
sys -> FEsrvc: Submit lift data
FEsrvc -> route: Request to create lift
route -> IL: Forward request (req, res, next)
A -> IL: send request to createLift(req, res, next)
activate IL

IL -> L: createLift(req, res, next)
activate L

L -> CONF: Injects Service
activate CONF

CONF -> L
deactivate CONF

L -> IS: createLift(req, res, next)
activate IS

IS -> S: createLift(req.body as ILiftDTO)
activate S

S -> IBS: findByDomainId(req.body.buildingId)
activate IBS
IBS -> BS: findByDomainId(req.body.buildingId)
activate BS
BS -> IBR: findByDomainId(req.body.buildingId)
activate IBR
IBR -> BR: findById(req.body.buildingId)
activate BR
BR - -> IBR: buildingDocument (or null)
deactivate BR
IBR - -> BS: buildingDocument (or null)
deactivate IBR
BS - -> IBS: buildingDocument (or null)
deactivate BS
IBS - -> S: buildingDocument (or null)
deactivate IBS

alt Building found
    S -> M: ToDomain(req.body as ILiftDTO)
    activate M
    M -> E: .create(ILiftDTO)
    activate E
    E - -> S: createdLift
    deactivate E
    deactivate M

    alt creation successful
        S -> IR: save(createdLift)
        activate IR
        IR -> R: save(createdLift)
        activate R
        R -> M: toPersistence(createdLift)
        activate M
        M - -> R : return rawLift
        deactivate M
        R - -> I: create(rawLift)
        activate I
        I - -> R : return liftDocument
        deactivate I
        R - -> IR: saved liftDocument
        deactivate R
        IR - -> S: saved liftDocument
        deactivate IR
        
        S -> M: toDTO(createdLift)
        activate M
        M - -> S: liftDTOResult
        deactivate M
        S - -> IS : liftDTOResult
        IS - -> L: Return successful Result with DTO
    else creation failed
        S - -> IS: Error Result
        IS - -> L: Error Result
    end
else Building not found
    S - -> IS: Building not found Error
    IS - -> L: Building not found Error
end

alt LiftService returns a failure Result
    L -> IL: Send response with status 402
    IL -> route: Send response with status 402
else LiftService returns a successful Result
    L -> IL: Send response with status 201 and the liftDTO
    IL -> route: Send response with status 201 and the liftDTO
end

route -> FEsrvc: Forward response
FEsrvc -> comp: Display result (success or failure)
comp -> sys: Update view accordingly
sys -> A: Show final outcome to User

@enduml

PlantUML version 1.2020.02(Sun Mar 01 10:22:07 UTC 2020)
(GPL source distribution)
Java Runtime: OpenJDK Runtime Environment
JVM: OpenJDK 64-Bit Server VM
Java Version: 11.0.21+9
Operating System: Linux
Default Encoding: UTF-8
Language: en
Country: null
--></g></svg>