<?xml version="1.0" encoding="UTF-8" standalone="no"?><svg xmlns="http://www.w3.org/2000/svg" xmlns:xlink="http://www.w3.org/1999/xlink" contentScriptType="application/ecmascript" contentStyleType="text/css" height="693px" preserveAspectRatio="none" style="width:1306px;height:693px;" version="1.1" viewBox="0 0 1306 693" width="1306px" zoomAndPan="magnify"><defs><filter height="300%" id="f1lgvs2gli9uvl" width="300%" x="-1" y="-1"><feGaussianBlur result="blurOut" stdDeviation="2.0"/><feColorMatrix in="blurOut" result="blurOut2" type="matrix" values="0 0 0 0 0 0 0 0 0 0 0 0 0 0 0 0 0 0 .4 0"/><feOffset dx="4.0" dy="4.0" in="blurOut2" result="blurOut3"/><feBlend in="SourceGraphic" in2="blurOut3" mode="normal"/></filter></defs><g><rect fill="#FFFFFF" filter="url(#f1lgvs2gli9uvl)" height="420.3359" style="stroke: #A80036; stroke-width: 1.0;" width="10" x="621" y="146.5625"/><rect fill="#FFFFFF" filter="url(#f1lgvs2gli9uvl)" height="287" style="stroke: #A80036; stroke-width: 1.0;" width="10" x="902" y="175.6953"/><rect fill="#FFFFFF" filter="url(#f1lgvs2gli9uvl)" height="87.3984" style="stroke: #A80036; stroke-width: 1.0;" width="10" x="1075" y="204.8281"/><rect fill="#FFFFFF" filter="url(#f1lgvs2gli9uvl)" height="29.1328" style="stroke: #A80036; stroke-width: 1.0;" width="10" x="1235" y="233.9609"/><rect fill="#FFFFFF" filter="url(#f1lgvs2gli9uvl)" height="29.1328" style="stroke: #A80036; stroke-width: 1.0;" width="10" x="1235" y="345.4922"/><rect fill="#FFFFFF" filter="url(#f1lgvs2gli9uvl)" height="148.4688" style="stroke: #000000; stroke-width: 2.0;" width="733" x="561.5" y="307.2266"/><rect fill="#FFFFFF" height="43.9375" style="stroke: none; stroke-width: 1.0;" width="733" x="561.5" y="411.7578"/><rect fill="#FFFFFF" filter="url(#f1lgvs2gli9uvl)" height="90.2031" style="stroke: #000000; stroke-width: 2.0;" width="412.5" x="278" y="469.6953"/><rect fill="#FFFFFF" height="43.9375" style="stroke: none; stroke-width: 1.0;" width="412.5" x="278" y="515.9609"/><line style="stroke: #A80036; stroke-width: 1.0; stroke-dasharray: 5.0,5.0;" x1="27" x2="27" y1="86.2969" y2="606.0313"/><line style="stroke: #A80036; stroke-width: 1.0; stroke-dasharray: 5.0,5.0;" x1="331" x2="331" y1="86.2969" y2="606.0313"/><line style="stroke: #A80036; stroke-width: 1.0; stroke-dasharray: 5.0,5.0;" x1="625.5" x2="625.5" y1="86.2969" y2="606.0313"/><line style="stroke: #A80036; stroke-width: 1.0; stroke-dasharray: 5.0,5.0;" x1="907" x2="907" y1="86.2969" y2="606.0313"/><line style="stroke: #A80036; stroke-width: 1.0; stroke-dasharray: 5.0,5.0;" x1="1080" x2="1080" y1="86.2969" y2="606.0313"/><line style="stroke: #A80036; stroke-width: 1.0; stroke-dasharray: 5.0,5.0;" x1="1239.5" x2="1239.5" y1="86.2969" y2="606.0313"/><text fill="#000000" font-family="sans-serif" font-size="14" lengthAdjust="spacingAndGlyphs" textLength="32" x="8" y="82.9951">User</text><ellipse cx="27" cy="13" fill="#FEFECE" filter="url(#f1lgvs2gli9uvl)" rx="8" ry="8" style="stroke: #A80036; stroke-width: 2.0;"/><path d="M27,21 L27,48 M14,29 L40,29 M27,48 L14,63 M27,48 L40,63 " fill="none" filter="url(#f1lgvs2gli9uvl)" style="stroke: #A80036; stroke-width: 2.0;"/><text fill="#000000" font-family="sans-serif" font-size="14" lengthAdjust="spacingAndGlyphs" textLength="32" x="8" y="618.0264">User</text><ellipse cx="27" cy="631.3281" fill="#FEFECE" filter="url(#f1lgvs2gli9uvl)" rx="8" ry="8" style="stroke: #A80036; stroke-width: 2.0;"/><path d="M27,639.3281 L27,666.3281 M14,647.3281 L40,647.3281 M27,666.3281 L14,681.3281 M27,666.3281 L40,681.3281 " fill="none" filter="url(#f1lgvs2gli9uvl)" style="stroke: #A80036; stroke-width: 2.0;"/><rect fill="#FEFECE" filter="url(#f1lgvs2gli9uvl)" height="30.2969" style="stroke: #A80036; stroke-width: 1.5;" width="82" x="288" y="51"/><text fill="#000000" font-family="sans-serif" font-size="14" lengthAdjust="spacingAndGlyphs" textLength="68" x="295" y="70.9951">:FrontEnd</text><rect fill="#FEFECE" filter="url(#f1lgvs2gli9uvl)" height="30.2969" style="stroke: #A80036; stroke-width: 1.5;" width="82" x="288" y="605.0313"/><text fill="#000000" font-family="sans-serif" font-size="14" lengthAdjust="spacingAndGlyphs" textLength="68" x="295" y="625.0264">:FrontEnd</text><rect fill="#FEFECE" filter="url(#f1lgvs2gli9uvl)" height="30.2969" style="stroke: #A80036; stroke-width: 1.5;" width="105" x="571.5" y="51"/><text fill="#000000" font-family="sans-serif" font-size="14" lengthAdjust="spacingAndGlyphs" textLength="91" x="578.5" y="70.9951">:LiftController</text><rect fill="#FEFECE" filter="url(#f1lgvs2gli9uvl)" height="30.2969" style="stroke: #A80036; stroke-width: 1.5;" width="105" x="571.5" y="605.0313"/><text fill="#000000" font-family="sans-serif" font-size="14" lengthAdjust="spacingAndGlyphs" textLength="91" x="578.5" y="625.0264">:LiftController</text><rect fill="#FEFECE" filter="url(#f1lgvs2gli9uvl)" height="30.2969" style="stroke: #A80036; stroke-width: 1.5;" width="88" x="861" y="51"/><text fill="#000000" font-family="sans-serif" font-size="14" lengthAdjust="spacingAndGlyphs" textLength="74" x="868" y="70.9951">:LiftService</text><rect fill="#FEFECE" filter="url(#f1lgvs2gli9uvl)" height="30.2969" style="stroke: #A80036; stroke-width: 1.5;" width="88" x="861" y="605.0313"/><text fill="#000000" font-family="sans-serif" font-size="14" lengthAdjust="spacingAndGlyphs" textLength="74" x="868" y="625.0264">:LiftService</text><rect fill="#FEFECE" filter="url(#f1lgvs2gli9uvl)" height="30.2969" style="stroke: #A80036; stroke-width: 1.5;" width="124" x="1016" y="51"/><text fill="#000000" font-family="sans-serif" font-size="14" lengthAdjust="spacingAndGlyphs" textLength="110" x="1023" y="70.9951">:BuildingService</text><rect fill="#FEFECE" filter="url(#f1lgvs2gli9uvl)" height="30.2969" style="stroke: #A80036; stroke-width: 1.5;" width="124" x="1016" y="605.0313"/><text fill="#000000" font-family="sans-serif" font-size="14" lengthAdjust="spacingAndGlyphs" textLength="110" x="1023" y="625.0264">:BuildingService</text><rect fill="#FEFECE" filter="url(#f1lgvs2gli9uvl)" height="30.2969" style="stroke: #A80036; stroke-width: 1.5;" width="85" x="1195.5" y="51"/><text fill="#000000" font-family="sans-serif" font-size="14" lengthAdjust="spacingAndGlyphs" textLength="71" x="1202.5" y="70.9951">:Database</text><rect fill="#FEFECE" filter="url(#f1lgvs2gli9uvl)" height="30.2969" style="stroke: #A80036; stroke-width: 1.5;" width="85" x="1195.5" y="605.0313"/><text fill="#000000" font-family="sans-serif" font-size="14" lengthAdjust="spacingAndGlyphs" textLength="71" x="1202.5" y="625.0264">:Database</text><rect fill="#FFFFFF" filter="url(#f1lgvs2gli9uvl)" height="420.3359" style="stroke: #A80036; stroke-width: 1.0;" width="10" x="621" y="146.5625"/><rect fill="#FFFFFF" filter="url(#f1lgvs2gli9uvl)" height="287" style="stroke: #A80036; stroke-width: 1.0;" width="10" x="902" y="175.6953"/><rect fill="#FFFFFF" filter="url(#f1lgvs2gli9uvl)" height="87.3984" style="stroke: #A80036; stroke-width: 1.0;" width="10" x="1075" y="204.8281"/><rect fill="#FFFFFF" filter="url(#f1lgvs2gli9uvl)" height="29.1328" style="stroke: #A80036; stroke-width: 1.0;" width="10" x="1235" y="233.9609"/><rect fill="#FFFFFF" filter="url(#f1lgvs2gli9uvl)" height="29.1328" style="stroke: #A80036; stroke-width: 1.0;" width="10" x="1235" y="345.4922"/><polygon fill="#A80036" points="319,113.4297,329,117.4297,319,121.4297,323,117.4297" style="stroke: #A80036; stroke-width: 1.0;"/><line style="stroke: #A80036; stroke-width: 1.0;" x1="27" x2="325" y1="117.4297" y2="117.4297"/><text fill="#000000" font-family="sans-serif" font-size="13" lengthAdjust="spacingAndGlyphs" textLength="250" x="34" y="112.3638">Access web interface and input lift data</text><polygon fill="#A80036" points="609,142.5625,619,146.5625,609,150.5625,613,146.5625" style="stroke: #A80036; stroke-width: 1.0;"/><line style="stroke: #A80036; stroke-width: 1.0;" x1="331" x2="615" y1="146.5625" y2="146.5625"/><text fill="#000000" font-family="sans-serif" font-size="13" lengthAdjust="spacingAndGlyphs" textLength="98" x="338" y="141.4966">Submit lift data</text><polygon fill="#A80036" points="890,171.6953,900,175.6953,890,179.6953,894,175.6953" style="stroke: #A80036; stroke-width: 1.0;"/><line style="stroke: #A80036; stroke-width: 1.0;" x1="631" x2="896" y1="175.6953" y2="175.6953"/><text fill="#000000" font-family="sans-serif" font-size="13" lengthAdjust="spacingAndGlyphs" textLength="99" x="638" y="170.6294">createLift(data)</text><polygon fill="#A80036" points="1063,200.8281,1073,204.8281,1063,208.8281,1067,204.8281" style="stroke: #A80036; stroke-width: 1.0;"/><line style="stroke: #A80036; stroke-width: 1.0;" x1="912" x2="1069" y1="204.8281" y2="204.8281"/><text fill="#000000" font-family="sans-serif" font-size="13" lengthAdjust="spacingAndGlyphs" textLength="144" x="919" y="199.7622">Check if building exists</text><polygon fill="#A80036" points="1223,229.9609,1233,233.9609,1223,237.9609,1227,233.9609" style="stroke: #A80036; stroke-width: 1.0;"/><line style="stroke: #A80036; stroke-width: 1.0;" x1="1085" x2="1229" y1="233.9609" y2="233.9609"/><text fill="#000000" font-family="sans-serif" font-size="13" lengthAdjust="spacingAndGlyphs" textLength="112" x="1092" y="228.895">Query for building</text><polygon fill="#A80036" points="1096,259.0938,1086,263.0938,1096,267.0938,1092,263.0938" style="stroke: #A80036; stroke-width: 1.0;"/><line style="stroke: #A80036; stroke-width: 1.0; stroke-dasharray: 2.0,2.0;" x1="1090" x2="1239" y1="263.0938" y2="263.0938"/><text fill="#000000" font-family="sans-serif" font-size="13" lengthAdjust="spacingAndGlyphs" textLength="126" x="1102" y="258.0278">Building data or null</text><polygon fill="#A80036" points="923,288.2266,913,292.2266,923,296.2266,919,292.2266" style="stroke: #A80036; stroke-width: 1.0;"/><line style="stroke: #A80036; stroke-width: 1.0; stroke-dasharray: 2.0,2.0;" x1="917" x2="1079" y1="292.2266" y2="292.2266"/><text fill="#000000" font-family="sans-serif" font-size="13" lengthAdjust="spacingAndGlyphs" textLength="126" x="929" y="287.1606">Building data or null</text><path d="M561.5,307.2266 L625.5,307.2266 L625.5,314.2266 L615.5,324.2266 L561.5,324.2266 L561.5,307.2266 " fill="#EEEEEE" style="stroke: #000000; stroke-width: 1.0;"/><rect fill="none" height="148.4688" style="stroke: #000000; stroke-width: 2.0;" width="733" x="561.5" y="307.2266"/><text fill="#000000" font-family="sans-serif" font-size="13" font-weight="bold" lengthAdjust="spacingAndGlyphs" textLength="19" x="576.5" y="320.2935">alt</text><text fill="#000000" font-family="sans-serif" font-size="11" font-weight="bold" lengthAdjust="spacingAndGlyphs" textLength="104" x="640.5" y="319.437">[Building found]</text><polygon fill="#A80036" points="1223,341.4922,1233,345.4922,1223,349.4922,1227,345.4922" style="stroke: #A80036; stroke-width: 1.0;"/><line style="stroke: #A80036; stroke-width: 1.0;" x1="912" x2="1229" y1="345.4922" y2="345.4922"/><text fill="#000000" font-family="sans-serif" font-size="13" lengthAdjust="spacingAndGlyphs" textLength="80" x="919" y="340.4263">Save new lift</text><polygon fill="#A80036" points="923,370.625,913,374.625,923,378.625,919,374.625" style="stroke: #A80036; stroke-width: 1.0;"/><line style="stroke: #A80036; stroke-width: 1.0; stroke-dasharray: 2.0,2.0;" x1="917" x2="1239" y1="374.625" y2="374.625"/><text fill="#000000" font-family="sans-serif" font-size="13" lengthAdjust="spacingAndGlyphs" textLength="61" x="929" y="369.5591">Lift saved</text><polygon fill="#A80036" points="642,399.7578,632,403.7578,642,407.7578,638,403.7578" style="stroke: #A80036; stroke-width: 1.0;"/><line style="stroke: #A80036; stroke-width: 1.0; stroke-dasharray: 2.0,2.0;" x1="636" x2="901" y1="403.7578" y2="403.7578"/><text fill="#000000" font-family="sans-serif" font-size="13" lengthAdjust="spacingAndGlyphs" textLength="130" x="648" y="398.6919">Lift creation success</text><line style="stroke: #000000; stroke-width: 1.0; stroke-dasharray: 2.0,2.0;" x1="561.5" x2="1294.5" y1="412.7578" y2="412.7578"/><text fill="#000000" font-family="sans-serif" font-size="11" font-weight="bold" lengthAdjust="spacingAndGlyphs" textLength="129" x="566.5" y="422.9683">[Building not found]</text><polygon fill="#A80036" points="642,443.6953,632,447.6953,642,451.6953,638,447.6953" style="stroke: #A80036; stroke-width: 1.0;"/><line style="stroke: #A80036; stroke-width: 1.0; stroke-dasharray: 2.0,2.0;" x1="636" x2="901" y1="447.6953" y2="447.6953"/><text fill="#000000" font-family="sans-serif" font-size="13" lengthAdjust="spacingAndGlyphs" textLength="247" x="648" y="442.6294">Lift creation failure (Building not found)</text><path d="M278,469.6953 L342,469.6953 L342,476.6953 L332,486.6953 L278,486.6953 L278,469.6953 " fill="#EEEEEE" style="stroke: #000000; stroke-width: 1.0;"/><rect fill="none" height="90.2031" style="stroke: #000000; stroke-width: 2.0;" width="412.5" x="278" y="469.6953"/><text fill="#000000" font-family="sans-serif" font-size="13" font-weight="bold" lengthAdjust="spacingAndGlyphs" textLength="19" x="293" y="482.7622">alt</text><text fill="#000000" font-family="sans-serif" font-size="11" font-weight="bold" lengthAdjust="spacingAndGlyphs" textLength="143" x="357" y="481.9058">[Lift creation success]</text><polygon fill="#A80036" points="342,503.9609,332,507.9609,342,511.9609,338,507.9609" style="stroke: #A80036; stroke-width: 1.0;"/><line style="stroke: #A80036; stroke-width: 1.0; stroke-dasharray: 2.0,2.0;" x1="336" x2="620" y1="507.9609" y2="507.9609"/><text fill="#000000" font-family="sans-serif" font-size="13" lengthAdjust="spacingAndGlyphs" textLength="210" x="348" y="502.895">Success response with lift details</text><line style="stroke: #000000; stroke-width: 1.0; stroke-dasharray: 2.0,2.0;" x1="278" x2="690.5" y1="516.9609" y2="516.9609"/><text fill="#000000" font-family="sans-serif" font-size="11" font-weight="bold" lengthAdjust="spacingAndGlyphs" textLength="134" x="283" y="527.1714">[Lift creation failure]</text><polygon fill="#A80036" points="342,547.8984,332,551.8984,342,555.8984,338,551.8984" style="stroke: #A80036; stroke-width: 1.0;"/><line style="stroke: #A80036; stroke-width: 1.0; stroke-dasharray: 2.0,2.0;" x1="336" x2="620" y1="551.8984" y2="551.8984"/><text fill="#000000" font-family="sans-serif" font-size="13" lengthAdjust="spacingAndGlyphs" textLength="266" x="348" y="546.8325">Failure response (e.g., Building not found)</text><polygon fill="#A80036" points="38,584.0313,28,588.0313,38,592.0313,34,588.0313" style="stroke: #A80036; stroke-width: 1.0;"/><line style="stroke: #A80036; stroke-width: 1.0;" x1="32" x2="330" y1="588.0313" y2="588.0313"/><text fill="#000000" font-family="sans-serif" font-size="13" lengthAdjust="spacingAndGlyphs" textLength="280" x="44" y="582.9653">Display creation outcome (success or error)</text><!--MD5=[f71f52038a9693d1d5dd74e707eda1fb]
@startuml lvl2_createLift

actor "User" as A
participant ":FrontEnd" as frontend
participant ":LiftController" as controller
participant ":LiftService" as service
participant ":BuildingService" as buildingService
participant ":Database" as db

A -> frontend: Access web interface and input lift data
frontend -> controller: Submit lift data
activate controller

controller -> service: createLift(data)
activate service

service -> buildingService: Check if building exists
activate buildingService
buildingService -> db: Query for building
activate db
db - -> buildingService: Building data or null
deactivate db
buildingService - -> service: Building data or null
deactivate buildingService

alt Building found
    service -> db: Save new lift
    activate db
    db - -> service: Lift saved
    deactivate db
    service - -> controller: Lift creation success
else Building not found
    service - -> controller: Lift creation failure (Building not found)
end
deactivate service

alt Lift creation success
    controller - -> frontend: Success response with lift details
else Lift creation failure
    controller - -> frontend: Failure response (e.g., Building not found)
end
deactivate controller

frontend -> A: Display creation outcome (success or error)

@enduml

PlantUML version 1.2020.02(Sun Mar 01 10:22:07 UTC 2020)
(GPL source distribution)
Java Runtime: OpenJDK Runtime Environment
JVM: OpenJDK 64-Bit Server VM
Java Version: 11.0.21+9
Operating System: Linux
Default Encoding: UTF-8
Language: en
Country: null
--></g></svg>