<?xml version="1.0" encoding="us-ascii" standalone="no"?><svg xmlns="http://www.w3.org/2000/svg" xmlns:xlink="http://www.w3.org/1999/xlink" contentStyleType="text/css" height="448px" preserveAspectRatio="none" style="width:680px;height:448px;background:#FFFFFF;" version="1.1" viewBox="0 0 680 448" width="680px" zoomAndPan="magnify"><defs/><g><rect fill="#FFFFFF" height="267.1953" style="stroke:#181818;stroke-width:1.0;" width="10" x="41" y="91.2969"/><rect fill="#FFFFFF" height="245.0625" style="stroke:#181818;stroke-width:1.0;" width="10" x="250" y="112.4297"/><rect fill="#FFFFFF" height="186.7969" style="stroke:#181818;stroke-width:1.0;" width="10" x="608" y="170.6953"/><rect fill="none" height="135.6641" style="stroke:#000000;stroke-width:1.5;" width="663" x="10" y="214.8281"/><line style="stroke:#181818;stroke-width:0.5;stroke-dasharray:5.0,5.0;" x1="46" x2="46" y1="81.2969" y2="367.4922"/><line style="stroke:#181818;stroke-width:0.5;stroke-dasharray:5.0,5.0;" x1="254.5" x2="254.5" y1="81.2969" y2="367.4922"/><line style="stroke:#181818;stroke-width:0.5;stroke-dasharray:5.0,5.0;" x1="613" x2="613" y1="81.2969" y2="367.4922"/><text fill="#000000" font-family="sans-serif" font-size="14" lengthAdjust="spacing" textLength="46" x="20" y="77.9951">Admin</text><ellipse cx="46" cy="13.5" fill="#E2E2F0" rx="8" ry="8" style="stroke:#181818;stroke-width:0.5;"/><path d="M46,21.5 L46,48.5 M33,29.5 L59,29.5 M46,48.5 L33,63.5 M46,48.5 L59,63.5 " fill="none" style="stroke:#181818;stroke-width:0.5;"/><text fill="#000000" font-family="sans-serif" font-size="14" lengthAdjust="spacing" textLength="46" x="20" y="379.4873">Admin</text><ellipse cx="46" cy="391.2891" fill="#E2E2F0" rx="8" ry="8" style="stroke:#181818;stroke-width:0.5;"/><path d="M46,399.2891 L46,426.2891 M33,407.2891 L59,407.2891 M46,426.2891 L33,441.2891 M46,426.2891 L59,441.2891 " fill="none" style="stroke:#181818;stroke-width:0.5;"/><rect fill="#E2E2F0" height="30.2969" rx="2.5" ry="2.5" style="stroke:#181818;stroke-width:0.5;" width="73" x="218.5" y="50"/><text fill="#000000" font-family="sans-serif" font-size="14" lengthAdjust="spacing" textLength="59" x="225.5" y="69.9951">:System</text><rect fill="#E2E2F0" height="30.2969" rx="2.5" ry="2.5" style="stroke:#181818;stroke-width:0.5;" width="73" x="218.5" y="366.4922"/><text fill="#000000" font-family="sans-serif" font-size="14" lengthAdjust="spacing" textLength="59" x="225.5" y="386.4873">:System</text><rect fill="#E2E2F0" height="30.2969" rx="2.5" ry="2.5" style="stroke:#181818;stroke-width:0.5;" width="100" x="563" y="50"/><text fill="#000000" font-family="sans-serif" font-size="14" lengthAdjust="spacing" textLength="86" x="570" y="69.9951">:RobotType</text><rect fill="#E2E2F0" height="30.2969" rx="2.5" ry="2.5" style="stroke:#181818;stroke-width:0.5;" width="100" x="563" y="366.4922"/><text fill="#000000" font-family="sans-serif" font-size="14" lengthAdjust="spacing" textLength="86" x="570" y="386.4873">:RobotType</text><rect fill="#FFFFFF" height="267.1953" style="stroke:#181818;stroke-width:1.0;" width="10" x="41" y="91.2969"/><rect fill="#FFFFFF" height="245.0625" style="stroke:#181818;stroke-width:1.0;" width="10" x="250" y="112.4297"/><rect fill="#FFFFFF" height="186.7969" style="stroke:#181818;stroke-width:1.0;" width="10" x="608" y="170.6953"/><polygon fill="#181818" points="238,108.4297,248,112.4297,238,116.4297,242,112.4297" style="stroke:#181818;stroke-width:1.0;"/><line style="stroke:#181818;stroke-width:1.0;" x1="51" x2="244" y1="112.4297" y2="112.4297"/><text fill="#000000" font-family="sans-serif" font-size="13" font-weight="bold" lengthAdjust="spacing" textLength="9" x="58" y="107.3638">1</text><text fill="#000000" font-family="sans-serif" font-size="13" lengthAdjust="spacing" textLength="95" x="71" y="107.3638">create a Route</text><polygon fill="#181818" points="62,137.5625,52,141.5625,62,145.5625,58,141.5625" style="stroke:#181818;stroke-width:1.0;"/><line style="stroke:#181818;stroke-width:1.0;stroke-dasharray:2.0,2.0;" x1="56" x2="249" y1="141.5625" y2="141.5625"/><text fill="#000000" font-family="sans-serif" font-size="13" font-weight="bold" lengthAdjust="spacing" textLength="9" x="68" y="136.4966">2</text><text fill="#000000" font-family="sans-serif" font-size="13" lengthAdjust="spacing" textLength="162" x="81" y="136.4966">request necessary data()</text><polygon fill="#181818" points="238,166.6953,248,170.6953,238,174.6953,242,170.6953" style="stroke:#181818;stroke-width:1.0;"/><line style="stroke:#181818;stroke-width:1.0;" x1="51" x2="244" y1="170.6953" y2="170.6953"/><text fill="#000000" font-family="sans-serif" font-size="13" font-weight="bold" lengthAdjust="spacing" textLength="8" x="58" y="165.6294">3</text><text fill="#000000" font-family="sans-serif" font-size="13" lengthAdjust="spacing" textLength="112" x="70" y="165.6294">insert all the data</text><polygon fill="#181818" points="596,195.8281,606,199.8281,596,203.8281,600,199.8281" style="stroke:#181818;stroke-width:1.0;"/><line style="stroke:#181818;stroke-width:1.0;" x1="260" x2="602" y1="199.8281" y2="199.8281"/><text fill="#000000" font-family="sans-serif" font-size="13" font-weight="bold" lengthAdjust="spacing" textLength="9" x="267" y="194.7622">4</text><text fill="#000000" font-family="sans-serif" font-size="13" lengthAdjust="spacing" textLength="311" x="280" y="194.7622">POST route{id, designation, brand, model, task}</text><path d="M10,214.8281 L76,214.8281 L76,221.9609 L66,231.9609 L10,231.9609 L10,214.8281 " fill="#EEEEEE" style="stroke:#000000;stroke-width:1.5;"/><rect fill="none" height="135.6641" style="stroke:#000000;stroke-width:1.5;" width="663" x="10" y="214.8281"/><text fill="#000000" font-family="sans-serif" font-size="13" font-weight="bold" lengthAdjust="spacing" textLength="21" x="25" y="227.895">alt</text><text fill="#000000" font-family="sans-serif" font-size="11" font-weight="bold" lengthAdjust="spacing" textLength="114" x="91" y="227.0386">[successful case]</text><polygon fill="#181818" points="271,249.0938,261,253.0938,271,257.0938,267,253.0938" style="stroke:#181818;stroke-width:1.0;"/><line style="stroke:#181818;stroke-width:1.0;stroke-dasharray:2.0,2.0;" x1="265" x2="607" y1="253.0938" y2="253.0938"/><text fill="#000000" font-family="sans-serif" font-size="13" font-weight="bold" lengthAdjust="spacing" textLength="9" x="277" y="248.0278">5</text><text fill="#000000" font-family="sans-serif" font-size="13" lengthAdjust="spacing" textLength="66" x="290" y="248.0278">HTTP: 201</text><polygon fill="#181818" points="62,278.2266,52,282.2266,62,286.2266,58,282.2266" style="stroke:#181818;stroke-width:1.0;"/><line style="stroke:#181818;stroke-width:1.0;stroke-dasharray:2.0,2.0;" x1="56" x2="249" y1="282.2266" y2="282.2266"/><text fill="#000000" font-family="sans-serif" font-size="13" font-weight="bold" lengthAdjust="spacing" textLength="9" x="68" y="277.1606">6</text><text fill="#000000" font-family="sans-serif" font-size="13" lengthAdjust="spacing" textLength="152" x="81" y="277.1606">show success message</text><line style="stroke:#000000;stroke-width:1.0;stroke-dasharray:2.0,2.0;" x1="10" x2="673" y1="291.2266" y2="291.2266"/><polygon fill="#181818" points="271,309.3594,261,313.3594,271,317.3594,267,313.3594" style="stroke:#181818;stroke-width:1.0;"/><line style="stroke:#181818;stroke-width:1.0;stroke-dasharray:2.0,2.0;" x1="265" x2="607" y1="313.3594" y2="313.3594"/><text fill="#000000" font-family="sans-serif" font-size="13" font-weight="bold" lengthAdjust="spacing" textLength="9" x="277" y="308.2935">7</text><text fill="#000000" font-family="sans-serif" font-size="13" lengthAdjust="spacing" textLength="66" x="290" y="308.2935">HTTP: 400</text><polygon fill="#181818" points="62,338.4922,52,342.4922,62,346.4922,58,342.4922" style="stroke:#181818;stroke-width:1.0;"/><line style="stroke:#181818;stroke-width:1.0;stroke-dasharray:2.0,2.0;" x1="56" x2="249" y1="342.4922" y2="342.4922"/><text fill="#000000" font-family="sans-serif" font-size="13" font-weight="bold" lengthAdjust="spacing" textLength="9" x="68" y="337.4263">8</text><text fill="#000000" font-family="sans-serif" font-size="13" lengthAdjust="spacing" textLength="141" x="81" y="337.4263">show failure message</text><!--SRC=[XP1DJiCm48NtFiKe6q1gfO1OPL69NNTKRIumYIUDXMC7pnY847V7iHG25GWl_3Dl_FazOnJluj1GK5UzqGITzzBuDuMj-035WnwCAm0PSDufDM8GqveHdK1HdIOM6hBE4r-8HzzugQUHiXwMavhPvWM55cPUOBkR6HMqWR86Hn-5rkRv0PKcsAREVAM2GC-HMC1HIymO9j0eU7tp0maL6CSK1D1Qa9voqmfUdMNwRYrKS7WyrUcSZBmRlG5DRCuEnNYtWIQWIxN1Qx8R4EIdZvJ52d1iPpjTjD0Yau8qlfZPVWwwh-j31NVbRMwuICQzVrr0CCpXpgJ8_aUxByi_QHqQ6mEjDAULfb- -uLinSJu1]--></g></svg>