<?xml version="1.0" encoding="UTF-8" standalone="no"?><svg xmlns="http://www.w3.org/2000/svg" xmlns:xlink="http://www.w3.org/1999/xlink" contentScriptType="application/ecmascript" contentStyleType="text/css" height="368px" preserveAspectRatio="none" style="width:513px;height:368px;" version="1.1" viewBox="0 0 513 368" width="513px" zoomAndPan="magnify"><defs><filter height="300%" id="fnrpm2cjhgpo6" width="300%" x="-1" y="-1"><feGaussianBlur result="blurOut" stdDeviation="2.0"/><feColorMatrix in="blurOut" result="blurOut2" type="matrix" values="0 0 0 0 0 0 0 0 0 0 0 0 0 0 0 0 0 0 .4 0"/><feOffset dx="4.0" dy="4.0" in="blurOut2" result="blurOut3"/><feBlend in="SourceGraphic" in2="blurOut3" mode="normal"/></filter></defs><g><line style="stroke: #A80036; stroke-width: 1.0; stroke-dasharray: 5.0,5.0;" x1="27" x2="27" y1="86.2969" y2="281.0938"/><line style="stroke: #A80036; stroke-width: 1.0; stroke-dasharray: 5.0,5.0;" x1="212" x2="212" y1="86.2969" y2="281.0938"/><line style="stroke: #A80036; stroke-width: 1.0; stroke-dasharray: 5.0,5.0;" x1="327" x2="327" y1="86.2969" y2="281.0938"/><line style="stroke: #A80036; stroke-width: 1.0; stroke-dasharray: 5.0,5.0;" x1="452" x2="452" y1="86.2969" y2="281.0938"/><text fill="#000000" font-family="sans-serif" font-size="14" lengthAdjust="spacingAndGlyphs" textLength="32" x="8" y="82.9951">User</text><ellipse cx="27" cy="13" fill="#FEFECE" filter="url(#fnrpm2cjhgpo6)" rx="8" ry="8" style="stroke: #A80036; stroke-width: 2.0;"/><path d="M27,21 L27,48 M14,29 L40,29 M27,48 L14,63 M27,48 L40,63 " fill="none" filter="url(#fnrpm2cjhgpo6)" style="stroke: #A80036; stroke-width: 2.0;"/><text fill="#000000" font-family="sans-serif" font-size="14" lengthAdjust="spacingAndGlyphs" textLength="32" x="8" y="293.0889">User</text><ellipse cx="27" cy="306.3906" fill="#FEFECE" filter="url(#fnrpm2cjhgpo6)" rx="8" ry="8" style="stroke: #A80036; stroke-width: 2.0;"/><path d="M27,314.3906 L27,341.3906 M14,322.3906 L40,322.3906 M27,341.3906 L14,356.3906 M27,341.3906 L40,356.3906 " fill="none" filter="url(#fnrpm2cjhgpo6)" style="stroke: #A80036; stroke-width: 2.0;"/><rect fill="#FEFECE" filter="url(#fnrpm2cjhgpo6)" height="30.2969" style="stroke: #A80036; stroke-width: 1.5;" width="82" x="169" y="51"/><text fill="#000000" font-family="sans-serif" font-size="14" lengthAdjust="spacingAndGlyphs" textLength="68" x="176" y="70.9951">:FrontEnd</text><rect fill="#FEFECE" filter="url(#fnrpm2cjhgpo6)" height="30.2969" style="stroke: #A80036; stroke-width: 1.5;" width="82" x="169" y="280.0938"/><text fill="#000000" font-family="sans-serif" font-size="14" lengthAdjust="spacingAndGlyphs" textLength="68" x="176" y="300.0889">:FrontEnd</text><rect fill="#FEFECE" filter="url(#fnrpm2cjhgpo6)" height="30.2969" style="stroke: #A80036; stroke-width: 1.5;" width="120" x="265" y="51"/><text fill="#000000" font-family="sans-serif" font-size="14" lengthAdjust="spacingAndGlyphs" textLength="106" x="272" y="70.9951">:FloorController</text><rect fill="#FEFECE" filter="url(#fnrpm2cjhgpo6)" height="30.2969" style="stroke: #A80036; stroke-width: 1.5;" width="120" x="265" y="280.0938"/><text fill="#000000" font-family="sans-serif" font-size="14" lengthAdjust="spacingAndGlyphs" textLength="106" x="272" y="300.0889">:FloorController</text><rect fill="#FEFECE" filter="url(#fnrpm2cjhgpo6)" height="30.2969" style="stroke: #A80036; stroke-width: 1.5;" width="103" x="399" y="51"/><text fill="#000000" font-family="sans-serif" font-size="14" lengthAdjust="spacingAndGlyphs" textLength="89" x="406" y="70.9951">:FloorService</text><rect fill="#FEFECE" filter="url(#fnrpm2cjhgpo6)" height="30.2969" style="stroke: #A80036; stroke-width: 1.5;" width="103" x="399" y="280.0938"/><text fill="#000000" font-family="sans-serif" font-size="14" lengthAdjust="spacingAndGlyphs" textLength="89" x="406" y="300.0889">:FloorService</text><polygon fill="#A80036" points="200,113.4297,210,117.4297,200,121.4297,204,117.4297" style="stroke: #A80036; stroke-width: 1.0;"/><line style="stroke: #A80036; stroke-width: 1.0;" x1="27" x2="206" y1="117.4297" y2="117.4297"/><text fill="#000000" font-family="sans-serif" font-size="13" lengthAdjust="spacingAndGlyphs" textLength="161" x="34" y="112.3638">Request to create a Floor</text><polygon fill="#A80036" points="315,142.5625,325,146.5625,315,150.5625,319,146.5625" style="stroke: #A80036; stroke-width: 1.0;"/><line style="stroke: #A80036; stroke-width: 1.0;" x1="212" x2="321" y1="146.5625" y2="146.5625"/><text fill="#000000" font-family="sans-serif" font-size="13" lengthAdjust="spacingAndGlyphs" textLength="90" x="219" y="141.4966">Create a Floor</text><polygon fill="#A80036" points="440.5,171.6953,450.5,175.6953,440.5,179.6953,444.5,175.6953" style="stroke: #A80036; stroke-width: 1.0;"/><line style="stroke: #A80036; stroke-width: 1.0;" x1="327" x2="446.5" y1="175.6953" y2="175.6953"/><text fill="#000000" font-family="sans-serif" font-size="13" lengthAdjust="spacingAndGlyphs" textLength="90" x="334" y="170.6294">Create a Floor</text><polygon fill="#A80036" points="338,200.8281,328,204.8281,338,208.8281,334,204.8281" style="stroke: #A80036; stroke-width: 1.0;"/><line style="stroke: #A80036; stroke-width: 1.0; stroke-dasharray: 2.0,2.0;" x1="332" x2="451.5" y1="204.8281" y2="204.8281"/><text fill="#000000" font-family="sans-serif" font-size="13" lengthAdjust="spacingAndGlyphs" textLength="39" x="344" y="199.7622">Result</text><polygon fill="#A80036" points="223,229.9609,213,233.9609,223,237.9609,219,233.9609" style="stroke: #A80036; stroke-width: 1.0;"/><line style="stroke: #A80036; stroke-width: 1.0; stroke-dasharray: 2.0,2.0;" x1="217" x2="326" y1="233.9609" y2="233.9609"/><text fill="#000000" font-family="sans-serif" font-size="13" lengthAdjust="spacingAndGlyphs" textLength="62" x="229" y="228.895">Response</text><polygon fill="#A80036" points="38,259.0938,28,263.0938,38,267.0938,34,263.0938" style="stroke: #A80036; stroke-width: 1.0;"/><line style="stroke: #A80036; stroke-width: 1.0; stroke-dasharray: 2.0,2.0;" x1="32" x2="211" y1="263.0938" y2="263.0938"/><text fill="#000000" font-family="sans-serif" font-size="13" lengthAdjust="spacingAndGlyphs" textLength="62" x="44" y="258.0278">Response</text><!--MD5=[5159d22ae58a30ea954f910ab5ab066c]
@startuml
actor "User" as user
participant ":FrontEnd" as frontend
participant ":FloorController" as controller
participant ":FloorService" as service

user -> frontend: Request to create a Floor
frontend -> controller: Create a Floor
controller -> service: Create a Floor
service - -> controller: Result
controller - -> frontend: Response
frontend - -> user: Response
@enduml

PlantUML version 1.2020.02(Sun Mar 01 10:22:07 UTC 2020)
(GPL source distribution)
Java Runtime: OpenJDK Runtime Environment
JVM: OpenJDK 64-Bit Server VM
Java Version: 11.0.21+9
Operating System: Linux
Default Encoding: UTF-8
Language: en
Country: null
--></g></svg>