<?xml version="1.0" encoding="us-ascii" standalone="no"?><svg xmlns="http://www.w3.org/2000/svg" xmlns:xlink="http://www.w3.org/1999/xlink" contentStyleType="text/css" height="869px" preserveAspectRatio="none" style="width:1941px;height:869px;background:#FFFFFF;" version="1.1" viewBox="0 0 1941 869" width="1941px" zoomAndPan="magnify"><defs/><g><rect fill="#FFFFFF" height="688.0547" style="stroke:#181818;stroke-width:1.0;" width="10" x="41" y="91.2969"/><rect fill="#FFFFFF" height="665.9219" style="stroke:#181818;stroke-width:1.0;" width="10" x="250" y="112.4297"/><rect fill="#FFFFFF" height="608.6563" style="stroke:#181818;stroke-width:1.0;" width="10" x="756" y="170.6953"/><rect fill="#FFFFFF" height="579.5234" style="stroke:#181818;stroke-width:1.0;" width="10" x="1022" y="199.8281"/><rect fill="#FFFFFF" height="550.3906" style="stroke:#181818;stroke-width:1.0;" width="10" x="1227" y="228.9609"/><rect fill="#FFFFFF" height="275.1953" style="stroke:#181818;stroke-width:1.0;" width="10" x="1372" y="258.0938"/><rect fill="#FFFFFF" height="275.1953" style="stroke:#181818;stroke-width:1.0;" width="10" x="1653" y="258.0938"/><rect fill="#FFFFFF" height="92.3984" style="stroke:#181818;stroke-width:1.0;" width="10" x="1757" y="440.8906"/><rect fill="#FFFFFF" height="216.9297" style="stroke:#181818;stroke-width:1.0;" width="10" x="1871.5" y="316.3594"/><rect fill="none" height="193.9297" style="stroke:#000000;stroke-width:1.5;" width="1094" x="10" y="577.4219"/><line style="stroke:#181818;stroke-width:0.5;stroke-dasharray:5.0,5.0;" x1="46" x2="46" y1="81.2969" y2="788.3516"/><line style="stroke:#181818;stroke-width:0.5;stroke-dasharray:5.0,5.0;" x1="254.5" x2="254.5" y1="81.2969" y2="788.3516"/><line style="stroke:#181818;stroke-width:0.5;stroke-dasharray:5.0,5.0;" x1="760.5" x2="760.5" y1="81.2969" y2="788.3516"/><line style="stroke:#181818;stroke-width:0.5;stroke-dasharray:5.0,5.0;" x1="1027" x2="1027" y1="81.2969" y2="788.3516"/><line style="stroke:#181818;stroke-width:0.5;stroke-dasharray:5.0,5.0;" x1="1232" x2="1232" y1="81.2969" y2="788.3516"/><line style="stroke:#181818;stroke-width:0.5;stroke-dasharray:5.0,5.0;" x1="1376.5" x2="1376.5" y1="81.2969" y2="788.3516"/><line style="stroke:#181818;stroke-width:0.5;stroke-dasharray:5.0,5.0;" x1="1657.5" x2="1657.5" y1="81.2969" y2="788.3516"/><line style="stroke:#181818;stroke-width:0.5;stroke-dasharray:5.0,5.0;" x1="1761.5" x2="1761.5" y1="81.2969" y2="788.3516"/><line style="stroke:#181818;stroke-width:0.5;stroke-dasharray:5.0,5.0;" x1="1876.5" x2="1876.5" y1="81.2969" y2="788.3516"/><text fill="#000000" font-family="sans-serif" font-size="14" lengthAdjust="spacing" textLength="46" x="20" y="77.9951">Admin</text><ellipse cx="46" cy="13.5" fill="#E2E2F0" rx="8" ry="8" style="stroke:#181818;stroke-width:0.5;"/><path d="M46,21.5 L46,48.5 M33,29.5 L59,29.5 M46,48.5 L33,63.5 M46,48.5 L59,63.5 " fill="none" style="stroke:#181818;stroke-width:0.5;"/><text fill="#000000" font-family="sans-serif" font-size="14" lengthAdjust="spacing" textLength="46" x="20" y="800.3467">Admin</text><ellipse cx="46" cy="812.1484" fill="#E2E2F0" rx="8" ry="8" style="stroke:#181818;stroke-width:0.5;"/><path d="M46,820.1484 L46,847.1484 M33,828.1484 L59,828.1484 M46,847.1484 L33,862.1484 M46,847.1484 L59,862.1484 " fill="none" style="stroke:#181818;stroke-width:0.5;"/><rect fill="#E2E2F0" height="30.2969" rx="2.5" ry="2.5" style="stroke:#181818;stroke-width:0.5;" width="85" x="212.5" y="50"/><text fill="#000000" font-family="sans-serif" font-size="14" lengthAdjust="spacing" textLength="71" x="219.5" y="69.9951">:FrontEnd</text><rect fill="#E2E2F0" height="30.2969" rx="2.5" ry="2.5" style="stroke:#181818;stroke-width:0.5;" width="85" x="212.5" y="787.3516"/><text fill="#000000" font-family="sans-serif" font-size="14" lengthAdjust="spacing" textLength="71" x="219.5" y="807.3467">:FrontEnd</text><rect fill="#E2E2F0" height="30.2969" rx="2.5" ry="2.5" style="stroke:#181818;stroke-width:0.5;" width="75" x="723.5" y="50"/><text fill="#000000" font-family="sans-serif" font-size="14" lengthAdjust="spacing" textLength="61" x="730.5" y="69.9951">:Routing</text><rect fill="#E2E2F0" height="30.2969" rx="2.5" ry="2.5" style="stroke:#181818;stroke-width:0.5;" width="75" x="723.5" y="787.3516"/><text fill="#000000" font-family="sans-serif" font-size="14" lengthAdjust="spacing" textLength="61" x="730.5" y="807.3467">:Routing</text><rect fill="#E2E2F0" height="30.2969" rx="2.5" ry="2.5" style="stroke:#181818;stroke-width:0.5;" width="134" x="960" y="50"/><text fill="#000000" font-family="sans-serif" font-size="14" lengthAdjust="spacing" textLength="120" x="967" y="69.9951">:RoomController</text><rect fill="#E2E2F0" height="30.2969" rx="2.5" ry="2.5" style="stroke:#181818;stroke-width:0.5;" width="134" x="960" y="787.3516"/><text fill="#000000" font-family="sans-serif" font-size="14" lengthAdjust="spacing" textLength="120" x="967" y="807.3467">:RoomController</text><rect fill="#E2E2F0" height="30.2969" rx="2.5" ry="2.5" style="stroke:#181818;stroke-width:0.5;" width="114" x="1175" y="50"/><text fill="#000000" font-family="sans-serif" font-size="14" lengthAdjust="spacing" textLength="100" x="1182" y="69.9951">:RoomService</text><rect fill="#E2E2F0" height="30.2969" rx="2.5" ry="2.5" style="stroke:#181818;stroke-width:0.5;" width="114" x="1175" y="787.3516"/><text fill="#000000" font-family="sans-serif" font-size="14" lengthAdjust="spacing" textLength="100" x="1182" y="807.3467">:RoomService</text><rect fill="#E2E2F0" height="30.2969" rx="2.5" ry="2.5" style="stroke:#181818;stroke-width:0.5;" width="99" x="1327.5" y="50"/><text fill="#000000" font-family="sans-serif" font-size="14" lengthAdjust="spacing" textLength="85" x="1334.5" y="69.9951">:RoomRepo</text><rect fill="#E2E2F0" height="30.2969" rx="2.5" ry="2.5" style="stroke:#181818;stroke-width:0.5;" width="99" x="1327.5" y="787.3516"/><text fill="#000000" font-family="sans-serif" font-size="14" lengthAdjust="spacing" textLength="85" x="1334.5" y="807.3467">:RoomRepo</text><rect fill="#E2E2F0" height="30.2969" rx="2.5" ry="2.5" style="stroke:#181818;stroke-width:0.5;" width="97" x="1609.5" y="50"/><text fill="#000000" font-family="sans-serif" font-size="14" lengthAdjust="spacing" textLength="83" x="1616.5" y="69.9951">:RoomClass</text><rect fill="#E2E2F0" height="30.2969" rx="2.5" ry="2.5" style="stroke:#181818;stroke-width:0.5;" width="97" x="1609.5" y="787.3516"/><text fill="#000000" font-family="sans-serif" font-size="14" lengthAdjust="spacing" textLength="83" x="1616.5" y="807.3467">:RoomClass</text><rect fill="#E2E2F0" height="30.2969" rx="2.5" ry="2.5" style="stroke:#181818;stroke-width:0.5;" width="91" x="1716.5" y="50"/><text fill="#000000" font-family="sans-serif" font-size="14" lengthAdjust="spacing" textLength="77" x="1723.5" y="69.9951">:RoomMap</text><rect fill="#E2E2F0" height="30.2969" rx="2.5" ry="2.5" style="stroke:#181818;stroke-width:0.5;" width="91" x="1716.5" y="787.3516"/><text fill="#000000" font-family="sans-serif" font-size="14" lengthAdjust="spacing" textLength="77" x="1723.5" y="807.3467">:RoomMap</text><rect fill="#E2E2F0" height="30.2969" rx="2.5" ry="2.5" style="stroke:#181818;stroke-width:0.5;" width="118" x="1817.5" y="50"/><text fill="#000000" font-family="sans-serif" font-size="14" lengthAdjust="spacing" textLength="104" x="1824.5" y="69.9951">:RoomSchema</text><rect fill="#E2E2F0" height="30.2969" rx="2.5" ry="2.5" style="stroke:#181818;stroke-width:0.5;" width="118" x="1817.5" y="787.3516"/><text fill="#000000" font-family="sans-serif" font-size="14" lengthAdjust="spacing" textLength="104" x="1824.5" y="807.3467">:RoomSchema</text><rect fill="#FFFFFF" height="688.0547" style="stroke:#181818;stroke-width:1.0;" width="10" x="41" y="91.2969"/><rect fill="#FFFFFF" height="665.9219" style="stroke:#181818;stroke-width:1.0;" width="10" x="250" y="112.4297"/><rect fill="#FFFFFF" height="608.6563" style="stroke:#181818;stroke-width:1.0;" width="10" x="756" y="170.6953"/><rect fill="#FFFFFF" height="579.5234" style="stroke:#181818;stroke-width:1.0;" width="10" x="1022" y="199.8281"/><rect fill="#FFFFFF" height="550.3906" style="stroke:#181818;stroke-width:1.0;" width="10" x="1227" y="228.9609"/><rect fill="#FFFFFF" height="275.1953" style="stroke:#181818;stroke-width:1.0;" width="10" x="1372" y="258.0938"/><rect fill="#FFFFFF" height="275.1953" style="stroke:#181818;stroke-width:1.0;" width="10" x="1653" y="258.0938"/><rect fill="#FFFFFF" height="92.3984" style="stroke:#181818;stroke-width:1.0;" width="10" x="1757" y="440.8906"/><rect fill="#FFFFFF" height="216.9297" style="stroke:#181818;stroke-width:1.0;" width="10" x="1871.5" y="316.3594"/><polygon fill="#181818" points="238,108.4297,248,112.4297,238,116.4297,242,112.4297" style="stroke:#181818;stroke-width:1.0;"/><line style="stroke:#181818;stroke-width:1.0;" x1="51" x2="244" y1="112.4297" y2="112.4297"/><text fill="#000000" font-family="sans-serif" font-size="13" font-weight="bold" lengthAdjust="spacing" textLength="9" x="58" y="107.3638">1</text><text fill="#000000" font-family="sans-serif" font-size="13" lengthAdjust="spacing" textLength="95" x="71" y="107.3638">create a Route</text><polygon fill="#181818" points="62,137.5625,52,141.5625,62,145.5625,58,141.5625" style="stroke:#181818;stroke-width:1.0;"/><line style="stroke:#181818;stroke-width:1.0;stroke-dasharray:2.0,2.0;" x1="56" x2="249" y1="141.5625" y2="141.5625"/><text fill="#000000" font-family="sans-serif" font-size="13" font-weight="bold" lengthAdjust="spacing" textLength="9" x="68" y="136.4966">2</text><text fill="#000000" font-family="sans-serif" font-size="13" lengthAdjust="spacing" textLength="162" x="81" y="136.4966">request necessary data()</text><polygon fill="#181818" points="238,166.6953,248,170.6953,238,174.6953,242,170.6953" style="stroke:#181818;stroke-width:1.0;"/><line style="stroke:#181818;stroke-width:1.0;" x1="51" x2="244" y1="170.6953" y2="170.6953"/><text fill="#000000" font-family="sans-serif" font-size="13" font-weight="bold" lengthAdjust="spacing" textLength="8" x="58" y="165.6294">3</text><text fill="#000000" font-family="sans-serif" font-size="13" lengthAdjust="spacing" textLength="112" x="70" y="165.6294">insert all the data</text><polygon fill="#181818" points="744,195.8281,754,199.8281,744,203.8281,748,199.8281" style="stroke:#181818;stroke-width:1.0;"/><line style="stroke:#181818;stroke-width:1.0;" x1="260" x2="750" y1="199.8281" y2="199.8281"/><text fill="#000000" font-family="sans-serif" font-size="13" font-weight="bold" lengthAdjust="spacing" textLength="9" x="267" y="194.7622">4</text><text fill="#000000" font-family="sans-serif" font-size="13" lengthAdjust="spacing" textLength="459" x="280" y="194.7622">POST route{id, Building, Floor, name, category, description, dimension}</text><polygon fill="#181818" points="1010,224.9609,1020,228.9609,1010,232.9609,1014,228.9609" style="stroke:#181818;stroke-width:1.0;"/><line style="stroke:#181818;stroke-width:1.0;" x1="766" x2="1016" y1="228.9609" y2="228.9609"/><text fill="#000000" font-family="sans-serif" font-size="13" font-weight="bold" lengthAdjust="spacing" textLength="9" x="773" y="223.895">5</text><text fill="#000000" font-family="sans-serif" font-size="13" lengthAdjust="spacing" textLength="219" x="786" y="223.895">createRoom(request, result, next)</text><polygon fill="#181818" points="1215,254.0938,1225,258.0938,1215,262.0938,1219,258.0938" style="stroke:#181818;stroke-width:1.0;"/><line style="stroke:#181818;stroke-width:1.0;" x1="1032" x2="1221" y1="258.0938" y2="258.0938"/><text fill="#000000" font-family="sans-serif" font-size="13" font-weight="bold" lengthAdjust="spacing" textLength="9" x="1039" y="253.0278">6</text><text fill="#000000" font-family="sans-serif" font-size="13" lengthAdjust="spacing" textLength="158" x="1052" y="253.0278">createRoom(IRoomDTO)</text><polygon fill="#181818" points="1641,283.2266,1651,287.2266,1641,291.2266,1645,287.2266" style="stroke:#181818;stroke-width:1.0;"/><line style="stroke:#181818;stroke-width:1.0;" x1="1237" x2="1647" y1="287.2266" y2="287.2266"/><text fill="#000000" font-family="sans-serif" font-size="13" font-weight="bold" lengthAdjust="spacing" textLength="9" x="1244" y="282.1606">7</text><text fill="#000000" font-family="sans-serif" font-size="13" lengthAdjust="spacing" textLength="108" x="1257" y="282.1606">create(roomDto)</text><polygon fill="#181818" points="1360,312.3594,1370,316.3594,1360,320.3594,1364,316.3594" style="stroke:#181818;stroke-width:1.0;"/><line style="stroke:#181818;stroke-width:1.0;" x1="1237" x2="1366" y1="316.3594" y2="316.3594"/><text fill="#000000" font-family="sans-serif" font-size="13" font-weight="bold" lengthAdjust="spacing" textLength="9" x="1244" y="311.2935">8</text><text fill="#000000" font-family="sans-serif" font-size="13" lengthAdjust="spacing" textLength="98" x="1257" y="311.2935">save(roomDto)</text><polygon fill="#181818" points="1859.5,341.4922,1869.5,345.4922,1859.5,349.4922,1863.5,345.4922" style="stroke:#181818;stroke-width:1.0;"/><line style="stroke:#181818;stroke-width:1.0;" x1="1382" x2="1865.5" y1="345.4922" y2="345.4922"/><text fill="#000000" font-family="sans-serif" font-size="13" font-weight="bold" lengthAdjust="spacing" textLength="9" x="1389" y="340.4263">9</text><text fill="#000000" font-family="sans-serif" font-size="13" lengthAdjust="spacing" textLength="71" x="1402" y="340.4263">findOne(id)</text><polygon fill="#181818" points="1859.5,370.625,1869.5,374.625,1859.5,378.625,1863.5,374.625" style="stroke:#181818;stroke-width:1.0;"/><line style="stroke:#181818;stroke-width:1.0;" x1="1382" x2="1865.5" y1="374.625" y2="374.625"/><text fill="#000000" font-family="sans-serif" font-size="13" font-weight="bold" lengthAdjust="spacing" textLength="19" x="1389" y="369.5591">10</text><text fill="#000000" font-family="sans-serif" font-size="13" lengthAdjust="spacing" textLength="97" x="1412" y="369.5591">findOne(name)</text><polygon fill="#181818" points="1859.5,399.7578,1869.5,403.7578,1859.5,407.7578,1863.5,403.7578" style="stroke:#181818;stroke-width:1.0;"/><line style="stroke:#181818;stroke-width:1.0;" x1="1382" x2="1865.5" y1="403.7578" y2="403.7578"/><text fill="#000000" font-family="sans-serif" font-size="13" font-weight="bold" lengthAdjust="spacing" textLength="18" x="1389" y="398.6919">11</text><text fill="#000000" font-family="sans-serif" font-size="13" lengthAdjust="spacing" textLength="142" x="1411" y="398.6919">find(buildingId, floorId)</text><line style="stroke:#181818;stroke-width:1.0;" x1="1382" x2="1429" y1="427.8906" y2="427.8906"/><line style="stroke:#181818;stroke-width:1.0;" x1="1429" x2="1429" y1="427.8906" y2="440.8906"/><line style="stroke:#181818;stroke-width:1.0;" x1="1388" x2="1429" y1="440.8906" y2="440.8906"/><polygon fill="#181818" points="1398,436.8906,1388,440.8906,1398,444.8906,1394,440.8906" style="stroke:#181818;stroke-width:1.0;"/><text fill="#000000" font-family="sans-serif" font-size="13" font-weight="bold" lengthAdjust="spacing" textLength="18" x="1394" y="422.8247">12</text><text fill="#000000" font-family="sans-serif" font-size="13" lengthAdjust="spacing" textLength="235" x="1416" y="422.8247">doRoomsOverlap(room, tempRoom)</text><polygon fill="#181818" points="1745,471.0234,1755,475.0234,1745,479.0234,1749,475.0234" style="stroke:#181818;stroke-width:1.0;"/><line style="stroke:#181818;stroke-width:1.0;" x1="1382" x2="1751" y1="475.0234" y2="475.0234"/><text fill="#000000" font-family="sans-serif" font-size="13" font-weight="bold" lengthAdjust="spacing" textLength="17" x="1389" y="469.9575">13</text><text fill="#000000" font-family="sans-serif" font-size="13" lengthAdjust="spacing" textLength="131" x="1410" y="469.9575">toPersistance(room)</text><polygon fill="#181818" points="1859.5,500.1563,1869.5,504.1563,1859.5,508.1563,1863.5,504.1563" style="stroke:#181818;stroke-width:1.0;"/><line style="stroke:#181818;stroke-width:1.0;" x1="1382" x2="1865.5" y1="504.1563" y2="504.1563"/><text fill="#000000" font-family="sans-serif" font-size="13" font-weight="bold" lengthAdjust="spacing" textLength="18" x="1389" y="499.0903">14</text><text fill="#000000" font-family="sans-serif" font-size="13" lengthAdjust="spacing" textLength="85" x="1411" y="499.0903">create(room)</text><polygon fill="#181818" points="1248,529.2891,1238,533.2891,1248,537.2891,1244,533.2891" style="stroke:#181818;stroke-width:1.0;"/><line style="stroke:#181818;stroke-width:1.0;stroke-dasharray:2.0,2.0;" x1="1242" x2="1376" y1="533.2891" y2="533.2891"/><text fill="#000000" font-family="sans-serif" font-size="13" font-weight="bold" lengthAdjust="spacing" textLength="18" x="1254" y="528.2231">15</text><text fill="#000000" font-family="sans-serif" font-size="13" lengthAdjust="spacing" textLength="34" x="1276" y="528.2231">room</text><polygon fill="#181818" points="1043,558.4219,1033,562.4219,1043,566.4219,1039,562.4219" style="stroke:#181818;stroke-width:1.0;"/><line style="stroke:#181818;stroke-width:1.0;stroke-dasharray:2.0,2.0;" x1="1037" x2="1226" y1="562.4219" y2="562.4219"/><text fill="#000000" font-family="sans-serif" font-size="13" font-weight="bold" lengthAdjust="spacing" textLength="18" x="1049" y="557.356">16</text><text fill="#000000" font-family="sans-serif" font-size="13" lengthAdjust="spacing" textLength="36" x="1071" y="557.356">result</text><path d="M10,577.4219 L76,577.4219 L76,584.5547 L66,594.5547 L10,594.5547 L10,577.4219 " fill="#EEEEEE" style="stroke:#000000;stroke-width:1.5;"/><rect fill="none" height="193.9297" style="stroke:#000000;stroke-width:1.5;" width="1094" x="10" y="577.4219"/><text fill="#000000" font-family="sans-serif" font-size="13" font-weight="bold" lengthAdjust="spacing" textLength="21" x="25" y="590.4888">alt</text><text fill="#000000" font-family="sans-serif" font-size="11" font-weight="bold" lengthAdjust="spacing" textLength="114" x="91" y="589.6323">[successful case]</text><polygon fill="#181818" points="777,611.6875,767,615.6875,777,619.6875,773,615.6875" style="stroke:#181818;stroke-width:1.0;"/><line style="stroke:#181818;stroke-width:1.0;stroke-dasharray:2.0,2.0;" x1="771" x2="1021" y1="615.6875" y2="615.6875"/><text fill="#000000" font-family="sans-serif" font-size="13" font-weight="bold" lengthAdjust="spacing" textLength="18" x="783" y="610.6216">17</text><text fill="#000000" font-family="sans-serif" font-size="13" lengthAdjust="spacing" textLength="66" x="805" y="610.6216">HTTP: 201</text><polygon fill="#181818" points="271,640.8203,261,644.8203,271,648.8203,267,644.8203" style="stroke:#181818;stroke-width:1.0;"/><line style="stroke:#181818;stroke-width:1.0;stroke-dasharray:2.0,2.0;" x1="265" x2="755" y1="644.8203" y2="644.8203"/><text fill="#000000" font-family="sans-serif" font-size="13" font-weight="bold" lengthAdjust="spacing" textLength="18" x="277" y="639.7544">18</text><text fill="#000000" font-family="sans-serif" font-size="13" lengthAdjust="spacing" textLength="66" x="299" y="639.7544">HTTP: 201</text><polygon fill="#181818" points="62,669.9531,52,673.9531,62,677.9531,58,673.9531" style="stroke:#181818;stroke-width:1.0;"/><line style="stroke:#181818;stroke-width:1.0;stroke-dasharray:2.0,2.0;" x1="56" x2="249" y1="673.9531" y2="673.9531"/><text fill="#000000" font-family="sans-serif" font-size="13" font-weight="bold" lengthAdjust="spacing" textLength="18" x="68" y="668.8872">19</text><text fill="#000000" font-family="sans-serif" font-size="13" lengthAdjust="spacing" textLength="152" x="90" y="668.8872">show success message</text><line style="stroke:#000000;stroke-width:1.0;stroke-dasharray:2.0,2.0;" x1="10" x2="1104" y1="682.9531" y2="682.9531"/><polygon fill="#181818" points="777,701.0859,767,705.0859,777,709.0859,773,705.0859" style="stroke:#181818;stroke-width:1.0;"/><line style="stroke:#181818;stroke-width:1.0;stroke-dasharray:2.0,2.0;" x1="771" x2="1021" y1="705.0859" y2="705.0859"/><text fill="#000000" font-family="sans-serif" font-size="13" font-weight="bold" lengthAdjust="spacing" textLength="19" x="783" y="700.02">20</text><text fill="#000000" font-family="sans-serif" font-size="13" lengthAdjust="spacing" textLength="66" x="806" y="700.02">HTTP: 400</text><polygon fill="#181818" points="271,730.2188,261,734.2188,271,738.2188,267,734.2188" style="stroke:#181818;stroke-width:1.0;"/><line style="stroke:#181818;stroke-width:1.0;stroke-dasharray:2.0,2.0;" x1="265" x2="755" y1="734.2188" y2="734.2188"/><text fill="#000000" font-family="sans-serif" font-size="13" font-weight="bold" lengthAdjust="spacing" textLength="18" x="277" y="729.1528">21</text><text fill="#000000" font-family="sans-serif" font-size="13" lengthAdjust="spacing" textLength="66" x="299" y="729.1528">HTTP: 400</text><polygon fill="#181818" points="62,759.3516,52,763.3516,62,767.3516,58,763.3516" style="stroke:#181818;stroke-width:1.0;"/><line style="stroke:#181818;stroke-width:1.0;stroke-dasharray:2.0,2.0;" x1="56" x2="249" y1="763.3516" y2="763.3516"/><text fill="#000000" font-family="sans-serif" font-size="13" font-weight="bold" lengthAdjust="spacing" textLength="18" x="68" y="758.2856">22</text><text fill="#000000" font-family="sans-serif" font-size="13" lengthAdjust="spacing" textLength="141" x="90" y="758.2856">show failure message</text><!--SRC=[VLFDRjim3BxxAOXSvW0ka0qx-L1WMrSiXo51cXTG92OH84kU97iDXhtxI2bEdCoj3p8fVlpxI8akEjirE_J5XwDM27lduiwz5a96vs7sHJNQpa0442mLHIjyr5AtmaQOrS_UsVZTgeG8ft1dthWkQdj8Layo_cTtpJUAu9qnw1DCHcycK2_eUoqnv_6zd81ii7Kv4mbJYOm8uLoAQoO0FqLxCPCyLOKyOYCkeAmMp9NkHSI1e_I3XqTcf0RfCTbWanYuW9ckWWvu86HogQdqNns621ObXY3y2PI8efpVX8GQj0te8mXZ81unWQw1CzCfycDMQbYlNhPP_gDL1LyxRHHDfe9duvolm8e6Av3aVd3-L8728BrketQM5DsW3IJ-lIP9Sqe1EGjhGwTCL7bkfAAEGcVeR_4rpaVDympPA_L4oettai-dxMhaa8OwQf4co6wvHTSCxYKhJz7DhrPoh268VcIxYNEU8kE6QFcgXhssQcMnr6h-hftPUnjHxiviBudvFVEz7CTBzId7BOTLZzw8DbLQGSIcvUkxWdatnxb8ho6wDVgWGnHMvawd2nhHD00k4qYiAfnYv-wMIxYxkj5vM7a0b-N8Yq2FmqG8dUJztdU6LYvW0VJbPHWsbdRyntQxhk7JucCodrTjU5ItnhjN58xkzv036dv81opGl9_eysBnTgB1E9LeBxJfF5uJMJNcWbp-0G00]--></g></svg>