<?xml version="1.0" encoding="UTF-8" standalone="no"?><svg xmlns="http://www.w3.org/2000/svg" xmlns:xlink="http://www.w3.org/1999/xlink" contentScriptType="application/ecmascript" contentStyleType="text/css" height="809px" preserveAspectRatio="none" style="width:1866px;height:809px;" version="1.1" viewBox="0 0 1866 809" width="1866px" zoomAndPan="magnify"><defs><filter height="300%" id="f1a6i0g2o8wicx" width="300%" x="-1" y="-1"><feGaussianBlur result="blurOut" stdDeviation="2.0"/><feColorMatrix in="blurOut" result="blurOut2" type="matrix" values="0 0 0 0 0 0 0 0 0 0 0 0 0 0 0 0 0 0 .4 0"/><feOffset dx="4.0" dy="4.0" in="blurOut2" result="blurOut3"/><feBlend in="SourceGraphic" in2="blurOut3" mode="normal"/></filter></defs><g><rect fill="#FFFFFF" filter="url(#f1a6i0g2o8wicx)" height="616.7891" style="stroke: #A80036; stroke-width: 1.0;" width="10" x="42.5" y="96.2969"/><rect fill="#FFFFFF" filter="url(#f1a6i0g2o8wicx)" height="594.6563" style="stroke: #A80036; stroke-width: 1.0;" width="10" x="250.5" y="117.4297"/><rect fill="#FFFFFF" filter="url(#f1a6i0g2o8wicx)" height="537.3906" style="stroke: #A80036; stroke-width: 1.0;" width="10" x="606.5" y="175.6953"/><rect fill="#FFFFFF" filter="url(#f1a6i0g2o8wicx)" height="508.2578" style="stroke: #A80036; stroke-width: 1.0;" width="10" x="900.5" y="204.8281"/><rect fill="#FFFFFF" filter="url(#f1a6i0g2o8wicx)" height="479.125" style="stroke: #A80036; stroke-width: 1.0;" width="10" x="1162.5" y="233.9609"/><rect fill="#FFFFFF" filter="url(#f1a6i0g2o8wicx)" height="203.9297" style="stroke: #A80036; stroke-width: 1.0;" width="10" x="1408.5" y="263.0938"/><rect fill="#FFFFFF" filter="url(#f1a6i0g2o8wicx)" height="87.3984" style="stroke: #A80036; stroke-width: 1.0;" width="10" x="1625.5" y="379.625"/><rect fill="#FFFFFF" filter="url(#f1a6i0g2o8wicx)" height="174.7969" style="stroke: #A80036; stroke-width: 1.0;" width="10" x="1777" y="292.2266"/><rect fill="#FFFFFF" filter="url(#f1a6i0g2o8wicx)" height="193.9297" style="stroke: #000000; stroke-width: 2.0;" width="968.5" x="13" y="511.1563"/><rect fill="#FFFFFF" height="89.3984" style="stroke: none; stroke-width: 1.0;" width="968.5" x="13" y="615.6875"/><line style="stroke: #A80036; stroke-width: 1.0; stroke-dasharray: 5.0,5.0;" x1="47" x2="47" y1="86.2969" y2="722.0859"/><line style="stroke: #A80036; stroke-width: 1.0; stroke-dasharray: 5.0,5.0;" x1="255.5" x2="255.5" y1="86.2969" y2="722.0859"/><line style="stroke: #A80036; stroke-width: 1.0; stroke-dasharray: 5.0,5.0;" x1="611" x2="611" y1="86.2969" y2="722.0859"/><line style="stroke: #A80036; stroke-width: 1.0; stroke-dasharray: 5.0,5.0;" x1="905.5" x2="905.5" y1="86.2969" y2="722.0859"/><line style="stroke: #A80036; stroke-width: 1.0; stroke-dasharray: 5.0,5.0;" x1="1167" x2="1167" y1="86.2969" y2="722.0859"/><line style="stroke: #A80036; stroke-width: 1.0; stroke-dasharray: 5.0,5.0;" x1="1413.5" x2="1413.5" y1="86.2969" y2="722.0859"/><line style="stroke: #A80036; stroke-width: 1.0; stroke-dasharray: 5.0,5.0;" x1="1630.5" x2="1630.5" y1="86.2969" y2="722.0859"/><line style="stroke: #A80036; stroke-width: 1.0; stroke-dasharray: 5.0,5.0;" x1="1781.5" x2="1781.5" y1="86.2969" y2="722.0859"/><text fill="#000000" font-family="sans-serif" font-size="14" lengthAdjust="spacingAndGlyphs" textLength="43" x="23" y="82.9951">Admin</text><ellipse cx="47.5" cy="13" fill="#FEFECE" filter="url(#f1a6i0g2o8wicx)" rx="8" ry="8" style="stroke: #A80036; stroke-width: 2.0;"/><path d="M47.5,21 L47.5,48 M34.5,29 L60.5,29 M47.5,48 L34.5,63 M47.5,48 L60.5,63 " fill="none" filter="url(#f1a6i0g2o8wicx)" style="stroke: #A80036; stroke-width: 2.0;"/><text fill="#000000" font-family="sans-serif" font-size="14" lengthAdjust="spacingAndGlyphs" textLength="43" x="23" y="734.0811">Admin</text><ellipse cx="47.5" cy="747.3828" fill="#FEFECE" filter="url(#f1a6i0g2o8wicx)" rx="8" ry="8" style="stroke: #A80036; stroke-width: 2.0;"/><path d="M47.5,755.3828 L47.5,782.3828 M34.5,763.3828 L60.5,763.3828 M47.5,782.3828 L34.5,797.3828 M47.5,782.3828 L60.5,797.3828 " fill="none" filter="url(#f1a6i0g2o8wicx)" style="stroke: #A80036; stroke-width: 2.0;"/><rect fill="#FEFECE" filter="url(#f1a6i0g2o8wicx)" height="30.2969" style="stroke: #A80036; stroke-width: 1.5;" width="82" x="212.5" y="51"/><text fill="#000000" font-family="sans-serif" font-size="14" lengthAdjust="spacingAndGlyphs" textLength="68" x="219.5" y="70.9951">:FrontEnd</text><rect fill="#FEFECE" filter="url(#f1a6i0g2o8wicx)" height="30.2969" style="stroke: #A80036; stroke-width: 1.5;" width="82" x="212.5" y="721.0859"/><text fill="#000000" font-family="sans-serif" font-size="14" lengthAdjust="spacingAndGlyphs" textLength="68" x="219.5" y="741.0811">:FrontEnd</text><rect fill="#FEFECE" filter="url(#f1a6i0g2o8wicx)" height="30.2969" style="stroke: #A80036; stroke-width: 1.5;" width="73" x="573" y="51"/><text fill="#000000" font-family="sans-serif" font-size="14" lengthAdjust="spacingAndGlyphs" textLength="59" x="580" y="70.9951">:Routing</text><rect fill="#FEFECE" filter="url(#f1a6i0g2o8wicx)" height="30.2969" style="stroke: #A80036; stroke-width: 1.5;" width="73" x="573" y="721.0859"/><text fill="#000000" font-family="sans-serif" font-size="14" lengthAdjust="spacingAndGlyphs" textLength="59" x="580" y="741.0811">:Routing</text><rect fill="#FEFECE" filter="url(#f1a6i0g2o8wicx)" height="30.2969" style="stroke: #A80036; stroke-width: 1.5;" width="128" x="839.5" y="51"/><text fill="#000000" font-family="sans-serif" font-size="14" lengthAdjust="spacingAndGlyphs" textLength="114" x="846.5" y="70.9951">:RobotController</text><rect fill="#FEFECE" filter="url(#f1a6i0g2o8wicx)" height="30.2969" style="stroke: #A80036; stroke-width: 1.5;" width="128" x="839.5" y="721.0859"/><text fill="#000000" font-family="sans-serif" font-size="14" lengthAdjust="spacingAndGlyphs" textLength="114" x="846.5" y="741.0811">:RobotController</text><rect fill="#FEFECE" filter="url(#f1a6i0g2o8wicx)" height="30.2969" style="stroke: #A80036; stroke-width: 1.5;" width="111" x="1110" y="51"/><text fill="#000000" font-family="sans-serif" font-size="14" lengthAdjust="spacingAndGlyphs" textLength="97" x="1117" y="70.9951">:RobotService</text><rect fill="#FEFECE" filter="url(#f1a6i0g2o8wicx)" height="30.2969" style="stroke: #A80036; stroke-width: 1.5;" width="111" x="1110" y="721.0859"/><text fill="#000000" font-family="sans-serif" font-size="14" lengthAdjust="spacingAndGlyphs" textLength="97" x="1117" y="741.0811">:RobotService</text><rect fill="#FEFECE" filter="url(#f1a6i0g2o8wicx)" height="30.2969" style="stroke: #A80036; stroke-width: 1.5;" width="132" x="1345.5" y="51"/><text fill="#000000" font-family="sans-serif" font-size="14" lengthAdjust="spacingAndGlyphs" textLength="118" x="1352.5" y="70.9951">:RobotTypeRepo</text><rect fill="#FEFECE" filter="url(#f1a6i0g2o8wicx)" height="30.2969" style="stroke: #A80036; stroke-width: 1.5;" width="132" x="1345.5" y="721.0859"/><text fill="#000000" font-family="sans-serif" font-size="14" lengthAdjust="spacingAndGlyphs" textLength="118" x="1352.5" y="741.0811">:RobotTypeRepo</text><rect fill="#FEFECE" filter="url(#f1a6i0g2o8wicx)" height="30.2969" style="stroke: #A80036; stroke-width: 1.5;" width="124" x="1566.5" y="51"/><text fill="#000000" font-family="sans-serif" font-size="14" lengthAdjust="spacingAndGlyphs" textLength="110" x="1573.5" y="70.9951">:RobotTypeMap</text><rect fill="#FEFECE" filter="url(#f1a6i0g2o8wicx)" height="30.2969" style="stroke: #A80036; stroke-width: 1.5;" width="124" x="1566.5" y="721.0859"/><text fill="#000000" font-family="sans-serif" font-size="14" lengthAdjust="spacingAndGlyphs" textLength="110" x="1573.5" y="741.0811">:RobotTypeMap</text><rect fill="#FEFECE" filter="url(#f1a6i0g2o8wicx)" height="30.2969" style="stroke: #A80036; stroke-width: 1.5;" width="151" x="1704.5" y="51"/><text fill="#000000" font-family="sans-serif" font-size="14" lengthAdjust="spacingAndGlyphs" textLength="137" x="1711.5" y="70.9951">:RobotTypeSchema</text><rect fill="#FEFECE" filter="url(#f1a6i0g2o8wicx)" height="30.2969" style="stroke: #A80036; stroke-width: 1.5;" width="151" x="1704.5" y="721.0859"/><text fill="#000000" font-family="sans-serif" font-size="14" lengthAdjust="spacingAndGlyphs" textLength="137" x="1711.5" y="741.0811">:RobotTypeSchema</text><rect fill="#FFFFFF" filter="url(#f1a6i0g2o8wicx)" height="616.7891" style="stroke: #A80036; stroke-width: 1.0;" width="10" x="42.5" y="96.2969"/><rect fill="#FFFFFF" filter="url(#f1a6i0g2o8wicx)" height="594.6563" style="stroke: #A80036; stroke-width: 1.0;" width="10" x="250.5" y="117.4297"/><rect fill="#FFFFFF" filter="url(#f1a6i0g2o8wicx)" height="537.3906" style="stroke: #A80036; stroke-width: 1.0;" width="10" x="606.5" y="175.6953"/><rect fill="#FFFFFF" filter="url(#f1a6i0g2o8wicx)" height="508.2578" style="stroke: #A80036; stroke-width: 1.0;" width="10" x="900.5" y="204.8281"/><rect fill="#FFFFFF" filter="url(#f1a6i0g2o8wicx)" height="479.125" style="stroke: #A80036; stroke-width: 1.0;" width="10" x="1162.5" y="233.9609"/><rect fill="#FFFFFF" filter="url(#f1a6i0g2o8wicx)" height="203.9297" style="stroke: #A80036; stroke-width: 1.0;" width="10" x="1408.5" y="263.0938"/><rect fill="#FFFFFF" filter="url(#f1a6i0g2o8wicx)" height="87.3984" style="stroke: #A80036; stroke-width: 1.0;" width="10" x="1625.5" y="379.625"/><rect fill="#FFFFFF" filter="url(#f1a6i0g2o8wicx)" height="174.7969" style="stroke: #A80036; stroke-width: 1.0;" width="10" x="1777" y="292.2266"/><polygon fill="#A80036" points="238.5,113.4297,248.5,117.4297,238.5,121.4297,242.5,117.4297" style="stroke: #A80036; stroke-width: 1.0;"/><line style="stroke: #A80036; stroke-width: 1.0;" x1="52.5" x2="244.5" y1="117.4297" y2="117.4297"/><text fill="#000000" font-family="sans-serif" font-size="13" font-weight="bold" lengthAdjust="spacingAndGlyphs" textLength="9" x="59.5" y="112.3638">1</text><text fill="#000000" font-family="sans-serif" font-size="13" lengthAdjust="spacingAndGlyphs" textLength="94" x="72.5" y="112.3638">create a Route</text><polygon fill="#A80036" points="63.5,142.5625,53.5,146.5625,63.5,150.5625,59.5,146.5625" style="stroke: #A80036; stroke-width: 1.0;"/><line style="stroke: #A80036; stroke-width: 1.0; stroke-dasharray: 2.0,2.0;" x1="57.5" x2="249.5" y1="146.5625" y2="146.5625"/><text fill="#000000" font-family="sans-serif" font-size="13" font-weight="bold" lengthAdjust="spacingAndGlyphs" textLength="9" x="69.5" y="141.4966">2</text><text fill="#000000" font-family="sans-serif" font-size="13" lengthAdjust="spacingAndGlyphs" textLength="161" x="82.5" y="141.4966">request necessary data()</text><polygon fill="#A80036" points="238.5,171.6953,248.5,175.6953,238.5,179.6953,242.5,175.6953" style="stroke: #A80036; stroke-width: 1.0;"/><line style="stroke: #A80036; stroke-width: 1.0;" x1="52.5" x2="244.5" y1="175.6953" y2="175.6953"/><text fill="#000000" font-family="sans-serif" font-size="13" font-weight="bold" lengthAdjust="spacingAndGlyphs" textLength="9" x="59.5" y="170.6294">3</text><text fill="#000000" font-family="sans-serif" font-size="13" lengthAdjust="spacingAndGlyphs" textLength="112" x="72.5" y="170.6294">insert all the data</text><polygon fill="#A80036" points="594.5,200.8281,604.5,204.8281,594.5,208.8281,598.5,204.8281" style="stroke: #A80036; stroke-width: 1.0;"/><line style="stroke: #A80036; stroke-width: 1.0;" x1="260.5" x2="600.5" y1="204.8281" y2="204.8281"/><text fill="#000000" font-family="sans-serif" font-size="13" font-weight="bold" lengthAdjust="spacingAndGlyphs" textLength="9" x="267.5" y="199.7622">4</text><text fill="#000000" font-family="sans-serif" font-size="13" lengthAdjust="spacingAndGlyphs" textLength="309" x="280.5" y="199.7622">POST route{id, designation, brand, model, task}</text><polygon fill="#A80036" points="888.5,229.9609,898.5,233.9609,888.5,237.9609,892.5,233.9609" style="stroke: #A80036; stroke-width: 1.0;"/><line style="stroke: #A80036; stroke-width: 1.0;" x1="616.5" x2="894.5" y1="233.9609" y2="233.9609"/><text fill="#000000" font-family="sans-serif" font-size="13" font-weight="bold" lengthAdjust="spacingAndGlyphs" textLength="9" x="623.5" y="228.895">5</text><text fill="#000000" font-family="sans-serif" font-size="13" lengthAdjust="spacingAndGlyphs" textLength="247" x="636.5" y="228.895">createRobotType(request, result, next)</text><polygon fill="#A80036" points="1150.5,259.0938,1160.5,263.0938,1150.5,267.0938,1154.5,263.0938" style="stroke: #A80036; stroke-width: 1.0;"/><line style="stroke: #A80036; stroke-width: 1.0;" x1="910.5" x2="1156.5" y1="263.0938" y2="263.0938"/><text fill="#000000" font-family="sans-serif" font-size="13" font-weight="bold" lengthAdjust="spacingAndGlyphs" textLength="9" x="917.5" y="258.0278">6</text><text fill="#000000" font-family="sans-serif" font-size="13" lengthAdjust="spacingAndGlyphs" textLength="215" x="930.5" y="258.0278">createRobotType(IRobotTypeDTO)</text><polygon fill="#A80036" points="1396.5,288.2266,1406.5,292.2266,1396.5,296.2266,1400.5,292.2266" style="stroke: #A80036; stroke-width: 1.0;"/><line style="stroke: #A80036; stroke-width: 1.0;" x1="1172.5" x2="1402.5" y1="292.2266" y2="292.2266"/><text fill="#000000" font-family="sans-serif" font-size="13" font-weight="bold" lengthAdjust="spacingAndGlyphs" textLength="9" x="1179.5" y="287.1606">7</text><text fill="#000000" font-family="sans-serif" font-size="13" lengthAdjust="spacingAndGlyphs" textLength="199" x="1192.5" y="287.1606">findByDesignation(designation)</text><polygon fill="#A80036" points="1765,317.3594,1775,321.3594,1765,325.3594,1769,321.3594" style="stroke: #A80036; stroke-width: 1.0;"/><line style="stroke: #A80036; stroke-width: 1.0;" x1="1418.5" x2="1771" y1="321.3594" y2="321.3594"/><text fill="#000000" font-family="sans-serif" font-size="13" font-weight="bold" lengthAdjust="spacingAndGlyphs" textLength="9" x="1425.5" y="316.2935">8</text><text fill="#000000" font-family="sans-serif" font-size="13" lengthAdjust="spacingAndGlyphs" textLength="133" x="1438.5" y="316.2935">findOne(designation)</text><polygon fill="#A80036" points="1396.5,346.4922,1406.5,350.4922,1396.5,354.4922,1400.5,350.4922" style="stroke: #A80036; stroke-width: 1.0;"/><line style="stroke: #A80036; stroke-width: 1.0;" x1="1172.5" x2="1402.5" y1="350.4922" y2="350.4922"/><text fill="#000000" font-family="sans-serif" font-size="13" font-weight="bold" lengthAdjust="spacingAndGlyphs" textLength="9" x="1179.5" y="345.4263">9</text><text fill="#000000" font-family="sans-serif" font-size="13" lengthAdjust="spacingAndGlyphs" textLength="104" x="1192.5" y="345.4263">save(robotType)</text><polygon fill="#A80036" points="1765,375.625,1775,379.625,1765,383.625,1769,379.625" style="stroke: #A80036; stroke-width: 1.0;"/><line style="stroke: #A80036; stroke-width: 1.0;" x1="1418.5" x2="1771" y1="379.625" y2="379.625"/><text fill="#000000" font-family="sans-serif" font-size="13" font-weight="bold" lengthAdjust="spacingAndGlyphs" textLength="18" x="1425.5" y="374.5591">10</text><text fill="#000000" font-family="sans-serif" font-size="13" lengthAdjust="spacingAndGlyphs" textLength="70" x="1447.5" y="374.5591">findOne(id)</text><polygon fill="#A80036" points="1613.5,404.7578,1623.5,408.7578,1613.5,412.7578,1617.5,408.7578" style="stroke: #A80036; stroke-width: 1.0;"/><line style="stroke: #A80036; stroke-width: 1.0;" x1="1418.5" x2="1619.5" y1="408.7578" y2="408.7578"/><text fill="#000000" font-family="sans-serif" font-size="13" font-weight="bold" lengthAdjust="spacingAndGlyphs" textLength="18" x="1425.5" y="403.6919">11</text><text fill="#000000" font-family="sans-serif" font-size="13" lengthAdjust="spacingAndGlyphs" textLength="161" x="1447.5" y="403.6919">toPersistance(robotType)</text><polygon fill="#A80036" points="1765,433.8906,1775,437.8906,1765,441.8906,1769,437.8906" style="stroke: #A80036; stroke-width: 1.0;"/><line style="stroke: #A80036; stroke-width: 1.0;" x1="1418.5" x2="1771" y1="437.8906" y2="437.8906"/><text fill="#000000" font-family="sans-serif" font-size="13" font-weight="bold" lengthAdjust="spacingAndGlyphs" textLength="18" x="1425.5" y="432.8247">12</text><text fill="#000000" font-family="sans-serif" font-size="13" lengthAdjust="spacingAndGlyphs" textLength="115" x="1447.5" y="432.8247">create(robotType)</text><polygon fill="#A80036" points="1183.5,463.0234,1173.5,467.0234,1183.5,471.0234,1179.5,467.0234" style="stroke: #A80036; stroke-width: 1.0;"/><line style="stroke: #A80036; stroke-width: 1.0; stroke-dasharray: 2.0,2.0;" x1="1177.5" x2="1412.5" y1="467.0234" y2="467.0234"/><text fill="#000000" font-family="sans-serif" font-size="13" font-weight="bold" lengthAdjust="spacingAndGlyphs" textLength="18" x="1189.5" y="461.9575">13</text><text fill="#000000" font-family="sans-serif" font-size="13" lengthAdjust="spacingAndGlyphs" textLength="64" x="1211.5" y="461.9575">robotType</text><polygon fill="#A80036" points="921.5,492.1563,911.5,496.1563,921.5,500.1563,917.5,496.1563" style="stroke: #A80036; stroke-width: 1.0;"/><line style="stroke: #A80036; stroke-width: 1.0; stroke-dasharray: 2.0,2.0;" x1="915.5" x2="1161.5" y1="496.1563" y2="496.1563"/><text fill="#000000" font-family="sans-serif" font-size="13" font-weight="bold" lengthAdjust="spacingAndGlyphs" textLength="18" x="927.5" y="491.0903">14</text><text fill="#000000" font-family="sans-serif" font-size="13" lengthAdjust="spacingAndGlyphs" textLength="36" x="949.5" y="491.0903">result</text><path d="M13,511.1563 L77,511.1563 L77,518.1563 L67,528.1563 L13,528.1563 L13,511.1563 " fill="#EEEEEE" style="stroke: #000000; stroke-width: 1.0;"/><rect fill="none" height="193.9297" style="stroke: #000000; stroke-width: 2.0;" width="968.5" x="13" y="511.1563"/><text fill="#000000" font-family="sans-serif" font-size="13" font-weight="bold" lengthAdjust="spacingAndGlyphs" textLength="19" x="28" y="524.2231">alt</text><text fill="#000000" font-family="sans-serif" font-size="11" font-weight="bold" lengthAdjust="spacingAndGlyphs" textLength="112" x="92" y="523.3667">[successful case]</text><polygon fill="#A80036" points="627.5,545.4219,617.5,549.4219,627.5,553.4219,623.5,549.4219" style="stroke: #A80036; stroke-width: 1.0;"/><line style="stroke: #A80036; stroke-width: 1.0; stroke-dasharray: 2.0,2.0;" x1="621.5" x2="899.5" y1="549.4219" y2="549.4219"/><text fill="#000000" font-family="sans-serif" font-size="13" font-weight="bold" lengthAdjust="spacingAndGlyphs" textLength="18" x="633.5" y="544.356">15</text><text fill="#000000" font-family="sans-serif" font-size="13" lengthAdjust="spacingAndGlyphs" textLength="64" x="655.5" y="544.356">HTTP: 201</text><polygon fill="#A80036" points="271.5,574.5547,261.5,578.5547,271.5,582.5547,267.5,578.5547" style="stroke: #A80036; stroke-width: 1.0;"/><line style="stroke: #A80036; stroke-width: 1.0; stroke-dasharray: 2.0,2.0;" x1="265.5" x2="605.5" y1="578.5547" y2="578.5547"/><text fill="#000000" font-family="sans-serif" font-size="13" font-weight="bold" lengthAdjust="spacingAndGlyphs" textLength="18" x="277.5" y="573.4888">16</text><text fill="#000000" font-family="sans-serif" font-size="13" lengthAdjust="spacingAndGlyphs" textLength="64" x="299.5" y="573.4888">HTTP: 201</text><polygon fill="#A80036" points="63.5,603.6875,53.5,607.6875,63.5,611.6875,59.5,607.6875" style="stroke: #A80036; stroke-width: 1.0;"/><line style="stroke: #A80036; stroke-width: 1.0; stroke-dasharray: 2.0,2.0;" x1="57.5" x2="249.5" y1="607.6875" y2="607.6875"/><text fill="#000000" font-family="sans-serif" font-size="13" font-weight="bold" lengthAdjust="spacingAndGlyphs" textLength="18" x="69.5" y="602.6216">17</text><text fill="#000000" font-family="sans-serif" font-size="13" lengthAdjust="spacingAndGlyphs" textLength="150" x="91.5" y="602.6216">show success message</text><line style="stroke: #000000; stroke-width: 1.0; stroke-dasharray: 2.0,2.0;" x1="13" x2="981.5" y1="616.6875" y2="616.6875"/><polygon fill="#A80036" points="627.5,634.8203,617.5,638.8203,627.5,642.8203,623.5,638.8203" style="stroke: #A80036; stroke-width: 1.0;"/><line style="stroke: #A80036; stroke-width: 1.0; stroke-dasharray: 2.0,2.0;" x1="621.5" x2="899.5" y1="638.8203" y2="638.8203"/><text fill="#000000" font-family="sans-serif" font-size="13" font-weight="bold" lengthAdjust="spacingAndGlyphs" textLength="18" x="633.5" y="633.7544">18</text><text fill="#000000" font-family="sans-serif" font-size="13" lengthAdjust="spacingAndGlyphs" textLength="64" x="655.5" y="633.7544">HTTP: 400</text><polygon fill="#A80036" points="271.5,663.9531,261.5,667.9531,271.5,671.9531,267.5,667.9531" style="stroke: #A80036; stroke-width: 1.0;"/><line style="stroke: #A80036; stroke-width: 1.0; stroke-dasharray: 2.0,2.0;" x1="265.5" x2="605.5" y1="667.9531" y2="667.9531"/><text fill="#000000" font-family="sans-serif" font-size="13" font-weight="bold" lengthAdjust="spacingAndGlyphs" textLength="18" x="277.5" y="662.8872">19</text><text fill="#000000" font-family="sans-serif" font-size="13" lengthAdjust="spacingAndGlyphs" textLength="64" x="299.5" y="662.8872">HTTP: 400</text><polygon fill="#A80036" points="63.5,693.0859,53.5,697.0859,63.5,701.0859,59.5,697.0859" style="stroke: #A80036; stroke-width: 1.0;"/><line style="stroke: #A80036; stroke-width: 1.0; stroke-dasharray: 2.0,2.0;" x1="57.5" x2="249.5" y1="697.0859" y2="697.0859"/><text fill="#000000" font-family="sans-serif" font-size="13" font-weight="bold" lengthAdjust="spacingAndGlyphs" textLength="18" x="69.5" y="692.02">20</text><text fill="#000000" font-family="sans-serif" font-size="13" lengthAdjust="spacingAndGlyphs" textLength="138" x="91.5" y="692.02">show failure message</text><!--MD5=[aa87a97d767f14b3fe185feff656bc1a]
@startuml
autonumber
actor "Admin" as admin

participant ":FrontEnd" as sys
participant ":Routing" as route
participant ":RobotController" as ctrl
participant ":RobotService" as srvc
participant ":RobotTypeRepo" as repo
participant ":RobotTypeMap" as rtMap
participant ":RobotTypeSchema" as rtSchema

activate admin

admin -> sys: create a Route
activate sys

sys - -> admin: request necessary data()
admin -> sys : insert all the data
activate route
sys -> route: POST route{id, designation, brand, model, task}
activate ctrl
route -> ctrl: createRobotType(request, result, next)
activate srvc
ctrl -> srvc: createRobotType(IRobotTypeDTO)
activate repo
srvc -> repo: findByDesignation(designation)
activate rtSchema
repo -> rtSchema: findOne(designation)
srvc -> repo: save(robotType)
repo -> rtSchema: findOne(id) 
activate rtMap
repo -> rtMap: toPersistance(robotType)
repo -> rtSchema: create(robotType)
repo - -> srvc: robotType
deactivate rtSchema
deactivate rtMap
deactivate repo
srvc - -> ctrl: result

alt successful case
    ctrl - -> route : HTTP: 201
    route - -> sys: HTTP: 201
    sys - -> admin: show success message
else
    ctrl - -> route : HTTP: 400
    route - -> sys: HTTP: 400
    sys - -> admin: show failure message
end
deactivate sys
@enduml

PlantUML version 1.2020.02(Sun Mar 01 10:22:07 UTC 2020)
(GPL source distribution)
Java Runtime: OpenJDK Runtime Environment
JVM: OpenJDK 64-Bit Server VM
Java Version: 11.0.21+9
Operating System: Linux
Default Encoding: UTF-8
Language: en
Country: null
--></g></svg>